<svg id="Layer_1" data-name="Layer 1" xmlns="http://www.w3.org/2000/svg" xmlns:xlink="http://www.w3.org/1999/xlink" width="1600" height="900" viewBox="0 0 1600 900">
  <defs>
    <style>
      .cls-1 {
        fill: none;
      }

      .cls-2 {
        clip-path: url(#clip-path);
      }

      .cls-3 {
        fill: #7f37bd;
      }

      .cls-4 {
        fill: #6b2abb;
      }

      .cls-5 {
        fill: #6132bf;
      }

      .cls-6 {
        fill: #7131a8;
      }

      .cls-7 {
        fill: #876ac2;
        stroke: #455477;
        stroke-miterlimit: 10;
        stroke-width: 10px;
      }
    </style>
    <clipPath id="clip-path">
      <rect class="cls-1" width="1600" height="900"/>
    </clipPath>
  </defs>
  <g class="cls-2">
    <g>
      <g>
        <polygon class="cls-3" points="-39.85 -11.64 -14.22 907.12 1608.59 905.73 1618.5 -11.64 -39.85 -11.64"/>
        <path class="cls-4" d="M1596.3-31.8s-219.88,7.06-203,253.21c7.07,102.66,10.59,205.41-88.94,389.65-35.67,66-90.11,133.39-207.41,189-58,27.5-192.25,99.12-198.92,172l742.95-.49S1685.08-111,1596.3-31.8Z"/>
        <path class="cls-5" d="M-92-117S307-12,200.9,319.73C174.74,401.52,140.17,482.82,277,651.51,315.4,698.84,374.1,743,465.71,789.42,511,812.37,615.83,872.16,621,933l-839.22-17S-161.33-183.11-92-117Z"/>
        <g>
          <polygon class="cls-6" points="213.18 88.17 55.18 88.17 -23.82 223.41 55.18 358.65 213.18 358.65 292.18 223.41 213.18 88.17"/>
          <polygon class="cls-7" points="197.87 89.6 50.99 89.6 -22.45 216.8 50.99 344 197.87 344 271.31 216.8 197.87 89.6"/>
        </g>
        <g>
          <polygon class="cls-6" points="213.18 549.11 55.18 549.11 -23.82 684.35 55.18 819.59 213.18 819.59 292.18 684.35 213.18 549.11"/>
          <polygon class="cls-7" points="197.87 550.54 50.99 550.54 -22.45 677.74 50.99 804.94 197.87 804.94 271.31 677.74 197.87 550.54"/>
        </g>
        <g>
          <polygon class="cls-6" points="499.58 737.58 341.58 737.58 262.58 872.82 341.58 1008.06 499.58 1008.06 578.58 872.82 499.58 737.58"/>
          <polygon class="cls-7" points="484.27 739.01 337.39 739.01 263.95 866.21 337.39 993.41 484.27 993.41 557.71 866.21 484.27 739.01"/>
        </g>
        <g>
          <polygon class="cls-6" points="1238.38 767.23 1080.38 767.23 1001.38 902.47 1080.38 1037.7 1238.38 1037.7 1317.38 902.47 1238.38 767.23"/>
          <polygon class="cls-7" points="1223.07 768.66 1076.19 768.66 1002.75 895.86 1076.19 1023.06 1223.07 1023.06 1296.51 895.86 1223.07 768.66"/>
        </g>
        <g>
          <g>
            <polygon class="cls-6" points="1543.06 88.17 1385.06 88.17 1306.06 223.41 1385.06 358.65 1543.06 358.65 1622.06 223.41 1543.06 88.17"/>
            <polygon class="cls-7" points="1527.75 89.6 1380.87 89.6 1307.43 216.8 1380.87 344 1527.75 344 1601.19 216.8 1527.75 89.6"/>
          </g>
          <g>
            <polygon class="cls-6" points="1543.06 549.11 1385.06 549.11 1306.06 684.35 1385.06 819.59 1543.06 819.59 1622.06 684.35 1543.06 549.11"/>
            <polygon class="cls-7" points="1530.58 552.31 1374.98 544.2 1302.25 662.56 1377.91 803.28 1524.75 806.65 1601.09 681.16 1530.58 552.31"/>
          </g>
        </g>
      </g>
      <rect class="cls-1" width="1600" height="900"/>
    </g>
  </g>
</svg>
