<svg id="Layer_1" data-name="Layer 1" xmlns="http://www.w3.org/2000/svg" width="1600" height="900" viewBox="0 0 1600 900">
  <defs>
    <style>
      .cls-1 {
        fill: #5e2d5a;
      }

      .cls-2 {
        fill: #fcfafb;
      }

      .cls-3 {
        fill: #f73677;
        stroke: #000;
        stroke-miterlimit: 10;
        stroke-width: 0.5px;
      }

      .cls-4 {
        fill: #fff;
      }
    </style>
  </defs>
  <g>
    <g>
      <path class="cls-1" d="M1128,148.26a10.53,10.53,0,0,0-7.68-4.72c-12.55-1.37-26.79-3-26.8-3a10.51,10.51,0,0,0-11.72,10.12c-.06,1.74-.14,3.52-.25,5.31a10.51,10.51,0,0,0-10.44-6.9,2.83,2.83,0,0,0-.41,0c-8.6.79-17,2.19-22.73,3.27a10.33,10.33,0,0,0-1.36-1.74,10.49,10.49,0,0,0-8.1-3.16l-.53,0-3.88.41q1.35-4.93,3-9.76a10.52,10.52,0,0,0-10-14c-.53,0-13.18.14-25.86.64H1001a10.52,10.52,0,0,0-9.67,8.07c-.36,1.52-.7,3.05-1,4.58-.11-.45-.24-.89-.37-1.32-3.12-9.32-12.56-15.19-23.5-14.59a29.85,29.85,0,0,0-12.06,3.31c-11.81,5.86-17.26,18-13.31,29.48a20.18,20.18,0,0,0,4.39,7.54,10.53,10.53,0,0,0-1.72,4A32.41,32.41,0,0,0,923.34,156a41.35,41.35,0,0,0-5.77-.11A37.2,37.2,0,0,0,907,158a10.39,10.39,0,0,0-1.3-1,10.48,10.48,0,0,0-9.69-.73c-5.31,2.27-12.83,3.64-17.17,4.24a10.34,10.34,0,0,0-2.23-2.3,10.48,10.48,0,0,0-6.88-2.1,11,11,0,0,0-2.82.55c-6.56,2.23-16,2.94-19.77,3.14-1.54.09-2.5.11-2.59.11h-.39a10.5,10.5,0,0,0-7.56,3.84l-.06.07c-4.86-.61-14.3-1.79-23.46-3a10.47,10.47,0,0,0-11.52,7.71c-.78,2.91-1.47,5.77-2.1,8.6C794,169.63,786.57,165,778,163.77a31.21,31.21,0,0,0-23.46,6.29,27.16,27.16,0,0,0-12-4.39,31.81,31.81,0,0,0-5.77-.22,31.32,31.32,0,0,0-6.54,1.06,11.24,11.24,0,0,0-1-.79,10.53,10.53,0,0,0-10.07-.91c-6.26,2.73-16,4-19.17,4.3a10.49,10.49,0,0,0-7.54,4.16,10.64,10.64,0,0,0-1.58,3,30.29,30.29,0,0,0-15.45-7A31.1,31.1,0,0,0,652,175.6a27.1,27.1,0,0,0-12-4.38,31,31,0,0,0-5.78-.22,31.41,31.41,0,0,0-6.54,1.05,9.81,9.81,0,0,0-1-.78,10.58,10.58,0,0,0-10.07-.92c-6.26,2.73-16,4-19.17,4.3a10.5,10.5,0,0,0-9.5,12.23c-8-8-18.09-12.42-29.12-11.82l-.37,0c-10.69.66-20.37,6.06-27.42,15.22-1.26-19.89-5.71-41-26.82-50a49.38,49.38,0,0,0-22.48-4.09,52.42,52.42,0,0,0-25.38,8.38c-20.57,12.86-30.24,40.58-25.87,74.13,4.08,32.09,15.67,51.56,36.54,61.3a48.09,48.09,0,0,0,22.38,3.93c10.61-.57,20.36-4.38,27.35-10.65A58.17,58.17,0,0,0,527.4,261a41.29,41.29,0,0,0,37.41,19.3c.92,0,1.81-.13,2.7-.24a40.72,40.72,0,0,0,25.43-12.71c0,.7,0,1.41-.07,2.11A10.53,10.53,0,0,0,604,280.34a10.15,10.15,0,0,0,1.8-.26c10.84-2.5,24.53-4,24.67-4a10.43,10.43,0,0,0,5-1.87,181,181,0,0,1,22.38,1.86,10.73,10.73,0,0,0,2.19.11,10.51,10.51,0,0,0,8.59-5.33,157.61,157.61,0,0,1,23.69,1.85,11.07,11.07,0,0,0,2.29.12,10.61,10.61,0,0,0,4.09-1.08c.22.22.45.44.69.65a10.58,10.58,0,0,0,7.27,2.39,10.12,10.12,0,0,0,1.8-.25,247.81,247.81,0,0,1,24.67-4,10.72,10.72,0,0,0,5-1.87,178.87,178.87,0,0,1,22.37,1.86,11.53,11.53,0,0,0,2.19.11,10.5,10.5,0,0,0,5.68-2,10.37,10.37,0,0,0,2.91-3.28,156.12,156.12,0,0,1,23.69,1.84,10.49,10.49,0,0,0,12-8.29q.67-3.33,1.23-6.6a31.08,31.08,0,0,0,21.24,10.57,45.23,45.23,0,0,0,6,.07,41,41,0,0,0,10.4-1.89q.45.44,1,.84a10.5,10.5,0,0,0,9.21,1.82,103.94,103.94,0,0,1,18.78-3,9.45,9.45,0,0,0,.76.79,10.49,10.49,0,0,0,7.78,2.85l.31,0c2-.17,4-.3,6-.41,9.91-.54,18.95-.41,19-.41s.49,0,.73,0a10.5,10.5,0,0,0,7.37-3.61,10.19,10.19,0,0,0,1.72-2.74c4.89.4,15.07,1.29,24.47,2.5a11.29,11.29,0,0,0,1.92.07,10.55,10.55,0,0,0,7.2-3.45c.16.17.32.34.49.49a10.48,10.48,0,0,0,7.6,2.69,9.89,9.89,0,0,0,1.61-.22c13.79-2.91,27.3-5.13,27.43-5.15a10.51,10.51,0,0,0,8.8-11,32.46,32.46,0,0,0,21.48,12.06,37,37,0,0,0,6.79.26c14-.75,29.25-10.21,34-33.84q2.17,3.92,4.48,8c-5.85,14.45-13,27-20.83,36.52a10.52,10.52,0,0,0,2.22,15.38c.13.09,13.25,9,26.55,17.58a10.51,10.51,0,0,0,6.27,1.66,10.34,10.34,0,0,0,1.83-.26,10.53,10.53,0,0,0,6.64-4.86c12.88-21.63,21.31-57,29.48-91.13,4.17-17.47,8.11-34,12.33-47.16A10.54,10.54,0,0,0,1128,148.26ZM561,236.89a21.63,21.63,0,0,1,0-9.89,27.92,27.92,0,0,1,1.25,5.51,17.82,17.82,0,0,1-.44,7.35A18.27,18.27,0,0,1,561,236.89Zm-37-34.26a66.11,66.11,0,0,0-4.12,15.21,201.52,201.52,0,0,0-28.59,3.77,10.53,10.53,0,0,0-8.24,10.84,10.64,10.64,0,0,1-.4,3.87c-2-2.65-5-9.32-5.89-22.75-.7-10,1-16.74,2.75-20.69a55.33,55.33,0,0,1,1,6.3,10.52,10.52,0,0,0,11,9.35,10,10,0,0,0,2.53-.45c12.56-3.87,27.05-4.88,27.19-4.89A10.27,10.27,0,0,0,524,202.63Zm505.55-10.8a10.57,10.57,0,0,0-2.2-.38c0-1,.09-2.07.16-3.15,3,.13,6.26.34,9.43.7a11.32,11.32,0,0,0,1.74.05,10.61,10.61,0,0,0,4-1c1.45,2.95,3.06,6.16,4.82,9.59C1042.78,195.94,1036.34,193.76,1029.55,191.83Z"/>
      <g>
        <path class="cls-2" d="M483.93,270.28a48.29,48.29,0,0,1-22.39-3.94C440.68,256.6,429.09,237.13,425,205c-4.38-33.54,5.29-61.27,25.87-74.13a52.41,52.41,0,0,1,25.38-8.37,49.25,49.25,0,0,1,22.48,4.09c21.75,9.32,25.82,31.44,26.92,51.85a10.51,10.51,0,0,1-9.81,11.06c-.13,0-14.62,1-27.19,4.9a10.93,10.93,0,0,1-2.53.45,10.54,10.54,0,0,1-11-9.36,57.44,57.44,0,0,0-1-6.29c-1.76,3.94-3.45,10.63-2.75,20.68.93,13.43,3.91,20.1,5.89,22.75a10.87,10.87,0,0,0,.4-3.87A10.52,10.52,0,0,1,485.88,208a202.72,202.72,0,0,1,29.36-3.82c1.23-.06,2.48-.12,3.75-.16a10.52,10.52,0,0,1,10.8,9.58c1.64,18.34-4.59,33.84-18.51,46.07C504.28,265.9,494.54,269.7,483.93,270.28Z"/>
        <path class="cls-2" d="M559.4,266.63c-15.74.85-36.55-7.38-43.4-33.39-5.12-19.25-1.7-41,8.69-55.44,7.11-9.87,17.16-15.68,28.29-16.37l.37,0c23.16-1.25,42.41,19.55,45.77,49.47s-11.49,52.31-37,55.51C561.21,266.5,560.31,266.58,559.4,266.63Zm-3.79-53.28a21.65,21.65,0,0,0,0,9.89,17.69,17.69,0,0,0,.85,3,17.8,17.8,0,0,0,.44-7.35A28,28,0,0,0,555.61,213.35Z"/>
        <path class="cls-2" d="M598.54,266.69a10.51,10.51,0,0,1-11.08-10.89c1.14-30.61-.7-61.35-4.94-82.22A10.51,10.51,0,0,1,592,161c3.2-.27,12.91-1.58,19.17-4.3a10.53,10.53,0,0,1,10.07.91,9.9,9.9,0,0,1,1,.79,30.78,30.78,0,0,1,6.54-1.06,31.92,31.92,0,0,1,5.78.22,27.27,27.27,0,0,1,12,4.38A31.26,31.26,0,0,1,670,155.67c8.67,1.22,16.16,6,21.69,13.82,11.65,16.47,14.25,46.1,7.13,81.28a10.52,10.52,0,0,1-9.74,8.41,9.78,9.78,0,0,1-2.28-.12,159.21,159.21,0,0,0-23.69-1.85,10.41,10.41,0,0,1-2.91,3.29,10.55,10.55,0,0,1-5.68,2,10.06,10.06,0,0,1-2.19-.11A178.43,178.43,0,0,0,630,260.58a10.64,10.64,0,0,1-5,1.87,244.6,244.6,0,0,0-24.66,4A10.12,10.12,0,0,1,598.54,266.69Z"/>
        <path class="cls-2" d="M701.15,261.15a10.53,10.53,0,0,1-11.08-10.9c1.14-30.61-.7-61.34-4.93-82.22a10.53,10.53,0,0,1,9.44-12.57c3.2-.27,12.91-1.57,19.17-4.3a10.51,10.51,0,0,1,10.06.91,10.36,10.36,0,0,1,1,.79,31.43,31.43,0,0,1,6.54-1.06,31,31,0,0,1,5.78.23,27.1,27.1,0,0,1,12,4.38,31.64,31.64,0,0,1,17.5-6.54,30.66,30.66,0,0,1,6,.26c8.67,1.22,16.17,6,21.69,13.81,11.66,16.48,14.25,46.11,7.13,81.28a10.49,10.49,0,0,1-12,8.29,157.62,157.62,0,0,0-23.69-1.84,10.63,10.63,0,0,1-2.91,3.29,10.49,10.49,0,0,1-5.68,2,10.73,10.73,0,0,1-2.19-.11A180.85,180.85,0,0,0,732.57,255a10.43,10.43,0,0,1-5,1.87,247.81,247.81,0,0,0-24.67,4A11.16,11.16,0,0,1,701.15,261.15Z"/>
        <path class="cls-2" d="M848.31,250.39a10.5,10.5,0,0,1-7-2.18,10.76,10.76,0,0,1-.95-.84,41,41,0,0,1-10.4,1.9,47,47,0,0,1-6-.08c-9.71-.74-18-5.53-23.85-13.84-11.72-16.53-13.14-45.83-3.9-80.36a10.51,10.51,0,0,1,9.58-7.78,9.72,9.72,0,0,1,1.94.07c9.16,1.19,18.6,2.37,23.46,3l.06-.07a10.49,10.49,0,0,1,7.56-3.83l.39,0c.08,0,1.05,0,2.59-.1,3.76-.21,13.21-.92,19.77-3.15a10.52,10.52,0,0,1,13.89,10.43c-1.25,27.72.8,57.17,5.62,80.78a10.53,10.53,0,0,1-9.74,12.61l-.61,0A106.32,106.32,0,0,0,850.52,250,10.51,10.51,0,0,1,848.31,250.39Z"/>
        <path class="cls-2" d="M903.94,249.81l-.73,0c-.09,0-9.13-.13-19,.4-2,.11-4,.24-6,.41l-.31,0a10.52,10.52,0,0,1-11.08-10.75,478.6,478.6,0,0,0-5.08-80.57,10.51,10.51,0,0,1,9.38-12.1c3.23-.32,13.06-1.76,19.56-4.54a10.53,10.53,0,0,1,9.69.74,9.42,9.42,0,0,1,1.3.95,36.84,36.84,0,0,1,10.56-2.12,41.18,41.18,0,0,1,5.76.1,32.68,32.68,0,0,1,23.22,13.1c14.8,19.42,12.55,55.21,8.07,81.81a10.53,10.53,0,0,1-9.8,8.75,11.21,11.21,0,0,1-1.91-.07c-9.4-1.2-19.58-2.1-24.47-2.5a10.4,10.4,0,0,1-1.72,2.75A10.54,10.54,0,0,1,903.94,249.81Z"/>
        <path class="cls-2" d="M954.71,245.76a10.52,10.52,0,0,1-11-11.59c2.31-22.25-.94-56-5.35-77.77a10.56,10.56,0,0,1,1.73-8.16,20,20,0,0,1-4.39-7.54c-3.95-11.43,1.5-23.62,13.31-29.48A30,30,0,0,1,961,107.91c10.94-.59,20.38,5.27,23.49,14.59A24.87,24.87,0,0,1,982.92,142a10.47,10.47,0,0,1,2.46,6.95c-.35,20.41,3.57,60.57,7,79.12a10.54,10.54,0,0,1-8.65,12.31c-.13,0-13.64,2.23-27.43,5.15A11.27,11.27,0,0,1,954.71,245.76Z"/>
        <path class="cls-2" d="M1020.82,241.71a37.85,37.85,0,0,1-6.79-.26c-13.56-1.71-35.3-12.73-35.11-65.8a10.65,10.65,0,0,1-2.95-1.82,10.52,10.52,0,0,1-3.6-7.82c-.08-8.81.63-17,.66-17.31a10.52,10.52,0,0,1,9-9.49c1-6.64,2.36-13.33,3.93-20a10.52,10.52,0,0,1,9.67-8.07h.15c12.68-.5,25.33-.64,25.86-.65a10.51,10.51,0,0,1,10,14q-1.67,4.82-3,9.76l3.88-.41.53,0a10.52,10.52,0,0,1,11,11.86,122.91,122.91,0,0,0-.87,18.67,10.52,10.52,0,0,1-9.93,11.07,11.24,11.24,0,0,1-1.74-.05c-3.17-.35-6.38-.57-9.43-.7-.07,1.08-.13,2.13-.17,3.15a11.24,11.24,0,0,1,2.21.38c13.06,3.71,24.84,8.35,25.34,8.55a10.52,10.52,0,0,1,6.64,10.36C1054.38,228.67,1036.74,240.85,1020.82,241.71Z"/>
        <path class="cls-2" d="M1073.48,287a10.57,10.57,0,0,1-6.27-1.67c-13.31-8.58-26.42-17.49-26.55-17.58a10.52,10.52,0,0,1-2.22-15.38c7.83-9.52,15-22.07,20.82-36.52-18.61-32.59-30.81-59.9-31.34-61.1a10.52,10.52,0,0,1,7.3-14.54,268.37,268.37,0,0,1,30-4.75l.41,0a10.52,10.52,0,0,1,10.44,6.9c.11-1.79.19-3.56.25-5.31a10.54,10.54,0,0,1,9.94-10.18,10.63,10.63,0,0,1,1.78.06s14.25,1.65,26.8,3a10.52,10.52,0,0,1,8.88,13.66c-4.22,13.19-8.16,29.69-12.34,47.16-8.16,34.17-16.6,69.5-29.47,91.13a10.49,10.49,0,0,1-6.64,4.86A11.38,11.38,0,0,1,1073.48,287Z"/>
        <path class="cls-3" d="M504.34,251.72c-10.87,9.74-28.24,9.75-38.39,5.07-14-6.53-26.29-19.87-30.51-53.07-4.47-34.32,7.28-55.31,21-63.89,11.73-7.55,25.47-9,38.1-3.56,15.48,6.64,19.5,22.3,20.61,42.78,0,0-15.63,1-29.59,5.33-1.47-13.36-5.21-20.26-11.15-19.56-5.76.49-15.2,12.4-13.56,35.84,1.72,24.93,10,32.52,15.26,33.54,6.78,1.13,12.58-5.72,12-16a190.29,190.29,0,0,1,31.18-3.74C520.73,230.29,515.21,242.17,504.34,251.72Z"/>
        <path class="cls-3" d="M560.79,256c-10.95,1.34-28.75-3.12-34.62-25.4-6.8-25.59,4.19-57.19,27.46-58.63,16.75-1.1,32.16,14.51,35,40.13C591.18,234.33,581.75,253.33,560.79,256Zm-6-56.45c-8,1.18-12.11,14.47-9.42,26.09,2,9.79,7.45,13.61,12.45,12.78,7.41-1.15,10.8-11,9.52-20.87C565.74,205.82,560.31,198.83,554.75,199.51Z"/>
        <path class="cls-3" d="M663,246.7c7.19-26,5.6-55.4-2.94-57.93a7.11,7.11,0,0,0-7.18,1.89c4.16,14.9,4.74,36,1.07,61.38a192.62,192.62,0,0,0-25.13-2c6.88-28.2,2.88-57.31-4.32-59.16a8,8,0,0,0-7.71,2.47c2,22.31,4.94,46.43,7.09,58.64a258.53,258.53,0,0,0-25.92,4.2c1-26.58,0-59.58-5.14-84.7,0,0,13.2-1.09,22.51-5.14-.06,2.43.07,4.85.22,7.46A21.86,21.86,0,0,1,633.17,168c5.45.64,9.9,3.58,13.55,8.79,6.07-8.54,14.12-11.78,21.83-10.7,21.08,3,29.11,37.46,20,82.59A168.33,168.33,0,0,0,663,246.7Z"/>
        <path class="cls-3" d="M765.63,241.15c7.18-26,5.59-55.4-3-57.92a7.13,7.13,0,0,0-7.18,1.88c4.17,14.9,4.74,36,1.07,61.39a191.62,191.62,0,0,0-25.13-2c6.88-28.2,2.88-57.3-4.32-59.15a8,8,0,0,0-7.71,2.47c2,22.3,4.94,46.42,7.09,58.63a259,259,0,0,0-25.92,4.2c1-26.57,0-59.57-5.14-84.7,0,0,13.21-1.08,22.51-5.13-.05,2.43.08,4.85.22,7.45a21.83,21.83,0,0,1,17.61-5.8c5.45.63,9.91,3.57,13.55,8.79,6.08-8.55,14.12-11.78,21.84-10.71,21.07,3,29.1,37.46,20,82.59A169.68,169.68,0,0,0,765.63,241.15Z"/>
        <path class="cls-3" d="M847.74,239.89c0-2.81.06-5.8-.09-8.59a30.06,30.06,0,0,1-22.95,7.41c-22.88-1.76-30.34-36.28-18.38-81,13.16,1.72,26.89,3.4,26.89,3.4-7.72,26.57-6.23,54.13,2.79,55.13,4,.54,7.6-1.15,10.54-5.42-1.56-18.59-4.29-37.87-7.21-54,0,0,15.11-.26,25.57-3.81-1.28,28.27.73,58.42,5.81,83.36A116.32,116.32,0,0,0,847.74,239.89Z"/>
        <path class="cls-3" d="M910.86,232.74c7.71-26.56,3.73-55.3-4.21-57.11-3.78-.91-7.24.77-10.18,5.22,1.9,21.19,4.61,43.83,6.9,58.46,0,0-13.46-.21-26.1.85a487.46,487.46,0,0,0-5.21-82.45s13.2-1.28,22.69-5.34l.44,8.19A27,27,0,0,1,917,152.85c22.72,2.32,30,34.05,21.84,82.67C925.48,233.82,910.86,232.74,910.86,232.74Z"/>
        <path class="cls-3" d="M965.62,143.5c-8.42,3.25-17.69.95-19.94-6-2.21-6.42.77-13.3,8.05-16.87,8.36-4.38,18.38-2.12,20.83,5.22C976.59,132.26,974.76,139.83,965.62,143.5Zm-11.48,91.76c2.46-23.67-.91-58.22-5.5-80.95a189.16,189.16,0,0,0,26.23-5.52c-.37,20.93,3.5,61.44,7.19,81.22C982.06,230,968.36,232.25,954.14,235.26Z"/>
        <path class="cls-3" d="M1015.36,231c-21.82-2.74-27.39-33.25-25.6-65.85-4.27.42-6.87.75-6.87.75-.08-8.4.61-16.28.61-16.28l7.8-.8a248.11,248.11,0,0,1,4.89-27.15c12.67-.5,25.55-.64,25.55-.64a159,159,0,0,0-6.48,25.19l18.38-1.93a132.79,132.79,0,0,0-.94,20.6,187.55,187.55,0,0,0-20.22-1c-2.66,23.48-.55,41.67,3.62,42.94,4.19,1.46,5.94-7.79,5.16-18.58,12.71,3.61,24.35,8.21,24.35,8.21C1044.2,222.17,1030.78,233,1015.36,231Z"/>
        <path class="cls-3" d="M1072.91,276.46c-13.35-8.61-26.34-17.44-26.34-17.44,9.64-11.72,18-27.11,24.32-44.08-20-34.41-33.36-64.5-33.36-64.5a259.67,259.67,0,0,1,28.7-4.54s4.55,22,13.42,40.93a234.15,234.15,0,0,0,7.22-49.51s14.28,1.65,26.87,3C1101.28,179.31,1091.4,245.39,1072.91,276.46Z"/>
      </g>
    </g>
    <g>
      <path class="cls-1" d="M998.93,384.32c-.73-10.95-7.16-16.83-14.24-20.48a45,45,0,0,1,4.9-1.25,8,8,0,0,0,5.88-10.9C988,333.52,973.71,324,956.39,325.57c-.65.05-1.3.13-2,.22-11.81,1.64-18.18,7.18-21.45,11.54-.4.53-.77,1.08-1.13,1.65A23.39,23.39,0,0,0,915,330.1a27.7,27.7,0,0,0-4.73,0,33.13,33.13,0,0,0-10.51,2.81,7.87,7.87,0,0,0-1.92-1.61A8,8,0,0,0,893,330.2a8.17,8.17,0,0,0-2.83.8c-5.09,2.53-13.36,3.94-16.11,4.27a8,8,0,0,0-6.83,9.81c.38,1.59.74,3.26,1.09,5-7.5-11.16-19-16.73-33.28-15.44l-.72.07a33.47,33.47,0,0,0-25.25,15.65,39.83,39.83,0,0,0-3.06,6c-7-9.24-17.31-14.3-28.78-13.26l-.73.07a34.32,34.32,0,0,0-7.91,1.88,7.86,7.86,0,0,0-1.25-1.46,8,8,0,0,0-6.13-2.08,7.69,7.69,0,0,0-1.07.17c-.42.1-10.34,2.38-19.66,5-1.81-17.83-3-34.6-3-46.18a8,8,0,0,0-10.9-7.45c-9.79,3.81-23,6.25-23.18,6.28a8,8,0,0,0-6.27,10c3.91,14.14,7.57,34.93,10,56.49-7.48-11.86-19.26-17.8-34-16.48l-.72.07A33.49,33.49,0,0,0,647.21,365c-.18.29-.33.58-.5.87-1-15.88-1-31.19.22-42.69a8,8,0,0,0-8.67-8.78l-1.06.1a247,247,0,0,1-25.6.92,6.77,6.77,0,0,0-.9,0,8,8,0,0,0-7.1,9.59,404.64,404.64,0,0,1,6.12,43.37c-2,.38-4,.72-5.79,1-1-14.81-1.24-28.07-.71-37.24a8.06,8.06,0,0,0-2.26-6,8,8,0,0,0-6-2.4c-5.54.18-11.6.57-18,1.15-6,.54-10,1-10.17,1.06a8,8,0,0,0-6.69,10.14c6.39,22.26,11.76,80.45,8.29,105.24a8,8,0,0,0,8.64,9.07l.3,0s3.6-.46,8.77-.93c5.55-.5,13.74-1.08,21.29-1a5.09,5.09,0,0,0,.78,0,8,8,0,0,0,5.77-3.29,8.21,8.21,0,0,0,1.15-2.29,8,8,0,0,0,5.34,1.44c.24,0,.48-.06.73-.1s15.2-2.8,29.94-4.59a8,8,0,0,0,6.85-9.55,38.56,38.56,0,0,0,27.62,8.28c.94-.09,1.87-.21,2.71-.34a37.62,37.62,0,0,0,21.15-10.66c0,.33,0,.67-.07,1a8,8,0,0,0,8.69,8.58c.24,0,.48-.05.71-.09s11.12-2,22.62-4c.44,11.62.54,22.36.23,31.09a8,8,0,0,0,8.71,8.25c3.38-.3,14-.65,22.29,1.39a8,8,0,0,0,9.65-9.77c-2.59-10-5-22.51-7.12-36.16a31,31,0,0,0,8.19.33l.62-.06a32.38,32.38,0,0,0,22.95-12.41,38.29,38.29,0,0,0,5-8.64,38.52,38.52,0,0,0,35.52,16.84c.94-.09,1.87-.21,2.71-.34a37,37,0,0,0,23.7-13.61c0,1.68.08,3.38.11,5.1a8,8,0,0,0,8.71,7.82,7.9,7.9,0,0,0,2.41-.6,65.62,65.62,0,0,1,18.47-4.34l1.2-.09.32,0a8,8,0,0,0,7-10c-1.78-6.88-3.7-16.35-5.39-26.42a8,8,0,0,0,6.27-.07c.12-.05,11.54-5.07,21-6.79a7.83,7.83,0,0,0,2.66-1q.79.72,1.62,1.38a108.87,108.87,0,0,0-10,14.65,8,8,0,0,0,1,9.21c10.19,11.36,22.49,16.33,37.6,15.18l.6-.05C987.33,411.91,999.94,400.11,998.93,384.32Zm-226.58,3.45c-2.22-5-1.1-10,0-10.53a1,1,0,0,1,.2-.07c.51,0,2.22,1,3.21,3.27,1.74,4,1.42,8.61.62,9.57a1.73,1.73,0,0,1-.88.37C774.61,390.46,773.21,389.67,772.35,387.77ZM607.2,401.5c1.62-.14,3.21-.25,4.78-.33.34,9.49.39,18.55.13,26.54C610.33,420.43,608.66,411.53,607.2,401.5Z"/>
      <g>
        <path class="cls-4" d="M603,436.23l-.78,0c-7.55-.07-15.74.52-21.29,1-5.16.46-8.73.92-8.77.92l-.3,0a8,8,0,0,1-8.64-9.07c3.47-24.79-1.9-83-8.29-105.25a8,8,0,0,1,6.69-10.13c.17,0,4.2-.53,10.18-1.07,6.41-.58,12.47-1,18-1.15a8,8,0,0,1,8.25,8.45c-.53,9.16-.27,22.42.71,37.23,1.83-.31,3.77-.65,5.79-1a404.64,404.64,0,0,0-6.12-43.37,8,8,0,0,1,7.11-9.6c.29,0,.59,0,.89,0a244.11,244.11,0,0,0,25.6-.92l1.06-.1A8,8,0,0,1,641.8,311c-2.92,28.22,1,79.41,10.7,105.7A8,8,0,0,1,646,427.39C631.22,429.19,616.17,432,616,432a6.09,6.09,0,0,1-.73.1,8,8,0,0,1-5.34-1.44,8.08,8.08,0,0,1-1.15,2.29A8,8,0,0,1,603,436.23Zm-.95-46.88c1.45,10,3.12,18.93,4.9,26.22.26-8,.22-17.06-.13-26.55C605.29,389.11,603.69,389.22,602.08,389.35Z"/>
        <path class="cls-4" d="M680.44,426.12c-14.77,1.33-33.5-5.64-41.75-29.23-5.39-15.38-4.09-32.27,3.4-44.07a33.45,33.45,0,0,1,25.25-15.65l.72-.07c22.22-2,37.8,12.61,41.87,39.17a7.35,7.35,0,0,1,1.3.83,7.94,7.94,0,0,1,3,5.63c2.33,27.89-15.31,40.62-31.13,43C682.3,425.92,681.37,426,680.44,426.12Z"/>
        <path class="cls-4" d="M712.91,424.71a8,8,0,0,1-8.69-8.59c2.69-34.43-4.25-90.37-12.17-119a8,8,0,0,1,6.28-10c.13,0,13.39-2.46,23.17-6.28a8,8,0,0,1,10.9,7.45c0,29.7,7.55,93.51,14.47,121.93a8,8,0,0,1-6.48,9.78c-12.84,2.1-26.63,4.61-26.76,4.64S713.15,424.69,712.91,424.71Z"/>
        <path class="cls-4" d="M770.1,461.58a7.75,7.75,0,0,1-2.62-.2c-8.33-2-18.92-1.69-22.3-1.38a8,8,0,0,1-8.71-8.25c1-27.94-2.26-76.51-7.26-108.25a8,8,0,0,1,5.76-8.95c9.42-2.62,19.61-5,20-5.06a6.61,6.61,0,0,1,1.07-.17,8,8,0,0,1,7.38,3.54,33.28,33.28,0,0,1,7.92-1.88l.72-.08c18.85-1.7,34.42,13,37.88,35.77,2,13.79-1.05,27.47-8.22,36.64a32.38,32.38,0,0,1-23,12.41l-.61.06a30.59,30.59,0,0,1-8.19-.33c2.07,13.65,4.52,26.16,7.11,36.17a8,8,0,0,1-7,10ZM767.48,365a.57.57,0,0,0-.21.07c-1.15.56-2.26,5.54,0,10.53.86,1.89,2.27,2.69,3.2,2.6h0a1.63,1.63,0,0,0,.88-.36c.8-1,1.12-5.61-.61-9.58C769.69,366.06,768,365,767.48,365Z"/>
        <path class="cls-4" d="M842.29,411.51c-14.76,1.33-33.49-5.64-41.74-29.23-5.39-15.38-4.09-32.27,3.39-44.07a33.46,33.46,0,0,1,25.25-15.65l.73-.07c22.22-2,37.8,12.61,41.87,39.17a7.74,7.74,0,0,1,1.3.83,7.94,7.94,0,0,1,3,5.63c2.33,27.89-15.31,40.62-31.13,43.05C844.16,411.31,843.23,411.43,842.29,411.51Z"/>
        <path class="cls-4" d="M877.52,410.49a8,8,0,0,1-8.71-7.82c-.53-30-2.79-53.42-6.71-69.73a8,8,0,0,1,6.83-9.81c2.75-.33,11-1.75,16.12-4.27a7.84,7.84,0,0,1,2.83-.8,8,8,0,0,1,6.75,2.72,33.12,33.12,0,0,1,10.51-2.8,26.73,26.73,0,0,1,4.73,0c8.58.65,23.39,6.16,25.54,35.79a8,8,0,0,1-6.55,8.45c-9.5,1.72-20.92,6.73-21,6.78a8,8,0,0,1-2.51.65,8.12,8.12,0,0,1-3.77-.57c1.7,10.07,3.61,19.53,5.39,26.42a8,8,0,0,1-7,10l-.32,0-1.19.09a65.48,65.48,0,0,0-18.47,4.34A8.28,8.28,0,0,1,877.52,410.49Z"/>
        <path class="cls-4" d="M961.81,401.6c-15.11,1.15-27.4-3.81-37.6-15.17a8,8,0,0,1-1-9.22,110.18,110.18,0,0,1,10-14.65,27.07,27.07,0,0,1-5.33-37.38c3.27-4.36,9.65-9.9,21.46-11.54.69-.09,1.34-.16,2-.22,17.32-1.56,31.57,8,39.08,26.12a8,8,0,0,1-5.88,10.91,42.79,42.79,0,0,0-4.9,1.24c7.08,3.65,13.51,9.53,14.24,20.48,1,15.8-11.6,27.59-31.39,29.38Z"/>
        <path class="cls-3" d="M614.57,424.12a387.61,387.61,0,0,0-.08-43.31,175.36,175.36,0,0,0-21.44,1.46c2.23,17.7,5.37,34.68,9.27,46a268.87,268.87,0,0,0-31.15,2c3.69-26.39-2-85.81-8.52-108.56,0,0,13.43-1.69,27.46-2.16-.69,11.89-.1,29.1,1.35,46.87,5.06-.62,13.09-2,21.72-3.72-1.49-18.25-3.78-36.58-6.89-51.48a253,253,0,0,0,27.56-1.05c-3.07,29.68,1.19,82.2,11.14,109.28C629.82,421.31,614.57,424.12,614.57,424.12Z"/>
        <path class="cls-3" d="M681.93,417.88c-13.07,2.14-28.81-3.95-35.7-23.63-7.54-21.54-.07-46.83,21.94-49.13,21.06-2.22,31.24,13.16,34,33.53,0,0-20.9,2.2-38.51,7.15,1.69,9.92,6.06,17.52,11.24,16.57,4.88-.92,5.23-7.67,3.57-13.59,0,0,14.26-3.2,27.81-5.39C708.22,406.4,694.54,415.94,681.93,417.88Zm-12.62-56.56c-3.75,1-6,6.29-6.45,13.53a131.72,131.72,0,0,0,16.5-3.09C677.8,365,674.17,360.24,669.31,361.32Z"/>
        <path class="cls-3" d="M712.19,416.75c2.82-36.06-4.6-93.41-12.43-121.79,0,0,14-2.55,24.65-6.7,0,29.89,7.58,94.57,14.69,123.82C726,414.22,712.19,416.75,712.19,416.75Z"/>
        <path class="cls-3" d="M778,407.77A23,23,0,0,1,760.09,402c2.32,18.65,5.61,37.38,9.29,51.59-11.44-2.8-24.92-1.59-24.92-1.59,1-29.18-2.49-78.89-7.35-109.78,9.36-2.6,19.69-5,19.69-5-.39,2.75-.41,6.11-.55,9.8a25.64,25.64,0,0,1,16-8.16c15.35-1.71,27,10.82,29.79,29C804.56,384.75,798.31,405.78,778,407.77Zm-14.25-49.86c-6.43,3.13-7.28,13.28-3.86,21,3.19,7.07,10.76,9.42,16.15,5.42,4.8-3.47,4.76-12.74,1.94-19.2C775.41,359.25,769.44,355.16,763.78,357.91Z"/>
        <path class="cls-3" d="M843.79,403.27c-13.08,2.14-28.81-3.95-35.7-23.63-7.54-21.54-.07-46.83,21.94-49.13,21.06-2.22,31.24,13.16,34,33.53,0,0-20.9,2.2-38.51,7.15,1.69,9.92,6.06,17.51,11.25,16.57,4.87-.92,5.22-7.67,3.56-13.59,0,0,14.26-3.21,27.81-5.39C870.08,391.78,856.4,401.33,843.79,403.27Zm-12.62-56.56c-3.75,1-6,6.29-6.45,13.53a131.39,131.39,0,0,0,16.5-3.09C839.66,350.42,836,345.63,831.17,346.71Z"/>
        <path class="cls-3" d="M904.6,361.66c-.49-8.91-3.06-14.43-6.13-14.79-2.74-.24-5.51,1-7.51,5.31,4.94,38.2,8.54,45.32,8.24,45.29,0,0-11.93.6-22.4,5.06-.39-22-1.81-50.19-6.93-71.46,0,0,11.23-1.34,18.73-5.05.07,2.55.16,5.42.44,8.43,5.52-6.09,13.72-9.07,20.17-8.53,10.62.8,16.94,10.62,18.22,28.4C916.9,356.23,904.6,361.66,904.6,361.66Z"/>
        <path class="cls-3" d="M961.18,393.63c-11.27.86-21.6-2.05-31-12.54a109.65,109.65,0,0,1,12.78-17.78c6.38,10.45,16.3,12.28,18.42,9.21,1.68-2.55,0-6.56-10.66-10.07-9.71-3.12-18.49-8.24-19.91-18.66-1.23-8.36,3-19.93,19.57-22.23,17.85-2.41,27.68,9.17,32.59,21A63,63,0,0,0,963,350.47c-5.87-11.94-13.6-10.76-12.52-5.9,3.11,13.14,33.94,7.64,35.31,28.14C986.61,384.94,975.47,392.5,961.18,393.63Z"/>
      </g>
    </g>
  </g>
</svg>
