<svg xmlns="http://www.w3.org/2000/svg" viewBox="0 0 269.35 247.47"><defs><style>.cls-1{fill:#cca9ff;stroke:#323232;stroke-width:3px;}.cls-1,.cls-2,.cls-3,.cls-6{stroke-miterlimit:10;}.cls-2,.cls-7{fill:#dfe5eb;}.cls-2{stroke:#878b8e;}.cls-2,.cls-6{stroke-width:0.25px;}.cls-3,.cls-5{fill:#c79d6f;}.cls-3{stroke:#70573f;stroke-width:0.5px;}.cls-4{fill:#916947;}.cls-6,.cls-9{fill:#b6c4cf;}.cls-6{stroke:#858d93;}.cls-8{fill:#fff;}</style></defs><title>SB_26_ICON_mouth_mirror</title><g id="Layer_2" data-name="Layer 2"><g id="Layer_1-2" data-name="Layer 1"><rect class="cls-1" x="1.5" y="1.5" width="266.35" height="244.47" rx="8.77"/><g id="instrument-2"><rect class="cls-2" x="70.89" y="41.54" width="3.49" height="38.58" transform="translate(-21.67 69.87) rotate(-45.42)"/><polygon class="cls-3" points="97.17 83.88 93.51 87.31 92.12 88.73 232.46 227.04 241.16 218.22 100.89 80.29 97.17 83.88"/><polygon class="cls-4" points="100.35 80.37 98.95 81.79 83.62 66.68 80.67 69.67 236.35 223.1 240.7 218.68 100.35 80.37"/><polyline class="cls-5" points="100.89 80.29 97.17 83.88 93.51 87.31"/><path class="cls-6" d="M64.18,24.25a20.14,20.14,0,1,1-28.48.21h0A20.15,20.15,0,0,1,64.18,24.25Z"/><path class="cls-7" d="M62.44,26a17.62,17.62,0,1,1-24.92.18A17.62,17.62,0,0,1,62.44,26Z"/><path class="cls-8" d="M41.26,41.14c.85,4.35.25,8.12-1.33,8.43s-3.55-3-4.4-7.32-.25-8.11,1.34-8.42S40.41,36.79,41.26,41.14Z"/><rect class="cls-2" x="89.77" y="63.81" width="8.42" height="36.02" transform="translate(-30.26 91.33) rotate(-45.42)"/><rect class="cls-9" x="93.31" y="62.58" width="4.21" height="36.02" transform="translate(-28.96 91.99) rotate(-45.42)"/><polygon class="cls-2" points="92.02 88.64 144.45 140.3 153.15 131.48 100.81 79.9 92.02 88.64"/><polygon class="cls-9" points="100.43 80.76 96.13 84.91 148.34 136.36 152.69 131.95 100.43 80.76"/></g></g></g></svg>