<svg xmlns="http://www.w3.org/2000/svg" xmlns:xlink="http://www.w3.org/1999/xlink" viewBox="0 0 269.35 247.47"><defs><style>.cls-1{fill:#cca9ff;stroke:#323232;stroke-width:3px;}.cls-1,.cls-3,.cls-6{stroke-miterlimit:10;}.cls-2{fill:url(#linear-gradient);}.cls-3,.cls-6{stroke:#111;}.cls-3{fill:url(#linear-gradient-2);}.cls-4{fill:#424242;opacity:0.5;}.cls-4,.cls-7,.cls-8,.cls-9{isolation:isolate;}.cls-5{fill:#e2413e;}.cls-6{stroke-width:0.75px;fill:url(#linear-gradient-3);}.cls-7,.cls-9{fill:#fff;}.cls-7{opacity:0.2;}.cls-8{fill:#202020;opacity:0.4;}.cls-9{opacity:0.7;}</style><linearGradient id="linear-gradient" x1="199.99" y1="775.91" x2="199.99" y2="683.43" gradientTransform="matrix(0.71, 0.71, 0.71, -0.71, -480.15, 456.09)" gradientUnits="userSpaceOnUse"><stop offset="0" stop-color="#fff9de"/><stop offset="1" stop-color="#ffeb99"/></linearGradient><linearGradient id="linear-gradient-2" x1="171.46" y1="605.29" x2="224.17" y2="605.29" gradientTransform="matrix(0.71, 0.71, 0.71, -0.71, -479.24, 458.28)" gradientUnits="userSpaceOnUse"><stop offset="0" stop-color="#4f4f4f"/><stop offset="1" stop-color="#424242"/></linearGradient><linearGradient id="linear-gradient-3" x1="170.29" y1="680.1" x2="225.33" y2="680.1" gradientTransform="matrix(0, 1, 1, 0, -538.58, -80.56)" xlink:href="#linear-gradient-2"/></defs><title>SB_26_ICON_torch</title><g id="Layer_2" data-name="Layer 2"><g id="Layer_1-2" data-name="Layer 1"><rect class="cls-1" x="1.5" y="1.5" width="266.35" height="244.47" rx="8.77"/><path class="cls-2" d="M209.66,49.11a180.59,180.59,0,0,0-43.48-31.65L127.34,94.23l18.6,18.6,18.61,18.61,76.77-38.87A180.32,180.32,0,0,0,209.66,49.11Z"/><path class="cls-3" d="M161.92,129.84l-16.49-16.49-16.5-16.5a3,3,0,0,0-4.24,0l0,0-27,27c-4.63,4.63-7.16,21.49-7.16,21.49l-67,67a4.42,4.42,0,0,0,0,6.25h0l8.34,8.34,8.34,8.34a4.44,4.44,0,0,0,6.27,0l67-67s16.86-2.53,21.5-7.17l27-27a3,3,0,0,0,0-4.24Z"/><path class="cls-4" d="M31.83,227l8.35,8.33a4.44,4.44,0,0,0,6.27,0l67-67s16.86-2.53,21.5-7.17l27-27a3,3,0,0,0,0-4.24l0,0-16.49-16.49L129,96.84a3,3,0,0,0-4.24,0l0,0-6.21,6.21,21.58,30.82-16.78,16.56-15.63,8.76S48.18,209.57,28.78,223.9Z"/><ellipse class="cls-5" cx="85.63" cy="173.15" rx="8.82" ry="5.05" transform="translate(-97.35 111.26) rotate(-45)"/><rect class="cls-6" x="135.28" y="89.73" width="12.48" height="55.04" rx="1.31" transform="translate(-41.45 134.41) rotate(-45)"/><polygon class="cls-4" points="105.13 171.66 43.66 233.13 35.47 224.94 48.44 220.16 105.13 171.66"/><path class="cls-7" d="M120.48,112l-17.64,17.64c-1.8,1.79-3.66,17.09-3.66,17.09l26.48-26.48Z"/><polygon class="cls-7" points="92.51 150.46 26.89 216.36 95.61 154.93 92.51 150.46"/><rect class="cls-4" x="120.71" y="99.68" width="9.3" height="2.78" transform="translate(-34.75 118.24) rotate(-45)"/><rect class="cls-4" x="124.75" y="103.73" width="9.3" height="2.78" transform="translate(-36.43 122.29) rotate(-45)"/><rect class="cls-4" x="128.8" y="107.77" width="9.3" height="2.78" transform="translate(-38.1 126.33) rotate(-45)"/><rect class="cls-4" x="132.84" y="111.81" width="9.3" height="2.78" transform="translate(-39.77 130.37) rotate(-45)"/><rect class="cls-4" x="136.87" y="115.86" width="9.3" height="2.78" transform="translate(-41.45 134.41) rotate(-45)"/><rect class="cls-4" x="140.93" y="119.9" width="9.3" height="2.78" transform="translate(-43.12 138.47) rotate(-45)"/><rect class="cls-4" x="144.96" y="123.94" width="9.3" height="2.78" transform="translate(-44.8 142.5) rotate(-45)"/><rect class="cls-4" x="149.01" y="127.99" width="9.3" height="2.78" transform="translate(-46.48 146.55) rotate(-45)"/><rect class="cls-4" x="153.06" y="132.03" width="9.3" height="2.78" transform="translate(-48.15 150.59) rotate(-45)"/><path class="cls-8" d="M88.07,174.65l-4-4a1,1,0,0,1,0-1.39h0a1,1,0,0,1,1.4,0l4,3.95a1,1,0,0,1,0,1.39h0A1,1,0,0,1,88.07,174.65Z"/><path class="cls-8" d="M85.74,177l-4-3.95a1,1,0,0,1,0-1.39h0a1,1,0,0,1,1.4,0l4,4a1,1,0,0,1,0,1.39h0a1,1,0,0,1-1.41,0Z"/><path class="cls-8" d="M91.45,171.08l-11.87,3.74c-.51,1.57-.41,3,.42,3.8,1.61,1.61,5.35.47,8.36-2.54A11.59,11.59,0,0,0,91.45,171.08Z"/><path class="cls-9" d="M159.18,99.62C150.54,91,146.85,79,147.88,66.67L133.42,95.24l15.07,15.07,15.08,15.08,28.57-14.47C179.77,112,167.8,108.27,159.18,99.62Z"/></g></g></svg>