<svg xmlns="http://www.w3.org/2000/svg" viewBox="0 0 269.35 247.47"><defs><style>.cls-1{fill:#cca9ff;stroke:#323232;stroke-width:3px;}.cls-1,.cls-11,.cls-2,.cls-4,.cls-7,.cls-8{stroke-miterlimit:10;}.cls-2{fill:#d6d8d9;}.cls-2,.cls-4{stroke:#b7b7b7;}.cls-11,.cls-2,.cls-4{stroke-width:0.75px;}.cls-3{fill:#929c9e;opacity:0.25;isolation:isolate;}.cls-4{fill:#f1f2f2;}.cls-5,.cls-8{fill:#939598;}.cls-6{fill:#bcbec0;}.cls-7{fill:#e6e7e8;stroke:#9f9fa0;}.cls-7,.cls-8{stroke-width:0.5px;}.cls-8{stroke:#6a6b6d;}.cls-9{fill:#f7f8f9;}.cls-10{fill:#d6d6d6;}.cls-11{fill:#1faaff;stroke:#106d9b;}.cls-12{fill:#0c93bc;}.cls-13{fill:#75cffc;}</style></defs><title>SB_26_ICON_stethoscope</title><g id="Layer_2" data-name="Layer 2"><g id="Layer_1-2" data-name="Layer 1"><rect class="cls-1" x="1.5" y="1.5" width="266.35" height="244.47" rx="8.77"/><path class="cls-2" d="M209.38,187.68a14.68,14.68,0,1,1-10.7-14.14A14.68,14.68,0,0,1,209.38,187.68Z"/><path class="cls-3" d="M198.68,173.54l-1.94,14h-4.09l-1.94-14a14.69,14.69,0,0,1,8,0Z"/><path class="cls-4" d="M199.4,178.77a2.75,2.75,0,0,1-1.49-2.44V162.82h-6.43v13.46a2.79,2.79,0,0,1-1.47,2.48,10.07,10.07,0,1,0,9.39,0Z"/><path class="cls-5" d="M194.7,178.89a8.79,8.79,0,1,1-8.79,8.79A8.8,8.8,0,0,1,194.7,178.89Zm0,15.91a7.12,7.12,0,1,0-7.13-7.12A7.12,7.12,0,0,0,194.7,194.8Z"/><circle class="cls-6" cx="194.7" cy="187.68" r="6.48"/><circle class="cls-5" cx="194.7" cy="187.68" r="2.56"/><path class="cls-7" d="M109.69,137.37h-.32a35.47,35.47,0,0,1-34.19-27.3L61.4,53.3A19.16,19.16,0,0,1,74.07,30.58L87.78,26.1l1.31,4L75.37,34.58a15,15,0,0,0-9.89,17.74L79.24,109.1a31.28,31.28,0,0,0,30.16,24.1H110a31.29,31.29,0,0,0,30.2-24.11l13.75-56.78a15,15,0,0,0-9.88-17.74l-13.72-4.48,1.3-4,13.72,4.48A19.15,19.15,0,0,1,158,53.29l-13.83,56.78A35.49,35.49,0,0,1,110,137.37Z"/><path class="cls-6" d="M90.84,23.55l-.87.38,2.21,6.62.92-.21a1.54,1.54,0,0,0,1.2-1.83,1,1,0,0,0,0-.17A17.44,17.44,0,0,1,93,24.48a1.55,1.55,0,0,0-1.94-1Z"/><path class="cls-8" d="M94.74,28.2v-.05a17.13,17.13,0,0,1-1.22-3.75v-.06A2.11,2.11,0,0,0,90.88,23l-.23.09-.3.13h0l-7.84,3.38a1.46,1.46,0,0,0-.81,1.79l1.16,3.55a1.46,1.46,0,0,0,1.39,1h.33l7.18-1.72h0l.24-.06.85-.19h0l.32-.07a2.16,2.16,0,0,0,1.39-1A2.1,2.1,0,0,0,94.74,28.2Zm-1.15,1.15a1,1,0,0,1-.66.47l-.43.1L90.66,24.2l.41-.18a1,1,0,0,1,1.31.52l0,0a18,18,0,0,0,1.29,3.92,1,1,0,0,1-.1.82Z"/><path class="cls-6" d="M128.55,23.61l.87.37-2.17,6.62-.92-.21a1.54,1.54,0,0,1-1.2-1.83,1,1,0,0,1,0-.17,18.27,18.27,0,0,0,1.27-3.87,1.56,1.56,0,0,1,2-1Z"/><path class="cls-8" d="M136.91,26.6l-6.8-2.93h0l-.13-.05-.9-.39h0l-.3-.13a2,2,0,0,0-.87-.19,2.11,2.11,0,0,0-2,1.45v.07a17.62,17.62,0,0,1-1.23,3.74v.06A2.1,2.1,0,0,0,126,30.88l.22.06.33.07h0l.86.2.24.05h0l7.22,1.65a.86.86,0,0,0,.32,0,1.45,1.45,0,0,0,1.39-1l1.16-3.55A1.46,1.46,0,0,0,136.91,26.6Zm-11.12,2.77a1,1,0,0,1-.09-.77A18.73,18.73,0,0,0,127,24.68a1,1,0,0,1,1.29-.58l0,0,.41.18-1.85,5.64-.44-.1A.9.9,0,0,1,125.79,29.37Z"/><path class="cls-9" d="M76.18,29.89S60,36.35,62.26,51.65l10.57,48.81L61.18,52.14S58.52,35,76.18,29.89Z"/><path class="cls-9" d="M138.18,32.67s9.9.86,15,7.25a19,19,0,0,1,1.09,15.28l-6.64,23,6.65-26.71s1.65-9.62-6.08-14.73A24.55,24.55,0,0,0,138.18,32.67Z"/><path class="cls-10" d="M77.3,101.1,64.41,52.2s-2.84-10.48,5.66-14.6c0,0-7.07,4.45-4.59,14.68Z"/><path class="cls-10" d="M145.06,106.58l11.36-53.06s2.22-8.67-2.15-16.34c0,0,6.26,5.57,3.47,17.07Z"/><path class="cls-11" d="M197.71,158.56v-.05a3.33,3.33,0,0,1-.2-1.08,23.78,23.78,0,0,0-47.56.86v42.53A18.18,18.18,0,0,1,131.78,219h-1.09a18.18,18.18,0,0,1-18.18-18.18h0V144.39a7.5,7.5,0,0,1,5.7-7.32A36.26,36.26,0,0,0,144.9,110.2l.66-2.72-5.44-1.28-.66,2.72A30.59,30.59,0,0,1,110,132.47h-.57a30.59,30.59,0,0,1-29.48-23.55l-.66-2.72-5.44,1.32.66,2.68a36.26,36.26,0,0,0,26.7,26.87,7.51,7.51,0,0,1,5.7,7.32v56.43a23.78,23.78,0,0,0,23.78,23.78h1.08a23.78,23.78,0,0,0,23.78-23.78V158.26a18.18,18.18,0,0,1,36.35-1,3.09,3.09,0,0,1-.19,1.28,3.26,3.26,0,0,0-.21,1.16v9.5h6.43v-9.55A3.38,3.38,0,0,0,197.71,158.56Z"/><path class="cls-12" d="M197.73,169h-1.29l.28-9.72-.48-.74s1-23.92-28.17-23.69c0,0,15.84-4.6,26.35,11.4,0,0,3,6.3,2.88,11.51l.43,1.46Z"/><path class="cls-12" d="M115.62,211s5.77,14.82,23.85,9c0,0,11.53-5.27,11.53-18.18l-1.07-36.75.2,36.28s-.21,16.52-17.89,17.94A18,18,0,0,1,115.62,211Z"/><path class="cls-12" d="M144.18,107.34s-3,21.06-24.6,27.78c0,0-10.13,1.16-8.26,11.23l1.17,51.4V144.93s-1-7.36,7.24-8.26c0,0,21-4.73,25.62-29Z"/><path class="cls-13" d="M74.07,107.62s3.54,22.8,26.59,29.32c0,0-22.09-7.88-25.4-29.58Z"/><path class="cls-13" d="M106.89,151.66l1.46,50.7a28,28,0,0,0,16.7,21.57s-15.26-3.25-18.11-21.57Z"/><path class="cls-13" d="M187.57,146.2s-12.6-19-30.16,0c0,0-4.83,6.06-3.36,17.42l1.37,27.43V156s2.39-17,19.18-16.15C174.59,139.82,181.33,138.75,187.57,146.2Z"/></g></g></svg>