<svg xmlns="http://www.w3.org/2000/svg" viewBox="0 0 269.35 247.47"><defs><style>.cls-1{fill:#cca9ff;stroke:#323232;stroke-width:3px;}.cls-1,.cls-10,.cls-2,.cls-3,.cls-8{stroke-miterlimit:10;}.cls-2,.cls-8{fill:#25881a;stroke-width:0.75px;}.cls-10,.cls-2{stroke:#156d11;}.cls-3{fill:#214214;stroke:#14230d;}.cls-10,.cls-3{stroke-width:0.5px;}.cls-4{fill:#0c7109;}.cls-5{fill:#0c0c0c;}.cls-6{fill:#424143;}.cls-7{fill:#56230d;}.cls-8{stroke:#1a5112;}.cls-10,.cls-9{fill:#1ea819;}.cls-11{fill:#fff;}</style></defs><title>SB_26_ICON_dustbean</title><g id="Layer_2" data-name="Layer 2"><g id="Layer_1-2" data-name="Layer 1"><rect class="cls-1" x="1.5" y="1.5" width="266.35" height="244.47" rx="8.77"/><path class="cls-2" d="M167.76,17.73H104.18A16.86,16.86,0,0,0,88.12,29.47L77.33,63.29H194.59L183.82,29.46A16.86,16.86,0,0,0,167.76,17.73Z"/><rect class="cls-3" x="101.42" y="26.14" width="69.08" height="28.44" rx="12.91"/><path class="cls-4" d="M183.82,29.46a16.83,16.83,0,0,0-8.4-9.89,16.81,16.81,0,0,1,4,6.7l5.05,16.13a13.81,13.81,0,0,1-13.15,18l-93-.27-1,3.17H194.59Z"/><path class="cls-5" d="M77,224.72H75.41a1.32,1.32,0,0,1-1.32-1.32h0v-.27a1.32,1.32,0,0,1,1.32-1.32H77v2.91Z"/><path class="cls-6" d="M78.08,209.29h9.1v27.28h-9.1c-1.38,0-2.49-6.1-2.49-13.64S76.7,209.29,78.08,209.29Z"/><ellipse class="cls-5" cx="87.2" cy="222.93" rx="2.61" ry="13.64"/><path class="cls-5" d="M196,221.73h1.59a1.32,1.32,0,0,1,1.32,1.32h0v.27a1.32,1.32,0,0,1-1.32,1.32H196v-2.91Z"/><path class="cls-6" d="M195,209.29h-9.13v27.28H195c1.37,0,2.48-6.1,2.48-13.64S196.38,209.29,195,209.29Z"/><ellipse class="cls-5" cx="185.88" cy="222.93" rx="2.61" ry="13.64"/><rect class="cls-7" x="86.62" y="221.19" width="99.27" height="3.48" rx="1.58"/><path class="cls-8" d="M80.39,63.29l8.07,163.65a10.14,10.14,0,0,0,10.12,9.63h75a10.14,10.14,0,0,0,10.12-9.63l8.07-163.65Z"/><path class="cls-9" d="M97.18,226.94,89.1,63.29H80.39l8.07,163.65a10.14,10.14,0,0,0,10.12,9.63h8.71A10.13,10.13,0,0,1,97.18,226.94Z"/><path class="cls-4" d="M183,63l-8.07,163.65a10.14,10.14,0,0,1-10.12,9.63h8.71a10.11,10.11,0,0,0,10.11-9.63L191.69,63Z"/><path class="cls-4" d="M80.68,69.1,81.81,92c1.94-5.06,6.84-9.56,12.63-9.56h83.33c5.79,0,10.69,4.5,12.64,9.56l1.13-22.91Z"/><path class="cls-10" d="M85.72,62.13H186.49A14.49,14.49,0,0,1,201,76.62h0V78.1H71.23V76.62A14.49,14.49,0,0,1,85.72,62.13Z"/><path class="cls-11" d="M156.63,168.92a5.45,5.45,0,0,0,5.45-5.43L155.84,152l-10.19,5.46,6.12,11.42Z"/><path class="cls-11" d="M156.63,170.15H145.09v-3.74l-3.32,4.76-3.08,4.75,3.08,4.75,3.32,4.75v-3.69h6.85a3.8,3.8,0,0,0,3.15-1.5l4.36-8.74,1.35-2.8A6.64,6.64,0,0,1,156.63,170.15Z"/><path class="cls-11" d="M119.71,175.13a5.45,5.45,0,0,0,2.25,7.36l13-.16,0-11.6-13,.07Z"/><path class="cls-11" d="M118.62,174.55l2-3.71.7-1.32,2.74-5.16,3.3,1.75L124.72,161,122,156l-5.64.49-5.75.71,3.26,1.73-3.21,6.06a3.73,3.73,0,0,0-.14,3.48l5.67,7.94,1.84,2.5A6.63,6.63,0,0,1,118.62,174.55Z"/><path class="cls-11" d="M133.33,139.85a5.45,5.45,0,0,0-7.45-1.92l-6.7,11.21,9.89,6,6.71-11.09Z"/><path class="cls-11" d="M134.39,139.22l2.14,3.61.76,1.29,3,5L137.07,151l5.79.43,5.66.23,2.51-5.07,2.4-5.28-3.18,1.88-3.49-5.9a3.76,3.76,0,0,0-2.9-1.93l-9.74.7-3.09.26A6.7,6.7,0,0,1,134.39,139.22Z"/><rect class="cls-11" x="100.22" y="100.61" width="71.09" height="15.45" rx="7.01"/></g></g></svg>