<svg xmlns="http://www.w3.org/2000/svg" viewBox="0 0 269.35 247.47"><defs><style>.cls-1{fill:#cca9ff;stroke:#323232;stroke-width:3px;}.cls-1,.cls-14,.cls-16,.cls-2{stroke-miterlimit:10;}.cls-2{fill:#68770e;stroke:#3a3f0b;}.cls-14,.cls-2{stroke-width:0.75px;}.cls-3{opacity:0.54;}.cls-11,.cls-12,.cls-3,.cls-5,.cls-7{isolation:isolate;}.cls-4{fill:#838d59;}.cls-5,.cls-7{opacity:0.5;}.cls-6{fill:#602718;}.cls-11,.cls-12,.cls-7{fill:#fff;}.cls-8{fill:#2c4708;}.cls-9{fill:#dbd8af;}.cls-10{fill:#bfaa95;}.cls-11{opacity:0.3;}.cls-12{opacity:0.2;}.cls-13{fill:#131e02;}.cls-14{fill:#9b5323;stroke:#6b3c1c;}.cls-15{fill:#773e17;}.cls-16{fill:#d1a433;stroke:#775e26;stroke-width:0.5px;}</style></defs><title>SB_26_ICON_helmet</title><g id="Layer_2" data-name="Layer 2"><g id="Layer_1-2" data-name="Layer 1"><rect class="cls-1" x="1.5" y="1.5" width="266.35" height="244.47" rx="8.77"/><path class="cls-2" d="M229.4,106v1.52c-.05,4-.26,10.82-.65,16.86-.05.78-.1,1.55-.15,2.29s-.11,1.5-.18,2.22a59,59,0,0,1-.76,6.22c-13.82-13.82-54.38-14.82-86.67-14.82-12.52,0-26.43.1-39.54.94-3.1.2-6.1.43-9,.72h-.34c-2.62.26-5.19.56-7.68.9-13.73,1.88-25,5.14-30.62,10.71-.23-1.15-.45-2.71-.64-4.54-.07-.69-.14-1.43-.21-2.2-.36-4.22-.62-9.3-.77-13.61,0-1.35-.08-2.62-.11-3.77v-5a85,85,0,0,1,4.29-25.3A89.07,89.07,0,0,1,70.68,52.25,91.37,91.37,0,0,1,85.6,37a89.33,89.33,0,0,1,32.31-16.69,85.12,85.12,0,0,1,47.59.58,86.42,86.42,0,0,1,12.69,5A91,91,0,0,1,204.5,45.07l.54.59c1.5,1.58,2.94,3.23,4.32,4.93a2.56,2.56,0,0,1,.2.26c1.51,1.84,2.93,3.75,4.28,5.72a88.2,88.2,0,0,1,15.49,46.07v1.69C229.33,104.89,229.4,105.39,229.4,106Z"/><path class="cls-3" d="M229.4,105.94c0,6-.6,23.47-1.75,29.12-13.82-13.82-54.38-14.82-86.67-14.82-10.51,0-22,.07-33.17.59A165.09,165.09,0,0,0,164,92.09a170.59,170.59,0,0,0,40.63-46.93A88.15,88.15,0,0,1,229.4,105.94Z"/><path class="cls-4" d="M63,126l-9.88,3-9.5,2.89c.43-.85,6-11.69,7.82-18.61a15,15,0,0,0,.59-3.59v-.27a41,41,0,0,1,.45-5c.88-6.31,2.79-13.68,2.79-13.68l3,13.45,2,9.21,2.4,11Z"/><path class="cls-5" d="M238.48,131.89l-10.07-3L219.1,126l.35-1.6.6-2.76,3.26-14.81.72-3.31,2.79-12.74s1.55,6,2.51,11.8c.09.59.18,1.17.26,1.74.16,1.1.29,2.17.36,3.16.07.73.11,1.47.11,2.2,0,2.88,2,8.28,4.09,13s4.07,8.66,4.31,9.13Z"/><path class="cls-6" d="M84.7,115.05c-10,.65-21.34,2.44-30.63,6.36a.4.4,0,0,0-.23.5.39.39,0,0,0,.43.25c5.14-.74,10.18-2.18,15.27-3.17s10.23-1.68,15.34-2.58C85.65,116.28,85.47,115,84.7,115.05Z"/><path class="cls-7" d="M158.91,112.3c-5-1-10.43-.76-15.55-.83q-8.49-.1-17,.12A247.15,247.15,0,0,0,94,114.24c-.49.07-.37.88.12.86,10.74-.41,21.49-1.18,32.26-1.42q7.67-.17,15.35-.08c5.59.07,11.42.8,17,.22C159.5,113.73,159.83,112.49,158.91,112.3Z"/><path class="cls-7" d="M230,120.85c-7.36-3.37-16.08-4.67-24-5.9-8.11-1.26-16.57-2.41-24.78-1.74a.58.58,0,0,0-.5.65.58.58,0,0,0,.5.5c8.36,1,16.74,1.18,25.07,2.52,7.86,1.25,15.49,3.77,23.32,5C230.11,121.93,230.6,121.13,230,120.85Z"/><path class="cls-8" d="M230,107.49h-.56a51.55,51.55,0,0,1-6.08-.63,77.92,77.92,0,0,1-7.82-1.72c-4.18-1.13-8.29-2.54-12.35-4a4.13,4.13,0,0,1-2.5-2.29c-5.88-.34-11.77-.68-17.64-1.17-3.63-.29-7.31-.57-11-1-4.68.25-10.06.14-13.78-2.07a8.16,8.16,0,0,1-2.26-2,10.38,10.38,0,0,1-3.44-3.41,9.25,9.25,0,0,1-1.34-4.4,7.81,7.81,0,0,1,.41-5,10.66,10.66,0,0,1,2.18-3.14,23.6,23.6,0,0,1,2.51-3.22,31.36,31.36,0,0,1,7.81-6.28c10.23-5.62,22-5.61,33.25-4.41,4.77.51,9.45,1,14.07,1.35,2.43.17,4.86.27,7.27.29a86.91,86.91,0,0,1,10.62,38.14c.09.59.18,1.17.26,1.74C229.75,105.43,229.88,106.5,230,107.49Z"/><path class="cls-9" d="M154.9,44.19a3.74,3.74,0,0,0-4.47,1.64A19.71,19.71,0,0,0,142,48c-4,2.22-7,5.72-10.4,8.64a52.71,52.71,0,0,0-10.36,1.7c-8.89,2.48-22.61,7.92-18.09,19.54,3,7.74,12.15,11.51,20,10.06a20.21,20.21,0,0,0,9.32-4.48,50.41,50.41,0,0,0,23.65-16.11C161.83,60.25,165.72,48.73,154.9,44.19Z"/><path class="cls-10" d="M84.18,95.73c-3.38,4.3-9.18,5.71-14.27,6.8a100.65,100.65,0,0,1-11.71,1.68c-1.9.15-3.85.24-5.74.23H52a85,85,0,0,1,4.29-25.3c1.69.13,3.24.18,3.91.24a84.45,84.45,0,0,0,9.14.21c4.9-.14,10.7-1,14.59,2.81C87.68,86.05,87.26,91.89,84.18,95.73Z"/><path class="cls-9" d="M108.43,56.38c-2.29,1.7-6,2-9.28,1.8a13.44,13.44,0,0,1-7.4.62,41.79,41.79,0,0,1-11.2-1.1c-3-.75-7.29-2.66-9.87-5.45A91.37,91.37,0,0,1,85.6,37a11,11,0,0,1,4.58,3.47,14.51,14.51,0,0,1,1.24,1.94,10.54,10.54,0,0,1,1.28,1.47c1.14-.05,2.28-.16,3.36-.19,4.79-.14,9.35.74,12.78,4.3A3.92,3.92,0,0,1,110,51,4.36,4.36,0,0,1,108.43,56.38Z"/><path class="cls-8" d="M84.71,63.93l-.91-.09a19,19,0,0,0-11.42-2.22,4.34,4.34,0,0,0-4,3.05,4.16,4.16,0,0,0,1.91,4.69c4.93,2.31,10.06,4.32,15.53,2.74C90.56,70.73,89.18,64.4,84.71,63.93Z"/><path class="cls-9" d="M204.5,45a1.28,1.28,0,0,1-.15.25c-1.65,2.52-5.49,2-7-.2-.85.45-3.65-.07-4.41-.08-2.14,0-4.28,0-6.41.13-4.11.15-8.29.64-12.4.38a17.15,17.15,0,0,1-4.69-1c-4.23-1.55-7.77-4.85-7.25-9.86.65-6.29,10.11-7.67,15-8.6l1-.18A91.26,91.26,0,0,1,204.5,45Z"/><path class="cls-8" d="M165.5,20.93a67.15,67.15,0,0,1-25.57,14.13c-4.3,1.23-8.85,2.07-13-.07a22.24,22.24,0,0,1-8.16-8.07c-1.55-2.5-1.65-4.69-.85-6.57a85.12,85.12,0,0,1,47.59.58Z"/><path class="cls-10" d="M213.84,58.18c-1.34-2-2.77-3.88-4.27-5.72h-.13a2.25,2.25,0,0,0-.08-.24c-1.38-1.71-2.82-3.35-4.32-4.94a7.32,7.32,0,0,0-.69-.33c-3.2-1.39-7.35-1.56-11.41-1.2a15.38,15.38,0,0,0-10.07-2.63,40.66,40.66,0,0,0-13.44,3.07,36.16,36.16,0,0,0-15,11.41c-2.54,3.35-6.3,8.91-3.31,13a5.22,5.22,0,0,0,2,1.7,6.9,6.9,0,0,0,3.2,2.84,16.1,16.1,0,0,0,6.54,1.17c7.87.14,15.4-2.52,23.14-3.45a40.51,40.51,0,0,0,5.62,1.61c5.19.88,10.78.43,15.17-2.73a12.86,12.86,0,0,0,4.66-5.94,12.1,12.1,0,0,0,.67-5.59A3.81,3.81,0,0,0,213.84,58.18Z"/><path class="cls-8" d="M115.62,111.73c-.62,4-3.33,6.25-6.63,7.62a29,29,0,0,1-7.17,1.77l-.45.06c-3,.37-6,.53-9,.71-2.37.14-4.73.31-7.07.62l-1,.31-.24.08a27.9,27.9,0,0,1-6.27,1.26c-9.68,3.21-18.21,10.25-27.61,14.35-4.49-1.67-7-3.5-7-5.41a2.4,2.4,0,0,1,.35-1.22c.43-.85,6-11.69,7.82-18.61.23,0,.47-.07.7-.09.61-.08,1.22-.13,1.84-.17a28,28,0,0,1,6.27.43c1.68.3,3.34.71,5,1.13l1.49-.54,2.3-1.3c5.77-3.4,11.57-6.76,18.07-8.57,5-1.39,12.26-3,17.75-1.59C111.47,102.22,116.8,104.12,115.62,111.73Z"/><path class="cls-9" d="M170.49,91.86a8.88,8.88,0,0,0-.86-1.33c-2.21-2.87-6.12-3.29-9.46-3.69a48.87,48.87,0,0,0-13.34.33,49.5,49.5,0,0,0-12.12,3.31,16.09,16.09,0,0,0-4.93,2.11c-3.83,1.68-9.53,4.64-9.22,9.3.36,5.5,8.28,6.41,12.45,5.88a6.23,6.23,0,0,0,1-.22,53,53,0,0,0,7.26-1.57,53.51,53.51,0,0,1,11.13-1.42,33.47,33.47,0,0,0,5.57-.25l2-.13c4.14-.32,11.5-.35,14-4.47C176.08,95.93,173.61,93.34,170.49,91.86Z"/><path class="cls-10" d="M234.18,122.73a14.14,14.14,0,0,1-5.41,1.62,11.34,11.34,0,0,1-7.06-1.35,9.47,9.47,0,0,1-1.63-1.33,9,9,0,0,1-.85-1c-3.94-2.35-7.88-6.52-7.1-10.9a6.47,6.47,0,0,1,3.39-4.63c2.39-1.35,5.62-1.7,8.54-1.59a25.4,25.4,0,0,1,4.26.5l1.09.25h.21c.16,1.1.29,2.17.36,3.16.07.73.11,1.47.11,2.2C230.06,112.57,232.08,118,234.18,122.73Z"/><path class="cls-11" d="M182.88,28.31c-10.61,22.4-41.34,46.29-73.09,53.93a126.19,126.19,0,0,1-54.5.27A88,88,0,0,1,63,63.85,92.1,92.1,0,0,1,91,33a87.06,87.06,0,0,1,49.23-15.77h2.92A86.78,86.78,0,0,1,182.88,28.31Z"/><path class="cls-12" d="M117.87,52.64c-16,5.14-33.5,1.34-42.72-5.72A92,92,0,0,1,91,33a87.06,87.06,0,0,1,49.23-15.77h2.22C148,29.46,145.07,43.93,117.87,52.64Z"/><path class="cls-7" d="M125.72,25.73a4.28,4.28,0,0,0-3.54-4.5c-4.27-1.08-9.65,1.28-13.35,3.21s-7.85,3.44-10.46,6.7c-2,2.48-3.79,7.63-.24,9.56,2.52,1.36,6.29.33,8.83-.37,5.08-1.4,10.73-3,14.85-6.6A12.13,12.13,0,0,0,125.72,25.73Z"/><path class="cls-13" d="M238.83,133.11c0,3.71-9.35,7.1-24.73,9.67-3.13.53-6.51,1-10.12,1.47a525,525,0,0,1-62.92,3.42c-26.38,0-50.32-1.56-67.91-4.09-3.63-.52-7-1.08-10-1.69a85.48,85.48,0,0,1-12.87-3.37c-4.49-1.67-7-3.5-7-5.41a2.4,2.4,0,0,1,.35-1.22c1.06-1.84,4.29-3.54,9.29-5.09a98.11,98.11,0,0,1,9.74-2.39,1.86,1.86,0,0,0,.47-.09c3.05-.6,6.41-1.16,10-1.68,10.1-1.45,22.28-2.58,35.82-3.28,10-.52,20.83-.8,32.07-.8,24.58,0,47,1.35,64.23,3.58,3.54.46,6.86,1,9.92,1.49,1.48.25,2.89.52,4.24.78,3.47.69,6.53,1.43,9.14,2.21,5.35,1.59,8.79,3.36,9.87,5.22A2.51,2.51,0,0,1,238.83,133.11Z"/><path class="cls-14" d="M113.18,214.28c-5.17,1-10.4,2-15.64,3.06a70.33,70.33,0,0,1-8.68-6.69l-.22-.2q-2.31-2.1-4.49-4.44a90.33,90.33,0,0,1-13.4-19c-5.38-10-7.17-28.28-7.57-44.23v-.89c-.06-2.47-.09-4.87-.1-7.18,0-3.8,0-7.33.12-10.39,3-.6,6.41-1.16,10-1.68C73,128,73,134.5,73.12,141.25c0,.78,0,1.55.06,2.33.46,15,2.13,30.77,6.4,38.73A77.84,77.84,0,0,0,96.38,204a56.73,56.73,0,0,0,10.5,7.35A54.46,54.46,0,0,0,113.18,214.28Z"/><path class="cls-15" d="M114.29,218.73l-15.9,5.83c-6.33-.73-12.26-1.33-14.64-1.44-2.75-.14-7.49.38-7.49-2.88a7.45,7.45,0,0,1,.08-1.16c.72-5,6.09-7.56,12.31-8.62q-2.31-2.1-4.49-4.44l5.69-.93,6.5-1.07a56.73,56.73,0,0,0,10.5,7.35l.24.08c2.32.87,4.61,1.78,6.91,2.63Z"/><path class="cls-14" d="M215.18,123.63c0,.73-.05,1.48-.08,2.23v.63c-.16,3.67-.36,7.39-.62,11.09-.11,1.74-.25,3.47-.39,5.2-1,11.89-2.4,23.5-4.18,33.35a55.3,55.3,0,0,1-20.19,33.77c-1.5,1.22-3.06,2.38-4.68,3.46a78,78,0,0,1-16.16,8.28,100,100,0,0,1-29.7,6.09,71.63,71.63,0,0,1-7.74.61c-.19,0-11.49-.73-14-1.24-3.27-.63-11.42-1.69-19-2.57-6.33-.73-12.26-1.33-14.64-1.44-2.75-.14-7.49.38-7.49-2.88a7.45,7.45,0,0,1,.08-1.16c.72-5,6.09-7.56,12.31-8.62l.66-.11c6.51-1,13.77-.32,17.54,1l.24.08c2.32.87,4.61,1.78,6.91,2.63a54.56,54.56,0,0,0,12.68,3.36c5.19.61,10.53-.1,15.74.08a88.2,88.2,0,0,0,22.84-5.16,63.31,63.31,0,0,0,19.87-11.67,45.47,45.47,0,0,0,14.91-26.28c1.79-10,3-20.37,3.88-30.11.29-3.37.53-6.65.72-9.8.29-4.4.48-8.55.59-12.31C208.83,122.6,212.18,123.09,215.18,123.63Z"/><path class="cls-16" d="M131.26,216c-1-1-10.79-2.4-11.52-2.25-.44.09-6.19,13.36-5.37,14.17.5.51,10.47,2.5,11.19,2.26C126.49,230,132,216.73,131.26,216Zm-3.34,2c-.82,1.5-3.4,7.62-4.14,9.39-.22,0-5-.67-5.39-.87-.15-.33,2-7,3.46-9.59a48.14,48.14,0,0,1,6.07,1.05Z"/><path class="cls-15" d="M189.73,209.9c-1.5,1.22-3.06,2.38-4.68,3.46a78,78,0,0,1-16.16,8.28l-3.63-9.29a63.46,63.46,0,0,0,19.92-11.71l2.19,4.48Z"/><path class="cls-15" d="M215.11,126.49c-.16,3.67-.36,7.39-.62,11.09-.11,1.74-.25,3.47-.39,5.2-1,11.89-2.4,23.5-4.18,33.35a55.3,55.3,0,0,1-20.19,33.77c-1.5,1.22-3.06,2.38-4.68,3.46l-2.18-4s1.86-1.67,4.51-4.24c5.8-5.6,13.29-16.75,15.91-22.64s6.89-30.35,8-45.94c.49-7.13.76-12.13.76-12.13Z"/><path class="cls-15" d="M92.48,208.21l-3.16,2.13-.45.31s-6.44.86-.22-.2q-2.31-2.1-4.49-4.44a90.33,90.33,0,0,1-13.4-19c-5.39-10-7.18-28.28-7.58-44.23v-.89c-.06-2.47-.09-4.87-.1-7.18l3.62.35s-.09,2.88-.06,7.19c0,8.76,1.8,29.56,4.28,37.73,2.85,9.4,12.89,20.66,19,25.1A7.31,7.31,0,0,1,92.48,208.21Z"/><path class="cls-15" d="M215.18,123.63c0,.73-.05,1.48-.08,2.23v.63c-.16,3.67-.36,7.39-.62,11.09l-3.24-1-6.55-2.09c.29-4.4.48-8.55.59-12.31C208.83,122.6,212.18,123.09,215.18,123.63Z"/><path class="cls-15" d="M73.09,141.25l-6.51,1-3.44.53v-.89c-.06-2.47-.09-4.87-.1-7.18,0-3.8,0-7.33.12-10.39,3-.6,6.41-1.16,10-1.68C73,128,72.93,134.5,73.09,141.25Z"/><path class="cls-16" d="M191.74,208.39a56.07,56.07,0,0,0-5.38-12.6c-.39-.64-2.61-.74-3.11-.4-1,.66-13,8.64-14.15,10.76a3.59,3.59,0,0,0-.66,1.66c0,2.09,3.1,10.39,4.61,12.32a3.72,3.72,0,0,0,3.79.94c.78,0,14.93-10.23,15-10.55A3.52,3.52,0,0,0,191.74,208.39Zm-13.87,6.07a50.38,50.38,0,0,0-2.46-6c.75-.54,5.54-3.61,7-4.87a42.88,42.88,0,0,1,3,6.69C182.92,211.73,180.41,213.09,177.87,214.46Z"/><path class="cls-15" d="M88.11,215.87c-2.06,0-2.06,2.23,0,2.23C89.18,218.1,89.18,215.87,88.11,215.87Z"/><circle class="cls-15" cx="97.85" cy="217.51" r="1.14"/><path class="cls-15" d="M107.66,216.39a1.64,1.64,0,1,0,1.51,1.51A1.64,1.64,0,0,0,107.66,216.39Z"/><path class="cls-15" d="M132.35,222.3c-1,0-1,2.67,0,2.67a1.35,1.35,0,1,0,.4-2.67A1.34,1.34,0,0,0,132.35,222.3Z"/><path class="cls-15" d="M143.67,220.88c-1,0-1,2.61,0,2.61a1.32,1.32,0,0,0,.4-2.61A1.34,1.34,0,0,0,143.67,220.88Z"/><path class="cls-15" d="M126.68,221.12c-1.67-1-4-1.55-5.85-.67-1.09.53-.42,2,.56,2.07a17.59,17.59,0,0,1,2,.1,5.45,5.45,0,0,1,1.89.8C126.78,224.35,128.18,222,126.68,221.12Z"/></g></g></svg>