<svg xmlns="http://www.w3.org/2000/svg" viewBox="0 0 269.35 247.47"><defs><style>.cls-1{fill:#cca9ff;stroke:#323232;stroke-width:3px;}.cls-1,.cls-14,.cls-17,.cls-18,.cls-2,.cls-3,.cls-5,.cls-6,.cls-7{stroke-miterlimit:10;}.cls-2{fill:#bcc6c9;stroke:#9ea6a8;}.cls-14,.cls-17,.cls-18,.cls-2,.cls-5,.cls-7{stroke-width:0.5px;}.cls-12,.cls-17,.cls-3{fill:#cbd9df;}.cls-3,.cls-5{stroke:#a5b1b5;}.cls-18,.cls-4{fill:#fbffff;}.cls-10,.cls-5,.cls-6{fill:#dceaf2;}.cls-6,.cls-7{stroke:#92a0a5;}.cls-6{stroke-width:0.25px;}.cls-7{fill:#fff;}.cls-8{fill:#414042;}.cls-9{fill:#58595b;}.cls-11{fill:#98a3a7;}.cls-13{fill:#178293;}.cls-14{fill:#1eadc4;stroke:#0f646d;}.cls-15{fill:#727d85;}.cls-16{fill:#98a7b1;}.cls-17,.cls-18{stroke:#c5cfd3;}</style></defs><title>SB_26_ICON_injuction</title><g id="Layer_2" data-name="Layer 2"><g id="Layer_1-2" data-name="Layer 1"><rect class="cls-1" x="1.5" y="1.5" width="266.35" height="244.47" rx="8.77"/><path class="cls-2" d="M61.71,221.53c1.34-3.46-1.37-9.79-6.78-15.2s-11.5-8-15-6.85l-.3-.3-1.06,1.08-.15.13-.18.2h0c-2.58,3.07.09,10.25,6.14,16.3,6.2,6.2,13.6,8.85,16.52,5.93l1.22-1.22Z"/><path class="cls-3" d="M39.62,199.18c-2.92,2.92-.27,10.32,5.93,16.52s13.63,8.86,16.53,5.93.27-10.32-5.93-16.52S42.55,196.25,39.62,199.18Z"/><path class="cls-4" d="M111.18,138.13l4.36,4.36,3.21,3.22,4.36,4.36-13.52,13.52c.77.92,1.48,1.84,2.16,2.74l15-15-16.85-16.8-15,15c.9.67,1.81,1.39,2.74,2.15Z"/><path class="cls-5" d="M87.64,161.73,45.18,204.14l11.43,11.51,41.9-41C97,173.14,88.89,163.2,87.64,161.73Z"/><path class="cls-4" d="M93.33,167.93c-.54-.54-1.07-1.09-1.59-1.63L49.55,208.5l-2.1,2.09,3.21,3.21,2.1-2.09L95,169.51C94.41,169,93.87,168.47,93.33,167.93Z"/><path class="cls-6" d="M111.18,138.13,97.67,151.65l-2.6,2.6a7,7,0,0,0-3.37-.9c-.4.06-1.91.12-.34,4.61h0a22.27,22.27,0,0,0,3.36,5.36l10-6.1,10.78-14.73Z"/><path class="cls-6" d="M123.4,150l-13.53,13.51-2.6,2.59a7,7,0,0,1,.9,3.38c-.06.39-.12,1.91-4.62.34h0A43.86,43.86,0,0,1,96,165l9.61-10,13.4-9.4Z"/><path class="cls-4" d="M115.55,142.49l-13.26,13.24-7.57,7.57c.48.58,1,1.14,1.51,1.69A21.09,21.09,0,0,0,98,166.5L105.5,159l13.26-13.22Z"/><path class="cls-7" d="M167.8,112.48h0c.93-1.13.69-2.31.18-4.7-.1-.44-.2-.94-.32-1.49l-.17-.86c-.62-3-.66-3.33,0-4.16.47-.6,1.56-2,2.67-3.34l-1.11-1.1-.08.1c-1.11,1.39-2.23,2.78-2.7,3.39-1.11,1.42-.9,2.43-.28,5.42l.18.86c.11.56.22,1.06.31,1.5.49,2.24.58,2.83.21,3.33-.71.44-4.78-1.18-10.21-6.6s-7-9.5-6.6-10.2c.5-.37,1.09-.28,3.33.2l1.51.32.86.17c3,.62,4,.83,5.41-.27l3.4-2.71.1-.08-1.11-1.1c-1.37,1.1-2.74,2.2-3.34,2.66-.83.65-1.18.6-4.15,0l-.86-.18-1.49-.31c-2.39-.52-3.58-.76-4.7.18h0l-.11.13-.13.11L93.66,148.58l-3.35,3.35c-1.65,1.65-1.43,4.31-.12,7.19a24.29,24.29,0,0,0,3.43,5.3l1,1.2h0l.47.46.49.5h0a13.93,13.93,0,0,0,1.21,1,24.28,24.28,0,0,0,5.37,3.35c2.89,1.28,5.57,1.51,7.11,0l3.35-3.36,54.94-54.84a1.15,1.15,0,0,1,.1-.13Zm-59.57,57.37c-.89.89-2.69.79-4.84,0A21.84,21.84,0,0,1,98,166.52c-.59-.47-1.16-1-1.72-1.51a20.41,20.41,0,0,1-1.51-1.69A22.27,22.27,0,0,1,91.36,158c-.87-2.08-1-3.9,0-4.94l3.53-3.52,15-15,8.2-8.2L148.39,96c.71,2.71,3.68,6.62,7,9.89s7.17,6.24,9.88,6.94l-30.3,30.31-8.21,8.2-15,15Z"/><path class="cls-8" d="M122.83,153.43c-2.47-.31-6-2.4-9.32-5.68s-5.38-6.85-5.68-9.33a2.81,2.81,0,0,1,.59-2.41l-3,3c-1.84,1.84.44,7.1,5.08,11.74s9.91,6.93,11.75,5.09l3-3A2.76,2.76,0,0,1,122.83,153.43Z"/><path class="cls-9" d="M125.85,150.42a13.44,13.44,0,0,1-5.43-2.41,28.39,28.39,0,0,1-3.9-3.27,27.78,27.78,0,0,1-3.27-3.91,13.21,13.21,0,0,1-2.41-5.42,2.79,2.79,0,0,1,.6-2.42l-3,3a2.81,2.81,0,0,0-.59,2.41c.3,2.48,2.4,6,5.68,9.33s6.85,5.37,9.32,5.68a2.79,2.79,0,0,0,2.42-.6l3-3A2.83,2.83,0,0,1,125.85,150.42Z"/><path class="cls-8" d="M128.86,147.4a13.12,13.12,0,0,1-5.43-2.41,26.51,26.51,0,0,1-3.9-3.27,28.39,28.39,0,0,1-3.27-3.9,13.4,13.4,0,0,1-2.41-5.42,2.79,2.79,0,0,1,.6-2.42l-3,3a2.79,2.79,0,0,0-.6,2.42,13.21,13.21,0,0,0,2.41,5.42,27.78,27.78,0,0,0,3.27,3.91,28.39,28.39,0,0,0,3.9,3.27,13.44,13.44,0,0,0,5.43,2.41,2.84,2.84,0,0,0,2.41-.6l3-3A2.84,2.84,0,0,1,128.86,147.4Z"/><path class="cls-10" d="M148.4,96l-33.95,34c1.84-1.84,7.1.44,11.74,5.08s6.93,9.91,5.09,11.75l34-34c-2.71-.7-6.62-3.68-9.88-6.94S149.11,98.73,148.4,96Z"/><path class="cls-11" d="M126.18,135.06c-4.64-4.64-9.9-6.92-11.74-5.08a2.79,2.79,0,0,0-.6,2.42,13.4,13.4,0,0,0,2.41,5.42,28.39,28.39,0,0,0,3.27,3.9,26.51,26.51,0,0,0,3.9,3.27,13.12,13.12,0,0,0,5.43,2.41,2.83,2.83,0,0,0,2.42-.59C133.12,145,130.84,139.73,126.18,135.06Z"/><path class="cls-12" d="M111.76,166.33c-.68-.9-1.35-1.62-2.11-2.54l-2.38,2.27c.84,1.71,1.35,3.6.47,4.14a1.9,1.9,0,0,0,.49-.35Z"/><path class="cls-12" d="M95.07,154.25l2.6-2.6c-.93-.76-1.84-1.48-2.74-2.15L91.4,153a2.66,2.66,0,0,0-.37.51C91.9,153.11,93.35,153.4,95.07,154.25Z"/><path class="cls-10" d="M155.54,95.3l-.86-.17-1.51-.32c-2.24-.48-2.83-.57-3.33-.2-.44.7,1.18,4.78,6.6,10.2s9.5,7,10.21,6.6c.37-.5.28-1.09-.21-3.33-.09-.44-.2-.94-.31-1.5l-.18-.86c-.62-3-.83-4,.28-5.42.47-.61,1.59-2,2.7-3.39l-4.58-4.59C163,93.44,161.56,94.55,161,95,159.53,96.13,158.53,95.92,155.54,95.3Z"/><path class="cls-9" d="M147.36,96.9l-.89.89c.87,2.63,3.25,6,6.56,9.35l.81-.8C150.45,103,148,99.4,147.36,96.9Z"/><path class="cls-9" d="M148.12,103.05a15.07,15.07,0,0,1-2.31-4.6l-.9.9a17.51,17.51,0,0,0,2.4,4.52Z"/><path class="cls-9" d="M146.53,104.64a14.85,14.85,0,0,1-2.27-4.64l-.9.91a17.07,17.07,0,0,0,2.36,4.54Z"/><path class="cls-9" d="M145,106.23a14.55,14.55,0,0,1-2.24-4.68l-.91.91a16.78,16.78,0,0,0,2.33,4.58Z"/><path class="cls-9" d="M143.36,107.81a14,14,0,0,1-2.2-4.7l-.92.91a16.59,16.59,0,0,0,2.3,4.61Z"/><path class="cls-9" d="M143.34,111.55a17.35,17.35,0,0,1-3.73-6.89l-.93.92a20,20,0,0,0,3.86,6.78Z"/><path class="cls-9" d="M140.18,111a13.76,13.76,0,0,1-2.13-4.77l-.93.92a16.23,16.23,0,0,0,2.24,4.67Z"/><path class="cls-9" d="M138.6,112.57a13.68,13.68,0,0,1-2.09-4.81l-.93.93a15.75,15.75,0,0,0,2.21,4.69Z"/><path class="cls-9" d="M137,114.16a13.38,13.38,0,0,1-2.06-4.85l-.94.93a15.56,15.56,0,0,0,2.19,4.73Z"/><path class="cls-9" d="M135.43,115.73a13.07,13.07,0,0,1-2-4.88l-1,.94a15.71,15.71,0,0,0,2.16,4.75Z"/><path class="cls-9" d="M131.86,112.41l-1,1c.72,3.36,3.54,7.16,6.15,9.76l.8-.8C134.46,118.93,132.18,115.18,131.86,112.41Z"/><path class="cls-9" d="M132.26,118.91a12.6,12.6,0,0,1-2-5l-1,1a15,15,0,0,0,2.1,4.81Z"/><path class="cls-9" d="M130.67,120.5a12.56,12.56,0,0,1-1.91-5l-1,1a15.05,15.05,0,0,0,2.07,4.84Z"/><path class="cls-9" d="M129.09,122.09a12.51,12.51,0,0,1-1.88-5l-1,1a14.84,14.84,0,0,0,2,4.87Z"/><path class="cls-9" d="M127.5,123.67a12.27,12.27,0,0,1-1.84-5.06l-1,1a14.54,14.54,0,0,0,2,4.91Z"/><path class="cls-9" d="M127.4,127.49a14.8,14.8,0,0,1-3.29-7.33l-1,1a17.31,17.31,0,0,0,3.48,7.15Z"/><path class="cls-9" d="M124.33,126.84a12,12,0,0,1-1.77-5.13l-1,1a14.59,14.59,0,0,0,2,5Z"/><path class="cls-9" d="M122.74,128.43a11.93,11.93,0,0,1-1.73-5.18l-1,1a14.31,14.31,0,0,0,1.92,5Z"/><path class="cls-9" d="M121.18,130a11.8,11.8,0,0,1-1.7-5.22l-1,1a14.06,14.06,0,0,0,1.89,5Z"/><path class="cls-9" d="M119.57,131.6a11.74,11.74,0,0,1-1.66-5.25l-1,1a14.06,14.06,0,0,0,1.86,5.05Z"/><path class="cls-9" d="M116.36,127.9l-1,1c.43,3.67,3.14,7.57,5.74,10.17l.8-.8C118.48,134.9,116.4,131,116.36,127.9Z"/><path class="cls-13" d="M170.18,91c-3.29-3.29-7-4.91-8.32-3.61a2,2,0,0,0-.43,1.72A9.62,9.62,0,0,0,163.14,93a20.43,20.43,0,0,0,2.32,2.76,19.8,19.8,0,0,0,2.77,2.32,9.3,9.3,0,0,0,3.85,1.71,2,2,0,0,0,1.71-.42C175.18,98.06,173.52,94.33,170.18,91Z"/><path class="cls-14" d="M173.58,97.12l14.5-19.32c.57-.58.33-1.79-.5-2.91l-7.64,7.64-1.21-1.21,7.64-7.64c-1.13-.84-2.33-1.08-2.91-.5L164.18,87.73l-.2.14a1.47,1.47,0,0,0-.25,1.28,8.2,8.2,0,0,0,1.45,3,18.5,18.5,0,0,0,4,4,7.82,7.82,0,0,0,3,1.45,1.38,1.38,0,0,0,1.27-.25A.76.76,0,0,0,173.58,97.12Z"/><path class="cls-15" d="M187.58,74.89l41.6-41.56c-2,2-3.83,3.28-4.16,3s1-2.2,2.95-4.16l-41.6,41.56a5.81,5.81,0,0,1,.65.56A6.32,6.32,0,0,1,187.58,74.89Z"/><path class="cls-13" d="M179.94,82.53l7.64-7.64a5.78,5.78,0,0,0-1.21-1.21l-7.64,7.64Z"/><path class="cls-16" d="M232.09,29.17c-.33-.34-2.2,1-4.16,2.95s-3.29,3.83-3,4.16,2.19-1,4.16-3S232.42,29.5,232.09,29.17Z"/><rect class="cls-13" x="164.51" y="86.53" width="17.37" height="3.08" transform="translate(-11.55 148.26) rotate(-45)"/><path class="cls-13" d="M179.86,86.17l1.72-2.3a21,21,0,0,1-2.25-2,19.82,19.82,0,0,1-1.94-2.25l-2.3,1.73L170.28,85c.11.17.22.35.35.53A19.8,19.8,0,0,0,173,88.31a20.43,20.43,0,0,0,2.76,2.32l.54.35Z"/><path class="cls-17" d="M116.05,182.27l1.13-1.08-.73-.73c-.1-2.53-2.09-6.58-5.44-11.2l-3.14,3.14c-1.44,1.44-4,1.13-6.89-.19a25.13,25.13,0,0,1-5.3-3.42c-.41-.34-.82-.69-1.21-1h0l-.49-.5-.47-.46h0c-.37-.39-.72-.79-1.06-1.2A25.8,25.8,0,0,1,89,160.39c-1.37-2.83-1.66-5.42-.12-7L92,150.24c-5.14-3.72-9.57-5.77-12-5.4l.06-.77-1.38,1.38c-2.19,2.19,1.23,9.31,7.89,17.3,1.26,1.51,2.64,3.06,4.12,4.61.51.54,1,1.08,1.58,1.62l1.63,1.59c1.55,1.48,3.08,2.85,4.61,4.12,7.55,6.29,14.33,9.69,16.89,8.19h0a3,3,0,0,0,.4-.3A1.89,1.89,0,0,0,116.05,182.27Z"/><path class="cls-18" d="M112.68,167.59,109.33,171c-1.54,1.53-4.22,1.3-7.11,0a24.28,24.28,0,0,1-5.37-3.35l-1.21-1h0l-.49-.5-.47-.46h0c-.36-.39-.69-.79-1-1.2a24.29,24.29,0,0,1-3.43-5.3c-1.31-2.88-1.53-5.54.12-7.19l3.35-3.35c-6.34-4.5-11.67-6.44-13.6-4.51-2.33,2.33,1,9.58,7.58,17.61,1.25,1.52,2.63,3.07,4.1,4.62.52.54,1,1.09,1.59,1.63S94.47,169,95,169.53c1.55,1.48,3.1,2.85,4.63,4.1,8,6.62,15.28,9.91,17.6,7.58C119.12,179.26,117.18,173.94,112.68,167.59Z"/></g></g></svg>