<svg xmlns="http://www.w3.org/2000/svg" viewBox="0 0 269.35 247.47"><defs><style>.cls-1{fill:#cca9ff;stroke:#323232;stroke-width:3px;}.cls-1,.cls-2{stroke-miterlimit:10;}.cls-2{fill:#4f5556;stroke:#1c2021;stroke-width:0.75px;}.cls-2,.cls-3,.cls-4,.cls-5,.cls-6,.cls-7{fill-rule:evenodd;}.cls-3{fill:#6d7272;}.cls-4{fill:#929497;}.cls-5{fill:#58595b;}.cls-6{fill:#808184;}.cls-7{fill:#a6a8ab;}</style></defs><title>SB_26_ICON_police_stick</title><g id="Layer_2" data-name="Layer 2"><g id="Layer_1-2" data-name="Layer 1"><rect class="cls-1" x="1.5" y="1.5" width="266.35" height="244.47" rx="8.77"/><path class="cls-2" d="M66.6,180.66c3.13-4.54,5.17-8.63,11.93-17.28,8.32-10.64,10.4-10.49,13-15.32-5.25-4.23.46-11,5.73-6.73L194.18,15.94c5.39-7,20.45,5.19,14.78,11.92L106.82,149c5.26,4.25-.13,11.26-5.38,7-4.16,3.59-3.57,5.59-12.22,16-7,8.37-10.63,11.27-14.37,15.24,2.66,3.77-2.43,9.47-6.59,6.32l-.41-.33A70.82,70.82,0,0,0,69.75,205c.91,3.4,3.39,13.34,2.43,20.56-1.52,11.55-12.77,10.48-12.78-2,0-10.8-1.36-24.81,2.56-35.07-3.91-3.36.43-9.44,4.64-7.83ZM66,191.73l-2.67-2.15c-3,9.71-2.29,24.36-1.86,34.28.3,7.11,6.3,10.28,8.24,2.07,1.54-6.52-1-17.6-1.69-20.26a64.94,64.94,0,0,1-2-13.94Z"/><path class="cls-3" d="M66.4,181.73c2.11,1.61,4.57,3.62,6.74,5.37,2.58,2.09,1.59,2.84-.59,1.23-1.69-1.25-4.7-3.93-6.38-4.14-1.93-.25-1.83,3.39-3.7,3.28C58.92,187.25,62.73,178.94,66.4,181.73Z"/><path class="cls-4" d="M66.37,181.93c1.7,1.38,5.29,3.86,7.46,6.85L67,183.26c-2.09-1.69-5.27,1.87-4.62,3.77C59.66,184.84,63.93,180,66.37,181.93Z"/><path class="cls-3" d="M76.06,184.38c-.68.71-1.35,1.42-2,2.18l-4.89-4c2.18.6,4.47,1.22,6.93,1.78Z"/><path class="cls-5" d="M91.72,150.26c.28-.42.57-.86.87-1.37l3,2.38-3.82-1Z"/><path class="cls-3" d="M84.18,158.73c1-1.16,1.86-2.1,2.61-2.91,3.27.91,6.75,1.91,10.59,2.78-.62.86-1.24,1.8-2,3C91.58,160.73,87.84,159.73,84.18,158.73Z"/><path class="cls-3" d="M80.64,163c.88-1.1,1.69-2.08,2.42-3,3.48,1,7.16,2,11.32,2.92-.61.86-1.31,1.83-2.17,2.95C88.3,165,84.41,164,80.64,163Z"/><path class="cls-3" d="M77.25,167.37c.7-.93,1.47-1.92,2.31-3,3.54,1,7.31,2.06,11.57,3-.69.88-1.47,1.85-2.34,2.92-3.89-.86-7.78-1.92-11.54-2.91Z"/><path class="cls-3" d="M74,171.73c.66-.93,1.38-1.93,2.2-3,3.5,1,7.22,2.05,11.41,2.94-.87,1-1.68,2-2.45,2.89C81.43,173.73,77.68,172.73,74,171.73Z"/><path class="cls-3" d="M71,176.18c.64-1,1.31-2,2.07-3.05,3.36.93,6.92,2,10.91,2.83-.93,1-1.78,2-2.57,2.85C77.89,178,74.4,177.09,71,176.18Z"/><path class="cls-3" d="M68,180.64c.72-1,1.38-2,2.08-3,3.11.87,6.39,1.8,10,2.59-1,1-1.88,1.95-2.73,2.83C74.21,182.3,71.05,181.45,68,180.64Z"/><path class="cls-3" d="M88.05,154.53c3.41.9,6.93,1.83,10.47,2.65a21.1,21.1,0,0,1,1.9-2l-1.81-1.45c-2.82-.69-5.42-1.43-7.91-2.13-.77,1-1.6,1.8-2.65,2.91Z"/><path class="cls-6" d="M70.89,184l.75-.75c-.86-.22-1.69-.45-2.52-.68Z"/><path class="cls-6" d="M91.72,150.26c.29-.42.57-.86.87-1.37l3,2.38-3.82-1Z"/><path class="cls-6" d="M84.18,158.73c1-1.16,1.86-2.1,2.61-2.91,2.18.61,4.45,1.26,6.86,1.88-.54.86-1.13,1.84-1.91,3-2.56-.64-5.09-1.33-7.56-2Z"/><path class="cls-6" d="M80.64,163c.88-1.1,1.69-2.08,2.42-3,2.45.68,5,1.4,7.74,2.08-.61.88-1.32,1.86-2.16,3-2.7-.67-5.38-1.39-8-2.09Z"/><path class="cls-6" d="M77.25,167.37c.7-.93,1.47-1.92,2.31-3,2.52.69,5.14,1.44,8,2.14-.6.76-1.25,1.56-2,2.42l-.41.48c-2.68-.66-5.32-1.37-7.91-2Z"/><path class="cls-6" d="M74,171.73c.66-.93,1.38-1.93,2.2-3,2.44.68,5,1.41,7.73,2.09-.91,1-1.75,2-2.55,2.85-2.49-.61-5-1.26-7.38-1.91Z"/><path class="cls-6" d="M71,176.18c.64-1,1.31-2,2.07-3.05,2.24.62,4.57,1.28,7.06,1.92-1,1-1.91,1.95-2.76,2.79-2.15-.54-4.28-1.1-6.37-1.66Z"/><path class="cls-6" d="M68,180.64c.71-1,1.38-2,2.08-3,1.88.53,3.83,1.07,5.89,1.6-1,1-2,1.87-3,2.76-1.69-.43-3.37-.87-5-1.31Z"/><path class="cls-6" d="M88,154.53c2.16.57,4.35,1.15,6.57,1.71a14,14,0,0,1,2.45-2.87c-2.23-.58-4.34-1.18-6.36-1.75C89.93,152.57,89.1,153.42,88,154.53Z"/><path class="cls-4" d="M66.23,186.73a1.8,1.8,0,1,1,2.87,2.17L69,189a1.71,1.71,0,0,1-1.11.64,1.48,1.48,0,0,0,.85-1.91,1.47,1.47,0,0,0-1.91-.85,1.49,1.49,0,0,0-.64.47,1.46,1.46,0,0,0-.33,1,1.82,1.82,0,0,1,.34-1.59Z"/><path class="cls-3" d="M98.36,142.18l95.1-122.06c3.79-4.86,13.12,0,8.4,5.72L103.18,146.1l-4.85-3.92Z"/><path class="cls-7" d="M99.54,142.47,193,21.86c2.62-3.39,6-1.66,3.69,1.31C164.73,63.55,107.73,136,99.54,142.47Z"/><path class="cls-3" d="M98.37,143.34l8.75,7.07c3,2.38.61,3-2.4.66-4.52-3.44-7.65-4.28-11.68-4.49C88.84,146.36,90.18,136.73,98.37,143.34Z"/><path class="cls-4" d="M98.27,143.8c2.83,2.28,5.48,4.53,8.48,6.85-2.7-1.47-5.3-3.77-7.9-5.73-4.67-3.51-7.18-1-7,1-1.73-2.12,0-7.23,6.39-2.07Z"/></g></g></svg>