<svg xmlns="http://www.w3.org/2000/svg" viewBox="0 0 269.35 247.47"><defs><style>.cls-1{fill:#cca9ff;stroke:#323232;stroke-width:3px;}.cls-1,.cls-12,.cls-4,.cls-7,.cls-8,.cls-9{stroke-miterlimit:10;}.cls-2{fill:#c1392b;}.cls-3{fill:#107865;}.cls-10,.cls-4{fill:#1fa4b2;}.cls-4,.cls-7,.cls-8,.cls-9{stroke:#106266;}.cls-4,.cls-7,.cls-8{stroke-width:0.75px;}.cls-5{fill:#187777;}.cls-6,.cls-9{fill:#1b959b;}.cls-7{fill:#106666;}.cls-8{fill:#158d93;}.cls-11{fill:#0d3a39;}.cls-12{fill:#36c7ce;stroke:#259e9b;stroke-width:0.5px;}.cls-13{fill:#22c4c4;}</style></defs><title>SB_26_ICON_water_can</title><g id="Layer_2" data-name="Layer 2"><g id="Layer_1-2" data-name="Layer 1"><rect class="cls-1" x="1.5" y="1.5" width="266.35" height="244.47" rx="8.77"/><path class="cls-2" d="M199,36.26l.38.42h0l-.3-.44Z"/><path d="M141.05,83a.27.27,0,0,1-.09-.12.64.64,0,0,0,.1.13Z"/><path class="cls-3" d="M135.55,135q-.59-.68-1.53-1.65Z"/><path class="cls-2" d="M234.65,90.17v.57h0a2.5,2.5,0,0,1,.11-.53Z"/><path d="M160.63,82.24a.38.38,0,0,1,0-.15v.16Z"/><path class="cls-4" d="M210.29,193.07c-1.66-2.76-.06-6-.06-6l-44.4-.17-55.24-1.38s.86,3.67-.25,6c0,0,0,11.07,64.65,12.07C206.18,204.08,210.29,193.07,210.29,193.07Z"/><path class="cls-5" d="M160.18,200.57c-26.1-.4-47.42-4.37-49.85-9l-.4,9.67c-.21,5.09,22.22,9.59,50.08,10s50.42-3.37,50.37-8.46l-.1-9.68C207.71,197.67,186.28,201,160.18,200.57Z"/><path class="cls-4" d="M110.59,185.5c3,4.57,24.06,8.41,49.69,8.81s46.77-2.78,50-7.26l-.92-102.58S171.58,78.21,158.85,78c-34.66-.54-44.11,5-44.11,5Z"/><path class="cls-6" d="M110.82,185.51c3,4.57,23.83,8.4,49.46,8.8s46.77-2.78,50-7.26l-.16-12.32A228.62,228.62,0,0,1,180,176.1c-28.86-.45-49.09-24-48-50.13l.55-13.82.11-2.56c.94-16.07,29.3-17.1,29.3-17.1l-47-9.4Z"/><path class="cls-7" d="M124.33,83.15c0,2.48,7.18,4.6,16.12,4.74s16.23-1.76,16.27-4.23-7.18-4.6-16.13-4.74S124.37,80.73,124.33,83.15Z"/><path class="cls-8" d="M114.69,83c-.07,4.81,21,9,47.18,9.44s47.37-3.16,47.44-8-21-9-47.17-9.44S114.77,78.2,114.69,83Zm9.64.15c0-2.47,7.32-4.37,16.26-4.23s16.17,2.26,16.13,4.74S149.4,88,140.45,87.89,124.29,85.63,124.33,83.15Z"/><path class="cls-9" d="M112.64,134.2l-1.27,31.7L52.18,92.54a3.88,3.88,0,0,0,.31-.26L63.3,82.81Z"/><polygon class="cls-10" points="65.38 94.38 106.35 138.17 106.51 127.82 67.54 87.28 65.38 94.38"/><path class="cls-11" d="M124.33,83.15a1.15,1.15,0,0,0,0,.37c3-1.1,7.77-1.76,13.2-1.68C146,82,153,83.9,153.61,86.22c1.91-.71,3-1.59,3.06-2.56,0-2.48-7.18-4.6-16.13-4.74S124.37,80.73,124.33,83.15Z"/><path class="cls-3" d="M132.46,112.1c0-.51.07-1.16.08-1.94Z"/><path class="cls-4" d="M17.68,94.12l1.77,1.37a17.36,17.36,0,0,0,6,3,29.38,29.38,0,0,0,27.17-6.23l11.56-10.1a29.41,29.41,0,0,0,10-21.64,31.6,31.6,0,0,0-.13-3.23l-.27-1.38a17.63,17.63,0,0,0-3.6-7.64h0Z"/><path class="cls-6" d="M17.68,94.12l1.77,1.37a17.36,17.36,0,0,0,6,3,29.38,29.38,0,0,0,27.17-6.23l11.56-10.1a29.21,29.21,0,0,0,6.29-7.79L59.84,82a29.41,29.41,0,0,1-27.66,3.56,16.81,16.81,0,0,1-3-1.5Z"/><path class="cls-12" d="M17.68,94.12C21,97.85,35.4,90.6,49.9,77.94S73.5,52,70.18,48.27,52.46,51.79,38,64.45,14.38,90.39,17.68,94.12ZM32.53,76.93a16,16,0,0,1-5.08,4.43c-1.72.86-2.24.28-1.15-1.31a16,16,0,0,1,5.08-4.43C33.1,74.73,33.61,75.34,32.53,76.93ZM41,67.82c-2,1.73-4,2.72-4.41,2.21s.8-2.33,2.78-4.06,4-2.72,4.4-2.21S42.94,66.09,41,67.82ZM61.51,57.5c-2,1.73-4,2.72-4.41,2.21s.8-2.32,2.78-4,4-2.73,4.41-2.22-.8,2.24-2.78,4Zm-6.15,8a15.92,15.92,0,0,1,5.08-4.44c1.72-.86,2.24-.28,1.15,1.31a16,16,0,0,1-5.08,4.36c-1.72.9-2.24.32-1.15-1.26Zm-4.18-4.77c-1.72.87-2.24.28-1.16-1.3A16,16,0,0,1,55.1,55c1.72-.87,2.24-.28,1.16,1.3A16,16,0,0,1,51.18,60.73ZM47,74.63c2-1.74,4-2.73,4.4-2.22s-.79,2.33-2.77,4.06-4,2.72-4.41,2.21.75-2.37,2.74-4.1Zm-3.79-4.36c2-1.73,4-2.72,4.41-2.21s-.8,2.33-2.78,4.06-4,2.72-4.41,2.21S41.18,72,43.18,70.27ZM31.67,86.14a15.82,15.82,0,0,1,5.08-4.41c1.72-.87,2.24-.29,1.15,1.3a15.66,15.66,0,0,1-5.08,4.43C31.1,88.31,30.59,87.73,31.67,86.14Zm-5.29-1.25c2-1.73,4-2.72,4.4-2.21S30,85,28,86.74,24,89.46,23.6,89,24.4,86.62,26.38,84.89Z"/><path class="cls-3" d="M51.18,60.73a15.9,15.9,0,0,0,5-4.48c1.08-1.58.56-2.17-1.16-1.3a16,16,0,0,0-5.08,4.43C48.9,61,49.42,61.55,51.18,60.73Z"/><path class="cls-3" d="M56.51,66.73a16,16,0,0,0,5.08-4.43c1.09-1.59.57-2.17-1.15-1.31a15.92,15.92,0,0,0-5.08,4.44C54.27,67.05,54.79,67.63,56.51,66.73Z"/><path class="cls-3" d="M57.1,59.73c.45.51,2.42-.48,4.41-2.21s3.22-3.55,2.78-4.06-2.43.48-4.41,2.22S56.65,59.2,57.1,59.73Z"/><path class="cls-3" d="M27.45,81.36a16,16,0,0,0,5.08-4.43c1.08-1.59.57-2.17-1.15-1.31a16,16,0,0,0-5.08,4.43C25.18,81.64,25.73,82.22,27.45,81.36Z"/><path class="cls-3" d="M23.6,89c.45.51,2.43-.48,4.41-2.21s3.22-3.55,2.77-4.06-2.42.48-4.4,2.21S23.18,88.44,23.6,89Z"/><path class="cls-3" d="M32.82,87.44A15.66,15.66,0,0,0,37.9,83c1.09-1.59.57-2.17-1.15-1.3a16,16,0,0,0-5.08,4.43C30.59,87.73,31.1,88.31,32.82,87.44Z"/><path class="cls-3" d="M44.18,78.63c.45.51,2.43-.48,4.41-2.21s3.22-3.55,2.77-4.06-2.42.48-4.4,2.22S43.7,78.12,44.18,78.63Z"/><path class="cls-3" d="M40.35,74.33c.45.51,2.43-.48,4.41-2.21s3.22-3.55,2.78-4.06-2.43.48-4.41,2.21S39.9,73.82,40.35,74.33Z"/><path class="cls-3" d="M36.55,70c.45.51,2.42-.48,4.41-2.21s3.22-3.55,2.77-4.09-2.42.48-4.4,2.21S36.1,69.52,36.55,70Z"/><path class="cls-4" d="M252.35,89.05a75.16,75.16,0,0,1-9.77,35.88l-32.4,57-.32-36.6,17.32-29.12a57.5,57.5,0,0,0,7.48-27.43,28.4,28.4,0,0,0-56.2-6.22v.14c-.38,1.2-4.24,2.1-8.93,2-4.91-.07-8.89-1.18-8.9-2.47h0v-.15a45.75,45.75,0,0,1,13.55-26.82C203.44,26.94,253,47.89,252.35,89.05Z"/><path class="cls-6" d="M210.23,148.73l.11,32.61,32.58-57c5.93-10.45,9-25.11,9.44-37.11l-1.85,12.12c-1.78,11.74-4.45,14.09-11.39,23.74L215,156Z"/><path class="cls-6" d="M160.76,82.25c0,1.29,3.86,2.4,8.77,2.47,4.69.08,8.36-.86,8.74-2.07v-.13a28.57,28.57,0,0,1,45.5-16.79c-4.3-9.74-17-11-17-11a33.58,33.58,0,0,0-32.83,24.48s-7.89,1.6-11.67-4.13C161.74,77.17,160.76,82.25,160.76,82.25Z"/><ellipse class="cls-13" cx="204.88" cy="130.5" rx="1.61" ry="35.4"/><path class="cls-13" d="M188.18,48.27s52.41-14,59.71,41.9C247.91,90.17,249.92,33.53,188.18,48.27Z"/></g></g></svg>