<svg id="Layer_1" data-name="Layer 1" xmlns="http://www.w3.org/2000/svg" width="302" height="512" viewBox="0 0 302 512">
  <defs>
    <style>
      .cls-1 {
        fill: #d30716;
      }
    </style>
  </defs>
  <path class="cls-1" d="M277.58,118.71H24.42A21.68,21.68,0,0,0,2.76,140.37V371.63a21.68,21.68,0,0,0,21.66,21.66H277.58a21.68,21.68,0,0,0,21.66-21.66V140.37A21.68,21.68,0,0,0,277.58,118.71Zm6.6,252.92a6.6,6.6,0,0,1-6.6,6.6H24.42a6.6,6.6,0,0,1-6.6-6.6V140.37a6.6,6.6,0,0,1,6.6-6.6H277.58a6.6,6.6,0,0,1,6.6,6.6Z"/>
</svg>
