<svg xmlns="http://www.w3.org/2000/svg" xmlns:xlink="http://www.w3.org/1999/xlink" width="475" height="512" viewBox="0 0 475 512">
  <defs>
    <style>
      .cls-1 {
        fill: none;
      }

      .cls-2 {
        isolation: isolate;
      }

      .cls-3 {
        fill: #32223f;
      }

      .cls-4 {
        fill: #9edbd5;
        stroke: #6f31f7;
        stroke-width: 9px;
      }

      .cls-10, .cls-11, .cls-16, .cls-17, .cls-18, .cls-23, .cls-27, .cls-28, .cls-29, .cls-4, .cls-6, .cls-7 {
        stroke-miterlimit: 10;
      }

      .cls-5 {
        clip-path: url(#clip-path);
      }

      .cls-16, .cls-17, .cls-18, .cls-6 {
        fill: #f2ab88;
      }

      .cls-6 {
        stroke: #2d2b2a;
      }

      .cls-16, .cls-17, .cls-18, .cls-23, .cls-27, .cls-28, .cls-29, .cls-6 {
        stroke-width: 0.25px;
      }

      .cls-7, .cls-9 {
        fill: #6690c4;
      }

      .cls-10, .cls-11, .cls-7 {
        stroke: #0e1c3f;
        stroke-width: 0.5px;
      }

      .cls-8 {
        fill: #325377;
      }

      .cls-28, .cls-29, .cls-9 {
        mix-blend-mode: multiply;
      }

      .cls-9 {
        opacity: 0.2;
      }

      .cls-10, .cls-15 {
        fill: #4572a3;
      }

      .cls-11, .cls-13 {
        fill: #8bade0;
      }

      .cls-12 {
        fill: #799cd1;
      }

      .cls-14 {
        fill: #d5e7fa;
      }

      .cls-16 {
        stroke: #ce7959;
      }

      .cls-17 {
        stroke: #424141;
      }

      .cls-18 {
        stroke: #3a3938;
      }

      .cls-19 {
        fill: url(#radial-gradient);
      }

      .cls-20 {
        fill: url(#radial-gradient-2);
      }

      .cls-21 {
        fill: #ce7959;
      }

      .cls-22, .cls-27 {
        fill: #1e1d1d;
      }

      .cls-23, .cls-26 {
        fill: #fdfaee;
      }

      .cls-23 {
        stroke: #3d0414;
      }

      .cls-24 {
        fill: #633837;
      }

      .cls-25 {
        fill: #321413;
      }

      .cls-27, .cls-28, .cls-29 {
        stroke: #211f1e;
      }

      .cls-28, .cls-29 {
        fill: #995235;
      }

      .cls-28 {
        opacity: 0.5;
      }

      .cls-29 {
        opacity: 0.35;
      }

      .cls-30 {
        fill: #2c435b;
      }

      .cls-31 {
        fill: #3f5f7a;
      }

      .cls-32 {
        fill: #f4c812;
      }

      .cls-33 {
        fill: #fdc400;
      }
    </style>
    <clipPath id="clip-path">
      <path class="cls-1" d="M304.14,38.3H170.86A93.79,93.79,0,0,0,89.64,85.19L23,200.61a93.74,93.74,0,0,0,0,93.78L89.64,409.81a93.79,93.79,0,0,0,81.22,46.89H304.14a93.79,93.79,0,0,0,81.22-46.89L452,294.39a93.74,93.74,0,0,0,0-93.78L385.36,85.19A93.79,93.79,0,0,0,304.14,38.3Z"/>
    </clipPath>
    <radialGradient id="radial-gradient" cx="-164.25" cy="162.68" r="10.21" gradientTransform="translate(462.38 25.42) scale(1.21 1.09)" gradientUnits="userSpaceOnUse">
      <stop offset="0" stop-color="#f29788"/>
      <stop offset="0.61" stop-color="#f2a388"/>
      <stop offset="0.92" stop-color="#f2ab88"/>
    </radialGradient>
    <radialGradient id="radial-gradient-2" cx="-4001.05" cy="162.68" r="10.21" gradientTransform="matrix(-1.21, 0, 0, 1.09, -4654.98, 25.42)" xlink:href="#radial-gradient"/>
  </defs>
  <g class="cls-2">
    <g id="Layer_1" data-name="Layer 1">
      <g>
        <g>
          <path class="cls-3" d="M306.76,50.75H168.24A93.78,93.78,0,0,0,87,97.65l-69.26,120a93.79,93.79,0,0,0,0,93.78L87,431.35a93.78,93.78,0,0,0,81.22,46.9H306.76A93.78,93.78,0,0,0,388,431.35l69.26-120a93.79,93.79,0,0,0,0-93.78L388,97.65A93.78,93.78,0,0,0,306.76,50.75Z"/>
          <path class="cls-4" d="M306.76,33.75H168.24A93.78,93.78,0,0,0,87,80.65l-69.26,120a93.79,93.79,0,0,0,0,93.78L87,414.35a93.78,93.78,0,0,0,81.22,46.9H306.76A93.78,93.78,0,0,0,388,414.35l69.26-120a93.79,93.79,0,0,0,0-93.78L388,80.65A93.78,93.78,0,0,0,306.76,33.75Z"/>
        </g>
        <g class="cls-5">
          <g>
            <path class="cls-6" d="M172.07,372.05c5.38-38.69,6.81-81.8-15.16-75"/>
            <path class="cls-6" d="M156.91,297c-18.27,5.63-39.11,15.83-41.81,65.86-.76,14.09-3.47,30.79-6.59,47.54-4.84,26-10.68,52.05-11.82,68.59-1.42,20.62,39.36,19.69,41.55,3.64.72-5.26,10.56-28.92,18.11-55.32,2.15-7.53,4.12-15.29,5.64-22.9,0,0,9.24-26.41,10.08-32.38"/>
            <path id="hand" class="cls-6" d="M348.49,327.86C338.43,303.07,318.12,297,318.12,297c-13.26,22.05-3.43,47.23-16.63,79.79,0,0,59.4,63.35,63.54,74.74s45.76,11.61,45.76-8.74C410.79,424.53,365.75,370.39,348.49,327.86Z"/>
            <path id="hand-2" data-name="hand" class="cls-7" d="M349.81,323.31c-13.64-23-31.69-26.28-31.69-26.28-13.26,22.05-3.43,47.23-16.63,79.79,0,0,21.51,34.53,40.41,58.71,8.91,11.4,57.25-25.81,50.57-36.14C376.75,375.08,361.46,343,349.81,323.31Z"/>
            <g id="hand-3" data-name="hand">
              <path class="cls-6" d="M96.69,479c-1.42,20.62,3.65,121.43,3.65,121.43s19.07,11.5,21.14,1c2.9-14.76,17.36-80.24,16.76-118.8"/>
            </g>
            <g id="body">
              <path class="cls-8" d="M261.46,265.31c-3.58-5.61-54.24-3.47-56.95-1.46s-2,13.53-2,13.53v27.17l62.33-5.8.24-22.92A22.11,22.11,0,0,0,261.46,265.31Z"/>
              <path id="body-2" data-name="body" class="cls-6" d="M271.24,288.89c-6.39-2.74-14.47-3.73-14.61-29-.07-12.18,2.78-42.92,1.8-47l-44.15-5.14c1.4,3.86-1.21,55.36-5.23,69.14C207,284,175,292,158.11,308.26c-14.05,13.53,1.65,100,9.85,142.09,3.67,18.82.45,62.34.45,62.34,49.18,14.35,111.9,10.1,132.78-9.21,0,0-.83-39,.2-56.72"/>
              <path class="cls-9" d="M359.64,433.14c-18.9-25-40.41-60.75-40.41-60.75,8.77-22.36-1-47.25-4.6-68.13-7.88,20.33-1.35,43.5-13.14,72.56,0,0,21.51,34.53,40.41,58.71,2.93,3.75,10.14,2.22,18.25-1.87A5,5,0,0,1,359.64,433.14Z"/>
              <path class="cls-7" d="M318.12,297,263,283.14c-8.6,8.86-29.31,40.17-29.31,40.17S210.2,290,195.89,283.14c0,0-36.49,11.4-46.61,17.42s6.11,82.75,6.11,82.75,9.48,90.29,1.2,127.76c-1,4.54,3.19,8.43,10,12.91,11.19,7.4,32.23,12.23,66.41,13.47,40.28,1.46,57.74-3.28,70.74-10,4-2,8.48-8.86,7.6-13.28-7.27-36.69,9.13-124.76,9.13-124.76"/>
              <path class="cls-9" d="M321.07,383.71s-26.79,60.93-28.61,100.74c-.26,5.69-23.93,10.69-68.32,13.6-4.48.29,28.53,10,61.8,9.3,14.61-.3-18.35,19.58-70.93,15.86-27.2-1.93-46.12-4.27-58.33-9.3.87,3.39,4.56,6.55,9.88,10.07,11.19,7.4,32.23,12.23,66.41,13.47,40.28,1.46,57.74-3.28,70.74-10,4-2,8.48-8.86,7.6-13.28-7.27-36.69,9.13-124.76,9.13-124.76S320.69,387.32,321.07,383.71Z"/>
              <g>
                <path class="cls-10" d="M244.78,285.16c-2.91,0-11.05,38.15-11.05,38.15s14.35-17.24,17.57-23.7l13.76,6.46-3-33.81a1.84,1.84,0,0,0-3.47-.7C255.6,277.37,250.51,285.13,244.78,285.16Z"/>
                <path class="cls-10" d="M222.22,285.16c2.85,0,11.51,38.15,11.51,38.15s-13.95-14.79-18-22.75l-14.9,5.51,5.14-38.46S211.4,285.12,222.22,285.16Z"/>
                <path class="cls-11" d="M244.78,285.16l20.28,20.91s9.62-17.26,8.27-23.11c-.74-3.24-11.87-17.65-11.87-17.65S255,279.3,244.78,285.16Z"/>
                <path class="cls-11" d="M222.47,285.88,201,306.8s-10.73-14.59-10.6-21.11c.07-3.32,14.32-21.11,14.32-21.11S211.9,280,222.47,285.88Z"/>
              </g>
              <g>
                <path class="cls-12" d="M298.16,423H271.92a5,5,0,0,1-3.57-1.48L262,415.21a5,5,0,0,1-1.48-3.57V367.45h49v44.19a5.08,5.08,0,0,1-1.48,3.57l-6.36,6.35A5,5,0,0,1,298.16,423Z"/>
                <path class="cls-13" d="M298.86,388.39H271.21a5.34,5.34,0,0,1-3.75-1.55l-6.7-6.7a5.31,5.31,0,0,1-1.55-3.75V365.12h51.66v11.27a5.27,5.27,0,0,1-1.56,3.75l-6.69,6.7A5.35,5.35,0,0,1,298.86,388.39Z"/>
                <path class="cls-12" d="M288.84,380.32a3.32,3.32,0,1,1-3.32-3.31A3.32,3.32,0,0,1,288.84,380.32Z"/>
                <path class="cls-14" d="M287.86,379.84A2.83,2.83,0,1,1,285,377,2.82,2.82,0,0,1,287.86,379.84Z"/>
              </g>
              <g>
                <path class="cls-12" d="M203.56,423H177.32a5,5,0,0,1-3.57-1.48l-6.35-6.35a5,5,0,0,1-1.48-3.57V367.45h49v44.19a5,5,0,0,1-1.48,3.57l-6.35,6.35A5,5,0,0,1,203.56,423Z"/>
                <path class="cls-13" d="M204.26,388.39H176.62a5.35,5.35,0,0,1-3.76-1.55l-6.69-6.7a5.27,5.27,0,0,1-1.56-3.75V365.12h51.66v11.27a5.27,5.27,0,0,1-1.56,3.75l-6.69,6.7A5.35,5.35,0,0,1,204.26,388.39Z"/>
                <circle class="cls-12" cx="190.93" cy="380.32" r="3.32"/>
                <circle class="cls-14" cx="190.44" cy="379.84" r="2.83"/>
                <path class="cls-15" d="M233.73,316.62v3.61h2l-.28,13.16c-.08,4.38-.25,8.77-.22,13.16l-.1,26.31L235,425.5l-.18,52.63-.05,13.16c-.06,4.39,0,8.77-.08,13.16-.56,8.77-1,17.54-1.68,26.31-.62-8.78-1-17.55-1.5-26.32-.09-4.39.05-8.78,0-13.16l0-13.16.19-52.63.18-52.63.1-26.32c.05-4.38-.09-8.77-.13-13.15l-.19-13.16h2Z"/>
              </g>
            </g>
            <g>
              <path class="cls-7" d="M156.91,297c-18.27,5.63-40.7,15.73-44.76,65.67-1.3,16.07-7.34,41.67-9.82,58.53C99.64,439.6,155.94,448.36,157,438c.77-7.8.26-13.22,1.78-20.83,0,0,.15-25.23-1.25-49.83"/>
              <path id="shade" class="cls-9" d="M155.12,344.42c-2.51,17.22-3.6,16.89-6.39,39.29-.83,6.68-4.87,20.42-4.87,20.42-1.52,8.52-4.27,28.86-5,37.58,0,.14-.07.26-.09.4,9.8.95,17.84-.25,18.22-4.1.77-7.8.27-23.62,1.78-31.23,0,0-.79-32.35-1.25-38.36C156.68,358.07,155.11,359.56,155.12,344.42Z"/>
            </g>
            <g id="hand-4" data-name="hand">
              <path class="cls-6" d="M365,444.35c-11.15,11.22-23.81,63.38-34.3,78.56l13.9,21S382.75,496.6,396,479.39c10-13.08,17.68-35,13.57-43"/>
            </g>
            <g id="head">
              <g id="ears">
                <g>
                  <path class="cls-6" d="M164.68,185.3c7.6-10.77,24.83,6.77,24.83,6.77s10.7,13.07-1.76,28.87c-6.23,7.9-13.42,1.92-18.24-7.47S159.26,193,164.68,185.3Z"/>
                  <path class="cls-16" d="M175.61,214.56c1.67,1.77,3.81,3.2,6.34,2.72a2.63,2.63,0,0,0,1.75-2.78c-.72-2.34-7.84-6.5-6.07-13s-6.2-12.89-8.69-9.27C167,195,169.34,207.91,175.61,214.56Z"/>
                </g>
                <g>
                  <path class="cls-17" d="M299.92,185.3c-7.6-10.77-24.83,6.77-24.83,6.77s-10.7,13.07,1.76,28.87c6.23,7.9,13.42,1.92,18.24-7.47S305.34,193,299.92,185.3Z"/>
                  <path class="cls-18" d="M289,214.56c-1.67,1.77-3.81,3.2-6.33,2.72a2.62,2.62,0,0,1-1.76-2.78c.72-2.34,7.84-6.5,6.07-13s6.2-12.89,8.7-9.27C297.61,195,295.26,207.91,289,214.56Z"/>
                </g>
              </g>
              <path class="cls-19" d="M276.29,202c0,5.65-6,10.23-13.29,10.23s-13.28-4.58-13.28-10.23,5.95-10.23,13.28-10.23S276.29,196.32,276.29,202Z"/>
              <path class="cls-20" d="M188.38,202c0,5.65,6,10.23,13.28,10.23S215,207.62,215,202s-5.95-10.23-13.29-10.23S188.38,196.32,188.38,202Z"/>
              <path id="face" class="cls-6" d="M288.56,134.23c-1.51-8.81-7.27-16.25-14.56-22.34a64.08,64.08,0,0,0-83.07,0c-7.29,6.09-13.05,13.53-14.55,22.34,0,0-3.57,69.23,12.94,95.78,12.79,20.56,28.9,31.71,43.15,31.71s30.35-11.15,43.14-31.71C292.13,203.46,288.56,134.23,288.56,134.23Z"/>
              <g id="nose">
                <path class="cls-21" d="M230.49,214.48a13.29,13.29,0,0,1-4.91-.95c-2.62-1.09-4.26-2.87-4.61-5-.5-3,8.64-44.89,8.6-45.07a1.21,1.21,0,0,1,.92-1.41,1.15,1.15,0,0,1,1.35,1c.14.77-8.92,43.1-8.59,45.11.2,1.26,1.36,2.42,3.18,3.17,2.8,1.16,6.31,1,8-.31a1.13,1.13,0,0,1,1.62.23,1.25,1.25,0,0,1-.22,1.7A8.55,8.55,0,0,1,230.49,214.48Z"/>
              </g>
              <g id="eyebros">
                <path class="cls-22" d="M243,144s16.22-1,20.13.72,12.25,8.7,11.72,11.33-13.56-3.55-15.15-3.24-17,1.12-18.21-1.15C240.1,149.09,240.3,144.06,243,144Z"/>
                <path class="cls-22" d="M221,144.44s-16.2-1.57-20.14,0-12.42,8.26-12,10.91,13.62-3.07,15.21-2.7,17,1.71,18.23-.51C223.79,149.59,223.7,144.56,221,144.44Z"/>
              </g>
              <g id="eye_2" data-name="eye 2">
                <path class="cls-23" d="M267.09,178.84A11.94,11.94,0,1,1,255.15,167,11.87,11.87,0,0,1,267.09,178.84Z"/>
              </g>
              <g id="eyeball2">
                <g>
                  <path class="cls-24" d="M262.15,179.46a7,7,0,1,1-7-7.23A7.11,7.11,0,0,1,262.15,179.46Z"/>
                  <path class="cls-25" d="M259.41,179.46a4.26,4.26,0,1,1-4.26-4.39A4.32,4.32,0,0,1,259.41,179.46Z"/>
                </g>
                <ellipse class="cls-26" cx="257.77" cy="177.73" rx="1.37" ry="1.44"/>
              </g>
              <g id="eye1">
                <path class="cls-23" d="M196.7,178.84A11.94,11.94,0,1,0,208.64,167,11.88,11.88,0,0,0,196.7,178.84Z"/>
              </g>
              <g id="eyeball1">
                <g>
                  <path class="cls-24" d="M201.64,179.46a7,7,0,1,0,7-7.23A7.11,7.11,0,0,0,201.64,179.46Z"/>
                  <path class="cls-25" d="M204.39,179.46a4.25,4.25,0,1,0,4.25-4.39A4.31,4.31,0,0,0,204.39,179.46Z"/>
                </g>
                <path class="cls-26" d="M213.13,177.73a1.37,1.37,0,1,1-1.37-1.44A1.4,1.4,0,0,1,213.13,177.73Z"/>
              </g>
              <path id="mouth" class="cls-21" d="M255.83,218.17c-1.29-.13-1.79-1.88-1.81-1.92a1.14,1.14,0,0,0-1.41-.84,1.2,1.2,0,0,0-.81,1.48,6,6,0,0,0,.63,1.49c-20.14,16.64-39.81,2.25-42.78-.13a5.45,5.45,0,0,0,.56-1.36,1.21,1.21,0,0,0-.81-1.48,1.15,1.15,0,0,0-1.42.84s-.5,1.79-1.8,1.92a1.2,1.2,0,0,0-1.05,1.32,1.18,1.18,0,0,0,1.15,1.09h.11A3.78,3.78,0,0,0,208,220c1.53,1.22,11.33,8.6,24,8.6,6.81,0,14.45-2.14,22.06-8.51a3.88,3.88,0,0,0,1.53.49h.11a1.18,1.18,0,0,0,1.15-1.09A1.2,1.2,0,0,0,255.83,218.17Z"/>
              <g id="hairs">
                <path class="cls-27" d="M182.05,189.85c-1.82-30.28,1.29-52.78,3-55.46a67.42,67.42,0,0,0,19.23-26.73s23.81,12.08,61.5,7.25c0,0,7,10.32,13.35,20.93,3.07,5.14,4.4,34.73,3.54,53.92a9.69,9.69,0,0,0,2.89,7.44l1.24,1.18c4.64-9.83,9.24-51.26,6.89-64.95-6.63-38.6-33.32-42.68-59.89-42.68a72.86,72.86,0,0,0-32,7.66c-2-.63-5.14-1.38-5.09-1.81-14.21,1-21.48,22.11-25.68,36.83-4.25,14.89,2.25,55.12,6.9,64.95l0,0A9.44,9.44,0,0,0,182.05,189.85Z"/>
                <path class="cls-27" d="M294.86,89.19c0,13.56-21.29,7.85-49.12-8.56-27.28-16.09-40.83-2.13-46.34,7.13a60.46,60.46,0,0,1,6.39-18.55c-14.14,7-13.19,19-11.31,25.65-5-1.06-12.56-1.33-18.43,4.14,0,0,14.41-2.36,19.72,2.4.69.62,2.92,1.7,3.18,1.95,14.92,17.17,29.66,25.51,60.38,23.19,17-1.29,22.63-3.35,30.7-12.37C299.6,103.46,294.86,89.19,294.86,89.19Z"/>
                <path class="cls-28" d="M259.33,126.54c16-1.21,21.94-3.12,29.32-10.88-11,1-23.37-3.88-31.87-11.86-.28,4.43,1.84,10.34,7.48,17.13-13.55-2.36-25.6-6.79-36.9-16.24,2.26,4.72,4.57,12.55,6.83,14.91-7,0-25.67-8.54-29.87-10.5C217.62,122.33,232.28,128.59,259.33,126.54Z"/>
                <path class="cls-27" d="M282.74,167.35c.21,7.75.19,15.7-.11,22.41a9.69,9.69,0,0,0,2.89,7.44l1.24,1.18c2.61-5.53,5.2-21.06,6.56-36A32.13,32.13,0,0,1,282.74,167.35Z"/>
                <path class="cls-29" d="M181.56,166.76a36.53,36.53,0,0,1-10.83-2.11c1.6,14.26,4.64,28.42,7.15,33.73l0,0a9.44,9.44,0,0,0,4.13-8.5C181.54,181.44,181.43,173.69,181.56,166.76Z"/>
              </g>
              <path class="cls-30" d="M302.39,117.16c0,11.72-3.4,27.41-68.8,27.41s-68.78-15.69-68.78-27.41S195.6,96,233.59,96,302.39,105.46,302.39,117.16Z"/>
              <path class="cls-30" d="M290.43,77.12a40.27,40.27,0,0,0-14.54-8.56L242,58.63a35.43,35.43,0,0,0-16.88,0L191.3,68.56a40.48,40.48,0,0,0-14.55,8.56L165.09,88.74a8.87,8.87,0,0,0-.15,12.32l4.19,4.39c3.27,3.43,9.92,6.06,14.77,5.86l40.88-1.74c4.85-.2,12.79-.2,17.64,0l40.87,1.74c4.85.2,11.5-2.43,14.77-5.86l4.19-4.39a8.87,8.87,0,0,0-.16-12.32Z"/>
              <path class="cls-31" d="M307,114.56c3.1,3,1.67,5.55-3.18,5.55H163.42c-4.86,0-6.29-2.5-3.19-5.55l4.66-4.6c3.11-3,9.62-5.55,14.48-5.55H287.83c4.85,0,11.36,2.5,14.46,5.55Z"/>
              <path class="cls-32" d="M225.38,100.54c-2.83,0-5.86-1.8-6.74-4l-5.07-12.76c-.88-2.21.29-5.13,2.58-6.49l13.28-7.89a9,9,0,0,1,8.33,0l13.29,7.89c2.29,1.36,3.45,4.28,2.57,6.49l-5.07,12.76c-.87,2.2-3.91,4-6.75,4Z"/>
              <path class="cls-33" d="M226.91,97.58c-2.33,0-4.79-1.47-5.51-3.27L217.27,83.9a4.57,4.57,0,0,1,2.09-5.29l10.83-6.43a7.36,7.36,0,0,1,6.8,0l10.83,6.43a4.58,4.58,0,0,1,2.11,5.29l-4.15,10.41c-.7,1.8-3.19,3.27-5.49,3.27Z"/>
            </g>
          </g>
        </g>
      </g>
    </g>
  </g>
</svg>
