<svg xmlns="http://www.w3.org/2000/svg" viewBox="0 0 130 130"><defs><style>.a{fill:#fff;}.b{fill:#f7de26;}.c{fill:#db9303;}.d{fill:#f4ba00;}.e{fill:#d8d8d8;}.f{fill:#fbfcfa;}</style></defs><circle class="a" cx="65" cy="65" r="65"/><circle class="b" cx="65" cy="65" r="58.23"/><circle class="c" cx="62.99" cy="67.01" r="56.22"/><circle class="d" cx="64.17" cy="65.83" r="55.04"/><path class="e" d="M66.13,38.72S94.83,58,94.83,64.89,75.11,89.39,66.18,93.23c-8.35,3.58-10.83-3.66-8.43-6.83C60.5,82.58,70.18,73.59,73.22,70c1-1.19,3.55-3.78.83-7.09S58.94,47.65,58.94,47.65s-4.58-4.58-1.54-8.39C60.77,35,66.13,38.72,66.13,38.72Z"/><path class="e" d="M47.83,47.53S65.08,59.36,65.08,65.9c-1.3,8-23,25.34-28.82,18.12-5.7-9.76,15.18-13.38,7.68-21.85-3.81-4-6.85-6.73-6.85-6.73s-4.21-4.07.35-7.91S47.83,47.53,47.83,47.53Z"/><path class="f" d="M66.13,37.33s28.7,19.21,28.7,26.13S75.11,88,66.18,91.81c-8.35,3.58-10.83-3.67-8.43-6.83,2.75-3.83,12.43-12.82,15.47-16.44,1-1.18,3.55-3.78.83-7.08S58.94,46.22,58.94,46.22s-4.58-4.58-1.54-8.38C60.77,33.55,66.13,37.33,66.13,37.33Z"/><path class="f" d="M47.83,46.1S65.08,57.94,65.08,64.48c-1.3,8-23,25.33-28.82,18.12-5.7-9.76,15.18-13.38,7.68-21.85-3.81-4-6.85-6.73-6.85-6.73s-4.21-4.08.35-7.92S47.83,46.1,47.83,46.1Z"/></svg>