<svg xmlns="http://www.w3.org/2000/svg" viewBox="0 0 130 130"><defs><style>.a{fill:#fff;}.b{fill:#f7de26;}.c{fill:#db9303;}.d{fill:#f4ba00;}.e{fill:#d8d8d8;}</style></defs><circle class="a" cx="65" cy="65" r="65"/><circle class="b" cx="65" cy="65" r="58.23"/><circle class="c" cx="62.99" cy="67.01" r="56.22"/><circle class="d" cx="64.17" cy="65.83" r="55.04"/><path class="e" d="M102.23,67c-.19,1.37-.32,2.75-.58,4.1A36,36,0,0,1,85.72,95.34a34.62,34.62,0,0,1-24.28,5.83c-14.2-1.84-24.2-9.52-29.91-22.63A34.53,34.53,0,0,1,29.1,60a36,36,0,0,1,4.42-13.3,5.16,5.16,0,0,1,7-2.14h0a5.07,5.07,0,0,1,2.18,6.82h0a30.84,30.84,0,0,0-3,8.15A26.46,26.46,0,0,0,57.53,89.84a24.58,24.58,0,0,0,12.53.84c10.32-2.06,17.33-8.11,20.61-18.08,2.57-7.84,1.34-15.38-3.12-22.35L87.36,50c-.53,1.19-1,2.34-1.57,3.49-1,2.31-2.56,2.65-4.46,1a7.92,7.92,0,0,1-1.18-1.34q-5.48-7.5-10.91-15a6.65,6.65,0,0,1-.8-1.36,2.76,2.76,0,0,1,2.18-4.08c2-.34,3.93-.51,5.9-.72,4.35-.47,8.69-.94,13-1.36a10.39,10.39,0,0,1,2.84,0,2.42,2.42,0,0,1,2.23,2.58,2.34,2.34,0,0,1-.23.86c-.58,1.58-1.31,3.12-2,4.66a.86.86,0,0,0,.15,1.12A36.47,36.47,0,0,1,101.9,59.7c.14.94.24,1.88.36,2.83Z"/><path class="a" d="M101.23,65c-.19,1.37-.32,2.75-.58,4.1A36,36,0,0,1,84.72,93.34a34.62,34.62,0,0,1-24.28,5.83c-14.2-1.84-24.2-9.52-29.91-22.63A34.53,34.53,0,0,1,28.1,58a36,36,0,0,1,4.42-13.3,5.16,5.16,0,0,1,7-2.14h0a5.07,5.07,0,0,1,2.18,6.82h0a30.84,30.84,0,0,0-3,8.15A26.46,26.46,0,0,0,56.53,87.84a24.58,24.58,0,0,0,12.53.84c10.32-2.06,17.33-8.11,20.61-18.08,2.57-7.84,1.34-15.38-3.12-22.35L86.36,48c-.53,1.19-1,2.34-1.57,3.49-1,2.31-2.56,2.65-4.46,1a7.92,7.92,0,0,1-1.18-1.34q-5.48-7.5-10.91-15a6.65,6.65,0,0,1-.8-1.36,2.76,2.76,0,0,1,2.18-4.08c2-.34,3.93-.51,5.9-.72,4.35-.47,8.69-.94,13-1.36a10.39,10.39,0,0,1,2.84,0,2.42,2.42,0,0,1,2.23,2.58,2.34,2.34,0,0,1-.23.86c-.58,1.58-1.31,3.12-2,4.66a.86.86,0,0,0,.15,1.12A36.47,36.47,0,0,1,100.9,57.7c.14.94.24,1.88.36,2.83Z"/></svg>