<svg id="Layer_1" data-name="Layer 1" xmlns="http://www.w3.org/2000/svg" width="128" height="128" viewBox="0 0 135 150">
  <defs>
    <style>
      .cls-1 {
        fill: #f9f20d;
      }
    </style>
  </defs>
  <path class="cls-1" d="M17.19,7.22a10.41,10.41,0,0,1,3.59.64,10.22,10.22,0,0,1,5.75,5.34l20,43.66,4.87,10.65L46.52,56.86a10.34,10.34,0,0,1,5-13.64,10.28,10.28,0,0,1,13.59,5.06l3.29,7.19,4.85,10.59L68.43,55.47a10.33,10.33,0,0,1,5-13.64,10.05,10.05,0,0,1,4.25-.94,10.31,10.31,0,0,1,9.34,6l4,8.7,4.11,9-4.11-9a10.05,10.05,0,0,1-.9-3.54,10.31,10.31,0,0,1,5.93-10.1,10,10,0,0,1,4.25-.94,10.13,10.13,0,0,1,3.58.65A10.24,10.24,0,0,1,109.65,47l14.2,31a45.78,45.78,0,0,1-22.36,60.64,45.36,45.36,0,0,1-50.15-8.16h0L11.62,97.21a10.34,10.34,0,0,1-1.3-14.49h0a10.24,10.24,0,0,1,14.43-1.3L37.22,91.87l4.5,3.78L7.91,21.79A10.34,10.34,0,0,1,13,8.15a10.15,10.15,0,0,1,4.24-.93m0-6h0A16.11,16.11,0,0,0,10.43,2.7a16.33,16.33,0,0,0-8,21.59L25.59,74.83a16.23,16.23,0,0,0-19.88,4L5.62,79a16.35,16.35,0,0,0,2.14,22.82L47.35,135a51.62,51.62,0,0,0,82-59.46l-14.21-31A16.15,16.15,0,0,0,106,36a16.38,16.38,0,0,0-5.67-1,15.94,15.94,0,0,0-6.76,1.49,16.18,16.18,0,0,0-4.45,3,16.44,16.44,0,0,0-11.39-4.64,16.26,16.26,0,0,0-11.69,5,16.54,16.54,0,0,0-4.54-2.58,16.25,16.25,0,0,0-5.68-1,16.25,16.25,0,0,0-10.37,3.77L32,10.7a16.28,16.28,0,0,0-14.8-9.48Z"/>
</svg>
