<svg xmlns="http://www.w3.org/2000/svg" xmlns:xlink="http://www.w3.org/1999/xlink" width="475" height="512" viewBox="0 0 475 512">
  <defs>
    <style>
      .cls-1, .cls-35 {
        fill: none;
      }

      .cls-2 {
        isolation: isolate;
      }

      .cls-3 {
        fill: #32223f;
      }

      .cls-4 {
        fill: #9edbd5;
        stroke: #6f31f7;
        stroke-width: 9px;
      }

      .cls-17, .cls-18, .cls-29, .cls-30, .cls-35, .cls-37, .cls-4, .cls-49, .cls-6, .cls-7, .cls-8 {
        stroke-miterlimit: 10;
      }

      .cls-5 {
        clip-path: url(#clip-path);
      }

      .cls-15, .cls-17, .cls-37, .cls-6 {
        fill: #f4c9ab;
      }

      .cls-17, .cls-29, .cls-30, .cls-35, .cls-49, .cls-6, .cls-7, .cls-8 {
        stroke: #231f20;
      }

      .cls-49, .cls-6, .cls-7, .cls-8 {
        stroke-width: 0.12px;
      }

      .cls-10, .cls-13, .cls-7 {
        fill: #e2b698;
      }

      .cls-8, .cls-9 {
        fill: #e8c9c4;
      }

      .cls-11 {
        fill: #f9dad2;
      }

      .cls-12 {
        fill: #cfe52c;
      }

      .cls-13 {
        fill-rule: evenodd;
      }

      .cls-14 {
        fill: #962127;
      }

      .cls-16 {
        fill: #efcbc5;
      }

      .cls-17, .cls-35 {
        stroke-width: 0.48px;
      }

      .cls-18, .cls-24 {
        fill: #fad35c;
      }

      .cls-18 {
        stroke: #917423;
      }

      .cls-19 {
        fill: #e8b83f;
      }

      .cls-20 {
        fill: #d13c35;
      }

      .cls-21 {
        fill: #991f1f;
        opacity: 0.8;
      }

      .cls-22 {
        fill: #c43131;
      }

      .cls-23 {
        fill: #e05555;
      }

      .cls-25 {
        fill: #9a2329;
      }

      .cls-26 {
        fill: #e57777;
      }

      .cls-27 {
        fill: #d3a688;
      }

      .cls-28 {
        fill: #231f20;
      }

      .cls-29 {
        fill: #96db1f;
      }

      .cls-29, .cls-30 {
        stroke-width: 0.16px;
      }

      .cls-30 {
        fill: #a5f921;
      }

      .cls-31 {
        clip-path: url(#clip-path-2);
      }

      .cls-32 {
        fill: #414042;
      }

      .cls-33, .cls-49 {
        fill: #fff;
      }

      .cls-34 {
        fill: #58595b;
      }

      .cls-36 {
        fill: #47301c;
      }

      .cls-37 {
        stroke: #a57453;
        stroke-width: 0.75px;
      }

      .cls-38, .cls-39 {
        mix-blend-mode: multiply;
        opacity: 0.75;
      }

      .cls-38 {
        fill: url(#radial-gradient);
      }

      .cls-39 {
        fill: url(#radial-gradient-2);
      }

      .cls-40 {
        fill: #8c3d35;
      }

      .cls-41 {
        fill: #f9988f;
      }

      .cls-42 {
        fill: #f58778;
      }

      .cls-43 {
        fill: #fff7f4;
      }

      .cls-44 {
        fill: #d26653;
      }

      .cls-45 {
        fill: #f9124e;
      }

      .cls-46 {
        fill: #965e38;
      }

      .cls-47 {
        fill: #4c311e;
      }

      .cls-48 {
        fill: #3d2d16;
      }
    </style>
    <clipPath id="clip-path">
      <path class="cls-1" d="M306.76,31.75H168.24A93.78,93.78,0,0,0,87,78.65l-69.26,120a93.79,93.79,0,0,0,0,93.78L87,412.35a93.78,93.78,0,0,0,81.22,46.9H306.76c33.51,0,64.23-21.51,81-50.53l69.5-116.33a93.79,93.79,0,0,0,0-93.78L388,78.65A93.78,93.78,0,0,0,306.76,31.75Z"/>
    </clipPath>
    <clipPath id="clip-path-2">
      <path class="cls-1" d="M334,368.78s-4.17-.44-5.11-3.72l3.56-17.74s1-2,5.9,0C338.34,347.32,344.79,360.49,334,368.78Z"/>
    </clipPath>
    <radialGradient id="radial-gradient" cx="323.5" cy="203.26" r="2.26" gradientTransform="matrix(1.28, 0.04, -0.04, 1.19, -83.89, -74.95)" gradientUnits="userSpaceOnUse">
      <stop offset="0" stop-color="#e19f77"/>
      <stop offset="0.24" stop-color="#ebc1a6"/>
      <stop offset="0.47" stop-color="#f4dccd"/>
      <stop offset="0.68" stop-color="#faefe8"/>
      <stop offset="0.86" stop-color="#fefbf9"/>
      <stop offset="1" stop-color="#fff"/>
    </radialGradient>
    <radialGradient id="radial-gradient-2" cx="255.31" cy="204.49" r="2.26" xlink:href="#radial-gradient"/>
  </defs>
  <g class="cls-2">
    <g id="Layer_1" data-name="Layer 1">
      <g>
        <g>
          <path class="cls-3" d="M306.76,52.75H168.24A93.78,93.78,0,0,0,87,99.65l-69.26,120a93.79,93.79,0,0,0,0,93.78L87,433.35a93.78,93.78,0,0,0,81.22,46.9H306.76A93.78,93.78,0,0,0,388,433.35l69.26-120a93.79,93.79,0,0,0,0-93.78L388,99.65A93.78,93.78,0,0,0,306.76,52.75Z"/>
          <path class="cls-4" d="M306.76,35.75H168.24A93.78,93.78,0,0,0,87,82.65l-69.26,120a93.79,93.79,0,0,0,0,93.78L87,416.35a93.78,93.78,0,0,0,81.22,46.9H306.76A93.78,93.78,0,0,0,388,416.35l69.26-120a93.79,93.79,0,0,0,0-93.78L388,82.65A93.78,93.78,0,0,0,306.76,35.75Z"/>
        </g>
        <g class="cls-5">
          <g>
            <g>
              <path class="cls-6" d="M126.63,303.91s-11.07-6.65-17.38-14.38c-4.36-5.35-7-10.59-8.24-12.41a64.27,64.27,0,0,0-10.76-11.84c-2.31-1.84-34.33-18.63-38.44-11.53,0,0-.66,2.27,6.3,3.86C63,258.72,70,262.83,79.82,272.22c0,0-15.11,10.86-13,17.7.44,1.44,2.72,6,7,7.72,9,3.57,18.41,5.09,21.85,7.76,2.87,2.24,12.66,10.68,12.66,10.68S123.89,312.68,126.63,303.91Z"/>
              <path class="cls-7" d="M68.92,291.06c7.15,2,13.45,1.51,18.62,7.84,1,1.19,2,2.33,3,3.48C86,301.12,79.77,300,73.79,297.64c-3.92-1.55-6.14-5.53-6.82-7.29A13.68,13.68,0,0,0,68.92,291.06Z"/>
              <path class="cls-6" d="M70.34,285.62a16.31,16.31,0,0,0,6,3.63c2.21.73,4.89,1.77,5.75,2.76,1.56,1.78,1.58,5-7.52,2.78-6.35-1.52-7.88-3.46-9.1-5.41S64.33,280,64.33,280Z"/>
              <path class="cls-6" d="M73.68,288a15.32,15.32,0,0,0,2.7,1.23c2.21.73,4.89,1.77,5.75,2.76,1.56,1.78,1.58,5-7.52,2.78-.78-.18-1.46-.38-2.09-.57A9.87,9.87,0,0,0,73.68,288Z"/>
              <path class="cls-8" d="M82.59,293.4c.24-1.38-3.07-2.26-3.21-2.16a1.8,1.8,0,0,0-.49,2.85,3.93,3.93,0,0,0,2.24.41C82.16,294.38,82.49,294,82.59,293.4Z"/>
              <path class="cls-7" d="M71.49,288.42c-2.3-1.05-4.61-2.08-6.91-3.14-.26-2.59-.25-5.33-.25-5.33l6,5.67a16.31,16.31,0,0,0,6,3.63,20.1,20.1,0,0,1,5.42,2.45C78.59,290.23,74.9,290,71.49,288.42Z"/>
              <path class="cls-9" d="M77.77,266.24S73.83,263,73.59,263c0,0-1.27-1.32-1.5,1.82a8.37,8.37,0,0,0,2.2,3C75.55,268.74,77.19,266.85,77.77,266.24Z"/>
              <path class="cls-6" d="M75.63,282c2.62,1.2,8.81,5.45,7.65,7.37-1.43,2.35-5.71.55-10.31-1.29s-10.77-4-11-6.24a38.62,38.62,0,0,1,.51-6.93S75,281.71,75.63,282Z"/>
              <path class="cls-6" d="M73.13,280.72v0l2.5,1.32c2.62,1.2,8.81,5.45,7.65,7.37-1.43,2.35-5.71.55-10.31-1.29l-.46-.18A9.85,9.85,0,0,0,73.13,280.72Z"/>
              <path class="cls-8" d="M83,288.84c.52-1.47-3-3.07-3.15-3a2,2,0,0,0-1.07,3.05,4.26,4.26,0,0,0,2.39.88C82.29,289.85,82.73,289.5,83,288.84Z"/>
              <path class="cls-10" d="M62.21,276.93c.14-1.15.27-2,.27-2S75,281.71,75.63,282a26.6,26.6,0,0,1,4.44,2.78C74,283.39,68.61,279.54,62.21,276.93Z"/>
              <path class="cls-6" d="M72,272.86A27.41,27.41,0,0,0,76.68,276c3.51,1.82,10.29,5.77,8.39,8.21-1.23,1.59-3,1.34-6.29-.24-2.83-1.36-6.39-3.18-7.19-3.7-1.57-1-11-4.37-10.88-7,.15-3.37-.31-8,5.19-4.66A52.3,52.3,0,0,1,72,272.86Z"/>
              <path class="cls-6" d="M75.21,275.12c.49.3,1,.61,1.47.87,3.51,1.82,10.29,5.77,8.39,8.21-1.23,1.59-3,1.34-6.29-.24-2.42-1.16-5.34-2.65-6.65-3.39A9.18,9.18,0,0,0,75.21,275.12Z"/>
              <path class="cls-8" d="M85,283.63c.57-1.64-3.31-3.42-3.5-3.33a2.24,2.24,0,0,0-1.2,3.4,4.86,4.86,0,0,0,2.67,1C84.25,284.74,84.73,284.35,85,283.63Z"/>
              <path class="cls-6" d="M95.09,304.54l-.35.31c28.7,25.46,48.28,44.37,59.61,53.79,0,0,8.89,8.83,20.74,13.14a30.88,30.88,0,0,0,9.26,1.75s6,1.5,10.21-2.06c8.28-6.94,13.7-23.17,19.33-53L197.49,313l-17.35-3.4-6.4,21.45-39.92-23.16-23.65-16.45"/>
              <path class="cls-6" d="M173.39,330.75s16.88,10.64,13.09,33.34"/>
              <g>
                <path class="cls-11" d="M128.69,304c0,.32,0,.66,0,1a1.09,1.09,0,0,1,0,.18v0a37.09,37.09,0,0,1-8.58,19.95l-.09.09q-.26.27-.51.51c-.21.21-.42.4-.63.58l-.09-.09-.41-.37a5.87,5.87,0,0,0,.46-.41c.22-.2.43-.41.65-.64l.09-.1,0,0a33.22,33.22,0,0,0,5.64-9.15A32.51,32.51,0,0,0,128,305.16c0-.15,0-.28,0-.42a1.48,1.48,0,0,1,0-.21c0-.35,0-.69,0-1Z"/>
                <g>
                  <path class="cls-12" d="M134.59,305.06a4.33,4.33,0,0,0-.3-.61,2.64,2.64,0,0,0-1.23-1.14,2.49,2.49,0,0,0-1-.2h0a3.23,3.23,0,0,0-.68.08,6.22,6.22,0,0,0-2.23,1.14l.58.4a5.18,5.18,0,0,1,1.76-.86,2.44,2.44,0,0,1,.59-.07h.09a1.61,1.61,0,0,1,.62.14,1.94,1.94,0,0,1,.88.81,3.73,3.73,0,0,1,.3.6,7.76,7.76,0,0,1,.43,2.5c0,.24,0,.49,0,.74v.21c0,.14,0,.28,0,.42A36.68,36.68,0,0,1,126,328.8l-.09.1a11.25,11.25,0,0,1-2.2,1.85l-.24.14a4.67,4.67,0,0,1-.61.28,3,3,0,0,1-1,.21,1.7,1.7,0,0,1-.71-.14,2.89,2.89,0,0,1-1.43-2.27,6.25,6.25,0,0,1-.11-.67,10.63,10.63,0,0,1-.07-1.42l-.59-.53c.21-.18.42-.37.63-.58,0-.35.07-.7.11-1.07l0,0-.09.1c-.22.23-.43.44-.65.64,0,.27,0,.53,0,.78v.17a13.37,13.37,0,0,0,.07,1.94q0,.36.12.69a3.6,3.6,0,0,0,1.83,2.81,2.53,2.53,0,0,0,1,.2,3.52,3.52,0,0,0,1.34-.29,6.81,6.81,0,0,0,.62-.29l.45-.27a12.18,12.18,0,0,0,2.21-1.89l.09-.1a37.21,37.21,0,0,0,8.59-20v0c0-.06,0-.12,0-.17,0-.29,0-.57,0-.84A8.75,8.75,0,0,0,134.59,305.06Z"/>
                  <path class="cls-12" d="M122.75,326.16l-.39.37h0c0,.33,0,.64,0,1l.22-.19,0-.05c.15-.13.31-.27.46-.42a1.64,1.64,0,0,1,0-.23,1,1,0,0,1,0-.17Zm13.86-21.8a2.45,2.45,0,0,0-1-.2,3.6,3.6,0,0,0-1.34.29,5,5,0,0,0-.62.3,8.81,8.81,0,0,0-1.43,1l-.47.41-.25.24h0l-.05,0-.12.13.15.12h0l.39.29.14-.13.16-.15.15-.14a8.45,8.45,0,0,1,1.63-1.2,3.81,3.81,0,0,1,.62-.29,3,3,0,0,1,1-.21,1.67,1.67,0,0,1,.71.14c1.13.48,1.71,2.27,1.61,4.92,0,.12,0,.24,0,.36,0,.28,0,.57-.07.87l0,.11a34.15,34.15,0,0,1-2.66,9.41c-1.92,4.48-4.44,8.22-6.73,10.21l-.06.06a5.51,5.51,0,0,1-2.9,1.5h-.17a1.64,1.64,0,0,1-.71-.14,1.9,1.9,0,0,1-.89-.8,2.8,2.8,0,0,1-.3-.6,4,4,0,0,1-.17-.52l-.84-.77a7.19,7.19,0,0,0,.4,1.57,4.32,4.32,0,0,0,.29.61,2.61,2.61,0,0,0,1.24,1.14,2.45,2.45,0,0,0,1,.2h0a3.35,3.35,0,0,0,.81-.11,7.2,7.2,0,0,0,2.79-1.66l.06,0c2.36-2.09,4.88-5.83,6.83-10.38a35,35,0,0,0,2.67-9.24.22.22,0,0,0,0-.08c.06-.44.1-.88.12-1.3h0C138.81,307.1,138.09,305,136.61,304.36Z"/>
                </g>
                <g>
                  <path class="cls-12" d="M128.19,301a3.81,3.81,0,0,0-.29-.61,2.71,2.71,0,0,0-1.24-1.14,2.45,2.45,0,0,0-1-.19,4.84,4.84,0,0,0-2.66,1l.59.41a3.92,3.92,0,0,1,2.07-.75,1.83,1.83,0,0,1,.71.14,2,2,0,0,1,.89.81,3.14,3.14,0,0,1,.29.61,7.08,7.08,0,0,1,.42,2.23c0,.32,0,.66,0,1a1.48,1.48,0,0,0,0,.21c0,.14,0,.27,0,.42a32.51,32.51,0,0,1-2.75,10.39,33.22,33.22,0,0,1-5.64,9.15l0,0-.09.1c-.22.23-.43.44-.65.64a5.87,5.87,0,0,1-.46.41,7.34,7.34,0,0,1-1.33.93,4.78,4.78,0,0,1-.61.29,2.88,2.88,0,0,1-1,.21,1.8,1.8,0,0,1-.71-.14c-1.36-.58-1.85-2.89-1.52-6l-.64-.58c-.46,3.75.15,6.51,1.89,7.25a2.45,2.45,0,0,0,1,.2,3.6,3.6,0,0,0,1.34-.29,6.67,6.67,0,0,0,.61-.29,9.17,9.17,0,0,0,1.44-1l.09-.08c.21-.18.42-.37.63-.58s.34-.33.51-.51l.09-.09a37.09,37.09,0,0,0,8.58-19.95v0a1.09,1.09,0,0,0,0-.18c0-.35,0-.69,0-1A8.39,8.39,0,0,0,128.19,301Z"/>
                  <path class="cls-12" d="M132.17,303.8c0-.24-.07-.47-.11-.69a3.59,3.59,0,0,0-1.84-2.82,2.52,2.52,0,0,0-1-.19,3.74,3.74,0,0,0-1.34.28c-.21.09-.41.19-.62.3a9.75,9.75,0,0,0-1.66,1.19l.57.4a7.88,7.88,0,0,1,1.38-1,5.79,5.79,0,0,1,.62-.3,3.21,3.21,0,0,1,1.05-.21,1.87,1.87,0,0,1,.71.14,3,3,0,0,1,1.43,2.27c0,.22.08.44.11.68a13.19,13.19,0,0,1,0,2.12,1.48,1.48,0,0,1,0,.21v.19h0c0,.09,0,.19,0,.29h0c0,.13,0,.26,0,.4v.1a34.12,34.12,0,0,1-2.66,9.42,32.15,32.15,0,0,1-6,9.56l-.39.37h0l-.3.28-.07.06a8.06,8.06,0,0,1-1.45,1,4.5,4.5,0,0,1-1,.41,2.44,2.44,0,0,1-.59.07h-.09a1.81,1.81,0,0,1-.62-.14,2,2,0,0,1-.89-.8,3.85,3.85,0,0,1-.3-.61,7.45,7.45,0,0,1-.42-2.53l-.69-.63a9.32,9.32,0,0,0,.5,3.45,4.94,4.94,0,0,0,.3.61,2.74,2.74,0,0,0,1.23,1.14,2.45,2.45,0,0,0,1,.2h0a3.25,3.25,0,0,0,.67-.09,5.09,5.09,0,0,0,1.44-.6,9.37,9.37,0,0,0,1.25-.89h0l.22-.19,0-.05c.15-.13.31-.27.46-.42a31.65,31.65,0,0,0,6.38-9.95,35.89,35.89,0,0,0,2.67-9.24.19.19,0,0,1,0-.08l.09-.86c0-.08,0-.16,0-.24s0-.13,0-.2,0-.34,0-.51A13.32,13.32,0,0,0,132.17,303.8Z"/>
                </g>
              </g>
              <path class="cls-13" d="M180.21,310.35l27.89,10.9s-13.16,48.6-26.66,51.66a23.77,23.77,0,0,0,7.65.69,10.71,10.71,0,0,0,3-.68,11.22,11.22,0,0,0,2.61-1.52,15.16,15.16,0,0,0,1.95-1.72,30.71,30.71,0,0,0,4.59-6.41,78.89,78.89,0,0,0,5.57-13.64c3.69-13.43,6.58-27.34,7.41-31.4A132.82,132.82,0,0,0,186,311C184,310.75,182.09,310.53,180.21,310.35Z"/>
              <path class="cls-14" d="M382.15,519.17,379.87,365l0-1.33-.22-14.95-.14-9.37-1.17-79v-.39l-12.14-5.4-2.1-.93-4.64-2.07-7.42-3.3-18.3-8.14,0,0-1.74-.77-.08,2.55,0,.49-.78,23.32-.29,8.81v.06l-.08,2.36-.86,25.53-.49,14.77-.49,14.66v.27l-.06,1.79-.14,4.25v.19l-.05,1.74-.13,3.91-.21,6.28-.19,5.48,0,1.09,0,.94-.07,2.09V360l-.6,18.14-.08,2.42-1.1,32.72-.41,12.43-7,208.15c2.36,5.7,11.19,8.24,21.54,9.13,1.91.17,3.87.28,5.86.34,17.21.56,36-2.34,36-2.34C375.84,626.72,382.15,519.17,382.15,519.17ZM334.23,379.05c.59-4.07,1.26-8.55,1.95-13.08.58.35,1.15.68,1.73,1,1.06,4.09,2.11,7.69,2.91,10.31C338.68,377.91,336.47,378.5,334.23,379.05Z"/>
              <path class="cls-15" d="M316.6,229.74a72.12,72.12,0,0,1-4.88,13.79c-14.53,30-43,22.72-43,22.72-1.09-.34-15.83-5.17-19.75-19.73a28.36,28.36,0,0,1,1.88-19.2,17.76,17.76,0,0,0,5.8-3.65l.15-.17c4.25-5,4.24-25.07,4.24-25.07l35.66.14s2.72,19,6.86,23.45C306,224.7,310.86,227.33,316.6,229.74Z"/>
              <path class="cls-16" d="M340.82,377.27c-2.14.64-4.35,1.23-6.59,1.78.59-4.07,1.26-8.55,1.95-13.08.58.35,1.15.68,1.73,1C339,371.05,340,374.65,340.82,377.27Z"/>
              <path class="cls-17" d="M375.32,311.49s10.71,51.47,5.5,60l-5.5,6.59s-11.51,3.29-15.9-6.32L346.78,323.5Z"/>
              <path class="cls-18" d="M375.43,314l-28.74,8.76-6-16-1.1-2.94c0,.1.37,2,.62,4.87.62,7.23.62,20.65-6.83,27.37a14.78,14.78,0,0,1-3.46,2.33H235.1a27.13,27.13,0,0,1-2.34-1.7c-3.87-3.09-11.13-10.25-10.83-20.32L225,275,213.5,318.81s-23.91-9-34-8.11c6.95-27.35,20.55-72.78,36.4-76.56,1.06-.25,8.38-1.82,16.87-3.48,7.69-1.5,14-2.63,18-3.34a28.36,28.36,0,0,0-1.88,19.2c3.92,14.56,18.66,19.39,19.75,19.73,0,0,36.42,9.37,47.9-36.51.19-.76.38-1.54.55-2.34l35.37,12.51A36.44,36.44,0,0,1,363.77,252Z"/>
              <path class="cls-19" d="M179.53,308.78s23.06-3.21,30.68,0l14.32-38-2.13-14.51,3.66,10.7s-1.21-10.4,1.21-13.16c0,0-.16,11.73.85,11.9l5.41-11.9-5.41,15.9-2.06,18.11s-4.06,39.24,14.6,41.43c0,0,14.64,8,33.94,0,0,0,9.17-5,17.11,1.1,0,0,33.35,8.5,39-2.2,0,0,12-29.21,2.38-47.39l-7.51-17.25,5.13,6.2-3.38-15.9,5.21,14.26,4.28-10.43s-5.1,14.71-2.35,17.65l14.56,41.34,26.37-4.57-28.74,8.77-7.06-19s3.64,29.54-9.67,34.57H235.1s-16.57-10.14-13-24.44L225,273.07,213.5,316.9S189.18,309.15,179.53,308.78Z"/>
              <path class="cls-20" d="M362.24,472.91c-1.64,63-13.52,49-10.67,111.55l-5.4,58.87-2,22.21s7.58,113.19,11,119.78l-8.94,11.52,5.38,15.64-37.9,7.82v5.76l-9.87-2-2.47,2L284,824s-26.34-4.12-32.93-.83l-28-9.34-2.06-74.21V583.22s-.67-6.59-1.64-17.27c0-.53-.09-1.08-.14-1.64-1.45-16.18-3.48-40.81-4.87-66.07-2.19-40-2.81-81.5,3-93.65L224,377.27l1.16.39c.94.31,2.41.78,4.31,1.34,11.71,3.51,39.57,10.71,57.31,6.06l.85-.23s1.62,0,4.38-.18c2.12-.11,4.91-.28,8.17-.54,2.42-.19,5.11-.43,8-.74s6-.69,9.15-1.14c1.71-.25,3.44-.51,5.18-.8l.17,0c1.54-.26,3.09-.54,4.64-.84s3.25-.65,4.86-1l2.14-.49c2.24-.55,4.45-1.14,6.59-1.78C340.82,377.27,363.89,409.94,362.24,472.91Z"/>
              <path class="cls-21" d="M331.25,376.85s14,28.34-37.24,114.89L221.06,628.52,264.75,485S306,380.49,331.25,376.85Z"/>
              <path class="cls-20" d="M378.32,260.33c-.14.22-.72,0-1.24,0-3.36-.35-6.79,5.21-9.71,10.85s-7.58,17-7.58,17c-1.15,3.37-2.8,7.8-4.66,12.56s-3.89,9.86-5.8,14.58c-.24.6-.49,1.19-.73,1.78l-2,5,0,.07a.36.36,0,0,0,0,.09c-2.62,6.38-4.53,10.91-4.53,10.91a90.25,90.25,0,0,0-1.91,8.94c-.61,3.37-1.28,7.37-2,11.66h0c-.25,1.56-.5,3.16-.75,4.78-.2,1.24-.39,2.49-.59,3.75-.05.37-.11.74-.17,1.11l-.39,2.59c-.69,4.53-1.36,9-1.95,13.08L333,387.59c-.73,5.09-1.19,8.39-1.19,8.39-.77,4-2.87,10.14-5.67,17.3C316.09,439,297,477.74,297,477.74c-5.21,4.66-39.79,72.71-46.37,84.23-4.38,7.67-16,34.58-23.29,51.74-3.58,8.44-6.11,14.52-6.23,14.8h0l.2-36.83c-.06-.12-.13-.23-.2-.35-4.38-7.92-3.39-22.79-3.39-22.79-6-5.21-3.3-34-3.3-34l-1.22-10.94-5.64-50.51C204.77,429.45,216,388,216,388c6.86-25.24,4.11-42.8,4.11-42.8a93.08,93.08,0,0,1-2.61-23.9c0-.27,0-.54,0-.8v-.2c0-.13,0-.26,0-.39l0-1.25c0-.16,0-.31,0-.46a1.21,1.21,0,0,1,0-.19l0-.53c0-.18,0-.37,0-.56l0-.54c0-.51.05-1,.08-1.51,0-.12,0-.24,0-.36,0-.32,0-.64.07-1s0-.55,0-.82c.05-.52.09-1.05.13-1.58,0-.17,0-.34,0-.52.07-.77.15-1.54.23-2.29l.06-.52c0-.16,0-.31,0-.46.07-.62.14-1.23.22-1.84l.06-.5c.09-.66.17-1.32.27-2,0-.16,0-.32.07-.48.28-2,.6-3.89.93-5.71l.12-.69c.29-1.55.59-3,.88-4.44,0-.16.07-.31.1-.47.1-.44.2-.88.29-1.3.05-.22.1-.43.14-.64s.08-.32.11-.48.05-.19.07-.29c.17-.75.35-1.47.52-2.16,0-.11.05-.22.08-.33s.07-.29.1-.43c.1-.39.2-.78.3-1.15s.15-.6.23-.88c0-.1,0-.19.07-.29.11-.38.21-.75.3-1.1a2.17,2.17,0,0,0,.07-.24c0-.17.09-.33.14-.49l.06-.24c.16-.56.31-1.06.44-1.52l.06-.19c0-.06,0-.12.05-.18.09-.31.18-.59.25-.84,0-.08,0-.16.08-.24a1.21,1.21,0,0,0,.05-.18,1.87,1.87,0,0,0,.07-.22l.2-.6a.14.14,0,0,1,0-.07c.05-.16.08-.26.1-.3v0h0l2.81-1.6,2.69-1.54,26.09-14.84,47.5-27,7.72-4.39a31.36,31.36,0,0,1,16.63,1.19,39.58,39.58,0,0,1,10.05,2.39c3.76,1.52,7,3.17,7,3.17,5.35.82,16.67,11.93,16.67,11.93l1.57,1.33,5.43,4.57C373.83,255.68,378.77,259.61,378.32,260.33Z"/>
              <g>
                <path class="cls-22" d="M257,343.11s-30.67,14.43-32.44,38.62c0,0-11.34,114.09-11,138.57a11.56,11.56,0,0,1-.35,3.29l-5.64-50.52C204.77,429.45,216,388,216,388c6.86-25.24,4.11-42.8,4.11-42.8-7.85-30.62,4.42-67.38,4.73-68.3C224.48,278.22,203.31,352.1,257,343.11Z"/>
                <path class="cls-22" d="M257,343.11s-30.67,14.43-32.44,38.62c0,0-11.34,114.09-11,138.57a11.56,11.56,0,0,1-.35,3.29l-5.64-50.52C204.77,429.45,216,388,216,388c6.86-25.24,4.11-42.8,4.11-42.8-7.85-30.62,4.42-67.38,4.73-68.3C224.48,278.22,203.31,352.1,257,343.11Z"/>
              </g>
              <path class="cls-23" d="M222.4,560.91s66.82-113,80.27-159.68c0,0,40.44-135.74,52.46-146.34,0,0-34.37,50.31-58.64,142.5l-76.6,163.52-1.1,6.11Z"/>
              <path class="cls-23" d="M230.65,512.39s49.43-89.34,61.06-126.95c0,0,34.65-109.4,42.86-117.47,0,0-24.87,39.52-46.43,114l-59,130.31-1.12,5Z"/>
              <path class="cls-23" d="M230.53,371.26s50.62-48,62.83-69.32c0,0,36.36-61.9,44.64-65.78,0,0-25.37,20.87-48.1,63.25L229,371l-1.19,2.86Z"/>
              <path class="cls-23" d="M224.35,323.3s47.55-30.39,58.5-44.45c0,0,32.67-40.76,40.66-43,0,0-24,13-44.23,41.06L222.81,323l-1,1.91Z"/>
              <path class="cls-24" d="M364.54,255.91s-43.13,89.79-42,130.6c0,0-1.67,28.37-29.33,74.47,0,0-65.06,122.4-65.91,132,0,0,49.14-115.12,56.45-126.64,0,0,33.59-67.22,32.88-80.68,0,0,8.19-44.45,12.3-53.91,0,0,27.13-80,31.7-81.45l3-2.77,5.42,4.57Z"/>
              <polygon class="cls-25" points="351.09 790.52 311.4 497.14 345.86 797.25 351.09 790.52"/>
              <path class="cls-26" d="M322.18,773.89,305.46,473.6S327.35,727.16,322.18,773.89Z"/>
              <polygon class="cls-10" points="350.77 338.17 350.04 324.4 375.43 313.8 346.69 322.57 350.77 338.17"/>
              <polygon class="cls-1" points="325.21 340.34 322.8 338 329.26 333.6 335.87 340.34 338.08 353.74 331.76 360.87 329.91 361.59 326.15 358.61 325.21 340.34"/>
              <path class="cls-27" d="M311.69,227.51,304,231.9c-11.5-14.28-38.49-10.17-47.19-8.4,4.25-5,4.24-25.07,4.24-25.07l35.66.14s2.72,19,6.86,23.45A29.27,29.27,0,0,0,311.69,227.51Z"/>
              <path class="cls-28" d="M251.07,227.34a60.37,60.37,0,0,0,1.15,15,48.37,48.37,0,0,0,5.13,13.94,37.77,37.77,0,0,0,9.36,11.29,14.24,14.24,0,0,0,1.49,1.05,16.51,16.51,0,0,0,1.53,1,20.9,20.9,0,0,0,3.27,1.5,15.39,15.39,0,0,0,7,1,21.87,21.87,0,0,0,7-1.81,31.75,31.75,0,0,0,6.36-3.67,43.41,43.41,0,0,0,10.12-10.77,53,53,0,0,0,8.44-28.38h.47a53.44,53.44,0,0,1-1.55,15.17,49,49,0,0,1-6,14.09,42.16,42.16,0,0,1-10.34,11.42,34.18,34.18,0,0,1-6.71,4,24.15,24.15,0,0,1-7.61,2,17.85,17.85,0,0,1-4-.06,20.24,20.24,0,0,1-3.88-1,21.45,21.45,0,0,1-3.61-1.66c-.58-.31-1.1-.71-1.65-1.07a14.11,14.11,0,0,1-1.6-1.15,38,38,0,0,1-9.72-12,49.15,49.15,0,0,1-4.83-14.58,54.51,54.51,0,0,1-.3-15.25Z"/>
              <g>
                <circle class="cls-29" cx="280.21" cy="275.27" r="3.73"/>
                <circle class="cls-30" cx="274.59" cy="271.74" r="2.89"/>
                <circle class="cls-30" cx="285.78" cy="271.74" r="2.89"/>
              </g>
              <path class="cls-17" d="M382.11,357.62a21.09,21.09,0,0,1,.14,12.19,13.77,13.77,0,0,1-.84,1.68c-2,3.54-7.87,11.27-19.52,8.54a51.76,51.76,0,0,1-22.44-6.58c-.57-.31-1.15-.65-1.72-1a55.35,55.35,0,0,1-6.27-4.38l0,0c-.66-.53-1.32-1.1-2-1.68l-1.18-1.09s-.16-.12-.42-.35l-.11-.09-.07-.06c-.34-.29-.8-.7-1.35-1.2s-1.31-1.25-2.05-2c-.49-.51-1-1.06-1.49-1.64a29.24,29.24,0,0,1-2.64-3.58c-2.48-4-3.39-8.55,1.63-11.51l.32-.18.69.18,1,.27,1.5.37.12,0c.75.18,1.6.39,2.55.6.68.16,1.41.32,2.18.48s1.59.34,2.43.5l2.37.45c.87.16,1.77.31,2.68.46,1.3.21,2.64.4,4,.57a70.63,70.63,0,0,0,11.91.63,27.12,27.12,0,0,0,6.73-1.06s10.43-2.71,16.74,1.11l.4.39"/>
              <path class="cls-17" d="M325.79,346l-.25-.21s-10.94-11.61-11.39-13.26c0,0-1.33-3.65-6.86-3.93H291.65l-15.5,9.69s-.26,4.27,7.63,1.83l9-4.11,10.25.18-9.51,4.39-16.74,10.79s-2.38,4.18,6.49,1.86l14.54-6.43,9.15-2.11-8.78,2.84-15.55,6.4s-4.57,1.65-3.56,3.84c0,0,2.74,1.37,6.86-.64l14.54-3.9,10.7-1.95-10.29,2.65L287,357.28s-5.16,1.27-2.47,3h14.55l14.54-.93s7.18,7,14.4,5.62l.26-.05"/>
              <g class="cls-31">
                <path class="cls-32" d="M329.14,368.45a3.91,3.91,0,0,1-.76-.07,4.8,4.8,0,0,1-3.11-2.17c-1.64-2.41-2.13-6.57-1.27-10.85,1.24-6.13,4.73-10.59,8.3-10.59a4.88,4.88,0,0,1,.76.07,4.8,4.8,0,0,1,3.11,2.17c1.64,2.42,2.13,6.58,1.27,10.85C336.2,364,332.71,368.45,329.14,368.45Zm3.16-20.93c-1.89,0-4.6,3.37-5.61,8.39-.71,3.52-.37,7,.85,8.76a2.15,2.15,0,0,0,1.33,1l.27,0c1.89,0,4.6-3.37,5.61-8.39.71-3.52.37-7-.85-8.77a2.13,2.13,0,0,0-1.33-1Z"/>
                <g>
                  <ellipse class="cls-33" cx="336.49" cy="356.71" rx="4.33" ry="2.5" transform="translate(-55.29 651.64) rotate(-83.64)"/>
                  <path class="cls-34" d="M336.17,361.72H336a2.41,2.41,0,0,1-1.64-.95,6,6,0,0,1-1-4.36c.28-2.67,1.78-4.69,3.48-4.69H337a2.45,2.45,0,0,1,1.65.95,6.06,6.06,0,0,1,1,4.36C339.37,359.7,337.88,361.72,336.17,361.72Zm.63-8.63c-.84,0-1.9,1.39-2.12,3.46a4.77,4.77,0,0,0,.7,3.35,1.05,1.05,0,0,0,.72.44h.07c.85,0,1.9-1.39,2.13-3.46a4.82,4.82,0,0,0-.7-3.35,1.07,1.07,0,0,0-.72-.44Z"/>
                </g>
              </g>
              <path class="cls-35" d="M346.57,796.52l8.65-11.16h0l-.34-.94c-3.55-12.7-10.66-118.84-10.66-118.84l2-22.21c17.21.56,36-2.34,36-2.34-6.31-14.27,0-121.82,0-121.82l-2.15-145.52a23.73,23.73,0,0,0,1.42-2.16,14.45,14.45,0,0,0,.83-1.68,21.18,21.18,0,0,0-.13-12.19c-.38-7.05-1.49-15.59-2.71-23.4l-1.09-73.89a.32.32,0,0,0,0-.27V260l-.07,0c-.71-1.29-5-4.69-9.18-7.82l-5.43-4.57-1.57-1.33s-11.31-11.11-16.66-11.93c0,0-3.26-1.65-7-3.16a39.22,39.22,0,0,0-10-2.4,31.8,31.8,0,0,0-10.61-1.8,30.89,30.89,0,0,0-5.54.52h-.66l-.46-.24-.05,0-.53-.27-.16-.08-.45-.25-.11-.06-.54-.3-.13-.07-.41-.24-.14-.08-.51-.31,0,0-.44-.28-.15-.09-.36-.24-.12-.08-.44-.29-.12-.09-.32-.23-.13-.09-.4-.3,0,0-.36-.28-.12-.1-.28-.24-.09-.08-.34-.3-.08-.08-.25-.24-.09-.09-.3-.31c-2.32-2.52-4.19-9.56-5.39-15.28,1.39-1.21,2.81-2.56,4.26-4.08,8.22,4.26-33-27.65-24.36-38.27,9.52-11.66,48.77-2.75,56.56-5.42.55-.19-.9-.69-1.38-1a10.73,10.73,0,0,0-1.24-4.55c-1.24-2.3-3-3-4.85-2.65a2.5,2.5,0,0,1,1.92,0S341,86,286.19,77.31c-15.2-2.41-31.64.07-43.7,9.88a39.43,39.43,0,0,0-10.8,13.9c-4.81,10.2-7.79,20.77-7.56,32.11,0,.89,1.42,17,1.91,17a3.68,3.68,0,0,1,.79-.09c-1,.33,1.49,2.17.72,3.56a17.54,17.54,0,0,0,.2,18.12c.82,1.33,1.55,2.82,2.32,4.31a19.3,19.3,0,0,0,4.73,6.49,2.47,2.47,0,0,0,2.3,1.66,2.28,2.28,0,0,0,.59,0,1.59,1.59,0,0,0,2.16-1l.1.28c.12.35.24.7.37,1l.15.37c.25.63.52,1.24.8,1.85l.18.36c.08.18.17.36.26.54l.36.68.32.58.16.3a2.39,2.39,0,0,1,.13.21l.42.7.21.35c.29.46.58.91.89,1.36h0l.47.67c2.6,3.7,8.27,11.73,15.83,17.55-.55,5.41-1.61,11.18-3.63,13.54l-.15.17a17.65,17.65,0,0,1-5.8,3.65h0c-4,.71-10.34,1.84-18,3.34-8.48,1.66-15.81,3.23-16.86,3.48-15.82,3.77-29.39,49-36.36,76.36h0l0,.19.3,0L173.86,331l-.37-.25.06.17-39.64-23-21.19-14.74a42.47,42.47,0,0,1-3.37-3.65c-4.37-5.35-7-10.59-8.24-12.41a65,65,0,0,0-10.76-11.84C88,263.49,56,246.69,51.9,253.79c0,0-.66,2.27,6.3,3.86,3.09.71,7.09,2.64,12.12,6.38-.44,1.65-.15,4.25,2.59,8.15a12.57,12.57,0,0,0,3.17,3.14l-.21.19-.57-.35v0a29.24,29.24,0,0,1-3.24-2.3,52,52,0,0,0-6-4.25c-5.51-3.39-5,1.29-5.2,4.67,0,.71.65,1.48,1.69,2.24a33.92,33.92,0,0,0-.43,6.34c.09.87,1.08,1.73,2.53,2.57a13.65,13.65,0,0,0,1,4.95A9.2,9.2,0,0,0,67.82,292c.15.26.31.53.49.81h0l.12.19.08.12.08.1.14.21,0,0a13.31,13.31,0,0,0,2.92,3h0a3.06,3.06,0,0,0,.29.21l0,0,.28.17.08.05.26.16.09,0,.26.14.11,0,.27.13.1,0,.38.16c8.36,3.31,17,4.85,21,7.18l0,0c28.7,25.46,48.28,44.37,59.61,53.79,0,0,8.89,8.83,20.74,13.15a31.67,31.67,0,0,0,9.26,1.75s5.27,1.32,9.43-1.48c.37-.24.68-.47.95-.66a15.31,15.31,0,0,0,1.94-1.72,30.71,30.71,0,0,0,4.59-6.41,79.52,79.52,0,0,0,5.58-13.64c3.68-13.43,6.57-27.34,7.41-31.4l-.55-.2,11.3-43-.14,1.84h0v0c0,.08-.12.37-.27.83l0,.12,0,.08c0,.1-.06.2-.1.31h0v0c-.05.18-.11.36-.17.56s-.09.32-.15.5,0,.1,0,.15c-.19.63-.4,1.36-.63,2.18l0,.12,0,.16h0a2.17,2.17,0,0,1-.07.24c-.06.22-.12.46-.19.7s-.16.6-.24.91-.11.44-.17.66l-.07.26,0,.14c0,.12-.06.24-.1.37h0l-.09.37c0,.07,0,.13-.05.19s-.07.28-.1.42l0,.15c-.05.18-.09.36-.13.54-.23.95-.47,2-.7,3v.07l-.12.53,0,.11-.21,1,0,.11v0c-.3,1.37-.58,2.82-.87,4.34v.1l-.09.53,0,.11v0c0,.21-.07.43-.11.65l0,.12c0,.18-.06.36-.1.54l0,.18c0,.17-.05.33-.08.5l0,.17-.09.54,0,.13c0,.22-.07.44-.11.66h0c-.18,1.15-.36,2.33-.52,3.53l0,.24c-.1.76-.2,1.52-.29,2.29v0c0,.28-.06.57-.1.86v.1l-.21,2c0,.06,0,.11,0,.17-.1,1-.2,2.05-.28,3.09v.1c0,.06,0,.13,0,.19,0,.63-.09,1.25-.13,1.89v.05h0c0,.47-.05.95-.08,1.43v.07l0,.54c0,.13,0,.26,0,.39s0,.17,0,.26v.63c0,.15,0,.31,0,.46v0c0,.53,0,1.07,0,1.61v.47c0,.66,0,1.33,0,2h0c0,.49,0,1,0,1.46v.06l0,1.41v.1c0,.46,0,.92,0,1.39v.12l.06,1.37v.13l.09,1.37v.14c0,.45.07.9.11,1.35v.16c0,.45.08.9.13,1.35,0,.05,0,.1,0,.15.05.45.1.9.16,1.35v.15l.18,1.35,0,.14c.06.46.12.91.19,1.37a.51.51,0,0,1,0,.13c.08.45.15.91.23,1.37l0,.11c.08.47.16.93.25,1.39l0,.09c.09.47.19.94.29,1.41v.07c.1.47.21,1,.32,1.42v0c.11.49.23,1,.35,1.45h0s2.74,17.57-4.12,42.8c0,0-11.25,41.43-8.5,85.06l5.63,50.51h0l1.22,10.94s-2.74,28.81,3.3,34c0,0-1,14.86,3.4,22.78v37.18h0V739.67l1.59,57.55"/>
              <g>
                <path class="cls-6" d="M99.92,278.61c-.17-.43-.29-.68-.29-.68s-8.18-5.65-10.74-8.2S82.24,271,73.41,262.8a1.86,1.86,0,0,0-2.94.5c-.72,1.58-.81,4.34,2.35,8.84,3.92,5.6,10.73,5.73,12.23,6.28.93.35,2,3.83,5.11,6.32"/>
                <path class="cls-7" d="M70.47,263.3c0-.11.15-.17.22-.26a10.58,10.58,0,0,0,.78,3c1.75,4.25,6.44,6.76,10.94,6.61a26.36,26.36,0,0,0,3.54-.31c-.3,5,2.72,10.23,4,12.14-3-2.46-4-5.75-4.92-6.09-1.5-.55-8.31-.68-12.23-6.28C69.66,267.64,69.75,264.88,70.47,263.3Z"/>
              </g>
              <g>
                <ellipse class="cls-36" cx="314.33" cy="176.42" rx="27.25" ry="18.73" transform="translate(-21.17 308.2) rotate(-50.75)"/>
                <ellipse class="cls-36" cx="242.24" cy="170.03" rx="21.23" ry="27.25" transform="translate(-5.65 8.34) rotate(-1.95)"/>
                <g>
                  <path class="cls-37" d="M329.51,169.88c-.84,1.3-1.6,2.77-2.39,4.21-1.4,2.54-2.93,5.06-5.28,6.65-7.21,4.86-4.54-5-3.76-8.46,1.26-5.6-.31-12.06,2.47-17.26a15.36,15.36,0,0,1,3.16-4,11.85,11.85,0,0,1,3.9-2.45c2.22-.77,4.43-.36,5.91,2.39C336.85,157.19,332.88,164.66,329.51,169.88Z"/>
                  <path class="cls-10" d="M322.21,157.08s6.36-7,9.46-3.91-3.75,16-6.73,18.9a6,6,0,0,1-3.54,1.79,2.37,2.37,0,0,1-1.81-.28c-1.29-1.14-.38-5.76,2.44-8.37,1.94-1.8,4.23-2.12,4.22-3.46a1.86,1.86,0,0,0-1-1.48c-1.3-.71-2.81.72-3.49.18C321.47,160.19,321.29,159.43,322.21,157.08Z"/>
                </g>
                <path class="cls-11" d="M320.23,176.24c.12-.53.25-1.06.36-1.58C320.48,175.18,320.36,175.71,320.23,176.24Z"/>
                <path class="cls-11" d="M233.18,141.82l.18,1.41-.18-1.4Z"/>
                <path class="cls-11" d="M233.56,144.87c-.07-.55-.14-1.09-.2-1.64C233.43,143.78,233.49,144.32,233.56,144.87Z"/>
                <path class="cls-37" d="M231.5,173.57c1.35,2.6,2.84,5.17,5.15,6.8,7.14,5.06,4.64-5,3.92-8.48-1.17-5.69.52-12.2-2.16-17.51-2.25-4.44-9.41-10.59-12.9-4.3s.4,13.84,3.67,19.18C230,170.59,230.73,172.08,231.5,173.57Z"/>
                <path class="cls-10" d="M236.38,157.07s-6.36-7-9.46-3.91,3.74,16,6.73,18.9a6,6,0,0,0,3.54,1.79,2.36,2.36,0,0,0,1.8-.28c1.29-1.14.38-5.76-2.44-8.37-1.94-1.79-4.23-2.12-4.22-3.46a1.89,1.89,0,0,1,1-1.48c1.29-.71,2.81.72,3.48.18C237.11,160.18,237.29,159.42,236.38,157.07Z"/>
                <path class="cls-37" d="M323.92,153c0,35-25,65.63-46.33,63.4-21.1-2.21-42.88-29.81-42.88-64.83s17.42-58.32,43-58.32S323.92,118,323.92,153Z"/>
                <path class="cls-10" d="M314.08,121.28C252.51,138.62,252.2,97,252.2,97a2.69,2.69,0,0,1,2.53-2.28c.18,3.47,2.68,28.8,36.53,28.11A87.53,87.53,0,0,0,314.08,121.28Z"/>
                <path class="cls-10" d="M327.61,148.62a11.85,11.85,0,0,0-3.9,2.45c-.13-.39-.26-.78-.4-1.17-11.25-31.72-54.09-40.27-54.09-40.27a18.76,18.76,0,0,0-11.66-6.6c-19,18.69-22.21,43.21-22.38,52.55,0,.75-2.2-6.28-5.19-7.63-.7-1.86-1.17-3.18-1.17-3.18s7-24.08,7.63-29.85S254.5,93.69,254.5,93.69l25.25-2.58,26.9,11.2S324.2,139.23,327.61,148.62Z"/>
                <path class="cls-36" d="M234.56,155.45c-.41-1.23-2.11-6.74-5.64-6.86-4.27-.16-3.39,2.24-4.11,1.52-5.49-5.49-3.47-19.55-3.5-20.47-.25-11.84,3-22.88,8.19-33.52a41.51,41.51,0,0,1,11.69-14.51c13.06-10.23,30.87-12.83,47.33-10.32,59.36,9.08,44.5,78.36,44.5,78.36-4.58-4.57-9.31,1.42-9.31,1.42-.06-1.54.22,1.47,0,0C320.39,129,303,113.35,277.09,106.54c-10.37-2.72-11.95,3-20.74-2.91-11.41,12.8-22.25,29.11-21.17,52"/>
                <g>
                  <path class="cls-38" d="M325.45,179.5a2.38,2.38,0,0,1-2.54,2.22,2.3,2.3,0,1,1,.15-4.59A2.38,2.38,0,0,1,325.45,179.5Z"/>
                  <path class="cls-33" d="M324.77,178.6a1.94,1.94,0,1,1-1.88-2A1.94,1.94,0,0,1,324.77,178.6Z"/>
                  <path class="cls-33" d="M326.67,180.69c-2.93-3.14-2.34-3.12-5.47-.18,3.13-2.94,3.11-2.36.17-5.49,2.94,3.13,2.35,3.12,5.49.18C323.72,178.14,323.74,177.55,326.67,180.69Z"/>
                </g>
                <g>
                  <path class="cls-39" d="M238,178.09a2.38,2.38,0,0,1-2.54,2.21,2.3,2.3,0,1,1,.15-4.59A2.38,2.38,0,0,1,238,178.09Z"/>
                  <path class="cls-33" d="M237.35,177.18a1.94,1.94,0,1,1-1.88-2A1.95,1.95,0,0,1,237.35,177.18Z"/>
                  <path class="cls-33" d="M239.25,179.27c-2.93-3.13-2.34-3.12-5.47-.18,3.13-2.94,3.11-2.35.17-5.49,2.94,3.14,2.35,3.12,5.49.18C236.3,176.72,236.32,176.14,239.25,179.27Z"/>
                </g>
                <path class="cls-36" d="M252.26,94.21s.33,45.47,67.6,26.53c0,0-54.75,12.09-51.61-24.4C268.25,96.34,253.59,87.46,252.26,94.21Z"/>
                <g>
                  <path class="cls-40" d="M298.44,179.89c-.16.33-2.77,2.26-3.21,2.87-2,2.78-6.49,9.62-12.27,11.48a17,17,0,0,1-11.87,0c-5.37-2-7.2-6.55-10.41-11.51-.79-1.21-4.44-3.08-4-3,3,.66,10.66,3.92,22.71,3.62,9.25-.23,14.37-1.67,16.25-2.32a.46.46,0,0,1,.54.15c0,.05,2.32-1.33,2.29-1.27Z"/>
                  <path class="cls-41" d="M296.15,181.33c-1.85,3.17-5.35,12.22-11,15.77-3.55,2.22-7.32,4.47-15.7-2.23-5.1-4.08-8.49-11.07-9.22-13,3.51,3,5.69,9.77,17.1,11.63,9.95,1.62,16.76-9.9,18.86-12.22Z"/>
                  <path class="cls-42" d="M298.4,180.24c-2.65,1.06-12.6,4.66-23.41,4.21-11.08-.47-16.44-3.68-18.39-4.81,1.06,1.76-.41-.09,0,0a80.22,80.22,0,0,0,22.1,2.27c9.26-.23,17.86-1.37,19.74-2,.23-.08-.11.21,0,.35Z"/>
                  <path class="cls-43" d="M261.73,182c.23.07,13.29,4.73,31.26.2,0,0-3.7,5.91-14.43,6.2-12.27.33-16.83-6.4-16.83-6.4Z"/>
                  <path class="cls-44" d="M278,193.6a21.56,21.56,0,0,1-7.93-2.39c2.1-1.45,5.4-1.79,7-.91.06,0,.12.12.18.1,2.89-.73,7,1.09,7.69,1.88a12.05,12.05,0,0,1-7,1.32Z"/>
                  <path class="cls-10" d="M257.33,177.21s-3.43,1.68-1.05,4.4Z"/>
                  <path class="cls-10" d="M297.44,177.74s4.58.36,2.53,4.09c0,0,.6-2.41-2.53-4.09Z"/>
                  <path class="cls-42" d="M274.52,200a10.42,10.42,0,0,0,4.13.8,10.2,10.2,0,0,0,4-.8"/>
                </g>
                <path class="cls-45" d="M272.29,139.17a2.64,2.64,0,0,0,5.25-.13,2.64,2.64,0,0,0-5.25.13"/>
                <path class="cls-46" d="M272.8,151.36a16.85,16.85,0,0,1-.31,9,19.73,19.73,0,0,1-1.77,4.18c-.35.67-.77,1.32-1.12,2l-1,2.09a4.4,4.4,0,0,0,.71,4.69,5.07,5.07,0,0,0,2,1.38,9.09,9.09,0,0,0,2.29.65,8,8,0,0,0,4.69-.58,5.59,5.59,0,0,0,3-3.47l-.07,0a5.7,5.7,0,0,1-3.15,3,7.86,7.86,0,0,1-4.35.31,7.4,7.4,0,0,1-3.86-1.82,3.69,3.69,0,0,1-.7-3.9c.29-.68.63-1.4.94-2.09s.71-1.32,1.06-2a21.05,21.05,0,0,0,1.69-4.32,17.06,17.06,0,0,0,0-9.16Z"/>
                <g>
                  <g>
                    <path class="cls-33" d="M296.55,164.61a10.19,10.19,0,0,0,2.61-20.21,10,10,0,0,0-3,.07,10.21,10.21,0,0,0-2.31,19.4A10,10,0,0,0,296.55,164.61Z"/>
                    <path class="cls-47" d="M296.56,164.56a9.67,9.67,0,0,0,10.83-8.82,9.63,9.63,0,1,0-17.4,4.87A9.93,9.93,0,0,0,296.56,164.56Zm0,.1a10.09,10.09,0,0,1-6.74-3.91,10.3,10.3,0,0,1,1.83-14.35,10.07,10.07,0,0,1,14.31,1.84,10.33,10.33,0,0,1-1.87,14.36A10.1,10.1,0,0,1,296.54,164.66Z"/>
                  </g>
                  <g>
                    <path class="cls-48" d="M291.64,154.57a6.22,6.22,0,1,0,6.21-6.13,6.17,6.17,0,0,0-6.21,6.13Z"/>
                    <path class="cls-33" d="M300.24,152.05a1.51,1.51,0,0,0,2.11.18,1.46,1.46,0,0,0-.09-2.08,1.53,1.53,0,0,0-2.11-.18,1.46,1.46,0,0,0,.09,2.08Z"/>
                  </g>
                </g>
                <path class="cls-48" d="M289,137.16l-2-4s12.8-11.73,27,1.68C314,134.87,301.93,126.94,289,137.16Z"/>
                <path class="cls-48" d="M264.31,137.46l1.95-4s-12.58-11.74-26.52,1.68C239.74,135.18,251.58,127.25,264.31,137.46Z"/>
                <g>
                  <g>
                    <path class="cls-33" d="M256.11,164.1a10.16,10.16,0,0,0,2.6-20.15,9.57,9.57,0,0,0-3,.06,10.19,10.19,0,0,0-2.31,19.35A9.65,9.65,0,0,0,256.11,164.1Z"/>
                    <path class="cls-47" d="M256.12,164.05a9.89,9.89,0,0,0,7.34-2.14,9.77,9.77,0,0,0,3.46-6.66,9.59,9.59,0,0,0-19-2.45,9.78,9.78,0,0,0,1.66,7.31A9.89,9.89,0,0,0,256.12,164.05Zm0,.1a10.11,10.11,0,0,1-6.73-3.9,10.28,10.28,0,0,1,1.83-14.31,10.05,10.05,0,0,1,14.27,1.83,10.3,10.3,0,0,1-1.86,14.32A10.09,10.09,0,0,1,256.1,164.15Z"/>
                  </g>
                  <g>
                    <path class="cls-48" d="M251.21,154.08a6.21,6.21,0,1,0,6.2-6.11,6.16,6.16,0,0,0-6.2,6.11Z"/>
                    <path class="cls-33" d="M259.79,151.58a1.52,1.52,0,0,0,2.1.18,1.46,1.46,0,0,0-.09-2.08,1.52,1.52,0,0,0-2.1-.18,1.46,1.46,0,0,0,.09,2.08Z"/>
                  </g>
                </g>
              </g>
            </g>
            <path class="cls-49" d="M28.19,248c5.19-6.8,42.13,16,42.13,16s-.77,4.93,2.5,8.11,2.39,3,2.39,3l-43.34-20S25.11,252,28.19,248Z"/>
          </g>
        </g>
      </g>
    </g>
  </g>
</svg>
