<svg id="a2695116-2161-44c7-934d-02885810c423" data-name="Layer 1" xmlns="http://www.w3.org/2000/svg" width="507" height="512" viewBox="0 0 507 512">
  <defs>
    <style>
      .b2d93ab1-b8c9-417c-ac8e-a73af611eabe {
        fill: #5cff3e;
      }
    </style>
  </defs>
  <path class="b2d93ab1-b8c9-417c-ac8e-a73af611eabe" d="M322.76,42.25A93.78,93.78,0,0,1,404,89.15l69.26,120a93.79,93.79,0,0,1,0,93.78L404,422.85a93.78,93.78,0,0,1-81.22,46.9H184.24A93.78,93.78,0,0,1,103,422.85l-69.26-120a93.79,93.79,0,0,1,0-93.78L103,89.15a93.78,93.78,0,0,1,81.22-46.9H322.76m0-20H184.24A114.09,114.09,0,0,0,85.7,79.15l-69.26,120a114.1,114.1,0,0,0,0,113.78l69.26,120a114.09,114.09,0,0,0,98.54,56.9H322.76a114.09,114.09,0,0,0,98.54-56.9l69.26-120a114.1,114.1,0,0,0,0-113.78l-69.26-120a114.09,114.09,0,0,0-98.54-56.9Z"/>
</svg>
