<svg xmlns="http://www.w3.org/2000/svg" viewBox="0 0 130 130"><defs><style>.a{fill:#fff;}.b{fill:#f975a8;}.c{fill:#d8256a;}.d{fill:#f92d74;}.e{fill:#d8d8d8;}.f{fill:#fbfcfa;}</style></defs><circle class="a" cx="65" cy="65" r="65"/><circle class="b" cx="65" cy="65" r="58.23"/><circle class="c" cx="62.98" cy="67.01" r="56.22"/><circle class="d" cx="64.16" cy="65.83" r="55.04"/><path class="e" d="M66.13,38.76S94.78,58,94.78,64.89,75.06,89.4,66.13,93.2c-8.35,3.58-10.83-3.66-8.43-6.83,2.75-3.83,12.42-12.82,15.47-16.44,1-1.18,3.54-3.78.83-7.08s-15.09-15.2-15.09-15.2-4.57-4.57-1.53-8.38C60.77,35,66.13,38.76,66.13,38.76Z"/><path class="e" d="M47.78,47.54S65,59.37,65,65.91c-1.29,8-23,25.34-28.81,18.12-5.71-9.76,15.18-13.38,7.68-21.85-3.81-4-6.85-6.73-6.85-6.73s-4.21-4.08.35-7.91C42.11,43.56,47.78,47.54,47.78,47.54Z"/><path class="f" d="M66.13,37.33S94.78,56.54,94.78,63.47,75.06,88,66.13,91.81C57.78,95.39,55.3,88.15,57.7,85c2.75-3.83,12.42-12.82,15.47-16.44,1-1.18,3.54-3.78.83-7.09S58.91,46.2,58.91,46.2s-4.57-4.58-1.53-8.38C60.77,33.56,66.13,37.33,66.13,37.33Z"/><path class="f" d="M47.78,46.11S65,58,65,64.49c-1.29,8-23,25.33-28.81,18.11-5.71-9.76,15.18-13.37,7.68-21.85C40.08,56.75,37,54,37,54s-4.21-4.07.35-7.91C42.11,42.14,47.78,46.11,47.78,46.11Z"/></svg>