<svg xmlns="http://www.w3.org/2000/svg" viewBox="0 0 130 130"><defs><style>.a{fill:#fff;}.b{fill:#f975a8;}.c{fill:#d8256a;}.d{fill:#f92d74;}.e{fill:#d8d8d8;}.f{fill:#fbfcfa;}</style></defs><circle class="a" cx="65" cy="65" r="65"/><circle class="b" cx="65" cy="65" r="58.23"/><circle class="c" cx="62.98" cy="67.01" r="56.22"/><circle class="d" cx="64.16" cy="65.83" r="55.04"/><path class="e" d="M87.68,63.55C86.3,60.24,78.81,53.63,69,47.27c-9.28-6-17.89-10-21.86-10.32h-.85a4.86,4.86,0,0,0-3.1,8.32c1.07.64,2.16,1.32,3.25,2,9.87,6.36,17.36,13,18.74,16.28a5.9,5.9,0,0,1-.86,6.58C61.73,73.7,55,79.41,46.39,84.93c-1.1.7-2.19,1.38-3.26,2a4.85,4.85,0,0,0,3,8.3H47c4-.33,12.59-4.32,21.91-10.32,8.56-5.52,15.34-11.23,17.88-14.8a5.88,5.88,0,0,0,.85-6.58Z"/><path class="f" d="M87.68,61.34C86.3,58,78.81,51.43,69,45.07c-9.28-6-17.89-10-21.86-10.32h-.85a4.85,4.85,0,0,0-3.1,8.31l3.25,2c9.87,6.36,17.36,13,18.74,16.27a5.9,5.9,0,0,1-.86,6.58c-2.54,3.58-9.31,9.28-17.88,14.8-1.1.71-2.19,1.39-3.26,2a4.85,4.85,0,0,0,3,8.29H47c4-.34,12.59-4.32,21.91-10.33,8.56-5.52,15.34-11.22,17.88-14.8a5.88,5.88,0,0,0,.85-6.58Z"/></svg>