<svg xmlns="http://www.w3.org/2000/svg" viewBox="0 0 130 130"><defs><style>.a{fill:#fff;}.b{fill:#f99573;}.c{fill:#cc1b1b;}.d{fill:#f4413d;}.e{fill:#d8d8d8;}.f{fill:#fbfcfa;}</style></defs><circle class="a" cx="65" cy="65" r="65"/><circle class="b" cx="65" cy="65" r="58.23"/><circle class="c" cx="62.99" cy="67.01" r="56.22"/><circle class="d" cx="64.17" cy="65.83" r="55.04"/><path class="e" d="M66.13,38.76S94.78,58,94.78,64.89,75.06,89.4,66.13,93.23c-8.35,3.59-10.83-3.66-8.43-6.82C60.45,82.58,70.13,73.59,73.17,70c1-1.18,3.55-3.78.83-7.08S58.88,47.65,58.88,47.65s-4.57-4.58-1.53-8.38C60.77,35,66.13,38.76,66.13,38.76Z"/><path class="e" d="M47.78,47.53S65,59.37,65,65.91c-1.3,8-23,25.33-28.82,18.11-5.7-9.75,15.18-13.37,7.68-21.84-3.81-4-6.85-6.73-6.85-6.73s-4.21-4.08.35-7.92C42.12,43.56,47.78,47.53,47.78,47.53Z"/><path class="f" d="M66.13,37.33S94.78,56.54,94.78,63.47,75.06,88,66.13,91.85C57.78,95.43,55.3,88.19,57.7,85c2.75-3.83,12.43-12.82,15.47-16.44,1-1.18,3.55-3.78.83-7.09S58.88,46.27,58.88,46.27s-4.57-4.58-1.53-8.39C60.77,33.55,66.13,37.33,66.13,37.33Z"/><path class="f" d="M47.78,46.11S65,57.94,65,64.49c-1.3,8-23,25.33-28.82,18.11-5.7-9.76,15.18-13.37,7.68-21.85C40.08,56.75,37,54,37,54s-4.21-4.07.35-7.91C42.12,42.14,47.78,46.11,47.78,46.11Z"/></svg>