<svg xmlns="http://www.w3.org/2000/svg" xmlns:xlink="http://www.w3.org/1999/xlink" width="475" height="512" viewBox="0 0 475 512">
  <defs>
    <style>
      .cls-1, .cls-9 {
        fill: none;
      }

      .cls-2 {
        isolation: isolate;
      }

      .cls-3 {
        fill: #32223f;
      }

      .cls-4 {
        fill: #9edbd5;
        stroke: #6f31f7;
        stroke-width: 9px;
      }

      .cls-10, .cls-14, .cls-22, .cls-23, .cls-4, .cls-6, .cls-9 {
        stroke-miterlimit: 10;
      }

      .cls-5 {
        clip-path: url(#clip-path);
      }

      .cls-6 {
        fill: #5e6666;
        stroke: #333838;
      }

      .cls-22, .cls-23, .cls-6 {
        stroke-width: 1.07px;
      }

      .cls-7 {
        mix-blend-mode: multiply;
        opacity: 0.5;
      }

      .cls-10, .cls-14, .cls-8 {
        fill: #d0846a;
      }

      .cls-10, .cls-14, .cls-9 {
        stroke: #c16452;
      }

      .cls-10, .cls-9 {
        stroke-width: 0.71px;
      }

      .cls-11 {
        fill: #b76f5c;
      }

      .cls-12, .cls-20 {
        fill: #a5644f;
      }

      .cls-12 {
        opacity: 0.4;
      }

      .cls-13 {
        fill: #975238;
      }

      .cls-14 {
        stroke-width: 1.43px;
      }

      .cls-15 {
        fill: #1c0900;
      }

      .cls-16 {
        fill: #f0f0ed;
      }

      .cls-17 {
        fill: #030000;
      }

      .cls-18 {
        fill: #2c1117;
      }

      .cls-19 {
        fill: #040000;
      }

      .cls-21 {
        fill: #2b101a;
      }

      .cls-22 {
        fill: #e8deaf;
        stroke: #c1b891;
      }

      .cls-23 {
        fill: #f99746;
        stroke: #e0843f;
      }

      .cls-24 {
        fill: #ffbe39;
      }
    </style>
    <clipPath id="clip-path">
      <path class="cls-1" d="M296.11,31.2h-104a93.79,93.79,0,0,0-83.49,51.06l-61.39,120a93.78,93.78,0,0,0,0,85.45l61.39,120c16,31.34,16.75,56.87,83.49,51.06h104a93.8,93.8,0,0,0,83.49-51.06l61.38-120a93.78,93.78,0,0,0,0-85.45l-61.38-120A93.8,93.8,0,0,0,296.11,31.2Z"/>
    </clipPath>
  </defs>
  <g class="cls-2">
    <g id="Layer_1" data-name="Layer 1">
      <g>
        <g>
          <path class="cls-3" d="M306.76,53.31H168.24A93.77,93.77,0,0,0,87,100.2l-69.26,120a93.81,93.81,0,0,0,0,93.79L87,433.91a93.77,93.77,0,0,0,81.22,46.89H306.76A93.77,93.77,0,0,0,388,433.91l69.26-120a93.81,93.81,0,0,0,0-93.79L388,100.2A93.77,93.77,0,0,0,306.76,53.31Z"/>
          <path class="cls-4" d="M306.76,36.31H168.24A93.77,93.77,0,0,0,87,83.2l-69.26,120a93.81,93.81,0,0,0,0,93.79L87,416.91a93.77,93.77,0,0,0,81.22,46.89H306.76A93.77,93.77,0,0,0,388,416.91l69.26-120a93.81,93.81,0,0,0,0-93.79L388,83.2A93.77,93.77,0,0,0,306.76,36.31Z"/>
        </g>
        <g class="cls-5">
          <g>
            <g>
              <path class="cls-6" d="M161.39,698.47h32.75c.5-49.21.5-228.91,4.09-269.14.12-.12,12.67-.12,12.79,0,3.59,40.23,3.58,219.93,4.09,269.14h32.75c5.51-41.48,10-155.36,11.23-178.46,1.36-26.43,1.77-57.68,1.77-84.52,0-30.56-.35-56.1-5.71-85.51-.11-.63-28.23-1.19-50.53-1.15s-50.41.52-50.52,1.15c-5.36,29.41-5.71,54.95-5.71,85.51,0,26.84.4,58.09,1.77,84.52C151.35,543.11,155.88,657,161.39,698.47Z"/>
              <g class="cls-7">
                <path class="cls-6" d="M210.57,418.92c-5.63-.4-8.58.17-9.54-5.88-.71-4.51-.14-9.75-.23-14.31-.16-8.07-.14-16.17-.86-24.21-.12-1.4-2.33-1.19-2.42.16-.86,13.16-.26,26.51-.12,39.69.11,9.71,2.94,8.36,12.94,7.77C212.34,422,212.71,419.07,210.57,418.92Z"/>
                <path class="cls-6" d="M254.63,384.61c-4.95-.49-9.53-.05-14.28-1.94s-7.49-5.81-11.7-8.19a.93.93,0,0,0-1.34,1c2.16,9.71,19.73,15.29,27.92,11.31C256.4,386.26,255.68,384.72,254.63,384.61Z"/>
                <path class="cls-6" d="M156.7,384.61c4.94-.49,9.52-.05,14.28-1.94s7.49-5.81,11.69-8.19a.93.93,0,0,1,1.35,1c-2.16,9.71-19.73,15.29-27.92,11.31C154.93,386.26,155.64,384.72,156.7,384.61Z"/>
              </g>
            </g>
            <g id="face">
              <g>
                <g>
                  <g>
                    <path class="cls-8" d="M155.9,189c8-1.31,17.42-2.13,27.16-6.07,3.18-1.29,6.71-2.2,9.35-3.49l.12-16.75,13.82.1h.89l13.81.1-.12,16.76c2.62,1.33,6.13,2.29,9.3,3.62,9.77,4.12,19.24,5.06,27.28,6.51-.29,7.12.09,30.58.09,30.58L206.37,220l-50.85-.36S155.67,197.78,155.9,189Z"/>
                    <path class="cls-9" d="M155.9,189c8-1.31,17.42-2.13,27.16-6.07,3.18-1.29,6.71-2.2,9.35-3.49l.12-16.75,13.82.1h.89l13.81.1-.12,16.76c2.62,1.33,6.13,2.29,9.3,3.62,9.77,4.12,19.24,5.06,27.28,6.51-.29,7.12.09,30.58.09,30.58L206.37,220l-50.85-.36S155.67,197.78,155.9,189Z"/>
                  </g>
                  <path class="cls-8" d="M206.69,177a29.65,29.65,0,0,1-14.24-3.46l.06-8.23,13.82.1h.89l13.81.1-.06,8.22A29.47,29.47,0,0,1,206.69,177Z"/>
                </g>
                <path class="cls-8" d="M207.37,79.31c-7.17-.06-19.05,3.11-27,10.66-7,6.69-9.36,17.29-8,28.41,2.54,21.13,4.12,29.8,7.83,35.34,3.29,4.92,7.38,17.4,26.24,17.53s24.1-12.27,27.46-17.14c3.79-5.48,5.5-14.13,8.34-35.22,1.5-11.1-.69-21.74-7.61-28.53-7.82-7.66-19.66-11-26.82-11Z"/>
                <g>
                  <g>
                    <g>
                      <path class="cls-8" d="M184.19,123.4a3.43,3.43,0,0,0-.88,1.38,1.63,1.63,0,0,0,.3,1.55,1.81,1.81,0,0,0,1.7.4A8.73,8.73,0,0,0,187,126a15.65,15.65,0,0,1,7.6-1.16c2,.11,5.15,1,6.92-.46l.08,0a2.24,2.24,0,0,0,.52-3.49,5.65,5.65,0,0,0-4-1.58,23.87,23.87,0,0,0-7.51.9,14.06,14.06,0,0,0-6.12,2.9Z"/>
                      <path class="cls-8" d="M189.29,130.56A3.64,3.64,0,1,0,193,127,3.64,3.64,0,0,0,189.29,130.56Z"/>
                    </g>
                    <g>
                      <path class="cls-8" d="M230,123.42a14,14,0,0,0-6.07-3,23.34,23.34,0,0,0-7.5-1,5.63,5.63,0,0,0-4,1.52,2.24,2.24,0,0,0,.47,3.5l.07,0c1.75,1.48,4.88.64,6.92.56a15.71,15.71,0,0,1,7.58,1.27,7.8,7.8,0,0,0,1.67.74,1.79,1.79,0,0,0,1.7-.38,1.64,1.64,0,0,0,.32-1.54,3.53,3.53,0,0,0-.86-1.39C230.23,123.63,230.12,123.52,230,123.42Z"/>
                      <path class="cls-8" d="M225.13,130.82a3.64,3.64,0,1,1-3.61-3.66A3.64,3.64,0,0,1,225.13,130.82Z"/>
                    </g>
                  </g>
                  <path class="cls-8" d="M218.12,152.72c-4,2.14-7,4.09-11.86,3.41A31.54,31.54,0,0,1,196,152.7c-.64-.33-1.41.51-.82,1,6.06,5.38,18.14,6.57,23.76,0A.68.68,0,0,0,218.12,152.72Z"/>
                  <g>
                    <path class="cls-8" d="M206.87,148.33c-6.46-.72-2.47-6.9-1.65-10.22a37.62,37.62,0,0,0,.72-8.86.18.18,0,0,0-.35-.05c-.93,3.2-1.84,6.53-2.91,9.7-.75,2.22-2.24,4.51-2.3,6.9-.08,3.86,3.37,5.38,6.72,4.32A.91.91,0,0,0,206.87,148.33Z"/>
                    <path class="cls-8" d="M213.54,145a.93.93,0,0,0-1.73.45c.13,1.54-1.18,1.62-2.27,2.23a.52.52,0,0,0,.11.94C211.74,149.32,214.72,147.38,213.54,145Z"/>
                  </g>
                </g>
              </g>
            </g>
            <path class="cls-10" d="M156.25,251.73c3.54-24.71.39-53.36-11.35-55h0c-11.73-1.62-21.06,12.11-24.31,46.29-2.38,25-11.39,94.08,3.72,97.14C143.37,344.05,152.63,277,156.25,251.73Z"/>
            <path class="cls-11" d="M305.15,303c-8.36-1.91-19.25-1.21-27.66.23-.53.09-.38.89.12.91,4.55.16,9.14-.15,13.7-.16s9.21.56,13.7.05C305.55,304,305.77,303.18,305.15,303Z"/>
            <g id="ears">
              <g>
                <path class="cls-8" d="M241.11,124.14s4.86-8.81,10.48-6.21c3.16,1.45.28,24.61-10.48,23.49,0,0-1.91-.62-2.05-4.35Z"/>
                <path class="cls-12" d="M249.1,120.84s3.05,8.86-1.1,11c0,0-2.2.68-2.08,1.64s-.86,7.38-3.34,5.32c0,0-1.92-2.92.48-4s.7-1.13-1.2-3.46C241.86,131.29,245.4,120.19,249.1,120.84Z"/>
                <path class="cls-13" d="M250.1,127.37a24.31,24.31,0,0,0-.72-4.73,3.92,3.92,0,0,0-.45-1c-.22-.27-.32-.28-.44-.23-.27,0-.3.16-.4.22s-.27.23-.4.33a9.31,9.31,0,0,0-.8.85,23.66,23.66,0,0,0-2.64,4,9.32,9.32,0,0,0-1.36,4.17l-.2-.35A9.7,9.7,0,0,1,244.5,133a2.78,2.78,0,0,1,.27.8,1.16,1.16,0,0,1-.39,1.09,2,2,0,0,1-.94.33l-.35.06-.17.07a2,2,0,0,0-.72,2,2.78,2.78,0,0,0,1.36,2.14,3,3,0,0,1-1.92-2,2.47,2.47,0,0,1,.71-2.87c.15-.08.31-.17.48-.24l.35-.1a1.12,1.12,0,0,0,.41-.14s0,0,0-.14a1.76,1.76,0,0,0-.21-.45,10.81,10.81,0,0,0-1.71-1.91l-.16-.14,0-.21a5.4,5.4,0,0,1,.36-2.71,15.25,15.25,0,0,1,1-2.34,20,20,0,0,1,3-4.18,9.85,9.85,0,0,1,1-.93,5.28,5.28,0,0,1,.63-.42,2.77,2.77,0,0,1,.78-.31,1.57,1.57,0,0,1,1.69.82,4.6,4.6,0,0,1,.4,1.3A15.8,15.8,0,0,1,250.1,127.37Z"/>
                <path class="cls-13" d="M248.35,129.47a10.53,10.53,0,0,0-.66-3.31,3.8,3.8,0,0,0-1.23-1.71,1.74,1.74,0,0,0-.55-.23l-.21-.06.46-1.39.39.18a3.08,3.08,0,0,1,.84.62,4.37,4.37,0,0,1,1.07,2.42A10.67,10.67,0,0,1,248.35,129.47Z"/>
              </g>
              <g>
                <path class="cls-8" d="M171.09,124.14s-4.87-8.81-10.49-6.21c-3.15,1.45-.27,24.61,10.49,23.49,0,0,1.91-.62,2-4.35Z"/>
                <path class="cls-12" d="M163.1,120.84s-3,8.86,1.1,11c0,0,2.2.68,2.07,1.64s.86,7.38,3.34,5.32c0,0,1.92-2.92-.47-4s-.7-1.13,1.2-3.46C170.34,131.29,166.8,120.19,163.1,120.84Z"/>
                <path class="cls-13" d="M162.1,127.37a15.8,15.8,0,0,1-.19-4.91,4.3,4.3,0,0,1,.4-1.3,1.54,1.54,0,0,1,1.68-.81,2.39,2.39,0,0,1,.79.3c.28.15.41.28.63.42a11.06,11.06,0,0,1,1,.93,19.91,19.91,0,0,1,3,4.18,15.25,15.25,0,0,1,1,2.34,5.19,5.19,0,0,1,.36,2.71l0,.21-.17.14a10.37,10.37,0,0,0-1.7,1.91,1.47,1.47,0,0,0-.21.45c-.06.16,0,.12,0,.14a1.11,1.11,0,0,0,.4.14l.36.1c.16.07.33.16.48.24a2.47,2.47,0,0,1,.71,2.87,3,3,0,0,1-1.92,2,2.83,2.83,0,0,0,1.36-2.14,2,2,0,0,0-.72-2l-.18-.07-.35-.06a2,2,0,0,1-.94-.33,1.15,1.15,0,0,1-.38-1.09,2.29,2.29,0,0,1,.27-.8,9.7,9.7,0,0,1,1.81-2.33l-.2.35a9.22,9.22,0,0,0-1.37-4.17,23,23,0,0,0-2.63-4,9.31,9.31,0,0,0-.8-.85c-.13-.1-.31-.27-.4-.33s-.13-.17-.4-.22-.22,0-.45.23a4.29,4.29,0,0,0-.44,1A23.57,23.57,0,0,0,162.1,127.37Z"/>
                <path class="cls-13" d="M163.84,129.47a10.67,10.67,0,0,1-.11-3.48,4.45,4.45,0,0,1,1.08-2.42,3.08,3.08,0,0,1,.84-.62l.38-.18.47,1.39-.21.06a1.66,1.66,0,0,0-.55.23,3.73,3.73,0,0,0-1.23,1.71A10.75,10.75,0,0,0,163.84,129.47Z"/>
              </g>
            </g>
            <path class="cls-14" d="M201.94,174s-18.49-11.36-24.19-18.17c-5.19-6.23-8.77-34.75-9.36-39.69l-.06-.48,0-.25h0c-.1-1-.16-2-.16-3.09,0-19,16.88-34.41,37.7-34.41s37.7,15.41,37.7,34.41a31.56,31.56,0,0,1-.21,3.66h0s-3.7,33-9.39,39.85S209.76,174,209.76,174,206.74,175.51,201.94,174Z"/>
            <path class="cls-13" d="M219.59,116.23a44.13,44.13,0,0,0-4.48,4c-.55.53-1,1.12-1.45,1.65s-.76,1.1-1.09,1.56a3.75,3.75,0,0,0-.33.67c-.09.21-.16.39-.23.54l-.2.47.11-.49c0-.16.08-.35.14-.57a2.87,2.87,0,0,1,.21-.74c.24-.5.47-1.13.81-1.75s.72-1.3,1.17-1.92a45.76,45.76,0,0,1,3.82-4.84Z"/>
            <g id="eye_bros" data-name="eye bros">
              <path class="cls-15" d="M200,112.49s-.62,4.45-2.44,4.82c-5.09,1-14.19-3.88-21.77,1.46a7.35,7.35,0,0,1,5-5.82C185.23,111.61,198.53,113.21,200,112.49Z"/>
              <path class="cls-15" d="M213.08,112.86s.35,4.43,2.1,4.73c4.89.83,14-4.49,21.11.52,0,0-.3-4.44-4.54-5.6S214.48,113.53,213.08,112.86Z"/>
            </g>
            <g>
              <path class="cls-16" d="M197.76,126.82a2.63,2.63,0,0,0,.3-1.85c-.27-.93-9.56-8-15.76.62C182.3,125.59,189.22,134.4,197.76,126.82Z"/>
              <path class="cls-17" d="M185.23,128.17l-1.84-.88c-.61-.29-1.23-.67-1.86-1L181,126l.41-.9h0l.74-.93a6.07,6.07,0,0,1,.8-.89l.94-.8a7.72,7.72,0,0,1,1.06-.69,4.75,4.75,0,0,1,1.16-.55,7.79,7.79,0,0,1,1.24-.4c.43-.07.85-.17,1.29-.21l1.29,0a12.62,12.62,0,0,1,2.48.45,13,13,0,0,1,2.24.92,15.53,15.53,0,0,1,2,1.27c.29.25.6.48.87.76a3,3,0,0,1,.72,1h0a6.82,6.82,0,0,1-.32,1.58,6.09,6.09,0,0,0,0-1.54v0a3.8,3.8,0,0,0-.78-.66c-.3-.21-.62-.39-.94-.58a12.62,12.62,0,0,0-2-.91,13.51,13.51,0,0,0-2.11-.58,11.08,11.08,0,0,0-2.14-.16,10.2,10.2,0,0,0-2,.38,5,5,0,0,0-.93.38,3.19,3.19,0,0,0-.86.49,6.59,6.59,0,0,0-.82.56l-.74.68c-.49.45-.89,1-1.35,1.52h0l-.12-1.2c.32.51.6,1.06,1,1.61Z"/>
            </g>
            <g>
              <path class="cls-18" d="M195.05,125.13a4,4,0,1,1-4-3.61A3.8,3.8,0,0,1,195.05,125.13Z"/>
              <path class="cls-19" d="M193,125.13a1.87,1.87,0,1,1-1.86-1.7A1.78,1.78,0,0,1,193,125.13Z"/>
              <path class="cls-16" d="M190.33,123.9a.95.95,0,1,1-.94-.86A.91.91,0,0,1,190.33,123.9Z"/>
            </g>
            <g>
              <path class="cls-16" d="M215.37,126.82a2.57,2.57,0,0,1-.3-1.85c.26-.93,9.56-8,15.75.62C230.82,125.59,223.91,134.4,215.37,126.82Z"/>
              <path class="cls-17" d="M227.9,128.17l1.16-1.63c.39-.55.67-1.1,1-1.61l-.11,1.2h0c-.46-.5-.86-1.07-1.35-1.52l-.74-.68a6.59,6.59,0,0,0-.82-.56,3.35,3.35,0,0,0-.86-.49,4.66,4.66,0,0,0-.93-.38,10.17,10.17,0,0,0-2-.38,11.89,11.89,0,0,0-2.13.16,13.62,13.62,0,0,0-2.12.58,13,13,0,0,0-2,.91c-.31.19-.64.37-.93.58a3.55,3.55,0,0,0-.78.66v0a7.19,7.19,0,0,0,0,1.54,6.82,6.82,0,0,1-.32-1.58h0a3,3,0,0,1,.72-1,9.1,9.1,0,0,1,.87-.76,15.41,15.41,0,0,1,2-1.27,13.11,13.11,0,0,1,2.25-.92,12.53,12.53,0,0,1,2.47-.45l1.3,0c.43,0,.86.14,1.29.21a7.79,7.79,0,0,1,1.24.4,4.75,4.75,0,0,1,1.16.55,8.38,8.38,0,0,1,1.06.69l.93.8a5.55,5.55,0,0,1,.8.89l.74.93h0l.42.9-.53.3c-.64.36-1.26.74-1.86,1Z"/>
            </g>
            <g>
              <path class="cls-18" d="M218.07,125.13a4,4,0,1,0,4-3.61A3.8,3.8,0,0,0,218.07,125.13Z"/>
              <path class="cls-19" d="M220.17,125.13a1.87,1.87,0,1,0,1.86-1.7A1.78,1.78,0,0,0,220.17,125.13Z"/>
              <path class="cls-16" d="M222.8,123.9a.94.94,0,1,0,.94-.86A.91.91,0,0,0,222.8,123.9Z"/>
            </g>
            <g id="nose">
              <path class="cls-20" d="M209.65,131.2a95.59,95.59,0,0,0-.22,10.78c.16,2.37-1.15,3.73-2.4,4,0,0,5.22.76,6-3.72C213.56,139.21,210.45,135.9,209.65,131.2Z"/>
              <path class="cls-13" d="M204.31,145.5s-5-1.59-4.17-.18S204.31,145.5,204.31,145.5Z"/>
            </g>
            <g>
              <path class="cls-15" d="M165,118s3.76,1.82,5.3,8.94c0,0,2.08-3.25,2.79-10.08s2-8.72,4.71-13.51c0,0,6.68-9.91,3.75-19.23-1.86-5.94-11.71-8.83-15.41-2.27C158.9,94.73,163.54,115.61,165,118Z"/>
              <path d="M176.86,77.89c-4.13-4.77,3.35-9.6,10.07-12.73-7.13,1.69-16.62,5.65-15.21,14.72l8.34,8.77s9.58,12.39,22.55,15a112.63,112.63,0,0,1-10-6.25S206,104,220.73,105.2c0,0-9.39-2.92-12.87-7,0,0,9.15,6,26,7,0,0-6.41-1.89-8.8-4.16,0,0,8.64,2.14,11.47,4.16s5.29,18.27,5.29,18.27a25.16,25.16,0,0,1,4.16-4.86s4.08-20.36,2.36-25.91l-.27-.86C240.78,106.09,183.23,85.24,176.86,77.89Z"/>
              <path class="cls-15" d="M169.39,99.19c-4.09-6-4.62-17.52,2.85-21.09h0a7.14,7.14,0,0,0-6.06,3.73c-7.28,12.9-2.64,33.78-1.14,36.15,0,0,3.76,1.82,5.3,8.94,0,0,2.08-3.25,2.79-10.08a34.08,34.08,0,0,1,1.07-6C173.33,107.51,171.79,102.71,169.39,99.19Z"/>
              <path class="cls-21" d="M248.1,91.84c-2.33-7-11.95-29.88-53.76-27.86a49,49,0,0,0-7,1.1c-1.54,1.12-2.15,2.52-.87,4.25C191.08,75.66,234.17,65.33,248.1,91.84Z"/>
              <path class="cls-15" d="M180.06,88.65s9.58,12.39,22.55,15a112.63,112.63,0,0,1-10-6.25S206,104,220.73,105.2c0,0-9.39-2.92-12.87-7,0,0,9.15,6,26,7,0,0-6.41-1.89-8.8-4.16,0,0,8.64,2.14,11.47,4.16s5.29,18.27,5.29,18.27a25.16,25.16,0,0,1,4.16-4.86s4.08-20.36,2.36-25.91c-1.79-5.77-10.32-30.83-54-28.72,0,0-24.84,1.62-22.62,15.9Z"/>
            </g>
            <g id="mouth">
              <path class="cls-16" d="M206.24,152c-6.75-.1-12.27-.64-12.27-.64.73,3.1,6.85,4.18,12.27,4.19s11.54-1.09,12.27-4.19C218.51,151.32,213,151.86,206.24,152Z"/>
              <path class="cls-15" d="M222.73,149.94c-3.45-2.43-15.93-3.16-15.93-3.16s-12.47.73-15.93,3.16-2.47,5.57-2.47,5.57,1.77-3.67,4.26-3.21c1.41.26,14.14,1.13,14.14-2.44,0,3.57,12.71,2.38,14.14,2.44,1.95.08,4.27,2.78,4.27,2.78S226.19,152.38,222.73,149.94Z"/>
            </g>
            <path class="cls-10" d="M262.12,251.44c-8.27-23.56-10.73-52.27.46-56.13h0c11.2-3.87,23,7.79,32.83,40.69,7.17,24,31.68,88.95,15.6,97.07C293.66,341.84,270.56,275.51,262.12,251.44Z"/>
            <g>
              <path class="cls-22" d="M228.76,183a22.16,22.16,0,0,1-44.32-.63c-17.39,2.68-36.28,7-36.28,7l5.92,166.75,102.52.75L265,190.22S246.32,185.91,228.76,183Z"/>
              <path class="cls-22" d="M154.59,199.86c-.76-2.81.21-11.58-4.64-10.89-7.57,1.08-13.08,5.84-16.71,10.84-6,8.31-12.77,19.37-15,43-.25,2.64-.58,5.78-.94,9.29-.66,6.34-1.41,13.53-2.08,21.28a2.37,2.37,0,0,0,1.89,2.54c11.68,2.38,34.5,7,37.12,5.27s6-15.36,10.13-37.24S158,212.24,154.59,199.86Z"/>
              <path class="cls-22" d="M253.68,200.24c.21-2.9.08-11.73,3.35-11.22,5.09.79,11.23,1.53,16.29,4.16,17,8.83,34.08,63.2,35.56,70.84.44,2.34-4.39,3.86-14.68,8.91-10.7,5.26-22.18,8-25.09,6.82S261,266,252.67,245.38,252.79,213,253.68,200.24Z"/>
            </g>
            <path class="cls-23" d="M283.86,472.87l-9-202c.2-10.62-4.78-18.88-6.87-27.2-1.31-5.21-5.42-5.87-9-5.59-2.72-6.1-21.81-48.77-27.15-57.5q-3.36-.23-6.85-.36c2,4.89,17.8,32.78,23.21,58.7l-8.3.13-47.31.71c-1-4.15-13.13-56.73-18-57.83l-5.61.47s12.62,29.64,13.95,57.5h0l-2.08,0c-3.18.05-5.79,2.34-5.88,5.21-.76,22.75-25,37.67-25,37.67l-1.6,93.55c2.4,11,5.11,24.56,7.89,38.82,4.51,23,9.23,47.72,13.26,65.65,2,9.06,20.77,7.81,31.06,7.81h66.47C276.61,488.68,284.28,481.45,283.86,472.87Z"/>
            <path class="cls-24" d="M334.44,678.84l-17.37,5.22-130-432.24a9.07,9.07,0,0,1,6.07-11.3h0a9.06,9.06,0,0,1,11.29,6.08Z"/>
            <path class="cls-10" d="M220.91,301.42c-.92-2.36-.82-3.12-1.23-4.19,2,1.15,9,5.49,10.78,8.14,15.34-2,59.17-1.49,71.57-1.09,12,.39,15.31,4.71,12.35,16.72-1.66,6.69.76,10.17-4.35,12.53-3.11,1.44-7.73,1.08-11.47.86-20.18-1.19-61-7.85-68-7.61-4.35.14-6.7.48-11.33,0-7-.67-8.05-2.07-12.92-3.78-3.72-1.3-5.34-5.52-1.46-6.24-4.25-1-6.1-5.34-1.93-7-4.63.25-6.1-5.8-1.75-6.72-4.24-2-2.41-7.14,1.65-6.22C208.46,298.13,217.53,299.23,220.91,301.42Z"/>
            <path class="cls-10" d="M213,339.9a38.76,38.76,0,0,0-1.95-5.35c-.69,1.79-.76,3.56-3.21,5.61-14.23-6.1-57-21.92-69-24.89-11.65-2.88-21.34,1-21.74,13.34-.22,6.89,1,12.54,5.25,16.19,2.61,2.23,7.2,3.6,10.87,4.4,19.74,4.31,62,8.15,68.42,10.39,4.12,1.43,15.5,5.5,20.08,6.34,7,1.26,13.92-1.19,19.61.3,3.81,1,2.76-6.4-1.58-6.24,4.22,0,2.15-6-2.81-7.21,4.34-1.92,2.5-7.53-2.31-8.11,2.67-1.85,1.26-6.86-2.9-7.08C225.86,337.29,216.59,339.39,213,339.9Z"/>
          </g>
        </g>
      </g>
    </g>
  </g>
</svg>
