<svg xmlns="http://www.w3.org/2000/svg" xmlns:xlink="http://www.w3.org/1999/xlink" width="475" height="512" viewBox="0 0 475 512">
  <defs>
    <style>
      .cls-1 {
        fill: none;
      }

      .cls-2 {
        isolation: isolate;
      }

      .cls-3 {
        fill: #32223f;
      }

      .cls-4 {
        fill: #9edbd5;
        stroke: #6f31f7;
        stroke-width: 9px;
      }

      .cls-10, .cls-11, .cls-12, .cls-13, .cls-19, .cls-22, .cls-23, .cls-24, .cls-25, .cls-26, .cls-28, .cls-31, .cls-4, .cls-41, .cls-54, .cls-55, .cls-56, .cls-6 {
        stroke-miterlimit: 10;
      }

      .cls-5 {
        clip-path: url(#clip-path);
      }

      .cls-46, .cls-6 {
        fill: #fff;
      }

      .cls-6 {
        stroke: #b3bfc9;
      }

      .cls-7 {
        fill: #58646d;
      }

      .cls-18, .cls-29, .cls-35, .cls-7 {
        mix-blend-mode: multiply;
      }

      .cls-29, .cls-35, .cls-7 {
        opacity: 0.3;
      }

      .cls-8 {
        fill: #58595b;
      }

      .cls-9 {
        fill: #808285;
      }

      .cls-10, .cls-26 {
        fill: #d6e7ed;
      }

      .cls-10, .cls-22, .cls-23, .cls-25, .cls-26, .cls-41, .cls-55, .cls-56 {
        stroke: #755339;
      }

      .cls-11 {
        fill: #5a684e;
      }

      .cls-11, .cls-13 {
        stroke: #46563b;
      }

      .cls-12 {
        fill: #cbd8c3;
        stroke: #8f9e85;
      }

      .cls-13 {
        fill: #67775c;
      }

      .cls-14 {
        fill: #efd952;
      }

      .cls-15 {
        fill: #4c3724;
      }

      .cls-16 {
        fill: #684d36;
      }

      .cls-17, .cls-18 {
        fill: #939598;
      }

      .cls-18 {
        opacity: 0.4;
      }

      .cls-19, .cls-31 {
        fill: #3fa4a9;
      }

      .cls-19 {
        stroke: #496375;
      }

      .cls-20 {
        fill: #3f7248;
      }

      .cls-21 {
        fill: #2c5935;
      }

      .cls-22 {
        fill: #61ad77;
      }

      .cls-23, .cls-24 {
        fill: #2c94af;
      }

      .cls-24 {
        stroke: #382519;
      }

      .cls-25, .cls-48 {
        fill: #f9dad2;
      }

      .cls-25, .cls-26, .cls-41 {
        stroke-width: 0.75px;
      }

      .cls-27, .cls-28, .cls-29 {
        fill: #414042;
      }

      .cls-28 {
        stroke: #0c4c4a;
      }

      .cls-30 {
        fill: #005451;
      }

      .cls-31 {
        stroke: #268787;
      }

      .cls-32 {
        fill: #007676;
      }

      .cls-33 {
        fill: #008789;
      }

      .cls-34, .cls-35 {
        fill: #6d6e71;
      }

      .cls-36 {
        fill: #aa114f;
      }

      .cls-37 {
        fill: #f7e7ee;
      }

      .cls-38 {
        fill: #f4bed6;
      }

      .cls-39 {
        fill: #82bad8;
      }

      .cls-40 {
        fill: #99cef2;
      }

      .cls-41 {
        fill: #f99269;
      }

      .cls-42 {
        fill: #c6613e;
      }

      .cls-43 {
        fill: #25351b;
      }

      .cls-44 {
        fill: #e29164;
      }

      .cls-45 {
        fill: #562b16;
      }

      .cls-47 {
        fill: #4c3c0f;
      }

      .cls-49 {
        fill: #755339;
      }

      .cls-50 {
        fill: #c45f37;
      }

      .cls-51 {
        fill: #b26b51;
      }

      .cls-52 {
        fill: #182311;
      }

      .cls-53 {
        fill: #80ea3b;
      }

      .cls-54 {
        fill: #aff2f2;
        stroke: #4c3c0f;
        stroke-width: 0.25px;
      }

      .cls-55 {
        fill: #84acaf;
      }

      .cls-55, .cls-56 {
        stroke-width: 0.5px;
      }

      .cls-56 {
        fill: #d7f3f7;
      }
    </style>
    <clipPath id="clip-path">
      <path class="cls-1" d="M304,38.58H171A93.79,93.79,0,0,0,89.8,85.47L23.33,200.61a93.79,93.79,0,0,0,0,93.78L89.8,409.53c16.76,29,44.2,48.47,81.22,46.89H304C332,459,367,443,385.2,409.53l66.47-115.14a93.79,93.79,0,0,0,0-93.78L385.2,85.47A93.79,93.79,0,0,0,304,38.58Z"/>
    </clipPath>
  </defs>
  <g class="cls-2">
    <g id="Layer_1" data-name="Layer 1">
      <g>
        <g>
          <path class="cls-3" d="M306.76,50.75H168.24A93.78,93.78,0,0,0,87,97.65l-69.26,120a93.79,93.79,0,0,0,0,93.78L87,431.35a93.78,93.78,0,0,0,81.22,46.9H306.76A93.78,93.78,0,0,0,388,431.35l69.26-120a93.79,93.79,0,0,0,0-93.78L388,97.65A93.78,93.78,0,0,0,306.76,50.75Z"/>
          <path class="cls-4" d="M306.76,33.75H168.24A93.78,93.78,0,0,0,87,80.65l-69.26,120a93.79,93.79,0,0,0,0,93.78L87,414.35a93.78,93.78,0,0,0,81.22,46.9H306.76A93.78,93.78,0,0,0,388,414.35l69.26-120a93.79,93.79,0,0,0,0-93.78L388,80.65A93.78,93.78,0,0,0,306.76,33.75Z"/>
        </g>
        <g class="cls-5">
          <g>
            <g>
              <g>
                <g>
                  <path class="cls-6" d="M345.6,372.34h-9.27V-26.38L132.79,16.91l71.43,70.8-5.06,9.48L122.58,23.85a8.87,8.87,0,0,1,4.28-15.08L345.6-37.83Z"/>
                  <polygon class="cls-7" points="336.33 372.34 336.33 -26.38 132.79 16.91 200.51 84.64 199.59 90.87 125.42 14.59 340.96 -32.11 339.87 372.34 336.33 372.34"/>
                </g>
                <g>
                  <path class="cls-8" d="M146.94,17A16.7,16.7,0,1,1,130.24.25,16.7,16.7,0,0,1,146.94,17Z"/>
                  <path class="cls-9" d="M140.58,17A10.34,10.34,0,1,1,130.24,6.61,10.34,10.34,0,0,1,140.58,17Z"/>
                </g>
                <g>
                  <path class="cls-10" d="M285.71,165.23S283,177,248.5,182.1a336.76,336.76,0,0,1-34.18-52.22l-23.91,16.05s26.3,43.38,41.67,56.71,34.16,6.14,34.16,6.14l11.62-4.44,6.49-28Z"/>
                  <path class="cls-10" d="M248.5,182.1s-2.41,3.11-2.07,10.63"/>
                </g>
              </g>
              <g>
                <path class="cls-11" d="M193.05,77.8l-4.29,26,24.39,4.08,3.38-25.59S205,71.5,193.05,77.8Z"/>
                <g>
                  <path class="cls-12" d="M242.37,160.51c-2.54,17.06-15.24-10-38.27-13.44s-60.09,13.34-57.55-3.73,31.94-46.89,55-43.46S244.91,143.44,242.37,160.51Z"/>
                  <path class="cls-13" d="M191.35,167.9c-26.41-5.37-46.47-16.36-44.8-24.55,1.18-5.84,13-8.68,29.29-7.9a144.35,144.35,0,0,1,21.53,2.78,147.31,147.31,0,0,1,18.73,5.08c16.5,5.72,27.32,13.38,26.07,19.48C240.51,171,217.75,173.26,191.35,167.9Z"/>
                </g>
                <path class="cls-14" d="M210.11,150.53c-6.35,7.18-17.09,8.06-24,2A16.48,16.48,0,0,1,181,136.93a118.13,118.13,0,0,1,17.65,2.27A121.56,121.56,0,0,1,214,143.36,18,18,0,0,1,210.11,150.53Z"/>
              </g>
              <ellipse class="cls-15" cx="204.43" cy="88.97" rx="5.27" ry="6.11"/>
              <ellipse class="cls-16" cx="202.96" cy="88.76" rx="5.27" ry="6.11"/>
            </g>
            <g>
              <g>
                <g>
                  <rect class="cls-17" x="323.94" y="260.7" width="8.67" height="17.01"/>
                  <rect class="cls-18" x="323.94" y="260.7" width="2.7" height="17.01"/>
                </g>
                <g>
                  <rect class="cls-17" x="369.9" y="260.7" width="8.67" height="17.01"/>
                  <rect class="cls-18" x="369.9" y="260.7" width="2.69" height="17.01"/>
                </g>
              </g>
              <path class="cls-19" d="M387.56,259.47a5.82,5.82,0,0,1-5.69,5.9H320.64a5.82,5.82,0,0,1-5.69-5.9V229.33a5.81,5.81,0,0,1,5.69-5.89h61.23a5.81,5.81,0,0,1,5.69,5.89Z"/>
              <path class="cls-19" d="M397.44,370.88a6.55,6.55,0,0,1-6.42,6.64H311.49a6.55,6.55,0,0,1-6.42-6.64V284a6.56,6.56,0,0,1,6.42-6.65H391a6.56,6.56,0,0,1,6.42,6.65Z"/>
            </g>
            <path class="cls-20" d="M359.41,313.46s.35,59.83-6.82,98.4l-79.26-9.93s14.3-70.33,8.81-98.33C277.11,277.94,353.61,295,359.41,313.46Z"/>
            <path class="cls-21" d="M293.69,325.19c10,7.53,17.57,8.53,27.11,8.53C320.8,333.72,304.23,341.25,293.69,325.19Z"/>
            <path class="cls-22" d="M286.66,291.23s7.17,8.39,42.69,1.53l.35-28.49-44.41,5.59Z"/>
            <path class="cls-23" d="M286.66,169a12.31,12.31,0,0,1,.07-1.77c.39-3.89,2.6-12.95,14.61-14.28,15.38-1.71,24.6,11.61,24.6,11.61l4.44,88.13,1,27.33s-28.69,9.22-45.77-2.39l-8.2-95.31Z"/>
            <path class="cls-24" d="M277.08,207.92s-.72,16.21,16.93,13.33,12.24,4,32.06-.72,10.8-23.41,10.8-23.41"/>
            <path class="cls-10" d="M270.26,193.78s9.73,36.78,8.36,54.09,5.77,71.73-.84,85.16-13.41,8.06-17.73,16.25-3-6.56-3-6.56S250,355,267.3,360.25s16.39-1.36,16.39-1.36,8.66-53.29,7.06-88.59-6.37-92.46-6.37-92.46"/>
            <g>
              <path class="cls-25" d="M270.77,244.11s-3.93-2.56-17.25-4.61-17.59.17-24.76,5.3-9.4,10.41-9.4,10.41,2,3.76,8,.86a4.06,4.06,0,0,0,2.9,4.61,3,3,0,0,0,3.59-.85s-2.39,5.46,4.44,6c0,0,2.39,10.93,11.27,3.59,0,0,2.39-4.1-3.07-2.9,0,0,1.54-1,6.15.68s18.78-2.56,18.78-2.56Z"/>
              <path class="cls-25" d="M227.39,257.26s.34-5.12,7.17-8.19"/>
              <path class="cls-25" d="M238.83,267.34s-2.56-3.42,4.27-9"/>
            </g>
            <path class="cls-10" d="M320.81,152.4s.57.08,1.59.27a59.26,59.26,0,0,1,45.2,40c2.41,7.41,4.62,15.6,5.41,22.6,2.05,18.11,15.14,62.85,19.58,83.35s.64,52.11,7.13,60.31-48.85,20.15-65.24,8.88c0,0-21.09-64.63-18.7-116.89S320.81,152.4,320.81,152.4Z"/>
            <path class="cls-26" d="M289.73,158.2s-13.49,12.47-12.81,28.35l4.44-.51-3.24,5.13s2.56,39.11,11.1,55.85c0,0-.69-52.78,1.19-72.93,0,0,.34-12.13,4.1-15.72S289.73,158.2,289.73,158.2Z"/>
            <path class="cls-10" d="M319.22,152.09s.06,3.89.23,32.93.85,62.17.85,62.17,12.13-10.25,12.47-45.43l-.68-29-3.25-3.93,5.64-1.71s-5-16.22-16.74-19S319.22,152.09,319.22,152.09Z"/>
            <g>
              <g>
                <polygon class="cls-10" points="357.02 302.64 358.16 279.41 360.67 279.18 359.07 302.87 357.02 302.64"/>
                <circle class="cls-10" cx="360.44" cy="277.36" r="5.01"/>
                <polyline class="cls-10" points="365.9 302.87 366.59 286.24 377.75 280.32 378.66 285.1 376.61 282.14 368.64 287.15 368.18 303.09 365.22 301.96"/>
              </g>
              <path class="cls-10" d="M339.48,300.52c6.58.92,24.62,2.72,35.23-3.27A1.53,1.53,0,0,1,377,298.3l3.41,20.5a1.52,1.52,0,0,1-.12.89l-9.79,21.05a1.53,1.53,0,0,1-2.16.66L347.7,329.11a1.52,1.52,0,0,1-.65-.8l-9.21-25.77A1.52,1.52,0,0,1,339.48,300.52Z"/>
            </g>
            <polygon class="cls-21" points="311.29 283.48 312 297.04 318.68 296.62 317.36 282.58 311.29 283.48"/>
            <polygon class="cls-21" points="291.21 280.44 290.19 292.75 292.92 293.3 293.49 280.8 291.21 280.44"/>
            <g>
              <g>
                <polygon class="cls-17" points="252.93 332 267.25 334.47 265.39 395.31 248.57 397.83 252.93 332"/>
                <polygon class="cls-9" points="267.19 334.46 271.25 335.15 270.73 394.47 265.33 395.29 267.19 334.46"/>
              </g>
              <g>
                <path class="cls-27" d="M295,336.72c-.33,1.24-1.25,2.26-2,2.26H227.35c-.79,0-1.18-1-.85-2.26l1.71-6.6c.33-1.24,1.25-2.26,2-2.26H295.9c.8,0,1.19,1,.87,2.26Z"/>
                <path class="cls-8" d="M298.76,336.72c-.32,1.24-1.24,2.26-2,2.26H231.08c-.8,0-1.19-1-.87-2.26l1.73-6.6c.32-1.24,1.24-2.26,2-2.26h65.64c.8,0,1.19,1,.87,2.26Z"/>
              </g>
            </g>
            <g>
              <g>
                <polygon class="cls-28" points="131.95 423.73 131.95 534.76 310.51 534.76 355.4 432.44 238.9 401.22 131.95 423.73"/>
                <path class="cls-29" d="M132,491.94s18.78,7.57,25.34,2,36.85-33.82,36.85-33.82,123.67-1,132.24-3.53,19.05-16,15.08-26.66l12.3,6.24-12.1,27.57-10.23,71H132Z"/>
              </g>
              <g>
                <polygon class="cls-17" points="171.76 387.33 137.98 390.61 130.27 372.17 164.05 368.88 171.76 387.33"/>
                <polygon class="cls-18" points="141.48 388.07 138.99 388.26 131.28 369.82 133.76 369.63 141.48 388.07"/>
              </g>
              <g>
                <path class="cls-30" d="M125.15,422s1.93,6.22,6.45,5.87,104.77-18.79,106.51-18.1S347.4,436.26,347.4,436.26l59.52-.69,4.87-2.79L239.15,402.5Z"/>
                <g>
                  <path class="cls-31" d="M125,386.49s-8,0-9.74,4.53,6.61,25.75,6.61,25.75,1.74,8,10.09,7,102-17.4,105.81-17.05S346,431,350.88,432.09s60.91.69,60.91.69l7-11.48s.7-4.53-5.92-8-83.18-36.89-83.18-36.89-5.22-2.44-15-2.09-92.23.69-92.23.69Z"/>
                  <path class="cls-32" d="M418.75,421.3a4.16,4.16,0,0,0,0-1.16l-61.91-4.06s-8.36,12.53-9.86,15.12l3.94.89c4.88,1,60.91.69,60.91.69Z"/>
                  <path class="cls-33" d="M224.07,385.43c-5.21-1.73-98.42,1-99.08,1.06h0s-14-4.25-15.73.28,12.6,30,12.6,30,1.74,8,10.09,7,102-17.4,105.81-17.05S346,431,350.88,432.09a16,16,0,0,0,1.76.2c10.44-2.24,6.24-14.13,4.16-16.21S229.29,387.17,224.07,385.43Z"/>
                </g>
              </g>
              <g>
                <g>
                  <polygon class="cls-17" points="91.13 261.62 83.23 262.17 76.02 243.52 83.92 242.97 91.13 261.62"/>
                  <polygon class="cls-18" points="85.72 262.04 83.23 262.17 76.02 243.52 78.51 243.39 85.72 262.04"/>
                </g>
                <g>
                  <polygon class="cls-17" points="127.45 261.22 119.55 261.78 112.34 243.13 120.24 242.58 127.45 261.22"/>
                  <polygon class="cls-18" points="122.04 261.65 119.55 261.78 112.34 243.13 114.83 243 122.04 261.65"/>
                </g>
              </g>
              <g>
                <path class="cls-33" d="M136,250.92c1.34,2.48,15.65,19.37,12.67,19.37l-87.27-2.82c-3,0-10.58-13.08-11.93-15.55L31.36,217.55c-1.34-2.48-.64-3.39,2.67-5.1l12.38-6.72,38.82,4.58a9.83,9.83,0,0,1,7.87,4.5Z"/>
                <path class="cls-19" d="M130.44,247.19c1.35,2.47,1.33,10.39-1.66,10.39L75.5,259.4c-3,0-7.57-9.85-8.92-12.32L46.33,209.86c-1.35-2.48,0-4.5,3-4.5l53,.11a9.79,9.79,0,0,1,7.87,4.5Z"/>
              </g>
              <g>
                <path class="cls-33" d="M208.86,372.48c1.31,1.88-5.81,5.73-8.1,5.87l-86.48,10.93c-2.29.14-11.21-6.52-12.23-8.58L48.32,271.6c-1-2.06,16.6-13.2,18.9-13.2l56.61,8.53a9,9,0,0,1,6.55,3.43Z"/>
                <path class="cls-19" d="M219.12,365.22c1.31,1.89.5,3.55-1.79,3.68l-92.69,5.86a6.83,6.83,0,0,1-6-3.5L64.88,262.15c-1-2.06,0-3.75,2.34-3.75l73.18-.91a8.88,8.88,0,0,1,6.55,3.42Z"/>
              </g>
              <g>
                <polygon class="cls-34" points="448.33 534.76 131.95 534.76 195.35 463.76 341.66 463.76 448.33 534.76"/>
                <path class="cls-35" d="M275.4,534.76s59.06-7,70.16-37.78c9.29-25.76-26.75-33.22-26.75-33.22h22.85l106.67,71Z"/>
              </g>
            </g>
            <g>
              <g>
                <path class="cls-36" d="M352.54,353.89,338.1,395a16.61,16.61,0,0,1-3.65-.26c-7.57-1.39-12-7.68-12-7.68s3.46-19.53,7.53-18.31,4.68,2.65,10.57-9.76c3.67-7.7,7.41-7.8,9.71-6.76A6.84,6.84,0,0,1,352.54,353.89Z"/>
                <path class="cls-37" d="M352.54,353.89,338.1,395a16.61,16.61,0,0,1-3.65-.26c.08-2,1-7.45,5.78-22.13,4.58-14.16,8-18.86,10-20.38A6.84,6.84,0,0,1,352.54,353.89Z"/>
                <ellipse class="cls-38" cx="344.81" cy="374.42" rx="21.97" ry="2.45" transform="translate(-124.08 572.48) rotate(-70.26)"/>
              </g>
              <path class="cls-39" d="M215.64,373.41s24.71,6.41,43.94-3.35l64.07,20.13s-.61-10.68,8.85-22l-50.65-24.1s-33.87-2.44-58-5.8S215.64,373.41,215.64,373.41Z"/>
            </g>
            <g>
              <g>
                <path class="cls-36" d="M348,356.94,333.52,398a16,16,0,0,1-3.65-.26c-7.56-1.38-12-7.68-12-7.68s3.46-19.53,7.53-18.31,4.68,2.65,10.58-9.76c3.66-7.69,7.4-7.8,9.71-6.76A7,7,0,0,1,348,356.94Z"/>
                <path class="cls-37" d="M348,356.94,333.52,398a16,16,0,0,1-3.65-.26c.08-2,1.05-7.44,5.79-22.12,4.58-14.17,8-18.87,10-20.39A7,7,0,0,1,348,356.94Z"/>
                <ellipse class="cls-38" cx="340.23" cy="377.47" rx="21.97" ry="2.45" transform="translate(-129.98 570.19) rotate(-70.26)"/>
              </g>
              <path class="cls-40" d="M211.06,376.46s24.72,6.41,43.94-3.35l64.08,20.14s-.61-10.68,8.85-22l-50.66-24.11s-33.87-2.44-58-5.8S211.06,376.46,211.06,376.46Z"/>
            </g>
            <path class="cls-25" d="M210.6,299.11,223,314.06s15.56,11.9,25.63,14,5,6.1,5,6.1l-2.14.61-10.68.77s-29.14-5.65-38.14-22.13S205,296.06,210.6,299.11Z"/>
            <path class="cls-41" d="M182.68,273s6.11.46,13.73,8.85,15,12.82,18.31,17.24c0,0-3.2,5.65-12.05,5.95s-23.5-6.71-23.5-6.71l-2-17.24,5.95-5L182,272.92"/>
            <path class="cls-41" d="M237.31,331.61s-16.94,13.28-20.61,39.06l-1.22,9.76s-25.32,1.37-41.65-29.29-23.64-54.47-23.64-54.47,2.11-15.54,7.46-22.32a7.53,7.53,0,0,1,4.28-3c8.55-1.68,18.46.46,18.46.46s2.18-1,6.87,3.77c.57.58,1.18,1.25,1.83,2,5.95,7,24.56,40,34.33,45.92S237.31,331.61,237.31,331.61Z"/>
            <path class="cls-42" d="M203.43,299s1.38,4.73-14,10.83S166.82,317,166.82,317l3.66,4.73s12.36-1.52,21.81-6.56,12.67-6.25,14.8-10.83Z"/>
            <path class="cls-42" d="M187.72,277.6s-2.29,6.26-15.11,5.19c-10-.83-13.81-6.17-15-8.44a7.53,7.53,0,0,1,4.28-3c8.55-1.68,18.46.46,18.46.46s2.18-1,6.87,3.77Z"/>
            <g>
              <path class="cls-25" d="M251.13,333.44s2.24,4,8.75,6.51c0,0,6.92,2.54,6.71-.61s-5.08-2-5.9-6.61A28.53,28.53,0,0,0,270.76,335s4.58,1.32,7.23,7.11c0,0,1.72,3.56,3.76.11A3,3,0,0,0,284.8,339s2.44,1.53,1.63-2.74S281,328,281,328a126.06,126.06,0,0,0-15.56.51,113.28,113.28,0,0,1-18.72-.11"/>
              <path class="cls-25" d="M281.75,342.19s.91-3.16-4-9.16"/>
              <path class="cls-25" d="M284.8,339s-.71-4.47-4.37-11.18"/>
            </g>
            <g>
              <path class="cls-25" d="M160.82,260.51s4.27,7.73-1.63,12.62c0,0,13,11.18,25.63,3.05,0,0,1.83-.41-2.85-3.26,0,0-2.44-3.46,2.85-11.59S160.82,260.51,160.82,260.51Z"/>
              <g>
                <path class="cls-25" d="M185.66,207.88s1.29,5.57,2.82,10.91,9.92,10.6,12.05,17.54,1.38,18.08-8.92,24.64-36.62,8-48.9-14.26S128.6,216.8,128.6,216.8L132,206s4.73-14.42,28.84-13.81S185.66,207.88,185.66,207.88Z"/>
                <path class="cls-43" d="M135.24,215.05s7.93,2.9,9,14.19,4.6,15.13,4.6,15.13l-2.47.73-4,1.22s-2.6-6.86-9.77-7.47-17.39-11.9-9.3-32.19c0,0-9-11.14,7.47-22.73s65.91,7.47,65.91,7.47,7.78,1.37,1.37,10.38-13.27,6.4-13.27,6.4-14.19,2.44-16.63-4.27c0,0-8.09,3.36-14.95-1.52C153.24,202.39,151.56,212.61,135.24,215.05Z"/>
                <g>
                  <path class="cls-44" d="M171.93,245.41l1.34,1.8c.86,1.14,4.71,5.48,13.38,5.67,10,.23,5.64-6.48,4.73-8.31l-.31-2.75s-5-2.87-13.52-.73-4.55,6.15-4.55,6.15"/>
                  <path class="cls-45" d="M172.38,244.19l.2.27c.86,1.14,4.71,5.48,13.38,5.68,10,.23,5.65-6.49,4.73-8.32l-.3-2.74s-1.15-.54-9.69,1.6-8.39,3.81-8.39,3.81"/>
                  <g>
                    <g>
                      <ellipse class="cls-46" cx="165.6" cy="227.64" rx="6.71" ry="7.09" transform="translate(-76.87 84.63) rotate(-23.43)"/>
                      <path class="cls-47" d="M171.79,225a7.43,7.43,0,0,1,.31,5.35,6.83,6.83,0,0,1-3.54,4.17,6.91,6.91,0,0,1-5.65.15,7.72,7.72,0,0,1-4.24-9.8,6.91,6.91,0,0,1,4-4,6.82,6.82,0,0,1,5.46.27A7.38,7.38,0,0,1,171.79,225Zm-.07,0a7.28,7.28,0,0,0-3.7-3.75,6.4,6.4,0,0,0-8.74,3.8,7.33,7.33,0,0,0,3.9,9,6.39,6.39,0,0,0,5.21.07,6.47,6.47,0,0,0,3.54-3.85A7.29,7.29,0,0,0,171.72,225Z"/>
                    </g>
                    <ellipse class="cls-43" cx="168.38" cy="225.05" rx="2.83" ry="3.49" transform="translate(-75.61 85.53) rotate(-23.43)"/>
                    <ellipse class="cls-46" cx="166.45" cy="222.74" rx="0.7" ry="0.87" transform="translate(-74.85 84.57) rotate(-23.43)"/>
                  </g>
                  <g>
                    <g>
                      <ellipse class="cls-46" cx="186.13" cy="223.22" rx="5.15" ry="7.09" transform="translate(-73.42 92.44) rotate(-23.43)"/>
                      <path class="cls-47" d="M190.9,221.16a9.12,9.12,0,0,1,.79,4.76,5.09,5.09,0,0,1-2.59,4.14,5.24,5.24,0,0,1-5-.57,9.22,9.22,0,0,1-3.91-9,5.2,5.2,0,0,1,3-4.07,4.32,4.32,0,0,1,2.56-.14,6.17,6.17,0,0,1,2.23,1.08A8.94,8.94,0,0,1,190.9,221.16Zm-.07,0a8.88,8.88,0,0,0-3-3.72,4.26,4.26,0,0,0-7.08,3.08,9.12,9.12,0,0,0,3.64,8.4,4.26,4.26,0,0,0,7.09-3.06A8.82,8.82,0,0,0,190.83,221.19Z"/>
                    </g>
                    <ellipse class="cls-43" cx="188.16" cy="220.97" rx="2.17" ry="3.49" transform="translate(-72.36 93.05) rotate(-23.43)"/>
                    <ellipse class="cls-46" cx="186.4" cy="218.57" rx="0.54" ry="0.87" transform="translate(-71.55 92.16) rotate(-23.43)"/>
                  </g>
                  <g>
                    <path class="cls-48" d="M179.78,229.62s4.81-2.29,7.33,1.14-2.21,5.5-5,3.89"/>
                    <path class="cls-49" d="M179.77,229.58a7,7,0,0,1,4.28-1.17,4.54,4.54,0,0,1,2.27.75,5.34,5.34,0,0,1,1.68,1.76,3.17,3.17,0,0,1,.27,2.59,3,3,0,0,1-1.83,1.75,4.88,4.88,0,0,1-2.32.28,4.19,4.19,0,0,1-2.07-.85l0-.07a4.71,4.71,0,0,0,4.11.11,2.61,2.61,0,0,0,1.43-1.45,2.45,2.45,0,0,0-.29-2,4.73,4.73,0,0,0-1.4-1.55,4.38,4.38,0,0,0-2-.74,8.1,8.1,0,0,0-4.17.66Z"/>
                  </g>
                  <path class="cls-46" d="M172.54,243.43l1.37,1.9s10.15-5.11,16.48-5.34l-.08.69s1.68-.46.54-3.66c0,0-2.06-2.06-10.3,2C180.55,239,174.06,240.37,172.54,243.43Z"/>
                  <path class="cls-44" d="M171.93,245.41s-1.22-2.52,2-4.12,12.28-5.8,17.47-5.34l.08,1.91s-.54-1.38-3.82-.69-11.29,2.9-14,5.8A4.34,4.34,0,0,0,171.93,245.41Z"/>
                  <path class="cls-50" d="M180.09,248.92s.91-3.82,6.41-2.75a4.1,4.1,0,0,1,5.08.05S188.25,252.43,180.09,248.92Z"/>
                  <path class="cls-46" d="M180.29,249.17,191,246.23l1.1-1.38s1.89,4.08-2.63,5.08a14.64,14.64,0,0,1-7.93-.36"/>
                  <path class="cls-43" d="M162.16,208.41a106.75,106.75,0,0,1-6.86,9c-3.13,3.51,6.86-.23,8.39-5.11s-1.83-3.81-1.83-3.81"/>
                  <path class="cls-43" d="M176.73,208s5.28,2.48,8.93,3.78-2.71,2.4-6.74-.47-2-3.37-2-3.37"/>
                </g>
                <g>
                  <path class="cls-25" d="M140.84,238.59c-2.73-2-6.12-3.66-9.51-2.39s-4.54,4.34-3,8.78,3.4,7.85,8.21,9.61,9.43.91,11.21-2.24"/>
                  <path class="cls-51" d="M146.31,251.08a3.27,3.27,0,0,1-1.74.27,12.12,12.12,0,0,1-1.71-.23,4.82,4.82,0,0,1-2.78-1.61,3.7,3.7,0,0,1-.76-2.85A4.25,4.25,0,0,1,140,245c-.31-.27-.63-.52-.95-.77a26.92,26.92,0,0,0-2.72-1.83,6.91,6.91,0,0,0-3.05-1.26,2.6,2.6,0,0,0-1.64.43,1.49,1.49,0,0,0-.81,1.34,1.4,1.4,0,0,1,.64-1.51,3,3,0,0,1,1.89-.64,6.85,6.85,0,0,1,3.36,1.21,18.23,18.23,0,0,1,2.67,2l.8.77.13.14c-.05.1-.1.2-.14.3a4.55,4.55,0,0,0-.39,1.53,3.62,3.62,0,0,0,.83,2.55,4.62,4.62,0,0,0,2.44,1.57,15.59,15.59,0,0,0,1.6.35A3.27,3.27,0,0,0,146.31,251.08Zm-9.62-.74c1.11.37,2.3.61,3.49.88a18.86,18.86,0,0,1-3.69-.52,6.5,6.5,0,0,1-3.11-1.64,4.58,4.58,0,0,1-1.18-3,11.13,11.13,0,0,1,.4-3.23,18.32,18.32,0,0,0,.06,3.15,4.62,4.62,0,0,0,1.21,2.72A6.57,6.57,0,0,0,136.69,250.34Z"/>
                </g>
              </g>
            </g>
            <g>
              <g>
                <polygon class="cls-17" points="181.97 342.25 199.97 345.1 197.64 415.54 176.49 418.46 181.97 342.25"/>
                <polygon class="cls-9" points="199.9 345.09 205 345.9 204.35 414.57 197.56 415.52 199.9 345.09"/>
              </g>
              <g>
                <path class="cls-27" d="M234.93,347.71c-.41,1.44-1.57,2.61-2.57,2.61H149.8c-1,0-1.49-1.17-1.08-2.61l2.16-7.64c.41-1.44,1.57-2.62,2.57-2.62H236c1,0,1.49,1.18,1.09,2.62Z"/>
                <path class="cls-8" d="M239.61,347.71c-.41,1.44-1.57,2.61-2.57,2.61H154.48c-1,0-1.49-1.17-1.08-2.61l2.17-7.64c.41-1.44,1.56-2.62,2.56-2.62h82.56c1,0,1.5,1.18,1.09,2.62Z"/>
              </g>
            </g>
            <g>
              <path class="cls-25" d="M151.56,318.69s6,17,16.17,22.28c0,0,25.53,2.95,44.75-.82l12.11.1-7.12-9.15S203,328.86,196,327.85s-17.9-3.36-17.9-3.36l-6.82-11.29S166.51,317.37,151.56,318.69Z"/>
              <g>
                <path class="cls-25" d="M211.87,339.24s4,5,18.43,4.68a1.08,1.08,0,0,1,.55.15c1.29.82,7,4.77,8.49,11.44,0,0,2.08,4.52,2.56-1.71a1,1,0,0,1,1.07-1c.59.06,1.28-.61,1.57-3.7a1,1,0,0,1,.89-.9c.77-.06,1.82-.85,1.84-4.75a1.5,1.5,0,0,0,0-.22h0c-.2-1-1-5.56,1.73-.83a6.28,6.28,0,0,0,7,3s2,0-3.08-6.48a1.08,1.08,0,0,1-.2-.45c-.12-.88-1.19-4.11-10-5.68-10.17-1.83-15.25,0-26.24-1.83"/>
                <path class="cls-25" d="M241.9,353.8s1.12-5.49-3.78-12.53"/>
                <path class="cls-25" d="M244.4,350.37s1.45-4-2.83-11.36"/>
                <path class="cls-25" d="M247.14,344a8,8,0,0,0-1.45-6.49"/>
              </g>
              <path class="cls-25" d="M178.11,324.49s-4.28.3-6.41,6.2"/>
            </g>
            <path class="cls-41" d="M164.22,291,174,310.4s1.52,2.44-10.84,7-17.24,0-17.24,0-4.72-14.34-2.59-28.07c0,0,3.05-12.82,13.58-15"/>
            <g>
              <path class="cls-52" d="M279.78,72.33s-.53-5.07,9.6-6.14,24.53,5,31.27,53.29,18.41,30.78,18.41,30.78-.95,22.77-24.34,5.64-21.87-71-30.79-76.94-3.22-6.87-3.22-6.87"/>
              <ellipse class="cls-53" cx="283.94" cy="82.43" rx="10.93" ry="12.01" transform="translate(-11.54 71.92) rotate(-14.15)"/>
              <g>
                <path class="cls-25" d="M294.36,169.67s.63,6.71,11.27,4.2,12.57-9.3,10.61-16.37c0,0-6.27-8.14-7.9-17.6S287.17,160,294.36,169.67Z"/>
                <g>
                  <path class="cls-25" d="M234.79,128.33S242.4,146,250.5,156.42s19.56,23.08,36.24,17.28,15.47-9.89,15.47-9.89,8.27-9.83,7.54-21.8-8.31-33.66-8.31-33.66S290.9,81.24,273.8,83.26,233.71,108,233.71,108Z"/>
                  <g>
                    <g>
                      <g>
                        <g>
                          <ellipse class="cls-46" cx="276.23" cy="129.68" rx="8.31" ry="8.77" transform="translate(-23.32 71.47) rotate(-14.15)"/>
                          <path class="cls-47" d="M284.32,127.64a9.14,9.14,0,0,1-.71,6.57,8.35,8.35,0,0,1-12,3.34,9.42,9.42,0,0,1-3.18-12.62,8.35,8.35,0,0,1,12.13-2.74A9.06,9.06,0,0,1,284.32,127.64Zm-.07,0a9,9,0,0,0-3.77-5.33A7.95,7.95,0,0,0,269,125.24,9.06,9.06,0,0,0,272,137a7.93,7.93,0,0,0,11.46-2.88A9,9,0,0,0,284.25,127.66Z"/>
                        </g>
                        <ellipse class="cls-43" cx="271.37" cy="132.92" rx="2.58" ry="3.64" transform="translate(-30.11 153.49) rotate(-30)"/>
                        <ellipse class="cls-46" cx="272.67" cy="132.29" rx="1.07" ry="1.13" transform="translate(-24.07 70.68) rotate(-14.15)"/>
                      </g>
                      <g>
                        <g>
                          <ellipse class="cls-46" cx="254.41" cy="140.7" rx="7.69" ry="8.77" transform="translate(-26.68 66.47) rotate(-14.15)"/>
                          <path class="cls-47" d="M261.9,138.81a9.6,9.6,0,0,1-.48,6.38,7.59,7.59,0,0,1-4.78,4.36,7.71,7.71,0,0,1-6.55-1.2A9.93,9.93,0,0,1,247,136a7.74,7.74,0,0,1,5.2-4.17,7.59,7.59,0,0,1,6.27,1.57A9.63,9.63,0,0,1,261.9,138.81Zm-.08,0a9.44,9.44,0,0,0-3.47-5.27,7,7,0,0,0-10.78,2.73,9.62,9.62,0,0,0,2.91,11.53,7,7,0,0,0,10.78-2.7A9.46,9.46,0,0,0,261.82,138.83Z"/>
                        </g>
                        <ellipse class="cls-43" cx="249.94" cy="144.64" rx="2.1" ry="3.64" transform="translate(-38.83 144.35) rotate(-30)"/>
                        <ellipse class="cls-46" cx="250.86" cy="143.98" rx="0.99" ry="1.13" transform="translate(-27.59 65.7) rotate(-14.15)"/>
                      </g>
                    </g>
                    <path class="cls-54" d="M249.75,157.85a59.44,59.44,0,0,1,18.06-17.12s10.5-7,27.15-5.73c0,0,10.43,8.34,10.63,24.5,0,0-7.67,18-30.15,19.7C275.44,179.2,258.62,176.74,249.75,157.85Z"/>
                    <g>
                      <path class="cls-47" d="M257.92,157.66A61,61,0,0,1,265,152a89.93,89.93,0,0,1,7.68-4.83c2.66-1.44,5.36-2.81,8.14-4,1.38-.63,2.79-1.16,4.2-1.71s2.86-1,4.28-1.47c-2.84,1-5.66,2.09-8.41,3.33s-5.45,2.59-8.09,4a89.33,89.33,0,0,0-7.7,4.74A73.78,73.78,0,0,0,257.92,157.66Z"/>
                      <path class="cls-47" d="M268,159.82c2.94-1.94,5.95-3.77,8.92-5.66s6-3.69,9.06-5.45c-2.94,1.95-5.95,3.78-8.93,5.67S271,158.07,268,159.82Z"/>
                      <path class="cls-47" d="M272.68,166.39c1.39-.58,2.75-1.2,4.11-1.82s2.69-1.29,4-2a43.8,43.8,0,0,0,3.87-2.25,28.33,28.33,0,0,0,3.53-2.75,20.61,20.61,0,0,1-3.44,2.88,41.85,41.85,0,0,1-3.84,2.34c-1.33.71-2.68,1.34-4.05,1.95S274.1,165.9,272.68,166.39Z"/>
                    </g>
                    <g>
                      <path class="cls-25" d="M303.71,115.51c.76-3.33,2.06-6.76,4.86-7.3s5.07,1.83,6.28,7,1.76,9.39-.42,13.62-5.55,5.83-8.26,3.71"/>
                      <path class="cls-51" d="M306.47,130.5a1.91,1.91,0,0,0,1.24-.66,9.48,9.48,0,0,0,1-1.11,5.23,5.23,0,0,0,1-3,5.74,5.74,0,0,0-.94-3.16,4.63,4.63,0,0,0-1.27-1.3c.06-.42.14-.84.22-1.25a30.6,30.6,0,0,1,.82-3.2,6.75,6.75,0,0,1,1.31-2.82,1.53,1.53,0,0,1,1.26-.45,1.43,1.43,0,0,1,1.19.88,1.53,1.53,0,0,0-1.16-1.13,1.69,1.69,0,0,0-1.53.38,6.23,6.23,0,0,0-1.53,2.93,22.65,22.65,0,0,0-.72,3.31q-.07.58-.12,1.17a1.34,1.34,0,0,0,0,.2c.07.07.16.14.23.22a5.53,5.53,0,0,1,1,1.28,5.72,5.72,0,0,1,.75,2.91,5.29,5.29,0,0,1-.78,2.8,11.91,11.91,0,0,1-.84,1.17A2.1,2.1,0,0,1,306.47,130.5Zm5.76-5.77a29.64,29.64,0,0,1-1.78,2.68,13.6,13.6,0,0,0,2.08-2.43,6.86,6.86,0,0,0,1.16-3.23,7.2,7.2,0,0,0-.74-3.52,14.68,14.68,0,0,0-1.87-2.92,27.78,27.78,0,0,1,1.54,3.09,6.76,6.76,0,0,1-.39,6.33Z"/>
                    </g>
                  </g>
                </g>
              </g>
              <polygon class="cls-54" points="294.96 135 303.67 117.94 295.93 137.35 294.96 135"/>
              <path class="cls-43" d="M266.18,116.62s5.52-9.56,15.84-5c0,0-10.5-7.26-17.76,4.23Z"/>
              <path class="cls-43" d="M250.65,123.88s-11.14,2.75-10.41,14.57c0,0-3.23-12.8,10.37-16.74Z"/>
              <path class="cls-43" d="M247.68,102.16s35.61-9,56,15.78c0,0,6.89-6.07-4.4-27.25s-41.47-27.93-63.15-5.87c0,0-31,21.56,7.85,61.55C244,146.37,225.12,122.7,247.68,102.16Z"/>
              <path class="cls-48" d="M248.22,103.32s-11-6.15-9.54-21.12c0,0-3.91,10.77,8,21.76Z"/>
            </g>
            <g>
              <g>
                <path class="cls-55" d="M201.91,243.28c0,1.1-3.66,2-8.17,2s-8.16-.89-8.16-2-1-2.31,8.46-2.4S201.91,242.19,201.91,243.28Z"/>
                <ellipse class="cls-56" cx="193.74" cy="241.84" rx="8.17" ry="1.98"/>
              </g>
              <path class="cls-55" d="M201.07,243.52l26.47,1.63,1.87-1.39-27.32-1.5S200.83,241.78,201.07,243.52Z"/>
            </g>
            <path class="cls-10" d="M344.9,187.62l-18.08,53.22s-15.73,9.37-56.9.67l-1.34,24.77s61.25,13.72,85.69.33l15.06-54.55"/>
            <path class="cls-10" d="M326.82,240.84s7-1.51,16.07,10"/>
          </g>
        </g>
      </g>
    </g>
  </g>
</svg>
