<svg xmlns="http://www.w3.org/2000/svg" xmlns:xlink="http://www.w3.org/1999/xlink" width="475" height="512" viewBox="0 0 475 512">
  <defs>
    <style>
      .cls-1 {
        isolation: isolate;
      }

      .cls-2 {
        fill: #32223f;
      }

      .cls-3 {
        fill: #9edbd5;
        stroke: #6f31f7;
        stroke-width: 9px;
      }

      .cls-10, .cls-26, .cls-3, .cls-32 {
        stroke-miterlimit: 10;
      }

      .cls-4 {
        fill: #472b48;
      }

      .cls-5 {
        fill: #654c6c;
      }

      .cls-6 {
        fill: #543957;
      }

      .cls-14, .cls-7 {
        fill: #ece05b;
      }

      .cls-8 {
        fill: #b9b7bb;
      }

      .cls-9 {
        fill: #362538;
      }

      .cls-10, .cls-21, .cls-22 {
        fill: #f9dad2;
      }

      .cls-10, .cls-26 {
        stroke: #231f20;
      }

      .cls-10 {
        stroke-width: 0.5px;
      }

      .cls-11, .cls-12 {
        fill: #303030;
      }

      .cls-12, .cls-23 {
        mix-blend-mode: soft-light;
      }

      .cls-13, .cls-19 {
        fill: #4f3a56;
      }

      .cls-13, .cls-14, .cls-15, .cls-16, .cls-18 {
        fill-rule: evenodd;
      }

      .cls-15 {
        fill: #74557c;
      }

      .cls-16, .cls-20 {
        fill: #5f4468;
      }

      .cls-17, .cls-18 {
        fill: #999;
      }

      .cls-21, .cls-24, .cls-25, .cls-26, .cls-27, .cls-43, .cls-51, .cls-53 {
        mix-blend-mode: multiply;
      }

      .cls-21, .cls-24, .cls-25, .cls-26, .cls-27 {
        opacity: 0.6;
      }

      .cls-23 {
        fill: #ffd9bb;
        opacity: 0.5;
      }

      .cls-24 {
        fill: #d177b8;
      }

      .cls-26, .cls-27 {
        fill: #f4baae;
      }

      .cls-26, .cls-32 {
        stroke-width: 0.25px;
      }

      .cls-28 {
        fill: #df4346;
      }

      .cls-29 {
        fill: #c62d38;
      }

      .cls-30 {
        fill: #e75250;
      }

      .cls-31 {
        fill: #a62134;
      }

      .cls-32 {
        fill: #f9f7f7;
        stroke: #000;
      }

      .cls-33 {
        fill: #300909;
      }

      .cls-34 {
        fill: #f9f4f4;
      }

      .cls-35 {
        fill: #8c3d35;
      }

      .cls-36 {
        fill: #f9988f;
      }

      .cls-37 {
        fill: #f58778;
      }

      .cls-38 {
        fill: #fff7f4;
      }

      .cls-39 {
        fill: #d26653;
      }

      .cls-40 {
        fill: #eab8ad;
      }

      .cls-41 {
        fill: #ff3427;
      }

      .cls-42 {
        fill: #d62c20;
      }

      .cls-43 {
        fill: #d6d6d6;
      }

      .cls-44 {
        fill: url(#radial-gradient);
      }

      .cls-45 {
        fill: #ee3124;
      }

      .cls-46 {
        fill: url(#radial-gradient-2);
      }

      .cls-47 {
        fill: #ffe8d6;
        mix-blend-mode: screen;
      }

      .cls-48 {
        fill: #ff4b27;
      }

      .cls-49 {
        fill: #b3251b;
      }

      .cls-50 {
        fill: #941e16;
      }

      .cls-51 {
        fill: #ededed;
      }

      .cls-52 {
        fill: #992017;
      }

      .cls-53 {
        fill: #e8e8e8;
      }

      .cls-54 {
        fill: #fa2928;
      }

      .cls-55 {
        fill: #6b5170;
      }

      .cls-56 {
        fill: #231f20;
      }

      .cls-57 {
        fill: none;
      }

      .cls-58 {
        fill: #cfb6a7;
      }

      .cls-59 {
        fill: #8f7e8f;
      }

      .cls-60 {
        fill: #ab9eab;
      }
    </style>
    <radialGradient id="radial-gradient" cx="-475.71" cy="322.32" r="62.17" gradientTransform="translate(1174.68 -227.75) scale(1.82 1.77)" gradientUnits="userSpaceOnUse">
      <stop offset="0" stop-color="#ee3124"/>
      <stop offset="0.46" stop-color="#ec2f22"/>
      <stop offset="0.68" stop-color="#e4291c"/>
      <stop offset="0.85" stop-color="#d71e11"/>
      <stop offset="0.99" stop-color="#c50e01"/>
      <stop offset="1" stop-color="#c40d00"/>
    </radialGradient>
    <radialGradient id="radial-gradient-2" cx="-465.56" cy="336.96" r="16.26" gradientTransform="translate(1174.68 -227.75) scale(1.82 1.77)" gradientUnits="userSpaceOnUse">
      <stop offset="0" stop-color="#ff6726"/>
      <stop offset="0.14" stop-color="#ff5a26"/>
      <stop offset="0.44" stop-color="#ff4527"/>
      <stop offset="0.73" stop-color="#ff3827"/>
      <stop offset="1" stop-color="#ff3427"/>
    </radialGradient>
  </defs>
  <g class="cls-1">
    <g id="Layer_1" data-name="Layer 1">
      <g>
        <g>
          <path class="cls-2" d="M306.76,50.75H168.24A93.78,93.78,0,0,0,87,97.65l-69.26,120a93.79,93.79,0,0,0,0,93.78L87,431.35a93.78,93.78,0,0,0,81.22,46.9H306.76A93.78,93.78,0,0,0,388,431.35l69.26-120a93.79,93.79,0,0,0,0-93.78L388,97.65A93.78,93.78,0,0,0,306.76,50.75Z"/>
          <path class="cls-3" d="M306.76,33.75H168.24A93.78,93.78,0,0,0,87,80.65l-69.26,120a93.79,93.79,0,0,0,0,93.78L87,414.35a93.78,93.78,0,0,0,81.22,46.9H306.76A93.78,93.78,0,0,0,388,414.35l69.26-120a93.79,93.79,0,0,0,0-93.78L388,80.65A93.78,93.78,0,0,0,306.76,33.75Z"/>
        </g>
        <g>
          <g>
            <g id="leg1">
              <g>
                <path class="cls-4" d="M146.25,411.68v0h0a14.33,14.33,0,0,0-.42-3.33s0-.06,0-.1l-.15-.59c0-.11,0-.2-.08-.3a3.37,3.37,0,0,0-.1-.34l-.12-.42,0-.1c-.07-.25-.15-.49-.22-.71s-.07-.23-.11-.33l-.13-.43a11.5,11.5,0,0,0-11-8.53h-.23a15.07,15.07,0,0,0-11.22,6c-.65.86-1.31,1.7-2,2.5a2.73,2.73,0,0,0-.23.25c-.27.29-.54.58-.82.85l-.31.3c-.34.32-.7.63-1.07.92l-.08.07a12,12,0,0,1-1.73,1l-.09.05c-1.8.9-4.29,2.14-4.28,4.5a3.09,3.09,0,0,0,.09.62v0c0,.1,0,.21,0,.31l.51,3.31.06.38v1.55a.76.76,0,0,0,.36.61,1.44,1.44,0,0,0,.85.25l30.83-.08a1.56,1.56,0,0,0,.83-.25.74.74,0,0,0,.34-.6v-1.57l0-.38.39-4h0A8.19,8.19,0,0,0,146.25,411.68Z"/>
                <path class="cls-5" d="M111.78,412.86a3.09,3.09,0,0,0,.09.62l.56,3.64,33.3-.09.39-4a8,8,0,0,0,.12-1.21l-1.86,1.51a3.29,3.29,0,0,1-1,.53,4.09,4.09,0,0,1-1.19.18l-6.8,0a2.68,2.68,0,0,1-1.54-.45,1.41,1.41,0,0,1-.64-1.12,3.72,3.72,0,0,0-1.71-2.95,7.12,7.12,0,0,0-4.13-1.22l-11.24,0-.09.05C114.26,409.26,111.77,410.5,111.78,412.86Z"/>
              </g>
              <path class="cls-6" d="M120.74,398.59a1,1,0,0,0,.59.82,2.42,2.42,0,0,0,.81.27,3.86,3.86,0,0,0,.7.07l22.23-.06c1.14,0,2.06-.5,2.09-1.12l.17-4.48.15-4.24.16-4.25.16-4.24L151.69,278c.06-1.92-1.23-3.73-3.68-5.11a19.49,19.49,0,0,0-9.24-2.19h-.34c-7.22,0-13,3.12-13.15,7.06l-3.9,103.63-.15,4.24-.17,4.25-.16,4.24Z"/>
              <polygon class="cls-7" points="123.42 326.34 122.58 348.3 148.99 348.6 149.91 326.26 123.42 326.34"/>
              <polygon class="cls-8" points="122.58 348.22 122.46 352.82 148.87 352.97 148.99 348.6 122.58 348.22"/>
            </g>
            <path class="cls-9" d="M106.78,240c-.8,1.21-5.1-.22-9.08-2.84s-7-6.39-6.17-7.59,5,.6,9,3.21S107.57,238.77,106.78,240Z"/>
            <g id="leg2">
              <g>
                <path class="cls-4" d="M165,409.92v0h0a13.72,13.72,0,0,1,.41-3.32l0-.1a5.84,5.84,0,0,1,.15-.6c0-.1,0-.2.08-.3s.06-.22.1-.33.08-.29.12-.42l0-.1c.08-.25.16-.49.23-.72s.07-.22.11-.33l.14-.43a11.77,11.77,0,0,1,11.31-8.56H178a15.66,15.66,0,0,1,11.56,5.94c.67.85,1.36,1.69,2.08,2.49l.24.25c.27.29.56.58.85.85l.31.3c.36.32.72.63,1.11.92l.08.07a12.29,12.29,0,0,0,1.78,1l.09.05c1.86.9,4.43,2.14,4.43,4.5a4.41,4.41,0,0,1-.09.62h0a2.91,2.91,0,0,1,0,.31l-.52,3.32-.06.38v1.55a.76.76,0,0,1-.36.61,1.56,1.56,0,0,1-.88.25H166.78a1.51,1.51,0,0,1-.85-.24.73.73,0,0,1-.35-.6v-1.57l0-.38-.41-4h0A8.19,8.19,0,0,1,165,409.92Z"/>
                <path class="cls-5" d="M200.48,411a4.41,4.41,0,0,1-.09.62l-.57,3.64H165.54l-.41-4A6.89,6.89,0,0,1,165,410l1.92,1.51a3.56,3.56,0,0,0,1,.52,4.34,4.34,0,0,0,1.22.18h7a2.77,2.77,0,0,0,1.59-.46,1.37,1.37,0,0,0,.65-1.11,3.71,3.71,0,0,1,1.76-3,7.54,7.54,0,0,1,4.24-1.23H196l.09.05C197.91,407.41,200.48,408.65,200.48,411Z"/>
              </g>
              <path class="cls-6" d="M190.91,396.85a1,1,0,0,1-.62.82,2.46,2.46,0,0,1-.83.27,3.22,3.22,0,0,1-.71.08H165.87c-1.18,0-2.13-.5-2.16-1.12l-.19-4.48-.17-4.24-.17-4.25-.19-4.25L158.7,276.33c-.07-1.92,1.25-3.74,3.77-5.13A20.64,20.64,0,0,1,172,269h.34c7.44,0,13.39,3.08,13.56,7l4.31,103.67.17,4.25.19,4.25.17,4.24Z"/>
              <polygon class="cls-7" points="187.94 324.57 188.87 346.54 161.69 346.92 160.67 324.57 187.94 324.57"/>
              <polygon class="cls-8" points="188.87 346.46 189 351.07 161.81 351.29 161.69 346.92 188.87 346.46"/>
            </g>
            <path class="cls-10" d="M92.08,231.36a15.75,15.75,0,0,1,5.67-.47,10.74,10.74,0,0,1,6.19,3,1.44,1.44,0,0,1,.31.39,1.62,1.62,0,0,1,.08.79,13.12,13.12,0,0,0,.38,3.7c.59,2.32-.41,4.66-1,7a8.77,8.77,0,0,1-.35,1.24c-.44,1.16-2.71,6.54-3.48,7.5-.53.65.35-3.05-.47-3a3.08,3.08,0,0,1-1.2-.16c-2.55-.71-5.38,1.62-7.61.17-.88-.57-2,.27-2-.78,0-.39-1.91.26-1.79-.12.24-.76-4.42-4.28-4.26-5.07.48-2.23.77-2.76,1.1-5,0-.35,3.67-4.63,3.72-5C87.52,234.7,91.94,232.27,92.08,231.36Z"/>
            <path class="cls-6" d="M122.9,195.57c0,.13-.34,1.76-.39,1.89l-4.82,18.4-3.43,8.75-2.18,9.09-2.67,4.8c-.25.43-2.54,1.68-3,1.47l-1.49-2.19c-3.64-3.28-6.5-6.25-11.38-6.7l-2.12-.5,0-2.8a11.18,11.18,0,0,1,.61-4.66l1.45-4.1,5.7-12.87,5.53-26.75,1.82-6.39c1.76-6,8.24-17.46,14.42-18.23Z"/>
            <g>
              <path class="cls-11" d="M185.45,173.11a11.39,11.39,0,0,1-3.17,6,13.4,13.4,0,0,1-1,1,14.71,14.71,0,0,1-2.18,1.62l-8.91-.08h-.7c-11-.09-27.74-.29-30.07-.57a15.61,15.61,0,0,1-1.54-.27,11.54,11.54,0,0,1-1.37-.36c-2.69-.85-5.2-2.48-5.44-5.12-.34-3.6,1.67-6,2.24-10.8s-1.91-7.2-2.23-14.2c-.25-5.6,2.49-15.42,3.6-19.14v0c.28-.92.45-1.46.45-1.46a13.16,13.16,0,0,1,.39-2.27c1.21-1.77,1.24,1.62,2.22,1.85,1.9.46,4.79-.71,8.14-1.13,12.91-1.64,31-5.77,31.88-.85.32,1.76,2.64,5.45,3,6.51h0c.18.58.37,1.08.56,1.56a.08.08,0,0,1,0,0,34.52,34.52,0,0,1,2.73,9.17c1.45,8.4-1.2,13.88-1.68,17.35S186.31,167.64,185.45,173.11Z"/>
              <path class="cls-12" d="M124,209.67l1.23-.58a23.36,23.36,0,0,0,.52,8.48l-2.46,1.13"/>
            </g>
            <path class="cls-6" d="M219.36,220.61c0-1.59-19.3,6-19.85,4.49L182,178.43c-2.83-8-3.64-20.27,3.61-23.28,4.69-1.93,10.05,4,13.41,8.09,1.79,2.16,3.47,6.86,4.36,9.4l16,46.51"/>
            <g>
              <path class="cls-13" d="M187.55,209.17c-.46,6.25-.93,12.5-1.15,15.74s-.22,3.47-.21,3.7c2.84,10.23,5.67,20.47,7.86,31.64s3.72,23.28,5.26,35.39a159.61,159.61,0,0,1-15.68,6.79,85.63,85.63,0,0,1-17,4.14,102.85,102.85,0,0,1-15.3.55q1.38-74.74,2.77-149.5l21.44-4.92a77.48,77.48,0,0,1,11.34,1.84,13.56,13.56,0,0,1,7.46,4.64c2,2.42,3.58,5.94,2.38,14.45S191.54,195.66,187.55,209.17Z"/>
              <path class="cls-13" d="M121.81,209.73c.46,6.34.92,12.68,1.15,16s.22,3.52.21,3.75c-2.84,10.39-5.67,20.77-7.86,32.11s-3.72,23.62-5.26,35.9a156.72,156.72,0,0,0,15.68,6.9,85,85,0,0,0,17,4.2,101.52,101.52,0,0,0,15.3.55q-1.38-75.84-2.77-151.68l-21.45-5a76,76,0,0,0-11.33,1.87A13.52,13.52,0,0,0,115,159c-2,2.46-3.58,6-2.39,14.66S117.81,196,121.81,209.73Z"/>
              <path class="cls-14" d="M121.47,224.06q0,3.21.11,6.42l-2.07,7.72a60.64,60.64,0,0,0,14.08,3.92A154.63,154.63,0,0,0,158,243.77a100.41,100.41,0,0,0,19.36-2.19c5-1.06,8-.82,11.8-2-.89-2.91-1-7.19-1.89-10.11,0-1.7-.91-3.18-.89-4.88-3.56.83-6.17,1.44-11.19,2.19s-11.52,1.43-17.3,1.78a81.17,81.17,0,0,1-16.82-.41C135.15,227.38,128.31,225.72,121.47,224.06Z"/>
              <path class="cls-14" d="M122.16,192a160.28,160.28,0,0,0,22.47,4.68,84.18,84.18,0,0,0,8.89.56H156l-.2-11-2.06.05c-1.27,0-2.53,0-3.8,0a100.63,100.63,0,0,1-19.39-2c-3.23-.67-6.51-1.52-9.44-2.16a40.55,40.55,0,0,0-4.82-.82c.65,3,1.46,6.3,2.38,9.8Z"/>
              <path class="cls-14" d="M155.77,186.26l.19,11a93.42,93.42,0,0,0,15.51-1.63,84.65,84.65,0,0,0,15-4l1.46-.59c.77-.33,1.45-.66,2.08-1,1-3.82,1.83-7.39,2.46-10.55-1.11.42-2.73,1-4.89,1.67-.84.26-1.75.52-2.75.79a129.82,129.82,0,0,1-16.15,3.24A124.8,124.8,0,0,1,155.77,186.26Z"/>
              <path class="cls-14" d="M188.06,283.69a64.33,64.33,0,0,1-25.77,5.91c-1.49,0-3,0-4.63,0l.18,9.45c1.1,0,2.2-.09,3.28-.16A82.86,82.86,0,0,0,185,293.84a72.66,72.66,0,0,0,13.21-6.79c-.36-2.73-.72-5.44-1.1-8.13A87.63,87.63,0,0,1,188.06,283.69Z"/>
              <path class="cls-14" d="M151.67,289.36a148.35,148.35,0,0,1-26.21-4.06,63,63,0,0,1-13.19-4.95c-.36,2.58-.7,5.19-1,7.8a99,99,0,0,0,20.58,8.3,90.73,90.73,0,0,0,19.68,2.63c2.14.07,4.27.06,6.35,0l-.18-9.45C155.72,289.59,153.71,289.5,151.67,289.36Z"/>
              <path class="cls-15" d="M172.19,141.31a2.23,2.23,0,0,0-1.31-1.66,18.23,18.23,0,0,0-5.13-1.27,73.63,73.63,0,0,0-8.69-.8,43.21,43.21,0,0,0-8.68.52,16,16,0,0,0-5,1.71c-.93.54-1.78.74-1.88,1.21s.53,1.23.81,2.07a6.57,6.57,0,0,0,2.21,3,16.11,16.11,0,0,0,6.57,3,30.11,30.11,0,0,0,10,.63,13.59,13.59,0,0,0,6.23-2.5,22.14,22.14,0,0,0,3.11-2.57,8.57,8.57,0,0,0,1.53-1.91A2.09,2.09,0,0,0,172.19,141.31Z"/>
              <path class="cls-13" d="M140.56,141q-1.09,6.21-2.18,12.42a33.43,33.43,0,0,0,6.16,4.68,22.37,22.37,0,0,0,6.32,2c1.82.34,3.13.51,4.44.68q0-6.33.07-12.67a26.41,26.41,0,0,1-6.22-1.4,27.12,27.12,0,0,1-5.58-3.21A28.25,28.25,0,0,1,140.56,141Z"/>
              <path class="cls-13" d="M125.27,253.18c-1.36,6.17-2.73,12.34-3.4,15.88s-.66,4.44,1.47,5.48a52.92,52.92,0,0,0,10,3,40.55,40.55,0,0,0,8.47,1.09c1.76-.05,2.24-.54,2.8-4.37s1.23-11,1.88-18.18Z"/>
              <path class="cls-13" d="M186.05,252.5c1.36,6.17,2.73,12.34,3.4,15.88s.66,4.44-1.47,5.48a52.92,52.92,0,0,1-10,3,40.47,40.47,0,0,1-8.46,1.09c-1.77-.05-2.25-.54-2.81-4.37s-1.23-11-1.88-18.17Z"/>
              <path class="cls-13" d="M164.55,139.25c-2.06-.26-4.55-.51-7.17-.66,2.17,1.34,3.89,2.72,4.56,4.15s.28,3-.59,4.58l.33-.09c2.57-.67,4.33-.88,6.1-1.78a43.14,43.14,0,0,0,4.42-3.09,1,1,0,0,0,0-.17,2.27,2.27,0,0,0-1.55-1.66A25,25,0,0,0,164.55,139.25Z"/>
              <path class="cls-16" d="M154.08,159.09c-1.29-.13-2.68-.27-4.43-.51a36.62,36.62,0,0,1-8-1.85,36.63,36.63,0,0,1-6.42-3.4c-3.59.55-7.18,1.11-10.67,2.83a15.34,15.34,0,0,0-8.1,9c.54,2.54,1.08,5.35,1.59,8.73.34,2.3.67,4.87,1,7.61,3.1.66,6.58,1.55,10,2.25a110.28,110.28,0,0,0,20.54,2.12q2,0,4,0l2.19,0-.49-26.62Z"/>
              <path class="cls-16" d="M144,196.69a174.21,174.21,0,0,1-23.8-4.86c.17,1.6.33,3.21.5,4.83l-.29,1a44,44,0,0,0,4.27,7c3.44,4.42,7.38,6.49,11.32,8.56l-11.43-1.92c2.23,2.29,4.47,4.59,5.9,6.4s2,3.12,1,2.4a80.72,80.72,0,0,1-6.34-6.21A40.48,40.48,0,0,0,131.26,224a34.63,34.63,0,0,0,2.89,2.94c2.41.5,4.75.91,7,1.22a73.36,73.36,0,0,0,11.68.63c1.23,0,2.48-.07,3.76-.14L156,197.27h-2.61A91.47,91.47,0,0,1,144,196.69Z"/>
              <path class="cls-16" d="M156,197.27l.57,31.42,1.37-.08c5.79-.35,12.29-1,17.31-1.78l2.41-.38a21.67,21.67,0,0,0,4.27-6.57,80.79,80.79,0,0,0,3.61-11l-6.3,9.14a121.55,121.55,0,0,0,6.37-16.86,81,81,0,0,0,1.84-9.1,104,104,0,0,1-14.53,3.54A107.82,107.82,0,0,1,156,197.27Z"/>
              <path class="cls-16" d="M155.77,185.83c4.75-.14,9.49-.51,14.09-1.1a148.65,148.65,0,0,0,17.62-3.37l1.13-.3a46.63,46.63,0,0,0-.2-11.77,11,11,0,0,0-5.69-7.9c-3.29-2-8.21-3.67-13.12-5.35a22.37,22.37,0,0,1-2.2.94,35,35,0,0,1-7.82,1.62c-1.7.19-3,.29-4.29.38v.23Z"/>
              <g id="neck">
                <path class="cls-10" d="M145.93,154.53s9.46,6.22,20.22,2.21l.16-16s-5.67,6.67-19.62,2.14Z"/>
              </g>
              <path class="cls-16" d="M172.14,141.44l2.1,11.49a30.33,30.33,0,0,1-5.93,4.08,21.23,21.23,0,0,1-6.08,1.62c-1.75.25-1,.36-2.28.47,0-3.88-.22-7.95-.24-11.83a12.77,12.77,0,0,0,4.17-.88,25.15,25.15,0,0,0,5.37-2.75A24.49,24.49,0,0,0,172.14,141.44Z"/>
              <path class="cls-16" d="M150.45,158.26c1.42.24,2.55.39,3.6.51l1,.12V157l0-7.4,0-2.39L154,147.1a25.85,25.85,0,0,1-5.31-1.14,29.15,29.15,0,0,1-5.76-3c-.8-.52-1.4-.95-1.92-1.35l-.45,2.28-1.73,8.53-.11.54a29,29,0,0,0,5.22,3.41A25.21,25.21,0,0,0,150.45,158.26Z"/>
              <path class="cls-16" d="M152.51,243.74a151.94,151.94,0,0,1-18.92-1.62c-2.23-.35-4.13-.75-5.81-1.17A16,16,0,0,0,123,248.5c-1.36,4.58-1.4,10.95-.59,17.68.52-2.5,1.19-5.6,1.91-8.87l-2.24-.35c.28-1.26.56-2.52.95-3.71a32.11,32.11,0,0,1,1.41-3.41l24.49,4.3a21.18,21.18,0,0,1,.28,3.27,31.66,31.66,0,0,1-.38,3.73l-2.79-.44c-.51,5.49-1,10.53-1.46,13.53-.56,3.83-1,4.32-2.8,4.37a40.55,40.55,0,0,1-8.47-1.09,58.39,58.39,0,0,1-9.46-2.72c.35,1.6.72,3.19,1.13,4.75.55,2.09,1.15,4.13,1.82,6.11a151.9,151.9,0,0,0,24.83,3.71c2,.14,4.05.23,6,.26l-.83-45.84C155.42,243.79,154,243.78,152.51,243.74Z"/>
              <path class="cls-16" d="M156.83,243.78l.83,45.84c1.59,0,3.14,0,4.63,0a64.33,64.33,0,0,0,25.77-5.91l1.86-.87c-.23-3.3-.59-6.46-1.07-9.46a6.72,6.72,0,0,1-.87.5,52.92,52.92,0,0,1-10,3,40.47,40.47,0,0,1-8.46,1.09c-1.77-.05-2.25-.54-2.81-4.37-.45-3-.94-8-1.46-13.53l-2.79.44a31.66,31.66,0,0,1-.38-3.73,22.62,22.62,0,0,1,.28-3.27l18.14-3.18a41,41,0,0,0-7.18-7.92A99.29,99.29,0,0,1,158,243.77Z"/>
              <path class="cls-15" d="M151.49,299.08a90.73,90.73,0,0,1-19.68-2.63l-.32-.08a55.58,55.58,0,0,0,8.38,11.52l.26.28c.88.15,1.74.28,2.59.39a101.52,101.52,0,0,0,15.3.55l0-2-.14-8.08C155.76,299.14,153.63,299.15,151.49,299.08Z"/>
              <path class="cls-15" d="M157.84,299.07l.14,8.08a75.39,75.39,0,0,0,8.66-.58,85.63,85.63,0,0,0,17-4.14c2.14-.75,4.21-1.58,6.24-2.45.23-2.75.34-5.58.35-8.41-1.59.77-3.33,1.54-5.22,2.27a82.86,82.86,0,0,1-23.88,5.07C160,299,158.94,299,157.84,299.07Z"/>
              <path class="cls-14" d="M123.15,177.35c2.69.49,5.39,1,8.46,1.32s6.52.52,8.55.64l3.29.19-.3-4.86c-2.36,0-4.73,0-8.11-.2s-7.8-.6-12.21-1C122.94,174.74,123.05,176.05,123.15,177.35Z"/>
              <path class="cls-14" d="M185.5,177c-2.7.49-5.39,1-8.46,1.32s-6.52.53-8.56.64l-3.28.19.3-4.86c2.36,0,4.73,0,8.11-.2s7.8-.6,12.21-1C185.71,174.41,185.6,175.71,185.5,177Z"/>
              <path class="cls-7" d="M190.32,201l-.74,0c0-.26,0-.51,0-.78a.4.4,0,0,1,.39-.41.4.4,0,0,1,.36.43C190.33,200.51,190.33,200.76,190.32,201Zm-.23-2.92h0a.4.4,0,0,1-.34-.46c0-.54.09-1.1.16-1.71a.38.38,0,0,1,.41-.37.42.42,0,0,1,.33.47c-.07.61-.12,1.16-.16,1.69A.38.38,0,0,1,190.09,198.1Zm.46-4.23h-.05a.43.43,0,0,1-.32-.49c.07-.53.15-1.09.23-1.69a.39.39,0,0,1,.43-.35.41.41,0,0,1,.31.49c-.08.59-.16,1.15-.23,1.68A.4.4,0,0,1,190.55,193.87Zm.61-4.21h-.07a.42.42,0,0,1-.3-.49c.08-.55.17-1.11.26-1.69a.38.38,0,0,1,.43-.34.42.42,0,0,1,.3.5c-.09.57-.17,1.13-.26,1.67A.39.39,0,0,1,191.16,189.66Zm.66-4.2h-.07a.42.42,0,0,1-.29-.5c.09-.55.18-1.12.28-1.68a.38.38,0,0,1,.43-.34.43.43,0,0,1,.3.5c-.1.57-.19,1.13-.28,1.68A.39.39,0,0,1,191.82,185.46Zm.72-4.19h-.08a.43.43,0,0,1-.29-.51l.3-1.67a.37.37,0,0,1,.44-.33.43.43,0,0,1,.29.5l-.3,1.67A.38.38,0,0,1,192.54,181.27Zm.76-4.18h-.08a.44.44,0,0,1-.29-.51c.11-.57.22-1.12.32-1.67a.38.38,0,0,1,.45-.32.42.42,0,0,1,.28.51c-.11.54-.21,1.1-.32,1.66A.39.39,0,0,1,193.3,177.09Zm.81-4.17H194a.43.43,0,0,1-.28-.51c.11-.56.23-1.12.34-1.67a.37.37,0,0,1,.45-.31.42.42,0,0,1,.27.51c-.11.55-.22,1.1-.34,1.66A.38.38,0,0,1,194.11,172.92Zm.86-4.15h-.08a.44.44,0,0,1-.28-.52l.36-1.66a.37.37,0,0,1,.45-.31.44.44,0,0,1,.27.52c-.12.55-.24,1.1-.35,1.65A.4.4,0,0,1,195,168.77Zm.9-4.14h-.09a.44.44,0,0,1-.27-.52l.36-1.66a.37.37,0,0,1,.45-.31.44.44,0,0,1,.27.52l-.36,1.66A.38.38,0,0,1,195.87,164.63Z"/>
              <path class="cls-7" d="M119.24,200.85a.38.38,0,0,1-.36-.36c0-.53-.11-1.06-.17-1.62a.4.4,0,0,1,.31-.46.37.37,0,0,1,.4.36c.06.56.12,1.09.17,1.63a.4.4,0,0,1-.31.45Zm-.46-4.06a.37.37,0,0,1-.35-.35l-.22-1.62a.4.4,0,0,1,.3-.46.36.36,0,0,1,.41.34q.12.86.21,1.62a.4.4,0,0,1-.3.47Zm-.56-4a.38.38,0,0,1-.35-.35l-.25-1.61a.41.41,0,0,1,.29-.47.37.37,0,0,1,.42.33c.09.57.17,1.1.24,1.62a.4.4,0,0,1-.29.47Zm-.63-4a.36.36,0,0,1-.35-.33c-.09-.52-.18-1-.27-1.61a.41.41,0,0,1,.28-.48.37.37,0,0,1,.42.33c.09.55.18,1.09.27,1.61a.41.41,0,0,1-.29.48Zm-.68-4a.37.37,0,0,1-.35-.33c-.09-.52-.19-1.06-.28-1.61a.4.4,0,0,1,.28-.48.37.37,0,0,1,.42.32c.09.55.19,1.09.28,1.61a.41.41,0,0,1-.28.48Zm-.71-4a.37.37,0,0,1-.35-.33l-.29-1.6a.43.43,0,0,1,.28-.49.36.36,0,0,1,.42.32l.29,1.61a.4.4,0,0,1-.28.48Zm-.72-4a.39.39,0,0,1-.35-.33l-.29-1.61a.41.41,0,0,1,.28-.48.36.36,0,0,1,.42.32l.29,1.6a.42.42,0,0,1-.28.49Zm-.73-4a.38.38,0,0,1-.35-.32l-.29-1.61a.4.4,0,0,1,.28-.48.35.35,0,0,1,.42.31l.29,1.61a.4.4,0,0,1-.27.48Zm-.73-4a.37.37,0,0,1-.35-.32l-.29-1.61a.39.39,0,0,1,.27-.48.36.36,0,0,1,.43.31l.29,1.61a.4.4,0,0,1-.28.48Zm-.74-4a.38.38,0,0,1-.35-.33l-.29-1.6a.42.42,0,0,1,.27-.49.37.37,0,0,1,.43.32l.29,1.6a.41.41,0,0,1-.27.49Z"/>
              <path class="cls-7" d="M141.17,281.52c-.24,0-.48,0-.74,0a.43.43,0,0,1,0-.85,9.89,9.89,0,0,0,1.45,0,.39.39,0,0,1,.39.4.4.4,0,0,1-.34.45C141.71,281.51,141.45,281.52,141.17,281.52Zm-2.95-.23h0l-1.49-.21a.42.42,0,0,1-.32-.48.39.39,0,0,1,.42-.37l1.47.22a.41.41,0,0,1,.33.47A.39.39,0,0,1,138.22,281.29Zm5.84-.47a.37.37,0,0,1-.31-.19.48.48,0,0,1,.11-.6,2.74,2.74,0,0,0,.84-1.11.35.35,0,0,1,.5-.18.45.45,0,0,1,.16.58,3.53,3.53,0,0,1-1.09,1.43A.35.35,0,0,1,144.06,280.82Zm-9.53-.12h-.06l-1.47-.27a.42.42,0,0,1-.31-.49.38.38,0,0,1,.43-.35l1.47.26a.43.43,0,0,1,.31.49A.4.4,0,0,1,134.53,280.7Zm-3.68-.7h-.06l-1.47-.32a.42.42,0,0,1-.3-.5.39.39,0,0,1,.44-.34l1.46.32a.43.43,0,0,1,.3.5A.39.39,0,0,1,130.85,280Zm-3.65-.85-.08,0c-.51-.13-1-.27-1.46-.41a.43.43,0,0,1-.27-.52.38.38,0,0,1,.46-.3c.45.13.93.27,1.44.4a.45.45,0,0,1,.28.51A.4.4,0,0,1,127.2,279.15ZM123.61,278a.25.25,0,0,1-.12,0l-.75-.32c-.24-.12-.46-.23-.67-.35a.46.46,0,0,1-.17-.57.35.35,0,0,1,.5-.19l.62.32.72.3a.47.47,0,0,1,.23.55A.39.39,0,0,1,123.61,278Zm22.11-.88h-.08a.42.42,0,0,1-.28-.5c.08-.4.15-.84.23-1.34l0-.32a.37.37,0,0,1,.42-.35.42.42,0,0,1,.31.49l-.05.33c-.08.51-.15,1-.23,1.37A.38.38,0,0,1,145.72,277.12Zm-25.21-1.33a.37.37,0,0,1-.31-.19,4.32,4.32,0,0,1-.54-1.8.41.41,0,0,1,.34-.46.38.38,0,0,1,.4.38,3.25,3.25,0,0,0,.42,1.4.49.49,0,0,1-.11.6A.37.37,0,0,1,120.51,275.79Zm25.83-2.88h-.06a.42.42,0,0,1-.31-.48c.06-.54.12-1.1.19-1.69a.38.38,0,0,1,.41-.37.42.42,0,0,1,.33.48c-.07.58-.13,1.15-.2,1.7A.38.38,0,0,1,146.34,272.91Zm-26.17-1.27h-.06a.41.41,0,0,1-.3-.49c0-.11,0-.22,0-.34.06-.42.13-.88.22-1.35a.37.37,0,0,1,.44-.33.42.42,0,0,1,.29.5c-.08.47-.16.91-.22,1.33,0,.11,0,.22,0,.33A.4.4,0,0,1,120.17,271.64Zm26.62-3h0a.41.41,0,0,1-.33-.47c.06-.55.11-1.12.17-1.69a.38.38,0,0,1,.41-.38.41.41,0,0,1,.33.47c-.06.57-.11,1.14-.17,1.7A.39.39,0,0,1,146.79,268.68Zm-25.85-1.22h-.09a.45.45,0,0,1-.28-.52c.12-.53.24-1.09.36-1.66a.38.38,0,0,1,.46-.31.42.42,0,0,1,.26.52c-.12.57-.24,1.12-.35,1.65A.39.39,0,0,1,120.94,267.46Zm26.25-3h0a.41.41,0,0,1-.33-.47l.16-1.7a.39.39,0,0,1,.41-.38.43.43,0,0,1,.33.47l-.16,1.7A.39.39,0,0,1,147.19,264.43Zm-25.33-1.1-.1,0a.43.43,0,0,1-.26-.52l.39-1.65a.37.37,0,0,1,.46-.3.44.44,0,0,1,.26.52c-.14.56-.26,1.11-.39,1.65A.4.4,0,0,1,121.86,263.33Zm1-4.12-.1,0a.44.44,0,0,1-.26-.52l.4-1.65a.37.37,0,0,1,.46-.3.45.45,0,0,1,.26.53l-.4,1.64A.4.4,0,0,1,122.84,259.21Z"/>
              <path class="cls-7" d="M169.68,280.31h0a9.74,9.74,0,0,1-1.54-.13.41.41,0,0,1-.31-.49.37.37,0,0,1,.42-.35,8.57,8.57,0,0,0,1.43.11.43.43,0,0,1,0,.86Zm2.23-.14a.39.39,0,0,1-.37-.38.41.41,0,0,1,.34-.47c.45-.05.94-.11,1.46-.19a.38.38,0,0,1,.42.37.42.42,0,0,1-.32.48c-.53.08-1,.14-1.49.19Zm3.69-.57a.4.4,0,0,1-.37-.36.43.43,0,0,1,.31-.49l1.46-.3a.38.38,0,0,1,.43.35.41.41,0,0,1-.3.49l-1.47.3Zm-9.37-.5A.35.35,0,0,1,166,279a4.91,4.91,0,0,1-.78-1.64.45.45,0,0,1,.23-.54.36.36,0,0,1,.48.27,4,4,0,0,0,.62,1.34.47.47,0,0,1,0,.61A.34.34,0,0,1,166.23,279.1Zm13-.29a.38.38,0,0,1-.36-.34.42.42,0,0,1,.29-.5l1.45-.35a.37.37,0,0,1,.44.32.42.42,0,0,1-.28.51l-1.46.35Zm3.64-.92a.38.38,0,0,1-.36-.33.42.42,0,0,1,.27-.51l1.44-.42a.37.37,0,0,1,.45.3.43.43,0,0,1-.26.53l-1.45.42Zm3.59-1.13a.37.37,0,0,1-.35-.3.42.42,0,0,1,.24-.53c.51-.19,1-.37,1.39-.55a.35.35,0,0,1,.48.24.47.47,0,0,1-.22.56c-.42.18-.9.37-1.43.56A.2.2,0,0,1,186.49,276.76ZM165,275.12a.4.4,0,0,1-.37-.36v-.07c-.07-.48-.14-1-.21-1.64a.42.42,0,0,1,.33-.47.38.38,0,0,1,.41.37c.07.59.13,1.13.2,1.61v.06a.43.43,0,0,1-.31.49Zm24.86-.06a.36.36,0,0,1-.3-.17.47.47,0,0,1,.09-.6,2.93,2.93,0,0,0,.86-1.1.35.35,0,0,1,.5-.19.46.46,0,0,1,.17.57,3.79,3.79,0,0,1-1.1,1.41A.32.32,0,0,1,189.89,275.06Zm1.28-3.76a.4.4,0,0,1-.37-.4v-.18c0-.43-.08-.93-.16-1.48a.43.43,0,0,1,.31-.49.39.39,0,0,1,.42.36c.08.57.14,1.09.17,1.55l0,.18a.43.43,0,0,1-.35.46Zm-26.6-.42a.39.39,0,0,1-.37-.38c0-.55-.09-1.12-.14-1.71a.41.41,0,0,1,.34-.46.39.39,0,0,1,.4.39c0,.58.1,1.14.14,1.69a.41.41,0,0,1-.33.47Zm26-3.79a.38.38,0,0,1-.36-.34c-.11-.55-.22-1.1-.34-1.65a.44.44,0,0,1,.27-.52.38.38,0,0,1,.45.32c.12.55.24,1.11.34,1.67a.43.43,0,0,1-.28.51Zm-26.33-.46a.4.4,0,0,1-.37-.39q-.06-.84-.12-1.71a.42.42,0,0,1,.35-.46.4.4,0,0,1,.4.4c0,.57.07,1.14.11,1.7a.41.41,0,0,1-.34.46Zm25.44-3.69a.37.37,0,0,1-.36-.32l-.38-1.65a.43.43,0,0,1,.26-.52.38.38,0,0,1,.46.31l.38,1.65a.44.44,0,0,1-.27.52ZM164,262.37a.39.39,0,0,1-.37-.39l-.11-1.71a.42.42,0,0,1,.34-.46.4.4,0,0,1,.4.4l.11,1.7a.42.42,0,0,1-.34.46Zm24.77-3.56a.37.37,0,0,1-.36-.31c-.14-.63-.26-1.15-.37-1.66a.43.43,0,0,1,.26-.52.38.38,0,0,1,.46.31l.37,1.65a.44.44,0,0,1-.27.52Z"/>
              <path class="cls-16" d="M124.48,249.84a32.11,32.11,0,0,0-1.41,3.41c-.39,1.19-.67,2.45-.95,3.71l26.75,4.18a31.66,31.66,0,0,0,.38-3.73,21.18,21.18,0,0,0-.28-3.27Z"/>
              <path class="cls-16" d="M186.84,249.17a32.83,32.83,0,0,1,1.41,3.4,36.61,36.61,0,0,1,.95,3.71l-26.75,4.18a31.66,31.66,0,0,1-.38-3.73,22.62,22.62,0,0,1,.28-3.27Z"/>
              <ellipse class="cls-17" cx="153.01" cy="233.12" rx="1.64" ry="1.82"/>
              <path class="cls-18" d="M153.16,241.64a1.84,1.84,0,1,0-1.64-1.82A1.74,1.74,0,0,0,153.16,241.64Z"/>
              <g>
                <path class="cls-19" d="M160.84,158c.39.05.47,2.27.48,3.09l.6,146.37c0,1.13-.43,2.06-1,2.06l-5.63,0L154,158.21Z"/>
                <line class="cls-20" x1="162.02" y1="309.47" x2="161.4" y2="158.37"/>
              </g>
            </g>
            <g>
              <g id="head">
                <g>
                  <g>
                    <path class="cls-10" d="M189.72,109.55c-.14.8-.29,1.52-.46,2.16v0c-1.19,4.59-3,5.67-3.72,7.75-.63,1.79-3.1,5.39-5.54,1.64h0s1.16-15.22,2.09-18c0,0,1.35-4.15,3.78-4.78C189,97.56,190.93,102.47,189.72,109.55Z"/>
                    <path class="cls-21" d="M180.82,111.69s4.89-8.49,7.22-9,1.17,6.65.7,9a16.69,16.69,0,0,1-1.17,3.82,41.43,41.43,0,0,0,.7-5.13c.16-3.29-.71-6.12-1.69-5.85s-2.3,4.41-2.38,4.88.65,1.32.6,3.87-1.06,5.34-1.61,5.31-.32-2.11-.32-4.5-1.56-1.92-2.25-.37Z"/>
                    <path class="cls-21" d="M180.62,113.72s1.26-2.28,2-1.24.21,3.89.79,4.24,1.35-2,1.2-4.09-.85-4-1.85-3.66l-2,2.72Z"/>
                    <path class="cls-22" d="M189.25,111.75c-1.19,4.59-3,5.67-3.72,7.75-.63,1.79-3.1,5.39-5.54,1.64.14.15,1.56,1.52,3,.9s2-2.35,2.64-3.67S187.9,116.16,189.25,111.75Z"/>
                  </g>
                  <g>
                    <path class="cls-10" d="M120.68,109.55c.14.8.29,1.52.46,2.16v0c1.19,4.59,3,5.67,3.72,7.75.63,1.79,3.1,5.39,5.54,1.64h0s-1.16-15.22-2.09-18c0,0-1.35-4.15-3.78-4.78C121.43,97.56,119.46,102.47,120.68,109.55Z"/>
                    <path class="cls-21" d="M129.57,111.69s-4.88-8.49-7.21-9-1.17,6.65-.7,9a16.69,16.69,0,0,0,1.17,3.82,41.43,41.43,0,0,1-.7-5.13c-.17-3.29.71-6.12,1.69-5.85s2.3,4.41,2.38,4.88-.65,1.32-.6,3.87,1.06,5.34,1.61,5.31.32-2.11.32-4.5,1.56-1.92,2.25-.37Z"/>
                    <path class="cls-21" d="M129.78,113.72s-1.26-2.28-2-1.24-.21,3.89-.79,4.24-1.35-2-1.2-4.09.85-4,1.85-3.66l1.94,2.72Z"/>
                    <path class="cls-22" d="M121.15,111.75c1.19,4.59,3,5.67,3.72,7.75.63,1.79,3.1,5.39,5.54,1.64-.14.15-1.56,1.52-3,.9s-2-2.35-2.64-3.67S122.5,116.16,121.15,111.75Z"/>
                  </g>
                  <path class="cls-10" d="M181.08,115.73l-.06.39c-.63,4.09-1.28,7.52-1.82,9.59-2.12,8.08-13,18.63-24,18.63s-21.89-10.55-24-18.63c-.24-.95-.52-2.19-.8-3.65-1-5.11-2.11-12.93-2.77-20.59h0c-.75-8.68-.9-17.15.41-21.2a21.85,21.85,0,0,1,6.53-9.06h0a31.45,31.45,0,0,1,20.64-7.87c14.21,0,24.9,9.9,27.17,16.94C184.41,86.63,182.87,103.85,181.08,115.73Z"/>
                  <path class="cls-21" d="M181,116.12c-.63,4.09-1.28,7.52-1.82,9.59-2.12,8.08-13,18.63-24,18.63s-21.89-10.55-24-18.63c-.24-.95-.52-2.19-.8-3.65l0-.92a25.21,25.21,0,0,0,3.79,10.13c3.36,5.35,12.32,11.78,21,11.78s18.05-7.82,21.19-12.33C179.12,126.77,180.67,118.2,181,116.12Z"/>
                </g>
                <path class="cls-11" d="M187.32,108.13s-.62-4.5-1.87-9.69a72.55,72.55,0,0,1,0,8.73s0-.06,0-.15c-.31-1.81-3.64-20-17.43-27h0l.93-.73-3.11-1.68.45,2.26-2.11-1.27.15,1h-.07l-.07,0a28.8,28.8,0,0,0-18.48,1.26,27.52,27.52,0,0,0-12.72,11s0,0,0,0a31,31,0,0,0-4.21,13.47c-.83,9.74.28,14.76.66,16.14a94.51,94.51,0,0,1-3.26-13.1v0c-.18-1-.33-2.06-.46-3.11l-.91,3.52s-5.09-10.57-3.62-19.47,20.76-23.84,35.45-23.84S187.28,80.49,190,87.17C192.39,93,187.32,108.13,187.32,108.13Z"/>
                <path class="cls-23" d="M185.61,99.14s5.12-3.82,4.4-12l-.64-1.3a14.08,14.08,0,0,1-4.07,12Z"/>
                <path class="cls-23" d="M184.25,92.51s2.28-6.89,1.05-12.28l-4.6-4.11a18.2,18.2,0,0,1-.41,10.1A45.61,45.61,0,0,1,184.25,92.51Z"/>
                <path class="cls-23" d="M173.89,71.15A31.11,31.11,0,0,1,177,83.1l-.54-.43S176,75.4,172.3,70.2Z"/>
                <path class="cls-23" d="M141.6,80.62s1-8.3,7.16-14l-1.31.4s-4.89,4.75-6.22,14Z"/>
                <path class="cls-23" d="M140.09,70.2s-2,4.45-.83,12.56L138,84.32s-3.07-5.67-2.42-11.43Z"/>
                <path class="cls-23" d="M124.75,82.38s-.36,7.27,7.91,7.85V91s-8.24,1.49-9.33-6.64Z"/>
                <path class="cls-23" d="M120.87,92.51s-.13,4.37,9.23,3.11L129,98.43s-5.11.63-8.14-3Z"/>
                <path class="cls-11" d="M163.54,78.82h-.07c-1.19-.21-15.22-8.19-27,3.9-3.31,3.41-4.93,12.59-5.87,17.48-.08.33-.13.64-.18,1l-.15.88-.12.92a1,1,0,0,0,0,.17v0a73.41,73.41,0,0,0,.37,19.3,0,0,0,0,1,0,0s0,0,0,0a50.63,50.63,0,0,1-3.9-13.27v0c-3-21.35,11.26-34.81,20.44-36.47A16.65,16.65,0,0,1,163.54,78.82Z"/>
                <path class="cls-24" d="M164.25,79.56h0C163,79.3,147.32,76.23,137,86.69a25.31,25.31,0,0,0-6.48,12.92c.7-3.61,1.26-7.1,1.26-7.1,2.54-6.52,4.76-11.73,11.72-14.36,9.16-3.46,19.18.86,20.65,1.37Z"/>
                <path class="cls-24" d="M185.42,107c-.31-1.81-3.64-20-17.43-27,.5.13,8.48,2.45,12.3,8.14C184,93.63,185.27,105.54,185.42,107Z"/>
                <path class="cls-11" d="M168,80s8.85.47,14,6.74,3.41,20.3,3.41,20.3S186.35,85.87,168,80Z"/>
                <path class="cls-11" d="M157.38,77s-11.68-.86-18.57,6.29-8.89,19.21-8.89,19.21l-.34,2.32s3.06-15.39,9.23-20.52A31.67,31.67,0,0,1,157.38,77Z"/>
              </g>
              <g id="eye_bro" data-name="eye bro">
                <g>
                  <path class="cls-11" d="M163.46,98.93,162,97s2.3,0,6.18-.14a44.14,44.14,0,0,0,6.67-.81l-.2-.14h0a13.37,13.37,0,0,1,6.23,4.46c-.15-.13-1.1-.89-4.66-1.32A30.32,30.32,0,0,0,171.5,99c-3.64.18-7.39.68-7.39.68"/>
                  <path class="cls-24" d="M180.91,100.36c-.15-.13-1.1-.89-4.66-1.32A30.32,30.32,0,0,0,171.5,99a54.37,54.37,0,0,1,6-.66,5.78,5.78,0,0,0-2.86-2.41A13.37,13.37,0,0,1,180.91,100.36Z"/>
                </g>
                <g>
                  <path class="cls-11" d="M149.32,99.12l1.42-2s-2.3.1-6.18,0a43.78,43.78,0,0,1-6.68-.64l.19-.15,0,0a13.28,13.28,0,0,0-6.12,4.61c.15-.14,1.08-.92,4.63-1.44a30.19,30.19,0,0,1,4.75-.18c3.64.09,7.4.5,7.4.5"/>
                  <path class="cls-24" d="M131.91,101c.15-.14,1.08-.92,4.63-1.44a30.19,30.19,0,0,1,4.75-.18,57.36,57.36,0,0,0-6.06-.52,5.63,5.63,0,0,1,2.8-2.47A13.28,13.28,0,0,0,131.91,101Z"/>
                </g>
              </g>
              <g id="nose" class="cls-25">
                <path class="cls-21" d="M161.16,121.79s-.11.33-1.42.38-2.53,1.17-4.74,1.17-3.33-1.12-4.64-1.17-1.53-.38-1.53-.38a4.27,4.27,0,0,1,.17-2.37h0a0,0,0,0,1,0,0,7,7,0,0,1,1.2-2.1,10.87,10.87,0,0,1,9.57,0,6.94,6.94,0,0,1,.92,1.41h0A4.64,4.64,0,0,1,161.16,121.79Z"/>
                <path class="cls-22" d="M158.2,122.58a2.63,2.63,0,0,1,2.25-.48Z"/>
                <path class="cls-22" d="M149.69,122.11a3,3,0,0,1,2.54.62Z"/>
                <path class="cls-26" d="M160.84,120.9c.36-.5-.1-2-.14-2.18a4.64,4.64,0,0,1,.46,3.07s-.11.33-1.42.38-2.53,1.17-4.74,1.17-3.33-1.12-4.64-1.17-1.53-.38-1.53-.38a4.27,4.27,0,0,1,.17-2.37c-.05.21-.32,1.54.2,1.86"/>
                <path class="cls-27" d="M159.78,117.3a12.74,12.74,0,0,0-.63,3.73,6.84,6.84,0,0,1,.17-3.93Z"/>
                <path class="cls-27" d="M150.33,117.3A12.74,12.74,0,0,1,151,121a6.84,6.84,0,0,0-.17-3.93Z"/>
                <path class="cls-22" d="M157.63,120.68c-.47-.26.35-1,.58-1s.34.52.22.84S157.82,120.79,157.63,120.68Z"/>
              </g>
              <g id="helmet">
                <g>
                  <path class="cls-28" d="M191.19,91V77.76c0-9.36-5-17.24-11.89-19.59a7.65,7.65,0,0,1,.13,3.27c0,.16-.05.32-.08.47,4,1.79,7.32,7.93,8.81,16.06a54.14,54.14,0,0,1,.87,9.8v3c-8.46-.49-19.73-.19-32.13-.17H156c-12.77,0-24.38-.32-33.06.18v-3a56.07,56.07,0,0,1,.69-8.8c1.39-8.62,4.79-15.19,9-17.06,0-.15-.06-.31-.08-.46a7.64,7.64,0,0,1,.13-3.27c-6.84,2.36-11.87,10.23-11.87,19.59V91l35,1.75v0h.35v0Z"/>
                  <path class="cls-29" d="M179.46,90.1c.59.13,1.17.25,1.73.39v.05c-7.1-.09-15.41.07-24.29.09,12.4,0,23.67-.32,32.13.17v-3a54.14,54.14,0,0,0-.87-9.8,48.31,48.31,0,0,0-7.34-2A53.06,53.06,0,0,1,179.46,90.1Z"/>
                  <path class="cls-29" d="M156.77,90.63h0Z"/>
                  <path class="cls-29" d="M178.15,76.93a33.81,33.81,0,0,0-3.68,12.23h-.07A127.53,127.53,0,0,0,156,87.93h0a121.76,121.76,0,0,1,22.29,1.93Z"/>
                  <path class="cls-29" d="M137.55,89.17c1.43-.21,2.9-.39,4.4-.55-1.5.16-3,.34-4.4.55h-.07a33.81,33.81,0,0,0-3.68-12.23l-.12,12.88C134.94,89.58,136.23,89.36,137.55,89.17Z"/>
                  <path class="cls-29" d="M133.68,90.53h-.39l-2.79,0v0c.64-.15,1.3-.3,2-.44a53.51,53.51,0,0,1-1.37-13.63,36.59,36.59,0,0,0-7.5,2.55,56.07,56.07,0,0,0-.69,8.8v3c8.68-.5,20.29-.18,33.06-.18C147.94,90.63,140.36,90.5,133.68,90.53Z"/>
                  <path class="cls-7" d="M133.07,65.69c-.12-1.3-.29-2.58-.48-3.77-4.19,1.87-7.59,8.44-9,17.06a36.59,36.59,0,0,1,7.5-2.55A34,34,0,0,1,133.07,65.69Z"/>
                  <path class="cls-7" d="M180.82,75.93a48.31,48.31,0,0,1,7.34,2c-1.49-8.13-4.78-14.27-8.81-16.06-.19,1.19-.36,2.47-.48,3.77A33.64,33.64,0,0,1,180.82,75.93Z"/>
                  <path class="cls-28" d="M181.19,90.54v-.05c-.56-.14-1.14-.26-1.73-.39a53.06,53.06,0,0,0,1.36-14.17,33.64,33.64,0,0,0-1.95-10.25,29.29,29.29,0,0,0,.13,7.08,6,6,0,0,1-.68,3.85,3.24,3.24,0,0,0-.17.32l.12,12.93A121.76,121.76,0,0,0,156,87.93a133.43,133.43,0,0,0-14,.69c-1.5.16-3,.34-4.4.55s-2.61.41-3.87.65l.12-12.88c-.06-.11-.11-.22-.17-.32a6,6,0,0,1-.69-3.85,29.29,29.29,0,0,0,.13-7.08,34,34,0,0,0-2,10.74,53.51,53.51,0,0,0,1.37,13.63c-.68.14-1.34.29-2,.44v0l2.79,0h.39c6.68,0,14.26.1,22.3.1h.92C165.78,90.61,174.09,90.45,181.19,90.54Z"/>
                  <path class="cls-30" d="M132.51,61.46c0,.15.05.31.08.46.19,1.19.36,2.47.48,3.77a29.29,29.29,0,0,1-.13,7.08,6,6,0,0,0,.69,3.85c.06.1.11.21.17.32a33.81,33.81,0,0,1,3.68,12.23h.07c1.43-.21,2.9-.39,4.4-.55a133.43,133.43,0,0,1,14-.69h0a127.53,127.53,0,0,1,18.42,1.23h.07a33.81,33.81,0,0,1,3.68-12.23,3.24,3.24,0,0,1,.17-.32,6,6,0,0,0,.68-3.85,29.29,29.29,0,0,1-.13-7.08c.12-1.3.29-2.58.48-3.77,0-.15.06-.31.08-.47a7.65,7.65,0,0,0-.13-3.27,8.57,8.57,0,0,0-5.23-5.72l-15.29-6a7.74,7.74,0,0,0-5.63,0l-15.28,6a8.56,8.56,0,0,0-5.23,5.73A7.64,7.64,0,0,0,132.51,61.46Z"/>
                </g>
                <g>
                  <path class="cls-31" d="M121.32,96.73h.34A3.11,3.11,0,0,0,121.32,96.73Z"/>
                  <path class="cls-31" d="M188.05,95.82a.32.32,0,0,0,.09,0c1.45.48,2.13.72,2.38.82l.12,0s-.37,0-.83,0h12.95c-4.44-3.35-16.9-3.46-32.81-3.34,6.81.45,14.3,1.2,18,2.42Z"/>
                  <path class="cls-31" d="M121.32,96.73l.12,0c.25-.09.92-.34,2.38-.82l.09,0,0,0c3.74-1.22,11.24-2,18-2.43-15.87-.11-28.3,0-32.77,3.34Z"/>
                </g>
                <path class="cls-28" d="M204.55,97.16a4.73,4.73,0,0,1-.25,1.47c-1.54-4.09-10.4-5.07-23.11-5.25-1.4,0-2.84,0-4.32,0-6.32,0-13.41.12-20.89.12s-14.55-.11-20.88-.11c-1.59,0-3.11,0-4.6,0-12.56.18-21.31,1.18-22.84,5.24a4.73,4.73,0,0,1-.25-1.47c0-4.2,6-5.79,15.51-6.37,2.32-.13,4.86-.21,7.58-.26,7.41-.09,16.13.08,25.48.08s17.86-.18,25.21-.09c2.82,0,5.45.12,7.84.26C198.58,91.37,204.55,93,204.55,97.16Z"/>
              </g>
              <g id="eyes">
                <path class="cls-32" d="M164,113c-.13,1.15,6.48,4.29,10.16,3.13,3.93-1.25,6.48-7.18,2.82-9.68S164.92,104.61,164,113Z"/>
                <g>
                  <ellipse class="cls-33" cx="171.2" cy="110.78" rx="3.95" ry="4.26" transform="translate(35.38 262.87) rotate(-81.14)"/>
                  <ellipse class="cls-34" cx="170.81" cy="110.19" rx="1" ry="1.07" transform="translate(35.64 261.99) rotate(-81.14)"/>
                </g>
              </g>
              <g id="mouth">
                <path class="cls-35" d="M165.74,127.2c-.08.16-1.31,1.13-1.52,1.44-.95,1.39-3.06,4.82-5.79,5.76a9.09,9.09,0,0,1-6.15-.05c-2.53-1-2.86-3.25-4.38-5.74-.37-.61-2.1-1.55-1.91-1.51a30.44,30.44,0,0,0,10.73,1.82,24.75,24.75,0,0,0,7.68-1.16.22.22,0,0,1,.26.07s1.09-.66,1.08-.63"/>
                <path class="cls-36" d="M164.65,127.92c-.87,1.59-2.38,6.22-5.12,7.16-1.88.64-5.67.82-7.51-.36-2.63-1.71-4-5.56-4.35-6.51,1.65,1.51,2.24,5.31,7.68,5.69,6.55.46,8.32-4.82,9.3-6"/>
                <path class="cls-37" d="M165.72,127.37a27.36,27.36,0,0,1-11.06,2.11c-5.23-.23-7.77-1.84-8.69-2.41.5.88-.19,0,0,0a35.85,35.85,0,0,0,10.44,1.14,47.35,47.35,0,0,0,9.33-1c.11,0-.05.1,0,.17"/>
                <path class="cls-38" d="M148.4,128.26a25.72,25.72,0,0,0,14.76.11s-1.76,2.66-6.83,2.81c-5.79.17-7.93-2.92-7.93-2.92"/>
                <path class="cls-39" d="M155.63,133.85a8.49,8.49,0,0,1-3.47-.87,3.86,3.86,0,0,1,3.47-.56s.05.06.09.05a4,4,0,0,1,3.36.93,6.24,6.24,0,0,1-3.45.45"/>
                <path class="cls-40" d="M146.32,125.85a1.39,1.39,0,0,0-.5,2.21"/>
                <path class="cls-40" d="M165.27,126.11s2.16.19,1.19,2.06a2,2,0,0,0-1.19-2.06"/>
              </g>
              <g id="eyes-2" data-name="eyes">
                <path class="cls-32" d="M148.49,112.62c.14,1.14-6.47,4.3-10.15,3.14-3.93-1.23-6.5-7.15-2.84-9.66S147.51,104.26,148.49,112.62Z"/>
                <g>
                  <ellipse class="cls-33" cx="141.25" cy="110.45" rx="4.26" ry="3.95" transform="translate(-15.51 23.4) rotate(-8.98)"/>
                  <ellipse class="cls-34" cx="141.63" cy="109.86" rx="1.07" ry="1" transform="translate(-15.41 23.45) rotate(-8.98)"/>
                </g>
              </g>
              <path class="cls-7" d="M158.35,65.08a9.32,9.32,0,0,1-2.47-3.73h-.07a9.32,9.32,0,0,1-2.47,3.73c-1.94,1.91-4.15,2.91-5.28,2.47a9,9,0,0,0-.31,2.29c0,4.69,3.63,9.71,8.1,9.71s8.09-5,8.09-9.71a8.56,8.56,0,0,0-.31-2.29C162.5,68,160.29,67,158.35,65.08Z"/>
            </g>
            <g>
              <path class="cls-41" d="M364.21,422.71c0,1.67-11.48,4.6-25.64,4.6s-25.64-2.93-25.64-4.6c2.1-.75,11.48-3,25.64-3A112.18,112.18,0,0,1,364.21,422.71Z"/>
              <path class="cls-42" d="M366.37,428.67c-.05-1.62-.81-5.07-2.16-6-2.79,1.11-11.48,4.6-25.64,4.6s-23.78-3.37-25.64-4.6c-1.27,1-2.1,4.34-2.15,6C310.5,436.79,366.65,437.74,366.37,428.67Z"/>
              <path class="cls-43" d="M364.21,422.71l-1.11.44a13.19,13.19,0,0,1,1,4.42c.24,7.61-39.27,8.16-51.81,3.35,9,6,54.3,5.9,54.05-2.25C366.32,427.05,365.56,423.6,364.21,422.71Z"/>
              <path class="cls-44" d="M318.51,364c.06,19.29.17,58.73.17,58.73,15.86,3.07,24.7,3.22,39.78,0,0,0,.12-39.2.17-58.56C348,365.92,329.11,365.78,318.51,364Z"/>
              <path class="cls-43" d="M356,386.16a14.2,14.2,0,0,1-14.39,14c-7.94,0-15.33-6.27-15.33-14s7-16.64,14.9-16.64S356,378.43,356,386.16Z"/>
              <path class="cls-43" d="M335.19,397.49c11.28,5.08,23.33-5.37,17.93-17.59C355.4,395.92,341,399.18,335.19,397.49Z"/>
              <path class="cls-43" d="M318.51,364c0,1.18,20.37,5.58,40.11,4.91,0-1.67,0-3.26,0-4.74C348,365.92,329.11,365.78,318.51,364Z"/>
              <polygon class="cls-45" points="318.68 392.24 307.18 390.33 307.18 376.22 318.68 374.31 318.68 392.24"/>
              <polygon class="cls-45" points="358.46 392.24 369.96 390.33 369.96 376.22 358.46 374.31 358.46 392.24"/>
              <ellipse class="cls-46" cx="338.57" cy="383.27" rx="14.38" ry="13.99"/>
              <polygon class="cls-43" points="343.71 388.27 337.19 390 332.57 384.77 334.44 379.3 340.43 377.37 345.66 382.06 343.71 388.27"/>
              <path class="cls-47" d="M339.5,370.07a14.55,14.55,0,0,1,9,3.07,14.52,14.52,0,0,0-9.91-3.86c-13.58,0-19.54,16.68-9,24.92C320.22,385.52,326.53,370.07,339.5,370.07Z"/>
              <path class="cls-41" d="M364.21,354.65c0,1.67-11.48,3-25.64,3s-25.64-1.36-25.64-3c2.1-.75,11.48-3,25.64-3A112.18,112.18,0,0,1,364.21,354.65Z"/>
              <path class="cls-42" d="M366.37,360.62c-.07-1.63-.81-5.08-2.16-6-2.79,1.11-11.48,3-25.64,3s-23.78-1.8-25.64-3c-1.27,1-2.08,4.34-2.15,6C310.5,366.7,366.65,367.31,366.37,360.62Z"/>
              <path class="cls-43" d="M362.65,356.38c-2.44.91-10,2.49-22.42,2.49s-25.2-2.05-26.83-3.05c-.42.31,18.46,8.08,48.59,2.14,2.53,3-3.35,5.47-3.36,5.51,2.19-.23,5.93-1.61,5.91-2.19C364.48,360,363.83,357.11,362.65,356.38Z"/>
              <path class="cls-45" d="M338.57,331.74c-11.09,0-20.09,11.08-20.09,21.87v.55a176.06,176.06,0,0,0,40.18,0v-.55C358.66,342.82,349.67,331.74,338.57,331.74Z"/>
              <path class="cls-43" d="M345.1,333.06A23.17,23.17,0,0,1,357.24,353v.55a148.77,148.77,0,0,1-20.09,1.14,158.79,158.79,0,0,1-18.67-.95v.46a176.06,176.06,0,0,0,40.18,0v-.55C358.66,345,353,336.3,345.1,333.06Z"/>
              <path class="cls-48" d="M351.21,338.44a17.73,17.73,0,0,0-13.14-6.36c-6.42,0-12.08,4-15.42,9.45C330.63,347.87,344.06,345.72,351.21,338.44Z"/>
              <path class="cls-45" d="M343.81,332.55c0,.59-.21,1.13-.56,1.19a26.75,26.75,0,0,1-9.36,0c-.34-.06-.59-.6-.55-1.19a7.66,7.66,0,0,1,2-3.22,45.71,45.71,0,0,0,6.41,0A7.76,7.76,0,0,1,343.81,332.55Z"/>
              <path class="cls-45" d="M341.73,329.33v-5.79a5.92,5.92,0,0,0-6.31,0v5.79A44.3,44.3,0,0,0,341.73,329.33Z"/>
              <path class="cls-43" d="M340.91,323.16l.06,5.73a17.21,17.21,0,0,1-5.55.22v.22a44.3,44.3,0,0,0,6.31,0v-5.79C341.44,323.39,341.17,323.27,340.91,323.16Z"/>
              <path class="cls-43" d="M343.81,332.55a7.76,7.76,0,0,0-2-3.22l-.7,0a7.87,7.87,0,0,1,1.61,2.84c0,.59-.21,1.13-.56,1.19a26.66,26.66,0,0,1-8.55.12.53.53,0,0,0,.31.22,26.75,26.75,0,0,0,9.36,0C343.6,333.68,343.85,333.14,343.81,332.55Z"/>
              <g>
                <path class="cls-49" d="M340.91,349.43c0,2.7-1.19,3.83-1.88,3.83s-1.88-1.13-1.88-3.83.58-12.55,1.88-12.55S340.91,346.73,340.91,349.43Z"/>
                <path class="cls-49" d="M353.34,349.48c.19,3.13-3.1,3.78-3.49.18-.37-3.27-4.69-12.2-4.16-12.82C347.17,335.73,353.15,346.12,353.34,349.48Z"/>
                <path class="cls-49" d="M323.46,349.48c-.18,3.13,3.1,3.78,3.5.18.36-3.27,4.69-12.2,4.16-12.82C329.64,335.73,323.66,346.12,323.46,349.48Z"/>
              </g>
              <g>
                <path class="cls-50" d="M339,336.88c-.17,0-.33.17-.47.46,1.18,2,3.35,15.92-.74,15a1.64,1.64,0,0,0,1.21.92c.69,0,1.88-1.13,1.88-3.83S340.33,336.88,339,336.88Z"/>
                <path class="cls-50" d="M353.34,349.48c-.18-3.13-5.38-12.36-7.29-12.71,2.32,2.47,5.89,9.21,6,11.8.1,1.72-.85,2.69-1.79,2.61C351.3,353,353.49,352.06,353.34,349.48Z"/>
                <path class="cls-50" d="M331.12,336.84a.39.39,0,0,0-.23-.07c-2.33,2.89-4.25,15.83-7.21,14.18.71,1.76,3,1.65,3.28-1.29C327.32,346.39,331.65,337.46,331.12,336.84Z"/>
              </g>
              <path class="cls-47" d="M312.93,422.71s4.34,3,13.76,4.38a74.21,74.21,0,0,0,28.2-1.49C328.78,430.78,312.93,422.71,312.93,422.71Z"/>
              <path class="cls-41" d="M357.14,427.65c-27.6,5-40.52-1.13-43.51-2.87a18.86,18.86,0,0,0-1.08,5.11C317.27,431.35,339.3,437.33,357.14,427.65Z"/>
              <polygon class="cls-49" points="308.21 377.27 308.21 378.66 316.25 378.66 316.25 375.88 308.21 377.27"/>
              <polygon class="cls-49" points="308.21 389.35 308.21 387.96 316.25 387.96 316.25 390.74 308.21 389.35"/>
              <polygon class="cls-43" points="316.54 391.23 307.18 390.33 318.68 392.24 318.68 374.31 316.54 391.23"/>
              <polygon class="cls-49" points="308.21 383.97 308.21 382.58 316.25 382.06 316.25 384.83 308.21 383.97"/>
              <polygon class="cls-49" points="368.23 377.27 368.23 378.66 360.19 378.66 360.19 375.88 368.23 377.27"/>
              <polygon class="cls-49" points="368.23 389.35 368.23 387.96 360.19 387.96 360.19 390.74 368.23 389.35"/>
              <polygon class="cls-49" points="368.23 383.97 368.23 382.58 360.19 382.06 360.19 384.83 368.23 383.97"/>
              <polygon class="cls-43" points="359.98 391.11 369.96 390.33 358.46 392.24 358.46 374.31 359.98 391.11"/>
              <path class="cls-47" d="M317.23,354l-2.94.79s19.64,4.82,39.28,1.31a125.63,125.63,0,0,1-37.5-1.48Z"/>
              <polygon class="cls-48" points="321.45 385.14 322.4 414.71 323.85 415.16 323.85 389.16 321.45 385.14"/>
              <polygon class="cls-48" points="325.63 394.52 325.63 420.36 326.31 420.29 327.88 397.78 325.63 394.52"/>
              <path class="cls-47" d="M335.43,329.76s-1.64,2.34-1.38,3.25a9.89,9.89,0,0,1,2.56-3.18Z"/>
              <path class="cls-47" d="M331.69,334.15s5.12,1.6,8.33,1c-3.91,1.21-9.26-.68-9.26-.68Z"/>
              <path class="cls-43" d="M324,365.41s19.84,1.91,33.1-.46v2.44A138.62,138.62,0,0,1,324,365.41Z"/>
              <path class="cls-51" d="M349.5,370.07s6.53,3.62,7.64,9.2l-.05-9.2Z"/>
              <polygon class="cls-43" points="354.89 400.15 352.95 401.57 353.92 418.99 354.89 400.15"/>
              <path class="cls-52" d="M338.57,372.72a10.56,10.56,0,1,0,10.85,10.55A10.72,10.72,0,0,0,338.57,372.72Zm0,20.35a9.8,9.8,0,1,1,10.07-9.8A9.94,9.94,0,0,1,338.57,393.07Z"/>
              <polygon class="cls-53" points="340.17 378.25 343.05 382.06 341.51 386.4 336.94 386.85 333.49 384.54 337.22 388.3 342.43 387.03 343.9 382.01 340.17 378.25"/>
              <polygon class="cls-47" points="333.09 384.83 334.66 379.01 340.43 377.37 334.31 378.86 332.57 384.77 336.96 389.18 333.09 384.83"/>
              <path class="cls-48" d="M335.79,323.9a4.28,4.28,0,0,1,3.24-.63,9.36,9.36,0,0,0,.49,5.53,10.12,10.12,0,0,1-3.73,0Z"/>
            </g>
            <path class="cls-54" d="M252.84,351.75c12.51,7.75,31.23,29.56,55.75,29.35v5.39c-30.53-1.34-51.58-22.58-59.64-31-11.84-12.33-31.55-11.85-41.43-12.49h0c-50.63-1.37-79.15-10.91-84.45-25.27-2.85-7.76,2.29-14.31,13-23.65,8.72-4.71,16.89-8.47,23.08-11.24s10.38-4.53,11.16-5.25c7.55-6.94-16.21-17.43-22.81-19.67-7.3-2.49-30.52-4.07-39.39-4.33v-4.93c.27,0,31.88,1.37,40,4.1,10.78,3.63,16.5,7.29,23.95,12.49,7.14,5,8.21,12.65-1.88,18.91-15.08,9.36-16.49,5.56-30.55,16.9-5.63,5.09-11.12,11.48-8.9,17.52,1.89,5.13,10.91,9.27,23,12.59A167.63,167.63,0,0,0,201.27,338c3.17,0,14.79,1,17.94,1.24l9.53.72C233.15,340.93,235.66,341.12,252.84,351.75Z"/>
            <g>
              <path class="cls-6" d="M214.47,235.77l-24.23,29.11a1,1,0,0,1-.7.4h0a1,1,0,0,1-.8-.26l-13.47-11.91c-.46-.4,1-1.68,1.42-2.16l1.62-1.17,7.24-11.89,2.89-3.77,2.9-3.77h0l2.5-3.91,3.41-5.14c1.65-2.16.94-4,0-6.67l-2.88-7.74,24.84,11.81C222.17,228.07,220.29,228.17,214.47,235.77Z"/>
              <polygon class="cls-7" points="203 250.02 199.41 254.03 184 239.54 186.89 235.77 203 250.02"/>
              <polygon class="cls-8" points="206.66 245.93 203 250.02 186.89 235.77 189.74 231.85 206.66 245.93"/>
              <polygon class="cls-7" points="210.77 240.21 206.28 245.61 189.74 231.85 193.5 226.39 210.77 240.21"/>
              <path class="cls-55" d="M193.25,261.26l-3.17,3.55c-.38.49-2.23,2.32-2.69,1.92l-11.81-12.36a1.2,1.2,0,0,1-.15-1.62l2.94-3.83Z"/>
            </g>
            <path class="cls-56" d="M197.18,220.93a6.83,6.83,0,0,1,2.49-2.74,4.75,4.75,0,0,1,3.66-.61,10.29,10.29,0,0,0-3.27,1.25C199.07,219.41,198.19,220.21,197.18,220.93Z"/>
          </g>
          <path class="cls-55" d="M170.42,253.16c-.27.09-8.31.93-8.49,1.15-1.05,1.24,1-1.25,0,0"/>
          <path class="cls-10" d="M161.93,254.31a42.4,42.4,0,0,0-6.17,6,8.78,8.78,0,0,0-1.64,2.54,3.4,3.4,0,0,0,.17,2.94,2.65,2.65,0,0,0,3.16,1,5.64,5.64,0,0,0,2-1.88,33.28,33.28,0,0,1,3.5-3.81,16.72,16.72,0,0,0-4.44,4.85,2.77,2.77,0,0,0-.54,1.73,2.65,2.65,0,0,0,2.6,2.1,2.85,2.85,0,0,0,1.31-1l4.48-4.85-2.79,2.83a7.39,7.39,0,0,0-1.7,2.2,2.61,2.61,0,0,0,.16,2.65,2.73,2.73,0,0,0,3.37.42,9.42,9.42,0,0,0,2.63-2.56,32.29,32.29,0,0,1,2.57-2.79q-2,1.92-3.76,4a3.05,3.05,0,0,0-.8,1.36c-.24,1.21,1,2.27,2.18,2.5a2.62,2.62,0,0,0,1.59-.13c1.14-.53,1.46-2,2.35-2.9,1.21-1.23,3.19-1.12,4.9-.92l3.19.36a9.3,9.3,0,0,0,1.67.08,4.59,4.59,0,0,0,4.16-5.54,9.22,9.22,0,0,0-1.57-3.09c-.57-.86-1.15-1.71-1.78-2.52a13.6,13.6,0,0,0-7.49-5.18c-.55-.12-.18.11-.71-.07-.74-.26-2-.2-2.74-.49s-10.23-.51-9.87.13"/>
          <path class="cls-57" d="M89.52,232.25,85.25,235a6.43,6.43,0,0,0-1.19.88,7,7,0,0,0-1.13,1.8,39.24,39.24,0,0,1-5,7.57c-.54.65-1.12,1.62-.55,2.25a1.73,1.73,0,0,0,.87.42,4.3,4.3,0,0,0,1.84.22,4.32,4.32,0,0,0,2.41-2l3.13-4.22a2.16,2.16,0,0,1,.65-.66,3,3,0,0,1,.94-.25,6.64,6.64,0,0,0,3.35-1.58"/>
          <g>
            <polygon class="cls-58" points="67.93 246.1 68.22 252.47 51.38 251.95 51.09 245.58 67.93 246.1"/>
            <path class="cls-59" d="M70.57,251a.43.43,0,0,1-.38.51h-.07a.45.45,0,0,0-.38.51l.06,1.3c0,.29-.16.52-.38.51l-3.16-.1a.52.52,0,0,1-.43-.53l-.36-7.93c0-.29.16-.52.38-.51l3.16.1a.51.51,0,0,1,.43.53l.06,1.21a.58.58,0,0,0,.5.62.54.54,0,0,1,.43.54Z"/>
            <g>
              <path class="cls-60" d="M83.26,246.2a.6.6,0,0,0-.5-.62l-.6,0a1,1,0,0,0-.83.39v0a1,1,0,0,1-.83.39l-1.43,0a.53.53,0,0,1-.43-.54v-.12a.54.54,0,0,0-.43-.54l-8.38-.26c-.22,0-.39.22-.38.51l.06,1.3a.51.51,0,0,0,.43.53H70a.52.52,0,0,1,.43.54l.15,3.25a.43.43,0,0,1-.38.51c-.26,0-.46.25-.44.59l0,1.12a.61.61,0,0,0,.5.63l8.24.25c.26,0,.46-.26.44-.59v0c0-.29.16-.52.38-.51l1.43,0a1.22,1.22,0,0,1,.87.45v0a1.27,1.27,0,0,0,.87.44l.6,0c.26,0,.46-.26.45-.59Z"/>
              <polygon class="cls-29" points="97.6 253.76 83.59 253.33 83.26 246.2 97.28 246.63 97.6 253.76"/>
              <path class="cls-60" d="M97.28,246.63c0-.33.18-.6.44-.59l.61,0a1.23,1.23,0,0,1,.86.44l0,0a1.2,1.2,0,0,0,.86.45l8.35.68a.66.66,0,0,1,.52.67l.2,4.48a.56.56,0,0,1-.46.64l-8.3.16a1,1,0,0,0-.83.39l0,0a1,1,0,0,1-.82.39H98.1a.61.61,0,0,1-.5-.62Z"/>
              <path class="cls-29" d="M75.62,243.39c0-.81.39-1.44.92-1.42l1,.06a.83.83,0,0,1,.6.35.66.66,0,0,0,.65.28l14.84-3.72a1,1,0,0,0,.62-.66,1.37,1.37,0,0,1,1.25-1.05c.83,0,1.52,1.1,1.55,2.36s-.61,2.25-1.43,2.2a1.33,1.33,0,0,1-.91-.51A.75.75,0,0,0,94,241l-15,3.75a.64.64,0,0,0-.36.68l0,1.18-2.94-.16Z"/>
              <polygon class="cls-59" points="73.68 244.98 72.35 244.94 72.75 253.91 74.08 253.95 73.68 244.98"/>
            </g>
          </g>
          <g>
            <path class="cls-10" d="M87.63,251.59c-.76,3.44-.1,6.37-4,5.74-1.45-.24-2-3.28-1.24-6.72s2.54-6,4-5.74S88.38,248.15,87.63,251.59Z"/>
            <path class="cls-10" d="M101.53,253c-.39,3.37-1.59,5-2.73,4.93-.79-.08-1.37-.46-1.5-2.37-.67,2.35-1.93,2.46-2.87,2.37-1.18-.12-2.36.29-1.15-7.09-.52,7.91-2.4,7.23-3.89,7.09s-2.58-1.81-2-6.41,2.3-7.49,3.9-7.33c1.45.15,2.28,2.63,2,6.65.58-3.56,1.5-5.71,2.71-5.59,1,.1,2.81.3,1.43,9.32.81-8.4,2-7.95,2.77-7.87C101.33,246.85,101.93,249.67,101.53,253Z"/>
          </g>
          <path class="cls-10" d="M92.19,231.33s-1.82,1.67-3.41,3c-1.15.94-2.08,2.13-3.19,3.12a13.68,13.68,0,0,0-1.76,1.64,39.87,39.87,0,0,0-2.93,4.71c-.57.95-.82,2.29-1.69,3a1.49,1.49,0,0,0-.68.87,1.09,1.09,0,0,0,.1.59c.44,1,2.4,1.06,5.26-.87A17.31,17.31,0,0,0,88,241.63c.06-.13,4.57-2.3,6.29-3.35"/>
          <path class="cls-56" d="M103.46,208.6a13.58,13.58,0,0,1,3.49-.09,8.59,8.59,0,0,1,3.4,1.05,9.26,9.26,0,0,1,4.26,5.48,13,13,0,0,0-4.63-4.83C108.06,209.09,105.75,208.86,103.46,208.6Z"/>
          <path class="cls-7" d="M93.62,218.7l-1.93,5.65,4.17,1.13a28.17,28.17,0,0,0,3.43.7,10.48,10.48,0,0,1,4.65,1.58l8.06,6.16,1.49-6.17a.61.61,0,0,0-.16-.55l-4.74-4.81c-2.21-2.17-6.43-4.37-9.51-4Z"/>
        </g>
      </g>
    </g>
  </g>
</svg>
