<svg id="Layer_1" data-name="Layer 1" xmlns="http://www.w3.org/2000/svg" width="273" height="512" viewBox="0 0 273 512">
  <defs>
    <style>
      .cls-1 {
        fill: #cca9ff;
        stroke: #323232;
        stroke-width: 3px;
      }

      .cls-1, .cls-10, .cls-2, .cls-3, .cls-8 {
        stroke-miterlimit: 10;
      }

      .cls-2, .cls-8 {
        fill: #25881a;
        stroke-width: 0.75px;
      }

      .cls-10, .cls-2 {
        stroke: #156d11;
      }

      .cls-3 {
        fill: #214214;
        stroke: #14230d;
      }

      .cls-10, .cls-3 {
        stroke-width: 0.5px;
      }

      .cls-4 {
        fill: #0c7109;
      }

      .cls-5 {
        fill: #0c0c0c;
      }

      .cls-6 {
        fill: #424143;
      }

      .cls-7 {
        fill: #56230d;
      }

      .cls-8 {
        stroke: #1a5112;
      }

      .cls-10, .cls-9 {
        fill: #1ea819;
      }

      .cls-11 {
        fill: #fff;
      }
    </style>
  </defs>
  <g>
    <rect class="cls-1" x="3.32" y="133.77" width="266.35" height="244.47" rx="8.77"/>
    <g>
      <g>
        <path class="cls-2" d="M169.58,150H106a16.87,16.87,0,0,0-16.06,11.74L79.15,195.56H196.41l-10.77-33.83A16.86,16.86,0,0,0,169.58,150Z"/>
        <rect class="cls-3" x="103.24" y="158.41" width="69.08" height="28.44" rx="12.91"/>
        <path class="cls-4" d="M185.64,161.73a16.83,16.83,0,0,0-8.4-9.89,16.82,16.82,0,0,1,4,6.7l5.05,16.13a13.81,13.81,0,0,1-13.15,18l-93-.27-1,3.17H196.41Z"/>
      </g>
      <g>
        <path class="cls-5" d="M76,354h1.59a1.32,1.32,0,0,1,1.32,1.32v.27a1.32,1.32,0,0,1-1.32,1.32H76a0,0,0,0,1,0,0V354a0,0,0,0,1,0,0Z" transform="translate(154.82 710.99) rotate(-180)"/>
        <path class="cls-6" d="M79.9,341.56H89v27.28H79.9c-1.38,0-2.49-6.1-2.49-13.64S78.52,341.56,79.9,341.56Z"/>
        <ellipse class="cls-5" cx="89.02" cy="355.2" rx="2.61" ry="13.64"/>
      </g>
      <g>
        <path class="cls-5" d="M197.86,354h1.59a1.32,1.32,0,0,1,1.32,1.32v.27a1.32,1.32,0,0,1-1.32,1.32h-1.59a0,0,0,0,1,0,0V354A0,0,0,0,1,197.86,354Z"/>
        <path class="cls-6" d="M196.83,341.56H187.7v27.28h9.13c1.37,0,2.48-6.1,2.48-13.64S198.2,341.56,196.83,341.56Z"/>
        <ellipse class="cls-5" cx="187.7" cy="355.2" rx="2.61" ry="13.64"/>
      </g>
      <rect class="cls-7" x="88.44" y="353.46" width="99.27" height="3.48" rx="1.58"/>
      <g>
        <path class="cls-8" d="M82.21,195.56l8.07,163.65a10.13,10.13,0,0,0,10.12,9.63h75a10.13,10.13,0,0,0,10.12-9.63l8.07-163.65Z"/>
        <path class="cls-9" d="M99,359.21,90.92,195.56H82.21l8.07,163.65a10.13,10.13,0,0,0,10.12,9.63h8.71A10.13,10.13,0,0,1,99,359.21Z"/>
        <path class="cls-4" d="M184.8,195.24l-8.07,163.65a10.13,10.13,0,0,1-10.12,9.63h8.71a10.11,10.11,0,0,0,10.11-9.63l8.08-163.65Z"/>
        <path class="cls-4" d="M82.5,201.37l1.13,22.91c1.94-5.06,6.84-9.56,12.63-9.56h83.33c5.79,0,10.69,4.5,12.64,9.56l1.13-22.91Z"/>
        <path class="cls-10" d="M87.54,194.4H188.31a14.49,14.49,0,0,1,14.49,14.49v1.48a0,0,0,0,1,0,0H73.05a0,0,0,0,1,0,0v-1.48A14.49,14.49,0,0,1,87.54,194.4Z"/>
      </g>
      <g>
        <g>
          <path class="cls-11" d="M158.45,301.19a5.45,5.45,0,0,0,5.45-5.43l-6.24-11.45-10.19,5.46,6.12,11.42Z"/>
          <path class="cls-11" d="M158.45,302.42H146.91v-3.74l-3.32,4.76-3.08,4.75,3.08,4.75,3.32,4.75V314h6.85a3.8,3.8,0,0,0,3.15-1.5l4.36-8.74,1.35-2.8A6.63,6.63,0,0,1,158.45,302.42Z"/>
        </g>
        <g>
          <path class="cls-11" d="M121.53,307.4a5.45,5.45,0,0,0,2.25,7.36l13-.16L136.76,303l-13,.07Z"/>
          <path class="cls-11" d="M120.44,306.82l2-3.71.7-1.32,2.74-5.16,3.3,1.75-2.64-5.16-2.76-5-5.64.49-5.75.71,3.26,1.73-3.21,6.06a3.75,3.75,0,0,0-.14,3.48l5.67,7.94,1.84,2.5A6.64,6.64,0,0,1,120.44,306.82Z"/>
        </g>
        <g>
          <path class="cls-11" d="M135.15,272.12a5.46,5.46,0,0,0-7.45-1.92L121,281.41l9.89,6,6.71-11.09Z"/>
          <path class="cls-11" d="M136.21,271.49l2.14,3.61.76,1.29,3,5-3.22,1.91,5.79.43,5.66.23,2.51-5.07,2.4-5.28-3.18,1.88-3.49-5.9a3.77,3.77,0,0,0-2.9-1.93l-9.74.7-3.09.26A6.67,6.67,0,0,1,136.21,271.49Z"/>
        </g>
      </g>
      <rect class="cls-11" x="102.04" y="232.88" width="71.09" height="15.45" rx="7.01"/>
    </g>
  </g>
</svg>
