<svg xmlns="http://www.w3.org/2000/svg" viewBox="0 0 269.35 247.47"><defs><style>.cls-1{fill:#cca9ff;stroke:#323232;stroke-miterlimit:10;stroke-width:3px;}.cls-2{fill:#ee3a59;}.cls-3{fill:#efca58;}.cls-4{fill:#c61c40;}.cls-5{fill:#ebe9df;}.cls-6{fill:#e0ddc9;}.cls-7{fill:#dedede;}.cls-8{fill:#d1a730;}</style></defs><title>SB_26_ICON_book</title><g id="Layer_2" data-name="Layer 2"><g id="Layer_1-2" data-name="Layer 1"><rect class="cls-1" x="1.5" y="1.5" width="266.35" height="244.47" rx="8.77"/><path class="cls-2" d="M184.31,40.73l3.87,23.68,7.64,46.11-97,70.93,7.77,45.28a2.43,2.43,0,0,0,3.93,1.47L216,141.57a6,6,0,0,0,2.13-5.67L212,98.73l-7.8-47.4-.58-3.49a17.7,17.7,0,0,0-11.23-13.68,6,6,0,0,0-8,6.59Z"/><polygon class="cls-3" points="190.82 53.11 186.89 56.35 188.22 64.41 195.86 110.52 183.7 119.41 190.8 162.28 206.72 149.2 190.82 53.11"/><polygon class="cls-3" points="107.54 175.14 115.56 224.07 118.34 221.79 110.33 173.09 107.54 175.14"/><path class="cls-4" d="M184.31,40.73l3.87,23.68,16-13.08-.58-3.49a17.7,17.7,0,0,0-11.23-13.68,6,6,0,0,0-8,6.59Z"/><path class="cls-5" d="M186.47,38.73c-.92,1-1.4,2.63-1.11,4.93h0l.21,3,5,71.59-102.93,98a31.42,31.42,0,0,1,5.89,1.35c.83.27,1.65.59,2.45.92s1.63.71,2.41,1.11,1.45.75,2.16,1.16a27.61,27.61,0,0,1,2.58,1.6c.65.44,1.3.89,1.92,1.36s1,.79,1.55,1.19l108.07-88.79L200.51,49.58a18.1,18.1,0,0,0-1.38-4.49,17.55,17.55,0,0,0-2.4-3.84h0c-.19-.24-.4-.47-.6-.7a16.57,16.57,0,0,0-1.34-1.31c-.27-.24-.55-.49-.84-.7l-.41-.32a7.63,7.63,0,0,0-2.21-.81,6.4,6.4,0,0,0-2.31,0A4.36,4.36,0,0,0,186.47,38.73Z"/><path class="cls-6" d="M193.93,38.55,210.72,134l-107.6,88.37c.65.44,1.3.89,1.92,1.36L213.18,135,196.72,41.27h0c-.19-.24-.4-.47-.6-.7a16.57,16.57,0,0,0-1.34-1.31C194.5,39,194.18,38.73,193.93,38.55Z"/><path class="cls-6" d="M189,37.38l16.56,94.25-107.18,88c.74.36,1.45.75,2.16,1.16L208,132.52,191.31,37.4A6.41,6.41,0,0,0,189,37.38Z"/><path class="cls-6" d="M185.36,43.67h0l.21,3L200.18,130,93.52,217.62c.83.27,1.65.59,2.45.92l106.69-87.62L186.47,38.73C185.55,39.73,185.07,41.37,185.36,43.67Z"/><path class="cls-7" d="M193.73,127.06,87.63,216.27a31.42,31.42,0,0,1,5.89,1.35c.83.27,1.65.59,2.45.92s1.63.71,2.41,1.11,1.45.75,2.16,1.16a27.61,27.61,0,0,1,2.58,1.6c.65.44,1.3.89,1.92,1.36s1,.79,1.55,1.19l108.07-88.79Q206.56,129.74,193.73,127.06Z"/><path class="cls-2" d="M186.42,35.14,75,126.65a6,6,0,0,0-2.12,5.61L74,138.79l13.35,80.68a2.43,2.43,0,0,0,3.94,1.47L197,134.07a5.33,5.33,0,0,0,1.88-5L185.39,47.29l-1.08-6.56A6,6,0,0,1,186.42,35.14Z"/><polygon class="cls-3" points="170.94 47.86 155.02 60.93 170.7 155.7 186.62 142.63 170.94 47.86"/><polygon class="cls-3" points="82.63 120.39 79.87 122.66 95.45 217.51 98.21 215.24 82.63 120.39"/><path class="cls-4" d="M186.42,35.14,75,126.65a6,6,0,0,0-2.12,5.61L74,138.79,185.39,47.28l-1.08-6.55A6,6,0,0,1,186.42,35.14Z"/><path class="cls-8" d="M171.54,51.24l1.08,6.53L156.54,71l-1.07-6.53a5.93,5.93,0,0,1,2.11-5.61l16.08-13.21A6,6,0,0,0,171.54,51.24Z"/><path class="cls-8" d="M83.08,123.89l1.1,6.53-2.88,2.37-1.12-6.53a6,6,0,0,1,2.11-5.62l2.89-2.36A6,6,0,0,0,83.08,123.89Z"/></g></g></svg>