<svg id="Layer_1" data-name="Layer 1" xmlns="http://www.w3.org/2000/svg" width="273" height="512" viewBox="0 0 273 512">
  <defs>
    <style>
      .cls-1 {
        fill: #cca9ff;
        stroke: #323232;
        stroke-width: 3px;
      }

      .cls-1, .cls-14, .cls-17, .cls-18, .cls-2, .cls-3, .cls-5, .cls-6, .cls-7 {
        stroke-miterlimit: 10;
      }

      .cls-2 {
        fill: #bcc6c9;
        stroke: #9ea6a8;
      }

      .cls-14, .cls-17, .cls-18, .cls-2, .cls-5, .cls-7 {
        stroke-width: 0.5px;
      }

      .cls-12, .cls-17, .cls-3 {
        fill: #cbd9df;
      }

      .cls-3, .cls-5 {
        stroke: #a5b1b5;
      }

      .cls-18, .cls-4 {
        fill: #fbffff;
      }

      .cls-10, .cls-5, .cls-6 {
        fill: #dceaf2;
      }

      .cls-6, .cls-7 {
        stroke: #92a0a5;
      }

      .cls-6 {
        stroke-width: 0.25px;
      }

      .cls-7 {
        fill: #fff;
      }

      .cls-8 {
        fill: #414042;
      }

      .cls-9 {
        fill: #58595b;
      }

      .cls-11 {
        fill: #98a3a7;
      }

      .cls-13 {
        fill: #178293;
      }

      .cls-14 {
        fill: #1eadc4;
        stroke: #0f646d;
      }

      .cls-15 {
        fill: #727d85;
      }

      .cls-16 {
        fill: #98a7b1;
      }

      .cls-17, .cls-18 {
        stroke: #c5cfd3;
      }
    </style>
  </defs>
  <g>
    <rect class="cls-1" x="3.32" y="133.77" width="266.35" height="244.47" rx="8.77"/>
    <g>
      <path class="cls-2" d="M63.53,353.8c1.34-3.46-1.37-9.79-6.78-15.2s-11.5-8-15-6.85l-.3-.3-1.06,1.08-.15.13-.18.2,0,0h0c-2.58,3.07.09,10.25,6.14,16.3,6.2,6.2,13.6,8.85,16.52,5.93l1.22-1.22Z"/>
      <path class="cls-3" d="M41.44,331.45c-2.92,2.92-.27,10.32,5.93,16.52S61,356.83,63.9,353.9s.27-10.32-5.93-16.52S44.37,328.52,41.44,331.45Z"/>
      <path class="cls-4" d="M113,270.4l4.36,4.36,3.21,3.22,4.36,4.36-13.52,13.52c.77.92,1.48,1.84,2.16,2.74l15-15L111.72,266.8l-15,15c.9.67,1.81,1.39,2.74,2.15Z"/>
      <path class="cls-5" d="M89.46,294,47,336.41l11.43,11.51,41.9-41C98.85,305.41,90.71,295.47,89.46,294Z"/>
      <path class="cls-4" d="M95.15,300.2c-.54-.54-1.07-1.09-1.59-1.63l-42.19,42.2-2.1,2.09,3.21,3.21,2.1-2.09,42.19-42.2C96.23,301.27,95.69,300.74,95.15,300.2Z"/>
      <path class="cls-6" d="M113,270.4,99.49,283.92l-2.6,2.6a6.87,6.87,0,0,0-3.37-.9c-.4.06-1.91.12-.34,4.61h0a22.22,22.22,0,0,0,3.36,5.36l10-6.1,10.78-14.73Z"/>
      <path class="cls-6" d="M125.22,282.23l-13.53,13.51-2.6,2.59a7,7,0,0,1,.9,3.38c-.06.39-.12,1.91-4.62.34h0a43.92,43.92,0,0,1-7.52-4.74l9.61-10,13.4-9.4Z"/>
      <path class="cls-4" d="M117.37,274.76,104.11,288l-7.57,7.57c.48.58,1,1.14,1.51,1.69s1.13,1,1.72,1.51l7.55-7.55L120.58,278Z"/>
      <path class="cls-7" d="M169.62,244.75l0,0c.93-1.13.69-2.31.18-4.7-.1-.44-.2-.94-.32-1.49l-.17-.86c-.62-3-.66-3.33,0-4.16.47-.6,1.56-2,2.67-3.34l-1.11-1.1-.08.1c-1.11,1.39-2.23,2.78-2.7,3.39-1.11,1.42-.9,2.43-.28,5.42l.18.86c.11.56.22,1.06.31,1.5.49,2.24.58,2.83.21,3.33-.71.44-4.78-1.18-10.21-6.6s-7-9.5-6.6-10.2c.5-.37,1.09-.28,3.33.2l1.51.32.86.17c3,.62,4,.83,5.41-.27.61-.48,2-1.59,3.4-2.71l.1-.08-1.11-1.1c-1.37,1.1-2.74,2.2-3.34,2.66-.83.65-1.18.6-4.15,0l-.86-.18-1.49-.31c-2.39-.52-3.58-.76-4.7.18l0,0-.11.13-.13.11L95.48,280.85l-3.35,3.35c-1.65,1.65-1.43,4.31-.12,7.19a24.68,24.68,0,0,0,3.43,5.3q.51.62,1,1.2l0,0,.47.46.49.5,0,0c.39.36.8.7,1.21,1a24.24,24.24,0,0,0,5.37,3.35c2.89,1.28,5.57,1.51,7.11,0l3.35-3.36L169.38,245s.06-.09.1-.13Zm-59.57,57.37c-.89.89-2.69.79-4.84-.05a21.85,21.85,0,0,1-5.44-3.28c-.59-.47-1.16-1-1.72-1.51s-1-1.11-1.51-1.69a22.22,22.22,0,0,1-3.36-5.36c-.87-2.08-1-3.9,0-4.94l3.53-3.52,15-15,8.2-8.2,30.3-30.31c.71,2.71,3.68,6.62,6.95,9.89s7.17,6.24,9.88,6.94l-30.3,30.31-8.21,8.2-15,15Z"/>
      <path class="cls-8" d="M124.65,285.7c-2.47-.31-6.05-2.4-9.32-5.68s-5.38-6.85-5.68-9.33a2.8,2.8,0,0,1,.59-2.41l-3,3c-1.84,1.84.44,7.1,5.08,11.74s9.91,6.93,11.75,5.09l3-3A2.78,2.78,0,0,1,124.65,285.7Z"/>
      <path class="cls-9" d="M127.67,282.69a13.42,13.42,0,0,1-5.43-2.41,28.3,28.3,0,0,1-3.9-3.27,27.67,27.67,0,0,1-3.27-3.91,13.25,13.25,0,0,1-2.41-5.42,2.8,2.8,0,0,1,.6-2.42l-3,3a2.8,2.8,0,0,0-.59,2.41c.3,2.48,2.4,6.05,5.68,9.33s6.85,5.37,9.32,5.68a2.78,2.78,0,0,0,2.42-.6l3-3A2.83,2.83,0,0,1,127.67,282.69Z"/>
      <path class="cls-8" d="M130.68,279.67a13.14,13.14,0,0,1-5.43-2.41,27,27,0,0,1-3.9-3.27,28.3,28.3,0,0,1-3.27-3.9,13.44,13.44,0,0,1-2.41-5.42,2.81,2.81,0,0,1,.6-2.42l-3,3a2.8,2.8,0,0,0-.6,2.42,13.25,13.25,0,0,0,2.41,5.42,27.67,27.67,0,0,0,3.27,3.91,28.3,28.3,0,0,0,3.9,3.27,13.42,13.42,0,0,0,5.43,2.41,2.83,2.83,0,0,0,2.41-.6l3-3A2.83,2.83,0,0,1,130.68,279.67Z"/>
      <path class="cls-10" d="M150.22,228.29l-33.95,34c1.84-1.84,7.1.44,11.74,5.08s6.93,9.91,5.09,11.75l34-34c-2.71-.7-6.62-3.68-9.88-6.94S150.93,231,150.22,228.29Z"/>
      <path class="cls-11" d="M128,267.33c-4.64-4.64-9.9-6.92-11.74-5.08a2.81,2.81,0,0,0-.6,2.42,13.44,13.44,0,0,0,2.41,5.42,28.3,28.3,0,0,0,3.27,3.9,27,27,0,0,0,3.9,3.27,13.14,13.14,0,0,0,5.43,2.41,2.83,2.83,0,0,0,2.42-.59C134.94,277.24,132.66,272,128,267.33Z"/>
      <path class="cls-12" d="M113.58,298.6c-.68-.9-1.35-1.62-2.11-2.54l-2.38,2.27c.84,1.71,1.35,3.6.47,4.14a2,2,0,0,0,.49-.35Z"/>
      <path class="cls-12" d="M96.89,286.52l2.6-2.6c-.93-.76-1.84-1.48-2.74-2.15l-3.53,3.52a2.54,2.54,0,0,0-.37.51C93.72,285.38,95.17,285.67,96.89,286.52Z"/>
      <path class="cls-10" d="M157.36,227.57l-.86-.17-1.51-.32c-2.24-.48-2.83-.57-3.33-.2-.44.7,1.18,4.78,6.6,10.2s9.5,7,10.21,6.6c.37-.5.28-1.09-.21-3.33-.09-.44-.2-.94-.31-1.5l-.18-.86c-.62-3-.83-4,.28-5.42.47-.61,1.59-2,2.7-3.39l-4.58-4.59c-1.39,1.12-2.79,2.23-3.4,2.71C161.35,228.4,160.35,228.19,157.36,227.57Z"/>
      <g>
        <path class="cls-9" d="M149.18,229.17l-.89.89c.87,2.63,3.25,6,6.56,9.35l.81-.8C152.27,235.23,149.84,231.67,149.18,229.17Z"/>
        <path class="cls-9" d="M149.94,235.32a15,15,0,0,1-2.31-4.6l-.9.9a17.58,17.58,0,0,0,2.4,4.52Z"/>
        <path class="cls-9" d="M148.35,236.91a14.86,14.86,0,0,1-2.27-4.64l-.9.91a17,17,0,0,0,2.36,4.54Z"/>
        <path class="cls-9" d="M146.77,238.5a14.42,14.42,0,0,1-2.24-4.68l-.91.91a16.79,16.79,0,0,0,2.33,4.58Z"/>
        <path class="cls-9" d="M145.18,240.08a14,14,0,0,1-2.2-4.7l-.92.91a16.74,16.74,0,0,0,2.3,4.61Z"/>
        <path class="cls-9" d="M145.16,243.82a17.44,17.44,0,0,1-3.73-6.89l-.93.92a19.84,19.84,0,0,0,3.86,6.78Z"/>
        <path class="cls-9" d="M142,243.25a13.65,13.65,0,0,1-2.13-4.77l-.93.92a16.14,16.14,0,0,0,2.24,4.67Z"/>
        <path class="cls-9" d="M140.42,244.84a13.62,13.62,0,0,1-2.09-4.81l-.93.93a15.88,15.88,0,0,0,2.21,4.69Z"/>
        <path class="cls-9" d="M138.84,246.43a13.29,13.29,0,0,1-2.06-4.85l-.94.93a15.64,15.64,0,0,0,2.19,4.73Z"/>
        <path class="cls-9" d="M137.25,248a13,13,0,0,1-2-4.88l-.95.94a15.51,15.51,0,0,0,2.16,4.75Z"/>
        <path class="cls-9" d="M133.68,244.68l-1,.95c.72,3.36,3.54,7.16,6.15,9.76l.8-.8C136.28,251.2,134,247.45,133.68,244.68Z"/>
        <path class="cls-9" d="M134.08,251.18a12.56,12.56,0,0,1-2-5l-1,1a14.92,14.92,0,0,0,2.1,4.81Z"/>
        <path class="cls-9" d="M132.49,252.77a12.62,12.62,0,0,1-1.91-5l-1,1a15,15,0,0,0,2.07,4.84Z"/>
        <path class="cls-9" d="M130.91,254.36a12.46,12.46,0,0,1-1.88-5l-1,1a14.67,14.67,0,0,0,2,4.87Z"/>
        <path class="cls-9" d="M129.32,255.94a12.25,12.25,0,0,1-1.84-5.06l-1,1a14.5,14.5,0,0,0,2,4.91Z"/>
        <path class="cls-9" d="M129.22,259.76a14.82,14.82,0,0,1-3.29-7.33l-1,1a17.35,17.35,0,0,0,3.48,7.15Z"/>
        <path class="cls-9" d="M126.15,259.11a12,12,0,0,1-1.77-5.13l-1,1a14.48,14.48,0,0,0,2,5Z"/>
        <path class="cls-9" d="M124.56,260.7a12,12,0,0,1-1.73-5.18l-1,1a14.12,14.12,0,0,0,1.92,5Z"/>
        <path class="cls-9" d="M123,262.29a11.88,11.88,0,0,1-1.7-5.22l-1,1a14.06,14.06,0,0,0,1.89,5Z"/>
        <path class="cls-9" d="M121.39,263.87a11.72,11.72,0,0,1-1.66-5.25l-1,1a14.12,14.12,0,0,0,1.86,5.05Z"/>
        <path class="cls-9" d="M118.18,260.17l-1,1c.43,3.67,3.14,7.57,5.74,10.17l.8-.8C120.3,267.17,118.22,263.23,118.18,260.17Z"/>
      </g>
      <path class="cls-13" d="M172,223.3c-3.29-3.29-7-4.91-8.32-3.61a2,2,0,0,0-.43,1.72,9.64,9.64,0,0,0,1.71,3.85,20.23,20.23,0,0,0,2.32,2.76,19.7,19.7,0,0,0,2.77,2.32,9.31,9.31,0,0,0,3.85,1.71,2,2,0,0,0,1.71-.42C177,230.33,175.34,226.6,172,223.3Z"/>
      <g>
        <path class="cls-14" d="M175.4,229.39l14.5-19.32c.57-.58.33-1.79-.5-2.91l-7.64,7.64-1.21-1.21,7.64-7.64c-1.13-.84-2.33-1.08-2.91-.5L166,220l-.2.14a1.45,1.45,0,0,0-.25,1.28,8.17,8.17,0,0,0,1.45,3,18.48,18.48,0,0,0,4,4,7.85,7.85,0,0,0,3,1.45,1.37,1.37,0,0,0,1.27-.25A.7.7,0,0,0,175.4,229.39Z"/>
        <path class="cls-15" d="M189.4,207.16,231,165.6c-2,2-3.83,3.28-4.16,3s1-2.2,2.95-4.16L188.19,206a5.53,5.53,0,0,1,.65.56A6.67,6.67,0,0,1,189.4,207.16Z"/>
        <path class="cls-13" d="M181.76,214.8l7.64-7.64a6.67,6.67,0,0,0-.56-.65,5.53,5.53,0,0,0-.65-.56l-7.64,7.64Z"/>
      </g>
      <path class="cls-16" d="M233.91,161.44c-.33-.34-2.2,1-4.16,2.95s-3.29,3.83-2.95,4.16,2.19-1,4.16-3S234.24,161.77,233.91,161.44Z"/>
      <rect class="cls-13" x="166.33" y="218.79" width="17.37" height="3.08" transform="translate(-104.54 188.3) rotate(-45)"/>
      <path class="cls-13" d="M181.68,218.44l1.72-2.3a20.74,20.74,0,0,1-2.25-1.95,19.57,19.57,0,0,1-1.94-2.25l-2.3,1.73-4.81,3.61c.11.17.22.35.35.53a19.7,19.7,0,0,0,2.32,2.77,20.23,20.23,0,0,0,2.76,2.32l.54.35Z"/>
      <path class="cls-17" d="M117.87,314.54l1.13-1.08-.73-.73c-.1-2.53-2.09-6.58-5.44-11.2l-3.14,3.14c-1.44,1.44-4,1.13-6.89-.19a25.29,25.29,0,0,1-5.3-3.42c-.41-.34-.82-.69-1.21-1l0,0-.49-.5-.47-.46,0,0c-.37-.39-.72-.79-1.06-1.2a25.59,25.59,0,0,1-3.48-5.24c-1.37-2.83-1.66-5.42-.12-7l3.15-3.15c-5.14-3.72-9.57-5.77-12-5.4l.06-.77-1.38,1.38c-2.19,2.19,1.23,9.31,7.89,17.3,1.26,1.51,2.64,3.06,4.12,4.61.51.54,1,1.08,1.58,1.62l1.63,1.59q2.32,2.22,4.61,4.12c7.55,6.29,14.33,9.69,16.89,8.19h0a2.46,2.46,0,0,0,.4-.3A1.79,1.79,0,0,0,117.87,314.54Z"/>
      <path class="cls-18" d="M114.5,299.86l-3.35,3.36c-1.54,1.53-4.22,1.3-7.11,0a24.24,24.24,0,0,1-5.37-3.35c-.41-.34-.82-.68-1.21-1l0,0-.49-.5-.47-.46,0,0q-.54-.58-1-1.2a24.68,24.68,0,0,1-3.43-5.3c-1.31-2.88-1.53-5.54.12-7.19l3.35-3.35c-6.34-4.5-11.67-6.44-13.6-4.51-2.33,2.33,1,9.58,7.58,17.61,1.25,1.52,2.63,3.07,4.1,4.62.52.54,1,1.09,1.59,1.63s1.08,1.07,1.62,1.58c1.55,1.48,3.1,2.85,4.63,4.1,8,6.62,15.28,9.91,17.6,7.58C120.94,311.53,119,306.21,114.5,299.86Z"/>
    </g>
  </g>
</svg>
