<svg xmlns="http://www.w3.org/2000/svg" viewBox="0 0 269.35 247.47"><defs><style>.cls-1{fill:#cca9ff;stroke:#323232;stroke-width:3px;}.cls-1,.cls-3,.cls-4,.cls-5,.cls-6,.cls-8{stroke-miterlimit:10;}.cls-2{opacity:0.13;}.cls-2,.cls-7{isolation:isolate;}.cls-3{fill:#c9c9c9;stroke:#8c8c8c;}.cls-3,.cls-4{stroke-width:0.5px;}.cls-4{fill:#b1b1b0;stroke:#8e8e8d;}.cls-5,.cls-6{fill:#3c3c3b;stroke:#191918;}.cls-5,.cls-8{stroke-width:0.75px;}.cls-6{stroke-width:0.25px;}.cls-7{fill:#fff;opacity:0.1;}.cls-8{fill:#5c8a46;stroke:#3b562d;}.cls-9{fill:#dadada;}.cls-10{fill:#9d9d9c;}.cls-11{fill:#e6e6e6;}</style></defs><title>SB_26_ICON_shears</title><g id="Layer_2" data-name="Layer 2"><g id="Layer_1-2" data-name="Layer 1"><rect class="cls-1" x="1.5" y="1.5" width="266.35" height="244.47" rx="8.77"/><path class="cls-2" d="M193.67,185.17h0l-4.26-8.57a1.55,1.55,0,0,0-1.36-.76h-.39a.86.86,0,0,0-.11-.29l-29.44-59.64a2.38,2.38,0,0,0-.51-.67h0a1.86,1.86,0,0,0-.28-.21h0l-.3-.16H157l-5.45-10.23L142.45,93.3h0c2.46-13.7,7.26-40.79,8.37-49.42,1.47-11.33.11-16.66,0-17h0c-.07-.47-1.31-8.46-2.27-9.25a11.11,11.11,0,0,0-1-.73.45.45,0,0,0-.62.09.51.51,0,0,0-.07.17l-10.6,53L125.33,17a.43.43,0,0,0-.43-.34h-.1l-.1.05c-.09.06-.2.12-.3.2l-.3.21a1.37,1.37,0,0,0-.4.43,1.22,1.22,0,0,0-.07.17h0c-.68,1.77-2.13,8.78-2.2,9.09h0c-.07.29-1.46,5.62,0,17,1.11,8.63,5.92,35.72,8.38,49.42l-9.06,11.34-5.51,10.12-.25.11-.22.13a2.15,2.15,0,0,0-.52.48l-.06.08a1.38,1.38,0,0,0-.2.33l-4.16,8.43L84.54,175.54c0,.1-.08.19-.11.29a1.81,1.81,0,0,0-1.75.77L62.43,217.27,59.09,224c-.43.89.42,2.21,1.89,2.93l5.84,2.82c1.47.72,3,.57,3.47-.32L84.7,200.47h0L93.88,182a1.48,1.48,0,0,0-.11-1.34l-.12-.2a3.92,3.92,0,0,0-.63-.72v-.1L122.47,120a2.48,2.48,0,0,0,.22-.88c.41-.72,1-1.8,1.75-3a2.07,2.07,0,0,0,.42.31l3.62,1.65a1.34,1.34,0,0,0,1.83-.5h0l.88-1.52a1.34,1.34,0,0,0-.5-1.84l-3.23-2.3-.29-.13a18.56,18.56,0,0,1,1.53-2,49.07,49.07,0,0,1,5-4.56h0a3.47,3.47,0,0,0,.9.21,12.69,12.69,0,0,0,3.89-.09,48.41,48.41,0,0,1,4.83,4.45,18.56,18.56,0,0,1,1.53,2l-.28.13-3.24,2.3a1.36,1.36,0,0,0-.5,1.84l.88,1.52a1.36,1.36,0,0,0,1.84.5l3.61-1.65a2.07,2.07,0,0,0,.42-.31c.72,1.2,1.34,2.28,1.75,3a2.05,2.05,0,0,0,.23.88l13.06,26.47L179,179.73l.06.1-.05,0a3.83,3.83,0,0,0-.29.28q-.17.19-.3.39a1.77,1.77,0,0,0-.33,1.18,1.14,1.14,0,0,0,.1.36l23.59,47.37c.44.89,2,1,3.48.32l5.83-2.84c1.47-.72,2.32-2,1.89-2.93Z"/><path class="cls-3" d="M119.37,103.21l-6,11.17,7.5,4.35s4.42-8,6.5-10.22a52.59,52.59,0,0,1,5-4.56l-4-12.07Z"/><path class="cls-4" d="M141,91.88,137,104a52.59,52.59,0,0,1,5,4.56c2.08,2.27,6.5,10.22,6.5,10.22l7.5-4.35-6-11.17Z"/><path class="cls-5" d="M120.18,115.73l-4.44-2.16a2.27,2.27,0,0,0-3,1L83.18,174.22a2.26,2.26,0,0,0,1,3l4.44,2.17a2.28,2.28,0,0,0,3-1l29.56-59.61A2.27,2.27,0,0,0,120.18,115.73Z"/><path class="cls-4" d="M149.39,25.39c-.07-.47-1.3-8.45-2.26-9.25l-1-.73a.43.43,0,0,0-.61.1.38.38,0,0,0-.08.17L129.57,95a.42.42,0,0,0,.18.45c2.48,1.57,5.53,7.14,6.22,8.43a.41.41,0,0,0,.44.23c2.94-.53,3.1-3.75,3.1-4.09V100c.25-1.37,8.35-46,9.84-57.51,1.46-11.33.1-16.66,0-17A.07.07,0,0,0,149.39,25.39Z"/><path class="cls-6" d="M129.42,113l-3.24-2.3a2.27,2.27,0,0,0-3.1.83l-.33.58a2.27,2.27,0,0,0,.83,3.1l3.62,1.64a1.34,1.34,0,0,0,1.83-.49l.88-1.53A1.34,1.34,0,0,0,129.42,113Z"/><path class="cls-5" d="M156.78,114.58a2.27,2.27,0,0,0-3-1l-4.48,2.15a2.28,2.28,0,0,0-1.05,3l29.44,59.64a2.28,2.28,0,0,0,3,1l4.44-2.17a2.26,2.26,0,0,0,1-3Z"/><path class="cls-7" d="M115.7,113.53a2.27,2.27,0,0,0-3,1L83.18,174.22a2.26,2.26,0,0,0,1,3l3.22,1.57c2.8-6,28.74-55.76,30.47-59.58a8.78,8.78,0,0,1,2.65-3.24,2.62,2.62,0,0,0-.34-.24Z"/><path class="cls-7" d="M153.74,113.53l-4.44,2.2a2.28,2.28,0,0,0-1.05,3l29.44,59.64a2.28,2.28,0,0,0,3,1l.6-.29c-3.42-5.77-24-58.83-24.8-65A2.29,2.29,0,0,0,153.74,113.53Z"/><path class="cls-8" d="M188.08,175.28c-.43-.9-2-1-3.47-.32l-5.84,2.84c-1.47.72-2.32,2-1.88,2.93l23.59,47.37c.43.9,2,1,3.47.32l5.83-2.84c1.48-.72,2.33-2,1.89-2.93Z"/><path class="cls-7" d="M192.35,183.84l-4.27-8.56c-.43-.9-2-1-3.47-.32l-5.84,2.84c-1.47.72-2.32,2-1.88,2.93l16.92,34A168.83,168.83,0,0,1,192.35,183.84Z"/><path class="cls-6" d="M146.36,111.49a2.27,2.27,0,0,0-3.1-.83L140,113a1.34,1.34,0,0,0-.49,1.83l.87,1.53a1.35,1.35,0,0,0,1.84.49l3.62-1.64a2.28,2.28,0,0,0,.83-3.1Z"/><path class="cls-3" d="M138,83.61c-1.26-.67-7.91-4.56-2.11-8.64a.39.39,0,0,0,.17-.42l-12.13-59a.4.4,0,0,0-.48-.32.24.24,0,0,0-.14,0,3.12,3.12,0,0,0-1,.84c-.63,1.42-2.2,8.94-2.27,9.26h0c-.08.28-1.47,5.61,0,17,1.49,11.56,9.6,56.18,9.84,57.51V100c0,.34.17,3.78,3.41,4.14a11.91,11.91,0,0,0,6.19-.82.41.41,0,0,0,.22-.41l-1.47-19A.43.43,0,0,0,138,83.61Z"/><circle class="cls-9" cx="134.43" cy="95.07" r="3.6"/><path class="cls-10" d="M134.43,93.56a1.51,1.51,0,1,0,1.51,1.51h0A1.52,1.52,0,0,0,134.43,93.56Z"/><path class="cls-11" d="M123.94,15.57a.4.4,0,0,0-.48-.32.24.24,0,0,0-.14.05,3.12,3.12,0,0,0-1,.84,1.82,1.82,0,0,1-.14.38l12.24,59.81A7.14,7.14,0,0,1,135.91,75a.39.39,0,0,0,.17-.42Z"/><path class="cls-8" d="M90.66,177.8,84.83,175c-1.47-.72-3-.58-3.47.32L57.77,222.65c-.44.9.41,2.21,1.88,2.93l5.84,2.84c1.47.72,3,.58,3.47-.32l23.59-47.37C93,179.84,92.18,178.52,90.66,177.8Z"/><path class="cls-7" d="M90.66,177.8,84.83,175c-1.47-.72-3-.58-3.47.32L61.1,216c6.65-6.62,13.85-12.72,22.27-16.79l9.18-18.43C93,179.84,92.18,178.52,90.66,177.8Z"/></g></g></svg>