<svg xmlns="http://www.w3.org/2000/svg" viewBox="0 0 269.35 247.47"><defs><style>.cls-1{fill:#cca9ff;stroke:#323232;stroke-width:3px;}.cls-1,.cls-2,.cls-3,.cls-4,.cls-5{stroke-miterlimit:10;}.cls-2{fill:#dd372a;stroke:#871e18;}.cls-2,.cls-5{stroke-width:0.75px;}.cls-3,.cls-5{fill:#474141;stroke:#1e1a1a;}.cls-3{stroke-width:0.5px;}.cls-11,.cls-4{fill:#cecece;}.cls-4{stroke:#757575;stroke-width:0.25px;}.cls-6{fill:#c6130a;}.cls-7{fill:#f45a4a;}.cls-8{fill:#fff;}.cls-9{fill:#2f65bc;}.cls-10{fill:#5886e0;}.cls-12{fill:#a8a8a8;}.cls-13{fill:#e2e2e2;}.cls-14{fill:#332d2d;}.cls-15{fill:#565050;}.cls-16{fill:#ff886c;}.cls-17{fill:#6d6969;}</style></defs><title>SB_26_ICON_fire_protection</title><g id="Layer_2" data-name="Layer 2"><g id="Layer_1-2" data-name="Layer 1"><rect class="cls-1" x="1.5" y="1.5" width="266.35" height="244.47" rx="8.77"/><path class="cls-2" d="M160,77.14c-.57-12.78-18.86-18.88-32.76-18.88s-32.19,6.1-32.76,18.88,0,132.17,0,132.17,19.22,2.63,32.76,1.33c13.54,1.3,32.76-1.33,32.76-1.33S160.6,89.91,160,77.14Z"/><path class="cls-3" d="M93.27,192.17H86.81c0-16.42-6-35.74-11.79-54.42-6.91-22.28-13.44-43.33-10.74-60.36C68.12,53.13,84.71,39.81,111,39.81h.71l-.06,6.47c-16.35-.14-36.76,5.3-41,32.12-2.5,15.54,3.84,35.89,10.5,57.44C87.18,155,93.27,174.73,93.27,192.17Z"/><path class="cls-4" d="M123.37,38.55c-3.73,0-12.34.22-12.34.22a70.72,70.72,0,0,0-.13,8.49l12.47.33Z"/><path class="cls-4" d="M119.84,43.63a2.09,2.09,0,0,0-.33,1.42l.15,7.93A65.41,65.41,0,0,0,135,52.53l.14-9.8a124,124,0,0,0-13.9.44A2,2,0,0,0,119.84,43.63Z"/><path class="cls-4" d="M133.33,42.65c-.18-3.07-.26-3.13-.44-6.2a31.94,31.94,0,0,0-10.76.73l-.58,6.18A107.79,107.79,0,0,0,133.33,42.65Z"/><path class="cls-2" d="M126.88,27.32a148.81,148.81,0,0,1,23.78-1c5.47.31,15.93,6.07,16.08,8.1-.39,2-10.08-3.06-12.61-3.9s-11.6.88-21.17,2c0,2.28.08,3.44.13,5.73-2.66,0-8.5,0-11.16,0a38.76,38.76,0,0,1,.87-7.89,4.12,4.12,0,0,1,1-2.15C124.55,27.41,125.78,27.46,126.88,27.32Z"/><path class="cls-2" d="M130.09,32.73c10.86,2.6,25.51,8.38,31.78,14.61.74.73.82,2.9-2.37,1.22-11-5.62-19.41-8.34-31.43-11.32Z"/><path class="cls-2" d="M117.63,60.41c.48-2.8.71-5.78,1.35-9.14a56.54,56.54,0,0,1,17.13-.19c.28,3.84.15,6.19.4,9.81Z"/><path class="cls-5" d="M161.74,215.09a145.59,145.59,0,0,0,1-21.18l-2.36-1.18v2.38c-22.33,3.52-43.88,2.5-66.08,0,0-1.54-.08-.85-.08-2.38l-2.33.62c-.61,7.71-.16,20.24.85,20.68C107.8,220.58,149.18,219.94,161.74,215.09Z"/><path class="cls-6" d="M134,59.58c-4.57-1-9.82-.39-14.38.36-.3,0-.78.58-.22.53,4.69-.35,9.33,0,14-.11C133.62,60.35,134.53,59.73,134,59.58Z"/><path class="cls-6" d="M133,35.85c-.09-.62-.24-1.25-.29-1.87,0-.24-.54,0-.53.15.05.64,0,1.3,0,1.94a4.92,4.92,0,0,0,.1,1.71c.14.36.83-.06.87-.31A4.93,4.93,0,0,0,133,35.85Z"/><path class="cls-6" d="M134.09,32.11c-1.89-.3-4.17.42-6,.86-.1,0-.36.28-.12.29a17,17,0,0,0,5.86-.47C134.07,32.73,134.68,32.21,134.09,32.11Z"/><path class="cls-7" d="M113.8,62.89A28.48,28.48,0,0,0,99.64,73.25a153.61,153.61,0,0,0,38.68.66,55.32,55.32,0,0,0-.69-11.78C129.67,61.26,121.42,60.4,113.8,62.89Z"/><path class="cls-7" d="M130.94,52.27a73.17,73.17,0,0,0-10.34.93l-.52,4.37q5.34,0,10.68-.36Z"/><path class="cls-7" d="M147.59,26.81,128,28.36a5.63,5.63,0,0,0-2.61.64,4.74,4.74,0,0,0-1.76,3.82,15.34,15.34,0,0,1-.44,4.32l4.21-.33q.42-3.14.85-6.26,9.79-.77,19.51-2.26C147.68,27.8,147.63,27.31,147.59,26.81Z"/><path class="cls-7" d="M134.74,37c7.18,3.22,14.41,6.46,22.08,8.24a97.05,97.05,0,0,0-21.29-9.59C135.26,36.07,135,36.52,134.74,37Z"/><path class="cls-7" d="M152.18,28.67l10.72,3.79a17,17,0,0,0-10.53-4.81A6.09,6.09,0,0,1,152.18,28.67Z"/><path class="cls-7" d="M135.07,193.93c1.35-31.2,1.11-84.2,1.79-116.14l-38,1.64c-1.24,30.21-1.7,82.68-1.39,112.93C109.65,194.66,123.6,194.83,135.07,193.93Z"/><path class="cls-8" d="M152.26,86.73a310.84,310.84,0,0,1-49.39-.06,271.36,271.36,0,0,0-.71,29.5,200.94,200.94,0,0,0,50.1,0C152.18,106.43,153.12,96.56,152.26,86.73Z"/><path class="cls-9" d="M150.06,113.73q-6.57.83-13.87,1.13a215.16,215.16,0,0,1-31.8-1.13A203.46,203.46,0,0,1,105,89.29a311.25,311.25,0,0,0,31.89.71c4.52-.13,8.91-.36,13.13-.66C150.84,97.52,150,105.73,150.06,113.73Z"/><path class="cls-10" d="M136.93,90q-.37,12.44-.74,24.86a215.16,215.16,0,0,1-31.8-1.13A203.46,203.46,0,0,1,105,89.31,311.25,311.25,0,0,0,136.93,90Z"/><path class="cls-11" d="M86.39,205.09a16.75,16.75,0,0,0,6.39-.09q.61-8.17,1.22-16.37l-8.5.65Q85.95,197.19,86.39,205.09Z"/><path class="cls-3" d="M94.26,194.08a57.48,57.48,0,0,0-9.64.19q-.12,7-.25,14.08a33.64,33.64,0,0,0,12.26,4Z"/><path class="cls-12" d="M133.54,43a98.35,98.35,0,0,0-12.14.16c-.24,0-.76.51-.31.53a103.76,103.76,0,0,0,12.09-.07C133.45,43.6,134.09,43.06,133.54,43Z"/><path class="cls-12" d="M121.31,38.91c0-.32-.7-.07-.71.2a10.94,10.94,0,0,0,0,3.33c.07.23.57,0,.61-.17A12.6,12.6,0,0,0,121.31,38.91Z"/><path class="cls-12" d="M118.92,43.23c0-.32-.67-.06-.71.19a7,7,0,0,0,0,3.53c.13.31.86,0,.85-.31A27.7,27.7,0,0,1,118.92,43.23Z"/><path class="cls-13" d="M131.08,43.79a3.8,3.8,0,0,1-2.12.38l-7.66-.12v5.83q4.77-.1,9.51-.55C130.89,47.48,131,45.64,131.08,43.79Z"/><path class="cls-13" d="M129.58,39.11l-6.81-.1v2.73a52,52,0,0,1,6.72-.13A11,11,0,0,1,129.58,39.11Z"/><path class="cls-13" d="M117.57,44.73l.66-5.11a16.93,16.93,0,0,0-6.3.37v4.84Z"/><path class="cls-14" d="M93.37,196.25c0-.45-1-.09-1,.28a128.24,128.24,0,0,0-.31,14c0,.45.94.09,1-.26A128.55,128.55,0,0,0,93.37,196.25Z"/><path class="cls-15" d="M99.43,213.41a70.72,70.72,0,0,0,34.83,1l-.08-16.26a277.14,277.14,0,0,1-34.58-.75A111.12,111.12,0,0,0,99.43,213.41Z"/><path class="cls-15" d="M86,195.46v12l2.69.51q.63-6.36.92-12.75Z"/><path class="cls-15" d="M88.67,174.4C88.09,171.31,73,115.63,71,109.62c-1-3-.69-7.9-1.35-10.94-.39-1.78-.64-3.57-.89-5.37-.22-1.56,0-3.23-.88-4.58-.15-.22-.57,0-.65.18-1.09,2.55-.27,6,.16,8.62s.69,8.52,1.48,11.27c1.75,6.08,17.58,66.33,18.58,69,.56,1.49.2,3.22.92,4.65.16.34.9,0,1-.26C89.93,179.73,89.18,176.89,88.67,174.4Z"/><path class="cls-15" d="M103.12,41.88c-8.75-.7-18.45,4.62-24.73,10.26C71.55,58.3,66.6,67.73,66.73,77c0,.37.7,0,.75-.2,1.74-8.56,4.86-16.46,11-22.83A36.27,36.27,0,0,1,89,46.6c4.34-2.08,8.77-2.58,13.41-3.47C102.84,43,104.29,42,103.12,41.88Z"/><path class="cls-16" d="M118.65,74.51q.94-6.47,1.9-12.93a23.58,23.58,0,0,0-13.31,11.48Q113,73.51,118.65,74.51Z"/><path class="cls-16" d="M126,57.63a.63.63,0,0,0,.14-.44l.15-4.76-4.12.42-.42,4.61,3.85.24A.56.56,0,0,0,126,57.63Z"/><path class="cls-16" d="M104.39,79.45a12.35,12.35,0,0,1-1,5.19A74.05,74.05,0,0,0,121.3,84V78.42Z"/><path class="cls-16" d="M138.64,28.9a4.51,4.51,0,0,0,1.54-.24,1.49,1.49,0,0,0,.95-1.15q-6.85.7-13.71,1.21c0,.43,0,.86-.08,1.29A97.14,97.14,0,0,1,138.64,28.9Z"/><path class="cls-16" d="M139.79,37.43a2.21,2.21,0,0,0,.13.47L152,43.08c-.23-1-1.3-1.59-2.27-2A66.37,66.37,0,0,0,139.79,37.43Z"/><path class="cls-16" d="M105.1,121.38c-.06,15.53-.13,53.29-.2,68.82h10.65c1.8-15.37,2.66-53.08,2.59-68.56Z"/><path class="cls-8" d="M117.62,39.92a20.52,20.52,0,0,0-4.62.59c-.31.08-1.06.79-.34.83a18.24,18.24,0,0,0,4.3-.29,1.51,1.51,0,0,0,.94-.5C118.1,40.27,118,39.92,117.62,39.92Z"/><path class="cls-8" d="M124.18,46.47c-.07-.71,0-1.62-.73-1.92a.45.45,0,0,0-.44.13,2.73,2.73,0,0,0-.73,2c-.07.8-.23,2.07.27,2.73.38.5,1.42.06,1.61-.45A5.37,5.37,0,0,0,124.18,46.47Z"/><path class="cls-8" d="M123.8,48.59c-.6,0-1.88,1.15-.87,1.15C123.53,49.73,124.81,48.59,123.8,48.59Z"/><path class="cls-8" d="M129.11,39.83a8,8,0,0,0-3-.08,5.82,5.82,0,0,0-2.65.7c-.07,0-.2.16-.1.24.53.42,1.42.25,2,.25a17.43,17.43,0,0,0,2.89,0C128.59,40.86,129.93,40.08,129.11,39.83Z"/><path class="cls-8" d="M90.91,190.44c-.52.12-1,.27-1.57.38a11.27,11.27,0,0,1-2.08.33c-.1,0-.48.22-.26.28s.44.22.7.27a4.45,4.45,0,0,0,1.15.07,5.45,5.45,0,0,0,2.2-.55C91.65,190.93,91.72,190.25,90.91,190.44Z"/><path class="cls-8" d="M92,190.32c-.6,0-1.88,1.15-.87,1.15C91.73,191.47,93,190.32,92,190.32Z"/><path class="cls-17" d="M81.49,52.23c.14-.15-.17-.14-.24-.08-14.37,9.92-19.9,32.26-11.78,47.69.19.36,1.06,0,1-.42C67.82,90.69,66.75,82,69,73,71,64.82,75.91,58.35,81.49,52.23Z"/><path class="cls-17" d="M73.18,124.31c-.11-.11-.43.06-.39.21,1.46,5.32,8.45,26.44,9.75,31.83.09.34.89,0,.9-.33C83.62,150.31,76.83,128.25,73.18,124.31Z"/><path class="cls-17" d="M87.78,196c0-.15-.37,0-.39.11a24.59,24.59,0,0,0-.67,9.39c.06.49.94.06,1-.28A23.27,23.27,0,0,0,87.78,196Z"/><path class="cls-17" d="M117.48,199.12a33.29,33.29,0,0,1-10.77-.38q-.21,7.6-.41,15.23a53.1,53.1,0,0,0,9.82,1A158.82,158.82,0,0,0,117.48,199.12Z"/></g></g></svg>