<svg xmlns="http://www.w3.org/2000/svg" width="273" height="512" viewBox="0 0 273 512">
<!-- 512 -->
  <defs>
    <style>
      .cls-1 {
        isolation: isolate;
      }

      .cls-2 {
        fill: #cca9ff;
        stroke: #323232;
        stroke-width: 3px;
      }

      .cls-12, .cls-2, .cls-3, .cls-5, .cls-8, .cls-9 {
        stroke-miterlimit: 10;
      }

      .cls-3 {
        fill: #d6d8d9;
      }

      .cls-3, .cls-5 {
        stroke: #b7b7b7;
      }

      .cls-12, .cls-3, .cls-5 {
        stroke-width: 0.75px;
      }

      .cls-4 {
        fill: #929c9e;
        mix-blend-mode: multiply;
        opacity: 0.25;
      }

      .cls-5 {
        fill: #f1f2f2;
      }

      .cls-6, .cls-9 {
        fill: #939598;
      }

      .cls-7 {
        fill: #bcbec0;
      }

      .cls-8 {
        fill: #e6e7e8;
        stroke: #9f9fa0;
      }

      .cls-8, .cls-9 {
        stroke-width: 0.5px;
      }

      .cls-9 {
        stroke: #6a6b6d;
      }

      .cls-10 {
        fill: #f7f8f9;
      }

      .cls-11 {
        fill: #d6d6d6;
      }

      .cls-12 {
        fill: #1faaff;
        stroke: #106d9b;
      }

      .cls-13 {
        fill: #0c93bc;
      }

      .cls-14 {
        fill: #75cffc;
      }
    </style>
  </defs>
  <g class="cls-1">
    <g id="Layer_1" data-name="Layer 1">
      <g>
        <rect class="cls-2" x="3.32" y="133.3" width="266.35" height="244.47" rx="8.77"/>
        <g>
          <g>
            <path class="cls-3" d="M211.2,319.48a14.68,14.68,0,1,1-10.7-14.14A14.68,14.68,0,0,1,211.2,319.48Z"/>
            <g>
              <path class="cls-4" d="M200.5,305.34l-1.94,14h-4.09l-1.94-14a14.71,14.71,0,0,1,8,0Z"/>
              <path class="cls-5" d="M201.22,310.57a2.76,2.76,0,0,1-1.49-2.44V294.62H193.3v13.46a2.79,2.79,0,0,1-1.47,2.48,10.07,10.07,0,1,0,9.39,0Z"/>
            </g>
            <path class="cls-6" d="M196.52,310.69a8.79,8.79,0,1,1-8.79,8.79A8.8,8.8,0,0,1,196.52,310.69Zm0,15.91a7.12,7.12,0,1,0-7.13-7.12A7.14,7.14,0,0,0,196.52,326.6Z"/>
            <circle class="cls-7" cx="196.52" cy="319.48" r="6.48"/>
            <circle class="cls-6" cx="196.52" cy="319.48" r="2.56"/>
          </g>
          <g>
            <g>
              <path class="cls-8" d="M111.51,269.17h-.32A35.48,35.48,0,0,1,77,241.87L63.22,185.1a19.16,19.16,0,0,1,12.67-22.72L89.6,157.9l1.31,4-13.72,4.48a15,15,0,0,0-9.89,17.74l13.76,56.78A31.29,31.29,0,0,0,111.22,265h.58A31.29,31.29,0,0,0,142,240.89l13.75-56.78a15,15,0,0,0-9.88-17.74l-13.72-4.48,1.3-4,13.72,4.48a19.15,19.15,0,0,1,12.66,22.72L146,241.87a35.49,35.49,0,0,1-34.21,27.3Z"/>
              <g>
                <path class="cls-7" d="M92.66,155.35l-.87.38L94,162.35l.92-.21a1.55,1.55,0,0,0,1.16-2,17.74,17.74,0,0,1-1.26-3.86A1.55,1.55,0,0,0,92.66,155.35Z"/>
                <path class="cls-9" d="M96.56,160l0-.05a17.35,17.35,0,0,1-1.22-3.75l0-.06a2.1,2.1,0,0,0-2.87-1.27l-.3.13h0l-7.84,3.38a1.46,1.46,0,0,0-.81,1.79l1.16,3.55a1.47,1.47,0,0,0,1.39,1h0a1.86,1.86,0,0,0,.33,0L93.58,163h0l.24-.06.85-.19h0l.32-.07a2.14,2.14,0,0,0,1.39-1A2.09,2.09,0,0,0,96.56,160Zm-1.15,1.15a1,1,0,0,1-.66.47l-.43.1L92.48,156l.41-.18a1,1,0,0,1,1.33.56,18.11,18.11,0,0,0,1.29,3.92A1,1,0,0,1,95.41,161.12Z"/>
              </g>
              <g>
                <path class="cls-7" d="M130.37,155.41l.87.37-2.17,6.62-.92-.21a1.55,1.55,0,0,1-1.16-2,18,18,0,0,0,1.27-3.87A1.55,1.55,0,0,1,130.37,155.41Z"/>
                <path class="cls-9" d="M138.73,158.4l-6.8-2.93h0l-.13-.05-.9-.39h0l-.3-.13a2,2,0,0,0-.87-.19,2.11,2.11,0,0,0-2,1.45v.07a17.34,17.34,0,0,1-1.23,3.74l0,.06a2.1,2.1,0,0,0,1.56,2.71l.33.07h0l.86.2.24.05h0l7.22,1.65a1.12,1.12,0,0,0,.32,0,1.45,1.45,0,0,0,1.39-1l1.16-3.55A1.46,1.46,0,0,0,138.73,158.4Zm-11.12,2.77a1,1,0,0,1-.09-.77,19,19,0,0,0,1.28-3.92,1,1,0,0,1,1.34-.56l.41.18-1.85,5.64-.44-.1A.92.92,0,0,1,127.61,161.17Z"/>
              </g>
              <path class="cls-10" d="M78,161.69s-16.18,6.46-13.92,21.76l10.57,48.81L63,183.94S60.34,166.8,78,161.69Z"/>
              <path class="cls-10" d="M140,164.47s9.9.86,15,7.25A19,19,0,0,1,156.09,187l-6.64,23,6.65-26.71s1.65-9.62-6.08-14.73A24.54,24.54,0,0,0,140,164.47Z"/>
              <path class="cls-11" d="M79.12,232.9,66.23,184s-2.84-10.48,5.66-14.6c0,0-7.07,4.45-4.59,14.68Z"/>
              <path class="cls-11" d="M146.88,238.38l11.36-53.06s2.22-8.67-2.15-16.34c0,0,6.26,5.57,3.47,17.07Z"/>
            </g>
            <path class="cls-12" d="M199.53,290.36l0-.05a3.33,3.33,0,0,1-.2-1.08,23.78,23.78,0,0,0-47.56.86v42.53a18.18,18.18,0,0,1-18.18,18.19h-1.08a18.18,18.18,0,0,1-18.18-18.19V276.19a7.5,7.5,0,0,1,5.7-7.32A36.26,36.26,0,0,0,146.72,242l.66-2.72L141.94,238l-.66,2.72a30.6,30.6,0,0,1-29.49,23.55h-.57a30.59,30.59,0,0,1-29.48-23.55L81.08,238l-5.44,1.32L76.3,242A36.25,36.25,0,0,0,103,268.87a7.51,7.51,0,0,1,5.7,7.32v56.43a23.78,23.78,0,0,0,23.78,23.78h1.08a23.78,23.78,0,0,0,23.78-23.78V290.06a18.18,18.18,0,0,1,36.35-1,3.12,3.12,0,0,1-.19,1.28,3.26,3.26,0,0,0-.21,1.16V301h6.43v-9.55A3.32,3.32,0,0,0,199.53,290.36Z"/>
            <path class="cls-13" d="M199.55,300.84h-1.29l.28-9.72-.48-.74s1-23.92-28.17-23.69c0,0,15.84-4.6,26.35,11.4,0,0,3,6.3,2.88,11.51l.43,1.46Z"/>
            <path class="cls-13" d="M117.44,342.84s5.77,14.82,23.85,9c0,0,11.53-5.27,11.53-18.18l-1.07-36.75.2,36.28s-.21,16.52-17.89,17.94A18,18,0,0,1,117.44,342.84Z"/>
            <path class="cls-13" d="M146,239.14S143,260.2,121.4,266.92c0,0-10.13,1.16-8.26,11.23l1.17,51.4V276.73s-1-7.36,7.24-8.26c0,0,21-4.73,25.62-29Z"/>
            <path class="cls-14" d="M75.89,239.42s3.54,22.8,26.59,29.32c0,0-22.09-7.88-25.4-29.58Z"/>
            <path class="cls-14" d="M108.71,283.46l1.46,50.7a28,28,0,0,0,16.7,21.57s-15.26-3.25-18.11-21.57Z"/>
            <path class="cls-14" d="M189.39,278s-12.6-19-30.16,0c0,0-4.83,6.06-3.36,17.42l1.37,27.43V287.77s2.39-17,19.18-16.15C176.41,271.62,183.15,270.55,189.39,278Z"/>
          </g>
        </g>
      </g>
    </g>
  </g>
</svg>
