<svg xmlns="http://www.w3.org/2000/svg" xmlns:xlink="http://www.w3.org/1999/xlink" viewBox="0 0 269.35 247.47"><defs><style>.cls-1{fill:#cca9ff;stroke:#323232;stroke-width:3px;}.cls-1,.cls-5,.cls-7{stroke-miterlimit:10;}.cls-2{fill:#b79c2c;}.cls-3{fill:#ceb345;}.cls-4{fill:#e5ca5a;}.cls-5{fill:#5acc90;stroke:#387a56;}.cls-5,.cls-7{stroke-width:0.5px;}.cls-6{fill:#4bb77c;}.cls-7{fill:#8e8e8e;stroke:#505151;}.cls-8{opacity:0.4;isolation:isolate;fill:url(#linear-gradient);}</style><linearGradient id="linear-gradient" x1="365.26" y1="-342.21" x2="376.64" y2="-342.21" gradientTransform="matrix(0.95, 0.31, 0.31, -0.95, -90.51, -336.26)" gradientUnits="userSpaceOnUse"><stop offset="0.02" stop-color="#fff"/><stop offset="0.72" stop-color="#636060"/><stop offset="1" stop-color="#231f20"/></linearGradient></defs><title>SB_26_ICON_mop_stick</title><g id="Layer_2" data-name="Layer 2"><g id="Layer_1-2" data-name="Layer 1"><rect class="cls-1" x="1.5" y="1.5" width="266.35" height="244.47" rx="8.77"/><path class="cls-2" d="M138.4,220.06c-1.44,1.46-3.92,1-5.7,0a12,12,0,0,1-4.61-4.75c-.46-2.38-1-4.76-1.5-7.12l-8.41-4.05-3.09-.63H115l-4.69-3.69c-1.65.05-3.06,1.21-4.67,1.57a13.85,13.85,0,0,1-4.54-.21,21.5,21.5,0,0,0-2.54-.13l-11-1.35a2.15,2.15,0,0,0-.38,1.63A12.34,12.34,0,0,1,83,200.1,10.62,10.62,0,0,1,77.43,192c-.06-.48-.17-1.09-.65-1.2a1.22,1.22,0,0,0-.6.06,7.35,7.35,0,0,1-4-.15c1.15,3.67,2.44,7.54,4.91,10.38A34.54,34.54,0,0,0,72.18,200a23.65,23.65,0,0,0-7.35-3.07,1.7,1.7,0,0,0-1,0,1.87,1.87,0,0,0-.91,1.06l-.87,1.8a1.08,1.08,0,0,0-.16.63,44.14,44.14,0,0,0-8.2,2.35l1.49,1.75a1.11,1.11,0,0,0,.47.39,1.13,1.13,0,0,0,.7-.07,26.64,26.64,0,0,1,12.14-.5,7.75,7.75,0,0,0-1.26.32c-2.09.73-3.77,2.29-5.66,3.44a15.63,15.63,0,0,1-10,2.12c-1.8-.23-3.7-.77-5.38-.08l10.52,2.38h0a24.93,24.93,0,0,0-8.44.32.59.59,0,0,0-.43.21.68.68,0,0,0-.06.42,19.17,19.17,0,0,0,.53,3.28,5.5,5.5,0,0,0,2.61.19,21.77,21.77,0,0,1,5.22.39c-2.85.4-5.65,1.46-7.31,3.74a35.65,35.65,0,0,1,15.48.68,12.67,12.67,0,0,0,1.44,4.6,17,17,0,0,1,9.43.39,10,10,0,0,0,2.35,1l.22.12c.84,1.18,1.67,2.37,2.51,3.56,2.74-1.62,6.21-1.47,9.24-.52s5.79,2.59,8.68,3.92A42.78,42.78,0,0,0,115,238.6a1.77,1.77,0,0,1-.39.87,2.89,2.89,0,0,1-2.46.66,9.72,9.72,0,0,0,5.72.42,42.41,42.41,0,0,0,8.06-2,3.32,3.32,0,0,0,1.39-.81,2.73,2.73,0,0,0,.53-1.39v-.23a7.24,7.24,0,0,0,.71-1.24,14.67,14.67,0,0,0,1-3.09,6.28,6.28,0,0,0,2.3.86A3.79,3.79,0,0,1,133.6,230c.36-.21.79-.42.89-.82a8,8,0,0,1-4.72-2.74c-.07-.76-.18-1.52-.28-2.28-.08-.54-.17-1.08-.26-1.62a12.85,12.85,0,0,1,5,3.23c.25-.57,1.24.06,1.73-.32s0-1.1-.1-1.71C135.71,222.16,138.11,221.54,138.4,220.06Z"/><path class="cls-3" d="M117.18,213.56h-2.12l-10.28,10.79c-1.85,1.93-3.87,4-6.48,4.5-3.2.66-6.38-1.06-9.64-1.28a7.63,7.63,0,0,1-.13,1c2,.6,3.9,1.59,5.91,2.24a8.74,8.74,0,0,0,6.17,0c1.86-.83,3.12-2.56,4.73-3.8,2.36-1.82,5.44-2.57,7.64-4.57C115.44,220.2,116.38,216.79,117.18,213.56Z"/><path class="cls-3" d="M115.54,200.61l-4.76.58a10.51,10.51,0,0,1-7.29,1.87c-2.56-.16-5.07-.81-7.63-1.06s-5.39-.09-8.06-.41a36.94,36.94,0,0,0-3.93-.46c-1.33,0-2.66.22-4,.26A26.87,26.87,0,0,1,75,201l-8.22-1.19A13.93,13.93,0,0,1,68,203a1.17,1.17,0,0,0,1,1.19,99.4,99.4,0,0,0,20.47,3.42c4.76.29,9.55.22,14.28.81a17.14,17.14,0,0,0,4.17.24C111.9,208.22,114.88,204.51,115.54,200.61Z"/><path class="cls-4" d="M111.5,208a14.22,14.22,0,0,1-4,.52,60,60,0,0,1-13.7-1.25c-1.91-.39-3.81-.88-5.74-1.16a56.49,56.49,0,0,0-5.82-.39,56.34,56.34,0,0,0-11.61.47,18.82,18.82,0,0,0-10.29,5.05l-.11-.08a4,4,0,0,1-.08,2.52,31.25,31.25,0,0,1,20.22-6c6.55.38,12.88,2.83,19.44,2.89,4.53,0,9-1.06,13.53-1.1a18.69,18.69,0,0,0,2-4.06A8.22,8.22,0,0,1,111.5,208Z"/><path class="cls-4" d="M78.35,218.63a6.63,6.63,0,0,1,3.74-3.2,19.28,19.28,0,0,1,4.93-1L99.66,213c3.78-.41,8-1,10.38-4a20.17,20.17,0,0,0,2.43-4.56.68.68,0,0,1,.26-.34.7.7,0,0,1,.53,0l3.5,1.07a16.94,16.94,0,0,1-8.26,9.6c-8.34,4.27-19,1.11-27.33,5.44a1.76,1.76,0,0,1-.8.26,1.48,1.48,0,0,1-.55-.13l-2.23-.82"/><path class="cls-4" d="M74.24,214.52a24.2,24.2,0,0,1,5.29-.62c1.52,0,3,.12,4.55.06A36.43,36.43,0,0,0,93,212.13l-9.78-1.83a29.62,29.62,0,0,0-10.82.44,20.28,20.28,0,0,0-4.1,1.27c-2.64,1.17-4.87,3.14-7.55,4.2A21.07,21.07,0,0,1,56,217.32h.17c-2.85.4-5.65,1.46-7.31,3.74a35.28,35.28,0,0,1,9.46-.39L60,220l6.66-2.79A47.84,47.84,0,0,1,74.24,214.52Z"/><path class="cls-4" d="M117.88,226.88c.42-2.6-1.26-5.23-.71-7.81a12.09,12.09,0,0,1,2-3.83,20.27,20.27,0,0,0,2.78-6.93l-1.58-.2a12.76,12.76,0,0,0-5.5,9.51c-.23,3.27.77,6.85-.89,9.68a3.52,3.52,0,0,1-1.46,1.45,6.81,6.81,0,0,1-2.65.29,9.41,9.41,0,0,0-5.49,1.93,7.27,7.27,0,0,1,6.54,1.2c.32-1,1.75-1,2.83-1.22A5.08,5.08,0,0,0,117.88,226.88Z"/><path class="cls-4" d="M112.82,216.51a25.92,25.92,0,0,0,4.11-4c1.22-1.35,2.52-3,2.26-4.77l-1-.49-2.27-1.11a26.46,26.46,0,0,1-8.58,8.49c-3,1.67-6.36,2.45-9.63,3.43a76.65,76.65,0,0,0-20.12,9.56l.2.11q1.26,1.77,2.51,3.56a9.2,9.2,0,0,1,4.09-1.2c3-.57,6.3-.51,9.23-1.52,4.82-1.66,8.19-6,12.59-8.56C108.36,218.79,110.77,218,112.82,216.51Z"/><path class="cls-3" d="M134.57,229.09a8,8,0,0,1-4.72-2.74c0-.15-4.34-6.29-5.21-9.7a15.64,15.64,0,0,1,.36-9.21l-1.35-.65-2.53,1.94c-1.32,3.08-2.09,12.72-.85,15.82.88,2.2,2.9,3.72,4.93,4.93a32.1,32.1,0,0,0,4.43,2.21,6.28,6.28,0,0,0,2.3.86,3.79,3.79,0,0,1,1.75-2.64C134,229.73,134.47,229.49,134.57,229.09Z"/><path class="cls-3" d="M126.11,210.73c.09.48.67.66,1.15.54-.21-1-.43-2-.67-3l-8.41-4.13-3.09-.63H115l-4.69-3.69c-1.34,0-2.53.81-3.8,1.29a3.47,3.47,0,0,1-2.65,2.59l2.49-.09a14.64,14.64,0,0,1-5.07.94,13.59,13.59,0,0,0,6.88-.12,26.31,26.31,0,0,1-14.37,2.26,23.77,23.77,0,0,0,16,1.28c-1.26,1.53-4.35,3.22-5.26,3.78,1.23,0,5.57.07,6.16-3.43-.6,3.18-3.79,5.08-6.67,6.57-1.45.75-8.92.45-10.37,1.2,2.25-1,11,.54,13.42-.17,3-.87,5.13-3.45,8-4.69-1.38,2.24-2.77,4.47-4.16,6.71,2.59-1,4.22-3.5,5.68-5.86-.68,3.14-1.36,6.29-2,9.43a11.83,11.83,0,0,1,2-4.46h.07c.19,0,.33-.18.4-.37a18.35,18.35,0,0,1,2.49-4.17c-.18,2.32-1.4,4.62-1.13,6.3.52-2.67,2.52-5.22,4.11-7.44l3.66,6.18A26.39,26.39,0,0,1,126.11,210.73Z"/><path class="cls-3" d="M103.84,203.67h-.35A2,2,0,0,0,103.84,203.67Z"/><path class="cls-4" d="M118.66,240.36a27.61,27.61,0,0,0,2.15-5,11.06,11.06,0,0,0,.17-6.27c-.43-1.41-1.23-2.7-1.68-4.09a26,26,0,0,1,.49,4.31c-.32,3-2.09,5.59-4,7.95-.37.47-1,1.31-.82,1.31a1.77,1.77,0,0,1-.39.87,2.89,2.89,0,0,1-2.46.66,9.72,9.72,0,0,0,5.72.42Z"/><path class="cls-3" d="M74,222.08c-3.22-.16-6.59-.75-9.64,0a13.85,13.85,0,0,0,1.41,4.24,16.51,16.51,0,0,1,4.26-.51,35.86,35.86,0,0,1,3.77-1.33c4-1.12,8.37-1.36,11.61-3.91A32.94,32.94,0,0,1,74,222.08Z"/><path class="cls-5" d="M128,209.13s-3.09,2.65-11.33-1.1c-7.9-3.59-8.35-8-8.35-8l8.77-11s2.53-.95,6.65.71c4.51,1.82,5.49,4.62,5.49,4.62Z"/><path class="cls-6" d="M123.94,201.86c.69-2.78,3.23-4.64,4.91-7a7.53,7.53,0,0,1-8.11.27,7.11,7.11,0,0,1-3.35-5.95l-.17.06-8.66,10.83s.22,4.35,8.12,7.94c8.24,3.75,11.33,1.1,11.33,1.1V209q-.37-.19-.78-.36A6.11,6.11,0,0,1,123.94,201.86Z"/><path class="cls-7" d="M125.1,194s-.83.67-3,.06a2.76,2.76,0,0,1-2-1.95l67.68-179.7s.48-.9,3,.14c1.85.75,2,1.75,2,1.75Z"/><path class="cls-8" d="M122.11,194.12a5.48,5.48,0,0,0,2.24.19l68-179.83a4.53,4.53,0,0,1-1.22-.07,11.48,11.48,0,0,1-1.16-.27Z"/></g></g></svg>