<svg xmlns="http://www.w3.org/2000/svg" viewBox="0 0 182.64 182.64"><defs><style>.a{fill:#fff;}.b{fill:#f99573;}.c{fill:#cc1b1b;}.d{fill:#f4413d;}.e{fill:#d8d8d8;}.f{fill:#fbfcfa;}</style></defs><circle class="a" cx="91.32" cy="91.32" r="91.32"/><circle class="b" cx="91.32" cy="91.32" r="81.81"/><circle class="c" cx="88.49" cy="94.15" r="78.98"/><circle class="d" cx="90.15" cy="92.49" r="77.32"/><path class="e" d="M120.19,82.13,77.07,57.23a10.63,10.63,0,0,0-15.94,9.21v49.79a10.62,10.62,0,0,0,15.94,9.2l43.12-24.9a10.62,10.62,0,0,0,0-18.4Z"/><path class="f" d="M119.93,80.53,77,56.13a10.62,10.62,0,0,0-15.89,9.23v48.91A10.63,10.63,0,0,0,77,123.5l42.91-24.45a10.63,10.63,0,0,0,0-18.52Z"/></svg>