<svg xmlns="http://www.w3.org/2000/svg" viewBox="0 0 130 130"><defs><style>.a{fill:#fff;}.b{fill:#f975a8;}.c{fill:#d8256a;}.d{fill:#f92d74;}.e{fill:#d8d8d8;}.f{fill:#fbfcfa;}</style></defs><circle class="a" cx="65" cy="65" r="65"/><circle class="b" cx="65" cy="65" r="58.23"/><circle class="c" cx="67.01" cy="67.01" r="56.22"/><circle class="d" cx="65.83" cy="65.83" r="55.04"/><path class="e" d="M42.31,63.55c1.38-3.31,8.87-9.91,18.73-16.27,9.28-6,17.89-10,21.86-10.32h.85a4.84,4.84,0,0,1,3.1,8.31l-3.25,2c-9.87,6.36-17.36,13-18.74,16.27a5.9,5.9,0,0,0,.86,6.58C68.26,73.69,75,79.4,83.6,84.92c1.1.71,2.19,1.39,3.26,2a4.84,4.84,0,0,1-3,8.29H83c-4-.34-12.59-4.33-21.91-10.33-8.56-5.52-15.34-11.23-17.88-14.8a5.92,5.92,0,0,1-.85-6.58Z"/><path class="f" d="M42.31,61.35C43.69,58,51.18,51.43,61,45.07c9.28-6,17.89-10,21.86-10.32h.85a4.85,4.85,0,0,1,3.1,8.32c-1.07.64-2.16,1.32-3.25,2-9.87,6.36-17.36,13-18.74,16.28a5.9,5.9,0,0,0,.86,6.58C68.26,71.5,75,77.21,83.6,82.73c1.1.7,2.19,1.38,3.26,2a4.85,4.85,0,0,1-3,8.3H83c-4-.33-12.59-4.32-21.91-10.32-8.56-5.52-15.34-11.23-17.88-14.8a5.92,5.92,0,0,1-.85-6.58Z"/></svg>