<svg xmlns="http://www.w3.org/2000/svg" xmlns:xlink="http://www.w3.org/1999/xlink" width="128" height="373" viewBox="0 0 128 373">
  <defs>
    <style>
      .cls-1 {
        isolation: isolate;
      }

      .cls-10, .cls-2 {
        opacity: 0.3;
      }

      .cls-21, .cls-22, .cls-23, .cls-3 {
        fill: #f2ab88;
      }

      .cls-3, .cls-7 {
        stroke: #2d2b2a;
      }

      .cls-13, .cls-14, .cls-20, .cls-21, .cls-22, .cls-23, .cls-28, .cls-3, .cls-32, .cls-33, .cls-34, .cls-4, .cls-7 {
        stroke-miterlimit: 10;
      }

      .cls-21, .cls-22, .cls-23, .cls-28, .cls-3, .cls-32, .cls-33, .cls-34 {
        stroke-width: 0.25px;
      }

      .cls-12, .cls-4 {
        fill: #6690c4;
      }

      .cls-13, .cls-14, .cls-20, .cls-4 {
        stroke: #0e1c3f;
      }

      .cls-13, .cls-14, .cls-20, .cls-4, .cls-7 {
        stroke-width: 0.5px;
      }

      .cls-5 {
        fill: #333232;
      }

      .cls-6 {
        fill: #3b3f45;
      }

      .cls-7 {
        fill: #36393d;
      }

      .cls-8 {
        fill: #2e2d2d;
      }

      .cls-9 {
        fill: #bcbec0;
      }

      .cls-10, .cls-20 {
        fill: #ea9d6c;
      }

      .cls-10, .cls-12, .cls-19, .cls-33, .cls-34 {
        mix-blend-mode: multiply;
      }

      .cls-11 {
        fill: #325377;
      }

      .cls-12 {
        opacity: 0.2;
      }

      .cls-13, .cls-18 {
        fill: #4572a3;
      }

      .cls-14, .cls-16 {
        fill: #8bade0;
      }

      .cls-15 {
        fill: #799cd1;
      }

      .cls-17 {
        fill: #d5e7fa;
      }

      .cls-19 {
        opacity: 0.3;
      }

      .cls-21 {
        stroke: #ce7959;
      }

      .cls-22 {
        stroke: #424141;
      }

      .cls-23 {
        stroke: #3a3938;
      }

      .cls-24 {
        fill: url(#radial-gradient);
      }

      .cls-25 {
        fill: url(#radial-gradient-2);
      }

      .cls-26 {
        fill: #ce7959;
      }

      .cls-27, .cls-32 {
        fill: #1e1d1d;
      }

      .cls-28, .cls-31 {
        fill: #fdfaee;
      }

      .cls-28 {
        stroke: #3d0414;
      }

      .cls-29 {
        fill: #633837;
      }

      .cls-30 {
        fill: #321413;
      }

      .cls-32, .cls-33, .cls-34 {
        stroke: #211f1e;
      }

      .cls-33, .cls-34 {
        fill: #995235;
      }

      .cls-33 {
        opacity: 0.5;
      }

      .cls-34 {
        opacity: 0.35;
      }

      .cls-35 {
        fill: #2c435b;
      }

      .cls-36 {
        fill: #3f5f7a;
      }

      .cls-37 {
        fill: #f4c812;
      }

      .cls-38 {
        fill: #fdc400;
      }
    </style>
    <radialGradient id="radial-gradient" cx="-412.14" cy="27.3" r="3.65" gradientTransform="translate(560.53 22.69) scale(1.21 1.09)" gradientUnits="userSpaceOnUse">
      <stop offset="0" stop-color="#f29788"/>
      <stop offset="0.61" stop-color="#f2a388"/>
      <stop offset="0.92" stop-color="#f2ab88"/>
    </radialGradient>
    <radialGradient id="radial-gradient-2" cx="-4703.64" cy="27.3" r="3.65" gradientTransform="matrix(-1.21, 0, 0, 1.09, -5671.13, 22.69)" xlink:href="#radial-gradient"/>
  </defs>
  <g class="cls-1">
    <g id="Layer_1" data-name="Layer 1">
      <g>
        <ellipse class="cls-2" cx="66.64" cy="361.94" rx="61.04" ry="10.45"/>
        <g>
          <path class="cls-3" d="M27.76,113.1c1.93-13.83,2.44-29.23-5.41-26.81"/>
          <path class="cls-3" d="M22.35,86.29c-6.53,2-14,5.65-14.95,23.53a137.34,137.34,0,0,1-2.35,17C3.32,136.1,1.23,145.42.83,151.33c-.51,7.36,14.06,7,14.85,1.29.25-1.87,3.77-10.33,6.47-19.76.77-2.69,1.47-5.47,2-8.19,0,0,3.31-9.43,3.6-11.57"/>
          <path id="hand" class="cls-3" d="M90.81,97.31c-3.59-8.86-10.85-11-10.85-11-4.74,7.88-1.22,16.88-5.94,28.52,0,0,21.23,22.63,22.71,26.71s16.35,4.15,16.35-3.13C113.08,131.85,97,112.51,90.81,97.31Z"/>
          <path id="hand-2" data-name="hand" class="cls-4" d="M91.29,95.68C86.41,87.45,80,86.29,80,86.29c-4.74,7.88-1.22,16.88-5.94,28.52,0,0,7.68,12.34,14.44,21,3.18,4.07,20.46-9.23,18.07-12.92C100.91,114.18,95.45,102.71,91.29,95.68Z"/>
          <g id="legs">
            <g>
              <path class="cls-5" d="M48.89,361.91H28.33c-.91,0-.89,2.25-.6,3.1l.13.4a2.14,2.14,0,0,0,1.9,1.4h17.7a2.13,2.13,0,0,0,1.89-1.4l.14-.4C49.78,364.16,49.8,361.91,48.89,361.91Z"/>
              <g>
                <path class="cls-5" d="M42.28,347.07H33.35c-.78,0-1.41,1.16-1.41,2.6v5.9c0,.83.36,1.51.81,1.51H42.87c.45,0,.82-.68.82-1.51v-5.9C43.69,348.23,43.06,347.07,42.28,347.07Z"/>
                <path class="cls-6" d="M41,353.45H36.26a8.51,8.51,0,0,0-8.5,8.51h0a1.5,1.5,0,0,0,1.5,1.5H48a1.51,1.51,0,0,0,1.51-1.5h0A8.51,8.51,0,0,0,41,353.45Z"/>
              </g>
            </g>
            <path class="cls-7" d="M74.81,168.65s8.46,14.32,10.48,29c2.63,19,3,59,4.58,78.22.43,5.24,3.1,16,3.47,21.22.83,11.49,3.13,43.55,3.39,54.59,0,2.48-20.23,3.09-20.63,1-1.61-8.47-5.91-34.13-8.18-49.73-1.26-8.69,0-18.54-.42-22.8-1.29-11.72-21.72-71.89-21.72-71.89l4-38.64Z"/>
            <path class="cls-7" d="M25.8,167.4s-11.72,20.07-12.13,34.17c-.56,19.5,8.89,78.35,8.89,78.35S19.34,298.18,20,305.61c.55,6,5,36.16,6.66,46.34.37,2.28,22.28,1.92,22.21-.73-.32-12.35-2.79-50.71-3.39-59.43-.37-5.37,3.38-65,4.83-81.75l6.34-5L55.51,169.4Z"/>
            <path class="cls-8" d="M47.39,177.6c1.49,0,3,0,4.67-.09,18.64-.76,23.75-3.24,24.43-3.66l-1.42-9.24s-6.9,2.63-23.32,3.29c-18.84.78-27.24-3-28.25-3.35l-1,8.25C23.36,173.35,29.47,177.6,47.39,177.6Z"/>
            <path class="cls-9" d="M54.7,179.86H47.77a2.17,2.17,0,0,1-2.17-2.16v-9.95a2.17,2.17,0,0,1,2.17-2.16H54.7a2.16,2.16,0,0,1,2.16,2.16v9.95A2.16,2.16,0,0,1,54.7,179.86Zm-6.93-12.73a.62.62,0,0,0-.62.62v9.95a.62.62,0,0,0,.62.62H54.7a.62.62,0,0,0,.62-.62v-9.95a.62.62,0,0,0-.62-.62Z"/>
            <g>
              <path class="cls-5" d="M97.83,360.39H77.27c-.91,0-.89,2.25-.6,3.1l.14.4a2.13,2.13,0,0,0,1.89,1.4H96.4a2.14,2.14,0,0,0,1.9-1.4l.13-.4C98.72,362.64,98.74,360.39,97.83,360.39Z"/>
              <g>
                <path class="cls-5" d="M91.22,345.55H82.29c-.78,0-1.41,1.16-1.41,2.6v5.91c0,.83.37,1.5.82,1.5H91.82c.45,0,.81-.67.81-1.5v-5.91C92.63,346.71,92,345.55,91.22,345.55Z"/>
                <path class="cls-6" d="M89.9,351.93H85.21a8.51,8.51,0,0,0-8.51,8.51h0a1.51,1.51,0,0,0,1.51,1.5H96.9a1.5,1.5,0,0,0,1.5-1.5h0A8.51,8.51,0,0,0,89.9,351.93Z"/>
              </g>
            </g>
          </g>
          <g id="hand-3" data-name="hand">
            <path class="cls-3" d="M.83,151.33c-.51,7.36,1.3,43.39,1.3,43.39s6.82,4.11,7.55.36c1-5.27,6.21-28.67,6-42.46"/>
            <g>
              <path class="cls-3" d="M2.13,194.72c.27,4.41-1.75,16.33-.92,17.87,1,1.82,1.64,5.31,2.15,6.24,1,1.84,5.43,5.25,6.5,5.87s1.28-.92,1.11-2.47-2.67-5.88-2.75-6.71c-.16-1.89-.63-6.53,1-7,1.85-.58,1.88,3.52,1.24,5.24-.29.81-.41,2.46.51,2.7s1.08-1,2.07-3.2c.77-1.68.72-4.2,1-6.84a13.79,13.79,0,0,0-2-6.12c-1.31-1.93-2.31-3.49-2.38-5.18"/>
              <path class="cls-10" d="M9.38,208.45c1.69-.29,1.7,3.6,1.08,5.27-.29.81-.41,2.46.51,2.7s1-.8,1.84-2.66l0,0a2.31,2.31,0,0,1-.61-1.88,9.19,9.19,0,0,0-1.43-4.65C10.41,206.72,9.81,207.4,9.38,208.45Z"/>
            </g>
          </g>
          <g id="body">
            <path class="cls-11" d="M59.71,75c-1.28-2-19.38-1.24-20.35-.52s-.72,4.84-.72,4.84V89L60.91,86.9,61,78.72A8,8,0,0,0,59.71,75Z"/>
            <path id="body-2" data-name="body" class="cls-3" d="M63.21,83.38C60.92,82.4,58,82.05,58,73c0-4.35,1-15.34.64-16.78L42.85,54.39c.5,1.38-.43,19.78-1.87,24.71-.73,2.53-12.16,5.38-18.2,11.2-5,4.84.59,35.73,3.52,50.78,1.31,6.73.16,22.28.16,22.28,17.57,5.13,40,3.61,47.45-3.29,0,0-.3-13.93.07-20.27"/>
            <path class="cls-12" d="M94.8,134.93C88,126,80.36,113.22,80.36,113.22c3.13-8-.34-16.88-1.65-24.35-2.81,7.27-.48,15.55-4.69,25.94,0,0,7.68,12.34,14.44,21,1.05,1.34,3.62.79,6.52-.67A1.62,1.62,0,0,1,94.8,134.93Z"/>
            <path class="cls-4" d="M80,86.29l-19.69-5C57.2,84.49,49.8,95.68,49.8,95.68S41.39,83.76,36.28,81.32c0,0-13,4.08-16.66,6.23s2.18,29.57,2.18,29.57,3.39,32.27.43,45.66c-.35,1.63,1.14,3,3.57,4.62,4,2.64,11.51,4.37,23.73,4.81,14.39.52,20.64-1.17,25.28-3.56,1.43-.73,3-3.16,2.72-4.74-2.6-13.11,3.26-44.59,3.26-44.59"/>
            <path class="cls-12" d="M81,117.27s-9.57,21.77-10.22,36c-.09,2-8.55,3.82-24.41,4.86-1.61.1,10.19,3.57,22.08,3.32,5.22-.1-6.56,7-25.35,5.67-9.72-.69-16.48-1.52-20.84-3.32.31,1.21,1.62,2.34,3.53,3.6,4,2.64,11.51,4.37,23.73,4.81,14.39.52,20.64-1.17,25.28-3.56,1.43-.73,3-3.16,2.72-4.74-2.6-13.11,3.26-44.59,3.26-44.59S80.88,118.56,81,117.27Z"/>
            <g>
              <path class="cls-13" d="M53.75,82.05c-1,0-4,13.63-4,13.63s5.13-6.16,6.28-8.47L61,89.52,59.93,77.44a.66.66,0,0,0-1.24-.25C57.62,79.26,55.8,82,53.75,82.05Z"/>
              <path class="cls-13" d="M45.69,82.05c1,0,4.11,13.63,4.11,13.63s-5-5.28-6.44-8.13l-5.33,2,1.84-13.74S41.82,82,45.69,82.05Z"/>
              <path class="cls-14" d="M53.75,82.05,61,89.52s3.43-6.17,3-8.26C63.69,80.1,59.71,75,59.71,75S57.41,80,53.75,82.05Z"/>
              <path class="cls-14" d="M45.78,82.31l-7.66,7.47s-3.83-5.21-3.79-7.54c0-1.19,5.12-7.55,5.12-7.55S42,80.21,45.78,82.31Z"/>
            </g>
            <g>
              <path class="cls-15" d="M72.83,131.32H63.45a1.81,1.81,0,0,1-1.28-.53l-2.27-2.27a1.77,1.77,0,0,1-.53-1.27V111.46H76.9v15.79a1.77,1.77,0,0,1-.53,1.27l-2.27,2.27A1.8,1.8,0,0,1,72.83,131.32Z"/>
              <path class="cls-16" d="M73.08,118.94H63.2a1.93,1.93,0,0,1-1.35-.55L59.46,116a1.91,1.91,0,0,1-.55-1.34v-4H77.37v4a1.88,1.88,0,0,1-.56,1.34l-2.39,2.4A1.93,1.93,0,0,1,73.08,118.94Z"/>
              <path class="cls-15" d="M69.5,116.06a1.19,1.19,0,1,1-1.19-1.19A1.18,1.18,0,0,1,69.5,116.06Z"/>
              <path class="cls-17" d="M69.15,115.88a1,1,0,1,1-1-1A1,1,0,0,1,69.15,115.88Z"/>
            </g>
            <g>
              <path class="cls-15" d="M39,131.32H29.64a1.77,1.77,0,0,1-1.27-.53l-2.27-2.27a1.77,1.77,0,0,1-.53-1.27V111.46H43.09v15.79a1.77,1.77,0,0,1-.53,1.27l-2.27,2.27A1.77,1.77,0,0,1,39,131.32Z"/>
              <path class="cls-16" d="M39.27,118.94H29.39a1.91,1.91,0,0,1-1.34-.55L25.66,116a1.88,1.88,0,0,1-.56-1.34v-4H43.56v4A1.88,1.88,0,0,1,43,116l-2.39,2.4A1.91,1.91,0,0,1,39.27,118.94Z"/>
              <circle class="cls-15" cx="34.5" cy="116.06" r="1.18"/>
              <circle class="cls-17" cx="34.33" cy="115.88" r="1.01"/>
              <path class="cls-18" d="M49.8,93.29v1.29h.72l-.1,4.7c0,1.57-.09,3.13-.08,4.7l0,9.4-.07,18.81L50.17,151v4.7c0,1.57,0,3.14,0,4.71-.2,3.13-.36,6.26-.6,9.4-.22-3.14-.36-6.27-.54-9.41,0-1.57,0-3.13,0-4.7l0-4.7.06-18.81.07-18.81,0-9.4c0-1.57,0-3.14,0-4.71l-.07-4.7h.73Z"/>
            </g>
          </g>
          <g>
            <path class="cls-4" d="M22.35,86.29c-6.53,2-14.55,5.62-16,23.47-.46,5.74-2.62,14.89-3.51,20.91-1,6.57,19.16,9.7,19.52,6,.28-2.78.1-4.72.64-7.44,0,0,.05-9-.45-17.81"/>
            <path id="shade" class="cls-12" d="M21.71,103.23c-.9,6.15-1.29,6-2.29,14a65.35,65.35,0,0,1-1.74,7.29c-.54,3-1.52,10.32-1.8,13.44a.7.7,0,0,1,0,.14c3.5.34,6.38-.09,6.51-1.47.28-2.78.1-8.44.64-11.16,0,0-.28-11.56-.45-13.7C22.27,108.11,21.7,108.64,21.71,103.23Z"/>
          </g>
          <g id="hand-4" data-name="hand">
            <path class="cls-3" d="M96.73,138.94c-4,4-8.52,22.65-12.26,28.07l5,7.49s13.63-16.89,18.35-23c3.59-4.67,6.32-12.52,4.85-15.37"/>
            <g>
              <path class="cls-3" d="M86.21,168.65,84.59,167l-.24-.05c-.9-.28-6.68-2.06-8.26-1.84-1.23.18-7.76,7-7.76,7s-2,2.26-1.58,3a1.1,1.1,0,0,0,1.16.49,1.07,1.07,0,0,0,.58-.23c.73-.57,3-2.37,3.75-2.79A19.93,19.93,0,0,0,74.4,171l-2.49,2.76-.12.15-3.15,4.95-.06.1c-.13.27-.62,1.34-.12,1.89a1,1,0,0,0,.71.3,1.07,1.07,0,0,1,1,.79,1.24,1.24,0,0,0,.24.47,1,1,0,0,0,.89.28,1.2,1.2,0,0,1,1.23.79.54.54,0,0,0,.07.13c.4.64,1.79.22,2.29.05a1,1,0,0,0,.32-.18,41.19,41.19,0,0,1,6.54-4.28,37.93,37.93,0,0,0,7.37-4.47c.21-.16.59-.39.65-.66l2.18-2.7"/>
              <path class="cls-3" d="M75.8,165.25c-1.4,1.17.66,2.11.8,2.94s-.87.89-.48,2.16,1.08,1.4,1.59,2c.81.92-1.14,2-.4,3.38.49.94,1.61.92,2.1,1.7s1.28,2.36,2.32,1.82"/>
              <g class="cls-19">
                <polygon class="cls-20" points="70.01 180.51 73.27 176.28 75.5 174.1 73.19 177.61 70.01 180.51"/>
              </g>
              <g class="cls-19">
                <polygon class="cls-20" points="73.01 181.89 75.85 178.45 77.85 176.73 75.86 179.62 73.01 181.89"/>
              </g>
            </g>
          </g>
          <g id="head">
            <g id="ears">
              <g>
                <path class="cls-3" d="M25.12,46.36C27.84,42.51,34,48.78,34,48.78s3.82,4.67-.63,10.32c-2.23,2.82-4.8.69-6.52-2.67S23.19,49.1,25.12,46.36Z"/>
                <path class="cls-21" d="M29,56.82a2.52,2.52,0,0,0,2.26,1,.94.94,0,0,0,.63-1c-.25-.83-2.8-2.32-2.17-4.65s-2.21-4.6-3.1-3.31C26,49.84,26.79,54.44,29,56.82Z"/>
              </g>
              <g>
                <path class="cls-22" d="M73.46,46.36c-2.72-3.85-8.88,2.42-8.88,2.42s-3.82,4.67.63,10.32c2.23,2.82,4.8.69,6.52-2.67S75.39,49.1,73.46,46.36Z"/>
                <path class="cls-23" d="M69.55,56.82a2.52,2.52,0,0,1-2.26,1,.94.94,0,0,1-.63-1c.26-.83,2.8-2.32,2.17-4.65s2.21-4.6,3.11-3.31C72.63,49.84,71.79,54.44,69.55,56.82Z"/>
              </g>
            </g>
            <path class="cls-24" d="M65,52.32c0,2-2.13,3.66-4.75,3.66s-4.74-1.64-4.74-3.66,2.12-3.66,4.74-3.66S65,50.3,65,52.32Z"/>
            <path class="cls-25" d="M33.59,52.32c0,2,2.13,3.66,4.75,3.66s4.75-1.64,4.75-3.66S41,48.66,38.34,48.66,33.59,50.3,33.59,52.32Z"/>
            <path id="face" class="cls-3" d="M69.39,28.11c-.53-3.15-2.59-5.81-5.2-8a22.87,22.87,0,0,0-29.68,0c-2.61,2.17-4.67,4.83-5.21,8,0,0-1.27,24.74,4.63,34.23,4.57,7.35,10.33,11.33,15.42,11.33s10.85-4,15.42-11.33C70.67,52.85,69.39,28.11,69.39,28.11Z"/>
            <g id="nose">
              <path class="cls-26" d="M48.64,56.79a4.74,4.74,0,0,1-1.75-.34,2.46,2.46,0,0,1-1.65-1.79c-.18-1.09,3.09-16,3.08-16.11a.41.41,0,1,1,.81-.16c0,.28-3.19,15.4-3.08,16.12a1.71,1.71,0,0,0,1.14,1.14,3.19,3.19,0,0,0,2.86-.11.39.39,0,0,1,.57.08.43.43,0,0,1-.08.6A3,3,0,0,1,48.64,56.79Z"/>
            </g>
            <g id="eyebros">
              <path class="cls-27" d="M53.12,31.62s5.8-.36,7.19.25S64.69,35,64.5,35.92s-4.84-1.27-5.41-1.16-6.07.41-6.51-.41S52.15,31.62,53.12,31.62Z"/>
              <path class="cls-27" d="M45.24,31.76s-5.79-.56-7.19,0-4.44,2.95-4.27,3.9,4.86-1.1,5.43-1,6.06.61,6.52-.18S46.22,31.8,45.24,31.76Z"/>
            </g>
            <g id="eye_2" data-name="eye 2">
              <path class="cls-28" d="M61.72,44.05a4.27,4.27,0,1,1-4.26-4.22A4.24,4.24,0,0,1,61.72,44.05Z"/>
            </g>
            <g id="eyeball2">
              <g>
                <path class="cls-29" d="M60,44.27a2.5,2.5,0,1,1-2.5-2.58A2.54,2.54,0,0,1,60,44.27Z"/>
                <path class="cls-30" d="M59,44.27a1.52,1.52,0,1,1-1.52-1.56A1.54,1.54,0,0,1,59,44.27Z"/>
              </g>
              <ellipse class="cls-31" cx="58.39" cy="43.66" rx="0.49" ry="0.51"/>
            </g>
            <g id="eye1">
              <path class="cls-28" d="M36.57,44.05a4.27,4.27,0,1,0,4.26-4.22A4.24,4.24,0,0,0,36.57,44.05Z"/>
            </g>
            <g id="eyeball1">
              <g>
                <path class="cls-29" d="M38.33,44.27a2.51,2.51,0,1,0,2.5-2.58A2.54,2.54,0,0,0,38.33,44.27Z"/>
                <path class="cls-30" d="M39.32,44.27a1.52,1.52,0,1,0,1.51-1.56A1.54,1.54,0,0,0,39.32,44.27Z"/>
              </g>
              <path class="cls-31" d="M42.44,43.66a.49.49,0,1,1-.49-.52A.5.5,0,0,1,42.44,43.66Z"/>
            </g>
            <path id="mouth" class="cls-26" d="M57.7,58.11c-.46,0-.64-.67-.65-.69a.4.4,0,0,0-.5-.3.43.43,0,0,0-.29.53,1.93,1.93,0,0,0,.23.53c-7.2,5.95-14.23.81-15.29,0a3,3,0,0,0,.2-.49.44.44,0,0,0-.29-.53.41.41,0,0,0-.51.3s-.18.64-.65.69a.43.43,0,0,0-.37.47A.42.42,0,0,0,40,59h0a1.26,1.26,0,0,0,.59-.21,14.75,14.75,0,0,0,8.57,3.08,12.05,12.05,0,0,0,7.89-3.05,1.38,1.38,0,0,0,.54.18h0a.43.43,0,0,0,0-.86Z"/>
            <g id="hairs">
              <path class="cls-32" d="M31.33,48c-.65-10.82.46-18.87,1.06-19.82a24.1,24.1,0,0,0,6.87-9.56s8.51,4.32,22,2.59c0,0,2.5,3.69,4.77,7.49,1.1,1.83,1.57,12.41,1.27,19.27a3.45,3.45,0,0,0,1,2.66l.44.42c1.66-3.52,3.31-18.32,2.47-23.22C68.85,14,59.31,12.57,49.81,12.57a26.09,26.09,0,0,0-11.44,2.74c-.73-.23-1.84-.5-1.82-.65-5.08.36-7.67,7.91-9.17,13.16s.8,19.7,2.46,23.22h0A3.39,3.39,0,0,0,31.33,48Z"/>
              <path class="cls-32" d="M71.65,12c0,4.85-7.61,2.81-17.56-3.06C44.34,3.21,39.5,8.2,37.53,11.5a21.63,21.63,0,0,1,2.29-6.63c-5.06,2.49-4.72,6.79-4,9.17a7.23,7.23,0,0,0-6.58,1.48s5.15-.84,7.05.86c.24.22,1,.61,1.13.69C42.7,23.21,48,26.19,59,25.36c6.07-.46,8.09-1.19,11-4.42C73.34,17.12,71.65,12,71.65,12Z"/>
              <path class="cls-33" d="M59,25.36c5.72-.43,7.84-1.11,10.48-3.88A15.53,15.53,0,0,1,58,17.24c-.1,1.58.65,3.69,2.67,6.12a26.67,26.67,0,0,1-13.18-5.81c.8,1.69,1.63,4.49,2.43,5.33-2.5,0-9.17-3.05-10.67-3.75C44,23.86,49.28,26.09,59,25.36Z"/>
              <path class="cls-32" d="M67.31,40c.08,2.76.07,5.61,0,8a3.45,3.45,0,0,0,1,2.66l.44.42c.94-2,1.86-7.53,2.35-12.88A11.38,11.38,0,0,1,67.31,40Z"/>
              <path class="cls-34" d="M31.16,39.73A12.78,12.78,0,0,1,27.29,39c.57,5.1,1.65,10.16,2.55,12.06h0a3.39,3.39,0,0,0,1.47-3C31.15,45,31.11,42.21,31.16,39.73Z"/>
            </g>
            <path class="cls-35" d="M74.34,22c0,4.19-1.22,9.79-24.59,9.79S25.17,26.2,25.17,22s11-7.58,24.58-7.58S74.34,17.83,74.34,22Z"/>
            <path class="cls-35" d="M70.07,7.7a14.52,14.52,0,0,0-5.2-3.06L52.77,1.09a12.81,12.81,0,0,0-6,0L34.64,4.64a14.52,14.52,0,0,0-5.2,3.06l-4.17,4.15a3.17,3.17,0,0,0-.05,4.4l1.49,1.57A7.87,7.87,0,0,0,32,19.92L46.6,19.3c1.74-.07,4.57-.07,6.31,0l14.6.62a7.85,7.85,0,0,0,5.28-2.1l1.5-1.57a3.17,3.17,0,0,0-.06-4.4Z"/>
            <path class="cls-36" d="M76,21.08c1.11,1.09.6,2-1.14,2H24.67c-1.73,0-2.25-.89-1.14-2l1.67-1.64a8.47,8.47,0,0,1,5.17-2H69.13a8.42,8.42,0,0,1,5.17,2Z"/>
            <path class="cls-37" d="M46.82,16.07a2.71,2.71,0,0,1-2.41-1.43L42.6,10.08a2,2,0,0,1,.92-2.32l4.74-2.82a3.26,3.26,0,0,1,3,0L56,7.76a2,2,0,0,1,.92,2.32L55.1,14.64a2.71,2.71,0,0,1-2.41,1.43Z"/>
            <path class="cls-38" d="M47.36,15a2.19,2.19,0,0,1-2-1.17l-1.48-3.72a1.62,1.62,0,0,1,.75-1.89l3.87-2.29a2.61,2.61,0,0,1,2.43,0l3.86,2.29a1.64,1.64,0,0,1,.76,1.89l-1.48,3.72a2.2,2.2,0,0,1-2,1.17Z"/>
          </g>
        </g>
      </g>
    </g>
  </g>
</svg>
