<svg id="Layer_1" data-name="Layer 1" xmlns="http://www.w3.org/2000/svg" width="273" height="512" viewBox="0 0 273 512">
  <defs>
    <style>
      .cls-1 {
        fill: #cca9ff;
        stroke: #323232;
        stroke-width: 3px;
      }

      .cls-1, .cls-3, .cls-4, .cls-5, .cls-6, .cls-8 {
        stroke-miterlimit: 10;
      }

      .cls-2 {
        opacity: 0.13;
      }

      .cls-3 {
        fill: #c9c9c9;
        stroke: #8c8c8c;
      }

      .cls-3, .cls-4 {
        stroke-width: 0.5px;
      }

      .cls-4 {
        fill: #b1b1b0;
        stroke: #8e8e8d;
      }

      .cls-5, .cls-6 {
        fill: #3c3c3b;
        stroke: #191918;
      }

      .cls-5, .cls-8 {
        stroke-width: 0.75px;
      }

      .cls-6 {
        stroke-width: 0.25px;
      }

      .cls-7 {
        fill: #fff;
        opacity: 0.1;
      }

      .cls-8 {
        fill: #5c8a46;
        stroke: #3b562d;
      }

      .cls-9 {
        fill: #dadada;
      }

      .cls-10 {
        fill: #9d9d9c;
      }

      .cls-11 {
        fill: #e6e6e6;
      }
    </style>
  </defs>
  <g>
    <rect class="cls-1" x="3.32" y="133.77" width="266.35" height="244.47" rx="8.77"/>
    <g>
      <path class="cls-2" d="M195.49,317.44h0l-4.26-8.57a1.57,1.57,0,0,0-1.36-.76h-.39c0-.1-.07-.19-.11-.29l-29.44-59.64a2.29,2.29,0,0,0-.51-.67l0,0a1.86,1.86,0,0,0-.28-.21l0,0a2.11,2.11,0,0,0-.3-.16h0l-.07,0-5.45-10.23-9.05-11.34h0c2.46-13.7,7.26-40.79,8.37-49.42,1.47-11.33.11-16.66,0-17,0,0,0,0,0,0-.07-.47-1.31-8.46-2.27-9.25-.19-.16-.61-.48-1-.73a.44.44,0,0,0-.69.26l-10.6,53-10.93-53.12a.43.43,0,0,0-.43-.34l-.1,0-.1.05c-.09.06-.2.12-.3.2l-.3.21a1.4,1.4,0,0,0-.4.43,1.47,1.47,0,0,0-.07.17h0c-.68,1.77-2.13,8.78-2.2,9.09v0c-.07.29-1.46,5.62,0,17,1.11,8.63,5.92,35.72,8.38,49.42l-9.06,11.34L117.06,247l-.25.11-.22.13a2.36,2.36,0,0,0-.52.48l-.06.08a1.38,1.38,0,0,0-.2.33l-4.16,8.43L86.36,307.81c0,.1-.08.19-.11.29a1.79,1.79,0,0,0-1.75.77L64.25,349.54l-3.34,6.71c-.43.89.42,2.21,1.89,2.93L68.64,362c1.47.72,3,.57,3.47-.32l14.41-28.94h0l9.18-18.43a1.5,1.5,0,0,0-.11-1.34l-.12-.2a4.11,4.11,0,0,0-.63-.72l0-.1,29.45-59.64a2.38,2.38,0,0,0,.22-.88c.41-.72,1-1.8,1.75-3a1.9,1.9,0,0,0,.42.31l3.62,1.65a1.34,1.34,0,0,0,1.83-.5l.88-1.52a1.35,1.35,0,0,0-.5-1.84l-3.23-2.3-.29-.13a18.65,18.65,0,0,1,1.53-2,49,49,0,0,1,5-4.56h0a3.84,3.84,0,0,0,.9.21,12.85,12.85,0,0,0,3.89-.09,48.27,48.27,0,0,1,4.83,4.45,18.65,18.65,0,0,1,1.53,2l-.28.13-3.24,2.3a1.36,1.36,0,0,0-.5,1.84l.88,1.52a1.36,1.36,0,0,0,1.84.5l3.61-1.65a1.9,1.9,0,0,0,.42-.31c.72,1.2,1.34,2.28,1.75,3a2.21,2.21,0,0,0,.23.88l13.06,26.47L180.84,312a.53.53,0,0,0,.06.1l-.05.05a3.9,3.9,0,0,0-.29.28q-.17.19-.3.39a1.77,1.77,0,0,0-.33,1.18,1.14,1.14,0,0,0,.1.36l23.59,47.37c.44.89,2,1,3.48.32l5.83-2.84c1.47-.72,2.32-2,1.89-2.93Z"/>
      <g>
        <path class="cls-3" d="M121.19,235.48l-6,11.17,7.5,4.35s4.42-7.95,6.5-10.22a51.63,51.63,0,0,1,5-4.56l-4-12.07Z"/>
        <path class="cls-4" d="M142.84,224.15l-4,12.07a51.63,51.63,0,0,1,5,4.56c2.08,2.27,6.5,10.22,6.5,10.22l7.5-4.35-6-11.17Z"/>
        <path class="cls-5" d="M122,248l-4.44-2.16a2.27,2.27,0,0,0-3,1L85,306.49a2.26,2.26,0,0,0,1,3l4.44,2.17a2.28,2.28,0,0,0,3-1.05L123,251A2.28,2.28,0,0,0,122,248Z"/>
        <path class="cls-4" d="M151.21,157.66c-.07-.47-1.3-8.45-2.26-9.25l-1-.73a.44.44,0,0,0-.69.27l-15.87,79.32a.42.42,0,0,0,.18.45c2.48,1.57,5.53,7.14,6.22,8.43a.41.41,0,0,0,.44.23c2.94-.53,3.1-3.75,3.1-4.09,0,0,0,0,0-.06.25-1.37,8.35-46,9.84-57.51,1.46-11.33.1-16.66,0-17A.08.08,0,0,0,151.21,157.66Z"/>
        <path class="cls-6" d="M131.24,245.23l-3.24-2.3a2.27,2.27,0,0,0-3.1.83l-.33.58a2.27,2.27,0,0,0,.83,3.1l3.62,1.64a1.34,1.34,0,0,0,1.83-.49l.88-1.53A1.34,1.34,0,0,0,131.24,245.23Z"/>
        <path class="cls-5" d="M158.6,246.85a2.27,2.27,0,0,0-3-1L151.12,248a2.28,2.28,0,0,0-1.05,3l29.44,59.64a2.28,2.28,0,0,0,3,1.05l4.44-2.17a2.26,2.26,0,0,0,1-3Z"/>
        <path class="cls-7" d="M117.52,245.8a2.27,2.27,0,0,0-3,1L85,306.49a2.26,2.26,0,0,0,1,3l3.22,1.57c2.8-6,28.74-55.76,30.47-59.58a8.89,8.89,0,0,1,2.65-3.24A2.55,2.55,0,0,0,122,248Z"/>
        <path class="cls-7" d="M155.56,245.8,151.12,248a2.28,2.28,0,0,0-1.05,3l29.44,59.64a2.28,2.28,0,0,0,3,1.05l.6-.29c-3.42-5.77-24.05-58.83-24.8-65A2.29,2.29,0,0,0,155.56,245.8Z"/>
        <path class="cls-8" d="M189.9,307.55c-.43-.9-2-1-3.47-.32l-5.84,2.84c-1.47.72-2.32,2-1.88,2.93l23.59,47.37c.43.9,2,1,3.47.32l5.83-2.84c1.48-.72,2.33-2,1.89-2.93Z"/>
        <path class="cls-7" d="M194.17,316.11l-4.27-8.56c-.43-.9-2-1-3.47-.32l-5.84,2.84c-1.47.72-2.32,2-1.88,2.93l16.92,34A169.5,169.5,0,0,1,194.17,316.11Z"/>
        <path class="cls-6" d="M148.18,243.76a2.27,2.27,0,0,0-3.1-.83l-3.24,2.3a1.34,1.34,0,0,0-.49,1.83l.87,1.53a1.35,1.35,0,0,0,1.84.49l3.62-1.64a2.28,2.28,0,0,0,.83-3.1Z"/>
        <path class="cls-3" d="M139.83,215.88c-1.26-.67-7.91-4.56-2.11-8.64a.39.39,0,0,0,.17-.42l-12.13-59a.41.41,0,0,0-.62-.27,3.07,3.07,0,0,0-1,.84c-.63,1.42-2.2,8.94-2.27,9.26v0c-.08.28-1.47,5.61,0,17,1.49,11.56,9.6,56.18,9.84,57.51v.06c0,.34.17,3.78,3.41,4.14a11.94,11.94,0,0,0,6.19-.82.41.41,0,0,0,.22-.41l-1.47-19A.4.4,0,0,0,139.83,215.88Z"/>
        <circle class="cls-9" cx="136.25" cy="227.34" r="3.6" transform="translate(-106.73 333.22) rotate(-82.61)"/>
        <path class="cls-10" d="M136.25,225.83a1.51,1.51,0,1,0,1.51,1.51A1.51,1.51,0,0,0,136.25,225.83Z"/>
        <path class="cls-11" d="M125.76,147.84a.41.41,0,0,0-.62-.27,3.07,3.07,0,0,0-1,.84c0,.1-.09.23-.14.38l12.24,59.81a7.2,7.2,0,0,1,1.49-1.36.39.39,0,0,0,.17-.42Z"/>
        <path class="cls-8" d="M92.48,310.07l-5.83-2.84c-1.47-.72-3-.58-3.47.32L59.59,354.92c-.44.9.41,2.21,1.88,2.93l5.84,2.84c1.47.72,3,.58,3.47-.32L94.37,313C94.81,312.11,94,310.79,92.48,310.07Z"/>
        <path class="cls-7" d="M92.48,310.07l-5.83-2.84c-1.47-.72-3-.58-3.47.32L62.92,348.22c6.65-6.62,13.85-12.72,22.27-16.79L94.37,313C94.81,312.11,94,310.79,92.48,310.07Z"/>
      </g>
    </g>
  </g>
</svg>
