<svg xmlns="http://www.w3.org/2000/svg" viewBox="0 0 296.48 274.58"><defs><style>.cls-1{fill:#d30716;}</style></defs><title>SB_26_RED</title><g id="Layer_2" data-name="Layer 2"><g id="Layer_1-2" data-name="Layer 1"><path class="cls-1" d="M274.82,0H21.66A21.68,21.68,0,0,0,0,21.66V252.92a21.68,21.68,0,0,0,21.66,21.66H274.82a21.68,21.68,0,0,0,21.66-21.66V21.66A21.68,21.68,0,0,0,274.82,0Zm6.6,252.92a6.59,6.59,0,0,1-6.6,6.6H21.66a6.59,6.59,0,0,1-6.6-6.6h0V21.66a6.59,6.59,0,0,1,6.6-6.6H274.82a6.59,6.59,0,0,1,6.6,6.6h0Z"/></g></g></svg>