<svg id="Layer_1" data-name="Layer 1" xmlns="http://www.w3.org/2000/svg" xmlns:xlink="http://www.w3.org/1999/xlink" width="1600" height="900" viewBox="0 0 1600 900">
  <defs>
    <style>
      .cls-1 {
        fill: none;
      }

      .cls-2 {
        clip-path: url(#clip-path);
      }

      .cls-3 {
        fill: #913285;
      }

      .cls-4 {
        fill: #6b307d;
      }

      .cls-5 {
        fill: #803a79;
      }
    </style>
    <clipPath id="clip-path">
      <rect class="cls-1" width="1600" height="900"/>
    </clipPath>
  </defs>
  <g class="cls-2">
    <g>
      <polygon class="cls-3" points="-34.52 -11.29 -8.9 907.47 1613.91 906.08 1623.82 -11.29 -34.52 -11.29"/>
      <path class="cls-4" d="M1563.08-55.47s-184.44,23-166.8,269.19c7.35,102.66,81,195.38-101.48,397.46-51.19,56.7-129.46,109.6-251.59,165.2-60.41,27.5-200.17,99.13-207.12,172l773.56-.49S1655.52-134.67,1563.08-55.47Z"/>
      <path class="cls-5" d="M-6.44,146.85S167.61,164.34,151,351.19C144,429.12,74.55,499.5,246.72,652.9,295,696,368.89,736.11,484.14,778.31c57,20.87,188.89,75.25,195.45,130.57l-730-.37S-93.66,86.73-6.44,146.85Z"/>
    </g>
  </g>
</svg>
