<svg xmlns="http://www.w3.org/2000/svg" xmlns:xlink="http://www.w3.org/1999/xlink" width="1600" height="900" viewBox="0 0 1600 900">
  <defs>
    <style>
      .cls-1, .cls-37, .cls-40, .cls-43 {
        fill: none;
      }

      .cls-2 {
        isolation: isolate;
      }

      .cls-3 {
        clip-path: url(#clip-path);
      }

      .cls-4 {
        fill: #f8e2b9;
      }

      .cls-5 {
        fill: #9980bc;
      }

      .cls-6 {
        fill: #ccfcd0;
      }

      .cls-7 {
        fill: url(#linear-gradient);
      }

      .cls-8 {
        fill: url(#Áåçûìÿííûé_ãðàäèåíò_335);
      }

      .cls-9 {
        fill: #85ccb9;
      }

      .cls-10 {
        fill: #a37278;
      }

      .cls-11 {
        fill: #d1a78e;
      }

      .cls-12 {
        fill: #edc39c;
      }

      .cls-13 {
        fill: #fef1e0;
      }

      .cls-14 {
        fill: url(#Áåçûìÿííûé_ãðàäèåíò_201);
      }

      .cls-15 {
        fill: #bfa884;
      }

      .cls-16, .cls-23 {
        mix-blend-mode: screen;
      }

      .cls-16 {
        fill: url(#Áåçûìÿííûé_ãðàäèåíò_3);
      }

      .cls-17 {
        fill: #b88b7d;
      }

      .cls-18 {
        fill: #fff9f2;
      }

      .cls-19 {
        fill: url(#Áåçûìÿííûé_ãðàäèåíò_1213);
      }

      .cls-20 {
        fill: #93352b;
      }

      .cls-21 {
        fill: url(#Áåçûìÿííûé_ãðàäèåíò_1212);
      }

      .cls-22 {
        fill: #dfcbc2;
        mix-blend-mode: multiply;
      }

      .cls-23 {
        fill: url(#Áåçûìÿííûé_ãðàäèåíò_1211);
      }

      .cls-24 {
        fill: #fefcdd;
      }

      .cls-25 {
        fill: #f3b98a;
      }

      .cls-26 {
        fill: #2a9150;
      }

      .cls-27 {
        fill: #eee;
      }

      .cls-28, .cls-61 {
        fill: #1e0e00;
      }

      .cls-28 {
        opacity: 0.15;
      }

      .cls-29 {
        fill: #393e56;
      }

      .cls-30 {
        fill: #fdad55;
      }

      .cls-31 {
        fill: #9f7757;
      }

      .cls-32 {
        fill: url(#Áåçûìÿííûé_ãðàäèåíò_100);
      }

      .cls-33 {
        fill: #f0b081;
      }

      .cls-34 {
        fill: #794d3b;
      }

      .cls-35 {
        fill: #5c3829;
      }

      .cls-36, .cls-38 {
        fill: #fff;
      }

      .cls-37 {
        stroke: #cec9cc;
      }

      .cls-37, .cls-40, .cls-43 {
        stroke-miterlimit: 10;
        stroke-width: 3.76px;
      }

      .cls-38, .cls-56, .cls-61, .cls-64, .cls-76 {
        opacity: 0.2;
      }

      .cls-39 {
        fill: #fff692;
      }

      .cls-40 {
        stroke: #ffcd7c;
      }

      .cls-41 {
        fill: #79cfe1;
      }

      .cls-42 {
        fill: #edca82;
      }

      .cls-43 {
        stroke: #d7a773;
      }

      .cls-44 {
        fill: #c8d3d7;
      }

      .cls-45 {
        fill: #fff100;
      }

      .cls-46 {
        opacity: 0.62;
      }

      .cls-47 {
        fill: #744a99;
      }

      .cls-48 {
        fill: #cdaa6a;
      }

      .cls-49 {
        opacity: 0.22;
      }

      .cls-50 {
        fill: #8c6144;
      }

      .cls-51 {
        fill: #54341e;
      }

      .cls-52 {
        fill: #d69674;
      }

      .cls-53 {
        fill: #f0ba8f;
      }

      .cls-54 {
        fill: #497bbd;
      }

      .cls-55 {
        fill: #f88b3c;
      }

      .cls-57 {
        fill: #00ac5d;
      }

      .cls-58 {
        fill: #c9c7c7;
      }

      .cls-59 {
        fill: #353f69;
      }

      .cls-60 {
        fill: #3faae1;
      }

      .cls-62 {
        fill: #f2574b;
      }

      .cls-63 {
        fill: #f46a6a;
      }

      .cls-64 {
        fill: #595450;
      }

      .cls-65 {
        fill: #ff950e;
      }

      .cls-66 {
        fill: #9cbafa;
      }

      .cls-67 {
        fill: #4c301a;
      }

      .cls-68 {
        fill: #30261a;
      }

      .cls-69 {
        fill: #ffc300;
      }

      .cls-70 {
        fill: #4fbc32;
      }

      .cls-71 {
        fill: #6957a2;
      }

      .cls-72 {
        fill: #fddc6b;
      }

      .cls-73 {
        fill: #7b5743;
      }

      .cls-74 {
        fill: #bd9370;
      }

      .cls-75 {
        fill: #40b777;
      }

      .cls-76, .cls-80 {
        fill: #807e7d;
      }

      .cls-77 {
        fill: #f04941;
      }

      .cls-78 {
        fill: #ffdd83;
      }

      .cls-79 {
        fill: #80c351;
      }

      .cls-81 {
        fill: #b0afaf;
      }

      .cls-82 {
        fill: #ffdb35;
      }

      .cls-83 {
        opacity: 0.7;
      }

      .cls-84 {
        fill: #548bb6;
      }

      .cls-85 {
        fill: #e5e3e8;
      }

      .cls-86 {
        fill: #3b0e19;
      }

      .cls-87 {
        fill: #7f364f;
      }

      .cls-88 {
        fill: #4e1528;
      }

      .cls-89 {
        fill: #986840;
      }

      .cls-90 {
        fill: #bc7f53;
      }

      .cls-91 {
        fill: #875836;
      }

      .cls-92 {
        fill: #7d3c1e;
      }

      .cls-93 {
        fill: #934b23;
      }

      .cls-94 {
        fill: #b91d1f;
      }
    </style>
    <clipPath id="clip-path">
      <rect class="cls-1" width="1600" height="900"/>
    </clipPath>
    <linearGradient id="linear-gradient" x1="787.79" y1="-28.86" x2="792" y2="697.11" gradientUnits="userSpaceOnUse">
      <stop offset="0.11" stop-color="#98cbd2"/>
      <stop offset="1" stop-color="#c0ded5"/>
    </linearGradient>
    <linearGradient id="Áåçûìÿííûé_ãðàäèåíò_335" data-name="Áåçûìÿííûé ãðàäèåíò 335" x1="804.3" y1="121.01" x2="804.3" y2="-100.94" gradientUnits="userSpaceOnUse">
      <stop offset="0" stop-color="#f8e2b9"/>
      <stop offset="0.25" stop-color="#f6ddb4"/>
      <stop offset="0.56" stop-color="#f1cea7"/>
      <stop offset="0.89" stop-color="#e8b591"/>
      <stop offset="1" stop-color="#e5ab89"/>
    </linearGradient>
    <linearGradient id="Áåçûìÿííûé_ãðàäèåíò_201" data-name="Áåçûìÿííûé ãðàäèåíò 201" x1="1600.6" y1="600.7" x2="1595.2" y2="140.45" gradientUnits="userSpaceOnUse">
      <stop offset="0" stop-color="#bce8cf"/>
      <stop offset="1" stop-color="#7bd1bc"/>
    </linearGradient>
    <linearGradient id="Áåçûìÿííûé_ãðàäèåíò_3" data-name="Áåçûìÿííûé ãðàäèåíò 3" x1="1558.81" y1="75.22" x2="1660.85" y2="616.3" gradientUnits="userSpaceOnUse">
      <stop offset="0" stop-color="#ebe9cc"/>
      <stop offset="0.58" stop-color="#656457"/>
      <stop offset="1"/>
    </linearGradient>
    <radialGradient id="Áåçûìÿííûé_ãðàäèåíò_1213" data-name="Áåçûìÿííûé ãðàäèåíò 1213" cx="1276.43" cy="253.97" r="67.88" gradientTransform="translate(0 -120.82) scale(1 1.06)" gradientUnits="userSpaceOnUse">
      <stop offset="0" stop-color="#16c6ad"/>
      <stop offset="1" stop-color="#276a8a"/>
    </radialGradient>
    <radialGradient id="Áåçûìÿííûé_ãðàäèåíò_1212" data-name="Áåçûìÿííûé ãðàäèåíò 1212" cx="1283.96" cy="262.72" r="40.87" gradientTransform="translate(0 -120.82) scale(1 1.06)" gradientUnits="userSpaceOnUse">
      <stop offset="0" stop-color="#f4dda1"/>
      <stop offset="0.19" stop-color="#f2d89c"/>
      <stop offset="0.42" stop-color="#edc98e"/>
      <stop offset="0.67" stop-color="#e4af77"/>
      <stop offset="0.94" stop-color="#d88d58"/>
      <stop offset="1" stop-color="#d5834f"/>
    </radialGradient>
    <linearGradient id="Áåçûìÿííûé_ãðàäèåíò_1211" data-name="Áåçûìÿííûé ãðàäèåíò 1211" x1="1284.32" y1="122.07" x2="1278.03" y2="182.39" gradientUnits="userSpaceOnUse">
      <stop offset="0" stop-color="#62a18b"/>
      <stop offset="0.84" stop-color="#101a17"/>
      <stop offset="1"/>
    </linearGradient>
    <linearGradient id="Áåçûìÿííûé_ãðàäèåíò_100" data-name="Áåçûìÿííûé ãðàäèåíò 100" x1="467.48" y1="496.13" x2="487.48" y2="572.42" gradientUnits="userSpaceOnUse">
      <stop offset="0" stop-color="#f8daa1"/>
      <stop offset="1" stop-color="#f5d151"/>
    </linearGradient>
  </defs>
  <g class="cls-2">
    <g id="Layer_1" data-name="Layer 1">
      <g>
        <g>
          <g class="cls-3">
            <g>
              <path class="cls-4" d="M-26.82,740.45c-1.94,55.51-3.92,111.38,2,166.71a82.2,82.2,0,0,1,2.47,17.55H1631.44q-1-26.25-1.52-52.58c-.68-31-1.28-62.09-2.64-93.1l-185.6-127.46H121.3L-26,713.8Q-26.36,727.12-26.82,740.45Z"/>
              <path class="cls-5" d="M1629.92,872.13c-.74-33.89-1.37-67.79-3-101.66-1.43-29.22-3.29-58.4-4.4-87.63L1572,648.14l-1426.26-.43L-44.88,731l31.76,178.59,1644.44,11.7Q1630.44,896.73,1629.92,872.13Z"/>
              <path class="cls-6" d="M1621.88,664c-1.79-71.32-.29-142.67,2.52-213.94,1.56-39.53,3.52-79,5.54-118.55V-1.86L1436.86,75.86l-15.24,575,205.15,117.22C1625.06,733.35,1622.76,698.73,1621.88,664Z"/>
              <polygon class="cls-7" points="140.86 76.43 140.1 669.54 1437.16 667.62 1440.14 76.79 140.86 76.43"/>
              <path class="cls-8" d="M-19.46-23.38q-1.08,19.21-1.89,38.45l138.06,62L1439,76l191-77.9V-23.38Z"/>
              <path class="cls-9" d="M-21.35,15.16Q-22.91,52-23.64,88.94c-.92,44.38-1.14,88.78-1.19,133.17-.06,43.75-.18,87.39-2.76,131.08-.08,1.33-.17,2.66-.25,4,1.47,34.33,3.23,68.6,6.39,102.89,4.46,48.51,9.39,97,9.46,145.79,0,16.11-4.94,30.9-13.31,43.91.19,23-.18,46-.84,69.09l166.43-72.93.57-569.5Z"/>
              <path class="cls-10" d="M-20.8,3q-1,20.79-1.64,41.58l163.3,48.84v-17Z"/>
              <path class="cls-11" d="M1640.85,22.14A78.3,78.3,0,0,1,1642,8.7V-10.68L1438.63,75.23l1.44,17.29L1640.8,38.08Q1640.84,30.12,1640.85,22.14Z"/>
              <path class="cls-11" d="M1626.9,770.47q-.5-10.19-1.06-20.36l-188.66-106.6,0,24.11,189.91,106.74C1627,773.07,1627,771.77,1626.9,770.47Z"/>
              <g>
                <polygon class="cls-12" points="223.11 42.9 184.69 8.2 456.3 8.2 440.35 42.9 223.11 42.9"/>
                <polygon class="cls-13" points="199.73 12.66 224.88 38.44 437.26 38.44 447.7 12.66 199.73 12.66"/>
              </g>
              <g>
                <polygon class="cls-12" points="1420.72 42.9 1459.15 8.2 1187.53 8.2 1203.49 42.9 1420.72 42.9"/>
                <polygon class="cls-13" points="1444.1 12.66 1418.96 38.44 1206.58 38.44 1196.13 12.66 1444.1 12.66"/>
              </g>
              <g>
                <polygon class="cls-12" points="709.87 42.9 682.13 8.2 953.74 8.2 927.1 42.9 709.87 42.9"/>
                <polygon class="cls-13" points="697.17 12.66 711.63 38.44 924.01 38.44 945.14 12.66 697.17 12.66"/>
              </g>
              <path class="cls-11" d="M1639.88,98.94l-114,24.08V726.25l7.1,4.15,2.72-593,103.67-18.67Q1639.66,108.85,1639.88,98.94Z"/>
              <path class="cls-13" d="M1626.9,770.47c-1.73-35.5-4.12-70.93-5-106.47-1.79-71.32-.29-142.67,2.52-213.94s6.93-142.45,10.33-213.68c1.89-39.48,3.55-79,4.67-118.49l-104.55,19-2.7,593.22,95.58,59.73Q1627.36,780.14,1626.9,770.47Z"/>
              <path class="cls-14" d="M1624.4,450.06c2.81-71.26,6.93-142.45,10.33-213.68q2.14-44.79,3.76-89.6l-81.66,10.08V553.65l64.42,17.71C1621.64,530.92,1622.81,490.48,1624.4,450.06Z"/>
              <path class="cls-15" d="M1621.26,569.55l-62.77-17.26V158.42l79.94-9.87.12-3.55-83.37,10.3V555l66,18.16Z"/>
              <path class="cls-16" d="M1624.4,450.06c1.21-30.55,2.66-61.08,4.18-91.61l-3.65-203.53-58.55,7.17,32.13,394.55,22.82,7.66C1621.78,526.21,1622.9,488.12,1624.4,450.06Z"/>
              <path class="cls-17" d="M1639.4,117.89l-104.55,19-2.7,593.22,4,2.35,7.69-593.65,95.43-16.4C1639.31,120.88,1639.35,119.38,1639.4,117.89Z"/>
              <path class="cls-17" d="M1627.62,787.14,1536.16,730l-4-.14,95.58,60.56C1627.71,789.33,1627.67,788.24,1627.62,787.14Z"/>
              <g>
                <path class="cls-18" d="M66.92,146.27l-91.14-22.68c-.44,32.84-.57,65.68-.61,98.52-.06,43.75-.18,87.39-2.76,131.08-.08,1.33-.17,2.66-.25,4,1.47,34.33,3.23,68.6,6.39,102.89,2.71,29.46,5.59,58.92,7.45,88.44l81.31-12.29Z"/>
                <path class="cls-10" d="M-13.68,553.84l87.79-15.69,0-7.37L-14.39,542.5Q-14,548.17-13.68,553.84Z"/>
                <path class="cls-10" d="M-25.25,286.69q-.11,6.4-.25,12.81l90.09,2.88.24-7.77Z"/>
                <g>
                  <polygon class="cls-10" points="74.11 538.15 72.97 147.46 66.69 145.92 60.48 537.71 74.11 538.15"/>
                  <path class="cls-10" d="M-24.22,123.07c-.05,4.36-.11,8.73-.15,13.09l96.36,22,.34-10.65Z"/>
                  <path class="cls-18" d="M64.18,304.08l-89.72-2.87c-.39,17.33-1,34.65-2.05,52-.08,1.33-.17,2.66-.25,4,1.47,34.33,3.23,68.6,6.39,102.89,2.54,27.63,5.23,55.27,7.09,82.95l79.93-10Z"/>
                  <path class="cls-18" d="M-24.37,136q-.48,43-.46,86.09c0,22.06-.08,44.08-.44,66.1l89.58,7.88,2.2-139.37Z"/>
                </g>
              </g>
              <g>
                <path class="cls-19" d="M1327.84,169.14a37.71,37.71,0,0,1-6.15,20.5,36.5,36.5,0,0,1-4.57,5.76,32.64,32.64,0,0,1-22,10.27c-.4,0-.81,0-1.21,0a33.63,33.63,0,0,1-17.22-4.76q-1-.6-2-1.26a34.49,34.49,0,0,1-14.8-28.44c0-19.47,13.57-36,34-36a31.72,31.72,0,0,1,3.25.16,33.89,33.89,0,0,1,17.28,6.67c.62.46,1.23,1,1.82,1.46a33.5,33.5,0,0,1,8.88,12.15A34.48,34.48,0,0,1,1327.84,169.14Z"/>
                <path class="cls-20" d="M1327.46,127.23l-11.2,16.27c-.59-.51-1.2-1-1.82-1.46l11.22-16.29Z"/>
                <path class="cls-20" d="M1266.54,216.09l44.1-1.11,1.39,5h-50.82l1.4-3.54,12.13-16.77q1,.66,2,1.26Z"/>
                <path class="cls-20" d="M1273.82,201.11a43.84,43.84,0,0,0,27.66,6.86,32.19,32.19,0,0,0,23.94-13.82c.69-1,1.25-2.05,1.93-3.05s1.08-2.17,1.65-3.25.85-2.3,1.29-3.45.59-2.41.89-3.62a43.77,43.77,0,0,0,.21-15c-1.57-10-6.27-19.64-13.8-26l1.36-1.88a40.15,40.15,0,0,1,10.1,12.11,50,50,0,0,1,5.41,15.16,47.56,47.56,0,0,1,.23,16.32,37.27,37.27,0,0,1-6,15.29,35.51,35.51,0,0,1-27,14.59,47.52,47.52,0,0,1-29.06-8.27Z"/>
                <path class="cls-21" d="M1304.51,146.08a29.69,29.69,0,0,0-2.47,2.55,12.88,12.88,0,0,1-1.5,2.29,17.14,17.14,0,0,1-1.47,1.3,13.83,13.83,0,0,1-8.59,3.15,1.48,1.48,0,0,1-.76-.14c-.54-.32-.57-1.11-.5-1.76.26-2.43,1.7-4.8.57-7.06a14.54,14.54,0,0,1-1.54-3.08c-.34-1.26-.65-2.31-2.18-2.17a4,4,0,0,0-2.06.94,8.93,8.93,0,0,0-3.27,4.69c-.21,1.1,1.89,4.22,1.86,4.29a2.25,2.25,0,0,1,2.23-1.24,2.34,2.34,0,0,1,1.9,1.78,4,4,0,0,1-1.06,3.25c-2.26,2.8-5.86,4-9.32,4.36-1.2.13-2.68,0-3.2-1.12-.9-2,2.24-3.85,1.85-6a2.3,2.3,0,0,0-1.7-1.7,3.43,3.43,0,0,0-2.37.43c-2.66,1.45-3.7,4.86-4.47,7.93-.54,2.12-1.08,4.22-1.62,6.33,1.13.51,2.43,0,3.47-.72a8.59,8.59,0,0,1,3.25-1.69c2.31-.29,4.26,2.15,4.49,4.6s-.78,4.81-1.76,7c-1.33,3-3.43,6.41-4.14,9.67a16.74,16.74,0,0,0-.2,4.36c.1,1.4,1.16,3.06,1.16,4.3a5.71,5.71,0,0,1,1,2.57,2.4,2.4,0,0,1-.81,1.71,34.35,34.35,0,0,1-11.33-25.68c0-19.47,13.57-36,34-36a31.72,31.72,0,0,1,3.25.16c0,.12,0,.23,0,.34.14,1.41-.55,2.53.58,3.8.94,1.08,2.52,1.05,3.91,1s3,.14,3.74,1.39S1305.51,145,1304.51,146.08Zm11.8,47.72a6.49,6.49,0,0,0-.55-2.13c-.37-.63-1.25-1-1.77-.5a5.52,5.52,0,0,1-7.79-1.48c-1.22-1.92-1.38-4.64-3.16-6a4.19,4.19,0,0,0-4.43-.2,8.81,8.81,0,0,0-3.29,3.42c-.81,1.37-1.41,3.23-.47,4.51.75,1,2.16,1.18,3,2.14,1.21,1.47.31,3.79-.84,5.31s-2.63,3.11-2.48,5a3.42,3.42,0,0,0,.64,1.76,32.64,32.64,0,0,0,22-10.27A2.6,2.6,0,0,1,1316.31,193.8Zm11.53-24.66a37.71,37.71,0,0,1-6.15,20.5c-.13-1.24-1-2.46-2.15-2.45l.21-4.66a7.63,7.63,0,0,0-.24-2.94,2.31,2.31,0,0,0-2.11-1.66c-1,.08-1.75,1.13-2,2.16s-.29,2.17-.61,3.2a4.73,4.73,0,0,1-5.41,3.2,11.59,11.59,0,0,0,2.92-8.91,3.37,3.37,0,0,0-1.08-2.45,1.32,1.32,0,0,0-2.07.74c-.12-.32-.24-.66-.37-1,.3.8-4.84,1.73-5.75,1-1.2-1-1.68-4.3-1.62-5.78a3.28,3.28,0,0,1,.92-2.36c.78-.49,1.53.12,2.42.26a6.77,6.77,0,0,0,5.39-1.53c.37-.32.81-.7,1.26-.55a1.31,1.31,0,0,1,.59.53c1.79,2.46,2.44,4.22,5.6,3.6a8.54,8.54,0,0,0,5.61-4,5.14,5.14,0,0,0,.79-2.68,2.7,2.7,0,0,0-1.32-2.32c-1.06-.52-2.28,0-3.41.33a8.32,8.32,0,0,1-4.74-.1,2.8,2.8,0,0,1-1.8-1.32,2.38,2.38,0,0,1,.88-2.73,5.17,5.17,0,0,1,2.83-.87,14.73,14.73,0,0,1,2.87.14,15.83,15.83,0,0,0,5.88-.78A34.48,34.48,0,0,1,1327.84,169.14Z"/>
                <path class="cls-22" d="M1309.09,143a31.22,31.22,0,0,1,15.12,20.43,33,33,0,0,1-4.85,25.44,33.46,33.46,0,0,1-24.83,14c-9,.58-20.94-3-26.26-11.39,9.71,4.36,20.43,5.83,30.69,3.23,6.57-1.67,13.14-5.07,16.74-11.14a26.41,26.41,0,0,0,3.25-13.35C1319,160.29,1315.71,149.88,1309.09,143Z"/>
                <path class="cls-23" d="M1269.32,156c-.49,3.09.06,6.82,2.63,8.38,1.92,1.16,4.33.73,6.42,0a26.43,26.43,0,0,0,9.63-6.05,16.74,16.74,0,0,0,4.65-7.29c1.87-6.59-4-14.3-10.58-11.16C1276.15,142.67,1270.43,149.06,1269.32,156Z"/>
                <path class="cls-24" d="M1271.27,196.93a33.6,33.6,0,0,1-8.19-10.51,34.93,34.93,0,0,1-3.52-13.21,38.87,38.87,0,0,1,7.76-25.81A32.78,32.78,0,0,1,1290,135a36.23,36.23,0,0,1,12.9,1.13,33.66,33.66,0,0,1,11.58,5.95,34.64,34.64,0,0,0-11.72-5.38,35.87,35.87,0,0,0-12.68-.77,33,33,0,0,0-12.08,3.87,32.23,32.23,0,0,0-9.77,8.41,35.65,35.65,0,0,0-6,11.71,42.16,42.16,0,0,0-1.71,13.28A35,35,0,0,0,1271.27,196.93Z"/>
              </g>
              <path class="cls-1" d="M-20.34-6.68c-1.59,31.86-2.63,63.73-3.3,95.62-.92,44.38-1.14,88.78-1.19,133.17-.06,43.75-.18,87.39-2.76,131.08-.08,1.33-.17,2.66-.25,4,1.47,34.33,3.23,68.6,6.39,102.89,4.46,48.51,9.39,97,9.46,145.79,0,16.11-4.94,30.9-13.32,43.91.26,30.19-.46,60.38-1.51,90.68-1.52,43.56-3.05,87.34-.78,130.9H1609.12v-878Z"/>
              <g>
                <rect class="cls-25" x="408.4" y="195.05" width="692.4" height="373.84"/>
                <rect class="cls-26" x="427.33" y="206.69" width="654.53" height="353.77"/>
                <path class="cls-27" d="M984,570.86H935.9a7.07,7.07,0,0,1-7.11-7h0a7.08,7.08,0,0,1,7.11-7.05H984a7.08,7.08,0,0,1,7.1,7.05h0A7.07,7.07,0,0,1,984,570.86Z"/>
                <polygon class="cls-28" points="422.73 201.58 422.73 205.27 422.73 208.97 422.73 559.04 431.93 559.04 431.93 208.97 1077.26 208.97 1077.26 559.04 1086.46 559.04 1086.46 208.97 1086.46 205.27 1086.46 201.58 422.73 201.58"/>
                <g>
                  <rect class="cls-29" x="995.48" y="538.47" width="69.59" height="30.24" transform="translate(2060.54 1107.17) rotate(180)"/>
                  <rect class="cls-30" x="995.48" y="547.62" width="69.59" height="21.08" transform="translate(2060.54 1116.32) rotate(180)"/>
                </g>
                <rect class="cls-31" x="399.08" y="563.82" width="711.02" height="17.87"/>
                <rect class="cls-28" x="399.08" y="581.69" width="711.02" height="5.38"/>
                <rect class="cls-28" x="995.48" y="560.77" width="69.59" height="3.05"/>
                <path class="cls-28" d="M991.06,563.82H928.79a7,7,0,0,1,.85-3.34h60.58A7.07,7.07,0,0,1,991.06,563.82Z"/>
              </g>
              <polygon class="cls-17" points="1440.07 92.52 140.86 93.39 140.86 76.43 1440.25 74.54 1440.07 92.52"/>
              <path class="cls-32" d="M515.08,550.87c0-.26.07-.53.1-.8.09-1.07.16-2.13.18-3.19a46.84,46.84,0,0,0-.29-6.37,36.76,36.76,0,0,0-3.68-12.5,29,29,0,0,0-3.83-5.68,27.43,27.43,0,0,0-5.32-4.68,32.21,32.21,0,0,0-17-4.76c-.59,0-1.17,0-1.77,0l-1.82.13a34.93,34.93,0,0,0-3.71.54,35.84,35.84,0,0,0-3.79,1.07A29.18,29.18,0,0,0,460.91,524a34.42,34.42,0,0,0-6.41,13.22,42.79,42.79,0,0,0-1.09,6.58c-.07,1.09-.12,2.17-.13,3.24l0,1.16L442,547.76l2.57,11.62,74.52-.32,2.31-7.92Zm-51.8-3.47c.25-.84.52-1.68.81-2.5a41.15,41.15,0,0,1,1.93-4.76,26.26,26.26,0,0,1,5.1-7.57,16,16,0,0,1,3-2.34c.52-.32,1.09-.57,1.63-.84s1.15-.45,1.78-.6,1.26-.29,1.89-.46l1-.12.51-.07.53,0,1.06-.08,1.1,0c.74,0,1.46.05,2.18.1a18.84,18.84,0,0,1,7.64,2.23,17.78,17.78,0,0,1,3.11,2.29,19.46,19.46,0,0,1,2.67,3.12,31.65,31.65,0,0,1,4,8.25,47.8,47.8,0,0,1,1.35,4.81c.13.52.24,1.06.35,1.59l-42.07-1.79Z"/>
              <g>
                <rect class="cls-33" x="192.09" y="232.64" width="185.2" height="208.04"/>
                <rect class="cls-34" x="205.23" y="247.4" width="158.91" height="178.51"/>
                <polygon class="cls-35" points="360.68 247.4 360.68 421.96 205.23 421.96 205.23 425.91 364.14 425.91 364.14 247.4 360.68 247.4"/>
                <g>
                  <g>
                    <rect class="cls-36" x="223.21" y="262.8" width="30.95" height="30.95"/>
                    <g>
                      <line class="cls-37" x1="227" y1="268.39" x2="250.05" y2="268.39"/>
                      <line class="cls-37" x1="227" y1="272.34" x2="250.05" y2="272.34"/>
                      <line class="cls-37" x1="227" y1="276.3" x2="250.05" y2="276.3"/>
                      <line class="cls-37" x1="227" y1="280.25" x2="250.05" y2="280.25"/>
                      <line class="cls-37" x1="227" y1="284.2" x2="250.05" y2="284.2"/>
                      <line class="cls-37" x1="227" y1="288.15" x2="250.05" y2="288.15"/>
                    </g>
                  </g>
                  <rect class="cls-38" x="250.28" y="259.21" width="4.12" height="13.34" transform="translate(-111.32 219.86) rotate(-39.28)"/>
                </g>
                <g>
                  <g>
                    <rect class="cls-39" x="264.7" y="294.5" width="30.95" height="30.95" transform="translate(-118.92 186.27) rotate(-30.67)"/>
                    <g>
                      <line class="cls-40" x1="265.09" y1="307.44" x2="284.91" y2="295.69"/>
                      <line class="cls-40" x1="267.1" y1="310.84" x2="286.93" y2="299.08"/>
                      <line class="cls-40" x1="269.12" y1="314.24" x2="288.94" y2="302.48"/>
                      <line class="cls-40" x1="271.13" y1="317.64" x2="290.96" y2="305.88"/>
                      <line class="cls-40" x1="273.15" y1="321.04" x2="292.97" y2="309.28"/>
                      <line class="cls-40" x1="275.16" y1="324.44" x2="294.99" y2="312.68"/>
                    </g>
                  </g>
                  <rect class="cls-38" x="283.54" y="285.69" width="4.12" height="13.34" transform="translate(-86.96 460.4) rotate(-69.95)"/>
                </g>
                <g>
                  <rect class="cls-41" x="304.66" y="265.94" width="36.55" height="48.63" transform="translate(-30.47 37.99) rotate(-6.43)"/>
                  <rect class="cls-38" x="299.26" y="268.88" width="13.34" height="4.12" transform="translate(-97.32 337.2) rotate(-50.86)"/>
                  <rect class="cls-38" x="334.62" y="259.55" width="4.12" height="13.34" transform="translate(-86.37 338.73) rotate(-48.06)"/>
                </g>
                <g>
                  <rect class="cls-42" x="234.16" y="338.91" width="40.4" height="50.82" transform="translate(-98.81 94.7) rotate(-17.72)"/>
                  <g>
                    <rect class="cls-43" x="238.74" y="344.53" width="31.24" height="39.57" transform="translate(-98.82 94.71) rotate(-17.72)"/>
                    <line class="cls-43" x1="234.6" y1="353.8" x2="264.36" y2="344.29"/>
                    <line class="cls-43" x1="247.15" y1="345.85" x2="259.19" y2="383.55"/>
                    <g>
                      <path class="cls-43" d="M255.72,353.27a16.87,16.87,0,0,1,2.85,1.91c1.11-1.85,1.52-4.28,2.54-6.26"/>
                      <path class="cls-43" d="M258.07,360.61a17.28,17.28,0,0,1,2.85,1.91c1.11-1.85,1.52-4.28,2.54-6.25"/>
                      <path class="cls-43" d="M260.41,368a17,17,0,0,1,2.86,1.91c1.1-1.85,1.52-4.28,2.53-6.25"/>
                      <path class="cls-43" d="M262.76,375.29a17.28,17.28,0,0,1,2.85,1.91c1.11-1.85,1.52-4.28,2.54-6.25"/>
                    </g>
                    <g>
                      <line class="cls-43" x1="238.81" y1="358.77" x2="247.54" y2="355.98"/>
                      <line class="cls-43" x1="241.16" y1="366.11" x2="249.89" y2="363.32"/>
                      <line class="cls-43" x1="243.51" y1="373.45" x2="252.24" y2="370.67"/>
                      <line class="cls-43" x1="245.85" y1="380.8" x2="254.58" y2="378.01"/>
                    </g>
                  </g>
                </g>
                <rect class="cls-38" x="262.38" y="328.32" width="3.71" height="17.51" transform="translate(-147.84 453.84) rotate(-67.73)"/>
                <g>
                  <g>
                    <rect class="cls-36" x="285" y="354.24" width="53.46" height="40.01" transform="translate(-157.52 504.77) rotate(-65.75)"/>
                    <g>
                      <rect class="cls-44" x="299.84" y="356.02" width="16.71" height="16.18" transform="translate(-150.37 495.57) rotate(-65.75)"/>
                      <g>
                        <rect class="cls-44" x="308.67" y="364.23" width="1.21" height="30.95" transform="translate(-163.95 505.74) rotate(-65.75)"/>
                        <rect class="cls-44" x="297.14" y="379.08" width="1.2" height="15.97" transform="translate(-177.45 499.57) rotate(-65.75)"/>
                        <rect class="cls-44" x="311.86" y="386.87" width="1.21" height="13.65" transform="translate(-174.82 516.91) rotate(-65.75)"/>
                        <rect class="cls-44" x="299.43" y="379.81" width="1.2" height="24.06" transform="translate(-180.46 504.47) rotate(-65.75)"/>
                        <rect class="cls-44" x="295.26" y="377.96" width="1.2" height="8.59" transform="translate(-174.18 494.99) rotate(-65.75)"/>
                        <rect class="cls-44" x="305.22" y="382.45" width="1.2" height="8.59" transform="translate(-172.4 506.74) rotate(-65.75)"/>
                        <rect class="cls-44" x="310.43" y="388.18" width="1.2" height="1.83" transform="translate(-171.49 512.78) rotate(-65.74)"/>
                        <rect class="cls-44" x="315.65" y="387.15" width="1.2" height="8.59" transform="translate(-170.54 519.01) rotate(-65.75)"/>
                        <rect class="cls-44" x="299.15" y="372.85" width="1.2" height="13.52" transform="translate(-169.47 497.01) rotate(-65.75)"/>
                        <rect class="cls-44" x="313.71" y="379.41" width="1.21" height="13.51" transform="translate(-166.87 514.12) rotate(-65.75)"/>
                        <rect class="cls-44" x="316.83" y="382.75" width="1.2" height="9.62" transform="translate(-166.32 517.76) rotate(-65.75)"/>
                      </g>
                      <g>
                        <rect class="cls-44" x="325.99" y="357.71" width="1.2" height="12.36" transform="translate(-139.32 512.23) rotate(-65.75)"/>
                        <rect class="cls-44" x="317.51" y="370.59" width="1.2" height="4.06" transform="translate(-152.28 509.65) rotate(-65.75)"/>
                        <rect class="cls-44" x="323.69" y="371.86" width="1.2" height="7.09" transform="translate(-151.17 516.93) rotate(-65.75)"/>
                        <rect class="cls-44" x="315.8" y="373.9" width="1.21" height="3.38" transform="translate(-155.99 509.86) rotate(-65.76)"/>
                        <rect class="cls-44" x="320.69" y="366.2" width="1.2" height="7.78" transform="translate(-148.1 511.03) rotate(-65.75)"/>
                        <rect class="cls-44" x="324.97" y="370.7" width="1.2" height="2.63" transform="translate(-147.32 516.13) rotate(-65.76)"/>
                        <rect class="cls-44" x="327.06" y="371.47" width="1.2" height="2.97" transform="translate(-146.95 518.58) rotate(-65.76)"/>
                        <rect class="cls-44" x="319.63" y="364.29" width="1.2" height="1.84" transform="translate(-144.3 507.12) rotate(-65.74)"/>
                        <rect class="cls-44" x="326.28" y="364.05" width="1.2" height="8.3" transform="translate(-143.08 515.03) rotate(-65.75)"/>
                      </g>
                      <rect class="cls-44" x="318.69" y="340.4" width="2.63" height="30.95" transform="translate(-135.9 501.5) rotate(-65.75)"/>
                    </g>
                  </g>
                  <circle class="cls-45" cx="322.06" cy="349.35" r="2.15"/>
                </g>
              </g>
              <rect class="cls-1" width="1600" height="900"/>
              <g class="cls-46">
                <path class="cls-47" d="M-28.7,835.43H1629.1c0-.76,0-1.53,0-2.29H-28.72C-28.72,833.9-28.71,834.67-28.7,835.43Z"/>
                <path class="cls-47" d="M-27.82,770.29H1595.93l-2.81-1.79L-27.75,768C-27.77,768.77-27.8,769.53-27.82,770.29Z"/>
                <path class="cls-47" d="M-25.75,703.43H1500.87l-2.86-1.61L-25.7,701.15C-25.71,701.91-25.73,702.67-25.75,703.43Z"/>
                <path class="cls-47" d="M-27.48,873.58l341.89-208-2.64-2.2L-27.82,867Q-27.65,870.28-27.48,873.58Z"/>
                <path class="cls-47" d="M186.4,970.88,469.82,666.34l-3.25-1.46-288.48,306Z"/>
                <path class="cls-47" d="M476.17,966.3,651.12,647l-3.28-.57-178,319.94Z"/>
                <path class="cls-47" d="M779.77,964.87l20.42-320.16-3,.8L774.75,964.88Z"/>
                <path class="cls-47" d="M1084.54,964.32,963.39,645.65l-2.4,2,118,316.69Z"/>
                <path class="cls-47" d="M1416.13,963.43l-297-304.9-1.52,3,290.37,302Z"/>
                <path class="cls-47" d="M1630.08,878.76l-340-233-.92,3.2,341.09,237C1630.18,883.59,1630.13,881.17,1630.08,878.76Z"/>
              </g>
              <polygon class="cls-48" points="140.29 670.04 1437.16 667.62 1437.18 643.51 140.29 645.93 140.29 670.04"/>
              <g>
                <path class="cls-49" d="M1125.52,685.06l26.94,24.51h245.25l-45.85-28.28-224.55-.91A2.69,2.69,0,0,0,1125.52,685.06Z"/>
                <path class="cls-49" d="M444.49,732,432,752H916l-11.45-40-458-3C444,709,442.61,730.35,444.49,732Z"/>
                <g>
                  <polygon class="cls-50" points="1158.72 218.86 1129.64 239.01 1130.79 667.47 1158.79 687.97 1158.72 218.86"/>
                  <polygon class="cls-51" points="1158.79 687.97 1174.08 700.55 1174.14 685.86 1158.79 687.97"/>
                  <polygon class="cls-51" points="1329.69 687.95 1344.98 700.53 1345.05 685.85 1329.69 687.95"/>
                  <g>
                    <rect class="cls-52" x="1165.58" y="224.97" width="226.55" height="111.09"/>
                    <rect class="cls-52" x="1162.23" y="321.37" width="226.55" height="111.09"/>
                    <rect class="cls-52" x="1161.44" y="413.73" width="226.55" height="111.09"/>
                    <rect class="cls-31" x="1164.09" y="307.75" width="215.01" height="16.43"/>
                    <rect class="cls-31" x="1161.25" y="218.89" width="227.33" height="16.43"/>
                    <rect class="cls-31" x="1160.33" y="405.51" width="226.69" height="16.43"/>
                    <rect class="cls-31" x="1015.24" y="362.35" width="302.75" height="15.78" transform="translate(1536.84 -796.38) rotate(90)"/>
                    <rect class="cls-31" x="1233.93" y="362.38" width="302.68" height="15.78" transform="translate(1755.54 -1015.01) rotate(90)"/>
                    <rect class="cls-31" x="1158.72" y="513.91" width="234.44" height="16.43"/>
                    <rect class="cls-31" x="1158.72" y="528.66" width="234.44" height="159.32"/>
                    <rect class="cls-31" x="1174.08" y="666.98" width="30.71" height="33.57"/>
                    <rect class="cls-31" x="1345.02" y="666.98" width="30.71" height="33.57"/>
                    <rect class="cls-25" x="1174.5" y="530.34" width="99.18" height="136.64"/>
                    <rect class="cls-53" x="1277.65" y="530.34" width="99.18" height="136.64"/>
                    <ellipse class="cls-31" cx="1260.36" cy="576.3" rx="7.07" ry="7.37"/>
                    <ellipse class="cls-31" cx="1291.2" cy="576.3" rx="7.07" ry="7.37"/>
                    <g>
                      <rect class="cls-54" x="1277.28" y="252.92" width="16.39" height="54.87"/>
                      <rect class="cls-55" x="1279.8" y="257.49" width="11.66" height="2.5"/>
                      <rect class="cls-55" x="1279.8" y="261.13" width="11.66" height="3.89"/>
                      <rect class="cls-55" x="1279.8" y="304.09" width="11.66" height="2.5"/>
                      <rect class="cls-55" x="1279.65" y="299.31" width="11.66" height="3.89"/>
                      <rect class="cls-56" x="1285.48" y="252.92" width="8.2" height="54.87"/>
                      <rect class="cls-57" x="1293.67" y="247.73" width="19.6" height="60.12"/>
                      <rect class="cls-58" x="1296.69" y="252.74" width="13.94" height="2.73"/>
                      <rect class="cls-58" x="1296.69" y="256.73" width="13.94" height="4.27"/>
                      <rect class="cls-58" x="1296.69" y="303.79" width="13.94" height="2.73"/>
                      <rect class="cls-58" x="1296.5" y="298.55" width="13.94" height="4.27"/>
                      <rect class="cls-56" x="1303.47" y="247.73" width="9.8" height="60.12"/>
                      <rect class="cls-59" x="1314.19" y="249.12" width="10.76" height="58.74"/>
                      <rect class="cls-60" x="1315.85" y="254.01" width="7.65" height="2.67"/>
                      <rect class="cls-60" x="1315.85" y="257.9" width="7.65" height="4.17"/>
                      <rect class="cls-60" x="1315.85" y="303.89" width="7.65" height="2.67"/>
                      <rect class="cls-60" x="1315.74" y="298.77" width="7.65" height="4.17"/>
                      <rect class="cls-56" x="1319.57" y="249.12" width="5.38" height="58.74"/>
                    </g>
                    <rect class="cls-61" x="1174.08" y="687.98" width="30.71" height="3.17"/>
                    <rect class="cls-61" x="1345.02" y="687.98" width="30.71" height="3.17"/>
                    <g>
                      <rect class="cls-62" x="1214.56" y="266.31" width="13.34" height="69.63" transform="translate(920.1 1522.35) rotate(-90)"/>
                      <rect class="cls-63" x="1189.05" y="299.41" width="9.49" height="3.17" transform="translate(892.8 1494.79) rotate(-90)"/>
                      <rect class="cls-63" x="1246.68" y="300.13" width="9.49" height="1.99" transform="translate(1552.55 -950.3) rotate(90)"/>
                      <rect class="cls-63" x="1241.08" y="297.45" width="9.49" height="7.34" transform="translate(1546.95 -944.7) rotate(90)"/>
                      <rect class="cls-63" x="1235.4" y="300.13" width="9.49" height="1.99" transform="translate(1541.26 -939.02) rotate(90)"/>
                      <rect class="cls-64" x="1186.41" y="294.45" width="69.63" height="6.67"/>
                      <g>
                        <g>
                          <rect class="cls-65" x="1211.15" y="256.45" width="6.67" height="56.14" transform="translate(929.97 1499.01) rotate(-90)"/>
                          <rect class="cls-66" x="1226.18" y="282.75" width="6.61" height="3.55" transform="translate(1514.01 -944.97) rotate(90)"/>
                          <rect class="cls-64" x="1186.42" y="284.52" width="56.14" height="3.34"/>
                          <rect class="cls-65" x="1216.17" y="258.08" width="6.67" height="66.16" transform="translate(928.34 1510.66) rotate(-90)"/>
                          <rect class="cls-60" x="1233.88" y="289.07" width="6.61" height="4.18" transform="translate(1528.34 -946.02) rotate(90)"/>
                        </g>
                        <rect class="cls-64" x="1186.42" y="291.16" width="66.16" height="3.34"/>
                      </g>
                    </g>
                    <g>
                      <rect class="cls-54" x="1360.05" y="258.27" width="9.05" height="49.44" transform="translate(2729.15 565.98) rotate(180)"/>
                      <rect class="cls-60" x="1361.27" y="301.35" width="6.44" height="2.25" transform="translate(2728.98 604.94) rotate(180)"/>
                      <rect class="cls-60" x="1361.27" y="296.81" width="6.44" height="3.51" transform="translate(2728.98 597.12) rotate(180)"/>
                      <rect class="cls-60" x="1361.36" y="260.88" width="6.44" height="2.25"/>
                      <rect class="cls-60" x="1361.36" y="264.16" width="6.44" height="3.51"/>
                      <rect class="cls-56" x="1360.05" y="258.27" width="4.53" height="49.44"/>
                      <rect class="cls-67" x="1345.83" y="251.65" width="14.8" height="56.05" transform="translate(2706.47 559.35) rotate(180)"/>
                      <rect class="cls-68" x="1347.97" y="260.88" width="10.53" height="8.48" transform="translate(2706.47 530.24) rotate(180)"/>
                      <rect class="cls-69" x="1347.97" y="260.07" width="10.47" height="0.4" transform="translate(2706.41 520.53) rotate(180)"/>
                      <rect class="cls-69" x="1348" y="269.9" width="10.47" height="0.4" transform="translate(2706.47 540.2) rotate(180)"/>
                      <path class="cls-69" d="M1355.13,303.28a1.91,1.91,0,1,1-1.9-2.13A2,2,0,0,1,1355.13,303.28Z"/>
                      <rect class="cls-56" x="1345.83" y="251.65" width="7.4" height="56.05"/>
                      <rect class="cls-67" x="1331.03" y="251.65" width="14.8" height="56.05" transform="translate(2676.86 559.35) rotate(180)"/>
                      <rect class="cls-68" x="1333.16" y="260.88" width="10.53" height="8.48" transform="translate(2676.86 530.24) rotate(180)"/>
                      <rect class="cls-69" x="1333.16" y="260.07" width="10.47" height="0.4" transform="translate(2676.8 520.53) rotate(180)"/>
                      <rect class="cls-69" x="1333.19" y="269.9" width="10.47" height="0.4" transform="translate(2676.86 540.2) rotate(180)"/>
                      <path class="cls-69" d="M1340.3,303.28a1.91,1.91,0,1,1-1.9-2.13A2,2,0,0,1,1340.3,303.28Z"/>
                      <rect class="cls-56" x="1331.03" y="251.65" width="7.4" height="56.05"/>
                      <polygon class="cls-70" points="1350.57 251.65 1350.57 271.4 1349.53 267.82 1348.5 271.4 1348.5 251.65 1350.57 251.65"/>
                    </g>
                    <rect class="cls-56" x="1174.5" y="421.94" width="202.89" height="7.62"/>
                    <g>
                      <polygon class="cls-54" points="1346.38 512.76 1331.57 505.14 1362.57 439.81 1377.38 447.43 1346.38 512.76"/>
                      <polygon class="cls-60" points="1371.39 454.81 1360.86 449.39 1362.27 446.42 1372.8 451.84 1371.39 454.81"/>
                      <polygon class="cls-60" points="1368.55 460.81 1358.01 455.39 1360.21 450.75 1370.75 456.18 1368.55 460.81"/>
                      <polygon class="cls-60" points="1345.07 510.3 1334.53 504.88 1335.94 501.9 1346.48 507.33 1345.07 510.3"/>
                      <polygon class="cls-60" points="1346.84 506.19 1336.3 500.77 1338.5 496.14 1349.04 501.56 1346.84 506.19"/>
                      <polygon class="cls-56" points="1377.38 447.43 1346.38 512.77 1338.98 508.95 1369.97 443.62 1377.38 447.43"/>
                      <polygon class="cls-71" points="1327.67 514.05 1312.86 506.43 1343.86 441.09 1358.67 448.71 1327.67 514.05"/>
                      <polygon class="cls-60" points="1352.69 456.1 1342.15 450.68 1343.56 447.7 1354.1 453.13 1352.69 456.1"/>
                      <polygon class="cls-60" points="1349.84 462.1 1339.3 456.68 1341.5 452.04 1352.04 457.46 1349.84 462.1"/>
                      <polygon class="cls-60" points="1326.36 511.58 1315.83 506.16 1317.23 503.19 1327.77 508.61 1326.36 511.58"/>
                      <polygon class="cls-60" points="1328.13 507.48 1317.6 502.06 1319.79 497.42 1330.33 502.84 1328.13 507.48"/>
                      <polygon class="cls-56" points="1358.67 448.71 1327.67 514.05 1320.27 510.24 1351.27 444.9 1358.67 448.71"/>
                    </g>
                    <g>
                      <rect class="cls-31" x="1307.23" y="445.46" width="47.68" height="68.28"/>
                      <rect class="cls-27" x="1311.38" y="450.18" width="39.39" height="58.83"/>
                      <rect class="cls-58" x="1315.14" y="454.47" width="32.15" height="3.81"/>
                      <rect class="cls-58" x="1315.14" y="460.92" width="32.15" height="3.81"/>
                      <rect class="cls-58" x="1314.99" y="466.96" width="32.15" height="3.81"/>
                      <path class="cls-72" d="M1346.29,499.6a7.11,7.11,0,1,1-7.1-7.4A7.26,7.26,0,0,1,1346.29,499.6Z"/>
                      <rect class="cls-58" x="1314.99" y="474.49" width="32.15" height="3.81"/>
                    </g>
                    <g>
                      <rect class="cls-73" x="1179.46" y="449.61" width="18.28" height="64.37"/>
                      <rect class="cls-74" x="1182.28" y="454.96" width="13.01" height="2.93"/>
                      <rect class="cls-74" x="1182.28" y="459.23" width="13.01" height="4.57"/>
                      <rect class="cls-74" x="1182.28" y="509.62" width="13.01" height="2.93"/>
                      <rect class="cls-74" x="1182.1" y="504.02" width="13.01" height="4.57"/>
                      <rect class="cls-56" x="1188.6" y="449.61" width="9.14" height="64.37"/>
                      <rect class="cls-54" x="1197.74" y="439.1" width="13.71" height="74.87"/>
                      <rect class="cls-60" x="1199.85" y="445.34" width="9.75" height="3.41"/>
                      <rect class="cls-60" x="1199.85" y="450.3" width="9.75" height="5.31"/>
                      <rect class="cls-60" x="1199.85" y="508.92" width="9.75" height="3.41"/>
                      <rect class="cls-60" x="1199.72" y="502.39" width="9.75" height="5.31"/>
                      <rect class="cls-56" x="1204.6" y="439.1" width="6.86" height="74.87"/>
                      <rect class="cls-62" x="1226.13" y="443.96" width="20.89" height="69.94"/>
                      <rect class="cls-55" x="1229.35" y="449.78" width="14.86" height="3.18"/>
                      <rect class="cls-55" x="1229.35" y="454.42" width="14.86" height="4.96"/>
                      <rect class="cls-55" x="1229.35" y="509.17" width="14.86" height="3.18"/>
                      <rect class="cls-55" x="1229.15" y="503.08" width="14.86" height="4.96"/>
                      <rect class="cls-56" x="1236.58" y="443.96" width="10.45" height="69.94"/>
                      <rect class="cls-26" x="1247.02" y="437.34" width="24.98" height="76.63"/>
                      <rect class="cls-55" x="1250.87" y="443.72" width="17.77" height="3.49"/>
                      <rect class="cls-55" x="1250.87" y="448.81" width="17.77" height="5.44"/>
                      <rect class="cls-55" x="1250.87" y="508.8" width="17.77" height="3.49"/>
                      <rect class="cls-55" x="1250.63" y="502.12" width="17.77" height="5.44"/>
                      <rect class="cls-56" x="1259.51" y="437.34" width="12.49" height="76.63"/>
                      <rect class="cls-54" x="1272" y="439.1" width="13.71" height="74.87"/>
                      <rect class="cls-60" x="1274.11" y="445.34" width="9.75" height="3.41"/>
                      <rect class="cls-60" x="1274.11" y="450.3" width="9.75" height="5.31"/>
                      <rect class="cls-60" x="1274.11" y="508.92" width="9.75" height="3.41"/>
                      <rect class="cls-60" x="1273.98" y="502.39" width="9.75" height="5.31"/>
                      <rect class="cls-56" x="1278.86" y="439.1" width="6.86" height="74.87"/>
                    </g>
                    <g>
                      <g>
                        <polygon class="cls-75" points="1180.76 395.07 1180.76 404.2 1179.79 404.2 1179.79 405.57 1232.15 405.57 1232.15 393.69 1179.79 393.69 1179.79 395.07 1180.76 395.07"/>
                        <rect class="cls-36" x="1180.75" y="395.07" width="49.74" height="9.13"/>
                        <rect class="cls-76" x="1180.75" y="395.07" width="49.74" height="4.56"/>
                      </g>
                      <g>
                        <polygon class="cls-75" points="1176.22 383.44 1176.22 392.57 1175.25 392.57 1175.25 393.94 1227.61 393.94 1227.61 382.07 1175.25 382.07 1175.25 383.44 1176.22 383.44"/>
                        <rect class="cls-36" x="1176.22" y="383.44" width="49.74" height="9.13"/>
                        <rect class="cls-76" x="1176.22" y="383.44" width="49.74" height="4.56"/>
                      </g>
                      <g>
                        <polygon class="cls-59" points="1233.33 381 1233.33 373.77 1234.21 373.77 1234.21 372.68 1186.41 372.68 1186.41 382.09 1234.21 382.09 1234.21 381 1233.33 381"/>
                        <rect class="cls-36" x="1187.92" y="373.77" width="45.41" height="7.23"/>
                        <rect class="cls-76" x="1187.92" y="373.77" width="45.4" height="3.62"/>
                        <polygon class="cls-77" points="1203.13 377.37 1203.13 384.79 1205.36 383.44 1207.6 384.79 1207.6 377.37 1203.13 377.37"/>
                      </g>
                    </g>
                    <rect class="cls-56" x="1174.5" y="324.01" width="202.89" height="7.62"/>
                    <g>
                      <g>
                        <rect class="cls-78" x="1293.05" y="337.28" width="12.49" height="68.23"/>
                        <rect class="cls-79" x="1295.54" y="340" width="7.45" height="24.6" transform="translate(2598.54 704.6) rotate(180)"/>
                        <rect class="cls-55" x="1295.56" y="377.83" width="7.45" height="26.14" transform="translate(2598.57 781.8) rotate(180)"/>
                        <rect class="cls-80" x="1295.56" y="376.02" width="7.45" height="0.75" transform="translate(2598.57 752.79) rotate(180)"/>
                        <rect class="cls-80" x="1295.54" y="365.56" width="7.45" height="0.58" transform="translate(2598.54 731.7) rotate(180)"/>
                        <rect class="cls-81" x="1295.56" y="367.3" width="7.43" height="7.5" transform="translate(2598.55 742.1) rotate(180)"/>
                        <rect class="cls-64" x="1299.3" y="337.28" width="6.25" height="68.23"/>
                        <rect class="cls-78" x="1316.95" y="337.28" width="12.49" height="68.23"/>
                        <rect class="cls-54" x="1319.45" y="340" width="7.45" height="24.6" transform="translate(2646.34 704.6) rotate(180)"/>
                        <rect class="cls-80" x="1319.46" y="377.83" width="7.45" height="26.14" transform="translate(2646.37 781.8) rotate(180)"/>
                        <rect class="cls-80" x="1319.46" y="376.02" width="7.45" height="0.75" transform="translate(2646.37 752.79) rotate(180)"/>
                        <rect class="cls-80" x="1319.45" y="365.56" width="7.45" height="0.58" transform="translate(2646.34 731.7) rotate(180)"/>
                        <rect class="cls-81" x="1319.46" y="367.3" width="7.43" height="7.5" transform="translate(2646.36 742.1) rotate(180)"/>
                        <rect class="cls-64" x="1323.2" y="337.28" width="6.25" height="68.23"/>
                        <rect class="cls-78" x="1304.84" y="337.28" width="12.49" height="68.23"/>
                        <rect class="cls-77" x="1307.34" y="340" width="7.45" height="24.6" transform="translate(2622.13 704.6) rotate(180)"/>
                        <rect class="cls-82" x="1307.36" y="377.83" width="7.45" height="26.14" transform="translate(2622.16 781.8) rotate(180)"/>
                        <rect class="cls-80" x="1307.36" y="376.02" width="7.45" height="0.75" transform="translate(2622.16 752.79) rotate(180)"/>
                        <rect class="cls-80" x="1307.34" y="365.56" width="7.45" height="0.58" transform="translate(2622.13 731.7) rotate(180)"/>
                        <rect class="cls-81" x="1307.36" y="367.3" width="7.43" height="7.5" transform="translate(2622.14 742.1) rotate(180)"/>
                        <rect class="cls-64" x="1311.09" y="337.28" width="6.25" height="68.23"/>
                      </g>
                      <g>
                        <rect class="cls-73" x="1265.96" y="351.01" width="15.48" height="54.51"/>
                        <rect class="cls-74" x="1268.34" y="355.55" width="11.01" height="2.48"/>
                        <rect class="cls-74" x="1268.34" y="359.16" width="11.01" height="3.87"/>
                        <rect class="cls-74" x="1268.34" y="401.83" width="11.01" height="2.48"/>
                        <rect class="cls-74" x="1268.19" y="397.08" width="11.01" height="3.87"/>
                        <rect class="cls-56" x="1273.7" y="351.01" width="7.74" height="54.51"/>
                        <rect class="cls-54" x="1281.44" y="342.12" width="11.61" height="63.4"/>
                        <rect class="cls-60" x="1283.22" y="347.39" width="8.26" height="2.88"/>
                        <rect class="cls-60" x="1283.22" y="351.6" width="8.26" height="4.5"/>
                        <rect class="cls-60" x="1283.22" y="401.23" width="8.26" height="2.88"/>
                        <rect class="cls-60" x="1283.11" y="395.71" width="8.26" height="4.5"/>
                        <rect class="cls-56" x="1287.24" y="342.12" width="5.81" height="63.4"/>
                        <g>
                          <rect class="cls-62" x="1249.13" y="346.22" width="17.69" height="59.23"/>
                          <rect class="cls-55" x="1251.85" y="351.15" width="12.59" height="2.69"/>
                          <rect class="cls-55" x="1251.85" y="355.08" width="12.59" height="4.2"/>
                          <rect class="cls-55" x="1251.85" y="401.45" width="12.59" height="2.69"/>
                          <rect class="cls-55" x="1251.68" y="396.29" width="12.59" height="4.2"/>
                          <rect class="cls-56" x="1257.98" y="346.22" width="8.85" height="59.23"/>
                        </g>
                      </g>
                      <g>
                        <rect class="cls-26" x="1329.45" y="340.62" width="21.15" height="64.89"/>
                        <rect class="cls-55" x="1332.7" y="346.03" width="15.05" height="2.95"/>
                        <rect class="cls-55" x="1332.7" y="350.33" width="15.05" height="4.6"/>
                        <rect class="cls-55" x="1332.7" y="401.13" width="15.05" height="2.95"/>
                        <rect class="cls-55" x="1332.5" y="395.48" width="15.05" height="4.6"/>
                        <rect class="cls-56" x="1340.02" y="340.62" width="10.58" height="64.89"/>
                        <rect class="cls-54" x="1350.6" y="342.12" width="11.61" height="63.4"/>
                        <rect class="cls-60" x="1352.38" y="347.39" width="8.26" height="2.88"/>
                        <rect class="cls-60" x="1352.38" y="351.6" width="8.26" height="4.5"/>
                        <rect class="cls-60" x="1352.38" y="401.23" width="8.26" height="2.88"/>
                        <rect class="cls-60" x="1352.27" y="395.71" width="8.26" height="4.5"/>
                        <rect class="cls-56" x="1356.4" y="342.12" width="5.81" height="63.4"/>
                      </g>
                    </g>
                    <rect class="cls-56" x="1174.5" y="235.34" width="202.89" height="7.62"/>
                  </g>
                </g>
              </g>
              <path class="cls-15" d="M1626,753.52l-67.54-33V570.32L1621.13,589c0-1.21,0-2.43,0-3.64l-66-19.71V722.76l71.06,34.74Z"/>
              <path class="cls-10" d="M-25.56,694.2q-.3,16.56-.83,33.15L140.1,669.54l.19-23.61Z"/>
            </g>
          </g>
          <g class="cls-83">
            <g>
              <path class="cls-84" d="M782.41,144.55c0-23.24-18.11-42.08-40.44-42.08s-40.45,18.84-40.45,42.08,18.11,42.08,40.45,42.08S782.41,167.79,782.41,144.55Z"/>
              <path class="cls-85" d="M779.15,144.55c0-21.36-16.65-38.68-37.18-38.68s-37.18,17.32-37.18,38.68,16.64,38.68,37.18,38.68S779.15,165.91,779.15,144.55Z"/>
              <polygon class="cls-86" points="761.17 123.32 736.19 149.77 737.05 150.65 762.04 124.2 761.17 123.32"/>
              <polygon class="cls-86" points="725.56 130.41 747.3 150.26 748.1 149.31 726.36 129.47 725.56 130.41"/>
              <path class="cls-86" d="M743.89,144.55a1.92,1.92,0,1,0-1.92,2A2,2,0,0,0,743.89,144.55Z"/>
              <g>
                <path class="cls-86" d="M756.9,120.27v-6.2h-1.35v-.76h2.11v7Z"/>
                <path class="cls-86" d="M769.6,127.08a3.88,3.88,0,0,1-1.18,2.26l-2.06,2.26H770v.76h-4.59v-.66l2.5-2.83a2.84,2.84,0,0,0,.92-1.68c0-.68-.5-1.08-1.34-1.08a2.68,2.68,0,0,0-1.82.86l-.34-.64a3.4,3.4,0,0,1,2.26-1C768.8,125.37,769.6,126,769.6,127.08Z"/>
                <path class="cls-86" d="M772.4,144a1.86,1.86,0,0,1,2,1.85,2.13,2.13,0,0,1-2.34,2.17,3.61,3.61,0,0,1-2.12-.7l.33-.67a2.72,2.72,0,0,0,1.73.66,1.45,1.45,0,0,0,1.65-1.43c0-.88-.62-1.32-1.66-1.32h-.82v-.51l2-2.26h-2.9v-.75h3.85v.53L772,144Z"/>
                <path class="cls-86" d="M768.82,161.12v-1.84h.72v1.84h1v.77h-1v1.83h-.72v-1.83h-3.21v-.66l2.4-4.47h.76l-2.34,4.36Z"/>
                <path class="cls-86" d="M755.92,169V171a7.63,7.63,0,0,1,1.13-.1,2.08,2.08,0,0,1,2.3,2.06,2.18,2.18,0,0,1-2.36,2.3,4.11,4.11,0,0,1-2.25-.76l.31-.67a3.22,3.22,0,0,0,1.87.69,1.45,1.45,0,0,0,1.62-1.51c0-.82-.62-1.34-1.6-1.34a10.33,10.33,0,0,0-1.72.17v-3.56h3.88V169Z"/>
                <path class="cls-86" d="M744.05,172.84l-.3.64a3.11,3.11,0,0,0-1.54-.43c-1.43,0-2.15,1.23-2.05,3.11a2,2,0,0,1,2-1.28,2,2,0,0,1,2.12,2.19,2.13,2.13,0,0,1-2.26,2.31c-1.63,0-2.61-1.23-2.61-3.37s1.05-3.66,2.75-3.66A4.32,4.32,0,0,1,744.05,172.84Zm-3.71,4.28a1.53,1.53,0,0,0,1.63,1.52,1.49,1.49,0,0,0,1.6-1.58,1.42,1.42,0,0,0-1.54-1.5A1.57,1.57,0,0,0,740.34,177.12Z"/>
                <path class="cls-86" d="M726.43,175.2h-.81l2.75-6.19h-3.11v1h-.69v-1.78h4.64v.67Z"/>
                <path class="cls-86" d="M718,158.47a1.59,1.59,0,0,1-1.09,1.52,1.82,1.82,0,0,1,1.41,1.77c0,1.24-1,2-2.46,2s-2.47-.75-2.47-2a1.84,1.84,0,0,1,1.44-1.79,1.63,1.63,0,0,1-1.12-1.54c0-1.08.83-1.73,2.14-1.73S718,157.38,718,158.47Zm-3.89,3.22c0,.88.65,1.38,1.75,1.38s1.74-.5,1.74-1.38-.65-1.32-1.75-1.32S714.11,160.87,714.11,161.69Zm.26-3.17c0,.75.56,1.18,1.49,1.18s1.48-.43,1.48-1.18-.55-1.18-1.48-1.18S714.37,157.78,714.37,158.52Z"/>
                <path class="cls-86" d="M709.6,147.57l.31-.64a3.08,3.08,0,0,0,1.54.43c1.43,0,2.15-1.22,2-3.1a2,2,0,0,1-2,1.27,2,2,0,0,1-2.12-2.19,2.13,2.13,0,0,1,2.27-2.3c1.62,0,2.61,1.22,2.61,3.36s-1.06,3.66-2.76,3.66A4.22,4.22,0,0,1,709.6,147.57Zm3.72-4.28a1.54,1.54,0,0,0-1.63-1.52,1.49,1.49,0,0,0-1.6,1.58,1.41,1.41,0,0,0,1.54,1.5A1.57,1.57,0,0,0,713.32,143.29Z"/>
                <g>
                  <path class="cls-86" d="M713.6,132.73v-6.21h-1.36v-.75h2.11v7Z"/>
                  <path class="cls-86" d="M721.75,129.25c0,2.24-1,3.5-2.76,3.5s-2.76-1.26-2.76-3.5,1-3.5,2.76-3.5S721.75,127,721.75,129.25Zm-4.74,0c0,1.88.68,2.82,2,2.82s2-.94,2-2.82-.69-2.83-2-2.83S717,127.36,717,129.25Z"/>
                </g>
                <g>
                  <path class="cls-86" d="M724.83,121.31V115.1h-1.36v-.75h2.11v7Z"/>
                  <path class="cls-86" d="M729.55,121.31V115.1H728.2v-.75h2.11v7Z"/>
                </g>
                <g>
                  <path class="cls-86" d="M739,116.81V110.6h-1.36v-.75h2.11v7Z"/>
                  <path class="cls-86" d="M745.94,111.53a3.83,3.83,0,0,1-1.19,2.25l-2,2.27h3.62v.76h-4.6v-.66l2.5-2.83a2.87,2.87,0,0,0,.92-1.68c0-.68-.49-1.09-1.34-1.09a2.69,2.69,0,0,0-1.82.87l-.34-.64a3.37,3.37,0,0,1,2.26-1C745.13,109.82,745.94,110.48,745.94,111.53Z"/>
                </g>
              </g>
              <path class="cls-84" d="M731.55,117.72l14.87,39.09a.76.76,0,0,1-.19.82,2,2,0,0,0-.5,2.21,1.9,1.9,0,0,0,2.49,1.12,2,2,0,0,0,1.08-2.59,1.91,1.91,0,0,0-1.84-1.25.71.71,0,0,1-.68-.47l-14.86-39.09a.2.2,0,0,0-.26-.11A.21.21,0,0,0,731.55,117.72Z"/>
              <path class="cls-84" d="M743.23,144.55a1.27,1.27,0,1,0-1.26,1.32A1.29,1.29,0,0,0,743.23,144.55Z"/>
            </g>
          </g>
        </g>
        <g>
          <g>
            <path class="cls-87" d="M829.55,520.63c0,.57,0,1.15,0,1.72,1.11,3.44-149.55,0-149.55,0s-.06-.62-.14-1.72c-.57-9-1.41-50.2,31.16-53.26h88.62S830,468.5,829.55,520.63Z"/>
            <path class="cls-88" d="M823.47,518.77c0,.51,0,1,0,1.53,1,3.05-137.41,0-137.41,0s-.06-.55-.13-1.53c-.52-8-1.29-44.61,28.63-47.33H796S823.86,472.44,823.47,518.77Z"/>
            <path class="cls-89" d="M923.71,518.77V534H420.89V518.77h69.94c.26.18.53.35.8.51h82.45v-.51H685.91c.07,1,.13,1.53.13,1.53s138.43,3.05,137.41,0c0-.51,0-1,0-1.53Z"/>
            <path class="cls-90" d="M490.83,518.77h83.25v.51H491.63C491.36,519.12,491.09,519,490.83,518.77Z"/>
            <path class="cls-90" d="M823.47,518.77c0,.51,0,1,0,1.53,1,3.05-137.41,0-137.41,0s-.06-.55-.13-1.53Z"/>
            <polygon class="cls-89" points="907.93 547.78 907.93 741.96 880.45 741.96 880.45 565.83 468.22 565.83 468.22 744.54 440.74 744.54 440.74 547.78 907.93 547.78"/>
            <rect class="cls-91" x="440.74" y="534.04" width="467.19" height="13.74"/>
            <rect class="cls-92" x="468.22" y="569.16" width="412.23" height="36.64"/>
            <rect class="cls-93" x="468.22" y="605.8" width="412.23" height="109.93"/>
          </g>
          <path class="cls-36" d="M571,472.89H495.45s-21.46,8.55,0,20.52H571Z"/>
          <path class="cls-94" d="M574.08,494.85v24.43H491.63c-.27-.16-.54-.33-.8-.51-22.06-14,.8-23.92.8-23.92Z"/>
          <path class="cls-36" d="M571,497.32H495.45s-21.46,8.55,0,20.52H571Z"/>
        </g>
      </g>
    </g>
  </g>
</svg>
