<svg id="Layer_1" data-name="Layer 1" xmlns="http://www.w3.org/2000/svg" width="233" height="653" viewBox="0 0 233 653">
  <defs>
    <style>
      .cls-1 {
        opacity: 0.3;
      }

      .cls-2 {
        fill: #351a1a;
      }

      .cls-2, .cls-3, .cls-6 {
        stroke: #301a1a;
      }

      .cls-10, .cls-11, .cls-12, .cls-13, .cls-16, .cls-18, .cls-2, .cls-26, .cls-29, .cls-3, .cls-30, .cls-4, .cls-5, .cls-6, .cls-7 {
        stroke-miterlimit: 10;
      }

      .cls-3 {
        fill: #140808;
      }

      .cls-4 {
        fill: #5b3a38;
      }

      .cls-4, .cls-5 {
        stroke: #140909;
      }

      .cls-5 {
        fill: #3d211f;
      }

      .cls-6 {
        fill: #684343;
      }

      .cls-14, .cls-7 {
        fill: #829383;
      }

      .cls-13, .cls-7 {
        stroke: #233323;
      }

      .cls-11, .cls-16, .cls-7 {
        stroke-width: 2px;
      }

      .cls-8 {
        fill: #556356;
      }

      .cls-9 {
        fill: #5a7362;
      }

      .cls-10, .cls-23 {
        fill: #f2bd91;
      }

      .cls-10 {
        stroke: #9b4343;
      }

      .cls-11, .cls-13 {
        fill: #63573b;
      }

      .cls-11, .cls-12, .cls-16, .cls-29, .cls-30 {
        stroke: #281c1c;
      }

      .cls-12 {
        fill: #869ba9;
      }

      .cls-15 {
        fill: #233323;
      }

      .cls-16 {
        fill: none;
      }

      .cls-17, .cls-18 {
        fill: #32383f;
      }

      .cls-18 {
        stroke: #14191e;
      }

      .cls-19 {
        fill: #1e0909;
      }

      .cls-20 {
        fill: #fff;
      }

      .cls-21 {
        fill: #330e0e;
      }

      .cls-22 {
        fill: #fcf5f5;
      }

      .cls-24 {
        fill: #752a2a;
      }

      .cls-25 {
        fill: #2c3137;
      }

      .cls-26 {
        fill: #7f7373;
        stroke: #511717;
      }

      .cls-27 {
        fill: #281c1c;
      }

      .cls-28 {
        fill: #9b4343;
      }

      .cls-29 {
        fill: #897a7a;
      }

      .cls-30 {
        fill: #5b5151;
      }
    </style>
  </defs>
  <g>
    <ellipse class="cls-1" cx="116.5" cy="628.57" rx="115.5" ry="23.59"/>
    <g>
      <g>
        <g>
          <g>
            <path class="cls-2" d="M21.75,32.73,51.08,233.35,42.6,289.43l8.95,77.3,35.82,4.71L70.87,252.67,35.84,36.5,44,26.92,23.89,29.85A2.55,2.55,0,0,0,21.75,32.73Z"/>
            <ellipse class="cls-3" cx="28.74" cy="30.56" rx="7.21" ry="2.47" transform="translate(-4.51 4.98) rotate(-9.19)"/>
          </g>
          <path class="cls-4" d="M75.43,550.69,58,550.06l1.1-1.89s-4.35,8.49-7.07,33S42.6,603,31.81,608.61c-9.45,4.95-12.92,10.71-13.06,19.74a8,8,0,0,0,3.77,6.94c4.81,3,14.75,6.78,32,3.9,0,0,11.11-2.41,16.34-9.64a39.18,39.18,0,0,1,9.95-7.64l2.46-1.63"/>
          <path class="cls-5" d="M48.09,538.85l.74,1.68s2,9.63-.74,34.14-4.4,22-15.18,27.65-15.08,12.88-14.25,24.3c0,0,10.58,10.68,37,6.28,0,0,11.11-2.41,16.34-9.63a39.34,39.34,0,0,1,10-7.65l.94-.21a181,181,0,0,1,1-40.74c3.14-21.57,4.19-35.82,4.19-35.82Z"/>
          <g>
            <path class="cls-4" d="M71.34,539.85A72.18,72.18,0,0,0,70,553.7L70,555c-.08,4.63,0,9.49-.2,14.31,0,.42,0,.83,0,1.25a77.91,77.91,0,0,1-1.69,14.21c-.1.42-.2.85-.31,1.26a40.66,40.66,0,0,1-1.42,4.46,46.83,46.83,0,0,1-3.39,7.06c-.25.43-.5.83-.76,1.22-4.87,7.48-9.52,8-9.52,8-2-1.72-6.6-2.51-6.6-2.51a28.8,28.8,0,0,0,6.54-8c.21-.4.42-.8.62-1.2a36.45,36.45,0,0,0,3.16-10.75l.18-1.31a113.71,113.71,0,0,0,.66-13.22v-1.31c0-3.49,0-7.17,0-11,0-1.12,0-2.19,0-3.21,0-.44,0-.87,0-1.29.6-16.72,3.68-19.53,3.68-19.53S74.49,525.87,71.34,539.85Z"/>
            <path class="cls-5" d="M70,553.7,70,555c-2-.05-4.25-.14-6.72-.28-2.17-.13-4.21-.28-6-.44,0-.44,0-.87,0-1.29,1.81,0,3.86.13,6.05.26C65.79,553.34,68.07,553.52,70,553.7Z"/>
            <path class="cls-5" d="M69.78,569.26c0,.42,0,.83,0,1.25-2,0-4.27-.14-6.74-.29-2.09-.12-4-.27-5.79-.42v-1.31c1.76.06,3.76.14,5.88.26C65.54,568.9,67.84,569.08,69.78,569.26Z"/>
            <path class="cls-5" d="M68.05,584.72c-.1.42-.2.85-.31,1.26-1.79-.2-3.84-.48-6-.79-1.92-.28-3.74-.58-5.36-.86l.18-1.31c1.64.19,3.47.44,5.4.72C64.16,584.06,66.24,584.4,68.05,584.72Z"/>
            <path class="cls-5" d="M62.93,597.5c-.25.43-.5.83-.76,1.22-1.28-.29-2.65-.62-4.07-1-2-.5-3.86-1-5.51-1.47.21-.4.42-.8.62-1.2,1.61.36,3.38.77,5.25,1.24C60,596.72,61.55,597.12,62.93,597.5Z"/>
          </g>
          <path class="cls-5" d="M92.55,537.09c0,6.55-10.67,10.46-24,10.46S43.93,541.84,45,535.37c1.57-10,10.83-11.86,24.19-11.86S92.55,530.54,92.55,537.09Z"/>
          <path class="cls-5" d="M20.44,613.84s6.76-18.38,30.8-11.31,16.65,25.14,16.65,25.14"/>
          <path class="cls-6" d="M81.87,598.29S71,605.83,76.06,619.18"/>
        </g>
        <g>
          <path class="cls-4" d="M160.58,552.57,178,552l-1.1-1.89s4.34,8.48,7.07,33,9.42,21.79,20.21,27.44c9.45,5,12.91,10.72,13.06,19.75a8,8,0,0,1-3.78,6.94c-4.8,3-14.74,6.77-32,3.89,0,0-11.1-2.41-16.33-9.63a39.34,39.34,0,0,0-9.95-7.65l-2.47-1.62"/>
          <path class="cls-5" d="M187.91,540.74l-.73,1.67s-2,9.64.73,34.15,4.4,22,15.19,27.65,15.08,12.88,14.24,24.29c0,0-10.57,10.69-37,6.29,0,0-11.1-2.41-16.33-9.64a39.18,39.18,0,0,0-9.95-7.64l-1-.21a180.61,180.61,0,0,0-1-40.74c-3.15-21.58-4.19-35.82-4.19-35.82Z"/>
          <g>
            <path class="cls-4" d="M164.67,541.73A72.37,72.37,0,0,1,166,555.59l0,1.25c.07,4.63,0,9.48.19,14.3,0,.42,0,.84.05,1.25A78,78,0,0,0,168,586.61c.1.42.2.84.31,1.26a38.45,38.45,0,0,0,1.42,4.45,47.86,47.86,0,0,0,3.38,7.06c.26.43.51.84.77,1.23,4.87,7.48,9.52,8,9.52,8,2-1.73,6.6-2.52,6.6-2.52a28.76,28.76,0,0,1-6.54-8c-.22-.4-.42-.8-.62-1.21a36.09,36.09,0,0,1-3.16-10.74c-.06-.43-.13-.87-.18-1.32a111.37,111.37,0,0,1-.66-13.21v-1.31c0-3.5,0-7.17,0-11,0-1.12,0-2.19-.05-3.21,0-.44,0-.88-.05-1.3-.59-16.72-3.67-19.53-3.67-19.53S161.52,527.75,164.67,541.73Z"/>
            <path class="cls-5" d="M166,555.59l0,1.25c2-.05,4.25-.15,6.71-.29,2.18-.13,4.22-.27,6-.43,0-.44,0-.88-.05-1.3-1.8,0-3.85.14-6,.27C170.22,555.23,167.94,555.4,166,555.59Z"/>
            <path class="cls-5" d="M166.22,571.14c0,.42,0,.84.05,1.25,2,0,4.27-.14,6.74-.29,2.08-.12,4.05-.26,5.79-.41v-1.31c-1.76,0-3.76.14-5.88.26C170.47,570.79,168.17,571,166.22,571.14Z"/>
            <path class="cls-5" d="M168,586.61c.1.42.2.84.31,1.26,1.79-.21,3.84-.48,6-.8,1.91-.28,3.73-.57,5.36-.85-.06-.43-.13-.87-.18-1.32-1.64.2-3.47.44-5.4.72C171.85,586,169.77,586.29,168,586.61Z"/>
            <path class="cls-5" d="M173.07,599.38c.26.43.51.84.77,1.23,1.28-.29,2.65-.62,4.07-1,2-.5,3.86-1,5.51-1.46-.22-.4-.42-.8-.62-1.21-1.61.36-3.38.78-5.25,1.25C176,598.61,174.46,599,173.07,599.38Z"/>
          </g>
          <path class="cls-5" d="M143.46,539c0,6.56,10.67,10.46,24,10.46s24.58-5.7,23.57-12.17c-1.57-10-10.84-11.86-24.2-11.86S143.46,532.42,143.46,539Z"/>
          <path class="cls-5" d="M215.56,615.73s-6.75-18.38-30.79-11.31-16.65,25.13-16.65,25.13"/>
          <path class="cls-6" d="M154.14,600.17s10.84,7.55,5.81,20.9"/>
        </g>
        <path class="cls-7" d="M192,529.64l-3.18,3-3.11,3c-6.74,3.67-17.13,4.06-26,3.5a130.32,130.32,0,0,1-17-2.25c-11.31-9.11-12.26-12.25-11.63-26.07.07-1.53.05-3.92,0-7-.23-7.58-.91-19.22-1.74-31.7-1-14.41-2.12-29.94-3-41.63v0c-.85-11-1.47-18.64-1.47-18.64l-5,6s-2,13.14-4.66,29.22c-3.32,20.42-7.54,45.58-9.62,54.59-.18.78-.34,1.44-.49,2-3.14,11.31-.62,5.66-1.88,13.51q-.09.58-.24,1.2C101,526.11,93,537.2,69.17,537.81h0c-25.13.62-37.7-19.17-32.36-22s4.71-10.36,4.71-10.36l.52-5.68,6.5-72.35,3-51.43s12.88-46.5,71-42.1S183.51,381,183.51,381l1.26,39.59-.94,4.08,5.64,35.38,1.27,8c-3.46,26.7,3.77,36.75,7.85,47.13S192,529.64,192,529.64Z"/>
        <path class="cls-8" d="M74.88,518.08c-2.37,2.65-7.23,3.08-8.08,6.54-.58,2.38,1.24,4.59,2.28,6.81a11.2,11.2,0,0,1,1,5.93h0c-25.13.63-37.7-19.17-32.36-22S42.38,505,42.38,505l.52-5.67c4.67,2.45,8.85,7.87,13.85,8.91,5.63,1.17,10.58-3.93,16.26-.06C76.15,510.32,77.41,515.24,74.88,518.08Z"/>
        <path class="cls-8" d="M115.07,447c-3.32,20.42-7.54,45.58-9.62,54.59a20.89,20.89,0,0,0-2.65-.4c-7.17-1.05-12-9.92-8.89-16.49,1.59-3.44,4.88-6.18,5.3-9.95.37-3.34-1.65-6.41-2.62-9.63a16,16,0,0,1,0-9.18c.52-1.73,11.69-7.49,13.63-8.12A11.67,11.67,0,0,1,115.07,447Z"/>
        <path class="cls-8" d="M152.88,443.29c-.88,1.17-2.12,2-2.92,3.28-1.66,2.6-.93,6-.38,9s.66,6.66-1.72,8.62c-2.94,2.42-10.27,4.2-14,6.11a32.17,32.17,0,0,1-3.74,1.82c-1-14.41-2.12-29.94-3-41.63v-.34a4,4,0,0,1,.22-2.1,3.26,3.26,0,0,1,1.89-1.26c2.57-1,5.79-1.78,7.79.09.88.82,1.31,2,2.11,2.91,2.62,3,7.58,1.55,11.16,3.21A7.14,7.14,0,0,1,152.88,443.29Z"/>
        <path class="cls-8" d="M132.33,503.38l3.38-.92c3.61-1,7.94-1.79,10.7.73,3,2.75,2.37,8,5.27,10.86,4.13,4.1,12,.45,16.56,4.07,3.18,2.53,2.75,8.31-.78,10.33a25.11,25.11,0,0,0-3.31,1.69c-2.26,1.79-2.05,5.2-2.92,8a4.79,4.79,0,0,1-.21.57Z"/>
        <path class="cls-8" d="M191.11,529.64l-3.18,3c-2.62,1.34-5.87,2-8.2.31-3-6.43,8.34-12.87,5.72-19.47-1.4-3.54-6.14-4.64-8-8s-.19-7.31,1.73-10.5,4.24-6.57,3.79-10.27c-.88-7.27-11.75-10.87-11.15-18.16.3-3.78,3.94-6.59,7.66-7.26a21.9,21.9,0,0,1,9.08.74l1.27,8c-3.46,26.7,3.77,36.75,7.85,47.13S191.11,529.64,191.11,529.64Z"/>
        <path class="cls-8" d="M161.73,538.22l-18.12-1.67S130.3,526.63,132.19,515l.64-11.5"/>
        <path class="cls-9" d="M47.67,371.73s4.4,28.91,66.61,37.08c0,0,11.31-1.89,17-20.74a50.7,50.7,0,0,0,17.59,22l25.77-5.65,4.82,15.89,3.35-3.32.73-36s-36.55-67.73-67.35-33.8.6-3.55.6-3.55Z"/>
        <g>
          <path class="cls-10" d="M196.24,365.63s1.41,3.45-.16,8.64-2.51,6.91.63,15.55-1.41,11,1.73,13.67c0,0,6.44.78,8.17-3.77a27.55,27.55,0,0,1-1.1,10.52s-4.09,4.09-1.1,6.13,5.34-2.2,9.27-8.33,5.49-10.68,5.18-19.48-3-29.06-6.6-37.86S196.24,365.63,196.24,365.63Z"/>
          <path class="cls-10" d="M206.76,400.66a126.33,126.33,0,0,1-.78-14.14"/>
        </g>
        <g>
          <path class="cls-10" d="M36.36,369.19s3.28-.15,11.71,10.09a25.37,25.37,0,0,1,5.36,12A20.37,20.37,0,0,0,57.94,401s5.86,9.63-4.82,6.28l-9.22-6.18s-1.57,17.07,1.89,23.56c0,0-.94,6.29-7.75,1.58,0,0-1.15,3.56-6.28.41,0,0-2.73,3.15-6.92-2.61,0,0-6.8-.32-9.11-9.22s-3-29.64,1.36-41.58S36.36,369.19,36.36,369.19Z"/>
          <path class="cls-10" d="M31.76,426.68s-5.45-6.17-7.55-20.84"/>
          <path class="cls-10" d="M24.84,424.07s-2.3-2.41-4.61-12.26"/>
          <path class="cls-10" d="M39.61,427s-2.51.31-4.5-7.75A87.93,87.93,0,0,1,32.8,404"/>
          <line class="cls-10" x1="43.8" y1="402.28" x2="44.22" y2="396"/>
        </g>
        <path class="cls-7" d="M217.45,362.17a38.53,38.53,0,0,1-21.68,6.28s-2-6.54-5-15.7c-4.63-14-11.78-34-18.23-46.19-10.68-20.11-11.94-137.94,5.65-140.14,0,0,10.68-2.51,16,21.37s12.26,72,14.77,91.75c.25,1.94.53,4.3.84,7h0c1.26,11.12,2.95,27.7,4.42,42.5.56,5.64,1.09,11,1.55,15.74C216.77,355,217.45,362.17,217.45,362.17Z"/>
        <path class="cls-7" d="M56.89,250.32,46,297.13l-3.38,52.28-.53,8.08-.91,14.11c-10.37,6.59-24.82,4.08-24.82,4.08s-.82-4-1.95-10.95c0-.14,0-.27-.06-.41-.2-1.23-.4-2.56-.62-4q-.51-3.39-1.06-7.42h0c-1.11-8.31-2.27-18.55-3.14-30.13-.65-8.53-1.14-17.79-1.34-27.54a334.49,334.49,0,0,1,1.73-43.38c.95-8.63,2.25-16.61,3.82-24,1.14-5.36,2.42-10.42,3.83-15.23.35-1.19.71-2.37,1.08-3.53,1.7-5.43,3.57-10.53,5.56-15.32A75,75,0,0,1,31.27,180c5.35-7.67,8-4.49,8-4.49C66.32,196,56.89,250.32,56.89,250.32Z"/>
        <g>
          <path class="cls-8" d="M42.62,349.41l-.53,8.08-.91,14.11c-10.37,6.59-24.82,4.08-24.82,4.08s-.82-4-1.95-10.95c0-.14,0-.27-.06-.41-.2-1.23-.4-2.56-.62-4q-.51-3.39-1.06-7.42h0a11.27,11.27,0,0,1,1.16-1.13,17.36,17.36,0,0,1,6.74-3.27A14.22,14.22,0,0,1,27,348c2.2.44,4.14,1.69,6.23,2.51s4.63,1.15,6.44-.18c.6-.43,1.13-1.05,1.86-1.15A1.34,1.34,0,0,1,42.62,349.41Z"/>
          <path class="cls-8" d="M217.45,362.17a38.53,38.53,0,0,1-21.68,6.28s-2-6.54-5-15.7c5.76-.4,11.5-2.14,15-6.6a8.83,8.83,0,0,1,2.24-2.43c1.36-.8,3.09-.53,4.61-.1a26.3,26.3,0,0,1,3.21,1.14C216.77,355,217.45,362.17,217.45,362.17Z"/>
          <path class="cls-8" d="M23.81,292.84c-2.11,3.22-5.66,5.47-7.09,9.05-2,5.1.89,11.36-1.75,16.18a12.29,12.29,0,0,1-5.44,4.72c-.65-8.53-1.14-17.79-1.34-27.54a334.49,334.49,0,0,1,1.73-43.38,7.7,7.7,0,0,1,.9,1.08c2.32,3.12,4.71,6.42,5.21,10.27.25,1.88,0,3.82.5,5.65,1,4.06,5.06,6.54,7.33,10.05A13.08,13.08,0,0,1,23.81,292.84Z"/>
          <path class="cls-8" d="M38.61,201.76c.21,3.46-3,6.34-6.34,7.15s-6.88.12-10.31-.32a5,5,0,0,0-2.94.25l-.37.24c1.7-5.43,3.57-10.53,5.56-15.32A75,75,0,0,1,31.27,180a18.65,18.65,0,0,0,.58,4c1.48,4.86,3.89,9.63,5.8,14.34A11,11,0,0,1,38.61,201.76Z"/>
          <path class="cls-8" d="M202.51,329.4l3-12c-1.6,1.73-4.8.35-5.56-1.89s.13-4.66,1.11-6.8,2.1-4.41,1.79-6.74c-.5-3.84-4.58-6.31-5.64-10a6.84,6.84,0,0,1,10.48-7.51,9.8,9.8,0,0,1,2.08,2h0c1.26,11.12,2.95,27.7,4.42,42.5Z"/>
        </g>
        <path class="cls-7" d="M63.18,333s-17,23.88-20.74,39.59c0,0,35.19,31.42,70.69,31.42,0,0,16.66-14.46,17.6-60l1.57-.32s-.94,37.71,16.65,56.56c0,0,25.45-4.09,37.39-13.2,0,0,2.83-26.39-15.39-54.36C171,332.63,66.63,311.9,63.18,333Z"/>
        <g>
          <path class="cls-11" d="M59.09,300.59s-2.2,1.57.31,6c0,0-.19,6.41-.2,13.82,0,5.81.1,12.23.52,16.65,0,0,28.86,10.13,73.52,9.76l1.57,0s32.68-2.82,39.28-8.48l3.14-4.08a92,92,0,0,1,.63-22.63c1.88-12.56-.63-14.76-6.91-11.31S59.09,300.59,59.09,300.59Z"/>
          <path class="cls-7" d="M88.63,309.7s-5.35,17.91-1.89,34.56l-10.68-2.2s-4.72-18.54,3.77-34.25Z"/>
          <path class="cls-7" d="M162.77,306.65s3.75,18.84,1.33,36.35l7.5-2.31s3.31-19.5-2.65-36Z"/>
          <g>
            <path class="cls-12" d="M114.68,316.72s.83,19.26,2.08,26.95a60.13,60.13,0,0,0,35-1.46L149.15,314Z"/>
            <g>
              <ellipse class="cls-12" cx="133.72" cy="326.21" rx="5.03" ry="4.82" transform="translate(-22.43 10.12) rotate(-4)"/>
              <path class="cls-12" d="M122.1,322.2s-.48,11.16,11.52,11.58l.71,7.09-3.47-4.59S117.14,335.35,122.1,322.2Z"/>
              <path class="cls-12" d="M143.92,320.75s2,11-9.79,13.07l.29,7.12,2.8-5S150.67,333.08,143.92,320.75Z"/>
            </g>
          </g>
        </g>
        <path class="cls-7" d="M175.44,161.8l-26.39-9.43S120.14,136,91.23,149.86s-41.16,17-50.58,25.45c0,0,26.39,23.25,20.73,74.78,0,0-5,31.42.63,44.61l3.46,10.06a47.83,47.83,0,0,0,10,4.05c8.5,2.64,22.79,5.62,44.2,5.79,5.19,0,10.78-.08,16.82-.41,7-.39,12.92-1,17.93-1.73,31.68-4.7,27-15.24,27-15.24s4.26-16.28,7-35c1.54-10.48,2.58-21.72,2.13-31.3,0,0,1.46-5.83-5.45-31.59"/>
        <path class="cls-8" d="M115.29,309.58a17.34,17.34,0,0,1-1.06,4.62C92.81,314,78.52,311.05,70,308.41a4.87,4.87,0,0,1,1.12-1.07,11.36,11.36,0,0,1,5.3-15.79c5.86-2.51,13.06,0,17.2,4.87a15.5,15.5,0,0,0,3.09,3.22c4.38,2.84,10.77-1.32,15.25,1.36C114.76,302.66,115.58,306.36,115.29,309.58Z"/>
        <path class="cls-8" d="M162.18,194.57a91,91,0,0,0-18.8-4.14,10.86,10.86,0,0,0,5.54,13.1c-3.52.55-7.21-.1-10.66.83-7.35,2-11.15,11.92-7,18.29,1.38,2.11,3.49,3.93,3.82,6.43.52,3.87-3.41,6.83-7.08,8.15s-7.91,2.17-10.15,5.36c-3.08,4.38-.26,10.93,4.4,13.55s10.37,2.37,15.69,1.78c4.53-.51,9.45-1.42,12.43-4.87,2.79-3.22,3.16-7.84,2.92-12.08-.21-3.7-.78-7.49.2-11.06s4.11-6.92,7.81-6.65c2.14.16,4.11,1.48,6.25,1.4,4.17-.15,6.3-5.25,6.13-9.42a21.43,21.43,0,0,0-6-14Z"/>
        <path class="cls-8" d="M176,296.82s4.68,10.53-27,15.24a6.65,6.65,0,0,1,0-2.18c.81-4.73,6.16-7.43,11-7.37.57-2.3-2.64-3.51-4-5.45a5.21,5.21,0,0,1,.23-5.71,11.92,11.92,0,0,1,4.68-3.76c2.13-1.09,4.59-2.2,5.38-4.45a6.79,6.79,0,0,0,.21-2.94c-.5-5.36-2.92-11.39.32-15.68,2.36-3.11,6.79-3.76,10.67-3.42,1.85.16,3.7.49,5.55.71C180.24,280.53,176,296.82,176,296.82Z"/>
        <path class="cls-7" d="M34.27,177.32s-3.35,10.68,13,16.12l22-18.43,2.51-9.42-13-4S45.16,170.4,34.27,177.32Z"/>
        <rect class="cls-13" x="68.41" y="212.51" width="33.93" height="9.01" transform="translate(-15.83 6.92) rotate(-4.25)"/>
        <path class="cls-7" d="M162.67,158.25l-7.54,2.52,7.54,10.68,23.46,5.45s3.35-6.92-1.67-12.15Z"/>
        <g>
          <path class="cls-7" d="M145.91,224s-1.67,6.91-.62,20.52-1.26,15.5,7.54,19.07,22.83,0,24.5-7.75c0,0,1.47-42.11-3.56-35.82s-1,.21-1,.21Z"/>
          <path class="cls-7" d="M144.66,223.61a111.58,111.58,0,0,1,30.16-5s4.4,11.31-11.94,13.2S144.66,223.61,144.66,223.61Z"/>
          <circle class="cls-7" cx="161.83" cy="226.12" r="3.35"/>
          <g>
            <line class="cls-14" x1="162.25" y1="234.08" x2="163.3" y2="262.15"/>
            <path class="cls-15" d="M162.35,234.08a37.7,37.7,0,0,1,1.59,7c.2,1.16.28,2.33.41,3.49s.15,2.34.22,3.51.05,2.34,0,3.51,0,2.34-.15,3.52a37.78,37.78,0,0,1-1.06,7.07h-.2l-.62-14-.43-14Z"/>
          </g>
        </g>
        <g>
          <path class="cls-7" d="M107.58,229.47s2.6,8.39,2.65,21.32,2.83,14.46-6.78,18.76S77.7,272,75.1,264.92c0,0-5.47-39.48.77-34.11s1.2.08,1.2.08Z"/>
          <path class="cls-7" d="M108,228.84a336.52,336.52,0,0,0-37.7.42s.32,11.41,18.92,11.41S108,228.84,108,228.84Z"/>
          <ellipse class="cls-7" cx="89.89" cy="235.23" rx="3.8" ry="3.17" transform="translate(-22.14 9.7) rotate(-5.5)"/>
          <g>
            <line class="cls-14" x1="90.14" y1="242.77" x2="91.51" y2="269.31"/>
            <path class="cls-15" d="M90.24,242.77a34.71,34.71,0,0,1,1.67,6.56c.21,1.1.3,2.21.45,3.31s.18,2.21.26,3.31.08,2.21.08,3.32,0,2.22-.12,3.33a34,34,0,0,1-1,6.71h-.19l-.79-13.27L90,242.78Z"/>
          </g>
        </g>
        <path class="cls-7" d="M42,168.73s3.35-5,11.73-5.87c0,0,23,32.26,18,78.55C67.6,279.75,61,296.92,44,322.89l2-25.76s14-31.64,13.2-69.75C58.57,199.52,50.61,175.85,42,168.73Z"/>
        <path class="cls-16" d="M122.56,208.53s10.59,37.44,8.93,105.15"/>
        <g>
          <path class="cls-17" d="M89.36,162.44s-1.89,10.48,15.92,26.19,19.27,30,19.27,30-4.61-9.43,16.76-30.58l3.77-29.95-6.92-8.59S89.57,146.32,89.36,162.44Z"/>
          <path class="cls-18" d="M141.72,163.7c0,11.11-11.44,20.11-25.55,20.11s-25.55-9-25.55-20.11,10.18-27,24.29-27S141.72,152.59,141.72,163.7Z"/>
          <path class="cls-10" d="M140.68,153.44c0,11.1-11.44,20.11-25.56,20.11s-25.55-9-25.55-20.11,10.18-27,24.3-27S140.68,142.33,140.68,153.44Z"/>
          <g>
            <path class="cls-7" d="M87.47,135.42s-10.68,11.1-10.89,40.22l11.31-4.82L81.4,182.55s25.13,9.64,39.8,26.81c0,0-2.31-11.73-19.69-30s-7.12-42.73-7.12-42.73Z"/>
            <path class="cls-7" d="M135.23,142.13s4.19,8,4.19,26.81c0,0-17,33.72-15.08,44,0,0,15.29-24.3,34.77-33.31l-11.52-8.8,11.1-1.25s-6.91-23.46-20.95-35C137.74,134.58,134,132.49,135.23,142.13Z"/>
          </g>
        </g>
        <g>
          <path class="cls-10" d="M71.82,59.28s5,55,11,68.65,23.25,22.94,41.48,20.58,28.59-24.5,30.47-36.91S162,56.93,141.1,50,72.6,47.81,71.82,59.28Z"/>
          <path class="cls-19" d="M69.14,109.08s1.73,13.51,11.79,19.48l2.67.95-5-25.61S68.36,103.27,69.14,109.08Z"/>
          <path class="cls-10" d="M156.18,87.56s1.41-10,7.22-7.07,5.66,21.21-6.28,24.35C157.12,104.84,154.92,92.43,156.18,87.56Z"/>
          <path class="cls-10" d="M62.23,85.2s-7.22,4.4.16,20c0,0,5.81,9,11,6.28s3.77-14,3.77-14l-2.67-17Z"/>
          <g>
            <path class="cls-7" d="M164,56.76a42.54,42.54,0,0,1-.85,7c-1.69,8.08-4.12-2.61-15.9-4.34-13.12-1.93-22.67-1.26-39.59-1.26-21.1,0-49.64,18.7-51.37,16.5A17.65,17.65,0,0,1,53,66.52c-.8-4.95-.27-10.53.32-15.56A58.13,58.13,0,0,1,61.1,27.55,50.92,50.92,0,0,1,79.84,9.32,59.64,59.64,0,0,1,107,1.94c20.6-.85,35.74,3.75,45.26,15.22a40.41,40.41,0,0,1,4.79,7.22c3.46,6.58,5.68,14.71,6.66,24.53A57.09,57.09,0,0,1,164,56.76Z"/>
            <path class="cls-8" d="M149.94,17.84a6.63,6.63,0,0,1-.69.49c-3.7,2.28-8.44,1.38-12.35-.47s-7.43-4.6-11.49-6c-1.68-.59-3.64-.92-5.15.07C118.44,13.1,118,15.68,118,18c-.07,3.17.27,6.36-.15,9.5s-1.75,6.36-4.31,8c-2.4,1.53-5.4,1.4-8.18,1a23.86,23.86,0,0,1-8.23-2.35c-4.56-2.45-7.72-7.12-9.93-12-1.77-3.91-3.06-8-4.63-12A53.17,53.17,0,0,1,107.82,2.8C127,2,141.08,6.51,149.94,17.84Z"/>
            <path class="cls-8" d="M76.35,43.14a12.83,12.83,0,0,1-6.94,7.07,29.22,29.22,0,0,1-9.82,2.2,5.57,5.57,0,0,0-2.65.67,1.89,1.89,0,0,0-.75,2.41c.34.56,1,.78,1.58,1.13,2,1.28,2.19,4.46.86,6.48a9.48,9.48,0,0,1-4.91,3.42C52.94,61.57,53.46,56,54,51a58.62,58.62,0,0,1,7.71-23.41,33.47,33.47,0,0,0,4,1.47,27.28,27.28,0,0,1,6.42,2.3A10.29,10.29,0,0,1,76.35,43.14Z"/>
            <path class="cls-8" d="M162.15,56.76c-.9,0-1.82,0-2.71-.06-4.78-.28-9.86-.9-13.59-4.09-5-4.28-6.13-12.62-3.1-18.67A17.34,17.34,0,0,1,148,27.77c2-1.45,4.93-3.19,7.68-3.39,3.24,6.58,5.33,14.71,6.25,24.53A58.58,58.58,0,0,1,162.15,56.76Z"/>
          </g>
          <g>
            <g>
              <g>
                <ellipse class="cls-20" cx="105.28" cy="87.48" rx="9.9" ry="10.11"/>
                <path class="cls-21" d="M105.28,97.69a10,10,0,0,1-3.89-.73A10.41,10.41,0,0,1,98,94.82a11,11,0,0,1-3.57-7.34,11.3,11.3,0,0,1,2.69-8.2,10.94,10.94,0,0,1,3.65-2.73,11.46,11.46,0,0,1,4.51-1,11.59,11.59,0,0,1,4.5,1,11.22,11.22,0,0,1,3.65,2.73,11.4,11.4,0,0,1,2.69,8.2,11,11,0,0,1-3.57,7.34A10.54,10.54,0,0,1,105.28,97.69Zm0-.2a9.67,9.67,0,0,0,6.94-3,10.1,10.1,0,0,0,0-14,9.61,9.61,0,0,0-13.82,0,10.11,10.11,0,0,0,0,14A9.7,9.7,0,0,0,105.28,97.49Z"/>
              </g>
              <ellipse cx="104.56" cy="85.83" rx="5.99" ry="5.8"/>
              <ellipse class="cls-22" cx="108.08" cy="83.03" rx="1.44" ry="1.4"/>
            </g>
            <g>
              <g>
                <ellipse class="cls-20" cx="142.35" cy="86.69" rx="8.95" ry="10.11"/>
                <path class="cls-21" d="M142.35,96.9a9.19,9.19,0,0,1-6.77-3.07,11.7,11.7,0,0,1-3.14-7.14,11.94,11.94,0,0,1,2.2-7.93A10.28,10.28,0,0,1,138,75.89a9.61,9.61,0,0,1,4.38-1.11,10,10,0,0,1,4.39,1.11,10.38,10.38,0,0,1,3.32,2.88,11.89,11.89,0,0,1,2.19,7.92,11.63,11.63,0,0,1-3.13,7.14A9.18,9.18,0,0,1,142.35,96.9Zm0-.2a8.42,8.42,0,0,0,6.42-3.16,10.88,10.88,0,0,0,0-13.66,8.12,8.12,0,0,0-12.76,0,10.9,10.9,0,0,0,0,13.66A8.41,8.41,0,0,0,142.35,96.7Z"/>
              </g>
              <ellipse cx="140.78" cy="85.36" rx="5.42" ry="5.8"/>
              <ellipse class="cls-22" cx="144.05" cy="83.24" rx="1.3" ry="1.4"/>
            </g>
            <path class="cls-19" d="M112.19,72.79s4.08-3.61-.79-6.75S95.22,67.61,94,73.26A39.5,39.5,0,0,1,112.19,72.79Z"/>
            <path class="cls-19" d="M135.19,72.4s-3.68-3.61.71-6.76,14.59,1.58,15.72,7.23A32.25,32.25,0,0,0,135.19,72.4Z"/>
            <path class="cls-19" d="M118.32,105.78a93.52,93.52,0,0,0-11.94,4.87s-4.72,1.26-5.82-3.45c0,0-3.45,6.91,4.4,9.89s23.25-3.77,23.25-3.77,3.62,3.93,11.79,2.83,9.58-8,6-9.9c0,0-2.36,5-14.46-.31,0,0-4.24-2.67-14-.16"/>
            <path class="cls-19" d="M109.76,117.51a9.08,9.08,0,0,0,3.47,1,33.35,33.35,0,0,0,3.61.29c1.22,0,2.43.06,3.66,0s2.45,0,3.68-.11,2.48-.08,3.71-.16,2.45-.14,3.67-.21a27.79,27.79,0,0,0,3.58-.46,8.08,8.08,0,0,0,1.67-.49,2.65,2.65,0,0,0,.73-.43,1.16,1.16,0,0,0,.47-.66l.2,0a2.06,2.06,0,0,1-1,1.67,7.33,7.33,0,0,1-1.69.93,19.06,19.06,0,0,1-3.69,1,57,57,0,0,1-7.59.83,46.32,46.32,0,0,1-7.63-.33,21.07,21.07,0,0,1-3.74-.85,7.28,7.28,0,0,1-3.3-1.94Z"/>
            <path class="cls-19" d="M117.42,124c1.5.35,2.78.63,4,.82.63.07,1.23.19,1.83.21.3,0,.6.05.89.07h.89a6.61,6.61,0,0,0,.89,0,6.82,6.82,0,0,0,.9-.07l.92-.06a9.25,9.25,0,0,1,.94-.13l.48-.05c.16,0,.32-.07.48-.09l1-.14a18.82,18.82,0,0,1,2.18-.3l.11.17c-.61.35-1.2.74-1.82,1.07a15.94,15.94,0,0,1-1.94.83,12.45,12.45,0,0,1-4.15.77,12.19,12.19,0,0,1-7.77-2.94Z"/>
            <g>
              <path class="cls-23" d="M133.51,73.58l-.25.51a29.76,29.76,0,0,0-.76,23.22c1.75,4.56,3.13,11-2.57,12.24-9,1.89-12.24-5.18-12.24-5.18"/>
              <path class="cls-24" d="M133.6,73.62a36.41,36.41,0,0,0-1.66,12.82,33.36,33.36,0,0,0,.94,6.23c.28,1,.54,2,.9,3s.81,2.07,1.15,3.19a20.31,20.31,0,0,1,.74,3.55,10.56,10.56,0,0,1-.2,3.93,6.19,6.19,0,0,1-2.51,3.6,7.59,7.59,0,0,1-3.83,1.18,13.62,13.62,0,0,1-3.66-.13,11.31,11.31,0,0,1-3.44-1.27,10.18,10.18,0,0,1-4.43-5.31l.18-.08a10.31,10.31,0,0,0,4.7,4.44,11.07,11.07,0,0,0,6.43.79,6.57,6.57,0,0,0,3-1,4.34,4.34,0,0,0,1.69-2.63,13,13,0,0,0-.62-6.45c-.31-1.06-.72-2.08-1.08-3.14s-.65-2.14-.9-3.22a30.39,30.39,0,0,1-.67-6.65,29.61,29.61,0,0,1,3-12.9Z"/>
            </g>
          </g>
          <path class="cls-19" d="M86.58,67s-7.22,5.5-5.5,26.24L77.94,94s-4.71-13-14-8.8c0,0-3.93,2.36-4.56,5.34,0,0-4.39-6.59-2.19-13.51,0,0,9.26-5.18,29.22-10.52"/>
          <path class="cls-19" d="M149,64s8.48,1.57,14.14,6.12l-.47,10.21s-3.61-1.1-6.13,5.5Z"/>
          <path class="cls-25" d="M69.62,70.75l7.54-1.88s2.82,44.45,7.69,58.28,25.77,19.32,35,19.17,25.61-5.66,31.73-27.34.79-54.51.79-54.51l5.18,2.67s2.83,35-3,53.88-20.11,25.45-20.11,25.45,1.57,3.93-3,4.87-17.43,3.77-22.93-1.73A43.69,43.69,0,0,1,90.82,141S82.5,137.83,79,119.61,69.62,70.75,69.62,70.75Z"/>
          <path class="cls-26" d="M55,79.55S74.8,64,128.06,62.74c0,0,22.15-.16,35,7.38,0,0,3,1.1,3.61-4.71s-17.91-16-55.92-14.45S39.45,72.32,55,79.55Z"/>
          <path class="cls-27" d="M61.56,93.35a4.84,4.84,0,0,1,2.15-2.62,3.46,3.46,0,0,1,1.89-.26,6.86,6.86,0,0,1,.91.28,7,7,0,0,1,.81.45c.24.18.49.36.72.55l.61.63c.39.43.71.84,1.06,1.27a17.53,17.53,0,0,1,1.91,2.81,4.53,4.53,0,0,1,.5,1.93,2.42,2.42,0,0,1-.36,1.22,2.63,2.63,0,0,1-.87.78,8.46,8.46,0,0,1-1.62.64,5,5,0,0,0-1.16.65,1.62,1.62,0,0,0-.46,2.18,7.66,7.66,0,0,0,2,2.35l0,.09a7.3,7.3,0,0,1-2.39-2.17,2.35,2.35,0,0,1-.39-1.57,2.42,2.42,0,0,1,.76-1.44,4.62,4.62,0,0,1,1.37-.89,8.4,8.4,0,0,0,1.47-.61,1.37,1.37,0,0,0,.75-1.23,3.51,3.51,0,0,0-.44-1.49A16.12,16.12,0,0,0,69,94.2a12.72,12.72,0,0,0-2.13-2.38,7.48,7.48,0,0,0-.66-.43,5.1,5.1,0,0,0-.74-.28,2.74,2.74,0,0,0-1.55.12,4.92,4.92,0,0,0-2.25,2.17Z"/>
          <g>
            <path class="cls-23" d="M164.35,85.83s-3.77.47-4.4,7.7"/>
            <path class="cls-28" d="M164.35,85.88a7.08,7.08,0,0,0-1.5,1.63,12.85,12.85,0,0,0-1,1.83c-.32.63-.56,1.32-.86,2-.13.35-.3.7-.45,1.07a8.68,8.68,0,0,1-.55,1.1h-.1a20.76,20.76,0,0,1,.33-2.35,11.46,11.46,0,0,1,.73-2.26,6.73,6.73,0,0,1,1.33-2,4.09,4.09,0,0,1,2.05-1.18Z"/>
          </g>
        </g>
        <path class="cls-29" d="M42.09,357.49l-.91,14.11c-10.37,6.59-24.82,4.08-24.82,4.08s-1.17-5.63-2.63-15.34A53.23,53.23,0,0,0,42.09,357.49Z"/>
        <g>
          <path class="cls-7" d="M62.55,427s2.93,35.19-3.77,49c0,0-4.61,5.45-11.31,3.56,0,0-10.06-1.88-13.2-11.31,0,0,6.07-6.28,6.28-28.06,0,0-2.51-13.2,8.38-13.83s-.42,1.05-.42,1.05l8.38,3.14Z"/>
          <path class="cls-27" d="M54.43,438.94c.26,1.69.35,3.39.47,5.1s.06,3.41,0,5.13a78,78,0,0,1-1,10.22,50.07,50.07,0,0,1-2.86,9.93,30.41,30.41,0,0,1-2.45,4.57,18.59,18.59,0,0,1-3.45,3.84l-.07-.08A24.58,24.58,0,0,0,50.37,469a53.63,53.63,0,0,0,2.6-9.82,90.3,90.3,0,0,0,1.19-10.1c.21-3.39.29-6.79.17-10.18Z"/>
          <path class="cls-7" d="M48.51,419s5,9.22,14.87,7.54c0,0-1.46,15.08-11.94,18.85s-15.29-7.33-11.73-15.29S48.51,419,48.51,419Z"/>
          <ellipse class="cls-30" cx="46.94" cy="436.53" rx="2.62" ry="4.08"/>
        </g>
        <g>
          <path class="cls-7" d="M179.64,421.13s-.42,13.2,2.3,33.94,11.52,30.58,11.94,10.26-6.7-41.47-6.7-41.47Z"/>
          <path class="cls-7" d="M179.43,420.3s4.61,0,5.24-3.36c0,0,14.24,12.36,11.31,17.39s-.42,1.05-.42,1.05-10.89,6.7-14.25-2.73S179.43,420.3,179.43,420.3Z"/>
          <ellipse class="cls-30" cx="189.27" cy="427.52" rx="2.62" ry="4.08" transform="translate(-170.65 129.11) rotate(-26.46)"/>
        </g>
      </g>
      <path class="cls-15" d="M114.18,427.84a18.76,18.76,0,0,1,1.49-7.06,25.35,25.35,0,0,1,1.6-3.27c.28-.53.66-1,1-1.53a17.24,17.24,0,0,1,1.07-1.47,35.11,35.11,0,0,1,2.48-2.69c.46-.41,1-.79,1.41-1.18.24-.19.47-.39.72-.57l.77-.49a17.41,17.41,0,0,1,6.7-2.75l.09.18a30.51,30.51,0,0,0-5.79,3.78,14.26,14.26,0,0,0-1.31,1.14c-.41.4-.84.79-1.24,1.2-.78.86-1.57,1.7-2.26,2.62a38.22,38.22,0,0,0-3.84,5.76,35.62,35.62,0,0,0-2.68,6.38Z"/>
      <path class="cls-8" d="M18.34,216.61a11.23,11.23,0,0,1-4.6,11.23c1.14-5.36,2.42-10.42,3.83-15.23C17.7,213.93,18.09,215.36,18.34,216.61Z"/>
      <path class="cls-8" d="M51.54,351.3,44.63,369s2.71,6,10.5,5.11.62-8.95,11.08-1.46S70.13,355.05,56.15,360C56.15,360,58.73,341.27,51.54,351.3Z"/>
      <path class="cls-8" d="M179.69,352.41s-25.45,1.41-17,16c0,0,1.88,5.19,10.37,6.13,0,0-12.73,7.07-3.3,13.2s14.61-4.25,14.61-4.25S189.32,372.18,179.69,352.41Z"/>
      <path class="cls-13" d="M17.14,215.55s.55.74,1.38,2c4.67,7.37,18.13,32.9-10.18,45.72C8.34,263.31,11.48,235,17.14,215.55Z"/>
      <path class="cls-13" d="M22.53,197s2.52,8.8,18.86,11.31c0,0-2.63,14.81-22.37.49C19,208.84,14.36,203.32,22.53,197Z"/>
      <path class="cls-13" d="M197.23,204s-10.06,2.51-11.31,8.17,12.56,3.14,12.56,3.14Z"/>
      <path class="cls-13" d="M200.37,225.32s-11.31,17.59,5.66,36.44Z"/>
    </g>
  </g>
</svg>
