<svg xmlns="http://www.w3.org/2000/svg" xmlns:xlink="http://www.w3.org/1999/xlink" width="1600" height="900" viewBox="0 0 1600 900">
  <defs>
    <style>
      .cls-1 {
        fill: none;
      }

      .cls-2 {
        isolation: isolate;
      }

      .cls-3 {
        clip-path: url(#clip-path);
      }

      .cls-4 {
        fill: #d6f1ff;
      }

      .cls-11, .cls-14, .cls-5 {
        fill: #231f20;
      }

      .cls-5 {
        opacity: 0.2;
      }

      .cls-13, .cls-6, .cls-64 {
        fill: #fff;
      }

      .cls-7 {
        fill: #b9ddf2;
      }

      .cls-8 {
        fill: #dedede;
      }

      .cls-9 {
        fill: #ccc;
      }

      .cls-10 {
        fill: url(#linear-gradient);
      }

      .cls-11 {
        opacity: 0.05;
      }

      .cls-12 {
        fill: url(#linear-gradient-2);
      }

      .cls-13 {
        mix-blend-mode: screen;
      }

      .cls-13, .cls-14 {
        opacity: 0.31;
      }

      .cls-15, .cls-60 {
        opacity: 0.22;
      }

      .cls-16 {
        fill: #7f581f;
      }

      .cls-17 {
        fill: #cc9e7f;
      }

      .cls-18 {
        fill: #f7ccb0;
      }

      .cls-19 {
        fill: #824c11;
      }

      .cls-20 {
        fill: #6c5f84;
      }

      .cls-21 {
        fill: #f0ecef;
      }

      .cls-22 {
        fill: #cabac4;
      }

      .cls-23 {
        fill: #574560;
      }

      .cls-24 {
        fill: #c62d38;
      }

      .cls-25 {
        fill: #b3a0ae;
      }

      .cls-26 {
        fill: #eaeaf1;
      }

      .cls-27 {
        fill: #80708a;
      }

      .cls-28 {
        fill: #69abd2;
      }

      .cls-29 {
        fill: #8b2d28;
      }

      .cls-30 {
        fill: #f1dbd1;
      }

      .cls-31 {
        fill: #d57084;
      }

      .cls-32 {
        fill: #d53e66;
      }

      .cls-33 {
        fill: #6c3e47;
      }

      .cls-34 {
        fill: #7c93b2;
      }

      .cls-35 {
        fill: #ac6c1b;
      }

      .cls-36 {
        fill: #8e223c;
      }

      .cls-37 {
        fill: #bea399;
      }

      .cls-38 {
        fill: #97b2c5;
      }

      .cls-39 {
        fill: #e9e3e8;
      }

      .cls-40 {
        mix-blend-mode: multiply;
      }

      .cls-41 {
        fill: #d9d0d8;
      }

      .cls-42 {
        fill: #7d9dcc;
      }

      .cls-43 {
        fill: #546fb0;
      }

      .cls-44 {
        fill: #99bbde;
      }

      .cls-45 {
        fill: #a7b2c7;
      }

      .cls-46 {
        fill: #8f7589;
      }

      .cls-47 {
        fill: #5b3e56;
      }

      .cls-48 {
        fill: #73566d;
      }

      .cls-49 {
        fill: #c9c2cb;
      }

      .cls-50 {
        fill: #f5f2f4;
      }

      .cls-51 {
        fill: #d7ccd4;
      }

      .cls-52 {
        fill: #faf9fa;
      }

      .cls-53 {
        fill: #b2a9ba;
      }

      .cls-54 {
        fill: #d6d2db;
      }

      .cls-55 {
        fill: #f9dbca;
      }

      .cls-56 {
        opacity: 0.3;
      }

      .cls-57 {
        fill: #ded4db;
      }

      .cls-58 {
        fill: #503955;
      }

      .cls-59 {
        fill: #513107;
      }

      .cls-61 {
        fill: #699;
      }

      .cls-61, .cls-62, .cls-63, .cls-64, .cls-65, .cls-67, .cls-68 {
        fill-rule: evenodd;
      }

      .cls-62, .cls-66 {
        fill: #c7c5c9;
      }

      .cls-63 {
        fill: #624d69;
      }

      .cls-65 {
        fill: #008792;
      }

      .cls-67, .cls-69 {
        fill: #a5a5a5;
      }

      .cls-68 {
        fill: #45344c;
      }

      .cls-70 {
        opacity: 0.7;
      }

      .cls-71 {
        fill: #548bb6;
      }

      .cls-72 {
        fill: #3b0e19;
      }

      .cls-73 {
        fill: #323133;
      }

      .cls-74 {
        fill: #c0bbc5;
      }

      .cls-75 {
        fill: #e9e8ea;
      }

      .cls-76 {
        fill: #3d2a42;
      }

      .cls-77 {
        fill: #1e1d1f;
      }

      .cls-78 {
        fill: #e0dee2;
      }

      .cls-79 {
        fill: #141314;
      }

      .cls-80 {
        fill: #454447;
      }

      .cls-81 {
        fill: #9d7580;
      }

      .cls-82 {
        fill: #cab555;
      }

      .cls-83 {
        fill: #f78d9e;
      }

      .cls-84 {
        fill: #e8e1e6;
      }

      .cls-85 {
        fill: #ced9e4;
      }

      .cls-86 {
        fill: #744c5d;
      }

      .cls-87 {
        fill: #a2843f;
      }

      .cls-88 {
        fill: #ee5e74;
      }

      .cls-89 {
        fill: #cfc2cc;
      }

      .cls-90 {
        fill: #4c384f;
      }

      .cls-91 {
        fill: #67566a;
      }

      .cls-92 {
        fill: #dfd5dc;
      }

      .cls-93 {
        fill: #f2a5ab;
      }

      .cls-94 {
        fill: #e1b887;
      }

      .cls-95 {
        fill: #412139;
      }

      .cls-96 {
        mix-blend-mode: soft-light;
        opacity: 0.72;
        fill: url(#radial-gradient);
      }
    </style>
    <clipPath id="clip-path">
      <rect class="cls-1" width="1600" height="900"/>
    </clipPath>
    <linearGradient id="linear-gradient" x1="805.71" y1="805.22" x2="805.71" y2="642.08" gradientUnits="userSpaceOnUse">
      <stop offset="0" stop-color="#adbec9"/>
      <stop offset="1" stop-color="#80929c"/>
    </linearGradient>
    <linearGradient id="linear-gradient-2" x1="800" y1="570.96" x2="800" y2="174.34" gradientUnits="userSpaceOnUse">
      <stop offset="0" stop-color="#a1f5ff"/>
      <stop offset="1" stop-color="#7db6eb"/>
    </linearGradient>
    <radialGradient id="radial-gradient" cx="840.44" cy="-240.05" r="946.74" gradientTransform="translate(-43.97 50.77) scale(1.02 0.95)" gradientUnits="userSpaceOnUse">
      <stop offset="0" stop-color="#b4cbde"/>
      <stop offset="1" stop-color="#15161a"/>
    </radialGradient>
  </defs>
  <g class="cls-2">
    <g id="Layer_1" data-name="Layer 1">
      <g class="cls-3">
        <g>
          <polygon class="cls-4" points="141.84 536.98 -15.94 536.98 -15.94 567.62 121.16 567.62 141.84 536.98"/>
          <rect class="cls-5" x="-15.94" y="534.75" width="242.49" height="48.49"/>
          <rect class="cls-6" x="-15.94" y="528.44" width="242.49" height="48.49"/>
          <rect class="cls-5" x="-15.94" y="539.99" width="242.49" height="30.64"/>
          <rect class="cls-7" x="-15.94" y="536.98" width="242.49" height="30.64"/>
          <g>
            <rect class="cls-8" x="-15.94" y="-57.33" width="1643.29" height="675.39"/>
            <rect class="cls-9" x="-15.94" y="-13" width="1643.29" height="121.06"/>
            <rect class="cls-8" x="-15.94" y="496.92" width="1643.29" height="186.08"/>
            <rect class="cls-5" x="-30.18" y="641.71" width="1643.29" height="25.67"/>
            <rect class="cls-5" x="226.53" y="534.75" width="1400.82" height="48.49"/>
            <rect class="cls-6" x="224.24" y="528.44" width="1403.12" height="48.49"/>
            <rect class="cls-5" x="224.24" y="539.99" width="1403.12" height="30.64"/>
            <rect class="cls-7" x="221.24" y="536.98" width="1406.12" height="30.64"/>
            <polygon class="cls-4" points="673.17 567.62 791.99 567.62 810.59 536.98 691.77 536.98 673.17 567.62"/>
            <polygon class="cls-4" points="800.94 567.62 896.51 567.62 915.11 536.98 819.53 536.98 800.94 567.62"/>
            <polygon class="cls-4" points="1168.07 567.62 1227.99 567.62 1246.59 536.98 1186.67 536.98 1168.07 567.62"/>
            <polygon class="cls-4" points="1424.19 536.98 1405.59 567.62 1627.35 567.62 1627.35 536.98 1424.19 536.98"/>
            <polygon class="cls-4" points="936.13 567.62 1157.24 567.62 1175.84 536.98 954.73 536.98 936.13 567.62"/>
            <rect class="cls-10" x="-15.94" y="667.47" width="1643.29" height="237.88"/>
            <rect class="cls-11" x="-16.29" y="667.29" width="1643.29" height="237.35"/>
            <g>
              <rect class="cls-6" x="461.98" y="128.79" width="676.05" height="315.76"/>
              <rect class="cls-12" x="474.46" y="140.37" width="651.09" height="292.41"/>
              <rect class="cls-13" x="587.92" y="140.37" width="65.76" height="292.45"/>
              <rect class="cls-13" x="735.46" y="140.37" width="88.19" height="292.54"/>
              <rect class="cls-13" x="666.13" y="140.55" width="25.67" height="292.26"/>
              <rect class="cls-14" x="474.46" y="140.37" width="651.09" height="11.65"/>
            </g>
            <path class="cls-15" d="M1282.78,685.08l25.75,31.46,235.9,1.31-43.91-36.38-216-2.36C1282.18,679.12,1281.05,683,1282.78,685.08Z"/>
            <rect class="cls-16" x="1325.1" y="673.29" width="33.65" height="37.09"/>
            <rect class="cls-16" x="1480.58" y="672.78" width="33.65" height="37.09"/>
            <polygon class="cls-17" points="1307.74 128.17 1281.8 152.27 1282.81 664.82 1307.8 689.35 1307.74 128.17"/>
            <rect class="cls-18" x="1307.74" y="128.17" width="225.74" height="561.18"/>
            <g>
              <rect class="cls-19" x="1434.22" y="408.11" width="75.19" height="74.52"/>
              <g>
                <path class="cls-20" d="M1470.11,410.87a1.92,1.92,0,0,1,1.7,2.08v77.62a1.9,1.9,0,0,1-1.7,2.06h-14.62a1.9,1.9,0,0,1-1.69-2.06V413a1.91,1.91,0,0,1,1.69-2.08Z"/>
                <path class="cls-21" d="M1469.23,462.77a.39.39,0,0,1-.34.42h-12.18a.4.4,0,0,1-.34-.42V414.44a.38.38,0,0,1,.34-.41h12.18a.38.38,0,0,1,.34.41Z"/>
                <g>
                  <path class="cls-22" d="M1467.16,455.27h-8.72a.6.6,0,0,1,0-1.17h8.72a.6.6,0,0,1,0,1.17Z"/>
                  <path class="cls-22" d="M1467.64,444.13a.54.54,0,0,1-.48.58h-8.72a.53.53,0,0,1-.47-.58.54.54,0,0,1,.47-.59h8.72A.55.55,0,0,1,1467.64,444.13Z"/>
                  <path class="cls-22" d="M1467.64,433.57a.55.55,0,0,1-.48.59h-8.72a.54.54,0,0,1-.47-.59.53.53,0,0,1,.47-.58h8.72A.54.54,0,0,1,1467.64,433.57Z"/>
                  <path class="cls-22" d="M1467.64,423a.54.54,0,0,1-.48.58h-8.72a.6.6,0,0,1,0-1.17h8.72A.54.54,0,0,1,1467.64,423Z"/>
                </g>
                <path class="cls-23" d="M1462.8,476.56c2.07,0,3.74,2.05,3.74,4.58s-1.67,4.58-3.74,4.58-3.74-2.05-3.74-4.58S1460.73,476.56,1462.8,476.56Z"/>
              </g>
              <g>
                <path class="cls-24" d="M1452.12,410.7a1.92,1.92,0,0,1,1.7,2.08v77.61a1.91,1.91,0,0,1-1.7,2.07h-14.61a1.91,1.91,0,0,1-1.7-2.07V412.78a1.92,1.92,0,0,1,1.7-2.08Z"/>
                <path class="cls-21" d="M1451.25,462.59a.39.39,0,0,1-.34.42h-12.18a.39.39,0,0,1-.34-.42V414.27a.39.39,0,0,1,.34-.42h12.18a.39.39,0,0,1,.34.42Z"/>
                <g>
                  <path class="cls-22" d="M1449.17,455.1h-8.71a.6.6,0,0,1,0-1.17h8.71a.6.6,0,0,1,0,1.17Z"/>
                  <path class="cls-22" d="M1449.65,444a.53.53,0,0,1-.48.58h-8.71a.54.54,0,0,1-.48-.58.55.55,0,0,1,.48-.59h8.71A.54.54,0,0,1,1449.65,444Z"/>
                  <path class="cls-22" d="M1449.65,433.4a.54.54,0,0,1-.48.59h-8.71a.55.55,0,0,1-.48-.59.54.54,0,0,1,.48-.58h8.71A.53.53,0,0,1,1449.65,433.4Z"/>
                  <path class="cls-22" d="M1449.65,422.85a.53.53,0,0,1-.48.58h-8.71a.6.6,0,0,1,0-1.17h8.71A.54.54,0,0,1,1449.65,422.85Z"/>
                </g>
                <path class="cls-23" d="M1444.82,476.39c2.06,0,3.74,2.05,3.74,4.58s-1.68,4.58-3.74,4.58-3.74-2.06-3.74-4.58S1442.75,476.39,1444.82,476.39Z"/>
              </g>
              <g>
                <path class="cls-25" d="M1487,409.87a1.66,1.66,0,0,1,2.12,1.38l18.52,74.22a2.19,2.19,0,0,1-1.13,2.59l-14,5.23a1.66,1.66,0,0,1-2.12-1.37l-18.52-74.22a2.19,2.19,0,0,1,1.13-2.6Z"/>
                <path class="cls-21" d="M1498.51,459.81a.45.45,0,0,1-.23.52l-11.65,4.36a.33.33,0,0,1-.42-.27l-11.53-46.21a.45.45,0,0,1,.22-.53l11.65-4.36a.33.33,0,0,1,.43.28Z"/>
                <g>
                  <path class="cls-22" d="M1494.74,453.38l-8.34,3.12a.45.45,0,0,1-.59-.38.61.61,0,0,1,.31-.73l8.34-3.13a.46.46,0,0,1,.59.39A.61.61,0,0,1,1494.74,453.38Z"/>
                  <path class="cls-22" d="M1492.53,442.56a.61.61,0,0,1-.31.73l-8.34,3.12a.46.46,0,0,1-.59-.39.61.61,0,0,1,.31-.73l8.34-3.12A.46.46,0,0,1,1492.53,442.56Z"/>
                  <path class="cls-22" d="M1490,432.46a.61.61,0,0,1-.31.73l-8.34,3.12a.46.46,0,0,1-.59-.38.6.6,0,0,1,.32-.73l8.33-3.13A.46.46,0,0,1,1490,432.46Z"/>
                  <path class="cls-22" d="M1487.5,422.37a.63.63,0,0,1-.32.73l-8.33,3.12a.47.47,0,0,1-.6-.39.61.61,0,0,1,.32-.73l8.33-3.12A.48.48,0,0,1,1487.5,422.37Z"/>
                </g>
                <path class="cls-23" d="M1495.65,475.31c2-.75,4.06.61,4.67,3s-.51,5-2.49,5.72-4.06-.63-4.66-3S1493.67,476.05,1495.65,475.31Z"/>
              </g>
              <rect class="cls-19" x="1332.2" y="498.97" width="75.2" height="77.04"/>
              <rect class="cls-19" x="1332.2" y="582.54" width="75.2" height="75.67"/>
              <rect class="cls-19" x="1332.2" y="163.18" width="75.2" height="54.34"/>
              <rect class="cls-19" x="1332.2" y="224.06" width="75.2" height="83.85"/>
              <rect class="cls-19" x="1332.2" y="314.45" width="75.2" height="87.12"/>
              <rect class="cls-19" x="1332.2" y="408.11" width="75.2" height="74.52"/>
              <rect class="cls-19" x="1434.22" y="582.54" width="75.19" height="75.67"/>
              <rect class="cls-26" x="1332.2" y="217.52" width="75.2" height="6.54"/>
              <rect class="cls-26" x="1332.2" y="307.91" width="75.2" height="6.54"/>
              <rect class="cls-26" x="1332.2" y="401.57" width="75.2" height="6.54"/>
              <rect class="cls-26" x="1332.2" y="576.01" width="75.2" height="6.54"/>
              <g>
                <path class="cls-27" d="M1470.11,586.54a1.91,1.91,0,0,1,1.7,2.08v77.61a1.91,1.91,0,0,1-1.7,2.07h-14.62a1.91,1.91,0,0,1-1.69-2.07V588.62a1.9,1.9,0,0,1,1.69-2.08Z"/>
                <path class="cls-21" d="M1469.23,638.43a.39.39,0,0,1-.34.42h-12.18a.4.4,0,0,1-.34-.42V590.11a.39.39,0,0,1,.34-.42h12.18a.38.38,0,0,1,.34.42Z"/>
                <g>
                  <path class="cls-22" d="M1467.16,630.94h-8.72a.54.54,0,0,1-.47-.59.53.53,0,0,1,.47-.58h8.72a.54.54,0,0,1,.48.58A.55.55,0,0,1,1467.16,630.94Z"/>
                  <path class="cls-22" d="M1467.64,619.79a.54.54,0,0,1-.48.59h-8.72a.6.6,0,0,1,0-1.17h8.72A.54.54,0,0,1,1467.64,619.79Z"/>
                  <path class="cls-22" d="M1467.64,609.24a.54.54,0,0,1-.48.58h-8.72a.53.53,0,0,1-.47-.58.54.54,0,0,1,.47-.59h8.72A.55.55,0,0,1,1467.64,609.24Z"/>
                  <path class="cls-22" d="M1467.64,598.68a.54.54,0,0,1-.48.59h-8.72a.6.6,0,0,1,0-1.17h8.72A.54.54,0,0,1,1467.64,598.68Z"/>
                </g>
                <path class="cls-23" d="M1462.8,652.23c2.07,0,3.74,2,3.74,4.58s-1.67,4.58-3.74,4.58-3.74-2.06-3.74-4.58S1460.73,652.23,1462.8,652.23Z"/>
              </g>
              <g>
                <path class="cls-24" d="M1452.12,586.36a1.92,1.92,0,0,1,1.7,2.08v77.62a1.91,1.91,0,0,1-1.7,2.07h-14.61a1.91,1.91,0,0,1-1.7-2.07V588.44a1.92,1.92,0,0,1,1.7-2.08Z"/>
                <path class="cls-21" d="M1451.25,638.26a.39.39,0,0,1-.34.42h-12.18a.4.4,0,0,1-.34-.42V589.94a.39.39,0,0,1,.34-.42h12.18a.38.38,0,0,1,.34.42Z"/>
                <g>
                  <path class="cls-22" d="M1449.17,630.76h-8.71a.6.6,0,0,1,0-1.17h8.71a.6.6,0,0,1,0,1.17Z"/>
                  <path class="cls-22" d="M1449.65,619.62a.54.54,0,0,1-.48.59h-8.71a.6.6,0,0,1,0-1.17h8.71A.53.53,0,0,1,1449.65,619.62Z"/>
                  <path class="cls-22" d="M1449.65,609.06a.54.54,0,0,1-.48.59h-8.71a.6.6,0,0,1,0-1.17h8.71A.53.53,0,0,1,1449.65,609.06Z"/>
                  <path class="cls-22" d="M1449.65,598.51a.53.53,0,0,1-.48.58h-8.71a.54.54,0,0,1-.48-.58.53.53,0,0,1,.48-.58h8.71A.53.53,0,0,1,1449.65,598.51Z"/>
                </g>
                <path class="cls-23" d="M1444.82,652.05c2.06,0,3.74,2.05,3.74,4.59s-1.68,4.58-3.74,4.58-3.74-2.06-3.74-4.58S1442.75,652.05,1444.82,652.05Z"/>
              </g>
              <g>
                <path class="cls-28" d="M1488.12,586.36a1.92,1.92,0,0,1,1.7,2.08v77.62a1.91,1.91,0,0,1-1.7,2.07H1473.5a1.91,1.91,0,0,1-1.69-2.07V588.44a1.91,1.91,0,0,1,1.69-2.08Z"/>
                <path class="cls-21" d="M1487.24,638.26a.39.39,0,0,1-.34.42h-12.18a.4.4,0,0,1-.34-.42V589.94a.39.39,0,0,1,.34-.42h12.18a.38.38,0,0,1,.34.42Z"/>
                <g>
                  <path class="cls-22" d="M1485.17,630.76h-8.72a.6.6,0,0,1,0-1.17h8.72a.6.6,0,0,1,0,1.17Z"/>
                  <path class="cls-22" d="M1485.65,619.62a.54.54,0,0,1-.48.59h-8.72a.6.6,0,0,1,0-1.17h8.72A.54.54,0,0,1,1485.65,619.62Z"/>
                  <path class="cls-22" d="M1485.65,609.06a.54.54,0,0,1-.48.59h-8.72a.6.6,0,0,1,0-1.17h8.72A.54.54,0,0,1,1485.65,609.06Z"/>
                  <path class="cls-22" d="M1485.65,598.51a.54.54,0,0,1-.48.58h-8.72a.53.53,0,0,1-.47-.58.53.53,0,0,1,.47-.58h8.72A.53.53,0,0,1,1485.65,598.51Z"/>
                </g>
                <path class="cls-23" d="M1480.81,652.05c2.07,0,3.74,2.05,3.74,4.59s-1.67,4.58-3.74,4.58-3.74-2.06-3.74-4.58S1478.74,652.05,1480.81,652.05Z"/>
              </g>
              <rect class="cls-19" x="1434.22" y="314.45" width="75.19" height="87.12"/>
              <rect class="cls-19" x="1434.22" y="224.06" width="75.19" height="83.85"/>
              <rect class="cls-19" x="1434.22" y="163.18" width="75.19" height="54.34"/>
              <rect class="cls-19" x="1434.22" y="498.97" width="75.19" height="77.04"/>
              <rect class="cls-26" x="1434.22" y="217.52" width="75.19" height="6.54"/>
              <rect class="cls-26" x="1434.22" y="307.91" width="75.19" height="6.54"/>
              <rect class="cls-26" x="1434.22" y="401.57" width="75.19" height="6.54"/>
              <rect class="cls-26" x="1434.22" y="576.01" width="75.19" height="6.54"/>
              <g>
                <polygon class="cls-29" points="1440.69 246.34 1440.69 240.94 1434.22 240.94 1434.22 307.92 1440.69 307.92 1440.69 246.34"/>
                <rect class="cls-30" x="1440.69" y="246.34" width="7.13" height="61.58"/>
                <rect class="cls-31" x="1447.82" y="246.34" width="5.13" height="61.58"/>
                <polygon class="cls-20" points="1460.22 307.92 1460.22 242.02 1460.22 235.54 1452.95 235.54 1452.95 246.34 1452.95 307.92 1460.22 307.92"/>
                <rect class="cls-28" x="1460.23" y="242.02" width="8.13" height="65.9"/>
                <polygon class="cls-24" points="1473.06 307.92 1473.06 243.75 1473.06 242.02 1468.35 242.02 1468.35 307.92 1473.06 307.92"/>
                <polygon class="cls-25" points="1481.46 307.92 1481.46 247.42 1481.46 243.75 1473.06 243.75 1473.06 307.92 1481.46 307.92"/>
                <rect class="cls-32" x="1481.46" y="247.42" width="6.7" height="60.49"/>
                <polygon class="cls-33" points="1491.87 307.92 1491.87 242.67 1488.17 242.67 1488.17 247.42 1488.17 307.92 1491.87 307.92"/>
                <polygon class="cls-34" points="1499.57 307.92 1499.57 239.43 1499.57 236.83 1491.87 236.83 1491.87 242.67 1491.87 307.92 1499.57 307.92"/>
                <rect class="cls-33" x="1499.57" y="239.43" width="6.42" height="68.49"/>
                <polygon class="cls-24" points="1509.42 307.92 1509.42 235.54 1505.99 235.54 1505.99 239.43 1505.99 307.92 1509.42 307.92"/>
                <path class="cls-24" d="M1507.73,508.62a1.21,1.21,0,0,0-1.07,1.31V574.7a1.21,1.21,0,0,0,1.07,1.31h1.69V508.62Z"/>
                <path class="cls-32" d="M1505.59,511.91h-3.53a1.21,1.21,0,0,0-1.07,1.31V574.7a1.21,1.21,0,0,0,1.07,1.31h3.53a1.21,1.21,0,0,0,1.07-1.31V513.22A1.21,1.21,0,0,0,1505.59,511.91Z"/>
                <path class="cls-34" d="M1470.26,499.45a1.51,1.51,0,0,0-.08-.48h-5.51a1.85,1.85,0,0,0-.08.48V574.7a1.21,1.21,0,0,0,1.07,1.31h3.53a1.21,1.21,0,0,0,1.07-1.31V499.45Z"/>
                <path class="cls-35" d="M1499.92,513.62h-8.3a1.2,1.2,0,0,0-1.07,1.31V574.7a1.21,1.21,0,0,0,1.07,1.31h8.3a1.21,1.21,0,0,0,1.07-1.31V514.93A1.2,1.2,0,0,0,1499.92,513.62Z"/>
                <path class="cls-20" d="M1490.55,501.28a1.21,1.21,0,0,0-1.07-1.31h-10.09a1.21,1.21,0,0,0-1.07,1.31V574.7a1.21,1.21,0,0,0,1.07,1.31h10.09a1.21,1.21,0,0,0,1.07-1.31V501.28Z"/>
                <path class="cls-36" d="M1477.25,505.58h-5.92a1.2,1.2,0,0,0-1.07,1.31V574.7a1.21,1.21,0,0,0,1.07,1.31h5.92a1.21,1.21,0,0,0,1.07-1.31V506.89A1.2,1.2,0,0,0,1477.25,505.58Z"/>
                <path class="cls-37" d="M1464.59,499h-12.43V574.7a1.21,1.21,0,0,0,1.07,1.31h10.3a1.2,1.2,0,0,0,1.06-1.31V499Z"/>
                <path class="cls-38" d="M1451.09,513.37h-15.16a1.21,1.21,0,0,0-1.07,1.31v60a1.21,1.21,0,0,0,1.07,1.31h15.16a1.21,1.21,0,0,0,1.07-1.31v-60A1.21,1.21,0,0,0,1451.09,513.37Z"/>
              </g>
              <g>
                <polygon class="cls-20" points="1509.44 208.62 1443.91 208.62 1437.46 208.62 1437.46 217.52 1448.2 217.52 1509.44 217.52 1509.44 208.62"/>
                <rect class="cls-28" x="1442.65" y="198.66" width="66.8" height="9.96"/>
                <polygon class="cls-24" points="1509.44 192.9 1450.2 192.9 1448.6 192.9 1448.6 198.66 1509.44 198.66 1509.44 192.9"/>
                <polygon class="cls-25" points="1509.44 182.59 1444.63 182.59 1440.69 182.59 1440.69 192.9 1509.44 192.9 1509.44 182.59"/>
                <rect class="cls-32" x="1446.02" y="174.38" width="63.42" height="8.21"/>
              </g>
              <g>
                <path class="cls-20" d="M1470.11,320a1.92,1.92,0,0,1,1.7,2.08v77.62a1.91,1.91,0,0,1-1.7,2.07h-14.62a1.91,1.91,0,0,1-1.69-2.07V322.06a1.91,1.91,0,0,1,1.69-2.08Z"/>
                <path class="cls-21" d="M1469.23,371.88a.39.39,0,0,1-.34.42h-12.18a.4.4,0,0,1-.34-.42V323.56a.39.39,0,0,1,.34-.42h12.18a.38.38,0,0,1,.34.42Z"/>
                <g>
                  <path class="cls-22" d="M1467.16,364.38h-8.72a.6.6,0,0,1,0-1.17h8.72a.6.6,0,0,1,0,1.17Z"/>
                  <path class="cls-22" d="M1467.64,353.24a.54.54,0,0,1-.48.59h-8.72a.6.6,0,0,1,0-1.17h8.72A.54.54,0,0,1,1467.64,353.24Z"/>
                  <path class="cls-22" d="M1467.64,342.68a.54.54,0,0,1-.48.59h-8.72a.6.6,0,0,1,0-1.17h8.72A.54.54,0,0,1,1467.64,342.68Z"/>
                  <path class="cls-22" d="M1467.64,332.13a.54.54,0,0,1-.48.58h-8.72a.6.6,0,0,1,0-1.17h8.72A.54.54,0,0,1,1467.64,332.13Z"/>
                </g>
                <path class="cls-23" d="M1462.8,385.67c2.07,0,3.74,2.05,3.74,4.59s-1.67,4.58-3.74,4.58-3.74-2.06-3.74-4.58S1460.73,385.67,1462.8,385.67Z"/>
              </g>
              <g>
                <path class="cls-24" d="M1452.12,319.81a1.92,1.92,0,0,1,1.7,2.08v77.62a1.9,1.9,0,0,1-1.7,2.06h-14.61a1.9,1.9,0,0,1-1.7-2.06V321.89a1.92,1.92,0,0,1,1.7-2.08Z"/>
                <path class="cls-21" d="M1451.25,371.71a.39.39,0,0,1-.34.42h-12.18a.4.4,0,0,1-.34-.42V323.38a.39.39,0,0,1,.34-.42h12.18a.39.39,0,0,1,.34.42Z"/>
                <g>
                  <path class="cls-22" d="M1449.17,364.21h-8.71a.6.6,0,0,1,0-1.17h8.71a.6.6,0,0,1,0,1.17Z"/>
                  <path class="cls-22" d="M1449.65,353.07a.53.53,0,0,1-.48.58h-8.71a.54.54,0,0,1-.48-.58.55.55,0,0,1,.48-.59h8.71A.54.54,0,0,1,1449.65,353.07Z"/>
                  <path class="cls-22" d="M1449.65,342.51a.54.54,0,0,1-.48.59h-8.71a.55.55,0,0,1-.48-.59.54.54,0,0,1,.48-.58h8.71A.53.53,0,0,1,1449.65,342.51Z"/>
                  <path class="cls-22" d="M1449.65,332a.53.53,0,0,1-.48.58h-8.71a.6.6,0,0,1,0-1.17h8.71A.54.54,0,0,1,1449.65,332Z"/>
                </g>
                <path class="cls-23" d="M1444.82,385.5c2.06,0,3.74,2.05,3.74,4.58s-1.68,4.58-3.74,4.58-3.74-2.05-3.74-4.58S1442.75,385.5,1444.82,385.5Z"/>
              </g>
              <g>
                <path class="cls-28" d="M1488.12,319.81a1.92,1.92,0,0,1,1.7,2.08v77.62a1.9,1.9,0,0,1-1.7,2.06H1473.5a1.9,1.9,0,0,1-1.69-2.06V321.89a1.91,1.91,0,0,1,1.69-2.08Z"/>
                <path class="cls-21" d="M1487.24,371.71a.39.39,0,0,1-.34.42h-12.18a.4.4,0,0,1-.34-.42V323.38a.39.39,0,0,1,.34-.42h12.18a.39.39,0,0,1,.34.42Z"/>
                <g>
                  <path class="cls-22" d="M1485.17,364.21h-8.72a.6.6,0,0,1,0-1.17h8.72a.6.6,0,0,1,0,1.17Z"/>
                  <path class="cls-22" d="M1485.65,353.07a.54.54,0,0,1-.48.58h-8.72a.53.53,0,0,1-.47-.58.54.54,0,0,1,.47-.59h8.72A.55.55,0,0,1,1485.65,353.07Z"/>
                  <path class="cls-22" d="M1485.65,342.51a.55.55,0,0,1-.48.59h-8.72a.54.54,0,0,1-.47-.59.53.53,0,0,1,.47-.58h8.72A.54.54,0,0,1,1485.65,342.51Z"/>
                  <path class="cls-22" d="M1485.65,332a.54.54,0,0,1-.48.58h-8.72a.6.6,0,0,1,0-1.17h8.72A.54.54,0,0,1,1485.65,332Z"/>
                </g>
                <path class="cls-23" d="M1480.81,385.5c2.07,0,3.74,2.05,3.74,4.58s-1.67,4.58-3.74,4.58-3.74-2.05-3.74-4.58S1478.74,385.5,1480.81,385.5Z"/>
              </g>
              <g>
                <path class="cls-25" d="M1506.13,319.81a1.92,1.92,0,0,1,1.7,2.08v77.62a1.9,1.9,0,0,1-1.7,2.06h-14.62a1.9,1.9,0,0,1-1.69-2.06V321.89a1.91,1.91,0,0,1,1.69-2.08Z"/>
                <path class="cls-21" d="M1505.25,371.71a.39.39,0,0,1-.34.42h-12.18a.4.4,0,0,1-.34-.42V323.38a.39.39,0,0,1,.34-.42h12.18a.39.39,0,0,1,.34.42Z"/>
                <g>
                  <path class="cls-22" d="M1503.18,364.21h-8.72a.6.6,0,0,1,0-1.17h8.72a.6.6,0,0,1,0,1.17Z"/>
                  <path class="cls-22" d="M1503.66,353.07a.54.54,0,0,1-.48.58h-8.72a.53.53,0,0,1-.47-.58.54.54,0,0,1,.47-.59h8.72A.55.55,0,0,1,1503.66,353.07Z"/>
                  <path class="cls-22" d="M1503.66,342.51a.55.55,0,0,1-.48.59h-8.72a.54.54,0,0,1-.47-.59.53.53,0,0,1,.47-.58h8.72A.54.54,0,0,1,1503.66,342.51Z"/>
                  <path class="cls-22" d="M1503.66,332a.54.54,0,0,1-.48.58h-8.72a.6.6,0,0,1,0-1.17h8.72A.54.54,0,0,1,1503.66,332Z"/>
                </g>
                <path class="cls-23" d="M1498.82,385.5c2.07,0,3.74,2.05,3.74,4.58s-1.67,4.58-3.74,4.58-3.74-2.05-3.74-4.58S1496.75,385.5,1498.82,385.5Z"/>
              </g>
              <g>
                <path class="cls-39" d="M1362,282.73a5.21,5.21,0,0,1,1.59-2.78l.4-.35a3.12,3.12,0,0,0,1-1.9l.08-.55h9.44l.08.55a3.07,3.07,0,0,0,1,1.9l.4.35a5.21,5.21,0,0,1,1.59,2.78,9.61,9.61,0,0,1,.23,2.08v19.24c0,2.14-1.41,3.86-3.15,3.86H1365c-1.74,0-3.15-1.72-3.15-3.86V284.81A9.61,9.61,0,0,1,1362,282.73Z"/>
                <g>
                  <g class="cls-40">
                    <path class="cls-41" d="M1377.44,305.81a3.14,3.14,0,0,1-2.79,2.1H1365a3.14,3.14,0,0,1-2.79-2.1Z"/>
                  </g>
                  <g class="cls-40">
                    <path class="cls-41" d="M1375,278.92h-10.47a3.3,3.3,0,0,0,.44-1.22l.08-.55h9.44l.08.55A3.47,3.47,0,0,0,1375,278.92Z"/>
                  </g>
                </g>
                <rect class="cls-42" x="1361.8" y="286.1" width="16" height="14.55"/>
                <rect class="cls-43" x="1365.08" y="273.24" width="9.44" height="1.78"/>
                <path class="cls-44" d="M1373.39,272.17h3.38a.5.5,0,0,1,.44.53h0a.5.5,0,0,1-.44.54h-3.38a.49.49,0,0,1-.43-.54h0A.49.49,0,0,1,1373.39,272.17Z"/>
                <path class="cls-42" d="M1364.92,277.15h9.76a1,1,0,0,0,.91-1.11v-.74a.26.26,0,0,0-.24-.28h-11.11a.26.26,0,0,0-.23.28V276A1,1,0,0,0,1364.92,277.15Z"/>
                <path class="cls-42" d="M1364.24,273.24h11.11a.27.27,0,0,0,.24-.29v-.74a1,1,0,0,0-.91-1.11h-9.76a1,1,0,0,0-.91,1.11V273A.27.27,0,0,0,1364.24,273.24Z"/>
                <path class="cls-44" d="M1363.5,276.45h2.55a.35.35,0,0,0,.3-.37.34.34,0,0,0-.3-.36h-2.55a1,1,0,0,1-.84-1v-1.13a1,1,0,0,1,.84-1h2.55a.37.37,0,0,0,0-.72h-2.55a1.62,1.62,0,0,0-1.43,1.75v1.13A1.63,1.63,0,0,0,1363.5,276.45Z"/>
              </g>
              <g>
                <path class="cls-39" d="M1342.2,282.73a5.21,5.21,0,0,1,1.59-2.78l.4-.35a3.07,3.07,0,0,0,1-1.9l.08-.55h9.44l.08.55a3.18,3.18,0,0,0,1,1.9l.4.35a5.21,5.21,0,0,1,1.59,2.78,9.61,9.61,0,0,1,.23,2.08v19.24c0,2.14-1.41,3.86-3.15,3.86h-9.7c-1.74,0-3.15-1.72-3.15-3.86V284.81A9.61,9.61,0,0,1,1342.2,282.73Z"/>
                <g>
                  <g class="cls-40">
                    <path class="cls-41" d="M1357.61,305.81a3.14,3.14,0,0,1-2.79,2.1h-9.7a3.14,3.14,0,0,1-2.79-2.1Z"/>
                  </g>
                  <g class="cls-40">
                    <path class="cls-41" d="M1355.21,278.92h-10.47a3.29,3.29,0,0,0,.43-1.22l.08-.55h9.44l.08.55A3.3,3.3,0,0,0,1355.21,278.92Z"/>
                  </g>
                </g>
                <rect class="cls-42" x="1341.97" y="286.1" width="16" height="14.54"/>
                <rect class="cls-43" x="1345.25" y="273.24" width="9.44" height="1.78"/>
                <path class="cls-44" d="M1353.57,272.17H1357a.49.49,0,0,1,.43.53h0a.49.49,0,0,1-.43.54h-3.38a.5.5,0,0,1-.44-.54h0A.5.5,0,0,1,1353.57,272.17Z"/>
                <path class="cls-42" d="M1345.09,277.15h9.76a1,1,0,0,0,.91-1.11v-.74a.25.25,0,0,0-.23-.28h-11.11a.26.26,0,0,0-.24.28V276A1,1,0,0,0,1345.09,277.15Z"/>
                <path class="cls-42" d="M1344.42,273.24h11.11a.26.26,0,0,0,.23-.29v-.74a1,1,0,0,0-.91-1.11h-9.76a1,1,0,0,0-.91,1.11V273A.27.27,0,0,0,1344.42,273.24Z"/>
                <path class="cls-44" d="M1343.68,276.45h2.54a.34.34,0,0,0,.3-.37.33.33,0,0,0-.3-.36h-2.54a.94.94,0,0,1-.84-1v-1.13a.94.94,0,0,1,.84-1h2.54a.37.37,0,0,0,0-.72h-2.54a1.61,1.61,0,0,0-1.43,1.75v1.13A1.62,1.62,0,0,0,1343.68,276.45Z"/>
              </g>
              <g>
                <path class="cls-45" d="M1384.58,275.94a2.18,2.18,0,0,0,1.92-2.37v-1.68h12.43v1.68a2.19,2.19,0,0,0,1.93,2.37c1.63,0,3,1.61,3,3.61V304.3c0,2-1.32,3.61-3,3.61h-16.28c-1.63,0-2.95-1.61-2.95-3.61V279.55C1381.63,277.55,1383,275.94,1384.58,275.94Z"/>
                <g>
                  <g class="cls-40">
                    <path class="cls-41" d="M1399.47,275.2H1386a2.62,2.62,0,0,0,.54-1.63v-1.68h12.43v1.68A2.68,2.68,0,0,0,1399.47,275.2Z"/>
                  </g>
                  <g class="cls-40">
                    <path class="cls-41" d="M1400.86,307.91h-16.28c-1.63,0-2.95-1.61-2.95-3.61h22.18C1403.81,306.3,1402.49,307.91,1400.86,307.91Z"/>
                  </g>
                </g>
                <path class="cls-39" d="M1387.55,299.62h16.26v-18h-16.26a1.7,1.7,0,0,0-1.51,1.85v14.31A1.7,1.7,0,0,0,1387.55,299.62Z"/>
                <path class="cls-46" d="M1385.35,258.41h14.74a1.86,1.86,0,0,1,1.65,2h-18A1.86,1.86,0,0,1,1385.35,258.41Z"/>
                <path class="cls-47" d="M1385.35,271.89a1.86,1.86,0,0,1-1.65-2h18a1.86,1.86,0,0,1-1.65,2h-14.74Z"/>
                <path class="cls-48" d="M1383.62,269.87a1.28,1.28,0,0,1-1.13-1.38v-6.68a1.28,1.28,0,0,1,1.13-1.38h18.2a1.27,1.27,0,0,1,1.12,1.38v6.68a1.27,1.27,0,0,1-1.12,1.38h-18.2Z"/>
              </g>
              <g>
                <path class="cls-49" d="M1343.76,383.05a3.35,3.35,0,0,1-.7-2.09h-5.91a3.36,3.36,0,0,1-.71,2.09,6,6,0,0,0-1.27,3.76v12.27a2.29,2.29,0,0,0,2,2.49h5.8a2.29,2.29,0,0,0,2-2.49V386.81A6,6,0,0,0,1343.76,383.05Z"/>
                <g>
                  <g class="cls-40">
                    <path class="cls-41" d="M1343.37,382.38a3.42,3.42,0,0,1-.31-1.42h-5.91a3.59,3.59,0,0,1-.31,1.42Z"/>
                  </g>
                  <g class="cls-40">
                    <path class="cls-41" d="M1337.2,401.57h5.8a2.29,2.29,0,0,0,2-2.49h-9.86A2.29,2.29,0,0,0,1337.2,401.57Z"/>
                  </g>
                </g>
                <path class="cls-50" d="M1345,387.52h-6a1.22,1.22,0,0,0-1.08,1.32v6.57a1.23,1.23,0,0,0,1.08,1.33h6Z"/>
                <path class="cls-39" d="M1343.65,373.53a.91.91,0,0,0-.31-.72l-1.31-1.12a.89.89,0,0,1-.3-.61l-.43-5.73a.77.77,0,0,0-.69-.78h-1.08a.71.71,0,0,0-.63.7l-.43,5.81a.89.89,0,0,1-.3.61l-1.31,1.12a.91.91,0,0,0-.31.72v4.21h7.1Z"/>
                <path class="cls-50" d="M1343.76,377.74h-7.32a.43.43,0,0,0-.37.46.42.42,0,0,0,.37.45h7.32a.42.42,0,0,0,.37-.45A.43.43,0,0,0,1343.76,377.74Z"/>
                <path class="cls-50" d="M1343.76,379.35h-7.32a.42.42,0,0,0-.37.45v.7a.43.43,0,0,0,.37.46h7.32a.43.43,0,0,0,.37-.46v-.7A.42.42,0,0,0,1343.76,379.35Z"/>
                <path class="cls-51" d="M1336.55,378.65v.7h7.1v-.7Z"/>
              </g>
              <g>
                <path class="cls-49" d="M1357.92,383.05a3.36,3.36,0,0,1-.71-2.09h-5.91a3.35,3.35,0,0,1-.7,2.09,6,6,0,0,0-1.28,3.76v12.27a2.3,2.3,0,0,0,2,2.49h5.8a2.29,2.29,0,0,0,2-2.49V386.81A6,6,0,0,0,1357.92,383.05Z"/>
                <g>
                  <g class="cls-40">
                    <path class="cls-41" d="M1357.52,382.38a3.59,3.59,0,0,1-.31-1.42h-5.91a3.42,3.42,0,0,1-.31,1.42Z"/>
                  </g>
                  <g class="cls-40">
                    <path class="cls-41" d="M1351.36,401.57h5.8a2.29,2.29,0,0,0,2-2.49h-9.87A2.3,2.3,0,0,0,1351.36,401.57Z"/>
                  </g>
                </g>
                <path class="cls-50" d="M1359.19,387.52h-6a1.22,1.22,0,0,0-1.08,1.32v6.57a1.23,1.23,0,0,0,1.08,1.33h6Z"/>
                <path class="cls-39" d="M1357.81,373.53a.91.91,0,0,0-.31-.72l-1.31-1.12a.89.89,0,0,1-.3-.61l-.43-5.73a.77.77,0,0,0-.69-.78h-1.08a.7.7,0,0,0-.63.7l-.43,5.81a.94.94,0,0,1-.3.61l-1.32,1.12a.94.94,0,0,0-.3.72v4.21h7.1Z"/>
                <path class="cls-50" d="M1357.92,377.74h-7.32a.43.43,0,0,0-.37.46.42.42,0,0,0,.37.45h7.32a.42.42,0,0,0,.37-.45A.43.43,0,0,0,1357.92,377.74Z"/>
                <path class="cls-50" d="M1357.92,379.35h-7.32a.42.42,0,0,0-.37.45v.7a.43.43,0,0,0,.37.46h7.32a.43.43,0,0,0,.37-.46v-.7A.42.42,0,0,0,1357.92,379.35Z"/>
                <path class="cls-51" d="M1350.71,378.65v.7h7.1v-.7Z"/>
              </g>
              <g>
                <path class="cls-39" d="M1366,531.39H1385a.45.45,0,0,0,.4-.49v-1.27a1.77,1.77,0,0,0-1.56-1.91h-16.74a1.77,1.77,0,0,0-1.56,1.91v1.27A.45.45,0,0,0,1366,531.39Z"/>
                <path class="cls-52" d="M1381.53,529.88h4.68a.7.7,0,0,1,.62.76h0a.7.7,0,0,1-.62.75h-4.68a.7.7,0,0,1-.62-.75h0A.7.7,0,0,1,1381.53,529.88Z"/>
                <path class="cls-24" d="M1366.16,535.15a6,6,0,0,0,.54-2.51v-1.25h17.58v1.25a5.93,5.93,0,0,0,.54,2.51,6.72,6.72,0,0,1,.6,2.8v32.24c0,3.15-2.08,5.71-4.66,5.71h-10.54c-2.58,0-4.66-2.56-4.66-5.71V538A6.72,6.72,0,0,1,1366.16,535.15Z"/>
                <g>
                  <g class="cls-40">
                    <path class="cls-41" d="M1384.94,572.67a4.68,4.68,0,0,1-4.18,3.23h-10.54a4.68,4.68,0,0,1-4.18-3.23Z"/>
                  </g>
                  <g class="cls-40">
                    <path class="cls-41" d="M1384.37,533.5h-17.76a6.11,6.11,0,0,0,.09-.86v-1.25h17.58v1.25A6.11,6.11,0,0,0,1384.37,533.5Z"/>
                  </g>
                </g>
                <path class="cls-39" d="M1385.42,559h-13a2,2,0,0,1-1.73-2.12V542.18a1.94,1.94,0,0,1,1.73-2.11h13Z"/>
              </g>
              <g>
                <path class="cls-39" d="M1338.26,531.39h19.06a.45.45,0,0,0,.4-.49v-1.27a1.77,1.77,0,0,0-1.56-1.91h-16.74a1.77,1.77,0,0,0-1.57,1.91v1.27A.45.45,0,0,0,1338.26,531.39Z"/>
                <path class="cls-52" d="M1353.82,529.88h4.69a.7.7,0,0,1,.61.76h0a.69.69,0,0,1-.61.75h-4.69a.69.69,0,0,1-.61-.75h0A.7.7,0,0,1,1353.82,529.88Z"/>
                <path class="cls-24" d="M1338.46,535.15a6,6,0,0,0,.54-2.51v-1.25h17.57v1.25a5.94,5.94,0,0,0,.55,2.51,6.72,6.72,0,0,1,.6,2.8v32.24c0,3.15-2.09,5.71-4.66,5.71h-10.55c-2.57,0-4.65-2.56-4.65-5.71V538A6.56,6.56,0,0,1,1338.46,535.15Z"/>
                <g>
                  <g class="cls-40">
                    <path class="cls-41" d="M1357.24,572.67a4.7,4.7,0,0,1-4.18,3.23h-10.55a4.67,4.67,0,0,1-4.17-3.23Z"/>
                  </g>
                  <g class="cls-40">
                    <path class="cls-41" d="M1356.67,533.5h-17.76a6.11,6.11,0,0,0,.09-.86v-1.25h17.57v1.25A6.12,6.12,0,0,0,1356.67,533.5Z"/>
                  </g>
                </g>
                <path class="cls-39" d="M1357.72,559h-13a2,2,0,0,1-1.72-2.12V542.18a1.94,1.94,0,0,1,1.72-2.11h13Z"/>
              </g>
              <g>
                <path class="cls-53" d="M1380.58,172.1h-5a.9.9,0,0,0-.76,1.1l.73,5a.84.84,0,0,0,.76.78h3.56a.83.83,0,0,0,.75-.78l.73-5A.9.9,0,0,0,1380.58,172.1Z"/>
                <path class="cls-54" d="M1384.28,183.24h0a5,5,0,0,1-1.77-7.27.82.82,0,0,0,.15-.5h0a.73.73,0,0,0-.64-.79h-7.9a.73.73,0,0,0-.65.79.87.87,0,0,0,.15.5,4.93,4.93,0,0,1,.9,2.85,5,5,0,0,1-2.66,4.42h0a11.86,11.86,0,0,0-6.34,10.39v22a1.72,1.72,0,0,0,1.53,1.87h22a1.72,1.72,0,0,0,1.52-1.87v-22A11.87,11.87,0,0,0,1384.28,183.24Z"/>
              </g>
              <g>
                <path class="cls-53" d="M1350.89,172.1h-5a.9.9,0,0,0-.75,1.1l.73,5a.84.84,0,0,0,.75.78h3.57a.83.83,0,0,0,.75-.78l.73-5A.9.9,0,0,0,1350.89,172.1Z"/>
                <path class="cls-54" d="M1354.58,183.24h0a5,5,0,0,1-1.76-7.27.82.82,0,0,0,.15-.5h0a.73.73,0,0,0-.64-.79h-7.9a.73.73,0,0,0-.65.79.87.87,0,0,0,.15.5,5,5,0,0,1-1.76,7.27h0a11.86,11.86,0,0,0-6.34,10.39v22a1.72,1.72,0,0,0,1.53,1.87h22a1.72,1.72,0,0,0,1.53-1.87v-22A11.86,11.86,0,0,0,1354.58,183.24Z"/>
              </g>
              <g>
                <path class="cls-53" d="M1384.36,616.7h-5a.9.9,0,0,0-.75,1.1l.73,5a.82.82,0,0,0,.75.77h3.57a.82.82,0,0,0,.75-.77l.73-5A.9.9,0,0,0,1384.36,616.7Z"/>
                <path class="cls-54" d="M1388.05,627.84h0a5,5,0,0,1-1.76-7.27.87.87,0,0,0,.15-.5h0a.72.72,0,0,0-.64-.78h-7.9a.72.72,0,0,0-.65.78.84.84,0,0,0,.15.5,5,5,0,0,1-1.76,7.28h0a11.88,11.88,0,0,0-6.34,10.4v22a1.73,1.73,0,0,0,1.53,1.87h22a1.72,1.72,0,0,0,1.53-1.87v-22A11.88,11.88,0,0,0,1388.05,627.84Z"/>
              </g>
              <g>
                <path class="cls-53" d="M1354.67,616.7h-5a.9.9,0,0,0-.75,1.1l.73,5a.82.82,0,0,0,.75.77h3.57a.82.82,0,0,0,.75-.77l.73-5A.9.9,0,0,0,1354.67,616.7Z"/>
                <path class="cls-54" d="M1358.36,627.84h0a5,5,0,0,1-1.76-7.27.87.87,0,0,0,.15-.5h0a.72.72,0,0,0-.65-.78h-7.89a.72.72,0,0,0-.65.78.84.84,0,0,0,.15.5,5,5,0,0,1-1.76,7.28h0a11.88,11.88,0,0,0-6.34,10.4v22a1.72,1.72,0,0,0,1.53,1.87h22a1.72,1.72,0,0,0,1.53-1.87v-22A11.88,11.88,0,0,0,1358.36,627.84Z"/>
              </g>
              <g>
                <path class="cls-24" d="M1402,367.35a7.79,7.79,0,0,1-2.87-6.26v-1.52h-9.35v1.53a7.78,7.78,0,0,1-2.88,6.25,6.35,6.35,0,0,0-2.3,5.09v23.12c0,3.32,2.19,6,4.9,6h9.9c2.71,0,4.91-2.69,4.91-6V372.44A6.34,6.34,0,0,0,1402,367.35Zm.3,15.84a1.1,1.1,0,0,1-1,1.2h-13.76a1.11,1.11,0,0,1-1-1.2v-7.05a1.1,1.1,0,0,1,1-1.19h13.76a1.09,1.09,0,0,1,1,1.19Z"/>
                <g>
                  <g class="cls-40">
                    <path class="cls-41" d="M1385.06,398.06a5,5,0,0,0,4.45,3.51h9.9a5,5,0,0,0,4.45-3.51Z"/>
                  </g>
                  <g class="cls-40">
                    <path class="cls-41" d="M1389.64,362.66h9.65a9,9,0,0,1-.15-1.57v-1.52h-9.35v1.53A9,9,0,0,1,1389.64,362.66Z"/>
                  </g>
                </g>
                <path class="cls-39" d="M1401.34,375h-13.76a1.1,1.1,0,0,0-1,1.19v7.05a1.11,1.11,0,0,0,1,1.2h13.76a1.1,1.1,0,0,0,1-1.2v-7.05A1.09,1.09,0,0,0,1401.34,375Z"/>
                <path class="cls-52" d="M1399.68,352.32a1.38,1.38,0,0,0-1.22-1.5h-8a1.38,1.38,0,0,0-1.23,1.5v.11h10.44Z"/>
                <path class="cls-39" d="M1399.68,359.57h.22a.91.91,0,0,0,.8-1v-5.16a.92.92,0,0,0-.8-1H1389a.92.92,0,0,0-.8,1v5.16a.91.91,0,0,0,.8,1h10.65Z"/>
              </g>
              <g>
                <path class="cls-24" d="M1380.39,367.35a7.77,7.77,0,0,1-2.88-6.26v-1.52h-9.35v1.53a7.8,7.8,0,0,1-2.87,6.25,6.36,6.36,0,0,0-2.31,5.09v23.12c0,3.32,2.2,6,4.91,6h9.9c2.71,0,4.9-2.69,4.9-6V372.44A6.36,6.36,0,0,0,1380.39,367.35Zm.3,15.84a1.11,1.11,0,0,1-1,1.2H1366a1.11,1.11,0,0,1-1-1.2v-7.05a1.1,1.1,0,0,1,1-1.19h13.76a1.1,1.1,0,0,1,1,1.19Z"/>
                <g>
                  <g class="cls-40">
                    <path class="cls-41" d="M1363.44,398.06a5,5,0,0,0,4.45,3.51h9.9a5,5,0,0,0,4.45-3.51Z"/>
                  </g>
                  <g class="cls-40">
                    <path class="cls-41" d="M1368,362.66h9.65a9,9,0,0,1-.15-1.57v-1.52h-9.35v1.53A9,9,0,0,1,1368,362.66Z"/>
                  </g>
                </g>
                <path class="cls-39" d="M1379.72,375H1366a1.1,1.1,0,0,0-1,1.19v7.05a1.11,1.11,0,0,0,1,1.2h13.76a1.11,1.11,0,0,0,1-1.2v-7.05A1.1,1.1,0,0,0,1379.72,375Z"/>
                <path class="cls-52" d="M1378.06,352.32a1.38,1.38,0,0,0-1.23-1.5h-8a1.38,1.38,0,0,0-1.22,1.5v.11h10.44Z"/>
                <path class="cls-39" d="M1378.06,359.57h.21a.91.91,0,0,0,.8-1v-5.16a.92.92,0,0,0-.8-1H1367.4a.92.92,0,0,0-.8,1v5.16a.91.91,0,0,0,.8,1h10.66Z"/>
              </g>
              <path class="cls-55" d="M1420.81,146.74V675h102V146.74Zm88.61,511.48h-75.19V499h75.19Zm0-175.58h-75.21V163.18h75.21Z"/>
              <g class="cls-56">
                <polygon class="cls-45" points="1509.43 479.01 1506.47 482.64 1509.43 482.64 1509.43 479.01"/>
              </g>
              <g class="cls-40">
                <rect class="cls-57" x="1419.87" y="146.74" width="1.89" height="528.22"/>
              </g>
              <path class="cls-58" d="M1427.62,429.87c2.36,0,4.27,2.34,4.27,5.23s-1.91,5.23-4.27,5.23-4.27-2.34-4.27-5.23S1425.26,429.87,1427.62,429.87Z"/>
              <path class="cls-58" d="M1414,440.33c-2.35,0-4.27-2.34-4.27-5.23s1.92-5.23,4.27-5.23,4.27,2.34,4.27,5.23S1416.36,440.33,1414,440.33Z"/>
              <g>
                <path class="cls-20" d="M1370.82,411.5a1.92,1.92,0,0,1,1.7,2.08V491.2a1.9,1.9,0,0,1-1.7,2.06H1356.2a1.9,1.9,0,0,1-1.69-2.06V413.58a1.91,1.91,0,0,1,1.69-2.08Z"/>
                <path class="cls-21" d="M1369.94,463.4a.39.39,0,0,1-.34.42h-12.18a.4.4,0,0,1-.34-.42V415.07a.39.39,0,0,1,.34-.42h12.18a.39.39,0,0,1,.34.42Z"/>
                <g>
                  <path class="cls-22" d="M1367.87,455.9h-8.72a.6.6,0,0,1,0-1.17h8.72a.6.6,0,0,1,0,1.17Z"/>
                  <path class="cls-22" d="M1368.35,444.76a.54.54,0,0,1-.48.58h-8.72a.53.53,0,0,1-.47-.58.54.54,0,0,1,.47-.59h8.72A.55.55,0,0,1,1368.35,444.76Z"/>
                  <path class="cls-22" d="M1368.35,434.2a.55.55,0,0,1-.48.59h-8.72a.54.54,0,0,1-.47-.59.53.53,0,0,1,.47-.58h8.72A.54.54,0,0,1,1368.35,434.2Z"/>
                  <path class="cls-22" d="M1368.35,423.65a.54.54,0,0,1-.48.58h-8.72a.6.6,0,0,1,0-1.17h8.72A.54.54,0,0,1,1368.35,423.65Z"/>
                </g>
                <path class="cls-23" d="M1363.51,477.19c2.07,0,3.74,2.05,3.74,4.58s-1.67,4.58-3.74,4.58-3.74-2.05-3.74-4.58S1361.44,477.19,1363.51,477.19Z"/>
              </g>
              <g>
                <path class="cls-24" d="M1352.83,411.33a1.92,1.92,0,0,1,1.7,2.08V491a1.91,1.91,0,0,1-1.7,2.07h-14.61a1.91,1.91,0,0,1-1.7-2.07V413.41a1.92,1.92,0,0,1,1.7-2.08Z"/>
                <path class="cls-21" d="M1352,463.22a.39.39,0,0,1-.35.42h-12.17a.4.4,0,0,1-.35-.42V414.9a.4.4,0,0,1,.35-.42h12.17a.39.39,0,0,1,.35.42Z"/>
                <g>
                  <path class="cls-22" d="M1349.88,455.73h-8.71a.6.6,0,0,1,0-1.17h8.71a.6.6,0,0,1,0,1.17Z"/>
                  <path class="cls-22" d="M1350.36,444.59a.53.53,0,0,1-.48.58h-8.71a.6.6,0,0,1,0-1.17h8.71A.54.54,0,0,1,1350.36,444.59Z"/>
                  <path class="cls-22" d="M1350.36,434a.54.54,0,0,1-.48.59h-8.71a.55.55,0,0,1-.48-.59.54.54,0,0,1,.48-.58h8.71A.53.53,0,0,1,1350.36,434Z"/>
                  <path class="cls-22" d="M1350.36,423.47a.54.54,0,0,1-.48.59h-8.71a.6.6,0,0,1,0-1.17h8.71A.53.53,0,0,1,1350.36,423.47Z"/>
                </g>
                <path class="cls-23" d="M1345.53,477c2.06,0,3.73,2.05,3.73,4.58s-1.67,4.58-3.73,4.58-3.74-2.06-3.74-4.58S1343.46,477,1345.53,477Z"/>
              </g>
              <g>
                <path class="cls-25" d="M1387.67,410.5a1.66,1.66,0,0,1,2.12,1.38l18.52,74.22a2.19,2.19,0,0,1-1.13,2.59l-14,5.23a1.66,1.66,0,0,1-2.12-1.37l-18.52-74.22a2.19,2.19,0,0,1,1.13-2.6Z"/>
                <path class="cls-21" d="M1399.22,460.44a.45.45,0,0,1-.23.52l-11.65,4.36a.33.33,0,0,1-.42-.27l-11.53-46.21a.45.45,0,0,1,.22-.53l11.65-4.36a.33.33,0,0,1,.43.28Z"/>
                <g>
                  <path class="cls-22" d="M1395.44,454l-8.33,3.12a.47.47,0,0,1-.6-.38.62.62,0,0,1,.32-.73l8.34-3.13a.47.47,0,0,1,.59.39A.6.6,0,0,1,1395.44,454Z"/>
                  <path class="cls-22" d="M1393.24,443.19a.61.61,0,0,1-.31.73l-8.34,3.12a.46.46,0,0,1-.59-.39.61.61,0,0,1,.31-.73l8.34-3.12A.46.46,0,0,1,1393.24,443.19Z"/>
                  <path class="cls-22" d="M1390.72,433.09a.61.61,0,0,1-.31.73l-8.34,3.12a.46.46,0,0,1-.59-.38.61.61,0,0,1,.31-.73l8.34-3.13A.46.46,0,0,1,1390.72,433.09Z"/>
                  <path class="cls-22" d="M1388.21,423a.63.63,0,0,1-.32.73l-8.34,3.12a.47.47,0,0,1-.59-.39.61.61,0,0,1,.32-.73l8.33-3.12A.48.48,0,0,1,1388.21,423Z"/>
                </g>
                <path class="cls-23" d="M1396.36,475.94c2-.75,4.06.61,4.67,3s-.51,5-2.49,5.72-4.06-.63-4.66-3S1394.38,476.68,1396.36,475.94Z"/>
              </g>
              <path class="cls-55" d="M1318.79,675h102V146.74h-102Zm88.6-16.75H1332.2V499h75.19Zm-75.2-495h75.21V482.64h-75.21Z"/>
            </g>
            <polygon class="cls-59" points="1307.74 689.35 1325.1 710.38 1325 689.32 1307.74 689.35"/>
            <polygon class="cls-59" points="1463.32 689.35 1480.68 709.91 1480.59 689.32 1463.32 689.35"/>
            <g>
              <g class="cls-60">
                <path d="M1215.91,702.33c0-6.29-2.56-11.39-5.7-11.39h-588c-3.27,0-5.91,5.22-5.85,11.61s2.82,11.18,6,11.18h587.79c3.14,0,5.7-5.1,5.7-11.4Z"/>
              </g>
              <g>
                <g>
                  <path class="cls-61" d="M1015.76,294.53c2.91,36.86-9.21,127.58,13.55,155.92,10.37,13.84,5.63,19.75,34.71,19.75v1.69c-29.62,0-25.26-6.13-35.94-20.38-23.2-28.52-11-119.89-13.9-157Z"/>
                  <g>
                    <path class="cls-62" d="M1044.36,668.06c-18.37,1-46.87-6.87-48.58,22.2h-5.2c0-15.28,11.65-27.77,25.91-27.77h27.87Z"/>
                    <path class="cls-63" d="M993.59,672.88c14.88.27,14.88,24,0,24.26C978.72,696.87,978.72,673.15,993.59,672.88Z"/>
                    <path class="cls-64" d="M993.59,678.62c7.74-.12,7.74,12.9,0,12.78C985.86,691.52,985.86,678.5,993.59,678.62Z"/>
                    <path class="cls-62" d="M1044.36,668.06c18.36,1,46.87-6.87,48.58,22.2h5.2c0-15.28-11.65-27.77-25.91-27.77h-27.87Z"/>
                    <path class="cls-63" d="M1095.12,672.88c-14.87.27-14.87,24,0,24.26C1110,696.87,1110,673.15,1095.12,672.88Z"/>
                    <path class="cls-64" d="M1095.12,678.62c-7.73-.12-7.73,12.9,0,12.78C1102.86,691.52,1102.86,678.5,1095.12,678.62Z"/>
                  </g>
                  <rect class="cls-6" x="1041.76" y="186.83" width="5.2" height="488.03"/>
                  <path class="cls-63" d="M1044.36,672.88c14.87.27,14.87,24,0,24.26C1029.49,696.87,1029.49,673.15,1044.36,672.88Z"/>
                  <path class="cls-64" d="M1044.36,678.62c7.73-.12,7.73,12.9,0,12.78C1036.62,691.52,1036.62,678.5,1044.36,678.62Z"/>
                  <rect class="cls-6" x="1014.8" y="185.04" width="49.66" height="5.57"/>
                  <path class="cls-64" d="M998.17,206a4,4,0,0,0-3.81,4.08v50.45c0,2.25,2,2.91,3.81,4.08l14.4,9.46v12.26h-1.92v10.1h8.2v-10.1h-1.92V274.11l14.4-9.46c1.78-1.17,3.81-1.84,3.81-4.08V210.12a4,4,0,0,0-3.81-4.08Zm16.63,11.44c-5.33.08-5.33-8.89,0-8.81C1020.13,208.58,1020.13,217.56,1014.8,217.48Z"/>
                  <path class="cls-64" d="M1017.4,213.07a2.6,2.6,0,1,1-5.19,0V187.83a2.6,2.6,0,1,1,5.19,0Z"/>
                  <path class="cls-61" d="M1031.18,227.29v31.45c.68,2.3-14.83,10.52-16.43,12.18l-13.36-8.85c-1.44-1-3.07-1.5-3.07-3.33V227.29Z"/>
                  <path class="cls-64" d="M1007.21,232.44c-1.69,0-1.69-2.82,0-2.79h6.24c.2-1.21-.73-5,1.3-4.93s1.1,3.73,1.3,4.93c1.18.37,7.74-1.09,7.54,1.39.22,2.48-6.39,1-7.54,1.4v4.33c1.14.24,4.9-.83,4.83,1.39s-3.7,1.17-4.83,1.4v4.33c1.18.37,7.74-1.09,7.54,1.4.22,2.48-6.39,1-7.54,1.39V251c1.14.23,4.9-.83,4.83,1.39s-3.7,1.16-4.83,1.39v4.34c1.18.36,7.74-1.1,7.54,1.39.22,2.48-6.39,1-7.54,1.39,0,1.08.16,2.94-1.3,2.91s-1.34-1.83-1.3-2.91c-1.18-.36-7.74,1.1-7.54-1.39-.22-2.48,6.39-1,7.54-1.39V253.8c-1.14-.24-4.89.83-4.83-1.39s3.7-1.16,4.83-1.39v-4.34c-1.18-.37-7.74,1.09-7.54-1.39-.22-2.48,6.39-1,7.54-1.4v-4.33c-1.14-.24-4.89.83-4.83-1.4s3.7-1.15,4.83-1.39v-4.33Z"/>
                  <path class="cls-64" d="M1064.72,217.21c-2.15,0-2.78-2.22-2.59-4.14V187.83a2.6,2.6,0,1,1,5.2,0V212c16.74,6.15,1.83,31.09-10.37,17.29-2.17-2.75,1.9-6.34,4-3.52a4.71,4.71,0,0,0,3.77,1.89C1071.05,227.77,1071.05,217.1,1064.72,217.21Z"/>
                </g>
                <path class="cls-65" d="M1028.34,457.54l145.94-104.6c17.94-12.86,35.25,16.81,17.3,29.67L1045.64,487.2C1027.7,500.06,1010.39,470.4,1028.34,457.54Z"/>
                <path class="cls-62" d="M1016.78,504.81,1189.23,383a3.17,3.17,0,0,1,4.55,1.08h0a3.7,3.7,0,0,1-1,4.87L1020.33,510.76C1017,513,1012.85,507.41,1016.78,504.81Z"/>
                <rect class="cls-66" x="659.17" y="479.04" width="13.9" height="185.08"/>
                <polygon class="cls-67" points="673.07 537.26 659.17 537.26 659.17 552.17 673.07 537.26"/>
                <polygon class="cls-68" points="656.05 685.79 673.07 664.12 656.05 664.12 656.05 685.79"/>
                <g>
                  <path class="cls-68" d="M657.56,701.15c-21.33-.43-21.32-34.37,0-34.8C678.88,666.78,678.88,700.73,657.56,701.15Z"/>
                  <path class="cls-63" d="M657.56,698.74c-18.38-.36-18.37-29.62,0-30C675.94,669.13,675.94,698.38,657.56,698.74Z"/>
                  <path class="cls-64" d="M657.56,689.67c-7.16.1-7.16-11.94,0-11.84C664.72,677.73,664.72,689.77,657.56,689.67Z"/>
                </g>
                <polygon class="cls-67" points="669.11 649.85 659.17 649.85 659.17 660.51 669.11 649.85"/>
                <polygon class="cls-67" points="669.11 602.13 659.17 602.13 659.17 612.79 669.11 602.13"/>
                <path class="cls-65" d="M1006.83,464.15H624.16c-9,0-16.32,7.87-16.32,17.49s7.34,17.5,16.32,17.5h382.67C1028.15,498.74,1028.38,464.6,1006.83,464.15Z"/>
                <path class="cls-64" d="M1200.71,473.39h-.29c-2.51-60.45,12-56.91-30.85-56.29a6.7,6.7,0,0,0-6.43,6.9v49.39c-5.6.17-10.3-4.7-10.29-10.71V417.39c0-5.89,4.5-10.7,10-10.7h37.87c5.5,0,10,4.81,10,10.7v45.29C1210.7,468.57,1206.21,473.39,1200.71,473.39Z"/>
                <path class="cls-62" d="M1209.78,460.22H1199a3.3,3.3,0,0,0-3.17,3.39v53.33a3.3,3.3,0,0,0,3.17,3.39h10.76a3.3,3.3,0,0,0,3.17-3.39V463.61A3.3,3.3,0,0,0,1209.78,460.22Z"/>
                <path class="cls-67" d="M1202.1,424.81h-36.59a2.48,2.48,0,0,0-2.37,2.55c1.32,1.3-3,74.45,2.37,71.78h36.59a2.48,2.48,0,0,0,2.38-2.55C1203.15,495.29,1207.46,422.14,1202.1,424.81Z"/>
                <rect class="cls-66" x="1168.57" y="504.18" width="13.9" height="161.65"/>
                <polygon class="cls-67" points="1182.47 512.78 1168.57 512.78 1168.57 527.69 1182.47 512.78"/>
                <polygon class="cls-68" points="1133.77 699.26 1150.78 677.59 1133.77 677.59 1133.77 699.26"/>
                <polygon class="cls-68" points="1165.45 685.79 1182.47 664.12 1165.45 664.12 1165.45 685.79"/>
                <g>
                  <path class="cls-68" d="M1167,701.15c-21.32-.43-21.32-34.38,0-34.8C1188.28,666.78,1188.28,700.73,1167,701.15Z"/>
                  <path class="cls-63" d="M1167,698.74c-18.38-.36-18.37-29.62,0-30C1185.34,669.13,1185.33,698.38,1167,698.74Z"/>
                  <path class="cls-64" d="M1167,689.67c-7.16.1-7.16-11.94,0-11.84C1174.12,677.73,1174.12,689.77,1167,689.67Z"/>
                </g>
                <rect class="cls-69" x="1142.93" y="641.99" width="35.58" height="7.86"/>
                <polygon class="cls-67" points="1178.51 649.85 1168.57 649.85 1168.57 660.51 1178.51 649.85"/>
                <polygon class="cls-67" points="1178.51 592.25 1168.57 592.25 1168.57 602.91 1178.51 592.25"/>
                <path class="cls-67" d="M580.69,499.14H1195a6.84,6.84,0,0,1,0,13.64H580.69C572.63,512.76,572.17,499.2,580.69,499.14Z"/>
                <path class="cls-62" d="M1163,460.22h-10.76a3.3,3.3,0,0,0-3.17,3.39v53.33a3.3,3.3,0,0,0,3.17,3.39H1163a3.29,3.29,0,0,0,3.16-3.39V463.61A3.29,3.29,0,0,0,1163,460.22Z"/>
                <path class="cls-67" d="M1216.42,499.14h-36.13c-8.3.06-8.32,13.58,0,13.64h36.13a6.84,6.84,0,0,0,0-13.64Z"/>
                <g>
                  <path class="cls-68" d="M1135.27,714.62c-21.32-.43-21.32-34.38,0-34.8C1156.6,680.25,1156.6,714.2,1135.27,714.62Z"/>
                  <path class="cls-63" d="M1135.27,712.21c-18.37-.36-18.37-29.62,0-30C1153.65,682.59,1153.65,711.85,1135.27,712.21Z"/>
                  <path class="cls-64" d="M1135.27,703.14c-7.16.1-7.16-11.94,0-11.84C1142.44,691.2,1142.44,703.24,1135.27,703.14Z"/>
                </g>
                <path class="cls-62" d="M1183.8,547.53c-3,3-536.2-5.81-535.67,3.06v38.6a3,3,0,0,0,2.86,3.06c3-3,536.19,5.82,535.66-3,0,0,0-38.6,0-38.6A3,3,0,0,0,1183.8,547.53Z"/>
                <rect class="cls-66" x="1136.89" y="504.18" width="13.9" height="173.41"/>
                <polygon class="cls-67" points="1150.78 512.78 1136.89 512.78 1136.89 527.69 1150.78 512.78"/>
                <path class="cls-64" d="M1154.85,557.41c-3,3-536.2-5.82-535.67,3.05v38.6a3,3,0,0,0,2.86,3.07c3-3,536.19,5.81,535.66-3.06,0,0,0-38.6,0-38.6A3,3,0,0,0,1154.85,557.41Z"/>
                <path class="cls-64" d="M1158.75,438.6H946.29c-30.45-.13-54.4,28.17-52.4,60.54h9.53c-1.93-26.72,17.64-50.45,42.87-50.33h212.46Z"/>
                <g>
                  <rect class="cls-6" x="1116.97" y="444.38" width="9.53" height="58.89"/>
                  <path class="cls-64" d="M1070.51,503.27V444.38H1061v58.89Z"/>
                  <path class="cls-64" d="M1014.52,503.27V444.38H1005v58.89Z"/>
                  <rect class="cls-6" x="949.01" y="444.38" width="9.53" height="58.89"/>
                </g>
              </g>
            </g>
            <g class="cls-70">
              <g class="cls-40">
                <path class="cls-57" d="M330.15,123.64h0c-33.87,0-61.32,28.77-61.32,64.26v7.45c0,35.5,27.45,64.27,61.32,64.27h0c33.87,0,61.32-28.77,61.32-64.27V187.9C391.47,152.41,364,123.64,330.15,123.64Z"/>
              </g>
              <g>
                <path class="cls-71" d="M389.78,186.83c0-35.49-27.46-64.26-61.32-64.26s-61.33,28.77-61.33,64.26,27.46,64.27,61.33,64.27S389.78,222.32,389.78,186.83Z"/>
                <path class="cls-6" d="M384.83,186.83c0-32.63-25.24-59.08-56.37-59.08s-56.38,26.45-56.38,59.08,25.24,59.09,56.38,59.09S384.83,219.46,384.83,186.83Z"/>
                <polygon class="cls-72" points="357.57 154.41 319.69 194.8 321.01 196.15 358.88 155.76 357.57 154.41"/>
                <polygon class="cls-72" points="303.58 165.24 336.54 195.55 337.76 194.1 304.79 163.79 303.58 165.24"/>
                <path class="cls-72" d="M331.36,186.83a2.91,2.91,0,1,0-2.9,3A3,3,0,0,0,331.36,186.83Z"/>
                <g>
                  <path class="cls-73" d="M351.1,149.75v-9.48H349v-1.15h3.21v10.63Z"/>
                  <path class="cls-73" d="M370.36,160.15a5.91,5.91,0,0,1-1.8,3.45l-3.12,3.46h5.49v1.15h-7v-1l3.8-4.33a4.34,4.34,0,0,0,1.39-2.56c0-1-.75-1.66-2-1.66a4.1,4.1,0,0,0-2.76,1.32l-.51-1a5.08,5.08,0,0,1,3.42-1.47C369.14,157.54,370.36,158.55,370.36,160.15Z"/>
                  <path class="cls-73" d="M374.6,186c1.83.09,3.06,1.12,3.06,2.82a3.25,3.25,0,0,1-3.55,3.33,5.53,5.53,0,0,1-3.22-1.08l.51-1a4.07,4.07,0,0,0,2.62,1,2.21,2.21,0,0,0,2.51-2.19c0-1.34-.94-2-2.52-2h-1.25v-.77l3-3.45h-4.39v-1.16h5.84v.82L374,186Z"/>
                  <path class="cls-73" d="M369.17,212.14v-2.81h1.09v2.81h1.54v1.17h-1.54v2.79h-1.09v-2.79h-4.86v-1l3.63-6.83h1.15l-3.54,6.66Z"/>
                  <path class="cls-73" d="M349.61,224.17v3a11.76,11.76,0,0,1,1.71-.15c2.13,0,3.5,1.32,3.5,3.14a3.33,3.33,0,0,1-3.58,3.51,6.26,6.26,0,0,1-3.42-1.15l.48-1a4.77,4.77,0,0,0,2.82,1.07,2.21,2.21,0,0,0,2.46-2.31c0-1.26-.94-2-2.43-2a15,15,0,0,0-2.61.26V223h5.89v1.17Z"/>
                  <path class="cls-73" d="M331.62,230.05l-.47,1a4.65,4.65,0,0,0-2.33-.65c-2.17,0-3.26,1.87-3.1,4.74a3,3,0,0,1,3-2A3.05,3.05,0,0,1,332,236.5a3.25,3.25,0,0,1-3.44,3.53c-2.46,0-3.95-1.87-3.95-5.15s1.59-5.59,4.17-5.59A6.34,6.34,0,0,1,331.62,230.05ZM326,236.58a2.3,2.3,0,0,0,2.46,2.32,2.26,2.26,0,0,0,2.42-2.41,2.15,2.15,0,0,0-2.33-2.3A2.38,2.38,0,0,0,326,236.58Z"/>
                  <path class="cls-73" d="M304.9,233.64h-1.23l4.17-9.46h-4.72v1.55h-1.05V223h7.05v1Z"/>
                  <path class="cls-73" d="M292.12,208.1a2.44,2.44,0,0,1-1.65,2.32,2.75,2.75,0,0,1,2.13,2.7c0,1.9-1.44,3-3.73,3s-3.75-1.14-3.75-3a2.79,2.79,0,0,1,2.19-2.73,2.48,2.48,0,0,1-1.69-2.35c0-1.66,1.25-2.65,3.24-2.65S292.12,206.43,292.12,208.1Zm-5.9,4.92c0,1.33,1,2.11,2.65,2.11s2.64-.78,2.64-2.11-1-2-2.65-2S286.22,211.76,286.22,213Zm.39-4.85c0,1.14.84,1.81,2.26,1.81s2.25-.67,2.25-1.81-.84-1.81-2.25-1.81S286.61,207,286.61,208.17Z"/>
                  <path class="cls-73" d="M279.38,191.44l.47-1a4.65,4.65,0,0,0,2.33.65c2.17,0,3.26-1.87,3.1-4.74a3,3,0,0,1-3,2A3,3,0,0,1,279,185a3.24,3.24,0,0,1,3.43-3.52c2.46,0,3.95,1.86,3.95,5.13s-1.59,5.6-4.17,5.6A6.34,6.34,0,0,1,279.38,191.44Zm5.64-6.53a2.33,2.33,0,0,0-2.48-2.32,2.25,2.25,0,0,0-2.42,2.41,2.14,2.14,0,0,0,2.33,2.29A2.4,2.4,0,0,0,285,184.91Z"/>
                  <g>
                    <path class="cls-73" d="M285.44,168.77V159.3h-2.06v-1.16h3.2v10.63Z"/>
                    <path class="cls-73" d="M297.81,163.46c0,3.43-1.49,5.34-4.19,5.34s-4.19-1.91-4.19-5.34,1.5-5.35,4.19-5.35S297.81,160,297.81,163.46Zm-7.2,0c0,2.87,1,4.31,3,4.31s3-1.44,3-4.31-1.05-4.31-3-4.31S290.61,160.57,290.61,163.46Z"/>
                  </g>
                  <g>
                    <path class="cls-73" d="M302.47,151.33v-9.47h-2.06V140.7h3.2v10.63Z"/>
                    <path class="cls-73" d="M309.63,151.33v-9.47h-2.05V140.7h3.2v10.63Z"/>
                  </g>
                  <g>
                    <path class="cls-73" d="M323.92,144.46V135h-2.06v-1.15h3.2v10.63Z"/>
                    <path class="cls-73" d="M334.47,136.39a5.88,5.88,0,0,1-1.79,3.45l-3.12,3.46h5.49v1.16h-7v-1l3.8-4.32a4.45,4.45,0,0,0,1.39-2.57c0-1-.75-1.66-2-1.66a4.11,4.11,0,0,0-2.77,1.33l-.5-1a5.11,5.11,0,0,1,3.42-1.47C333.25,133.78,334.47,134.8,334.47,136.39Z"/>
                  </g>
                </g>
                <path class="cls-71" d="M312.66,145.85l22.54,59.71a1.15,1.15,0,0,1-.28,1.25,3.12,3.12,0,0,0-.76,3.37,2.87,2.87,0,0,0,3.77,1.72,3.1,3.1,0,0,0,1.64-4,2.89,2.89,0,0,0-2.78-1.91,1.08,1.08,0,0,1-1-.71l-22.54-59.71a.29.29,0,0,0-.39-.17A.32.32,0,0,0,312.66,145.85Z"/>
                <path class="cls-71" d="M330.38,186.83a1.92,1.92,0,1,0-1.92,2A2,2,0,0,0,330.38,186.83Z"/>
              </g>
            </g>
            <g>
              <g>
                <g class="cls-60">
                  <path d="M510.43,717.3H51.71c-5.14,0-9.3-5.1-9.3-11.39s4.16-11.39,9.3-11.39H510.43c5.14,0,9.3,5.1,9.3,11.39S515.57,717.3,510.43,717.3Z"/>
                </g>
                <g>
                  <path class="cls-49" d="M389.26,449.69a3.86,3.86,0,0,0,.82-2.41h6.79a3.86,3.86,0,0,0,.82,2.41,6.89,6.89,0,0,1,1.46,4.32v14.11a2.65,2.65,0,0,1-2.34,2.87h-6.67a2.65,2.65,0,0,1-2.34-2.87V454A6.89,6.89,0,0,1,389.26,449.69Z"/>
                  <g>
                    <g class="cls-40">
                      <path class="cls-41" d="M389.72,448.91a4,4,0,0,0,.36-1.63h6.79a3.85,3.85,0,0,0,.36,1.63Z"/>
                    </g>
                    <g class="cls-40">
                      <path class="cls-41" d="M396.81,471h-6.67a2.65,2.65,0,0,1-2.34-2.87h11.35A2.65,2.65,0,0,1,396.81,471Z"/>
                    </g>
                  </g>
                  <path class="cls-50" d="M387.8,454.82h6.89a1.41,1.41,0,0,1,1.24,1.53v7.55a1.4,1.4,0,0,1-1.24,1.52H387.8Z"/>
                  <path class="cls-39" d="M389.39,438.74a1.1,1.1,0,0,1,.35-.83l1.52-1.29a1,1,0,0,0,.34-.7l.49-6.56a.91.91,0,0,1,.82-.92h1.22a.8.8,0,0,1,.72.81l.5,6.67a1,1,0,0,0,.34.7l1.51,1.29a1.07,1.07,0,0,1,.36.83v4.85h-8.17Z"/>
                  <path class="cls-50" d="M389.27,443.59h8.41a.48.48,0,0,1,.43.52.48.48,0,0,1-.43.52h-8.41a.48.48,0,0,1-.43-.52A.48.48,0,0,1,389.27,443.59Z"/>
                  <path class="cls-50" d="M389.27,445.43h8.41a.48.48,0,0,1,.43.52v.81a.48.48,0,0,1-.43.52h-8.41a.48.48,0,0,1-.43-.52V446A.48.48,0,0,1,389.27,445.43Z"/>
                  <path class="cls-51" d="M397.56,444.63v.8h-8.17v-.8Z"/>
                </g>
                <g>
                  <rect class="cls-16" x="485.45" y="481.45" width="10.93" height="31.68"/>
                  <rect class="cls-16" x="435.59" y="481.45" width="10.93" height="31.68"/>
                  <rect class="cls-16" x="411.19" y="481.45" width="10.93" height="31.68"/>
                  <rect class="cls-16" x="361.32" y="481.45" width="10.93" height="31.68"/>
                  <g class="cls-40">
                    <rect class="cls-57" x="485.45" y="481.45" width="10.93" height="13.39"/>
                  </g>
                  <g class="cls-40">
                    <rect class="cls-57" x="435.59" y="481.45" width="10.93" height="13.39"/>
                  </g>
                  <g class="cls-40">
                    <rect class="cls-57" x="411.19" y="481.45" width="10.93" height="13.39"/>
                  </g>
                  <g class="cls-40">
                    <rect class="cls-57" x="361.32" y="481.45" width="10.93" height="13.39"/>
                  </g>
                  <rect class="cls-69" x="441.56" y="513.13" width="68.88" height="6.79"/>
                  <rect class="cls-69" x="347.72" y="513.13" width="93.83" height="6.79"/>
                  <rect class="cls-69" x="347.72" y="699.54" width="93.83" height="6.79"/>
                  <rect class="cls-69" x="441.56" y="699.54" width="68.88" height="6.79"/>
                  <rect class="cls-69" x="441.56" y="519.92" width="3.97" height="179.61"/>
                  <rect class="cls-74" x="347.72" y="519.92" width="93.83" height="179.61"/>
                  <rect class="cls-69" x="506.47" y="519.92" width="3.97" height="179.61"/>
                  <polygon class="cls-75" points="506.47 519.92 506.47 558.82 506.47 597.71 506.47 699.54 445.52 699.54 445.52 597.71 445.52 558.82 445.52 519.92 506.47 519.92"/>
                </g>
                <g>
                  <g>
                    <rect class="cls-73" x="247.2" y="597.12" width="8.41" height="42.79"/>
                    <path class="cls-76" d="M210.25,688.21c0,2-1.35,3.67-3,3.67s-3-1.64-3-3.67,1.35-3.67,3-3.67S210.25,686.18,210.25,688.21Z"/>
                    <path class="cls-76" d="M183.34,688.21c0,2-1.34,3.67-3,3.67s-3-1.64-3-3.67,1.34-3.67,3-3.67S183.34,686.18,183.34,688.21Z"/>
                    <path class="cls-76" d="M292.46,688.21c0,2,1.34,3.67,3,3.67s3-1.64,3-3.67-1.34-3.67-3-3.67S292.46,686.18,292.46,688.21Z"/>
                    <ellipse class="cls-76" cx="322.37" cy="688.21" rx="3" ry="3.67"/>
                    <path class="cls-73" d="M327.35,683.6l0,1.87a1.06,1.06,0,0,1-.23.6.71.71,0,0,1-.54.25l-5.26-.14-70.14-2-75.39,2.11a.72.72,0,0,1-.54-.26,1,1,0,0,1-.23-.65l0-1.82a6.44,6.44,0,0,1,1.3-4.15,4.46,4.46,0,0,1,3.31-1.82l71.58-2,70.14,2,1.44,0a4.44,4.44,0,0,1,3.31,1.82A6.44,6.44,0,0,1,327.35,683.6Z"/>
                    <path class="cls-77" d="M258.7,675.78H243.91V640.71a.9.9,0,0,1,.8-1H257.9a.9.9,0,0,1,.8,1Z"/>
                    <ellipse class="cls-76" cx="251.31" cy="688.21" rx="3" ry="3.67"/>
                    <path class="cls-77" d="M256.38,687v-5.19c0-1.82-1.21-3.3-2.7-3.3h-4.6c-1.49,0-2.7,1.48-2.7,3.3V687Z"/>
                    <path class="cls-77" d="M181,677.6l-1.43,0a4.42,4.42,0,0,0-3.32,1.8,6.54,6.54,0,0,0-1.31,4.14l0,1.84a.83.83,0,0,0,.77.9l5.25-.14Z"/>
                    <path class="cls-77" d="M327.35,683.6l0,1.87a1.06,1.06,0,0,1-.23.6.71.71,0,0,1-.54.25l-5.26-.14V677.6l1.44,0a4.44,4.44,0,0,1,3.31,1.82A6.44,6.44,0,0,1,327.35,683.6Z"/>
                    <path class="cls-73" d="M242.69,349.3a8.87,8.87,0,0,1,7.2,4.07,13.5,13.5,0,0,1,2.17,9.35,288,288,0,0,0-1.76,56.18c4.64,63.46,24.57,65.82,11.21,137.2-10,13.77-66.59,26.32-86,11.25a8.52,8.52,0,0,1-3.34-7.22c-.11-38,10.94-40.88,5.71-66.88-13.14-65.35-11.2-82.87-5.57-127.17,1.34-10.55,5.78-16.78,9.4-16.78Z"/>
                    <path class="cls-77" d="M172.27,366.08a33.7,33.7,0,0,1,3.32-11.33h.94s4.2,0,2.28,7a146.81,146.81,0,0,0-3.41,16.43c-4.36,36-4.79,56,7.07,115.05,5.24,26-5.82,28.92-5.7,66.87a8.5,8.5,0,0,0,3.34,7.22c5.82,4.52,15,6.53,25.2,6.82-12.08.28-23.16-1.62-29.84-6.82a8.52,8.52,0,0,1-3.34-7.22c-.11-38,11-40.88,5.71-66.87C164.71,427.9,166.64,410.37,172.27,366.08Z"/>
                    <path class="cls-77" d="M249.34,589.56l1.09-3.44L270,595.45l0-.12a.6.6,0,0,1,.57-.45c4.29.28,5.28-.17,9.25,1.4,4.78,2.71,1.82,12.16-3.21,10.25-3.81-2.09-5.43-4.45-7.59-6.71a.82.82,0,0,1-.17-.8l0-.12Z"/>
                    <path class="cls-78" d="M268.89,599l-19.55-9.46,1.09-3.44L270,595.34C271.64,596.32,270.61,599.6,268.89,599Z"/>
                    <path class="cls-77" d="M258.7,596.14a.91.91,0,0,1-.8,1H244.71a.91.91,0,0,1-.8-1V577a.91.91,0,0,1,.8-1H257.9a.91.91,0,0,1,.8,1Z"/>
                    <g class="cls-40">
                      <g class="cls-40">
                        <rect class="cls-57" x="247.2" y="597.12" width="8.41" height="9.38"/>
                      </g>
                    </g>
                    <g>
                      <path class="cls-77" d="M311.49,548.65v6.45a1,1,0,0,1-.95,1H303a1,1,0,0,1-.94-1v-6.45Z"/>
                      <path class="cls-79" d="M302.05,555.1s-4.56-6.45-8-6.45h8Z"/>
                      <path class="cls-79" d="M312.68,548.65h6.82c-3.45,0-8,6.45-8,6.45v-6.45Z"/>
                      <path class="cls-77" d="M286.32,488.75a7.3,7.3,0,0,1,1.46-3.34,2.55,2.55,0,0,1,1.94-1.08H319a2.28,2.28,0,0,1,1.36.57,2.28,2.28,0,0,0-1.36-.57H295a11,11,0,0,0-1.42,3.71l-9,45.44a16.11,16.11,0,0,0,.88,9.31,9.22,9.22,0,0,0,.9,1.62h41a2.59,2.59,0,0,0,1.42-.51,2.59,2.59,0,0,1-1.42.51H281.33c-1.28,0-2.53-1.1-3.34-2.95a12.63,12.63,0,0,1-.68-7.28Z"/>
                      <path class="cls-80" d="M327.39,546.37c1.87,0,3.65-1.49,4.75-4a15.07,15.07,0,0,0,.83-8.67l-9-45.44a9.59,9.59,0,0,0-1.89-4.28,4,4,0,0,0-3.06-1.64H289.72a3.3,3.3,0,0,0-1.52.39c1-.56,6.8-1.88,8.53-2.38a9.62,9.62,0,0,1,2.22-.28h25.52a5.08,5.08,0,0,1,3.87,2.07,12.08,12.08,0,0,1,2.4,5.42l9,45.44a18.41,18.41,0,0,1-1,10.7c-1.42,3.22-3.63,4.93-5.87,4.93H291.94a35.71,35.71,0,0,1-4.05-.43c-3.11-.59-7.68-2-7.68-2v0h0a3.71,3.71,0,0,0,1.13.22Z"/>
                      <path class="cls-79" d="M276.58,542.39a10.13,10.13,0,0,0,.84,1.5c.14.19.28.35.42.52s.36.42.54.6a7.54,7.54,0,0,0,.63.52,4,4,0,0,0,.39.23,3.92,3.92,0,0,0,1.93.61h46.06c1.87,0,3.65-1.49,4.75-4a15.07,15.07,0,0,0,.83-8.67l-9-45.44a9.59,9.59,0,0,0-1.89-4.28,4,4,0,0,0-3.06-1.64H289.72a3.3,3.3,0,0,0-1.52.39h0a4.39,4.39,0,0,0-.76.51h0a6.12,6.12,0,0,0-.72.72,9.6,9.6,0,0,0-1.9,4.28l-9,45.44A15.07,15.07,0,0,0,276.58,542.39Zm.73-8.21,9-45.43a7.3,7.3,0,0,1,1.46-3.34,2.55,2.55,0,0,1,1.94-1.08H319a2.28,2.28,0,0,1,1.36.57,3.78,3.78,0,0,1,.58.51,5,5,0,0,1,.39.64,7.87,7.87,0,0,1,1.07,2.7l9,45.43a13.73,13.73,0,0,1,.19,1.57c0,.1,0,.21,0,.32a.85.85,0,0,0,0,.16,14.39,14.39,0,0,1,0,1.74,11.39,11.39,0,0,1-.87,3.49,8.53,8.53,0,0,1-.69,1.24,4.49,4.49,0,0,1-1.23,1.2,2.59,2.59,0,0,1-1.42.51H281.33c-1.28,0-2.53-1.1-3.34-2.95A12.63,12.63,0,0,1,277.31,534.18Z"/>
                    </g>
                    <path class="cls-77" d="M175.43,554.68a4,4,0,0,1,3-1.54H256.6c.28,0,.56,0,.83,0l0,0h61.88a24.5,24.5,0,0,1,10.89,2.6l3.38,1.68a7.11,7.11,0,0,1,3.56,6.46V567a19.31,19.31,0,0,1-2.51,9.63c-2.77,4.77-8.18,10.74-18,10.74H270a44.8,44.8,0,0,1-14-2.27l-13.64-4.52c-21.81-1.89-43.45-3.75-65.57-4.58a5.38,5.38,0,0,1-2.3-4.59l-.34-13A5.92,5.92,0,0,1,175.43,554.68Z"/>
                    <g>
                      <g>
                        <path class="cls-77" d="M202.76,548.65v6.45a1,1,0,0,1-.94,1h-7.55a1,1,0,0,1-1-1v-6.45Z"/>
                        <path class="cls-79" d="M193.32,555.1s-4.56-6.45-8-6.45h8Z"/>
                        <path class="cls-79" d="M204,548.65h6.82c-3.45,0-8,6.45-8,6.45v-6.45Z"/>
                        <path class="cls-77" d="M177.84,488.82a7.17,7.17,0,0,1,1.38-3.19,2.36,2.36,0,0,1,1.77-1h5.17a10.93,10.93,0,0,0-1.27,3.4l-9,45.44a16.11,16.11,0,0,0,.88,9.31,8.58,8.58,0,0,0,.73,1.31H172.6c-1.18,0-2.34-1-3.11-2.79a12.2,12.2,0,0,1-.66-7Z"/>
                      </g>
                      <path class="cls-77" d="M200.07,566.11a1.09,1.09,0,0,0,0-2.13,3.85,3.85,0,0,1-3.19-1.35c-1.08-1.34-1.6-3.8-1.59-7.53a1,1,0,0,0-.86-1.06h0a1,1,0,0,0-.87,1.06c0,4.38.65,7.25,2.1,9A5.43,5.43,0,0,0,200.07,566.11Z"/>
                      <path class="cls-77" d="M207.14,566.11a1.09,1.09,0,0,0,0-2.13,3.83,3.83,0,0,1-3.19-1.35c-1.08-1.33-1.6-3.79-1.59-7.53a1,1,0,0,0-.87-1.06h0a1,1,0,0,0-.87,1.06c0,4.38.65,7.25,2.1,9A5.42,5.42,0,0,0,207.14,566.11Z"/>
                    </g>
                  </g>
                  <g>
                    <path class="cls-80" d="M218.66,546.37c1.87,0,3.65-1.49,4.75-4a15.07,15.07,0,0,0,.83-8.67l-9-45.44a9.6,9.6,0,0,0-1.9-4.28,4,4,0,0,0-3.06-1.64H181a3.33,3.33,0,0,0-1.52.39c1-.56,6.8-1.88,8.53-2.38a9.62,9.62,0,0,1,2.22-.28h25.52a5.11,5.11,0,0,1,3.88,2.07,12.07,12.07,0,0,1,2.39,5.42L231,533a18.5,18.5,0,0,1-1,10.7c-1.42,3.22-3.63,4.93-5.87,4.93H183.22a36,36,0,0,1-4.06-.43c-3.11-.59-7.68-2-7.68-2v0h0a3.71,3.71,0,0,0,1.13.22Z"/>
                    <path class="cls-79" d="M167.85,542.39a9.77,9.77,0,0,0,.85,1.5,5.3,5.3,0,0,0,.42.52,5.22,5.22,0,0,0,.54.6,7.43,7.43,0,0,0,.62.52,8.48,8.48,0,0,0,1.19.62,3.71,3.71,0,0,0,1.13.22h46.06c1.87,0,3.65-1.49,4.75-4a15.07,15.07,0,0,0,.83-8.67l-9-45.44a9.6,9.6,0,0,0-1.9-4.28,4,4,0,0,0-3.06-1.64H181a3.33,3.33,0,0,0-1.52.39h0a4.45,4.45,0,0,0-.75.5l0,0a6.12,6.12,0,0,0-.72.72,9.59,9.59,0,0,0-1.89,4.28l-9,45.44A15.07,15.07,0,0,0,167.85,542.39Zm1-8.13,9-45.44a7.17,7.17,0,0,1,1.38-3.19,2.36,2.36,0,0,1,1.77-1h29.28a2.34,2.34,0,0,1,1.77,1,7.17,7.17,0,0,1,1.38,3.19l9,45.44a12.37,12.37,0,0,1-.66,7c-.77,1.75-1.94,2.79-3.12,2.79H172.6c-1.18,0-2.34-1-3.11-2.79A12.2,12.2,0,0,1,168.83,534.26Z"/>
                  </g>
                </g>
                <g>
                  <path class="cls-16" d="M62.89,704.67a1.53,1.53,0,0,1-1.35,1.65H53.06a1.52,1.52,0,0,1-1.35-1.65V481.45H62.89Z"/>
                  <path class="cls-16" d="M137.16,704.67a1.53,1.53,0,0,1-1.36,1.65h-8.47a1.52,1.52,0,0,1-1.35-1.65V481.45h11.18Z"/>
                  <g class="cls-40">
                    <rect class="cls-57" x="125.98" y="481.45" width="11.18" height="13.39"/>
                  </g>
                  <g class="cls-40">
                    <rect class="cls-57" x="51.71" y="481.45" width="11.18" height="13.39"/>
                  </g>
                  <path class="cls-17" d="M533.55,479.8a1.53,1.53,0,0,1-1.35,1.65H17a1.53,1.53,0,0,1-1.36-1.65v-8.25A1.53,1.53,0,0,1,17,469.9H532.2a1.53,1.53,0,0,1,1.35,1.65Z"/>
                  <path class="cls-18" d="M155.18,469.9h377a1.53,1.53,0,0,1,1.35,1.65v8.25a1.53,1.53,0,0,1-1.35,1.65h-377Z"/>
                </g>
                <g>
                  <path class="cls-81" d="M187.63,468.57v-.33a1.36,1.36,0,0,0-1.2-1.47H233a1.5,1.5,0,0,1,1.33,1.62v0A1.51,1.51,0,0,1,233,470H186.43A1.36,1.36,0,0,0,187.63,468.57Z"/>
                  <path class="cls-82" d="M183.81,466.77a1.36,1.36,0,0,0,1.2-1.47V465a1.36,1.36,0,0,0-1.2-1.47h46a1.5,1.5,0,0,1,1.32,1.63v0a1.5,1.5,0,0,1-1.32,1.62h-46Z"/>
                  <path class="cls-83" d="M181.19,463.5a1.36,1.36,0,0,0,1.2-1.47v-.32a1.36,1.36,0,0,0-1.2-1.48h45.44a1.51,1.51,0,0,1,1.33,1.63v0a1.5,1.5,0,0,1-1.33,1.62H181.19Z"/>
                  <path class="cls-84" d="M185,458.76v-.32a1.35,1.35,0,0,0-1.2-1.47h46a1.49,1.49,0,0,1,1.32,1.62v0a1.49,1.49,0,0,1-1.32,1.62h-46A1.35,1.35,0,0,0,185,458.76Z"/>
                  <path class="cls-85" d="M186.32,455.5v-.33a1.36,1.36,0,0,0-1.2-1.47h46.3a1.5,1.5,0,0,1,1.33,1.62v0a1.5,1.5,0,0,1-1.33,1.63h-46.3A1.36,1.36,0,0,0,186.32,455.5Z"/>
                  <path class="cls-86" d="M159.64,466.77h26.79a1.36,1.36,0,0,1,1.2,1.47v.33a1.36,1.36,0,0,1-1.2,1.47H126.5a1.35,1.35,0,0,1-1.2-1.47v-.33a1.35,1.35,0,0,1,1.2-1.47h33.14Z"/>
                  <path class="cls-87" d="M156.44,463.5h27.37A1.36,1.36,0,0,1,185,465v.33a1.36,1.36,0,0,1-1.2,1.47H123.88a1.35,1.35,0,0,1-1.2-1.47V465a1.35,1.35,0,0,1,1.2-1.47h32.56Z"/>
                  <path class="cls-88" d="M121.26,460.23h59.93a1.36,1.36,0,0,1,1.2,1.48V462a1.36,1.36,0,0,1-1.2,1.47H121.26a1.35,1.35,0,0,1-1.2-1.47v-.32A1.36,1.36,0,0,1,121.26,460.23Z"/>
                  <path class="cls-89" d="M158,457h25.77a1.35,1.35,0,0,1,1.2,1.47v.32a1.35,1.35,0,0,1-1.2,1.47H123.88a1.35,1.35,0,0,1-1.2-1.47v-.32a1.35,1.35,0,0,1,1.2-1.47H158Z"/>
                  <path class="cls-45" d="M186.32,455.17v.33a1.36,1.36,0,0,1-1.2,1.47H125.19a1.35,1.35,0,0,1-1.2-1.47v-.33a1.35,1.35,0,0,1,1.2-1.47h59.93A1.36,1.36,0,0,1,186.32,455.17Z"/>
                </g>
                <g>
                  <g>
                    <path class="cls-90" d="M353,455.37a.3.3,0,0,0-.34.21l-.11.25a.19.19,0,0,1-.15.11l9.35-61,.95.22-9.42,61.41,0-.85A.39.39,0,0,0,353,455.37Z"/>
                    <path class="cls-90" d="M350.86,455.67a.23.23,0,0,1-.13-.17l-.11-.66a.22.22,0,0,0-.18-.2.2.2,0,0,0-.21.15l-.36,1,9.41-61.41,1,.22Z"/>
                    <path class="cls-91" d="M352.36,456a.21.21,0,0,1-.18-.17l-.24-.81a.22.22,0,0,0-.15-.17.19.19,0,0,0-.2.09l-.5.71a.2.2,0,0,1-.21.08l0,0,9.37-61.07,1.53.35-9.35,61S352.38,456,352.36,456Z"/>
                    <path class="cls-92" d="M363.19,394.9c0,.21-.18.34-.35.3l-.13,0-.95-.22-1.53-.35-1-.22-.13,0a.38.38,0,0,1-.24-.43l.06-.41,4.29,1Z"/>
                    <path class="cls-92" d="M359.85,389.78l.14,0,3.42.79.13,0a.37.37,0,0,1,.24.43l-.06.41-4.28-1,.06-.4A.31.31,0,0,1,359.85,389.78Z"/>
                    <path class="cls-93" d="M360.29,387.83a1,1,0,0,1,1.15-1l1.49.34a1.22,1.22,0,0,1,.78,1.41l-.3,2-3.42-.79Z"/>
                    <polygon class="cls-39" points="363.25 394.5 358.97 393.51 359.44 390.48 363.72 391.47 363.25 394.5"/>
                    <path class="cls-94" d="M350.44,454.64a.22.22,0,0,1,.18.2l.11.66a.23.23,0,0,0,.13.17l0,0a.2.2,0,0,0,.21-.08l.5-.71a.19.19,0,0,1,.2-.09.22.22,0,0,1,.15.17l.24.81a.21.21,0,0,0,.18.17s0,0,.05,0a.19.19,0,0,0,.15-.11l.11-.25a.3.3,0,0,1,.34-.21.39.39,0,0,1,.25.36l0,.85-1.65,4.81,0-.27a.3.3,0,0,0-.2-.28.24.24,0,0,0-.28.15l-.15.34a.24.24,0,0,1-.26.16.27.27,0,0,1-.21-.23l-.11-.5a.15.15,0,0,0-.13-.12.12.12,0,0,0-.13.1l-.17.47.07,3.16-.18-8.58.36-1A.2.2,0,0,1,350.44,454.64Z"/>
                    <path class="cls-95" d="M350.15,460.74a.12.12,0,0,1,.13-.1.15.15,0,0,1,.13.12l.11.5a.27.27,0,0,0,.21.23.24.24,0,0,0,.26-.16l.15-.34a.24.24,0,0,1,.28-.15.3.3,0,0,1,.2.28l0,.27h0l-1.06,3.1c-.06.17-.19.26-.31.23a.33.33,0,0,1-.22-.35l-.07-3.16Z"/>
                  </g>
                  <path class="cls-24" d="M339.34,426.24a1.79,1.79,0,0,1,1.63-1.67h17.79a1.79,1.79,0,0,1,1.63,1.67,241.7,241.7,0,0,1,3.07,34.43v6.14c0,2.42-1.6,4.37-3.57,4.37H339.84c-2,0-3.57-1.95-3.57-4.37v-6.14A241.7,241.7,0,0,1,339.34,426.24Z"/>
                </g>
              </g>
              <circle class="cls-73" cx="295.8" cy="699.82" r="10.01"/>
              <path class="cls-77" d="M190.54,698.94a10,10,0,1,1-10-10A10,10,0,0,1,190.54,698.94Z"/>
              <path class="cls-77" d="M261.66,699.12a10,10,0,1,1-10-10A10,10,0,0,1,261.66,699.12Z"/>
              <path class="cls-73" d="M218.09,698.29a10,10,0,1,1-10-10A10,10,0,0,1,218.09,698.29Z"/>
              <path class="cls-77" d="M313.81,699.29a10,10,0,1,0,10-10A10,10,0,0,0,313.81,699.29Z"/>
            </g>
            <rect class="cls-96" x="-15.94" y="-57.33" width="1643.29" height="962.68"/>
          </g>
        </g>
      </g>
    </g>
  </g>
</svg>
