<svg xmlns="http://www.w3.org/2000/svg" xmlns:xlink="http://www.w3.org/1999/xlink" width="1600" height="900" viewBox="0 0 1600 900">
  <defs>
    <style>
      .cls-1 {
        fill: none;
      }

      .cls-2 {
        isolation: isolate;
      }

      .cls-3 {
        clip-path: url(#clip-path);
      }

      .cls-4 {
        clip-path: url(#clip-path-2);
      }

      .cls-5 {
        fill: #bcbdb7;
      }

      .cls-6 {
        fill: #d15727;
      }

      .cls-7 {
        fill: #a84625;
      }

      .cls-8 {
        fill: #dd5f26;
      }

      .cls-9 {
        fill: #c45822;
      }

      .cls-10 {
        fill: #c35622;
      }

      .cls-11 {
        clip-path: url(#clip-path-3);
      }

      .cls-12 {
        fill: #e8bb96;
      }

      .cls-13 {
        fill: #e8b795;
      }

      .cls-14 {
        fill: #c48074;
        opacity: 0.31;
      }

      .cls-15 {
        fill: #abe6ef;
      }

      .cls-16 {
        fill: #91e0e8;
      }

      .cls-17, .cls-50, .cls-56 {
        opacity: 0.2;
      }

      .cls-18 {
        fill: #fdfaf2;
      }

      .cls-19, .cls-22, .cls-29, .cls-60 {
        fill: #fff;
      }

      .cls-20 {
        fill: #7f7c74;
      }

      .cls-21 {
        fill: #bfb9b2;
      }

      .cls-22 {
        opacity: 0.7;
      }

      .cls-23 {
        fill: #6c6963;
      }

      .cls-24 {
        fill: #009ba4;
      }

      .cls-25 {
        fill: #99d7db;
      }

      .cls-26 {
        fill: #004e52;
      }

      .cls-27 {
        fill: #683914;
      }

      .cls-28 {
        fill: #f5f2ea;
      }

      .cls-29 {
        opacity: 0.5;
      }

      .cls-30 {
        fill: #25180c;
      }

      .cls-31 {
        fill: #e30613;
      }

      .cls-32 {
        opacity: 0.15;
      }

      .cls-33 {
        fill: #72030a;
      }

      .cls-34 {
        fill: #7b858c;
      }

      .cls-35 {
        fill: #d4e6ff;
      }

      .cls-36 {
        fill: #f7a899;
      }

      .cls-37 {
        fill: #fbd5a2;
      }

      .cls-38 {
        fill: #f7836c;
      }

      .cls-39 {
        fill: #4a5357;
      }

      .cls-40 {
        fill: #657175;
      }

      .cls-41 {
        fill: #ed664c;
      }

      .cls-42 {
        opacity: 0.1;
      }

      .cls-43, .cls-50 {
        fill: #231f20;
      }

      .cls-44 {
        fill: #99abc4;
      }

      .cls-45 {
        fill: #a7bad6;
      }

      .cls-46 {
        fill: #3a4145;
      }

      .cls-47 {
        opacity: 0.28;
      }

      .cls-48 {
        fill: #a3b0bc;
      }

      .cls-49 {
        fill: #78818a;
      }

      .cls-51 {
        fill: #d1d3d4;
      }

      .cls-52 {
        fill: #d47560;
      }

      .cls-53 {
        fill: #f5876f;
      }

      .cls-54 {
        fill: #4a4a57;
      }

      .cls-55 {
        fill: #7b7b94;
      }

      .cls-57 {
        fill: #abd5d5;
      }

      .cls-58, .cls-62 {
        fill: #699;
      }

      .cls-58, .cls-59, .cls-60 {
        fill-rule: evenodd;
      }

      .cls-59 {
        fill: #e6e6e6;
      }

      .cls-61 {
        fill: #bddfdf;
      }

      .cls-63 {
        fill: #edb368;
      }

      .cls-64 {
        fill: #2f2d31;
      }

      .cls-65 {
        fill: #323133;
      }

      .cls-66 {
        fill: #1e1d1f;
      }

      .cls-67 {
        mix-blend-mode: multiply;
        opacity: 0.55;
      }
    </style>
    <clipPath id="clip-path">
      <rect class="cls-1" x="-1800" width="1600" height="900"/>
    </clipPath>
    <clipPath id="clip-path-2">
      <rect class="cls-1" x="-754.39" y="497.31" width="686.8" height="225.21"/>
    </clipPath>
    <clipPath id="clip-path-3">
      <rect class="cls-1" width="1600" height="900"/>
    </clipPath>
  </defs>
  <g class="cls-2">
    <g id="Layer_1" data-name="Layer 1">
      <g class="cls-3">
        <g class="cls-4">
          <g>
            <path class="cls-5" d="M264.71,474c0,2,0,4,0,6V702.49c.08,3.08.09,6.19,0,9.33v20.82h12.27V474Z"/>
            <g>
              <path class="cls-6" d="M321.84,471.2H264.67c.08,2.91.08,5.84,0,8.81v18.27h57.18c2.28,0,4.12-.84,4.12-1.88V473.09C326,472,324.12,471.2,321.84,471.2Z"/>
              <path class="cls-7" d="M325,471.52a7.93,7.93,0,0,0-3.19-.6H264.67c0,.18,0,.37,0,.56h57.16a6.53,6.53,0,0,1,2.64.5c.66.3,1,.69,1,1.11V496.4c0,.41-.36.8-1,1.11a6.54,6.54,0,0,1-2.64.49H264.66v.57h57.18A7.92,7.92,0,0,0,325,498c.83-.38,1.39-.94,1.39-1.56V473.09C326.42,472.46,325.86,471.9,325,471.52Z"/>
              <path class="cls-8" d="M266.57,499.73h-1.91v27.09h1.91c2.28,0,4.12-.85,4.12-1.89V501.62C270.69,500.57,268.85,499.73,266.57,499.73Z"/>
              <path class="cls-7" d="M269.75,500.06a7.67,7.67,0,0,0-3.18-.61h-1.91V500h1.91a6.57,6.57,0,0,1,2.64.5c.66.3,1,.69,1,1.11v23.31c0,.41-.36.8-1,1.11a6.58,6.58,0,0,1-2.64.49h-1.91v.57h1.91a7.83,7.83,0,0,0,3.18-.61c.84-.38,1.39-.93,1.39-1.56V501.62C271.14,501,270.59,500.43,269.75,500.06Z"/>
              <path class="cls-6" d="M321.84,528.78H264.66v27.08h57.18c2.28,0,4.12-.84,4.12-1.88V530.67C326,529.62,324.12,528.78,321.84,528.78Z"/>
              <path class="cls-7" d="M325,529.1a7.93,7.93,0,0,0-3.19-.6H264.66v.56h57.18a6.53,6.53,0,0,1,2.64.5c.66.3,1,.69,1,1.11V554c0,.41-.36.8-1,1.11a6.54,6.54,0,0,1-2.64.49H264.66v.57h57.18a7.92,7.92,0,0,0,3.19-.61c.83-.38,1.39-.94,1.39-1.56V530.67C326.42,530,325.86,529.48,325,529.1Z"/>
              <path class="cls-8" d="M266.57,558.38h-1.91v27.09h1.91c2.28,0,4.12-.85,4.12-1.89V560.27C270.69,559.23,268.85,558.38,266.57,558.38Z"/>
              <path class="cls-7" d="M269.75,558.71a7.83,7.83,0,0,0-3.18-.61h-1.91v.56h1.91a6.57,6.57,0,0,1,2.64.5c.66.31,1,.7,1,1.11v23.31c0,.42-.36.81-1,1.11a6.57,6.57,0,0,1-2.64.5h-1.91v.56h1.91a7.83,7.83,0,0,0,3.18-.61c.84-.38,1.39-.93,1.39-1.56V560.27C271.14,559.64,270.59,559.09,269.75,558.71Z"/>
              <path class="cls-6" d="M321.84,587.43H264.66v27.09h57.18c2.28,0,4.12-.85,4.12-1.89V589.32C326,588.28,324.12,587.43,321.84,587.43Z"/>
              <path class="cls-7" d="M325,587.76a7.75,7.75,0,0,0-3.19-.61H264.66v.56h57.18a6.53,6.53,0,0,1,2.64.5c.66.3,1,.69,1,1.11v23.31c0,.41-.36.8-1,1.11a6.53,6.53,0,0,1-2.64.5H264.66v.56h57.18a7.92,7.92,0,0,0,3.19-.61c.83-.38,1.39-.93,1.39-1.56V589.32C326.42,588.69,325.86,588.14,325,587.76Z"/>
              <path class="cls-8" d="M266.57,616.56h-1.91v27.09h1.91c2.28,0,4.12-.85,4.12-1.89V618.45C270.69,617.4,268.85,616.56,266.57,616.56Z"/>
              <path class="cls-7" d="M269.75,616.89a7.67,7.67,0,0,0-3.18-.61h-1.91v.56h1.91a6.57,6.57,0,0,1,2.64.5c.66.3,1,.69,1,1.11v23.31c0,.41-.36.8-1,1.11a6.58,6.58,0,0,1-2.64.49h-1.91v.57h1.91a7.83,7.83,0,0,0,3.18-.61c.84-.38,1.39-.93,1.39-1.56V618.45C271.14,617.82,270.59,617.27,269.75,616.89Z"/>
              <path class="cls-6" d="M321.84,645.61H264.66V672.7h57.18c2.28,0,4.12-.85,4.12-1.89V647.5C326,646.45,324.12,645.61,321.84,645.61Z"/>
              <path class="cls-7" d="M325,645.93a8.09,8.09,0,0,0-3.19-.61H264.66v.57h57.18a6.37,6.37,0,0,1,2.64.5c.66.3,1,.69,1,1.11v23.31c0,.41-.36.8-1,1.11a6.58,6.58,0,0,1-2.64.49H264.66V673h57.18a7.92,7.92,0,0,0,3.19-.61c.83-.38,1.39-.94,1.39-1.56V647.5C326.42,646.87,325.86,646.31,325,645.93Z"/>
              <path class="cls-8" d="M266.57,674.5h-1.91v27.08h1.91c2.28,0,4.12-.84,4.12-1.88V676.38C270.69,675.34,268.85,674.5,266.57,674.5Z"/>
              <path class="cls-7" d="M269.75,674.82a7.83,7.83,0,0,0-3.18-.61h-1.91v.57h1.91a6.4,6.4,0,0,1,2.64.5c.66.3,1,.69,1,1.1V699.7c0,.41-.36.8-1,1.1a6.57,6.57,0,0,1-2.64.5h-1.91v.57h1.91a8,8,0,0,0,3.18-.61c.84-.38,1.39-.94,1.39-1.56V676.38C271.14,675.76,270.59,675.2,269.75,674.82Z"/>
              <path class="cls-6" d="M321.84,703.55H264.67c.06,2.73.07,5.49,0,8.27v18.81h57.18c2.28,0,4.12-.84,4.12-1.89V705.43C326,704.39,324.12,703.55,321.84,703.55Z"/>
              <path class="cls-7" d="M325,703.87a7.92,7.92,0,0,0-3.19-.61H264.67c0,.19,0,.38,0,.57h57.16a6.54,6.54,0,0,1,2.64.49c.66.31,1,.7,1,1.11v23.31c0,.42-.36.81-1,1.11a6.53,6.53,0,0,1-2.64.5H264.66v.56h57.18a7.93,7.93,0,0,0,3.19-.6c.83-.38,1.39-.94,1.39-1.57V705.43C326.42,704.8,325.86,704.25,325,703.87Z"/>
              <path class="cls-1" d="M264.7,472.08q.07,3.93,0,7.93V702.49c.08,3.08.09,6.19,0,9.33V733h7.74V472.08Z"/>
            </g>
            <rect class="cls-9" x="264.66" y="590.93" width="2.21" height="19.94"/>
            <path class="cls-10" d="M266.57,616.84h-1.91v26.52h2.21V616.85Z"/>
            <rect class="cls-9" x="264.66" y="649.1" width="2.21" height="19.93"/>
            <path class="cls-10" d="M266.57,674.78h-1.91V701.3h2.21V674.78Z"/>
            <path class="cls-9" d="M264.72,707c0,1.59,0,3.18-.06,4.78V727h2.21V707Z"/>
          </g>
        </g>
      </g>
      <g class="cls-11">
        <g>
          <rect class="cls-12" x="-4.13" y="770.64" width="1602.85" height="97.22"/>
          <rect class="cls-13" x="-4.13" y="770.64" width="1602.85" height="131.79"/>
          <rect class="cls-14" x="-4.13" y="771.85" width="1602.85" height="39.65"/>
          <rect class="cls-15" x="-4.13" y="-7.35" width="1610.56" height="779.13"/>
          <rect class="cls-16" x="1.01" y="2.1" width="1602.85" height="113.9"/>
          <polygon class="cls-17" points="1487.8 73.73 1495.82 318.41 678.23 318.85 718.3 347 1528.43 343.14 1528.43 320.86 1524.9 95 1487.8 73.73"/>
          <rect class="cls-18" x="909.33" y="73.73" width="589.52" height="245.73"/>
          <rect class="cls-18" x="678.29" y="73.26" width="240.35" height="245.73"/>
          <polygon class="cls-19" points="1031.83 80.19 916.99 80.19 916.99 312.99 918.9 311.37 918.9 81.81 1029.92 81.81 1031.83 80.19"/>
          <polygon class="cls-19" points="1146.67 80.19 1031.83 80.19 1031.83 312.99 1033.75 311.37 1033.75 81.81 1144.76 81.81 1146.67 80.19"/>
          <polygon class="cls-19" points="1261.52 80.19 1146.67 80.19 1146.67 312.99 1148.59 311.37 1148.59 81.81 1259.6 81.81 1261.52 80.19"/>
          <polygon class="cls-19" points="1376.36 80.19 1261.52 80.19 1261.52 312.99 1263.43 311.37 1263.43 81.81 1374.44 81.81 1376.36 80.19"/>
          <polygon class="cls-19" points="1479.71 89.89 1479.71 303.29 1387.84 303.29 1385.93 304.9 1481.63 304.9 1481.63 88.28 1479.71 89.89"/>
          <polygon class="cls-19" points="1364.87 89.89 1364.87 303.29 1273 303.29 1271.09 304.9 1366.79 304.9 1366.79 88.28 1364.87 89.89"/>
          <polygon class="cls-19" points="1250.03 89.89 1250.03 303.29 1158.16 303.29 1156.24 304.9 1251.95 304.9 1251.95 88.28 1250.03 89.89"/>
          <polygon class="cls-19" points="1491.2 80.19 1376.36 80.19 1376.36 312.99 1378.27 311.37 1378.27 81.81 1489.29 81.81 1491.2 80.19"/>
          <polygon class="cls-19" points="1491.2 80.19 1491.2 312.99 916.99 312.99 915.08 314.6 1493.11 314.6 1493.11 78.58 1491.2 80.19"/>
          <polygon class="cls-19" points="1498.86 73.73 909.33 73.73 909.33 319.45 911.25 317.83 911.25 75.34 1496.94 75.34 1498.86 73.73"/>
          <g>
            <polygon class="cls-17" points="1029.92 81.81 1029.92 311.37 918.9 311.37 916.99 312.99 1031.83 312.99 1031.83 80.19 1029.92 81.81"/>
            <polygon class="cls-17" points="1144.76 81.81 1144.76 311.37 1033.75 311.37 1031.83 312.99 1146.67 312.99 1146.67 80.19 1144.76 81.81"/>
            <polygon class="cls-17" points="1259.6 81.81 1259.6 311.37 1148.59 311.37 1146.67 312.99 1261.52 312.99 1261.52 80.19 1259.6 81.81"/>
            <polygon class="cls-17" points="1374.44 81.81 1374.44 311.37 1263.43 311.37 1261.52 312.99 1376.36 312.99 1376.36 80.19 1374.44 81.81"/>
            <polygon class="cls-17" points="1251.95 88.28 1156.24 88.28 1156.24 304.9 1158.16 303.29 1158.16 89.89 1250.03 89.89 1251.95 88.28"/>
            <polygon class="cls-17" points="1489.29 81.81 1489.29 311.37 1378.27 311.37 1376.36 312.99 1491.2 312.99 1491.2 80.19 1489.29 81.81"/>
            <polygon class="cls-17" points="1493.11 78.58 915.08 78.58 915.08 314.6 916.99 312.99 916.99 80.19 1491.2 80.19 1493.11 78.58"/>
            <polygon class="cls-17" points="1496.94 75.34 1496.94 317.83 911.25 317.83 909.33 319.45 1498.86 319.45 1498.86 73.73 1496.94 75.34"/>
          </g>
          <path class="cls-20" d="M686.17,312.6h574.21a.35.35,0,0,0,.38-.32V79.49a.36.36,0,0,0-.38-.33H686.17a.37.37,0,0,0-.39.33V312.28A.36.36,0,0,0,686.17,312.6ZM1260,312H1145.92V79.81H1260Zm-114.84,0H1031.08V79.81h114.07Zm-114.84,0H916.23V79.81h114.08Zm-114.84,0H801.39V79.81H915.47ZM686.55,79.81H800.63V312H686.55Z"/>
          <path class="cls-20" d="M927.33,302.9h91.88a.35.35,0,0,0,.38-.32V89.19a.36.36,0,0,0-.38-.33H927.33a.36.36,0,0,0-.38.33V302.58A.35.35,0,0,0,927.33,302.9Zm.39-213.39h91.11V302.26H927.72Z"/>
          <path class="cls-20" d="M815.1,302.9H907a.36.36,0,0,0,.39-.32V89.19a.37.37,0,0,0-.39-.33H815.1a.36.36,0,0,0-.38.33V302.58A.35.35,0,0,0,815.1,302.9Zm.38-213.39h91.11V302.26H815.48Z"/>
          <path class="cls-20" d="M700.75,302.9h91.87a.35.35,0,0,0,.38-.32V89.19a.36.36,0,0,0-.38-.33H700.75a.36.36,0,0,0-.39.33V302.58A.36.36,0,0,0,700.75,302.9Zm.38-213.39h91.11V302.26H701.13Z"/>
          <path class="cls-20" d="M1042.18,302.9h91.87a.35.35,0,0,0,.38-.32V89.19a.36.36,0,0,0-.38-.33h-91.87a.36.36,0,0,0-.39.33V302.58A.36.36,0,0,0,1042.18,302.9Zm.38-213.39h91.11V302.26h-91.11Z"/>
          <path class="cls-20" d="M1157,301.49h91.87a.35.35,0,0,0,.38-.32V87.77a.36.36,0,0,0-.38-.32H1157a.36.36,0,0,0-.38.32v213.4A.35.35,0,0,0,1157,301.49Zm.38-213.39h91.11V300.84H1157.4Z"/>
          <path class="cls-20" d="M1274.19,301.49h91.88a.35.35,0,0,0,.38-.32V87.77a.36.36,0,0,0-.38-.32h-91.88a.36.36,0,0,0-.38.32v213.4A.35.35,0,0,0,1274.19,301.49Zm.39-213.39h91.11V300.84h-91.11Z"/>
          <path class="cls-20" d="M1386.43,301.49h91.87a.36.36,0,0,0,.39-.32V87.77a.36.36,0,0,0-.39-.32h-91.87a.36.36,0,0,0-.38.32v213.4A.35.35,0,0,0,1386.43,301.49Zm.38-213.39h91.11V300.84h-91.11Z"/>
          <path class="cls-20" d="M1497.64,72.7h-819c-.29,0-.53.14-.53.32V318.75c0,.17.24.32.53.32h819c.3,0,.54-.15.54-.32V73C1498.18,72.84,1497.94,72.7,1497.64,72.7Zm-.53,245.72H679.19V73.34h817.92Z"/>
          <g>
            <g>
              <path class="cls-17" d="M1265.34,295.72v-2l7.66,2.15V269.36l-7.66-2.16v-1.37a1.24,1.24,0,0,1,.58-1,1.78,1.78,0,0,1,1.51-.24l6.8,1.91a3.9,3.9,0,0,1,1.73,1,2.91,2.91,0,0,1,.87,2v27.25a2.34,2.34,0,0,1-1.08,1.92,3.35,3.35,0,0,1-2.76.42l-6.27-1.76a2.05,2.05,0,0,1-1-.62A1.5,1.5,0,0,1,1265.34,295.72Z"/>
              <path class="cls-21" d="M1269.17,266.1v29.1a1.78,1.78,0,0,1-1.91,1.62h0a1.79,1.79,0,0,1-1.92-1.62V266.1a1.79,1.79,0,0,1,1.92-1.61h0A1.78,1.78,0,0,1,1269.17,266.1Z"/>
              <path class="cls-22" d="M1266.68,264.49v32.33h0c-.21,0-.4-.18-.54-.47a2.77,2.77,0,0,1-.22-1.15V266.1a3.14,3.14,0,0,1,.15-1c.14-.39.36-.64.61-.64Z"/>
              <path class="cls-17" d="M1267.83,264.49v32.33h0a.59.59,0,0,0,.46-.32,2.52,2.52,0,0,0,.31-1.3V266.1a2.65,2.65,0,0,0-.26-1.21c-.14-.25-.31-.4-.51-.4Z"/>
              <path class="cls-23" d="M1269.55,266.1v29.1a2.33,2.33,0,0,1-4.59,0V266.1a2.33,2.33,0,0,1,4.59,0Zm-3.82,29.1a1.55,1.55,0,0,0,3.06,0V266.1a1.55,1.55,0,0,0-3.06,0Z"/>
            </g>
            <g>
              <path class="cls-17" d="M1253.86,295.72v-2l7.66,2.15V269.36l-7.66-2.16v-1.37a1.26,1.26,0,0,1,.57-1,1.8,1.8,0,0,1,1.52-.24l6.8,1.91a4,4,0,0,1,1.73,1,3,3,0,0,1,.86,2v27.25a2.34,2.34,0,0,1-1.08,1.92,3.33,3.33,0,0,1-2.75.42l-6.27-1.76a2.13,2.13,0,0,1-1-.62A1.54,1.54,0,0,1,1253.86,295.72Z"/>
              <path class="cls-21" d="M1257.69,266.1v29.1a1.79,1.79,0,0,1-1.92,1.62h0a1.78,1.78,0,0,1-1.91-1.62V266.1a1.78,1.78,0,0,1,1.91-1.61h0A1.79,1.79,0,0,1,1257.69,266.1Z"/>
              <path class="cls-22" d="M1255.2,264.49v32.33h0c-.21,0-.4-.18-.54-.47a2.77,2.77,0,0,1-.23-1.15V266.1a2.86,2.86,0,0,1,.16-1c.14-.39.36-.64.61-.64Z"/>
              <path class="cls-17" d="M1256.35,264.49v32.33h0a.59.59,0,0,0,.46-.32,2.63,2.63,0,0,0,.3-1.3V266.1a2.65,2.65,0,0,0-.26-1.21.62.62,0,0,0-.5-.4Z"/>
              <path class="cls-23" d="M1258.07,266.1v29.1a2.33,2.33,0,0,1-4.59,0V266.1a2.33,2.33,0,0,1,4.59,0Zm-3.83,29.1a1.55,1.55,0,0,0,3.06,0V266.1a1.55,1.55,0,0,0-3.06,0Z"/>
            </g>
            <g>
              <path class="cls-17" d="M1380.19,295.72v-2l7.65,2.15V269.36l-7.65-2.16v-1.37a1.23,1.23,0,0,1,.57-1,1.78,1.78,0,0,1,1.51-.24l6.81,1.91a3.92,3.92,0,0,1,1.72,1,2.91,2.91,0,0,1,.87,2v27.25a2.34,2.34,0,0,1-1.08,1.92,3.35,3.35,0,0,1-2.76.42l-6.26-1.76a2.09,2.09,0,0,1-1-.62A1.54,1.54,0,0,1,1380.19,295.72Z"/>
              <path class="cls-21" d="M1384,266.1v29.1a1.78,1.78,0,0,1-1.91,1.62h0a1.78,1.78,0,0,1-1.91-1.62V266.1a1.78,1.78,0,0,1,1.91-1.61h0A1.78,1.78,0,0,1,1384,266.1Z"/>
              <path class="cls-22" d="M1381.53,264.49v32.33h0c-.22,0-.41-.18-.55-.47a2.94,2.94,0,0,1-.22-1.15V266.1a3.14,3.14,0,0,1,.15-1c.14-.39.36-.64.62-.64Z"/>
              <path class="cls-17" d="M1382.67,264.49v32.33h0a.56.56,0,0,0,.46-.32,2.52,2.52,0,0,0,.31-1.3V266.1a2.65,2.65,0,0,0-.26-1.21.62.62,0,0,0-.51-.4Z"/>
              <path class="cls-23" d="M1384.4,266.1v29.1a2.33,2.33,0,0,1-4.6,0V266.1a2.33,2.33,0,0,1,4.6,0Zm-3.83,29.1a1.55,1.55,0,0,0,3.06,0V266.1a1.55,1.55,0,0,0-3.06,0Z"/>
            </g>
            <g>
              <path class="cls-17" d="M1046.48,295.25v-2l7.66,2.16V268.89l-7.66-2.16v-1.37a1.24,1.24,0,0,1,.58-1,1.78,1.78,0,0,1,1.51-.24l6.8,1.91a3.9,3.9,0,0,1,1.73,1,2.91,2.91,0,0,1,.87,2v27.25a2.34,2.34,0,0,1-1.08,1.92,3.35,3.35,0,0,1-2.76.42l-6.27-1.76a2.05,2.05,0,0,1-1-.62A1.5,1.5,0,0,1,1046.48,295.25Z"/>
              <path class="cls-21" d="M1050.31,265.63v29.1a1.79,1.79,0,0,1-1.91,1.62h0a1.79,1.79,0,0,1-1.92-1.62v-29.1a1.79,1.79,0,0,1,1.92-1.61h0A1.78,1.78,0,0,1,1050.31,265.63Z"/>
              <path class="cls-22" d="M1047.82,264v32.33h0c-.21,0-.4-.18-.54-.47a2.77,2.77,0,0,1-.22-1.15v-29.1a2.86,2.86,0,0,1,.15-1c.14-.39.36-.64.61-.64Z"/>
              <path class="cls-17" d="M1049,264v32.33h0a.59.59,0,0,0,.46-.32,2.52,2.52,0,0,0,.31-1.3v-29.1a2.65,2.65,0,0,0-.26-1.21c-.14-.25-.31-.4-.51-.4Z"/>
              <path class="cls-23" d="M1050.69,265.63v29.1a2.33,2.33,0,0,1-4.59,0v-29.1a2.33,2.33,0,0,1,4.59,0Zm-3.82,29.1a1.55,1.55,0,0,0,3.06,0v-29.1a1.55,1.55,0,0,0-3.06,0Z"/>
            </g>
            <g>
              <path class="cls-17" d="M1161.54,293.48v-2l7.66,2.16V267.12l-7.66-2.15v-1.38a1.26,1.26,0,0,1,.58-1,1.82,1.82,0,0,1,1.51-.24l6.8,1.92a3.72,3.72,0,0,1,1.73,1,2.9,2.9,0,0,1,.87,2v27.25a2.31,2.31,0,0,1-1.08,1.91,3.32,3.32,0,0,1-2.76.43l-6.27-1.77a1.92,1.92,0,0,1-1-.62A1.5,1.5,0,0,1,1161.54,293.48Z"/>
              <path class="cls-21" d="M1165.37,263.87V293a1.78,1.78,0,0,1-1.91,1.61h0a1.79,1.79,0,0,1-1.92-1.61v-29.1a1.79,1.79,0,0,1,1.92-1.62h0A1.79,1.79,0,0,1,1165.37,263.87Z"/>
              <path class="cls-22" d="M1162.88,262.25v32.33h0c-.21,0-.4-.18-.54-.47a2.72,2.72,0,0,1-.22-1.14v-29.1a2.82,2.82,0,0,1,.15-1c.14-.39.36-.65.61-.65Z"/>
              <path class="cls-17" d="M1164,262.25v32.33h0a.59.59,0,0,0,.46-.32,2.45,2.45,0,0,0,.31-1.29v-29.1a2.62,2.62,0,0,0-.26-1.21c-.14-.26-.32-.41-.51-.41Z"/>
              <path class="cls-23" d="M1165.75,263.87V293a2.33,2.33,0,0,1-4.59,0v-29.1a2.33,2.33,0,0,1,4.59,0Zm-3.82,29.1a1.55,1.55,0,0,0,3.06,0v-29.1a1.55,1.55,0,0,0-3.06,0Z"/>
            </g>
            <g>
              <path class="cls-17" d="M1022.26,295.72v-2l7.66,2.15V269.36l-7.66-2.16v-1.37a1.26,1.26,0,0,1,.57-1,1.81,1.81,0,0,1,1.52-.24l6.8,1.91a3.9,3.9,0,0,1,1.73,1,2.91,2.91,0,0,1,.87,2v27.25a2.34,2.34,0,0,1-1.08,1.92,3.35,3.35,0,0,1-2.76.42l-6.27-1.76a2.05,2.05,0,0,1-1-.62A1.5,1.5,0,0,1,1022.26,295.72Z"/>
              <path class="cls-21" d="M1026.09,266.1v29.1a1.78,1.78,0,0,1-1.91,1.62h0a1.79,1.79,0,0,1-1.92-1.62V266.1a1.79,1.79,0,0,1,1.92-1.61h0A1.78,1.78,0,0,1,1026.09,266.1Z"/>
              <path class="cls-22" d="M1023.6,264.49v32.33h0c-.21,0-.4-.18-.54-.47a2.77,2.77,0,0,1-.22-1.15V266.1a2.86,2.86,0,0,1,.15-1c.14-.39.36-.64.61-.64Z"/>
              <path class="cls-17" d="M1024.75,264.49v32.33h0a.59.59,0,0,0,.46-.32,2.52,2.52,0,0,0,.31-1.3V266.1a2.65,2.65,0,0,0-.26-1.21c-.14-.25-.32-.4-.51-.4Z"/>
              <path class="cls-23" d="M1026.47,266.1v29.1a2.33,2.33,0,0,1-4.59,0V266.1a2.33,2.33,0,0,1,4.59,0Zm-3.83,29.1a1.56,1.56,0,0,0,3.07,0V266.1a1.56,1.56,0,0,0-3.07,0Z"/>
            </g>
            <g>
              <path class="cls-17" d="M930.14,295.72v-2l7.66,2.15V269.36l-7.66-2.16v-1.37a1.24,1.24,0,0,1,.58-1,1.78,1.78,0,0,1,1.51-.24l6.8,1.91a3.9,3.9,0,0,1,1.73,1,2.91,2.91,0,0,1,.87,2v27.25a2.34,2.34,0,0,1-1.08,1.92,3.35,3.35,0,0,1-2.76.42l-6.27-1.76a2.05,2.05,0,0,1-1-.62A1.5,1.5,0,0,1,930.14,295.72Z"/>
              <path class="cls-21" d="M934,266.1v29.1a1.78,1.78,0,0,1-1.91,1.62h0a1.79,1.79,0,0,1-1.92-1.62V266.1a1.79,1.79,0,0,1,1.92-1.61h0A1.78,1.78,0,0,1,934,266.1Z"/>
              <path class="cls-22" d="M931.48,264.49v32.33h0c-.21,0-.4-.18-.54-.47a2.77,2.77,0,0,1-.22-1.15V266.1a3.14,3.14,0,0,1,.15-1c.14-.39.36-.64.61-.64Z"/>
              <path class="cls-17" d="M932.63,264.49v32.33h0a.59.59,0,0,0,.46-.32,2.52,2.52,0,0,0,.31-1.3V266.1a2.65,2.65,0,0,0-.26-1.21c-.14-.25-.31-.4-.51-.4Z"/>
              <path class="cls-23" d="M934.36,266.1v29.1a2.33,2.33,0,0,1-4.6,0V266.1a2.33,2.33,0,0,1,4.6,0Zm-3.83,29.1a1.55,1.55,0,0,0,3.06,0V266.1a1.55,1.55,0,0,0-3.06,0Z"/>
            </g>
            <g>
              <path class="cls-17" d="M803.44,295.72v-2l7.65,2.15V269.36l-7.65-2.16v-1.37a1.26,1.26,0,0,1,.57-1,1.78,1.78,0,0,1,1.51-.24l6.81,1.91a4,4,0,0,1,1.73,1,3,3,0,0,1,.86,2v27.25a2.34,2.34,0,0,1-1.08,1.92,3.34,3.34,0,0,1-2.76.42l-6.26-1.76a2.09,2.09,0,0,1-1-.62A1.54,1.54,0,0,1,803.44,295.72Z"/>
              <path class="cls-21" d="M807.27,266.1v29.1a1.79,1.79,0,0,1-1.92,1.62h0a1.78,1.78,0,0,1-1.91-1.62V266.1a1.78,1.78,0,0,1,1.91-1.61h0A1.79,1.79,0,0,1,807.27,266.1Z"/>
              <path class="cls-22" d="M804.78,264.49v32.33h0c-.21,0-.4-.18-.54-.47a2.77,2.77,0,0,1-.23-1.15V266.1a2.86,2.86,0,0,1,.16-1c.14-.39.36-.64.61-.64Z"/>
              <path class="cls-17" d="M805.93,264.49v32.33h0a.59.59,0,0,0,.46-.32,2.63,2.63,0,0,0,.3-1.3V266.1a2.65,2.65,0,0,0-.26-1.21.62.62,0,0,0-.5-.4Z"/>
              <path class="cls-23" d="M807.65,266.1v29.1a2.33,2.33,0,0,1-4.59,0V266.1a2.33,2.33,0,0,1,4.59,0Zm-3.83,29.1a1.55,1.55,0,0,0,3.06,0V266.1a1.55,1.55,0,0,0-3.06,0Z"/>
            </g>
            <g>
              <path class="cls-17" d="M689.09,295.72v-2l7.65,2.15V269.36l-7.65-2.16v-1.37a1.23,1.23,0,0,1,.57-1,1.78,1.78,0,0,1,1.51-.24l6.81,1.91a3.92,3.92,0,0,1,1.72,1,2.91,2.91,0,0,1,.87,2v27.25a2.34,2.34,0,0,1-1.08,1.92,3.35,3.35,0,0,1-2.76.42l-6.26-1.76a2,2,0,0,1-1-.62A1.54,1.54,0,0,1,689.09,295.72Z"/>
              <path class="cls-21" d="M692.91,266.1v29.1a1.78,1.78,0,0,1-1.91,1.62h0a1.78,1.78,0,0,1-1.91-1.62V266.1a1.78,1.78,0,0,1,1.91-1.61h0A1.78,1.78,0,0,1,692.91,266.1Z"/>
              <path class="cls-22" d="M690.43,264.49v32.33h0c-.22,0-.41-.18-.55-.47a2.94,2.94,0,0,1-.22-1.15V266.1a3.14,3.14,0,0,1,.15-1c.14-.39.36-.64.62-.64Z"/>
              <path class="cls-17" d="M691.57,264.49v32.33h0a.57.57,0,0,0,.46-.32,2.52,2.52,0,0,0,.31-1.3V266.1a2.65,2.65,0,0,0-.26-1.21.62.62,0,0,0-.51-.4Z"/>
              <path class="cls-23" d="M693.3,266.1v29.1a2.33,2.33,0,0,1-4.6,0V266.1a2.33,2.33,0,0,1,4.6,0Zm-3.83,29.1a1.55,1.55,0,0,0,3.06,0V266.1a1.55,1.55,0,0,0-3.06,0Z"/>
            </g>
          </g>
          <g id="box">
            <rect class="cls-24" x="1314.68" y="608.72" width="65.08" height="22.63"/>
            <rect class="cls-25" x="1320.42" y="613.57" width="17.23" height="14.55"/>
            <rect class="cls-25" x="1339.56" y="613.57" width="3.83" height="14.55"/>
            <rect class="cls-25" x="1356.79" y="613.57" width="19.14" height="4.85"/>
            <path class="cls-26" d="M1379.75,631.68h-65.07a.37.37,0,0,1-.39-.33V608.72a.36.36,0,0,1,.39-.32h65.07a.36.36,0,0,1,.39.32v22.63A.36.36,0,0,1,1379.75,631.68Zm-64.69-.65h64.31V609h-64.31Z"/>
          </g>
          <g id="bottle">
            <g>
              <path class="cls-27" d="M1357.5,630.85H1346a2.5,2.5,0,0,1-1.62-.56,1.81,1.81,0,0,1-.68-1.38V610.48a2.77,2.77,0,0,1,1.2-2.2,3.82,3.82,0,0,1,2.25-.71h9.19a3.7,3.7,0,0,1,2.6,1,2.67,2.67,0,0,1,.84,1.9v18.43a1.79,1.79,0,0,1-.66,1.37A2.57,2.57,0,0,1,1357.5,630.85Z"/>
              <polygon class="cls-19" points="1355.21 606.61 1355.21 601.75 1348.32 601.75 1348.32 606.61 1347.17 606.61 1347.17 607.58 1356.36 607.58 1356.36 606.61 1355.21 606.61"/>
            </g>
            <rect class="cls-28" x="1343.72" y="615.33" width="16.08" height="7.76"/>
            <path class="cls-29" d="M1349.47,607.57c.34,0,.65.39.86,1a5.9,5.9,0,0,1,.28,1.9v18.43a3.81,3.81,0,0,1-.22,1.37c-.14.35-.33.57-.54.57h-.77c-.21,0-.4-.21-.54-.56a3.91,3.91,0,0,1-.22-1.38V610.48a5.63,5.63,0,0,1,.39-2.2C1348.92,607.84,1349.18,607.57,1349.47,607.57Z"/>
            <g>
              <path class="cls-17" d="M1347.17,607.57a3.82,3.82,0,0,0-2.25.71,2.73,2.73,0,0,0-1.2,2.2v18.43a1.81,1.81,0,0,0,.68,1.38,2.5,2.5,0,0,0,1.62.56h1.84a2.53,2.53,0,0,1-1.63-.56,1.84,1.84,0,0,1-.67-1.38V610.48a2.74,2.74,0,0,1,1.19-2.2,3.85,3.85,0,0,1,2.26-.71h-.69v-1h-1.15Z"/>
              <rect class="cls-17" x="1348.32" y="601.76" width="1.15" height="4.85"/>
              <path class="cls-17" d="M1359,608.58a3.7,3.7,0,0,0-2.6-1v-1h-1.15v1h-.69a3.7,3.7,0,0,1,2.6,1,2.63,2.63,0,0,1,.84,1.9v18.43a1.79,1.79,0,0,1-.66,1.37,2.54,2.54,0,0,1-1.63.57h1.83a2.57,2.57,0,0,0,1.64-.57,1.79,1.79,0,0,0,.66-1.37V610.48A2.67,2.67,0,0,0,1359,608.58Z"/>
              <rect class="cls-17" x="1354.06" y="601.76" width="1.15" height="4.85"/>
            </g>
            <g>
              <path class="cls-23" d="M1356.36,606.28h-.77v-4.52a.36.36,0,0,0-.38-.33h-6.89a.37.37,0,0,0-.39.33v4.52h-.76a.36.36,0,0,0-.38.32v1a.36.36,0,0,0,.38.33h9.19a.36.36,0,0,0,.38-.33v-1A.36.36,0,0,0,1356.36,606.28Zm-7.66-4.2h6.12v4.2h-6.12Zm7.27,5.17h-8.42v-.32H1356Z"/>
              <path class="cls-30" d="M1357.5,631.18H1346a2.89,2.89,0,0,1-1.89-.67,2.06,2.06,0,0,1-.79-1.6V610.48a3,3,0,0,1,1.33-2.44,4.23,4.23,0,0,1,2.5-.79h9.19a4.15,4.15,0,0,1,2.89,1.12,3,3,0,0,1,.93,2.11v18.43a2.07,2.07,0,0,1-.77,1.59A2.9,2.9,0,0,1,1357.5,631.18Zm-10.33-23.28a3.35,3.35,0,0,0-2,.63,2.41,2.41,0,0,0-1.06,2v18.43a1.5,1.5,0,0,0,.56,1.15,2.11,2.11,0,0,0,1.35.47h11.48a2.12,2.12,0,0,0,1.37-.48,1.51,1.51,0,0,0,.55-1.14V610.48a2.37,2.37,0,0,0-.75-1.69,3.31,3.31,0,0,0-2.31-.89Z"/>
            </g>
          </g>
          <g id="box-2" data-name="box">
            <g>
              <path class="cls-19" d="M1308.79,630.28H1282a2.08,2.08,0,0,1-1.48-.59,1.46,1.46,0,0,1-.43-1v-38.8h30.62v38.8a1.49,1.49,0,0,1-.56,1.14A2.08,2.08,0,0,1,1308.79,630.28Z"/>
              <path class="cls-31" d="M1310.7,589.87h-30.62V585a1.47,1.47,0,0,1,.51-1.1,2.08,2.08,0,0,1,1.4-.52h26.8a2,2,0,0,1,1.41.53,1.47,1.47,0,0,1,.5,1.09Z"/>
            </g>
            <rect class="cls-21" x="1280.08" y="601.18" width="30.62" height="14.55"/>
            <g>
              <path class="cls-32" d="M1283.91,585a1.47,1.47,0,0,1,.51-1.1,2.08,2.08,0,0,1,1.4-.52H1282a2.08,2.08,0,0,0-1.4.52,1.47,1.47,0,0,0-.51,1.1v43.65a1.47,1.47,0,0,0,.43,1,2.08,2.08,0,0,0,1.48.59h3.83a2.06,2.06,0,0,1-1.48-.59,1.47,1.47,0,0,1-.43-1V585Z"/>
              <path class="cls-32" d="M1310.2,583.93a2,2,0,0,0-1.41-.53H1305a2,2,0,0,1,1.41.53,1.5,1.5,0,0,1,.51,1.09v43.65a1.52,1.52,0,0,1-.56,1.14,2.13,2.13,0,0,1-1.36.47h3.83a2.13,2.13,0,0,0,1.36-.47,1.51,1.51,0,0,0,.55-1.14V585A1.49,1.49,0,0,0,1310.2,583.93Z"/>
            </g>
            <rect class="cls-22" x="1287.74" y="583.4" width="3.83" height="46.88"/>
            <path class="cls-20" d="M1308.79,630.61H1282a2.47,2.47,0,0,1-1.77-.71,1.77,1.77,0,0,1-.52-1.23v-38.8a.36.36,0,0,1,.38-.33h30.62a.36.36,0,0,1,.39.33v38.8a1.79,1.79,0,0,1-.68,1.37A2.54,2.54,0,0,1,1308.79,630.61Zm-28.33-40.42v38.48a1.21,1.21,0,0,0,.35.82,1.64,1.64,0,0,0,1.18.47h26.8a1.69,1.69,0,0,0,1.08-.38,1.19,1.19,0,0,0,.45-.91V590.19Z"/>
            <path class="cls-33" d="M1310.7,590.19h-30.62a.35.35,0,0,1-.38-.32V585a1.76,1.76,0,0,1,.61-1.32,2.49,2.49,0,0,1,1.68-.62h26.8a2.55,2.55,0,0,1,1.7.63,1.81,1.81,0,0,1,.6,1.31v4.85A.36.36,0,0,1,1310.7,590.19Zm-30.24-.65h29.86V585a1.15,1.15,0,0,0-.4-.87,1.67,1.67,0,0,0-1.13-.43H1282a1.65,1.65,0,0,0-1.12.42,1.2,1.2,0,0,0-.41.88Z"/>
          </g>
          <rect class="cls-1" width="1600" height="900"/>
          <g>
            <g>
              <rect class="cls-19" x="190.73" y="132.41" width="137.7" height="145.78"/>
              <rect class="cls-34" x="190.73" y="121.11" width="137.81" height="11.3"/>
            </g>
            <rect class="cls-35" x="199.35" y="140.44" width="121.3" height="129.89"/>
            <path class="cls-36" d="M199.35,177.9s20.44,0,32.12,17.52,47.42,15.63,58.93-1.89a35.69,35.69,0,0,1,30.24-16.32v93.12H199.35Z"/>
            <g>
              <path class="cls-37" d="M281.93,249.1a5.43,5.43,0,0,1-5.16-3.84l-8.58-28.69a8.84,8.84,0,0,0-8.53-6.35,8.75,8.75,0,0,0-8.48,6.21L242,245.35a5.41,5.41,0,0,1-1.95,2.72,5.32,5.32,0,0,1-3.18,1,5.39,5.39,0,0,1-5.39-5.38V213.61a18.14,18.14,0,0,1,1.65-7.54l1.06-2.32L232.36,202a20.27,20.27,0,0,1-6.22-14.65v-8.17a20.37,20.37,0,0,1,31.53-17l2,1.29,2-1.29a20.37,20.37,0,0,1,31.53,17v8.17a20.29,20.29,0,0,1-6,14.46l-1.81,1.79,1.09,2.31a17.92,17.92,0,0,1,1.75,7.72v30.11a5.39,5.39,0,0,1-5.39,5.38Z"/>
              <path class="cls-19" d="M272.77,162.39a16.79,16.79,0,0,1,16.77,16.77v8.17a16.67,16.67,0,0,1-5,11.9L281,202.82l2.18,4.61a14.31,14.31,0,0,1,1.4,6.18v30.11a1.78,1.78,0,0,1-1.78,1.77h-.84a1.8,1.8,0,0,1-1.71-1.27l-.62-2.08-8-26.61a12.51,12.51,0,0,0-23.9-.2l-8.5,26.75-.68,2.16a1.88,1.88,0,0,1-.65.92,1.79,1.79,0,0,1-2.83-1.44V213.61a14.46,14.46,0,0,1,1.32-6l2.12-4.63-3.65-3.55a16.67,16.67,0,0,1-5.13-12.06v-8.17a16.77,16.77,0,0,1,25.94-14l3.95,2.6,4-2.6a17,17,0,0,1,4.29-2,16.76,16.76,0,0,1,4.88-.72m0-7.22a23.8,23.8,0,0,0-13.13,3.92,24,24,0,0,0-37.11,20.07v8.17a24,24,0,0,0,7.32,17.24,21.65,21.65,0,0,0-2,9v30.11a9,9,0,0,0,17.57,2.72l.69-2.16,8.49-26.76a5.29,5.29,0,0,1,10.12.08l7.94,26.61.63,2.09a9,9,0,0,0,8.62,6.41h.84a9,9,0,0,0,9-9V213.61a21.65,21.65,0,0,0-2.09-9.27,23.92,23.92,0,0,0,7.08-17v-8.17a24,24,0,0,0-24-24Z"/>
              <path class="cls-38" d="M281.71,270.33l-12.82-53.74a9.27,9.27,0,0,0-17.72-.15l-16,53.89h-2.7l9.28-55.16a10.74,10.74,0,0,1,1-4.48l1.57-3.44-2.71-2.63a12.34,12.34,0,0,1-3.8-8.93v-6.07a12.42,12.42,0,0,1,19.23-10.4l2.93,1.92,2.94-1.92a12.19,12.19,0,0,1,6.79-2,12.45,12.45,0,0,1,12.44,12.43v6.07a12.35,12.35,0,0,1-3.68,8.81l-2.67,2.67,1.61,3.41a10.65,10.65,0,0,1,1,4.59l5.5,55.16Z"/>
            </g>
          </g>
          <g>
            <g>
              <g>
                <rect class="cls-39" x="1135.79" y="571.97" width="36.65" height="49.67"/>
                <rect class="cls-40" x="1143.55" y="569.09" width="38.43" height="52.55"/>
                <rect class="cls-39" x="1146.72" y="569.09" width="38.43" height="52.55"/>
                <rect class="cls-38" x="1153.7" y="573.71" width="18.75" height="47.93"/>
                <rect class="cls-41" x="1157.28" y="573.71" width="36.13" height="47.93"/>
              </g>
              <g>
                <path class="cls-40" d="M1172.45,616.07v4.09a1.57,1.57,0,0,0,1.67,1.46H1228v-.26h-1l1-6.34v-.41h-53.89A1.58,1.58,0,0,0,1172.45,616.07Z"/>
                <path class="cls-19" d="M1206.38,616.47v3.44a1.57,1.57,0,0,0,1.67,1.45h19.58l.29-4.85L1228,615h-20A1.57,1.57,0,0,0,1206.38,616.47Z"/>
                <path class="cls-39" d="M1179.79,609.07v4.09a1.57,1.57,0,0,0,1.67,1.45h41.06v-.25h-1l1-6.34v-.41h-41.06A1.57,1.57,0,0,0,1179.79,609.07Z"/>
                <path class="cls-19" d="M1195.49,609.45v3.45a1.57,1.57,0,0,0,1.67,1.46h25l.29-4.91.09-1.43h-25.36A1.58,1.58,0,0,0,1195.49,609.45Z"/>
                <g class="cls-42">
                  <path class="cls-43" d="M1195.49,609.45h26.94l.09-1.43h-25.36A1.58,1.58,0,0,0,1195.49,609.45Z"/>
                </g>
                <path class="cls-44" d="M1217.44,600.61h-41.06v.4l1,6.35h-1v.25h41.06a1.57,1.57,0,0,0,1.67-1.46v-4.09A1.57,1.57,0,0,0,1217.44,600.61Z"/>
                <path class="cls-45" d="M1211.87,600.61h-4.46a1.58,1.58,0,0,1,1.68,1.45v4.1a1.58,1.58,0,0,1-1.68,1.45h4.46a1.57,1.57,0,0,0,1.67-1.45v-4.1A1.57,1.57,0,0,0,1211.87,600.61Z"/>
                <path class="cls-46" d="M1189.91,607.61h-4.46a1.57,1.57,0,0,0-1.67,1.46v4.09a1.57,1.57,0,0,0,1.67,1.45h4.46a1.58,1.58,0,0,1-1.68-1.45v-4.09A1.58,1.58,0,0,1,1189.91,607.61Z"/>
                <path class="cls-39" d="M1186.68,614.61h-4.45a1.58,1.58,0,0,0-1.68,1.46v4.09a1.58,1.58,0,0,0,1.68,1.46h4.45a1.57,1.57,0,0,1-1.67-1.46v-4.09A1.58,1.58,0,0,1,1186.68,614.61Z"/>
                <path class="cls-19" d="M1188.72,601h-12.34l.09,1.44.29,4.91h12a1.57,1.57,0,0,0,1.67-1.46v-3.45A1.58,1.58,0,0,0,1188.72,601Z"/>
                <g class="cls-42">
                  <path class="cls-43" d="M1188.72,601h-12.34l.09,1.44h13.92A1.58,1.58,0,0,0,1188.72,601Z"/>
                </g>
                <g class="cls-42">
                  <path class="cls-43" d="M1206.38,616.47v0h21.54L1228,615h-20A1.57,1.57,0,0,0,1206.38,616.47Z"/>
                </g>
                <g class="cls-47">
                  <polygon class="cls-43" points="1195.49 617.14 1222.52 614.61 1181.46 614.61 1195.49 617.14"/>
                </g>
                <g class="cls-47">
                  <polygon class="cls-43" points="1190.2 609.22 1217.65 607.61 1181.71 607.61 1190.2 609.22"/>
                </g>
              </g>
            </g>
            <g>
              <g>
                <rect class="cls-19" x="1048.9" y="633.29" width="82.19" height="138.49"/>
                <rect class="cls-48" x="1067.23" y="633.29" width="28.23" height="3.38" transform="translate(2162.7 1269.96) rotate(180)"/>
                <rect class="cls-48" x="1067.23" y="669.7" width="28.23" height="3.38" transform="translate(2162.7 1342.77) rotate(180)"/>
                <rect class="cls-48" x="1048.88" y="629.89" width="82.23" height="3.38" transform="translate(2180 1263.16) rotate(180)"/>
                <rect class="cls-48" x="1067.23" y="704.85" width="28.23" height="3.38" transform="translate(2162.7 1413.08) rotate(180)"/>
                <rect class="cls-48" x="1048.9" y="701.47" width="82.23" height="3.38" transform="translate(2180.03 1406.32) rotate(180)"/>
                <rect class="cls-48" x="1067.23" y="740.01" width="28.23" height="3.38" transform="translate(2162.7 1483.4) rotate(180)"/>
                <rect class="cls-48" x="1048.9" y="736.63" width="82.23" height="3.38" transform="translate(2180.03 1476.64) rotate(180)"/>
                <rect class="cls-45" x="1131.09" y="633.29" width="74.68" height="138.49"/>
              </g>
              <g>
                <rect class="cls-19" x="1336.24" y="633.29" width="87.51" height="138.49"/>
                <rect class="cls-19" x="1427.65" y="633.29" width="87.51" height="138.49"/>
                <rect class="cls-19" x="1518.63" y="633.29" width="87.5" height="138.49"/>
                <rect class="cls-19" x="1244.83" y="633.29" width="87.51" height="138.49"/>
                <rect class="cls-48" x="1268.47" y="633.29" width="28.23" height="3.38" transform="translate(2565.18 1269.96) rotate(180)"/>
                <rect class="cls-48" x="1367.71" y="633.29" width="28.23" height="3.38" transform="translate(2763.65 1269.96) rotate(180)"/>
                <rect class="cls-48" x="1506.9" y="703.06" width="26.58" height="3.59" transform="translate(815.34 2225.04) rotate(-90)"/>
                <rect class="cls-48" x="1268.47" y="669.7" width="28.23" height="3.38" transform="translate(2565.18 1342.77) rotate(180)"/>
                <rect class="cls-48" x="1244.83" y="666.32" width="87.55" height="3.38" transform="translate(2577.2 1336.01) rotate(180)"/>
                <rect class="cls-49" x="1048.88" y="629.89" width="156.92" height="3.38" transform="translate(2254.68 1263.16) rotate(180)"/>
                <rect class="cls-49" x="1244.81" y="629.89" width="361.32" height="3.38"/>
                <rect class="cls-48" x="1268.47" y="704.85" width="28.23" height="3.38" transform="translate(2565.18 1413.08) rotate(180)"/>
                <rect class="cls-48" x="1244.83" y="701.47" width="87.55" height="3.38" transform="translate(2577.2 1406.32) rotate(180)"/>
                <rect class="cls-48" x="1268.47" y="740.01" width="28.23" height="3.38" transform="translate(2565.18 1483.4) rotate(180)"/>
                <rect class="cls-48" x="1244.83" y="736.63" width="87.55" height="3.38" transform="translate(2577.2 1476.64) rotate(180)"/>
                <rect class="cls-48" x="1451.29" y="633.29" width="28.23" height="3.38" transform="translate(2930.82 1269.96) rotate(180)"/>
                <rect class="cls-48" x="1451.29" y="669.7" width="28.23" height="3.38" transform="translate(2930.82 1342.77) rotate(180)"/>
                <rect class="cls-48" x="1427.65" y="666.32" width="87.55" height="3.38" transform="translate(2942.84 1336.01) rotate(180)"/>
                <rect class="cls-48" x="1451.29" y="704.85" width="28.23" height="3.38" transform="translate(2930.82 1413.08) rotate(180)"/>
                <rect class="cls-48" x="1427.65" y="701.47" width="87.55" height="3.38" transform="translate(2942.84 1406.32) rotate(180)"/>
                <rect class="cls-48" x="1451.29" y="740.01" width="28.23" height="3.38" transform="translate(2930.82 1483.4) rotate(180)"/>
                <rect class="cls-48" x="1427.65" y="736.63" width="87.55" height="3.38" transform="translate(2942.84 1476.64) rotate(180)"/>
              </g>
              <rect class="cls-48" x="1332.34" y="633.29" width="3.9" height="138.49"/>
              <rect class="cls-48" x="1423.75" y="633.29" width="3.9" height="138.49"/>
              <rect class="cls-48" x="1515.16" y="633.29" width="3.9" height="138.49"/>
              <rect class="cls-19" x="1048.88" y="621.64" width="557.25" height="8.25"/>
              <rect class="cls-50" x="1131.12" y="629.89" width="74.66" height="28.3"/>
            </g>
            <g>
              <g>
                <path class="cls-19" d="M1244.84,608.22h5.75a.42.42,0,0,1,.42.42v2.14a0,0,0,0,1,0,0h-6.58a0,0,0,0,1,0,0v-2.14A.42.42,0,0,1,1244.84,608.22Z"/>
                <g>
                  <path class="cls-51" d="M1245.05,610.77h-.34v-1.55a.18.18,0,0,1,.17-.17h0a.17.17,0,0,1,.17.17Z"/>
                  <path class="cls-51" d="M1245.86,610.77h-.34v-1.55a.18.18,0,0,1,.17-.17h0a.18.18,0,0,1,.17.17Z"/>
                  <path class="cls-51" d="M1246.66,610.77h-.33v-1.55a.17.17,0,0,1,.17-.17h0a.17.17,0,0,1,.16.17Z"/>
                  <path class="cls-51" d="M1247.47,610.77h-.34v-1.55a.18.18,0,0,1,.17-.17h0a.17.17,0,0,1,.17.17Z"/>
                  <path class="cls-51" d="M1248.28,610.77h-.34v-1.55a.18.18,0,0,1,.17-.17h0a.18.18,0,0,1,.17.17Z"/>
                  <path class="cls-51" d="M1249.08,610.77h-.33v-1.55a.17.17,0,0,1,.17-.17h0a.17.17,0,0,1,.16.17Z"/>
                  <path class="cls-51" d="M1249.89,610.77h-.33v-1.55a.17.17,0,0,1,.16-.17h0a.17.17,0,0,1,.17.17Z"/>
                  <path class="cls-51" d="M1250.7,610.77h-.34v-1.55a.18.18,0,0,1,.17-.17h0a.18.18,0,0,1,.17.17Z"/>
                </g>
                <rect class="cls-52" x="1244.86" y="611.31" width="5.62" height="0.66"/>
                <path class="cls-53" d="M1244.19,611.91h6.56a1.66,1.66,0,0,1,1.66,1.66v8.07a0,0,0,0,1,0,0h-9.88a0,0,0,0,1,0,0v-8.07A1.66,1.66,0,0,1,1244.19,611.91Z"/>
                <rect class="cls-53" x="1244.71" y="610.77" width="6" height="0.54"/>
                <rect class="cls-19" x="1242.53" y="614.68" width="10.24" height="4.72"/>
              </g>
              <g>
                <rect class="cls-54" x="1250.18" y="614.02" width="5.15" height="7.62"/>
                <rect class="cls-19" x="1249.71" y="612.51" width="6.09" height="1.51"/>
                <rect class="cls-19" x="1252.76" y="615.41" width="2.58" height="4.33"/>
                <path class="cls-55" d="M1253.45,616.06h1.88a0,0,0,0,1,0,0v.38a0,0,0,0,1,0,0h-1.88a.18.18,0,0,1-.18-.18v0A.18.18,0,0,1,1253.45,616.06Z"/>
                <path class="cls-55" d="M1253.45,616.87h1.88a0,0,0,0,1,0,0v.38a0,0,0,0,1,0,0h-1.88a.18.18,0,0,1-.18-.18v0A.18.18,0,0,1,1253.45,616.87Z"/>
                <path class="cls-55" d="M1253.45,617.7h1.88a0,0,0,0,1,0,0v.38a0,0,0,0,1,0,0h-1.88a.18.18,0,0,1-.18-.18v0A.18.18,0,0,1,1253.45,617.7Z"/>
                <path class="cls-55" d="M1253.45,618.53h1.88a0,0,0,0,1,0,0v.38a0,0,0,0,1,0,0h-1.88a.18.18,0,0,1-.18-.18v0A.18.18,0,0,1,1253.45,618.53Z"/>
                <g class="cls-42">
                  <rect class="cls-43" x="1253.88" y="614.02" width="1.45" height="7.62"/>
                </g>
                <g class="cls-56">
                  <rect class="cls-43" x="1250.18" y="614.02" width="5.15" height="0.8"/>
                </g>
              </g>
            </g>
          </g>
          <g>
            <rect class="cls-57" x="404.37" y="123.85" width="157.56" height="157.56"/>
            <g>
              <path class="cls-58" d="M479.68,179.81c.77.27,1.39,0,2.6-.51a35,35,0,0,1,6.15-2.06,13.38,13.38,0,0,1,2-.33,18,18,0,0,1,9.65,2,11.65,11.65,0,0,1,6.27,7.43,9.07,9.07,0,0,1,.24,1.46,93.19,93.19,0,0,1,0,17.37c-.5,4.41-1.48,8.47-3.24,11.11a26.54,26.54,0,0,0-3.48,7.65c-.77,2.9-.85,5.26-.43,6.32.11.28.28.67.5,1.16,1.56,3.58,5.26,12.06,4.23,17.87a6.9,6.9,0,0,1-1.53,3.66,2.44,2.44,0,0,1-1.85.8,3,3,0,0,1-1.76-.67,7.61,7.61,0,0,1-2.31-3.52,32.62,32.62,0,0,0-4.31-8c-1.58-2.16-3.29-3.94-4.72-4.57a2.49,2.49,0,0,0-2-.05c.27,2.25.77,10.82-5,21.53a3.63,3.63,0,0,1-1.83,1.8,2.49,2.49,0,0,1-1.74,0,3,3,0,0,1-1.36-1,5.24,5.24,0,0,1-1.09-3.34,56,56,0,0,0-1.38-11.67,18.19,18.19,0,0,0-2.85-6.79,7.16,7.16,0,0,1-.45.66,18.11,18.11,0,0,0-1.83,3,66.67,66.67,0,0,0-2.86,6.65c-.1.26-.19.54-.3.84s-.28.82-.44,1.24c-1.14,3.15-2.93,7.1-5.69,6.1-1.61-.59-2.66-3.26-3-6.58a28.34,28.34,0,0,1,.62-10c.65-2.4,1.37-4.34,2-6a17.93,17.93,0,0,0,1.54-5.95c0-1.48-1-4.31-2.11-7.38a51.14,51.14,0,0,1-2.78-9.63,91.64,91.64,0,0,1,.6-20.27c.77-5.05,2.15-9.44,4.48-11.18,5.57-4.16,9.92-2.62,18.51.45Z"/>
              <path class="cls-59" d="M479.34,180.76c2.11.75,2.87-1,9.33-2.54s16.25,2.06,16.92,9.63.89,21.82-3.12,27.83-4.9,12.69-4,14.92,5.79,12.16,4.68,18.47c-1,5.81-4.26,3.69-5.48.12-1.53-4.5-6.11-11.62-9.6-13.15-2.09-.91-3.75.47-3.44.47,0,0,1.75,9.28-4.77,21.47-1.51,2.83-4.1,1.11-4.1-2s-.66-14.69-4.67-19.37c-1.91-1.32-5.79,8.47-6.68,10.91s-2.67,8.46-5.12,7.57-3.34-9.57-1.78-15.36,3.56-8.9,3.56-12.24-4.23-11.8-4.89-17.14-.66-26.52,4.67-30.5S470.46,177.61,479.34,180.76Z"/>
              <path class="cls-60" d="M489.33,187.85c-8.67-3.74-7.24-6.8-.79-8.36s15.14.79,15.81,8.36,1.76,21-2.25,27-6.77,10.53-6,12.79,6.44,10.76,5.79,17.07c-.6,5.86-3,3.32-4.17-.25-1.53-4.5-4.26-8.47-7.51-10.46-2.56-1.57-4.51-1.37-8.1-5.66,0,0,5.1,12.38-1.42,24.56-1.51,2.83-3.35,1.12-3.35-2s-.42-12.11-4.43-16.78c-1.91-1.33-7.42,7.64-8.31,10.08s-2.22,6.24-4.67,5.35-1.23-4.68.33-10.47,5-9.12,5-12.46S459.06,221,458.17,211c-.48-5.37-3.1-25.85,5.34-31.39S479.09,188.52,489.33,187.85Z"/>
            </g>
            <rect class="cls-61" x="399.54" y="123.85" width="167.22" height="7.17"/>
            <rect class="cls-62" x="404.37" y="131.02" width="157.56" height="3.61"/>
            <rect class="cls-63" x="395.63" y="121.11" width="4.06" height="12.64" rx="2.03"/>
            <rect class="cls-63" x="566.31" y="121.11" width="4.06" height="12.64" rx="2.03"/>
            <polygon class="cls-58" points="494.22 183.87 508.14 167.96 508.32 167.76 508.59 167.76 552.95 167.76 552.95 168.96 508.86 168.96 495.13 184.66 494.22 183.87"/>
            <g>
              <rect class="cls-62" x="515.67" y="151.06" width="36.48" height="1.38"/>
              <path class="cls-58" d="M515.67,154.08h36.48v1.38H515.67Z"/>
              <path class="cls-58" d="M515.67,157.11h36.48v1.38H515.67Z"/>
              <path class="cls-58" d="M515.67,160.14h36.48v1.38H515.67Z"/>
              <rect class="cls-62" x="515.67" y="163.17" width="36.48" height="1.38"/>
            </g>
            <polygon class="cls-58" points="465.81 195.6 452.08 179.91 410.6 179.91 410.6 178.7 452.35 178.7 452.62 178.7 452.8 178.91 466.72 194.81 465.81 195.6"/>
            <g>
              <rect class="cls-62" x="415.09" y="162.23" width="36.48" height="1.38"/>
              <path class="cls-58" d="M415.09,165.26h36.49v1.38H415.09Z"/>
              <path class="cls-58" d="M415.09,168.29h36.49v1.38H415.09Z"/>
              <ellipse class="cls-62" cx="433.34" cy="172.01" rx="25.8" ry="0.98"/>
              <rect class="cls-62" x="415.09" y="174.34" width="36.48" height="1.38"/>
            </g>
            <rect class="cls-19" x="412.05" y="142.96" width="83.84" height="7.92"/>
            <polygon class="cls-58" points="495.13 213.25 508.86 228.94 552.95 228.94 552.95 230.15 508.59 230.15 508.32 230.15 508.14 229.94 494.22 214.03 495.13 213.25"/>
            <g>
              <rect class="cls-62" x="515.67" y="211.64" width="36.48" height="1.38"/>
              <path class="cls-58" d="M515.67,214.67h36.48v1.38H515.67Z"/>
              <path class="cls-58" d="M515.67,217.7h36.48v1.38H515.67Z"/>
              <path class="cls-58" d="M515.67,220.73h36.48v1.38H515.67Z"/>
              <rect class="cls-62" x="515.67" y="223.75" width="36.48" height="1.38"/>
            </g>
            <path class="cls-60" d="M511,154.32a1.63,1.63,0,1,0-1.63-1.63A1.63,1.63,0,0,0,511,154.32Z"/>
            <path class="cls-60" d="M511,214.91a1.64,1.64,0,1,0-1.63-1.63A1.64,1.64,0,0,0,511,214.91Z"/>
            <circle class="cls-19" cx="411.45" cy="163.86" r="1.63"/>
          </g>
          <ellipse class="cls-17" cx="1044.99" cy="790.3" rx="120.13" ry="12.36"/>
          <rect class="cls-1" width="1600" height="900"/>
          <g>
            <g>
              <g>
                <path class="cls-64" d="M1093,761.78l-36.67-15v21.34l40.85,2.61v-4A5,5,0,0,0,1093,761.78Z"/>
                <circle class="cls-65" cx="1094.28" cy="781.03" r="9.14"/>
                <rect class="cls-64" x="1091.39" y="769.11" width="5.77" height="5.4" transform="translate(2188.56 1543.62) rotate(180)"/>
              </g>
              <path class="cls-64" d="M1140.82,652.35v11.76c0,5.95-4.48,10.78-10,10.78H975.21c-5.52,0-10-4.83-10-10.78V652.35c0-6,4.46-10.76,10-10.76h155.6C1136.34,641.59,1140.82,646.39,1140.82,652.35Z"/>
              <path class="cls-66" d="M1073.46,652.35v11.76a10.75,10.75,0,0,1-10.71,10.78H968.07a10.73,10.73,0,0,1-10.68-10.78V652.35a10.7,10.7,0,0,1,10.68-10.76h94.68A10.73,10.73,0,0,1,1073.46,652.35Z"/>
              <g>
                <path class="cls-65" d="M1062.72,639.7c-13.58-56.59,5.25-109.68-12-163.83a22.11,22.11,0,0,0-21-15.4h-86.8a8.8,8.8,0,0,0-8.45,11.59c19.41,55.46-.66,109.74,13.24,167.64,3.86,10.23,17.24,18.54,27.17,18.54H1054C1063.88,658.24,1066.55,649.93,1062.72,639.7Zm-38.31-24.18h-38c-4.78,0-11.21-4.7-13.06-10.53-6.69-32.9,3-63.72-6.37-95.22-1-3.23,1.12-6.6,4-6.6h41.75c4.66,0,8.73,3.57,10.12,8.74,8.29,30.78-.78,60.95,5.75,93.08C1030.48,610.82,1029.18,615.52,1024.41,615.52Z"/>
                <g class="cls-67">
                  <path class="cls-64" d="M1024.41,615.52h-38c-4.78,0-11.21-4.7-13.06-10.53-6.69-32.9,3-63.72-6.37-95.22-1-3.23,1.12-6.6,4-6.6h41.75c4.66,0,8.73,3.57,10.12,8.74,8.29,30.78-.78,60.95,5.75,93.08C1030.48,610.82,1029.18,615.52,1024.41,615.52Z"/>
                </g>
              </g>
              <path class="cls-66" d="M1018.46,674.89h82.95a0,0,0,0,1,0,0v8.26a4.15,4.15,0,0,1-4.15,4.15h-74.66a4.15,4.15,0,0,1-4.15-4.15v-8.26A0,0,0,0,1,1018.46,674.89Z"/>
              <rect class="cls-65" x="1052.97" y="687.3" width="13.93" height="15.67"/>
              <rect class="cls-66" x="1049.04" y="702.97" width="21.34" height="64.13"/>
              <g>
                <path class="cls-66" d="M979.65,761.78l78.49-15v21.34l-82.68,2.61v-4A5,5,0,0,1,979.65,761.78Z"/>
                <path class="cls-66" d="M987.49,781a9.15,9.15,0,1,1-9.15-9.14A9.15,9.15,0,0,1,987.49,781Z"/>
                <rect class="cls-66" x="975.46" y="769.11" width="5.77" height="5.4"/>
              </g>
              <g>
                <path class="cls-65" d="M1019.64,761.78l36.67-15v21.34l-40.85,2.61v-4A5,5,0,0,1,1019.64,761.78Z"/>
                <path class="cls-65" d="M1027.49,781a9.15,9.15,0,1,1-9.15-9.14A9.15,9.15,0,0,1,1027.49,781Z"/>
                <rect class="cls-64" x="1015.46" y="769.11" width="5.77" height="5.4"/>
              </g>
              <g>
                <path class="cls-66" d="M1136.63,761.78l-78.49-15v21.34l82.68,2.61v-4A5,5,0,0,0,1136.63,761.78Z"/>
                <path class="cls-66" d="M1128.79,781a9.15,9.15,0,1,0,9.14-9.14A9.14,9.14,0,0,0,1128.79,781Z"/>
                <rect class="cls-66" x="1135.05" y="769.11" width="5.77" height="5.4" transform="translate(2275.86 1543.62) rotate(180)"/>
              </g>
            </g>
            <path class="cls-66" d="M1121.93,674.89h-8.37V618.8c0-9.07-4.41-15.39-8.37-15.39H1094c-4,0-8.37,6.32-8.37,15.39v56.09h-8.37V618.8c0-13.32,7.36-23.76,16.74-23.76h11.21c9.38,0,16.74,10.44,16.74,23.76Z"/>
          </g>
          <rect class="cls-1" width="1600" height="900"/>
        </g>
      </g>
    </g>
  </g>
</svg>
