<svg xmlns="http://www.w3.org/2000/svg" xmlns:xlink="http://www.w3.org/1999/xlink" width="688" height="836" viewBox="0 0 688 836">
  <defs>
    <style>
      .cls-1 {
        isolation: isolate;
      }

      .cls-2 {
        fill: #472b48;
      }

      .cls-3 {
        fill: #654c6c;
      }

      .cls-4 {
        fill: #543957;
      }

      .cls-12, .cls-5 {
        fill: #ece05b;
      }

      .cls-6 {
        fill: #b9b7bb;
      }

      .cls-7 {
        fill: #362538;
      }

      .cls-19, .cls-20, .cls-8 {
        fill: #f9dad2;
      }

      .cls-24, .cls-8 {
        stroke: #231f20;
      }

      .cls-24, .cls-30, .cls-8 {
        stroke-miterlimit: 10;
      }

      .cls-8 {
        stroke-width: 0.5px;
      }

      .cls-10, .cls-9 {
        fill: #303030;
      }

      .cls-10, .cls-21 {
        mix-blend-mode: soft-light;
      }

      .cls-11, .cls-17 {
        fill: #4f3a56;
      }

      .cls-11, .cls-12, .cls-13, .cls-14, .cls-16 {
        fill-rule: evenodd;
      }

      .cls-13 {
        fill: #74557c;
      }

      .cls-14, .cls-18 {
        fill: #5f4468;
      }

      .cls-15, .cls-16 {
        fill: #999;
      }

      .cls-19, .cls-22, .cls-23, .cls-24, .cls-25, .cls-41, .cls-49, .cls-51 {
        mix-blend-mode: multiply;
      }

      .cls-19, .cls-22, .cls-23, .cls-24, .cls-25 {
        opacity: 0.6;
      }

      .cls-21 {
        fill: #ffd9bb;
        opacity: 0.5;
      }

      .cls-22 {
        fill: #d177b8;
      }

      .cls-24, .cls-25 {
        fill: #f4baae;
      }

      .cls-24, .cls-30 {
        stroke-width: 0.25px;
      }

      .cls-26 {
        fill: #df4346;
      }

      .cls-27 {
        fill: #c62d38;
      }

      .cls-28 {
        fill: #e75250;
      }

      .cls-29 {
        fill: #a62134;
      }

      .cls-30 {
        fill: #f9f7f7;
        stroke: #000;
      }

      .cls-31 {
        fill: #300909;
      }

      .cls-32 {
        fill: #f9f4f4;
      }

      .cls-33 {
        fill: #8c3d35;
      }

      .cls-34 {
        fill: #f9988f;
      }

      .cls-35 {
        fill: #f58778;
      }

      .cls-36 {
        fill: #fff7f4;
      }

      .cls-37 {
        fill: #d26653;
      }

      .cls-38 {
        fill: #eab8ad;
      }

      .cls-39 {
        fill: #ff3427;
      }

      .cls-40 {
        fill: #d62c20;
      }

      .cls-41 {
        fill: #d6d6d6;
      }

      .cls-42 {
        fill: url(#radial-gradient);
      }

      .cls-43 {
        fill: #ee3124;
      }

      .cls-44 {
        fill: url(#radial-gradient-2);
      }

      .cls-45 {
        fill: #ffe8d6;
        mix-blend-mode: screen;
      }

      .cls-46 {
        fill: #ff4b27;
      }

      .cls-47 {
        fill: #b3251b;
      }

      .cls-48 {
        fill: #941e16;
      }

      .cls-49 {
        fill: #ededed;
      }

      .cls-50 {
        fill: #992017;
      }

      .cls-51 {
        fill: #e8e8e8;
      }

      .cls-52 {
        fill: #fa2928;
      }

      .cls-53 {
        fill: #6b5170;
      }

      .cls-54 {
        fill: #231f20;
      }

      .cls-55 {
        fill: none;
      }

      .cls-56 {
        fill: #cfb6a7;
      }

      .cls-57 {
        fill: #8f7e8f;
      }

      .cls-58 {
        fill: #ab9eab;
      }
    </style>
    <radialGradient id="radial-gradient" cx="-58.11" cy="502.43" r="133.31" gradientTransform="translate(662.91 -252.34) scale(1.82 1.77)" gradientUnits="userSpaceOnUse">
      <stop offset="0" stop-color="#ee3124"/>
      <stop offset="0.46" stop-color="#ec2f22"/>
      <stop offset="0.68" stop-color="#e4291c"/>
      <stop offset="0.85" stop-color="#d71e11"/>
      <stop offset="0.99" stop-color="#c50e01"/>
      <stop offset="1" stop-color="#c40d00"/>
    </radialGradient>
    <radialGradient id="radial-gradient-2" cx="-36.36" cy="533.82" r="34.86" gradientTransform="translate(662.91 -252.34) scale(1.82 1.77)" gradientUnits="userSpaceOnUse">
      <stop offset="0" stop-color="#ff6726"/>
      <stop offset="0.14" stop-color="#ff5a26"/>
      <stop offset="0.44" stop-color="#ff4527"/>
      <stop offset="0.73" stop-color="#ff3827"/>
      <stop offset="1" stop-color="#ff3427"/>
    </radialGradient>
  </defs>
  <g class="cls-1">
    <g id="Layer_1" data-name="Layer 1">
      <g>
        <g>
          <g id="leg1">
            <g>
              <path class="cls-2" d="M206,785.05l0-.07h0a30.52,30.52,0,0,0-.88-7.13l-.06-.21c-.1-.43-.2-.86-.32-1.28-.05-.22-.11-.43-.17-.64s-.13-.48-.2-.72-.17-.6-.26-.9c0-.07-.05-.14-.07-.21-.16-.54-.32-1-.48-1.54l-.22-.7-.3-.92c-3.52-11.23-12.13-17.9-23.62-18.29h-.49a32.3,32.3,0,0,0-24,12.8c-1.41,1.84-2.82,3.65-4.33,5.36l-.49.53c-.57.63-1.16,1.24-1.76,1.84l-.66.63c-.73.69-1.5,1.35-2.3,2l-.17.14a24.7,24.7,0,0,1-3.71,2.11c-.05,0-.13.06-.19.1-3.86,1.93-9.19,4.6-9.18,9.66a7.23,7.23,0,0,0,.19,1.33v0c.05.22,0,.45.11.66l1.09,7.11.13.81v3.32a1.65,1.65,0,0,0,.76,1.31,3.15,3.15,0,0,0,1.82.54l66.13-.19a3.08,3.08,0,0,0,1.77-.53,1.58,1.58,0,0,0,.73-1.28v-3.37l.08-.81.83-8.66h0A17.27,17.27,0,0,0,206,785.05Z"/>
              <path class="cls-3" d="M132.07,787.59a7.23,7.23,0,0,0,.19,1.33l1.2,7.81,71.42-.2.83-8.66a15.91,15.91,0,0,0,.26-2.6l-4,3.25a6.83,6.83,0,0,1-2.11,1.12,8.3,8.3,0,0,1-2.54.39l-14.57,0a5.76,5.76,0,0,1-3.32-1,3,3,0,0,1-1.37-2.39,8,8,0,0,0-3.67-6.33,15.25,15.25,0,0,0-8.85-2.62l-24.11.07c-.05,0-.13.06-.19.1C137.39,779.86,132.06,782.53,132.07,787.59Z"/>
            </g>
            <path class="cls-4" d="M151.28,757a2.06,2.06,0,0,0,1.28,1.77,5.34,5.34,0,0,0,1.73.57,7.75,7.75,0,0,0,1.49.15l47.67-.13c2.45,0,4.42-1.07,4.49-2.4l.37-9.61.32-9.1.33-9.1.36-9.1,8.34-221.55c.13-4.12-2.64-8-7.89-11s-12.29-4.62-19.83-4.69h-.71c-15.5,0-27.87,6.7-28.2,15.14l-8.37,222.22-.33,9.11-.36,9.1-.33,9.1Z"/>
            <polygon class="cls-5" points="157.03 602.05 155.22 649.14 211.86 649.79 213.84 601.89 157.03 602.05"/>
            <polygon class="cls-6" points="155.22 648.97 154.97 658.84 211.62 659.15 211.86 649.79 155.22 648.97"/>
          </g>
          <path class="cls-7" d="M121.34,416.85c-1.7,2.59-10.93-.49-19.47-6.11s-14.93-13.69-13.23-16.28,10.84,1.29,19.39,6.9S123,414.26,121.34,416.85Z"/>
          <g id="leg2">
            <g>
              <path class="cls-2" d="M246.19,781.27l0-.07h0a29.51,29.51,0,0,1,.89-7.13,1.42,1.42,0,0,0,0-.22c.11-.43.21-.86.33-1.28,0-.21.11-.42.17-.63l.21-.73.27-.89.06-.22c.17-.54.33-1.05.49-1.54.08-.23.16-.48.23-.7l.3-.93c3.6-11.24,12.44-17.93,24.26-18.36H274a33.51,33.51,0,0,1,24.79,12.74c1.45,1.84,2.91,3.64,4.47,5.35l.51.53c.59.63,1.2,1.24,1.82,1.83.22.21.44.43.67.63.76.69,1.55,1.35,2.38,2l.18.14a25,25,0,0,0,3.82,2.1,1.63,1.63,0,0,0,.19.09c4,1.93,9.48,4.59,9.48,9.65a7.35,7.35,0,0,1-.19,1.33v0c-.05.22,0,.45-.11.67l-1.1,7.12-.14.8v3.32a1.64,1.64,0,0,1-.77,1.32,3.34,3.34,0,0,1-1.88.54H250a3.19,3.19,0,0,1-1.83-.53,1.58,1.58,0,0,1-.75-1.28v-3.37l-.09-.8-.88-8.67h0A17.5,17.5,0,0,1,246.19,781.27Z"/>
              <path class="cls-3" d="M322.27,783.61a7.35,7.35,0,0,1-.19,1.33l-1.21,7.82H247.35l-.88-8.67a17,17,0,0,1-.27-2.6l4.12,3.24a7.15,7.15,0,0,0,2.17,1.11,8.74,8.74,0,0,0,2.61.39h15a6.06,6.06,0,0,0,3.41-1,3,3,0,0,0,1.4-2.39c0-2.29,1.26-4.58,3.76-6.35a16,16,0,0,1,9.1-2.64H312.6a1.63,1.63,0,0,0,.19.09C316.78,775.89,322.27,778.55,322.27,783.61Z"/>
            </g>
            <path class="cls-4" d="M301.75,753.25c0,.65-.44,1.29-1.31,1.77a5.88,5.88,0,0,1-1.79.58,8.1,8.1,0,0,1-1.53.15H248.05c-2.51,0-4.55-1.06-4.62-2.38l-.41-9.61-.36-9.11-.36-9.1-.4-9.11L232.68,494.8c-.15-4.12,2.7-8,8.09-11s12.64-4.66,20.4-4.75h.73c16,0,28.7,6.62,29.07,15.07l9.25,222.31.37,9.11.4,9.1.36,9.11Z"/>
            <polygon class="cls-5" points="295.38 598.25 297.38 645.37 239.09 646.17 236.91 598.25 295.38 598.25"/>
            <polygon class="cls-6" points="297.38 645.19 297.67 655.07 239.36 655.54 239.09 646.17 297.38 645.19"/>
          </g>
          <path class="cls-8" d="M89.82,398.37a34,34,0,0,1,12.16-1,23.21,23.21,0,0,1,13.28,6.48,3.19,3.19,0,0,1,.66.84,3.6,3.6,0,0,1,.19,1.7,27.54,27.54,0,0,0,.81,7.93c1.25,5-.89,10-2.06,15a22,22,0,0,1-.76,2.67c-.93,2.48-5.8,14-7.47,16.08-1.12,1.39.77-6.55-1-6.33a6.42,6.42,0,0,1-2.56-.34c-5.48-1.52-11.54,3.47-16.32.37-1.89-1.23-4.32.57-4.32-1.68,0-.84-4.11.55-3.86-.25.53-1.65-9.48-9.18-9.12-10.87,1-4.78,1.64-5.92,2.35-10.75.11-.76,7.87-9.94,8-10.69C80.05,405.54,89.53,400.33,89.82,398.37Z"/>
          <path class="cls-4" d="M155.93,321.62c-.09.29-.75,3.77-.84,4.06l-10.34,39.46-7.36,18.75-4.68,19.5L127,413.69c-.55.92-5.45,3.6-6.43,3.15l-3.21-4.69c-7.81-7-13.94-13.42-24.41-14.38l-4.53-1.07.07-6a24.51,24.51,0,0,1,1.32-10l3.11-8.78,12.22-27.59L117,287l3.9-13.71c3.77-12.77,17.67-37.44,30.92-39.1Z"/>
          <g>
            <path class="cls-9" d="M290.05,273.45a24.35,24.35,0,0,1-6.79,12.86c-.75.78-1.49,1.5-2.2,2.11a31,31,0,0,1-4.69,3.48l-19.11-.16h-1.49c-23.55-.21-59.5-.63-64.48-1.24a30.09,30.09,0,0,1-3.32-.58,24.2,24.2,0,0,1-2.92-.77c-5.78-1.81-11.16-5.31-11.68-11-.72-7.74,3.57-12.81,4.82-23.18s-4.11-15.44-4.79-30.44c-.54-12,5.34-33.07,7.72-41,0,0,0,0,0-.05.59-2,1-3.13,1-3.13s.53-4.83.84-4.86c2.59-3.78,2.65,3.46,4.76,4,4.07,1,10.27-1.52,17.45-2.42,27.69-3.53,66.45-12.39,68.37-1.84.69,3.79,5.66,11.7,6.39,14v0c.39,1.24.8,2.32,1.2,3.35a.47.47,0,0,1,0,.09c1.93,4.86,3.93,8.44,5.86,19.65,3.1,18-2.58,29.78-3.61,37.22S291.89,261.73,290.05,273.45Z"/>
            <path class="cls-10" d="M158.22,351.85l2.63-1.23A50.17,50.17,0,0,0,162,368.8l-5.26,2.42"/>
          </g>
          <path class="cls-4" d="M362.76,375.31c.12-3.41-41.37,12.93-42.55,9.64L282.54,284.88c-6.07-17.06-7.81-43.49,7.75-49.94,10.06-4.13,21.56,8.67,28.76,17.36,3.84,4.64,7.43,14.71,9.35,20.16l34.36,99.72"/>
          <g>
            <path class="cls-11" d="M294.55,350.79c-1,13.4-2,26.8-2.46,33.75s-.47,7.44-.45,7.93c6.08,21.95,12.16,43.9,16.85,67.86s8,49.91,11.28,75.88c-10.88,5.19-21.76,10.38-33.63,14.57a183.26,183.26,0,0,1-36.43,8.88c-11.71,1.5-22.26,1.33-32.81,1.17l5.94-320.59,46-10.55c8.74,1,17.48,2,24.32,3.94s11.78,4.77,16,10,7.66,12.72,5.11,31S303.12,321.81,294.55,350.79Z"/>
            <path class="cls-11" d="M153.58,352c1,13.6,2,27.19,2.47,34.24s.46,7.55.44,8c-6.08,22.27-12.16,44.55-16.85,68.85s-8,50.65-11.28,77c10.88,5.27,21.76,10.54,33.63,14.79a181,181,0,0,0,36.43,9c11.71,1.52,22.26,1.35,32.81,1.18q-3-162.63-5.93-325.27l-46-10.71c-8.74,1-17.47,2-24.31,4S143.2,238,139,243.23s-7.66,12.91-5.11,31.44S145,322.59,153.58,352Z"/>
            <path class="cls-12" d="M152.84,382.71q.14,6.89.25,13.76-2.22,8.29-4.45,16.57a130.5,130.5,0,0,0,30.21,8.42A332,332,0,0,0,231.27,425a214.76,214.76,0,0,0,41.52-4.69c10.81-2.27,17.2-1.76,25.31-4.17-1.92-6.25-2.13-15.44-4.06-21.69,0-3.65-2-6.82-1.91-10.48-7.62,1.79-13.22,3.1-24,4.71s-24.71,3.06-37.11,3.82-23.29.85-36.07-.89S167.52,386.28,152.84,382.71Z"/>
            <path class="cls-12" d="M154.34,314c16.79,4.5,33.14,8.29,48.17,10a183,183,0,0,0,19.06,1.21c1.79,0,3.55,0,5.28,0l-.42-23.62c-1.47,0-3,.07-4.43.09-2.71,0-5.43,0-8.13,0a217.22,217.22,0,0,1-41.6-4.38c-6.91-1.43-14-3.27-20.23-4.64A90.34,90.34,0,0,0,141.7,291c1.39,6.43,3.13,13.52,5.11,21Q150.59,313,154.34,314Z"/>
            <path class="cls-12" d="M226.41,301.67l.41,23.59a201.18,201.18,0,0,0,33.26-3.48,182.07,182.07,0,0,0,32.18-8.63c1.1-.43,2.15-.85,3.13-1.27q2.46-1.06,4.45-2.08c2.11-8.2,3.93-15.86,5.28-22.65-2.37.91-5.84,2.17-10.48,3.6-1.79.54-3.75,1.11-5.89,1.69a280.54,280.54,0,0,1-34.65,6.95A268.26,268.26,0,0,1,226.41,301.67Z"/>
            <path class="cls-12" d="M295.65,510.59c-13.48,6.12-30.54,11.9-55.27,12.66-3.19.1-6.51.12-9.91.06l.37,20.27c2.37-.08,4.72-.2,7-.36a177.19,177.19,0,0,0,51.23-10.87,156.34,156.34,0,0,0,28.31-14.56c-.76-5.84-1.54-11.67-2.36-17.44A187.14,187.14,0,0,1,295.65,510.59Z"/>
            <path class="cls-12" d="M217.61,522.76c-19.7-1.3-40.62-4.64-56.19-8.73a134.15,134.15,0,0,1-28.3-10.6q-1.16,8.31-2.23,16.72c13.75,7,27.88,13.62,44.13,17.8a194.76,194.76,0,0,0,42.2,5.65c4.6.13,9.16.12,13.62,0l-.37-20.27C226.29,523.23,222,523,217.61,522.76Z"/>
            <path class="cls-13" d="M261.61,205.26a4.75,4.75,0,0,0-2.8-3.56c-2.09-1.09-5.79-1.94-11-2.73a161.26,161.26,0,0,0-18.66-1.69,92.48,92.48,0,0,0-18.6,1.1,34.51,34.51,0,0,0-10.73,3.68c-2,1.14-3.8,1.57-4,2.59s1.14,2.63,1.73,4.44a14.21,14.21,0,0,0,4.76,6.5c2.91,2.4,7.47,4.9,14.07,6.48a64.5,64.5,0,0,0,21.56,1.33,29.07,29.07,0,0,0,13.36-5.35,46.37,46.37,0,0,0,6.67-5.52,18,18,0,0,0,3.28-4.09A4.46,4.46,0,0,0,261.61,205.26Z"/>
            <path class="cls-11" d="M193.79,204.65l-4.68,26.63c4.29,3.8,8.57,7.59,13.22,10a47.88,47.88,0,0,0,13.55,4.3c3.9.74,6.71,1.1,9.52,1.47q.07-13.59.14-27.18a56.26,56.26,0,0,1-13.33-3,58.06,58.06,0,0,1-12-6.88A62.6,62.6,0,0,1,193.79,204.65Z"/>
            <path class="cls-11" d="M161,445.15c-2.92,13.24-5.84,26.48-7.29,34.07s-1.41,9.52,3.15,11.74,13.65,4.72,21.47,6.38,14.37,2.46,18.15,2.34,4.81-1.17,6-9.38,2.63-23.59,4-39Z"/>
            <path class="cls-11" d="M291.34,443.7c2.92,13.24,5.85,26.48,7.29,34.06s1.41,9.53-3.15,11.75-13.65,4.72-21.47,6.38-14.36,2.46-18.15,2.34-4.81-1.17-6-9.39-2.63-23.59-4-39Z"/>
            <path class="cls-11" d="M245.24,200.86c-4.43-.57-9.77-1.1-15.38-1.42,4.65,2.88,8.34,5.82,9.78,8.9s.59,6.45-1.26,9.81l.7-.18c5.5-1.45,9.28-1.89,13.08-3.84s7.46-5.28,9.48-6.62c0-.12-.05-.24-.08-.36-.27-1.13-.85-2.47-3.32-3.56S251.4,201.64,245.24,200.86Z"/>
            <path class="cls-14" d="M222.78,243.4c-2.77-.28-5.74-.59-9.51-1.11a78.6,78.6,0,0,1-17.19-3.95,79,79,0,0,1-13.76-7.3c-7.71,1.19-15.41,2.37-22.89,6.08-7,3.48-13.89,9.2-17.37,19.31,1.17,5.45,2.32,11.47,3.41,18.72.74,4.94,1.45,10.45,2.15,16.32,6.64,1.42,14.11,3.33,21.42,4.82a235.84,235.84,0,0,0,44.06,4.55q4.31.06,8.62,0c1.56,0,3.12-.06,4.69-.1l-1-57.1Z"/>
            <path class="cls-14" d="M201.07,324c-15.92-1.81-33.24-5.75-51-10.41.36,3.42.72,6.88,1.07,10.34l-.63,2.05a95.52,95.52,0,0,0,9.18,15c7.36,9.46,15.82,13.9,24.27,18.34l-24.51-4.11c4.79,4.92,9.58,9.85,12.64,13.72s4.4,6.7,2.22,5.17-7.89-7.43-13.6-13.32c3.38,7.26,6.77,14.53,13.17,21.91A76.18,76.18,0,0,0,180,389c5.17,1.05,10.18,1.95,14.92,2.6A156.7,156.7,0,0,0,220,393c2.65-.06,5.33-.16,8.07-.31l-1.23-67.39c-1.83,0-3.7,0-5.59,0A199.54,199.54,0,0,1,201.07,324Z"/>
            <path class="cls-14" d="M226.85,325.26l1.23,67.39,2.95-.17c12.4-.77,26.33-2.21,37.11-3.82,1.8-.27,3.51-.55,5.16-.83a46,46,0,0,0,9.16-14.07c3.24-7.34,5.49-15.5,7.75-23.65l-13.53,19.62c5.14-11.79,10.29-23.57,13.67-36.17a176.25,176.25,0,0,0,3.94-19.5,222.46,222.46,0,0,1-31.15,7.59A230.29,230.29,0,0,1,226.85,325.26Z"/>
            <path class="cls-14" d="M226.41,300.74c10.18-.3,20.34-1.09,30.21-2.37a321.06,321.06,0,0,0,37.79-7.22c.83-.21,1.63-.43,2.41-.64.74-9.89.91-18.6-.42-25.24-1.55-7.74-5.14-12.67-12.2-16.94s-17.6-7.87-28.13-11.48c-1.55.75-3.13,1.43-4.73,2a73.88,73.88,0,0,1-16.76,3.46c-3.65.41-6.53.65-9.21.84v.47Z"/>
            <g id="neck">
              <path class="cls-8" d="M205.3,233.61s20.3,13.34,43.37,4.74l.33-34.29s-12.16,14.31-42.06,4.6Z"/>
            </g>
            <path class="cls-14" d="M261.51,205.55l4.5,24.64c-4.13,3.34-8.25,6.67-12.71,8.75a46.25,46.25,0,0,1-13,3.47c-3.76.54-2.21.78-4.91,1,0-8.33-.47-17.06-.51-25.39a27.55,27.55,0,0,0,8.94-1.87,54.3,54.3,0,0,0,11.52-5.9A55.27,55.27,0,0,0,261.51,205.55Z"/>
            <path class="cls-14" d="M215,241.61c3.06.52,5.47.83,7.72,1.11l2.11.24v-.47l0-3.51.09-15.87,0-5.12-2.37-.3a55.18,55.18,0,0,1-11.38-2.46,61.49,61.49,0,0,1-12.35-6.32c-1.72-1.11-3-2-4.12-2.89l-1,4.88-3.7,18.31-.23,1.15a61.73,61.73,0,0,0,11.18,7.3A54,54,0,0,0,215,241.61Z"/>
            <path class="cls-14" d="M219.42,424.92a329.31,329.31,0,0,1-40.57-3.46c-4.79-.77-8.87-1.62-12.46-2.52a34.15,34.15,0,0,0-10.17,16.19c-2.93,9.83-3,23.48-1.27,37.91,1.11-5.37,2.56-12,4.1-19l-4.81-.75c.6-2.71,1.2-5.41,2-8a73.63,73.63,0,0,1,3-7.3l52.51,9.2a44.87,44.87,0,0,1,.6,7,68.63,68.63,0,0,1-.81,8l-6-.94c-1.1,11.77-2.17,22.58-3.12,29-1.21,8.21-2.23,9.26-6,9.38s-10.33-.69-18.15-2.34c-7.19-1.52-15.45-3.76-20.28-5.84.73,3.44,1.54,6.85,2.42,10.19,1.17,4.49,2.46,8.85,3.9,13.1a324.44,324.44,0,0,0,53.24,8c4.37.28,8.68.47,12.86.55l-1.8-98.3C225.66,425,222.56,425,219.42,424.92Z"/>
            <path class="cls-14" d="M228.67,425l1.8,98.3c3.4.06,6.72,0,9.91-.06,24.73-.76,41.79-6.54,55.27-12.66,1.36-.62,2.69-1.24,4-1.86-.49-7.08-1.26-13.86-2.29-20.29a14,14,0,0,1-1.86,1.07c-4.56,2.22-13.65,4.72-21.47,6.38s-14.36,2.46-18.15,2.34-4.81-1.17-6-9.39c-1-6.42-2-17.24-3.12-29l-6,.93a64.4,64.4,0,0,1-.81-8,44.89,44.89,0,0,1,.59-7l38.89-6.82A87.4,87.4,0,0,0,264,422a214.38,214.38,0,0,1-32.74,3C230.42,425,229.55,425,228.67,425Z"/>
            <path class="cls-13" d="M217.22,543.6A194.76,194.76,0,0,1,175,538l-.68-.17a118.24,118.24,0,0,0,18,24.71l.56.59c1.87.32,3.73.6,5.55.84,11.71,1.52,22.26,1.35,32.81,1.18l-.08-4.2-.31-17.32C226.38,543.72,221.82,543.73,217.22,543.6Z"/>
            <path class="cls-13" d="M230.84,543.58l.31,17.32a163.8,163.8,0,0,0,18.56-1.24,183.26,183.26,0,0,0,36.43-8.88c4.59-1.62,9-3.39,13.39-5.26.5-5.89.73-12,.75-18-3.41,1.66-7.14,3.31-11.18,4.87a177.19,177.19,0,0,1-51.23,10.87C235.56,543.38,233.21,543.5,230.84,543.58Z"/>
            <path class="cls-12" d="M156.46,282.55c5.77,1.05,11.55,2.1,18.13,2.83s14,1.13,18.35,1.37l7,.4-.63-10.41c-5.07,0-10.14,0-17.4-.43s-16.72-1.28-26.18-2.14Z"/>
            <path class="cls-12" d="M290.15,281.83c-5.77,1.05-11.55,2.1-18.13,2.82s-14,1.13-18.35,1.37l-7,.41.63-10.42c5.07,0,10.14,0,17.41-.42s16.71-1.29,26.17-2.15Z"/>
            <path class="cls-5" d="M300.5,333.3l-1.6,0c0-.56,0-1.11,0-1.67a.84.84,0,0,1,.82-.89.86.86,0,0,1,.77.94Zm-.49-6.24h-.07a.9.9,0,0,1-.73-1c.09-1.15.2-2.35.34-3.67a.84.84,0,0,1,.89-.8.9.9,0,0,1,.69,1c-.13,1.3-.24,2.48-.33,3.61A.84.84,0,0,1,300,327.06Zm1-9.08h-.12a.92.92,0,0,1-.67-1c.15-1.13.32-2.35.5-3.63a.83.83,0,0,1,.92-.76.92.92,0,0,1,.66,1c-.19,1.28-.35,2.49-.5,3.61A.84.84,0,0,1,301,318Zm1.3-9h-.14a.91.91,0,0,1-.65-1.06l.56-3.61a.82.82,0,0,1,.93-.74.92.92,0,0,1,.64,1.07c-.19,1.22-.38,2.43-.56,3.6A.82.82,0,0,1,302.29,308.94Zm1.43-9-.15,0a.92.92,0,0,1-.64-1.07c.2-1.19.4-2.39.61-3.6a.8.8,0,0,1,.93-.72.9.9,0,0,1,.63,1.07l-.6,3.59A.83.83,0,0,1,303.72,299.94Zm1.53-9-.16,0a.92.92,0,0,1-.62-1.08c.21-1.2.42-2.4.64-3.59a.81.81,0,0,1,.94-.71.92.92,0,0,1,.62,1.08c-.21,1.19-.43,2.38-.64,3.58A.83.83,0,0,1,305.25,291Zm1.63-9-.17,0a.93.93,0,0,1-.61-1.09c.23-1.21.46-2.41.69-3.58a.8.8,0,0,1,.95-.7.94.94,0,0,1,.61,1.1q-.35,1.76-.69,3.57A.84.84,0,0,1,306.88,282Zm1.75-8.93a.57.57,0,0,1-.18,0,.92.92,0,0,1-.6-1.09c.24-1.21.49-2.4.73-3.57a.79.79,0,0,1,1-.68.92.92,0,0,1,.59,1.1c-.24,1.17-.48,2.36-.73,3.56A.83.83,0,0,1,308.63,273.06Zm1.85-8.91-.19,0a.94.94,0,0,1-.59-1.11c.25-1.19.51-2.38.76-3.56a.79.79,0,0,1,1-.66.91.91,0,0,1,.58,1.1c-.25,1.18-.5,2.36-.76,3.55A.82.82,0,0,1,310.48,264.15Zm1.92-8.88a.69.69,0,0,1-.2,0,.93.93,0,0,1-.58-1.11l.78-3.55a.8.8,0,0,1,1-.66A.92.92,0,0,1,314,251l-.78,3.55A.82.82,0,0,1,312.4,255.27Z"/>
            <path class="cls-5" d="M148.06,333a.82.82,0,0,1-.76-.77c-.12-1.14-.24-2.29-.37-3.48a.87.87,0,0,1,.67-1,.8.8,0,0,1,.85.77c.14,1.2.26,2.35.37,3.49a.87.87,0,0,1-.67,1Zm-1-8.71a.81.81,0,0,1-.76-.75c-.13-1.09-.28-2.24-.45-3.47a.87.87,0,0,1,.64-1,.79.79,0,0,1,.88.73c.16,1.24.31,2.39.45,3.49a.86.86,0,0,1-.65,1Zm-1.19-8.67a.81.81,0,0,1-.76-.74c-.16-1.09-.34-2.24-.53-3.45a.89.89,0,0,1,.62-1,.78.78,0,0,1,.89.71c.19,1.22.37,2.37.53,3.47a.87.87,0,0,1-.62,1Zm-1.36-8.65a.8.8,0,0,1-.76-.72c-.18-1.1-.37-2.25-.57-3.44a.88.88,0,0,1,.61-1,.76.76,0,0,1,.89.69c.21,1.2.4,2.35.58,3.46a.88.88,0,0,1-.61,1Zm-1.46-8.63a.82.82,0,0,1-.76-.71c-.19-1.12-.39-2.27-.6-3.44a.9.9,0,0,1,.6-1,.79.79,0,0,1,.91.69q.3,1.77.6,3.45a.9.9,0,0,1-.6,1Zm-1.52-8.62a.8.8,0,0,1-.75-.7l-.61-3.44a.88.88,0,0,1,.59-1,.78.78,0,0,1,.91.68l.61,3.45a.89.89,0,0,1-.59,1ZM140,281.06a.79.79,0,0,1-.75-.7l-.62-3.44a.89.89,0,0,1,.59-1,.78.78,0,0,1,.91.68l.62,3.45a.89.89,0,0,1-.59,1Zm-1.56-8.6a.8.8,0,0,1-.75-.7l-.63-3.44a.88.88,0,0,1,.59-1,.77.77,0,0,1,.91.68l.63,3.44a.88.88,0,0,1-.6,1Zm-1.58-8.61a.8.8,0,0,1-.75-.69l-.63-3.45a.89.89,0,0,1,.6-1,.78.78,0,0,1,.9.68l.64,3.44a.9.9,0,0,1-.6,1Zm-1.58-8.6a.81.81,0,0,1-.75-.7l-.63-3.44a.9.9,0,0,1,.59-1,.77.77,0,0,1,.91.68l.64,3.44a.89.89,0,0,1-.6,1Z"/>
            <path class="cls-5" d="M195.09,505.94c-.5,0-1,0-1.58,0a.88.88,0,0,1-.77-1,.86.86,0,0,1,.84-.87,22.58,22.58,0,0,0,3.1,0,.85.85,0,0,1,.85.85.89.89,0,0,1-.74,1C196.26,505.92,195.69,505.94,195.09,505.94Zm-6.32-.5h-.09c-1-.13-2.06-.29-3.19-.46a.9.9,0,0,1-.68-1,.83.83,0,0,1,.9-.79c1.11.18,2.16.33,3.15.46a.89.89,0,0,1,.7,1A.85.85,0,0,1,188.77,505.44Zm12.53-1a.77.77,0,0,1-.67-.41,1,1,0,0,1,.23-1.27,5.87,5.87,0,0,0,1.81-2.38.75.75,0,0,1,1.08-.38,1,1,0,0,1,.33,1.23,7.69,7.69,0,0,1-2.34,3.07A.74.74,0,0,1,201.3,504.43Zm-20.44-.25h-.13l-3.16-.57a.91.91,0,0,1-.66-1.05.82.82,0,0,1,.92-.76l3.15.57a.93.93,0,0,1,.67,1.05A.85.85,0,0,1,180.86,504.18ZM173,502.67h-.14c-1.05-.22-2.11-.45-3.15-.69a.91.91,0,0,1-.63-1.07.81.81,0,0,1,.94-.72l3.13.68a.91.91,0,0,1,.64,1.06A.83.83,0,0,1,173,502.67Zm-7.82-1.82-.18,0c-1.1-.29-2.15-.58-3.13-.88a.93.93,0,0,1-.57-1.11.8.8,0,0,1,1-.66c1,.29,2,.58,3.08.87a.92.92,0,0,1,.6,1.1A.83.83,0,0,1,165.15,500.85Zm-7.7-2.45a.66.66,0,0,1-.27-.06c-.58-.23-1.12-.46-1.61-.69s-1-.49-1.43-.73a1,1,0,0,1-.36-1.23.76.76,0,0,1,1.07-.42c.4.23.85.46,1.33.68s1,.44,1.53.67a.94.94,0,0,1,.49,1.16A.81.81,0,0,1,157.45,498.4Zm47.41-1.89-.17,0a.93.93,0,0,1-.61-1.09c.17-.85.33-1.79.49-2.87l.1-.68a.81.81,0,0,1,.92-.75.9.9,0,0,1,.66,1l-.11.7c-.17,1.1-.33,2.07-.5,2.94A.83.83,0,0,1,204.86,496.51Zm-54.08-2.87a.76.76,0,0,1-.66-.41,9,9,0,0,1-1.14-3.84.88.88,0,0,1,.71-1,.83.83,0,0,1,.88.81,6.87,6.87,0,0,0,.88,3,1,1,0,0,1-.22,1.27A.76.76,0,0,1,150.78,493.64Zm55.39-6.16h-.1a.9.9,0,0,1-.69-1c.14-1.16.28-2.36.41-3.62a.83.83,0,0,1,.89-.79.9.9,0,0,1,.7,1c-.14,1.26-.28,2.48-.42,3.64A.83.83,0,0,1,206.17,487.48Zm-56.1-2.73h-.13a.91.91,0,0,1-.66-1.05c0-.24.07-.49.11-.74.14-.91.3-1.88.48-2.9a.8.8,0,0,1,.94-.71.92.92,0,0,1,.63,1.08c-.18,1-.34,1.95-.48,2.84,0,.24-.07.48-.1.72A.84.84,0,0,1,150.07,484.75Zm57.08-6.36h-.09a.89.89,0,0,1-.7-1c.11-1.19.23-2.41.35-3.64a.83.83,0,0,1,.88-.81.9.9,0,0,1,.71,1c-.12,1.23-.24,2.45-.36,3.64A.84.84,0,0,1,207.15,478.39Zm-55.44-2.6a.58.58,0,0,1-.19,0,.93.93,0,0,1-.59-1.1c.24-1.15.5-2.34.77-3.57a.8.8,0,0,1,1-.66.93.93,0,0,1,.58,1.11c-.27,1.22-.53,2.4-.77,3.55A.82.82,0,0,1,151.71,475.79ZM208,469.3h-.08a.89.89,0,0,1-.71-1l.33-3.64a.82.82,0,0,1,.88-.81.9.9,0,0,1,.71,1l-.33,3.65A.85.85,0,0,1,208,469.3Zm-54.32-2.38a.76.76,0,0,1-.21,0,.94.94,0,0,1-.57-1.12c.28-1.17.55-2.35.84-3.54a.8.8,0,0,1,1-.65.94.94,0,0,1,.56,1.13c-.28,1.19-.56,2.37-.83,3.53A.83.83,0,0,1,153.69,466.92Zm2.1-8.83a.52.52,0,0,1-.21,0,.93.93,0,0,1-.56-1.12l.85-3.53a.79.79,0,0,1,1-.64.94.94,0,0,1,.55,1.13l-.85,3.53A.83.83,0,0,1,155.79,458.09Z"/>
            <path class="cls-5" d="M256.23,503.33h0a20,20,0,0,1-3.31-.27.9.9,0,0,1-.66-1,.83.83,0,0,1,.91-.77,18.13,18.13,0,0,0,3.07.25.92.92,0,0,1,0,1.83Zm4.79-.28a.86.86,0,0,1-.8-.83.9.9,0,0,1,.72-1c1-.1,2-.24,3.15-.41a.83.83,0,0,1,.89.79.89.89,0,0,1-.68,1c-1.14.18-2.22.32-3.21.43Zm7.91-1.24a.84.84,0,0,1-.79-.76.92.92,0,0,1,.66-1.06l3.13-.63a.81.81,0,0,1,.93.73.92.92,0,0,1-.64,1.07c-1.07.23-2.13.44-3.16.64Zm-20.1-1.06a.72.72,0,0,1-.6-.31,10.63,10.63,0,0,1-1.67-3.51,1,1,0,0,1,.5-1.16.79.79,0,0,1,1,.57,8.75,8.75,0,0,0,1.35,2.89,1,1,0,0,1-.08,1.29A.71.71,0,0,1,248.83,500.75Zm27.95-.62a.83.83,0,0,1-.78-.73.92.92,0,0,1,.62-1.08l3.12-.75a.81.81,0,0,1,.95.7.93.93,0,0,1-.61,1.09l-3.14.75A.44.44,0,0,1,276.78,500.13Zm7.8-2a.83.83,0,0,1-.78-.7.93.93,0,0,1,.59-1.1c1.05-.29,2.09-.59,3.08-.9a.79.79,0,0,1,1,.65.94.94,0,0,1-.57,1.12c-1,.31-2.05.61-3.11.91Zm7.7-2.42a.83.83,0,0,1-.76-.64,1,1,0,0,1,.52-1.15c1.11-.4,2.11-.79,3-1.17a.76.76,0,0,1,1,.52,1,1,0,0,1-.46,1.19c-.9.39-1.93.8-3.06,1.21A.73.73,0,0,1,292.28,495.73Zm-46-3.52a.84.84,0,0,1-.79-.77l0-.14c-.15-1.05-.29-2.23-.43-3.52a.89.89,0,0,1,.69-1,.82.82,0,0,1,.89.79c.14,1.27.29,2.43.43,3.46l0,.13a.91.91,0,0,1-.67,1.05Zm53.31-.12a.77.77,0,0,1-.65-.38,1,1,0,0,1,.19-1.28,6.29,6.29,0,0,0,1.85-2.36.75.75,0,0,1,1.07-.41,1,1,0,0,1,.36,1.22,7.93,7.93,0,0,1-2.36,3A.69.69,0,0,1,299.58,492.09Zm2.74-8.07a.86.86,0,0,1-.79-.86l0-.37c-.06-.93-.18-2-.34-3.18a.91.91,0,0,1,.66-1.05.82.82,0,0,1,.92.76c.17,1.23.29,2.35.36,3.32l0,.4a.89.89,0,0,1-.74,1Zm-57-.9a.85.85,0,0,1-.79-.82q-.15-1.77-.3-3.66a.88.88,0,0,1,.72-1,.84.84,0,0,1,.87.83q.15,1.88.3,3.63a.9.9,0,0,1-.72,1ZM301,475a.83.83,0,0,1-.78-.72c-.23-1.18-.47-2.37-.72-3.55a.91.91,0,0,1,.58-1.1.8.8,0,0,1,1,.67c.25,1.19.5,2.39.73,3.59a.92.92,0,0,1-.61,1.09Zm-56.46-1a.84.84,0,0,1-.79-.84c-.09-1.2-.17-2.42-.25-3.66a.88.88,0,0,1,.73-1,.83.83,0,0,1,.86.84c.08,1.24.17,2.45.25,3.65a.88.88,0,0,1-.73,1Zm54.55-7.9a.83.83,0,0,1-.78-.68l-.81-3.54a.94.94,0,0,1,.57-1.12.79.79,0,0,1,1,.65l.82,3.54a.94.94,0,0,1-.57,1.12ZM244,464.87a.85.85,0,0,1-.79-.85l-.24-3.65a.89.89,0,0,1,.74-1,.85.85,0,0,1,.86.85l.23,3.65a.89.89,0,0,1-.74,1Zm53.13-7.62a.84.84,0,0,1-.78-.69c-.3-1.34-.55-2.46-.8-3.54a.94.94,0,0,1,.58-1.12.8.8,0,0,1,1,.66c.24,1.08.5,2.2.8,3.54a1,1,0,0,1-.57,1.12Z"/>
            <path class="cls-14" d="M159.31,438a73.63,73.63,0,0,0-3,7.3c-.84,2.55-1.44,5.25-2,8l57.37,9a68.63,68.63,0,0,0,.81-8,44.87,44.87,0,0,0-.6-7Z"/>
            <path class="cls-14" d="M293,436.56a73.63,73.63,0,0,1,3,7.3c.84,2.54,1.44,5.25,2,7.95l-57.36,9a64.4,64.4,0,0,1-.81-8,44.89,44.89,0,0,1,.59-7Z"/>
            <ellipse class="cls-15" cx="220.49" cy="402.14" rx="3.52" ry="3.91"/>
            <path class="cls-16" d="M220.81,420.42a3.93,3.93,0,1,0-3.52-3.91A3.75,3.75,0,0,0,220.81,420.42Z"/>
            <g>
              <path class="cls-17" d="M237.28,241.07c.84.11,1,4.87,1,6.63l1.3,313.87c0,2.44-.92,4.42-2.09,4.43l-12.07.07L222.63,241.5Z"/>
              <line class="cls-18" x1="239.82" y1="565.87" x2="238.47" y2="241.85"/>
            </g>
          </g>
          <g>
            <g id="head">
              <g>
                <g>
                  <path class="cls-8" d="M299.21,137.16c-.3,1.71-.63,3.26-1,4.64l0,.07c-2.55,9.85-6.42,12.17-8,16.62-1.34,3.84-6.64,11.56-11.88,3.53l0,0s2.49-32.64,4.5-38.57c0,0,2.89-8.9,8.1-10.25C297.6,111.45,301.81,122,299.21,137.16Z"/>
                  <path class="cls-19" d="M280.13,141.75s10.47-18.21,15.48-19.4,2.5,14.25,1.49,19.4a35.16,35.16,0,0,1-2.51,8.19,86.92,86.92,0,0,0,1.51-11c.35-7.07-1.52-13.13-3.63-12.56s-4.92,9.46-5.11,10.47,1.39,2.82,1.3,8.31-2.28,11.44-3.46,11.37-.68-4.51-.68-9.64-3.34-4.13-4.82-.8Z"/>
                  <path class="cls-19" d="M279.7,146.1s2.69-4.88,4.3-2.67.46,8.36,1.69,9.1,2.9-4.23,2.58-8.77-1.83-8.61-4-7.85l-4.17,5.84Z"/>
                  <path class="cls-20" d="M298.2,141.87c-2.55,9.85-6.42,12.17-8,16.62-1.34,3.84-6.64,11.56-11.88,3.53.31.31,3.34,3.26,6.42,1.92,3.24-1.41,4.28-5.05,5.65-7.86S295.3,151.34,298.2,141.87Z"/>
                </g>
                <g>
                  <path class="cls-8" d="M151.16,137.16c.29,1.71.63,3.26,1,4.64l0,.07c2.55,9.85,6.42,12.17,8,16.62,1.35,3.84,6.65,11.56,11.89,3.53l0,0s-2.49-32.64-4.5-38.57c0,0-2.89-8.9-8.09-10.25C152.77,111.45,148.55,122,151.16,137.16Z"/>
                  <path class="cls-19" d="M170.23,141.75s-10.47-18.21-15.47-19.4-2.5,14.25-1.5,19.4a35.42,35.42,0,0,0,2.52,8.19,84.93,84.93,0,0,1-1.51-11c-.36-7.07,1.52-13.13,3.62-12.56s4.93,9.46,5.11,10.47-1.39,2.82-1.3,8.31,2.28,11.44,3.47,11.37.68-4.51.68-9.64,3.34-4.13,4.82-.8Z"/>
                  <path class="cls-19" d="M170.67,146.1s-2.69-4.88-4.31-2.67-.45,8.36-1.69,9.1-2.9-4.23-2.57-8.77,1.82-8.61,4-7.85l4.17,5.84Z"/>
                  <path class="cls-20" d="M152.16,141.87c2.55,9.85,6.42,12.17,8,16.62,1.35,3.84,6.65,11.56,11.89,3.53-.31.31-3.35,3.26-6.42,1.92-3.25-1.41-4.28-5.05-5.66-7.86S155.07,151.34,152.16,141.87Z"/>
                </g>
                <path class="cls-8" d="M280.68,150.4c0,.16-.07.45-.13.85-1.35,8.78-2.75,16.13-3.91,20.57-4.53,17.32-27.8,39.94-51.48,39.94s-46.95-22.62-51.48-39.94c-.53-2-1.12-4.7-1.72-7.83-2.13-11-4.53-27.74-6-44.15h0c-1.6-18.62-1.92-36.77.88-45.45,2-6.09,6.86-13.17,14-19.44h0a67.47,67.47,0,0,1,44.27-16.88c30.48,0,53.39,21.22,58.27,36.33C287.83,88,284.53,124.93,280.68,150.4Z"/>
                <path class="cls-19" d="M280.55,151.25c-1.35,8.78-2.75,16.13-3.91,20.57-4.53,17.32-27.8,39.94-51.48,39.94s-46.95-22.62-51.48-39.94c-.53-2-1.12-4.7-1.72-7.83l.07-2s.9,10.22,8.11,21.71,26.44,25.26,45,25.26,38.7-16.76,45.42-26.43C276.48,174.1,279.81,155.72,280.55,151.25Z"/>
              </g>
              <path class="cls-9" d="M294.07,134.12s-1.34-9.65-4-20.79a151.45,151.45,0,0,1,0,18.72s0-.12,0-.32c-.67-3.87-7.81-42.88-37.37-58l-.05,0,2-1.56-6.66-3.59.95,4.84-4.51-2.73.32,2.19-.07,0-.08,0a.52.52,0,0,0-.15-.06c-2.56-.74-20.64-5.59-39.64,2.68a59.13,59.13,0,0,0-27.27,23.71s0,0,0,0a66.31,66.31,0,0,0-9,28.9c-1.77,20.89.6,31.65,1.42,34.62a200.61,200.61,0,0,1-7-28.11.09.09,0,0,0,0,0c-.37-2.21-.71-4.43-1-6.67l-2,7.54S149,112.75,152.13,93.68s44.52-51.13,76-51.13S294,74.84,299.84,89.18C304.93,101.62,294.07,134.12,294.07,134.12Z"/>
              <path class="cls-21" d="M290.4,114.84s11-8.18,9.44-25.67l-1.37-2.79a30.18,30.18,0,0,1-8.74,25.69Z"/>
              <path class="cls-21" d="M287.49,100.61s4.87-14.77,2.24-26.32l-9.86-8.81A39.21,39.21,0,0,1,279,87.13S285.78,96.38,287.49,100.61Z"/>
              <path class="cls-21" d="M265.26,54.82s6.42,12.5,6.64,25.61l-1.17-.91s-1-15.59-8.89-26.73Z"/>
              <path class="cls-21" d="M196,75.13s2.17-17.81,15.34-30l-2.8.86S198.08,56.19,195.22,76Z"/>
              <path class="cls-21" d="M192.79,52.79s-4.22,9.54-1.79,26.92l-2.75,3.34s-6.59-12.15-5.19-24.5Z"/>
              <path class="cls-21" d="M159.89,78.89s-.79,15.59,17,16.84v1.56s-17.68,3.2-20-14.24Z"/>
              <path class="cls-21" d="M151.56,100.61s-.27,9.38,19.79,6.67l-2.32,6s-11,1.35-17.47-6.35Z"/>
              <path class="cls-9" d="M243.08,71.26h-.15c-2.57-.45-32.65-17.56-57.84,8.36-7.11,7.32-10.57,27-12.6,37.49-.16.7-.28,1.38-.39,2.06s-.2,1.26-.31,1.87l-.27,2a2.47,2.47,0,0,0-.05.38v0c-2.67,20.5.61,40.24.8,41.39a.1.1,0,0,1,0-.07s0,0,0-.08a108.76,108.76,0,0,1-8.36-28.45.08.08,0,0,0,0,0C157.3,90.37,188,61.5,207.65,58A35.75,35.75,0,0,1,243.08,71.26Z"/>
              <path class="cls-22" d="M244.59,72.85l-.08,0c-2.55-.54-36.23-7.11-58.37,15.31-7.17,7.27-11.87,17.23-13.89,27.71,1.5-7.75,2.7-15.22,2.7-15.24,5.43-14,10.19-25.15,25.13-30.79,19.64-7.4,41.13,1.84,44.28,3Z"/>
              <path class="cls-22" d="M290,131.73c-.67-3.87-7.81-42.88-37.37-58C253.69,74,270.79,79,279,91.2,286.93,103,289.67,128.57,290,131.73Z"/>
              <path class="cls-9" d="M252.62,73.74s19,1,30.06,14.47S290,131.73,290,131.73,292,86.38,252.62,73.74Z"/>
              <path class="cls-9" d="M229.86,67.4S204.8,65.56,190,80.88,171,122.1,171,122.1l-.74,5s6.56-33,19.79-44A67.88,67.88,0,0,1,229.86,67.4Z"/>
            </g>
            <g id="eye_bro" data-name="eye bro">
              <g>
                <path class="cls-9" d="M242.9,114.4l-3.15-4.2s4.94.11,13.24-.3a95.58,95.58,0,0,0,14.3-1.73l-.43-.3.11,0a28.75,28.75,0,0,1,13.35,9.57c-.32-.29-2.37-1.91-10-2.85a66,66,0,0,0-10.2-.13c-7.8.38-15.84,1.45-15.84,1.45"/>
                <path class="cls-22" d="M280.32,117.46c-.32-.29-2.37-1.91-10-2.85a66,66,0,0,0-10.2-.13c11.43-1.53,13-1.43,13-1.43a12.35,12.35,0,0,0-6.12-5.16A28.75,28.75,0,0,1,280.32,117.46Z"/>
              </g>
              <g>
                <path class="cls-9" d="M212.57,114.79l3.05-4.27s-4.93.23-13.25,0A95.35,95.35,0,0,1,188,109.15l.42-.31-.1,0a28.66,28.66,0,0,0-13.11,9.88c.31-.3,2.32-2,9.92-3.08a64.06,64.06,0,0,1,10.19-.38c7.81.18,15.87,1.06,15.87,1.06"/>
                <path class="cls-22" d="M175.24,118.75c.31-.3,2.32-2,9.92-3.08a64.06,64.06,0,0,1,10.19-.38c-11.46-1.26-13-1.12-13-1.12a12.24,12.24,0,0,1,6-5.3A28.66,28.66,0,0,0,175.24,118.75Z"/>
              </g>
            </g>
            <g id="nose" class="cls-23">
              <path class="cls-19" d="M238,163.4s-.24.72-3.05.82-5.42,2.52-10.17,2.52-7.14-2.41-9.95-2.52-3.28-.82-3.28-.82a9.15,9.15,0,0,1,.37-5.07h0a.07.07,0,0,0,0,0,15,15,0,0,1,2.59-4.49,23.31,23.31,0,0,1,20.51,0,14.56,14.56,0,0,1,2,3h0A10,10,0,0,1,238,163.4Z"/>
              <path class="cls-20" d="M231.61,165.11a5.59,5.59,0,0,1,4.82-1Z"/>
              <path class="cls-20" d="M213.37,164.09a6.42,6.42,0,0,1,5.45,1.34Z"/>
              <path class="cls-24" d="M237.27,161.51c.79-1.09-.2-4.39-.29-4.69a10,10,0,0,1,1,6.58s-.24.72-3.05.82-5.42,2.52-10.17,2.52-7.14-2.41-9.95-2.52-3.28-.82-3.28-.82a9.15,9.15,0,0,1,.37-5.07c-.1.44-.7,3.29.42,4"/>
              <path class="cls-25" d="M235,153.78s-1.54,4.71-1.35,8c0,0-1.15-3.21.37-8.44Z"/>
              <path class="cls-25" d="M214.73,153.78s1.55,4.71,1.36,8c0,0,1.15-3.21-.37-8.44Z"/>
              <path class="cls-20" d="M230.39,161c-1-.57.77-2.2,1.24-2.13s.74,1.12.47,1.8S230.81,161.26,230.39,161Z"/>
            </g>
            <g id="helmet">
              <g>
                <path class="cls-26" d="M302.37,97.31V69c0-20.07-10.81-37-25.5-42a16.72,16.72,0,0,1,.29,7c-.06.33-.11.67-.17,1,8.62,3.83,15.7,17,18.89,34.42a116.24,116.24,0,0,1,1.87,21V97c-18.14-1-42.31-.4-68.91-.37h-2c-27.38,0-52.27-.7-70.89.39v-6.5a119.45,119.45,0,0,1,1.48-18.88c3-18.49,10.27-32.57,19.25-36.57-.06-.34-.11-.67-.17-1a16.56,16.56,0,0,1,.29-7c-14.68,5.06-25.46,22-25.46,42V97.35l75.12,3.76v0l.37,0,.39,0v0Z"/>
                <path class="cls-27" d="M277.22,95.46c1.25.26,2.49.53,3.69.82v.12c-15.22-.2-33,.16-52.08.18,26.6,0,50.77-.68,68.91.37v-6.5a116.24,116.24,0,0,0-1.87-21,108,108,0,0,0-15.75-4.37A114.11,114.11,0,0,1,277.22,95.46Z"/>
                <path class="cls-27" d="M228.55,96.58h0Z"/>
                <path class="cls-27" d="M274.39,67.2c-3.28,6.09-6.46,14.49-7.88,26.24h-.15a275.55,275.55,0,0,0-39.51-2.65h0a261.39,261.39,0,0,1,47.81,4.15Z"/>
                <path class="cls-27" d="M187.34,93.46c3.06-.44,6.21-.84,9.43-1.17-3.22.33-6.37.72-9.43,1.17h-.16c-1.42-11.75-4.6-20.15-7.88-26.24L179,94.85Q183.08,94.07,187.34,93.46Z"/>
                <path class="cls-27" d="M179,96.37h-.82l-6,0V96.3c1.38-.32,2.79-.64,4.24-.94a114.79,114.79,0,0,1-2.94-29.23,80,80,0,0,0-16.08,5.47A119.45,119.45,0,0,0,156,90.48V97c18.62-1.09,43.51-.39,70.89-.39C209.61,96.59,193.35,96.31,179,96.37Z"/>
                <path class="cls-5" d="M177.73,43.12c-.25-2.81-.62-5.54-1-8.09-9,4-16.26,18.08-19.25,36.57a80,80,0,0,1,16.08-5.47A72.93,72.93,0,0,1,177.73,43.12Z"/>
                <path class="cls-5" d="M280.12,65.06a108,108,0,0,1,15.75,4.37C292.68,52,285.6,38.84,277,35c-.42,2.55-.79,5.28-1,8.08A72.24,72.24,0,0,1,280.12,65.06Z"/>
                <path class="cls-26" d="M280.91,96.4v-.12c-1.2-.29-2.44-.56-3.69-.82a114.11,114.11,0,0,0,2.9-30.4,72.24,72.24,0,0,0-4.17-22,62.92,62.92,0,0,0,.27,15.18,12.73,12.73,0,0,1-1.46,8.25c-.13.22-.25.45-.37.68l.27,27.74a261.39,261.39,0,0,0-47.81-4.15,285.76,285.76,0,0,0-30.08,1.5c-3.22.33-6.37.73-9.43,1.17q-4.26.62-8.3,1.39l.26-27.63-.38-.68a12.71,12.71,0,0,1-1.46-8.25,62.84,62.84,0,0,0,.27-15.17,72.93,72.93,0,0,0-4.21,23,114.79,114.79,0,0,0,2.94,29.23c-1.45.3-2.86.62-4.24.94v.12l6,0H179c14.32-.06,30.58.22,47.82.22h2C247.87,96.56,265.69,96.2,280.91,96.4Z"/>
                <path class="cls-28" d="M176.52,34c.06.33.11.66.17,1,.42,2.55.79,5.28,1,8.09a62.84,62.84,0,0,1-.27,15.17,12.71,12.71,0,0,0,1.46,8.25l.38.68c3.28,6.09,6.46,14.49,7.88,26.24h.16c3.06-.45,6.21-.84,9.43-1.17a285.76,285.76,0,0,1,30.08-1.5h0a275.55,275.55,0,0,1,39.51,2.65h.15c1.42-11.75,4.6-20.15,7.88-26.24.12-.23.24-.46.37-.68a12.73,12.73,0,0,0,1.46-8.25A62.92,62.92,0,0,1,276,43.09c.24-2.8.61-5.53,1-8.08.06-.34.11-.68.17-1a16.72,16.72,0,0,0-.29-7,18.28,18.28,0,0,0-11.22-12.26L232.86,1.84a16.7,16.7,0,0,0-6-1.13,16.47,16.47,0,0,0-6,1.14L188,14.74A18.3,18.3,0,0,0,176.81,27,16.56,16.56,0,0,0,176.52,34Z"/>
              </g>
              <g>
                <path class="cls-29" d="M152.53,109.66h0Z"/>
                <path class="cls-29" d="M295.63,107.72c.06,0,.12,0,.19.06,3.12,1,4.57,1.55,5.1,1.76a1.53,1.53,0,0,1,.25.08s-.77,0-1.77,0h27.78c-9.53-7.18-36.24-7.41-70.36-7.16,14.59,1,30.67,2.57,38.68,5.19C295.57,107.69,295.6,107.72,295.63,107.72Z"/>
                <path class="cls-29" d="M152.53,109.66l.25-.09c.54-.2,2-.73,5.11-1.76.06,0,.12,0,.19-.06a1,1,0,0,1,.12,0c8-2.63,24.1-4.24,38.68-5.22-34-.23-60.7,0-70.28,7.15Z"/>
              </g>
              <path class="cls-26" d="M331,110.58a10.33,10.33,0,0,1-.53,3.17c-3.31-8.78-22.31-10.89-49.57-11.26-3,0-6.08-.06-9.26-.06-13.55,0-28.76.24-44.8.24s-31.19-.22-44.77-.22c-3.4,0-6.68,0-9.86.09-26.94.39-45.71,2.53-49,11.25a10.22,10.22,0,0,1-.53-3.16c0-9,12.78-12.41,33.26-13.65,5-.29,10.43-.47,16.26-.56,15.88-.21,34.59.17,54.63.17,19.79,0,38.31-.39,54.06-.19,6,.08,11.69.26,16.83.55C318.22,98.18,331,101.57,331,110.58Z"/>
            </g>
            <g id="eyes">
              <path class="cls-30" d="M244,144.48c-.29,2.45,13.9,9.19,21.79,6.69,8.42-2.66,13.9-15.38,6-20.74S246,126.56,244,144.48Z"/>
              <g>
                <ellipse class="cls-31" cx="259.49" cy="139.79" rx="8.46" ry="9.13" transform="translate(81.4 374.65) rotate(-81.14)"/>
                <ellipse class="cls-32" cx="258.66" cy="138.53" rx="2.13" ry="2.3" transform="matrix(0.15, -0.99, 0.99, 0.15, 81.96, 372.77)"/>
              </g>
            </g>
            <g id="mouth">
              <path class="cls-33" d="M247.78,175c-.16.35-2.8,2.43-3.25,3.09-2,3-6.57,10.35-12.43,12.35a19.39,19.39,0,0,1-13.18-.09c-5.43-2.1-6.14-7-9.4-12.32-.79-1.31-4.49-3.32-4.08-3.23,3.08.71,10.8,4.23,23,3.91,9.38-.25,14.56-1.8,16.46-2.51a.47.47,0,0,1,.55.16c0,.06,2.36-1.42,2.32-1.36"/>
              <path class="cls-34" d="M245.46,176.55c-1.87,3.41-5.12,13.35-11,15.35-4,1.38-12.18,1.78-16.11-.77-5.64-3.67-8.6-11.92-9.34-13.95,3.55,3.23,4.8,11.37,16.48,12.2,14,1,17.83-10.33,20-12.83"/>
              <path class="cls-35" d="M247.75,175.37c-2.69,1.15-12.77,5-23.72,4.54-11.23-.5-16.66-4-18.64-5.18,1.08,1.9-.41-.1,0,0a76.62,76.62,0,0,0,22.4,2.44c9.37-.25,18.09-1.47,20-2.17.23-.08-.11.22,0,.37"/>
              <path class="cls-36" d="M210.59,177.29c.24.08,13.47,5.09,31.67.22,0,0-3.77,5.72-14.65,6-12.42.36-17-6.25-17-6.25"/>
              <path class="cls-37" d="M226.09,189.28c-2.55-.15-6.22-1-7.43-1.88,2.12-1.56,5.8-2.14,7.45-1.19.06,0,.11.12.18.1,2.92-.78,6.55,1.14,7.22,2-1.54.91-3.87,1.17-7.42,1"/>
              <path class="cls-38" d="M206.14,172.12s-3.48,1.8-1.07,4.73"/>
              <path class="cls-38" d="M246.77,172.68s4.64.39,2.56,4.41c0,0,.61-2.59-2.56-4.41"/>
            </g>
            <g id="eyes-2" data-name="eyes">
              <path class="cls-30" d="M210.8,143.73c.29,2.45-13.88,9.23-21.77,6.75-8.43-2.64-13.94-15.34-6.1-20.72S208.69,125.82,210.8,143.73Z"/>
              <g>
                <ellipse class="cls-31" cx="195.27" cy="139.08" rx="9.13" ry="8.46" transform="translate(-19.32 32.18) rotate(-8.98)"/>
                <ellipse class="cls-32" cx="196.09" cy="137.82" rx="2.3" ry="2.13" transform="translate(-19.11 32.29) rotate(-8.98)"/>
              </g>
            </g>
            <path class="cls-5" d="M231.93,41.8a20.16,20.16,0,0,1-5.29-8h-.15a20.16,20.16,0,0,1-5.29,8c-4.16,4.1-8.91,6.24-11.33,5.29a18.83,18.83,0,0,0-.66,4.91c0,10,7.77,20.83,17.37,20.83S243.92,62.05,243.92,52a19.4,19.4,0,0,0-.65-4.92C240.84,48.05,236.1,45.9,231.93,41.8Z"/>
          </g>
          <g>
            <path class="cls-39" d="M673.4,808.71c0,3.58-24.62,9.86-55,9.86s-55-6.28-55-9.86c4.5-1.61,24.61-6.48,55-6.48A240.48,240.48,0,0,1,673.4,808.71Z"/>
            <path class="cls-40" d="M678,821.5c-.11-3.48-1.75-10.88-4.62-12.79-6,2.38-24.62,9.86-55,9.86s-51-7.23-55-9.86c-2.72,2.12-4.51,9.31-4.63,12.79C558.2,838.9,678.62,840.94,678,821.5Z"/>
            <path class="cls-41" d="M673.4,808.71l-2.39.94a28.45,28.45,0,0,1,2.22,9.48c.5,16.31-84.22,17.5-111.12,7.17C581.37,839.09,678.56,839,678,821.5,677.91,818,676.27,810.62,673.4,808.71Z"/>
            <path class="cls-42" d="M575.39,682.77c.12,41.36.37,125.94.37,125.94,34,6.57,53,6.9,85.3,0,0,0,.25-84.07.37-125.57C638.7,686.94,598.12,686.62,575.39,682.77Z"/>
            <path class="cls-41" d="M655.84,730.32c0,16.57-13.81,30-30.84,30s-32.89-13.44-32.89-30,14.93-35.67,32-35.67S655.84,713.75,655.84,730.32Z"/>
            <path class="cls-41" d="M611.16,754.62c24.19,10.89,50-11.52,38.45-37.71C654.51,751.27,623.53,758.26,611.16,754.62Z"/>
            <path class="cls-41" d="M575.39,682.77c0,2.53,43.68,12,86,10.53,0-3.59,0-7,0-10.16C638.7,686.94,598.12,686.62,575.39,682.77Z"/>
            <polygon class="cls-43" points="575.76 743.36 551.09 739.27 551.09 709.01 575.76 704.92 575.76 743.36"/>
            <polygon class="cls-43" points="661.06 743.36 685.73 739.27 685.73 709.01 661.06 704.92 661.06 743.36"/>
            <ellipse class="cls-44" cx="618.41" cy="724.14" rx="30.84" ry="30.01"/>
            <polygon class="cls-41" points="629.43 734.85 615.45 738.57 605.55 727.34 609.54 715.63 622.39 711.48 633.62 721.53 629.43 734.85"/>
            <path class="cls-45" d="M620.4,695.82a31.23,31.23,0,0,1,19.27,6.59,31.24,31.24,0,0,0-21.26-8.28c-29.12,0-41.9,35.78-19.27,53.43C579.06,729,592.59,695.82,620.4,695.82Z"/>
            <path class="cls-39" d="M673.4,662.77c0,3.58-24.62,6.48-55,6.48s-55-2.9-55-6.48c4.5-1.61,24.61-6.48,55-6.48A240.48,240.48,0,0,1,673.4,662.77Z"/>
            <path class="cls-40" d="M678,675.55c-.15-3.48-1.75-10.87-4.62-12.78-6,2.37-24.62,6.48-55,6.48s-51-3.86-55-6.48c-2.72,2.11-4.47,9.3-4.63,12.78C558.2,688.59,678.62,689.9,678,675.55Z"/>
            <path class="cls-41" d="M670.05,666.47c-5.23,2-21.53,5.33-48.09,5.33s-54-4.39-57.53-6.54c-.91.66,39.58,17.33,104.2,4.6,5.41,6.46-7.19,11.72-7.2,11.8,4.69-.48,12.72-3.44,12.66-4.68C674,674.12,672.57,668,670.05,666.47Z"/>
            <path class="cls-43" d="M618.41,613.63c-23.79,0-43.08,23.76-43.08,46.91v1.17c10.07,1.5,25.62,2.46,43.08,2.46s33-1,43.08-2.46c0-.68,0-1.08,0-1.17C661.5,637.39,642.21,613.63,618.41,613.63Z"/>
            <path class="cls-41" d="M632.41,616.45c15.31,7.84,26,25.43,26,42.69v1.17c-10.07,1.5-25.62,2.46-43.08,2.46a341.12,341.12,0,0,1-40-2v1c10.07,1.5,25.62,2.46,43.08,2.46s33-1,43.08-2.46c0-.68,0-1.08,0-1.17C661.5,642.15,649.33,623.4,632.41,616.45Z"/>
            <path class="cls-46" d="M645.51,628c-7.21-8.16-17.17-13.65-28.17-13.65-13.77,0-25.91,8.6-33.08,20.27C601.38,648.22,630.18,643.61,645.51,628Z"/>
            <path class="cls-43" d="M629.64,615.37c.08,1.27-.46,2.42-1.2,2.55a57.28,57.28,0,0,1-20.06,0c-.74-.13-1.28-1.28-1.2-2.55.12-1.86,3.85-6.94,4.36-6.91a95.47,95.47,0,0,0,13.74,0C625.79,608.43,629.53,613.51,629.64,615.37Z"/>
            <path class="cls-43" d="M625.18,608.47V596c-5-2.52-8.18-2.67-13.53,0v12.43A95.46,95.46,0,0,0,625.18,608.47Z"/>
            <path class="cls-41" d="M623.43,595.23l.13,12.29a36.84,36.84,0,0,1-11.91.46v.49a95.46,95.46,0,0,0,13.53,0V596C624.57,595.73,624,595.46,623.43,595.23Z"/>
            <path class="cls-41" d="M629.64,615.37c-.11-1.86-3.85-6.94-4.36-6.91s-1,.06-1.5.08c1.27,1.51,3.38,4.7,3.47,6.09s-.46,2.42-1.2,2.55a57.3,57.3,0,0,1-18.34.27,1.13,1.13,0,0,0,.67.47,57.28,57.28,0,0,0,20.06,0C629.18,617.79,629.72,616.64,629.64,615.37Z"/>
            <g>
              <path class="cls-47" d="M623.42,651.56c0,5.78-2.55,8.22-4,8.22s-4-2.44-4-8.22,1.24-26.9,4-26.9S623.42,645.77,623.42,651.56Z"/>
              <path class="cls-47" d="M650.09,651.68c.39,6.71-6.65,8.1-7.5.37-.78-7-10.05-26.15-8.91-27.48C636.84,622.19,649.67,644.46,650.09,651.68Z"/>
              <path class="cls-47" d="M586,651.68c-.39,6.71,6.65,8.1,7.51.37.77-7,10-26.15,8.91-27.48C599.26,622.19,586.43,644.46,586,651.68Z"/>
            </g>
            <g>
              <path class="cls-48" d="M619.39,624.66c-.36,0-.7.36-1,1,2.53,4.2,7.18,34.13-1.59,32.16a3.52,3.52,0,0,0,2.59,2c1.48,0,4-2.44,4-8.22S622.18,624.66,619.39,624.66Z"/>
              <path class="cls-48" d="M650.09,651.68c-.39-6.73-11.55-26.52-15.64-27.25,5,5.29,12.62,19.74,12.94,25.29.22,3.7-1.82,5.77-3.84,5.61C645.71,659.11,650.41,657.2,650.09,651.68Z"/>
              <path class="cls-48" d="M602.43,624.57a1,1,0,0,0-.5-.16c-5,6.19-9.11,34-15.46,30.41,1.53,3.77,6.35,3.54,7-2.77C594.29,645.05,603.56,625.9,602.43,624.57Z"/>
            </g>
            <path class="cls-45" d="M563.43,808.71s9.29,6.39,29.49,9.38c14.38,2.13,34.22,2.91,60.48-3.18C597.41,826,563.43,808.71,563.43,808.71Z"/>
            <path class="cls-39" d="M658.22,819.29c-59.19,10.62-86.89-2.42-93.3-6.14-1.48,3.06-2.42,10.57-2.31,11C572.73,827.24,620,840.05,658.22,819.29Z"/>
            <polygon class="cls-47" points="553.3 711.26 553.3 714.24 570.54 714.24 570.54 708.28 553.3 711.26"/>
            <polygon class="cls-47" points="553.3 737.17 553.3 734.19 570.54 734.19 570.54 740.15 553.3 737.17"/>
            <polygon class="cls-41" points="571.17 741.2 551.09 739.27 575.76 743.36 575.76 704.92 571.17 741.2"/>
            <polygon class="cls-47" points="553.3 725.63 553.3 722.65 570.54 721.53 570.54 727.49 553.3 725.63"/>
            <polygon class="cls-47" points="682.02 711.26 682.02 714.24 664.78 714.24 664.78 708.28 682.02 711.26"/>
            <polygon class="cls-47" points="682.02 737.17 682.02 734.19 664.78 734.19 664.78 740.15 682.02 737.17"/>
            <polygon class="cls-47" points="682.02 725.63 682.02 722.65 664.78 721.53 664.78 727.49 682.02 725.63"/>
            <polygon class="cls-41" points="664.31 740.93 685.73 739.27 661.06 743.36 661.06 704.92 664.31 740.93"/>
            <path class="cls-45" d="M572.64,661.42l-6.3,1.69s42.11,10.35,84.22,2.83c-45.43,4.83-80.41-3.17-80.41-3.17Z"/>
            <polygon class="cls-46" points="581.68 728.14 583.73 791.55 586.84 792.52 586.84 736.76 581.68 728.14"/>
            <polygon class="cls-46" points="590.65 748.26 590.65 803.66 592.11 803.51 595.49 755.25 590.65 748.26"/>
            <path class="cls-45" d="M611.66,609.39s-3.49,5-3,7c1.23-3.29,5.5-6.8,5.5-6.8Z"/>
            <path class="cls-45" d="M603.66,618.8s11,3.42,17.86,2.17c-8.39,2.58-19.87-1.47-19.87-1.47Z"/>
            <path class="cls-41" d="M587.15,685.83s42.53,4.09,71-1v5.24A297.94,297.94,0,0,1,587.15,685.83Z"/>
            <path class="cls-49" d="M641.84,695.82s14,7.77,16.38,19.72l-.11-19.72Z"/>
            <polygon class="cls-41" points="653.39 760.33 649.25 763.37 651.32 800.73 653.39 760.33"/>
            <path class="cls-50" d="M618.41,701.5c-12.83,0-23.27,10.16-23.27,22.64s10.44,22.64,23.27,22.64,23.27-10.15,23.27-22.64S631.24,701.5,618.41,701.5Zm0,43.65c-11.9,0-21.59-9.43-21.59-21s9.69-21,21.59-21,21.59,9.43,21.59,21S630.32,745.15,618.41,745.15Z"/>
            <polygon class="cls-51" points="621.84 713.37 628 721.53 624.71 730.86 614.91 731.81 607.51 726.86 615.52 734.91 626.68 732.19 629.84 721.42 621.84 713.37"/>
            <polygon class="cls-45" points="606.65 727.49 610.02 715 622.39 711.48 609.26 714.68 605.55 727.34 614.96 736.8 606.65 727.49"/>
            <path class="cls-46" d="M612.45,596.82a9.21,9.21,0,0,1,6.94-1.36,20,20,0,0,0,1.05,11.86,21.17,21.17,0,0,1-8,0Z"/>
          </g>
          <path class="cls-52" d="M434.56,656.55c26.83,16.6,67,63.37,119.56,62.92V731c-65.47-2.87-110.62-48.41-127.9-66.42-25.38-26.44-67.66-25.42-88.84-26.79v0c-108.57-3-169.74-23.41-181.09-54.21-6.13-16.63,4.9-30.68,27.79-50.7,18.7-10.1,36.21-18.17,49.48-24.12s22.27-9.71,23.93-11.25c16.2-14.89-34.76-37.37-48.9-42.18-15.65-5.35-65.46-8.73-84.47-9.29V435.54c.57,0,68.35,2.93,85.7,8.78,23.11,7.79,35.37,15.63,51.36,26.79,15.31,10.68,17.6,27.12-4.05,40.56-32.34,20.06-35.37,11.91-65.5,36.23-12.08,10.93-23.86,24.62-19.09,37.57,4.06,11,23.39,19.88,49.27,27,27.1,7.45,55.86,14.16,102.17,14.5,6.79,0,31.7,2.07,38.48,2.67l20.42,1.53C392.35,633.33,397.72,633.74,434.56,656.55Z"/>
          <g>
            <path class="cls-4" d="M352.28,407.83l-51.95,62.41a2.18,2.18,0,0,1-1.5.87h0a2.13,2.13,0,0,1-1.72-.55L268.23,445c-1-.87,2.24-3.6,3-4.65l3.48-2.5,15.52-25.5,6.2-8.09,6.21-8.08h0l5.37-8.39,7.3-11c3.55-4.63,2-8.64,0-14.31l-6.16-16.59,53.26,25.32C368.79,391.32,364.77,391.53,352.28,407.83Z"/>
            <polygon class="cls-5" points="327.69 438.38 320 446.99 286.94 415.91 293.14 407.83 327.69 438.38"/>
            <polygon class="cls-6" points="335.53 429.62 327.69 438.38 293.14 407.83 299.25 399.42 335.53 429.62"/>
            <polygon class="cls-5" points="344.35 417.35 334.71 428.93 299.25 399.42 307.32 387.71 344.35 417.35"/>
            <path class="cls-53" d="M306.78,462.49,300,470.1c-.8,1-4.78,5-5.77,4.12l-25.32-26.51a2.6,2.6,0,0,1-.33-3.47l6.3-8.22Z"/>
          </g>
          <path class="cls-54" d="M315.2,376a22.46,22.46,0,0,1,2.48-3,16.14,16.14,0,0,1,3.09-2.49,12.13,12.13,0,0,1,3.7-1.49,11.07,11.07,0,0,1,3.93-.19,18.21,18.21,0,0,0-3.78.75,15.9,15.9,0,0,0-3.46,1.57,24.1,24.1,0,0,0-3.08,2.26C317.1,374.23,316.17,375.13,315.2,376Z"/>
        </g>
        <path class="cls-53" d="M257.81,445.12c-.56.2-17.81,2-18.19,2.46-2.25,2.67,2.24-2.67,0,0"/>
        <path class="cls-8" d="M239.62,447.58a91.5,91.5,0,0,0-13.24,12.79,18.56,18.56,0,0,0-3.51,5.45,7.26,7.26,0,0,0,.36,6.29,5.68,5.68,0,0,0,6.78,2.13c1.83-.78,3.08-2.47,4.31-4a71.63,71.63,0,0,1,7.51-8.16,36.24,36.24,0,0,0-9.53,10.4,5.89,5.89,0,0,0-1.16,3.72,4.92,4.92,0,0,0,1,2.24c1.07,1.44,2.81,2.66,4.55,2.25a6,6,0,0,0,2.82-2l9.61-10.4-6,6.07A16.59,16.59,0,0,0,239.5,479a5.66,5.66,0,0,0,.34,5.7c1.62,2.08,4.91,2.13,7.24.89s4-3.45,5.64-5.49a70.71,70.71,0,0,1,5.5-6q-4.23,4.14-8.06,8.66a6.78,6.78,0,0,0-1.71,2.93c-.51,2.59,2.09,4.87,4.68,5.36a5.59,5.59,0,0,0,3.41-.28c2.45-1.14,3.12-4.31,5-6.22,2.6-2.63,6.84-2.4,10.52-2l6.84.78a20.3,20.3,0,0,0,3.57.18,9.83,9.83,0,0,0,8.91-11.88,19.69,19.69,0,0,0-3.34-6.64c-1.24-1.82-2.47-3.65-3.83-5.39-4.1-5.22-9.57-9.69-16.06-11.11-1.18-.25-.39.23-1.53-.16-1.59-.54-4.31-.43-5.87-1.05s-21.94-1.09-21.16.28"/>
        <path class="cls-55" d="M84.34,400.28l-9.17,5.79a13.57,13.57,0,0,0-2.54,1.9,14.79,14.79,0,0,0-2.42,3.86,84.28,84.28,0,0,1-10.66,16.22c-1.17,1.39-2.4,3.48-1.17,4.82a3.67,3.67,0,0,0,1.86.91,9,9,0,0,0,3.94.46c2.24-.4,3.81-2.37,5.17-4.2l6.7-9a4.73,4.73,0,0,1,1.41-1.44,5.91,5.91,0,0,1,2-.52,14.37,14.37,0,0,0,7.2-3.39"/>
        <g>
          <polygon class="cls-56" points="38.04 429.98 38.66 443.65 2.54 442.53 1.92 428.87 38.04 429.98"/>
          <path class="cls-57" d="M43.71,440.46c0,.62-.34,1.11-.82,1.09h-.14c-.49,0-.85.47-.83,1.09l.13,2.78c0,.62-.34,1.11-.82,1.09l-6.78-.21a1.12,1.12,0,0,1-.92-1.15l-.77-17c0-.62.34-1.11.82-1.1l6.78.21a1.12,1.12,0,0,1,.92,1.15l.12,2.6a1.3,1.3,0,0,0,1.07,1.33,1.11,1.11,0,0,1,.92,1.14Z"/>
          <g>
            <path class="cls-58" d="M70.92,430.19a1.3,1.3,0,0,0-1.07-1.33l-1.3,0a2.21,2.21,0,0,0-1.77.84l0,0a2.21,2.21,0,0,1-1.77.84l-3.07-.09A1.12,1.12,0,0,1,61,429.3l0-.27a1.12,1.12,0,0,0-.92-1.15l-17.95-.55c-.48,0-.85.47-.82,1.09l.12,2.78a1.12,1.12,0,0,0,.93,1.14h.14a1.11,1.11,0,0,1,.92,1.14l.32,7c0,.62-.34,1.11-.82,1.09s-1,.55-1,1.27l.11,2.42a1.3,1.3,0,0,0,1.07,1.33l17.68.55c.56,0,1-.56,1-1.27v-.09c0-.62.33-1.11.82-1.09l3.06.09a2.65,2.65,0,0,1,1.86.95l0,0a2.62,2.62,0,0,0,1.86,1l1.29,0c.56,0,1-.55,1-1.27Z"/>
            <polygon class="cls-27" points="101.67 446.41 71.62 445.48 70.92 430.19 100.97 431.13 101.67 446.41"/>
            <path class="cls-58" d="M101,431.12c0-.71.39-1.28,1-1.26l1.29,0a2.65,2.65,0,0,1,1.86,1l0,0a2.65,2.65,0,0,0,1.86.95l17.89,1.45a1.42,1.42,0,0,1,1.11,1.44l.44,9.61a1.18,1.18,0,0,1-1,1.37l-17.8.35a2.23,2.23,0,0,0-1.78.84l0,0a2.21,2.21,0,0,1-1.77.84h-.43l-.44,0h-.43a1.29,1.29,0,0,1-1.07-1.33Z"/>
            <path class="cls-27" d="M54.52,424.17c0-1.74.84-3.1,2-3l2.19.12A1.88,1.88,0,0,1,60,422a1.36,1.36,0,0,0,1.38.59l31.82-8a2.09,2.09,0,0,0,1.33-1.42C95,411.81,96,410.9,97.21,411c1.77.1,3.25,2.36,3.32,5.06s-1.3,4.82-3.07,4.72a2.81,2.81,0,0,1-1.95-1.09,1.63,1.63,0,0,0-1.65-.67l-32.17,8a1.41,1.41,0,0,0-.77,1.46L61,431l-6.3-.34Z"/>
            <polygon class="cls-57" points="50.36 427.58 47.51 427.5 48.38 446.73 51.23 446.82 50.36 427.58"/>
          </g>
        </g>
        <g>
          <path class="cls-8" d="M80.28,441.76c-1.62,7.38-.21,13.65-8.52,12.3-3.11-.5-4.28-7-2.66-14.42s5.43-12.88,8.52-12.3S81.9,434.38,80.28,441.76Z"/>
          <path class="cls-8" d="M110.1,444.85c-.85,7.22-3.41,10.81-5.86,10.56-1.69-.17-2.93-1-3.21-5.08-1.45,5-4.14,5.29-6.16,5.08-2.54-.26-5.07.63-2.46-15.2-1.12,17-5.15,15.5-8.34,15.2-3.45-.36-5.54-3.89-4.37-13.75s4.93-16.06,8.36-15.72c3.12.33,4.91,5.65,4.35,14.27,1.24-7.63,3.2-12.24,5.79-12,2.11.21,6,.64,3.08,20,1.74-18,4.35-17,5.93-16.87C109.67,431.59,111,437.64,110.1,444.85Z"/>
        </g>
        <path class="cls-8" d="M90.05,398.31s-3.88,3.57-7.29,6.36c-2.47,2-4.46,4.56-6.84,6.69a31.57,31.57,0,0,0-3.78,3.52c-2.59,3.24-4.15,6.55-6.28,10.1-1.23,2-1.76,4.91-3.64,6.39a3.25,3.25,0,0,0-1.46,1.88,2.33,2.33,0,0,0,.23,1.26c.94,2.1,5.14,2.28,11.27-1.87.92-.62,5.37-5,8.78-12.25.13-.27,9.8-4.92,13.48-7.17"/>
        <path class="cls-54" d="M114.22,349.57a36.41,36.41,0,0,1,7.45.13,20,20,0,0,1,7.13,2.3,20.55,20.55,0,0,1,5.69,4.89,22.23,22.23,0,0,1,3.64,6.49,28.89,28.89,0,0,0-4.08-6.12,21.28,21.28,0,0,0-5.62-4.61,20.31,20.31,0,0,0-6.85-2.38A56.25,56.25,0,0,0,114.22,349.57Z"/>
        <path class="cls-5" d="M93.13,371.22,89,383.35l8.92,2.42a65.7,65.7,0,0,0,7.36,1.49c3.56.52,7,1.33,10,3.39l17.28,13.2,3.18-13.22a1.26,1.26,0,0,0-.33-1.18l-10.17-10.32c-4.75-4.65-13.79-9.35-20.39-8.64Z"/>
      </g>
    </g>
  </g>
</svg>
