<svg id="Layer_1" data-name="Layer 1" xmlns="http://www.w3.org/2000/svg" width="233" height="627" viewBox="0 0 233 627">
  <defs>
    <style>
      .cls-1 {
        opacity: 0.3;
      }

      .cls-2 {
        fill: #351a1a;
      }

      .cls-2, .cls-3, .cls-6 {
        stroke: #301a1a;
      }

      .cls-10, .cls-11, .cls-12, .cls-13, .cls-16, .cls-18, .cls-2, .cls-27, .cls-28, .cls-3, .cls-4, .cls-5, .cls-6, .cls-7 {
        stroke-miterlimit: 10;
      }

      .cls-3 {
        fill: #140808;
      }

      .cls-4 {
        fill: #5b3a38;
      }

      .cls-4, .cls-5 {
        stroke: #140909;
      }

      .cls-5 {
        fill: #3d211f;
      }

      .cls-6 {
        fill: #684343;
      }

      .cls-14, .cls-7 {
        fill: #829383;
      }

      .cls-13, .cls-7 {
        stroke: #233323;
      }

      .cls-11, .cls-16, .cls-7 {
        stroke-width: 2px;
      }

      .cls-8 {
        fill: #556356;
      }

      .cls-9 {
        fill: #5a7362;
      }

      .cls-10, .cls-23 {
        fill: #f2bd91;
      }

      .cls-10 {
        stroke: #9b4343;
      }

      .cls-11, .cls-13 {
        fill: #63573b;
      }

      .cls-11, .cls-12, .cls-16, .cls-27, .cls-28 {
        stroke: #281c1c;
      }

      .cls-12 {
        fill: #869ba9;
      }

      .cls-15 {
        fill: #233323;
      }

      .cls-16 {
        fill: none;
      }

      .cls-17, .cls-18 {
        fill: #32383f;
      }

      .cls-18 {
        stroke: #14191e;
      }

      .cls-19 {
        fill: #1e0909;
      }

      .cls-20 {
        fill: #fff;
      }

      .cls-21 {
        fill: #330e0e;
      }

      .cls-22 {
        fill: #fcf5f5;
      }

      .cls-24 {
        fill: #752a2a;
      }

      .cls-25 {
        fill: #281c1c;
      }

      .cls-26 {
        fill: #9b4343;
      }

      .cls-27 {
        fill: #897a7a;
      }

      .cls-28 {
        fill: #5b5151;
      }
    </style>
  </defs>
  <g>
    <ellipse class="cls-1" cx="116.5" cy="602.57" rx="115.5" ry="23.59"/>
    <g>
      <g>
        <g>
          <g>
            <path class="cls-2" d="M21.92,6.76,51.25,207.38l-8.49,56.08,9,77.3,35.82,4.71L71,226.7,36,10.53,44.18,1,24.06,3.88A2.55,2.55,0,0,0,21.92,6.76Z"/>
            <ellipse class="cls-3" cx="28.91" cy="4.59" rx="7.21" ry="2.47" transform="translate(-0.36 4.68) rotate(-9.19)"/>
          </g>
          <path class="cls-4" d="M75.6,524.72l-17.44-.63,1.1-1.88s-4.35,8.48-7.07,33S42.76,577,32,582.64c-9.46,5-12.92,10.71-13.07,19.74a8,8,0,0,0,3.78,6.94c4.81,3,14.75,6.78,32,3.9,0,0,11.1-2.41,16.34-9.64A39.18,39.18,0,0,1,81,595.94l2.46-1.63"/>
          <path class="cls-5" d="M48.26,512.88l.73,1.68s2,9.64-.73,34.14-4.4,22-15.18,27.65S18,589.23,18.83,600.65c0,0,10.58,10.68,37,6.28,0,0,11.1-2.4,16.34-9.63a39.34,39.34,0,0,1,10-7.65l.94-.21a181,181,0,0,1,1-40.74c3.14-21.57,4.19-35.82,4.19-35.82Z"/>
          <g>
            <path class="cls-4" d="M71.51,513.88a72.18,72.18,0,0,0-1.33,13.85l0,1.25c-.08,4.63,0,9.49-.2,14.31,0,.42,0,.84,0,1.25a78.8,78.8,0,0,1-1.69,14.21c-.1.42-.2.85-.31,1.26a42.93,42.93,0,0,1-1.42,4.46,47.81,47.81,0,0,1-3.39,7.06c-.25.43-.5.83-.76,1.23-4.87,7.47-9.52,8-9.52,8-2-1.72-6.6-2.51-6.6-2.51a28.93,28.93,0,0,0,6.53-8c.22-.39.43-.8.63-1.2a36.45,36.45,0,0,0,3.16-10.75l.18-1.31a111.64,111.64,0,0,0,.65-13.22c0-.43,0-.87,0-1.31,0-3.49,0-7.17,0-11,0-1.13,0-2.19.06-3.22,0-.44,0-.87,0-1.29.6-16.72,3.67-19.53,3.67-19.53S74.65,499.9,71.51,513.88Z"/>
            <path class="cls-5" d="M70.18,527.73l0,1.25c-2-.05-4.26-.14-6.72-.28-2.17-.13-4.21-.28-6-.44,0-.44,0-.87,0-1.29,1.8,0,3.86.13,6.05.26C66,527.38,68.24,527.55,70.18,527.73Z"/>
            <path class="cls-5" d="M70,543.29c0,.42,0,.84,0,1.25-2,0-4.27-.14-6.74-.29-2.09-.12-4.06-.27-5.8-.42,0-.43,0-.87,0-1.31,1.76.06,3.76.14,5.87.27C65.71,542.93,68,543.11,70,543.29Z"/>
            <path class="cls-5" d="M68.22,558.75c-.1.42-.2.85-.31,1.26-1.79-.2-3.84-.47-6-.79-1.92-.28-3.74-.57-5.36-.86l.18-1.31c1.64.19,3.47.44,5.39.72C64.33,558.09,66.41,558.43,68.22,558.75Z"/>
            <path class="cls-5" d="M63.1,571.53c-.25.43-.5.83-.76,1.23l-4.07-1c-2-.5-3.86-1-5.52-1.47.22-.39.43-.8.63-1.2,1.6.36,3.38.77,5.24,1.24C60.21,570.75,61.72,571.15,63.1,571.53Z"/>
          </g>
          <path class="cls-5" d="M92.72,511.12c0,6.55-10.67,10.46-24,10.46s-24.58-5.7-23.56-12.18c1.57-10,10.83-11.86,24.19-11.86S92.72,504.57,92.72,511.12Z"/>
          <path class="cls-5" d="M20.61,587.87s6.76-18.38,30.79-11.31S68.06,601.7,68.06,601.7"/>
          <path class="cls-6" d="M82,572.32s-10.84,7.54-5.81,20.89"/>
        </g>
        <g>
          <path class="cls-4" d="M160.75,526.6l17.44-.62-1.1-1.89s4.34,8.48,7.07,33,9.42,21.79,20.21,27.44c9.45,5,12.91,10.72,13.06,19.75a8,8,0,0,1-3.78,6.94c-4.81,3-14.74,6.77-32,3.89,0,0-11.1-2.41-16.34-9.63a39.11,39.11,0,0,0-10-7.65l-2.46-1.62"/>
          <path class="cls-5" d="M188.08,514.77l-.73,1.68s-2,9.63.73,34.14,4.4,22,15.19,27.65,15.08,12.88,14.24,24.3c0,0-10.58,10.68-37,6.28,0,0-11.1-2.41-16.34-9.64a39.21,39.21,0,0,0-9.95-7.64l-.94-.21a180.28,180.28,0,0,0-1.05-40.74c-3.14-21.58-4.19-35.82-4.19-35.82Z"/>
          <g>
            <path class="cls-4" d="M164.83,515.77a71.36,71.36,0,0,1,1.34,13.85l0,1.25c.07,4.63,0,9.48.19,14.3,0,.42,0,.84.05,1.25a78,78,0,0,0,1.69,14.22l.3,1.26a40.52,40.52,0,0,0,1.43,4.45,46.87,46.87,0,0,0,3.38,7.06c.26.43.51.84.77,1.23,4.87,7.48,9.52,8.05,9.52,8.05,2-1.73,6.6-2.52,6.6-2.52a28.62,28.62,0,0,1-6.54-8q-.33-.6-.63-1.2a36.53,36.53,0,0,1-3.15-10.75q-.1-.64-.18-1.32a111.37,111.37,0,0,1-.66-13.21v-1.31c0-3.5,0-7.17,0-11,0-1.12,0-2.19-.05-3.21,0-.44,0-.88,0-1.3-.59-16.72-3.67-19.53-3.67-19.53S161.69,501.78,164.83,515.77Z"/>
            <path class="cls-5" d="M166.17,529.62l0,1.25c2,0,4.25-.14,6.71-.29,2.17-.13,4.22-.27,6-.43,0-.44,0-.88,0-1.3-1.8,0-3.86.14-6,.27C170.39,529.26,168.11,529.43,166.17,529.62Z"/>
            <path class="cls-5" d="M166.39,545.17c0,.42,0,.84.05,1.25,2,0,4.26-.14,6.74-.28,2.08-.12,4-.27,5.79-.42v-1.31c-1.77.05-3.77.14-5.88.26C170.63,544.82,168.34,545,166.39,545.17Z"/>
            <path class="cls-5" d="M168.13,560.64l.3,1.26c1.8-.21,3.85-.48,6-.8,1.92-.28,3.74-.57,5.37-.85q-.1-.64-.18-1.32c-1.64.2-3.47.44-5.4.72C172,560,169.93,560.32,168.13,560.64Z"/>
            <path class="cls-5" d="M173.24,573.41c.26.43.51.84.77,1.23,1.27-.29,2.65-.62,4.07-1,2-.5,3.85-1,5.51-1.46q-.33-.6-.63-1.2c-1.6.35-3.38.77-5.24,1.24C176.14,572.64,174.63,573,173.24,573.41Z"/>
          </g>
          <path class="cls-5" d="M143.62,513c0,6.55,10.68,10.45,24,10.45s24.58-5.7,23.56-12.17c-1.57-10-10.83-11.86-24.19-11.86S143.62,506.45,143.62,513Z"/>
          <path class="cls-5" d="M215.73,589.76s-6.75-18.38-30.79-11.31-16.65,25.13-16.65,25.13"/>
          <path class="cls-6" d="M154.31,574.21s10.84,7.54,5.81,20.89"/>
        </g>
        <path class="cls-7" d="M192.16,503.67l-3.17,3-3.11,2.95c-6.74,3.67-17.13,4.06-26,3.5a130,130,0,0,1-17-2.25c-11.31-9.11-12.26-12.25-11.63-26.07.07-1.53,0-3.92-.05-7-.23-7.58-.92-19.22-1.74-31.7-1-14.41-2.13-29.94-3-41.63v0c-.86-11-1.47-18.64-1.47-18.64l-5,6S117.85,405,115.24,421c-3.32,20.42-7.55,45.58-9.62,54.59-.18.78-.34,1.44-.49,2-3.14,11.31-.63,5.66-1.88,13.51q-.09.58-.24,1.2c-1.81,7.84-9.81,18.93-33.68,19.54h0c-25.13.62-37.7-19.17-32.36-22s4.71-10.36,4.71-10.36l.51-5.68,6.51-72.35,3-51.43s12.88-46.5,71-42.1,61,47.13,61,47.13l1.26,39.59-.94,4.08,5.64,35.38,1.27,8c-3.46,26.7,3.77,36.75,7.85,47.13S192.16,503.67,192.16,503.67Z"/>
        <path class="cls-8" d="M75.05,492.11c-2.37,2.65-7.23,3.08-8.08,6.54-.58,2.38,1.24,4.59,2.28,6.81a11.2,11.2,0,0,1,1,5.93h0c-25.13.63-37.7-19.17-32.36-22S42.55,479,42.55,479l.51-5.67c4.68,2.45,8.86,7.87,13.86,8.91,5.63,1.17,10.58-3.93,16.26-.06C76.32,484.35,77.58,489.27,75.05,492.11Z"/>
        <path class="cls-8" d="M115.24,421c-3.32,20.42-7.55,45.58-9.62,54.59a21.16,21.16,0,0,0-2.65-.4c-7.17-1.05-12-9.92-8.9-16.49,1.6-3.44,4.89-6.18,5.31-10,.36-3.34-1.65-6.41-2.62-9.63a16,16,0,0,1,0-9.17c.53-1.74,11.69-7.5,13.63-8.13A11.74,11.74,0,0,1,115.24,421Z"/>
        <path class="cls-8" d="M153.05,417.32c-.88,1.17-2.13,2.05-2.92,3.28-1.66,2.6-.93,6-.38,9s.66,6.66-1.72,8.62c-2.95,2.43-10.28,4.2-14,6.11a32.17,32.17,0,0,1-3.74,1.82c-1-14.41-2.13-29.94-3-41.63v0c0-.1,0-.2,0-.3a4,4,0,0,1,.23-2.1,3.26,3.26,0,0,1,1.89-1.26c2.57-.95,5.78-1.78,7.79.09.87.82,1.31,2,2.1,2.91,2.63,3,7.59,1.55,11.17,3.21A7.14,7.14,0,0,1,153.05,417.32Z"/>
        <path class="cls-8" d="M132.5,477.41l3.38-.92c3.61-1,7.94-1.79,10.7.73,3,2.76,2.37,8,5.27,10.87,4.13,4.09,12,.44,16.55,4.06,3.19,2.53,2.75,8.31-.78,10.33a25.62,25.62,0,0,0-3.3,1.69c-2.26,1.79-2,5.21-2.92,7.95a5.71,5.71,0,0,1-.21.58Z"/>
        <path class="cls-8" d="M191.27,503.67l-3.17,3c-2.63,1.34-5.88,2-8.2.31-3-6.42,8.34-12.87,5.72-19.47-1.4-3.54-6.14-4.64-8-8s-.19-7.31,1.73-10.5,4.23-6.57,3.79-10.27c-.88-7.27-11.76-10.87-11.16-18.16.31-3.78,3.94-6.59,7.67-7.26a21.9,21.9,0,0,1,9.08.74l1.27,8c-3.46,26.7,3.77,36.75,7.85,47.13S191.27,503.67,191.27,503.67Z"/>
        <path class="cls-8" d="M161.9,512.25l-18.12-1.67s-13.31-9.92-11.42-21.54l.63-11.5"/>
        <path class="cls-9" d="M47.84,345.76s4.4,28.91,66.61,37.08c0,0,11.31-1.89,17-20.74a50.73,50.73,0,0,0,17.6,22l25.76-5.66,4.83,15.89,3.34-3.32.74-36s-36.56-67.73-67.35-33.79.6-3.56.6-3.56Z"/>
        <g>
          <path class="cls-10" d="M196.41,339.66s1.41,3.45-.16,8.64-2.51,6.91.63,15.55-1.42,11,1.73,13.67c0,0,6.44.78,8.16-3.77a27.66,27.66,0,0,1-1.09,10.52s-4.09,4.09-1.1,6.13,5.34-2.2,9.26-8.33,5.5-10.68,5.19-19.48-3-29.06-6.6-37.86S196.41,339.66,196.41,339.66Z"/>
          <path class="cls-10" d="M206.93,374.69a126.33,126.33,0,0,1-.78-14.14"/>
        </g>
        <g>
          <path class="cls-10" d="M36.53,343.22s3.28-.15,11.71,10.09a25.41,25.41,0,0,1,5.36,12,20.33,20.33,0,0,0,4.51,9.71s5.86,9.63-4.82,6.28l-9.22-6.18S42.5,392.23,46,398.73c0,0-1,6.28-7.75,1.57,0,0-1.15,3.56-6.29.42,0,0-2.72,3.14-6.91-2.62,0,0-6.81-.32-9.11-9.22s-3-29.64,1.36-41.58S36.53,343.22,36.53,343.22Z"/>
          <path class="cls-10" d="M31.92,400.72s-5.44-6.18-7.54-20.85"/>
          <path class="cls-10" d="M25,398.1s-2.3-2.41-4.61-12.26"/>
          <path class="cls-10" d="M39.78,401s-2.52.31-4.51-7.75A87.18,87.18,0,0,1,33,378"/>
          <line class="cls-10" x1="43.97" y1="376.31" x2="44.39" y2="370.03"/>
        </g>
        <path class="cls-7" d="M217.62,336.2a38.58,38.58,0,0,1-21.69,6.28s-2-6.54-5-15.7c-4.64-14-11.78-34-18.23-46.19-10.69-20.11-11.95-137.94,5.65-140.13,0,0,10.68-2.52,16,21.36s12.26,72,14.77,91.75c.25,1.94.53,4.3.83,7,0,0,0,0,0,0,1.27,11.13,3,27.7,4.43,42.51.56,5.63,1.09,11,1.55,15.73Z"/>
        <path class="cls-7" d="M57.06,224.35,46.17,271.16l-3.39,52.28-.52,8.08-.91,14.11c-10.37,6.59-24.82,4.08-24.82,4.08s-.82-3.95-2-10.95l-.06-.41c-.2-1.23-.41-2.56-.62-4Q13.39,331,12.84,327h0c-1.11-8.31-2.27-18.55-3.15-30.13-.64-8.53-1.13-17.79-1.33-27.54a332.72,332.72,0,0,1,1.73-43.38c.95-8.63,2.24-16.61,3.81-24,1.14-5.36,2.43-10.42,3.84-15.23.35-1.19.7-2.37,1.07-3.52,1.71-5.44,3.58-10.54,5.57-15.33a75,75,0,0,1,7.06-13.73c5.35-7.67,8-4.49,8-4.49C66.49,170,57.06,224.35,57.06,224.35Z"/>
        <g>
          <path class="cls-8" d="M42.78,323.44l-.52,8.08-.91,14.11c-10.37,6.59-24.82,4.08-24.82,4.08s-.82-3.95-2-10.95l-.06-.41c-.2-1.23-.41-2.56-.62-4Q13.39,331,12.84,327h0A11.27,11.27,0,0,1,14,325.82a17.5,17.5,0,0,1,6.74-3.27,14.07,14.07,0,0,1,6.43-.55c2.2.43,4.14,1.68,6.23,2.51s4.63,1.14,6.44-.19c.6-.43,1.13-1.05,1.86-1.15A1.35,1.35,0,0,1,42.78,323.44Z"/>
          <path class="cls-8" d="M217.62,336.2a38.58,38.58,0,0,1-21.69,6.28s-2-6.54-5-15.7c5.75-.4,11.5-2.14,15-6.6a8.86,8.86,0,0,1,2.25-2.43c1.36-.8,3.09-.53,4.61-.1a26.91,26.91,0,0,1,3.21,1.14Z"/>
          <path class="cls-8" d="M24,266.87c-2.11,3.22-5.66,5.47-7.09,9.05-2,5.1.89,11.37-1.75,16.18a12.27,12.27,0,0,1-5.45,4.72c-.64-8.53-1.13-17.79-1.33-27.54a332.72,332.72,0,0,1,1.73-43.38A9.37,9.37,0,0,1,11,227c2.31,3.12,4.71,6.42,5.21,10.27.25,1.88,0,3.82.5,5.65,1,4.06,5.06,6.54,7.33,10A13.08,13.08,0,0,1,24,266.87Z"/>
          <path class="cls-8" d="M38.78,175.79c.21,3.46-3,6.34-6.34,7.15s-6.88.12-10.31-.32a5,5,0,0,0-2.94.25,3.57,3.57,0,0,0-.38.25c1.71-5.44,3.58-10.54,5.57-15.33a75,75,0,0,1,7.06-13.73,18.65,18.65,0,0,0,.58,4c1.47,4.86,3.89,9.63,5.8,14.34A11,11,0,0,1,38.78,175.79Z"/>
          <path class="cls-8" d="M202.68,303.43q1.51-6,3-12c-1.59,1.74-4.79.35-5.55-1.89s.13-4.66,1.11-6.8,2.09-4.41,1.79-6.74c-.5-3.84-4.58-6.31-5.65-10a6.85,6.85,0,0,1,10.49-7.51,10,10,0,0,1,2.07,2s0,0,0,0c1.27,11.13,3,27.7,4.43,42.51Z"/>
        </g>
        <path class="cls-7" d="M63.34,307s-17,23.88-20.73,39.59c0,0,35.19,31.42,70.69,31.42,0,0,16.65-14.45,17.6-60l1.57-.32s-.95,37.71,16.65,56.56c0,0,25.45-4.09,37.39-13.2,0,0,2.83-26.39-15.4-54.35C171.11,306.67,66.8,285.93,63.34,307Z"/>
        <g>
          <path class="cls-11" d="M59.26,274.62s-2.2,1.57.31,6c0,0-.19,6.41-.2,13.82,0,5.81.1,12.24.52,16.65,0,0,28.85,10.14,73.52,9.76l1.57,0s32.68-2.82,39.28-8.48l3.14-4.08a92,92,0,0,1,.63-22.63c1.88-12.56-.63-14.76-6.92-11.31S59.26,274.62,59.26,274.62Z"/>
          <path class="cls-7" d="M88.79,283.73s-5.34,17.91-1.88,34.56l-10.68-2.2S71.51,297.55,80,281.84Z"/>
          <path class="cls-7" d="M162.94,280.68s3.75,18.84,1.32,36.35l7.5-2.31s3.31-19.5-2.64-36Z"/>
          <g>
            <path class="cls-12" d="M114.85,290.75s.83,19.26,2.08,26.95a60.13,60.13,0,0,0,34.95-1.46l-2.56-28.18Z"/>
            <g>
              <ellipse class="cls-12" cx="133.89" cy="300.24" rx="5.03" ry="4.82" transform="translate(-20.62 10.07) rotate(-4)"/>
              <path class="cls-12" d="M122.27,296.23s-.48,11.16,11.52,11.58l.71,7.09L131,310.31S117.31,309.38,122.27,296.23Z"/>
              <path class="cls-12" d="M144.09,294.78s2,11-9.79,13.07l.29,7.12,2.79-5S150.83,307.11,144.09,294.78Z"/>
            </g>
          </g>
        </g>
        <path class="cls-7" d="M175.61,135.83l-26.4-9.42s-28.91-16.34-57.81-2.52-41.16,17-50.58,25.45c0,0,26.39,23.25,20.73,74.78,0,0-5,31.42.63,44.62l3.46,10.05a47.53,47.53,0,0,0,10,4c8.51,2.64,22.79,5.62,44.21,5.79q7.77.08,16.81-.41c7-.39,12.93-1,17.94-1.73,31.68-4.7,27-15.24,27-15.24s4.27-16.28,7-35c1.53-10.48,2.58-21.72,2.13-31.29,0,0,1.46-5.84-5.45-31.6"/>
        <path class="cls-8" d="M115.46,283.61a17.73,17.73,0,0,1-1.06,4.62c-21.42-.17-35.71-3.15-44.21-5.79a4.67,4.67,0,0,1,1.12-1.07,11.36,11.36,0,0,1,5.29-15.79c5.87-2.51,13.07,0,17.21,4.87a15.5,15.5,0,0,0,3.09,3.22c4.38,2.84,10.77-1.32,15.25,1.36C114.92,276.69,115.75,280.39,115.46,283.61Z"/>
        <path class="cls-8" d="M162.35,168.6a91,91,0,0,0-18.8-4.14,10.85,10.85,0,0,0,5.54,13.1c-3.53.55-7.21-.09-10.66.83-7.35,2-11.16,11.92-7,18.29,1.39,2.11,3.49,3.93,3.83,6.44.52,3.86-3.41,6.82-7.08,8.14s-7.91,2.17-10.16,5.36c-3.08,4.38-.26,10.93,4.41,13.55s10.37,2.37,15.69,1.78c4.53-.51,9.45-1.42,12.43-4.87,2.78-3.21,3.16-7.84,2.92-12.08-.21-3.7-.79-7.49.2-11.06s4.11-6.92,7.81-6.65c2.13.16,4.1,1.48,6.25,1.4,4.17-.15,6.29-5.25,6.13-9.42a21.43,21.43,0,0,0-6-14Z"/>
        <path class="cls-8" d="M176.14,270.85s4.68,10.53-27,15.24a6.93,6.93,0,0,1,0-2.18c.8-4.73,6.16-7.43,10.95-7.37.57-2.3-2.65-3.51-4-5.45a5.21,5.21,0,0,1,.23-5.71,11.92,11.92,0,0,1,4.68-3.76c2.12-1.09,4.59-2.19,5.37-4.45a6.79,6.79,0,0,0,.22-2.94c-.5-5.36-2.93-11.38.32-15.68,2.36-3.11,6.79-3.76,10.67-3.42,1.85.16,3.7.49,5.55.71C180.4,254.57,176.14,270.85,176.14,270.85Z"/>
        <path class="cls-7" d="M34.44,151.35s-3.35,10.68,13,16.13l22-18.44,2.51-9.42-13-4S45.33,144.43,34.44,151.35Z"/>
        <rect class="cls-13" x="68.58" y="186.54" width="33.93" height="9.01" transform="translate(-13.91 6.86) rotate(-4.25)"/>
        <path class="cls-7" d="M162.84,132.29l-7.54,2.51,7.54,10.68,23.46,5.45s3.35-6.91-1.68-12.15Z"/>
        <g>
          <path class="cls-7" d="M146.08,198.06s-1.67,6.91-.63,20.53-1.25,15.5,7.54,19.06,22.84,0,24.51-7.75c0,0,1.47-42.11-3.56-35.82s-1.05.21-1.05.21Z"/>
          <path class="cls-7" d="M144.83,197.64a111.58,111.58,0,0,1,30.16-5s4.4,11.31-11.94,13.2S144.83,197.64,144.83,197.64Z"/>
          <circle class="cls-7" cx="162" cy="200.15" r="3.35"/>
          <g>
            <line class="cls-14" x1="162.42" y1="208.11" x2="163.47" y2="236.18"/>
            <path class="cls-15" d="M162.52,208.11a38.52,38.52,0,0,1,1.59,7c.2,1.16.27,2.33.41,3.49s.15,2.34.22,3.51,0,2.34,0,3.51,0,2.34-.15,3.52a39.5,39.5,0,0,1-1.06,7.07h-.2l-.63-14-.42-14Z"/>
          </g>
        </g>
        <g>
          <path class="cls-7" d="M107.75,203.5s2.6,8.39,2.65,21.32,2.82,14.46-6.78,18.77S77.86,246.07,75.27,239c0,0-5.47-39.48.77-34.11s1.2.09,1.2.09Z"/>
          <path class="cls-7" d="M108.17,202.88a335.29,335.29,0,0,0-37.71.41s.33,11.41,18.93,11.41S108.17,202.88,108.17,202.88Z"/>
          <ellipse class="cls-7" cx="90.06" cy="209.26" rx="3.8" ry="3.17" transform="translate(-19.65 9.6) rotate(-5.5)"/>
          <g>
            <line class="cls-14" x1="90.31" y1="216.8" x2="91.67" y2="243.34"/>
            <path class="cls-15" d="M90.41,216.8a33.85,33.85,0,0,1,1.66,6.57c.22,1.09.31,2.2.46,3.3s.17,2.21.26,3.31.07,2.21.07,3.32,0,2.22-.11,3.34a34,34,0,0,1-1,6.7h-.2l-.78-13.27-.58-13.27Z"/>
          </g>
        </g>
        <path class="cls-7" d="M42.19,142.76s3.35-5,11.73-5.87c0,0,23,32.26,18,78.55C67.77,253.78,61.14,271,44.18,296.93l2-25.77s14-31.64,13.19-69.75C58.73,173.55,50.78,149.88,42.19,142.76Z"/>
        <path class="cls-16" d="M122.73,182.56s10.59,37.44,8.93,105.15"/>
        <g>
          <path class="cls-17" d="M89.53,136.47S87.64,147,105.45,162.66s19.27,30,19.27,30-4.61-9.42,16.75-30.58l3.77-29.95-6.91-8.59S89.74,120.35,89.53,136.47Z"/>
          <path class="cls-18" d="M141.89,137.73c0,11.11-11.44,20.11-25.55,20.11s-25.56-9-25.56-20.11,10.19-27,24.3-27S141.89,126.63,141.89,137.73Z"/>
          <path class="cls-10" d="M140.85,127.47c0,11.1-11.45,20.11-25.56,20.11s-25.55-9-25.55-20.11,10.18-27,24.29-27S140.85,116.36,140.85,127.47Z"/>
          <g>
            <path class="cls-7" d="M87.64,109.45S77,120.56,76.75,149.67l11.31-4.82-6.49,11.73s25.13,9.64,39.8,26.82c0,0-2.31-11.73-19.69-30s-7.13-42.73-7.13-42.73Z"/>
            <path class="cls-7" d="M135.4,116.16s4.19,8,4.19,26.81c0,0-17,33.72-15.08,44,0,0,15.29-24.3,34.77-33.31l-11.52-8.8,11.1-1.25s-6.91-23.46-21-35C137.91,108.62,134.14,106.52,135.4,116.16Z"/>
          </g>
        </g>
        <g>
          <path class="cls-10" d="M72,33.31s5,55,11,68.66,23.25,22.93,41.47,20.58S153.05,98,154.93,85.63,162.16,31,141.26,24,72.77,21.84,72,33.31Z"/>
          <path class="cls-19" d="M69.31,83.11S71,96.62,81.1,102.59l2.67,1-5-25.61S68.53,77.3,69.31,83.11Z"/>
          <path class="cls-10" d="M156.35,61.59s1.41-10.05,7.22-7.07,5.66,21.21-6.28,24.35C157.29,78.87,155.09,66.46,156.35,61.59Z"/>
          <path class="cls-10" d="M62.4,59.23s-7.23,4.4.16,20c0,0,5.81,9,11,6.28s3.77-14,3.77-14l-2.67-17Z"/>
          <g>
            <g>
              <g>
                <ellipse class="cls-20" cx="105.45" cy="61.51" rx="9.9" ry="10.11"/>
                <path class="cls-21" d="M105.45,71.72a10,10,0,0,1-3.89-.73,10.41,10.41,0,0,1-3.39-2.14,11,11,0,0,1-3.58-7.34,11.35,11.35,0,0,1,2.7-8.2,10.84,10.84,0,0,1,3.65-2.73,10.79,10.79,0,0,1,9,0,11,11,0,0,1,3.65,2.72,11.4,11.4,0,0,1,2.69,8.2,11,11,0,0,1-3.57,7.34A10.54,10.54,0,0,1,105.45,71.72Zm0-.2a9.68,9.68,0,0,0,6.94-3,10.11,10.11,0,0,0,0-14,9.62,9.62,0,0,0-13.81,0,10.11,10.11,0,0,0,0,14A9.69,9.69,0,0,0,105.45,71.52Z"/>
              </g>
              <ellipse class="cls-19" cx="105.73" cy="59.86" rx="5.99" ry="5.8"/>
              <ellipse class="cls-22" cx="109.24" cy="57.06" rx="1.44" ry="1.4"/>
            </g>
            <g>
              <g>
                <ellipse class="cls-20" cx="142.52" cy="60.72" rx="8.95" ry="10.11"/>
                <path class="cls-21" d="M142.52,70.93a9.18,9.18,0,0,1-6.77-3.07,11.64,11.64,0,0,1-3.14-7.14,11.94,11.94,0,0,1,2.2-7.93,10.28,10.28,0,0,1,3.33-2.87,9.61,9.61,0,0,1,4.38-1.11,10,10,0,0,1,4.39,1.11,10.38,10.38,0,0,1,3.32,2.88,11.9,11.9,0,0,1,2.19,7.92,11.69,11.69,0,0,1-3.13,7.14A9.18,9.18,0,0,1,142.52,70.93Zm0-.2a8.42,8.42,0,0,0,6.42-3.16,10.88,10.88,0,0,0,0-13.66,8.12,8.12,0,0,0-12.76,0,10.92,10.92,0,0,0,0,13.66A8.43,8.43,0,0,0,142.52,70.73Z"/>
              </g>
              <ellipse class="cls-19" cx="140.95" cy="59.39" rx="5.42" ry="5.8"/>
              <ellipse class="cls-22" cx="144.22" cy="57.27" rx="1.3" ry="1.4"/>
            </g>
            <path class="cls-19" d="M112.36,46.82s4.08-3.61-.79-6.75-16.18,1.57-17.44,7.22A39.55,39.55,0,0,1,112.36,46.82Z"/>
            <path class="cls-19" d="M135.36,46.43s-3.68-3.61.71-6.75,14.59,1.57,15.72,7.22A32.25,32.25,0,0,0,135.36,46.43Z"/>
            <path class="cls-19" d="M118.48,79.81a93.72,93.72,0,0,0-11.93,4.87s-4.72,1.26-5.82-3.45c0,0-3.45,6.91,4.4,9.9s23.25-3.77,23.25-3.77,3.62,3.92,11.78,2.82,9.59-8,6-9.89c0,0-2.35,5-14.45-.32,0,0-4.24-2.67-14-.16"/>
            <path class="cls-19" d="M109.93,91.54a8.91,8.91,0,0,0,3.47,1,33.35,33.35,0,0,0,3.61.29c1.22,0,2.43.06,3.66,0s2.45,0,3.68-.11,2.48-.08,3.71-.16,2.45-.14,3.67-.21a27.79,27.79,0,0,0,3.58-.46,8.08,8.08,0,0,0,1.67-.49,2.67,2.67,0,0,0,.72-.42,1.19,1.19,0,0,0,.48-.67l.2,0a2.06,2.06,0,0,1-1,1.67,7.54,7.54,0,0,1-1.69.93A19.83,19.83,0,0,1,132,94a58.7,58.7,0,0,1-7.59.82,46.32,46.32,0,0,1-7.63-.33,22,22,0,0,1-3.74-.84,7.39,7.39,0,0,1-3.3-1.95Z"/>
            <path class="cls-19" d="M117.59,98.07c1.49.35,2.78.63,4,.82.63.07,1.22.19,1.83.21.3,0,.59.05.89.07h.89a6.63,6.63,0,0,0,.89,0c.3,0,.6,0,.9-.06l.92-.07a6.89,6.89,0,0,1,.94-.12l.48,0a3.71,3.71,0,0,1,.48-.1l1-.14a18.82,18.82,0,0,1,2.18-.3l.11.17c-.61.35-1.2.74-1.82,1.07a16.64,16.64,0,0,1-1.94.83,12.77,12.77,0,0,1-4.15.78,12.33,12.33,0,0,1-7.78-3Z"/>
            <g>
              <path class="cls-23" d="M133.68,47.61l-.25.51a29.76,29.76,0,0,0-.76,23.22c1.75,4.56,3.13,11-2.57,12.24-9,1.89-12.24-5.18-12.24-5.18"/>
              <path class="cls-24" d="M133.77,47.65a36.18,36.18,0,0,0-1.66,12.82,33.36,33.36,0,0,0,.94,6.23c.27,1,.54,2,.9,3s.8,2.07,1.15,3.19a21.27,21.27,0,0,1,.74,3.55,10.77,10.77,0,0,1-.2,3.93A6.29,6.29,0,0,1,133.13,84a7.67,7.67,0,0,1-3.83,1.17,13.62,13.62,0,0,1-3.66-.13,11.21,11.21,0,0,1-3.44-1.27,10.18,10.18,0,0,1-4.43-5.31l.18-.08a10.31,10.31,0,0,0,4.7,4.44,11,11,0,0,0,6.42.79,6.57,6.57,0,0,0,3.05-1,4.34,4.34,0,0,0,1.69-2.63,13,13,0,0,0-.62-6.45c-.32-1.06-.72-2.08-1.08-3.14a30.83,30.83,0,0,1-.9-3.22,30.4,30.4,0,0,1-.68-6.65,29.48,29.48,0,0,1,3.06-12.9Z"/>
            </g>
          </g>
          <path class="cls-19" d="M86.75,41s-7.23,5.5-5.5,26.24L78.11,68s-4.71-13-14-8.8c0,0-3.93,2.36-4.56,5.35,0,0,.78-61.4,32.37-60,0,0,27.68-1.8,42.25,0,16.41,2,17.15,10.1,11.34,21.6-2.74,5.41-56.06-11.58-58.94,14.37"/>
          <path class="cls-19" d="M144.22,27s3.84-11.3,9.52-6.18c2.77,2.49,7.67,21.84,9.52,23.33l-.47,10.21s-3.62-1.1-6.13,5.5l-4.87-21.19Z"/>
          <path class="cls-25" d="M61.73,67.38a4.84,4.84,0,0,1,2.15-2.62,3.37,3.37,0,0,1,1.89-.25,5,5,0,0,1,.91.28,7,7,0,0,1,.81.44c.24.18.49.36.72.55l.61.63c.39.43.71.84,1.06,1.27a17.53,17.53,0,0,1,1.91,2.81,4.42,4.42,0,0,1,.49,1.93,2.22,2.22,0,0,1-.36,1.22,2.51,2.51,0,0,1-.86.78,8.46,8.46,0,0,1-1.62.64,4.83,4.83,0,0,0-1.16.65,1.63,1.63,0,0,0-.46,2.18,7.53,7.53,0,0,0,2,2.35l0,.09a7.3,7.3,0,0,1-2.39-2.17,2.35,2.35,0,0,1-.4-1.57,2.49,2.49,0,0,1,.77-1.44,4.62,4.62,0,0,1,1.37-.89,8.4,8.4,0,0,0,1.47-.61,1.37,1.37,0,0,0,.75-1.23,3.51,3.51,0,0,0-.44-1.49,16.78,16.78,0,0,0-1.74-2.7A12.72,12.72,0,0,0,67,65.85a7.65,7.65,0,0,0-.67-.43,4.59,4.59,0,0,0-.73-.28,2.74,2.74,0,0,0-1.55.12,4.92,4.92,0,0,0-2.25,2.17Z"/>
          <g>
            <path class="cls-23" d="M164.52,59.86s-3.78.47-4.4,7.7"/>
            <path class="cls-26" d="M164.52,59.91a7.08,7.08,0,0,0-1.5,1.63,11.58,11.58,0,0,0-1,1.84c-.32.63-.56,1.32-.87,2-.12.35-.29.7-.44,1.07a8.68,8.68,0,0,1-.55,1.1h-.1a20.76,20.76,0,0,1,.33-2.35,11.8,11.8,0,0,1,.72-2.25,6.81,6.81,0,0,1,1.34-2,4.09,4.09,0,0,1,2-1.18Z"/>
          </g>
        </g>
        <path class="cls-27" d="M42.26,331.52l-.91,14.11c-10.37,6.59-24.82,4.08-24.82,4.08s-1.17-5.63-2.63-15.34A53.23,53.23,0,0,0,42.26,331.52Z"/>
        <g>
          <path class="cls-7" d="M62.71,401s2.94,35.19-3.77,49c0,0-4.6,5.45-11.31,3.57,0,0-10.05-1.89-13.19-11.32,0,0,6.07-6.28,6.28-28.06,0,0-2.51-13.2,8.38-13.83s-.42,1.05-.42,1.05l8.38,3.14Z"/>
          <path class="cls-25" d="M54.6,413c.26,1.69.35,3.39.47,5.1s.06,3.42,0,5.13a78.36,78.36,0,0,1-1,10.23,48.85,48.85,0,0,1-2.86,9.92,29.08,29.08,0,0,1-2.45,4.57,18.31,18.31,0,0,1-3.45,3.84l-.07-.08a24.37,24.37,0,0,0,5.25-8.61,53.63,53.63,0,0,0,2.6-9.82,92.71,92.71,0,0,0,1.19-10.1c.21-3.39.29-6.79.17-10.18Z"/>
          <path class="cls-7" d="M48.68,393.07s5,9.22,14.87,7.54c0,0-1.46,15.08-11.94,18.85s-15.29-7.33-11.73-15.29S48.68,393.07,48.68,393.07Z"/>
          <ellipse class="cls-28" cx="47.11" cy="410.56" rx="2.62" ry="4.08"/>
        </g>
        <g>
          <path class="cls-7" d="M179.81,395.16s-.42,13.2,2.3,33.94,11.52,30.58,11.94,10.26-6.7-41.47-6.7-41.47Z"/>
          <path class="cls-7" d="M179.6,394.33s4.6,0,5.23-3.35c0,0,14.25,12.35,11.31,17.38s-.41,1.05-.41,1.05-10.9,6.7-14.25-2.72S179.6,394.33,179.6,394.33Z"/>
          <ellipse class="cls-28" cx="189.44" cy="401.55" rx="2.62" ry="4.08" transform="translate(-159.07 126.46) rotate(-26.46)"/>
        </g>
      </g>
      <path class="cls-15" d="M114.35,401.87a18.76,18.76,0,0,1,1.49-7.06,25.23,25.23,0,0,1,1.6-3.26c.28-.54.66-1,1-1.53a17.4,17.4,0,0,1,1.07-1.48,33.19,33.19,0,0,1,2.48-2.69c.46-.41.94-.79,1.41-1.18.24-.19.47-.39.72-.57l.77-.49a17.56,17.56,0,0,1,6.7-2.75l.09.18a30.51,30.51,0,0,0-5.79,3.78,14.26,14.26,0,0,0-1.31,1.14c-.41.4-.84.79-1.25,1.2-.77.86-1.57,1.7-2.26,2.62a38.16,38.16,0,0,0-3.83,5.76,36.4,36.4,0,0,0-2.69,6.38Z"/>
      <path class="cls-8" d="M18.51,190.64a11.23,11.23,0,0,1-4.61,11.23c1.14-5.36,2.43-10.42,3.84-15.23C17.87,188,18.26,189.4,18.51,190.64Z"/>
      <path class="cls-8" d="M51.71,325.33,44.8,343s2.71,6,10.5,5.11.62-8.94,11.07-1.46S70.3,329.08,56.32,334C56.32,334,58.9,315.3,51.71,325.33Z"/>
      <path class="cls-8" d="M179.85,326.44s-25.45,1.41-17,16c0,0,1.88,5.19,10.37,6.13,0,0-12.73,7.07-3.3,13.2s14.61-4.24,14.61-4.24S189.48,346.21,179.85,326.44Z"/>
      <path class="cls-13" d="M17.31,189.58s.55.74,1.38,2c4.67,7.37,18.13,32.9-10.18,45.72C8.51,237.34,11.65,209.06,17.31,189.58Z"/>
      <path class="cls-13" d="M22.7,171.07s2.52,8.8,18.85,11.31c0,0-2.63,14.81-22.36.49C19.19,182.87,14.53,177.35,22.7,171.07Z"/>
      <path class="cls-13" d="M197.4,178s-10.06,2.51-11.31,8.17,12.56,3.14,12.56,3.14Z"/>
      <path class="cls-13" d="M200.54,199.35s-11.31,17.59,5.65,36.44Z"/>
    </g>
  </g>
</svg>
