<svg xmlns="http://www.w3.org/2000/svg" width="134" height="487" viewBox="0 0 134 487">
  <defs>
    <style>
      .cls-1 {
        isolation: isolate;
      }

      .cls-2 {
        opacity: 0.3;
      }

      .cls-11, .cls-3, .cls-7 {
        fill: #d0846a;
      }

      .cls-11, .cls-3, .cls-8 {
        stroke: #c16452;
      }

      .cls-11, .cls-19, .cls-20, .cls-3, .cls-5, .cls-8 {
        stroke-miterlimit: 10;
      }

      .cls-3, .cls-8 {
        stroke-width: 0.71px;
      }

      .cls-4 {
        fill: #03164d;
      }

      .cls-5 {
        fill: #5e6666;
        stroke: #333838;
      }

      .cls-19, .cls-20, .cls-5 {
        stroke-width: 1.07px;
      }

      .cls-6 {
        mix-blend-mode: multiply;
        opacity: 0.5;
      }

      .cls-8 {
        fill: none;
      }

      .cls-17, .cls-9 {
        fill: #a5644f;
      }

      .cls-9 {
        opacity: 0.4;
      }

      .cls-10 {
        fill: #975238;
      }

      .cls-11 {
        stroke-width: 0.75px;
      }

      .cls-12 {
        fill: #1c0000;
      }

      .cls-13 {
        fill: #f0f0ed;
      }

      .cls-14 {
        fill: #030000;
      }

      .cls-15 {
        fill: #2c1117;
      }

      .cls-16 {
        fill: #040000;
      }

      .cls-18 {
        fill: #2b101a;
      }

      .cls-19 {
        fill: #e8deaf;
        stroke: #c1b891;
      }

      .cls-20 {
        fill: #f99746;
        stroke: #e0843f;
      }
    </style>
  </defs>
  <g class="cls-1">
    <g id="Layer_1" data-name="Layer 1">
      <g>
        <ellipse class="cls-2" cx="67" cy="476.07" rx="66" ry="10.6"/>
        <g>
          <g>
            <path class="cls-3" d="M56.87,440.27H39.79c.61,11.29,1,19.56.89,20.16-.72,4.18-30.26,11.5-24.28,17.37,4.33,4.25,30.91,2.42,37.44-3.37,2.86-2.54,3.16-4.18,2.44-7.76C55.53,462.89,55.9,452.51,56.87,440.27Z"/>
            <path class="cls-4" d="M58.14,461c-1.55-3.3-4.2,1.32-5.57,2.57-2.24,2.05-4.74,2.42-7.37.76-1.91-1.2-2.82-3.31-3.84-5.22-.89-1.64-2.43-2.33-4.13-1.44-2.15,1.12-2.27,3-2.67,5.14-4,1.94-19.66,7.2-21.53,9.91-2.37,3.42-1.43,7.16,3.41,7.59,10,.88,22.67-.77,32.13-1.27s9.47-6.67,9.21-13.82c-.05-1.38,1-2.58.47-4C58.21,461.18,58.17,461.1,58.14,461Z"/>
            <g>
              <path class="cls-3" d="M76.52,440.27H93.61c-.61,11.29-1,19.56-.9,20.16.73,4.18,30.27,11.5,24.29,17.37-4.33,4.25-30.91,2.42-37.44-3.37-2.86-2.54-3.16-4.18-2.45-7.76C77.87,462.89,77.5,452.51,76.52,440.27Z"/>
              <path class="cls-4" d="M75.26,461c1.54-3.3,4.2,1.32,5.57,2.57,2.24,2.05,4.74,2.42,7.37.76,1.91-1.2,2.82-3.31,3.84-5.22a2.9,2.9,0,0,1,4.13-1.44c2.15,1.12,2.27,3,2.67,5.14,4,1.94,19.66,7.2,21.53,9.91,2.36,3.42,1.43,7.16-3.41,7.59-10,.88-22.68-.77-32.13-1.27-9.61-.5-9.47-6.67-9.22-13.82,0-1.38-1-2.58-.46-4C75.19,461.18,75.22,461.1,75.26,461Z"/>
            </g>
          </g>
          <g>
            <path class="cls-5" d="M36,443H58.82c.35-34.29.35-159.55,2.85-187.6.08-.08,8.84-.08,8.92,0,2.5,28.05,2.5,153.31,2.85,187.6H96.26c3.85-28.91,7-108.28,7.84-124.38,1-18.43,1.23-40.21,1.23-58.92,0-21.3-.25-39.1-4-59.6-.08-.44-19.68-.83-35.22-.81s-35.14.37-35.22.81c-3.73,20.5-4,38.3-4,59.6,0,18.71.28,40.49,1.24,58.92C29,334.69,32.15,414.06,36,443Z"/>
            <g class="cls-6">
              <path class="cls-5" d="M70.27,248.12c-3.92-.28-6,.12-6.64-4.1-.5-3.14-.1-6.79-.17-10-.11-5.63-.09-11.27-.59-16.88-.09-1-1.63-.83-1.69.11-.6,9.18-.19,18.48-.09,27.67.08,6.77,2,5.82,9,5.42C71.51,250.29,71.76,248.23,70.27,248.12Z"/>
              <path class="cls-5" d="M101,224.21c-3.44-.35-6.64,0-10-1.36s-5.22-4-8.15-5.7a.65.65,0,0,0-.94.72c1.51,6.77,13.75,10.66,19.46,7.88C102.22,225.36,101.72,224.28,101,224.21Z"/>
              <path class="cls-5" d="M32.72,224.21c3.45-.35,6.64,0,10-1.36s5.22-4,8.15-5.7a.65.65,0,0,1,.94.72c-1.51,6.77-13.75,10.66-19.46,7.88C31.49,225.36,32,224.28,32.72,224.21Z"/>
            </g>
          </g>
          <g id="face">
            <g>
              <g>
                <g>
                  <path class="cls-7" d="M32.17,87.83c5.59-.9,12.14-1.48,18.93-4.23,2.22-.89,4.68-1.53,6.52-2.43L57.7,69.5l9.63.07H68l9.63.07L77.5,81.32c1.82.93,4.27,1.59,6.48,2.52,6.81,2.87,13.41,3.53,19,4.54-.2,5,.06,21.32.06,21.32l-35.7-.27-35.45-.25S32,94,32.17,87.83Z"/>
                  <path class="cls-8" d="M32.17,87.83c5.59-.9,12.14-1.48,18.93-4.23,2.22-.89,4.68-1.53,6.52-2.43L57.7,69.5l9.63.07H68l9.63.07L77.5,81.32c1.82.93,4.27,1.59,6.48,2.52,6.81,2.87,13.41,3.53,19,4.54-.2,5,.06,21.32.06,21.32l-35.7-.27-35.45-.25S32,94,32.17,87.83Z"/>
                </g>
                <path class="cls-7" d="M67.57,79.49a20.59,20.59,0,0,1-9.92-2.42l0-5.73,9.63.07h.62l9.63.07,0,5.74A20.56,20.56,0,0,1,67.57,79.49Z"/>
              </g>
              <g>
                <g>
                  <g>
                    <path class="cls-7" d="M51.89,42.14a2.38,2.38,0,0,0-.62,1,1.16,1.16,0,0,0,.21,1.08,1.25,1.25,0,0,0,1.18.28A5.47,5.47,0,0,0,53.83,44a10.9,10.9,0,0,1,5.3-.81c1.42.07,3.59.69,4.83-.32l.05,0a1.55,1.55,0,0,0,.36-2.43,3.93,3.93,0,0,0-2.76-1.1,16.28,16.28,0,0,0-5.23.63,9.81,9.81,0,0,0-4.27,2Z"/>
                    <path class="cls-7" d="M55.44,47.13A2.54,2.54,0,1,0,58,44.61,2.54,2.54,0,0,0,55.44,47.13Z"/>
                  </g>
                  <g>
                    <path class="cls-7" d="M83.83,42.15a9.81,9.81,0,0,0-4.24-2.08,16.54,16.54,0,0,0-5.22-.71,3.94,3.94,0,0,0-2.78,1.07,1.55,1.55,0,0,0,.33,2.43l0,0c1.22,1,3.4.44,4.82.39a10.83,10.83,0,0,1,5.28.88,5.57,5.57,0,0,0,1.17.52,1.25,1.25,0,0,0,1.18-.27,1.11,1.11,0,0,0,.23-1.07,2.4,2.4,0,0,0-.6-1C84,42.29,83.9,42.22,83.83,42.15Z"/>
                    <path class="cls-7" d="M80.42,47.31a2.54,2.54,0,1,1-2.52-2.56A2.53,2.53,0,0,1,80.42,47.31Z"/>
                  </g>
                </g>
                <path class="cls-7" d="M75.54,62.57c-2.81,1.49-4.85,2.85-8.27,2.38a22.27,22.27,0,0,1-7.15-2.39c-.45-.23-1,.35-.57.72,4.22,3.75,12.64,4.58,16.56,0A.48.48,0,0,0,75.54,62.57Z"/>
                <g>
                  <path class="cls-7" d="M67.7,59.51C63.19,59,66,54.7,66.54,52.39a26.16,26.16,0,0,0,.51-6.18.13.13,0,0,0-.25,0c-.64,2.24-1.28,4.56-2,6.77-.52,1.54-1.56,3.14-1.6,4.8-.06,2.7,2.35,3.76,4.69,3A.64.64,0,0,0,67.7,59.51Z"/>
                  <path class="cls-7" d="M72.35,57.21a.65.65,0,0,0-1.21.31c.09,1.07-.82,1.14-1.59,1.56a.36.36,0,0,0,.08.65C71.09,60.2,73.17,58.85,72.35,57.21Z"/>
                </g>
              </g>
            </g>
          </g>
          <path class="cls-3" d="M32.41,131.58c2.47-17.22.27-37.19-7.91-38.32h0c-8.18-1.13-14.68,8.44-16.94,32.26C5.9,142.92-1.25,202,9.12,204.87,26.25,209.56,29.89,149.18,32.41,131.58Z"/>
          <g id="ears">
            <g>
              <path class="cls-7" d="M91.56,42.65s3.39-6.14,7.31-4.33c2.2,1,.19,17.15-7.31,16.37,0,0-1.33-.43-1.42-3Z"/>
              <path class="cls-9" d="M97.13,40.35s2.12,6.17-.77,7.63c0,0-1.53.48-1.44,1.15s-.6,5.14-2.33,3.71c0,0-1.34-2,.33-2.79s.49-.79-.84-2.42C92.08,47.63,94.55,39.9,97.13,40.35Z"/>
              <path class="cls-10" d="M97.83,44.9a17,17,0,0,0-.51-3.3,2.24,2.24,0,0,0-.31-.68c-.15-.19-.22-.2-.31-.16s-.2.11-.27.15a1.68,1.68,0,0,0-.28.23,5.25,5.25,0,0,0-.56.59,16.53,16.53,0,0,0-1.84,2.78,6.49,6.49,0,0,0-1,2.91l-.14-.24a6.91,6.91,0,0,1,1.26,1.62,1.85,1.85,0,0,1,.19.56.8.8,0,0,1-.27.76,1.33,1.33,0,0,1-.65.23l-.25,0a.22.22,0,0,1-.12,0,1.41,1.41,0,0,0-.5,1.4,1.92,1.92,0,0,0,1,1.49,2,2,0,0,1-1.34-1.41,1.73,1.73,0,0,1,.5-2,2.53,2.53,0,0,1,.33-.16l.25-.08a.86.86,0,0,0,.28-.09s0,0,0-.1a1.23,1.23,0,0,0-.15-.31,7,7,0,0,0-1.18-1.33l-.12-.11,0-.14A3.73,3.73,0,0,1,92,45.7a9.5,9.5,0,0,1,.72-1.63,13.8,13.8,0,0,1,2.07-2.91,6.14,6.14,0,0,1,.69-.65,4.73,4.73,0,0,1,.44-.3,1.83,1.83,0,0,1,.55-.21,1.09,1.09,0,0,1,1.17.57,3,3,0,0,1,.28.91A10.86,10.86,0,0,1,97.83,44.9Z"/>
              <path class="cls-10" d="M96.61,46.36a7.62,7.62,0,0,0-.46-2.3,2.53,2.53,0,0,0-.86-1.19,1.17,1.17,0,0,0-.38-.17l-.15,0,.33-1,.26.13a2.17,2.17,0,0,1,.59.43,3.12,3.12,0,0,1,.75,1.69A7.29,7.29,0,0,1,96.61,46.36Z"/>
            </g>
            <g>
              <path class="cls-7" d="M42.75,42.65s-3.39-6.14-7.31-4.33c-2.19,1-.18,17.15,7.31,16.37,0,0,1.33-.43,1.43-3Z"/>
              <path class="cls-9" d="M37.19,40.35S35.06,46.52,38,48c0,0,1.54.48,1.45,1.15s.6,5.14,2.33,3.71c0,0,1.33-2-.33-2.79s-.49-.79.83-2.42C42.23,47.63,39.76,39.9,37.19,40.35Z"/>
              <path class="cls-10" d="M36.49,44.9a10.86,10.86,0,0,1-.13-3.42,2.94,2.94,0,0,1,.27-.91A1.1,1.1,0,0,1,37.81,40a1.94,1.94,0,0,1,.55.21c.19.11.29.2.44.3a7.14,7.14,0,0,1,.69.65,14.17,14.17,0,0,1,2.07,2.91,11.35,11.35,0,0,1,.72,1.63,3.73,3.73,0,0,1,.25,1.89l0,.14-.11.11a7,7,0,0,0-1.19,1.33,1.23,1.23,0,0,0-.15.31c0,.11,0,.08,0,.1s0,0,.28.09l.25.08.33.16a1.74,1.74,0,0,1,.5,2,2.06,2.06,0,0,1-1.34,1.42A1.91,1.91,0,0,0,42,51.84a1.39,1.39,0,0,0-.5-1.4.26.26,0,0,1-.12,0l-.24,0a1.33,1.33,0,0,1-.66-.23.82.82,0,0,1-.27-.76,1.85,1.85,0,0,1,.19-.56,7.18,7.18,0,0,1,1.26-1.62l-.14.24a6.49,6.49,0,0,0-.95-2.91,16.48,16.48,0,0,0-1.83-2.78,6.34,6.34,0,0,0-.56-.59,1.68,1.68,0,0,0-.28-.23c-.07,0-.09-.12-.28-.15s-.16,0-.31.16a2.51,2.51,0,0,0-.31.68A16.22,16.22,0,0,0,36.49,44.9Z"/>
              <path class="cls-10" d="M37.71,46.36a7.29,7.29,0,0,1-.08-2.42,3,3,0,0,1,.75-1.69,2,2,0,0,1,.58-.43l.27-.13.33,1-.15,0a1.17,1.17,0,0,0-.38.17,2.53,2.53,0,0,0-.86,1.19A7.28,7.28,0,0,0,37.71,46.36Z"/>
            </g>
          </g>
          <path class="cls-11" d="M64.26,77.39S51.37,69.47,47.4,64.71c-3.62-4.33-6.12-24.22-6.53-27.66,0-.11,0-.22,0-.34s0-.16,0-.16h0c-.07-.71-.11-1.43-.11-2.15,0-13.25,11.76-24,26.28-24s26.27,10.74,26.27,24A21.55,21.55,0,0,1,93.11,37h0s-2.58,23-6.55,27.77S69.71,77.39,69.71,77.39A7.59,7.59,0,0,1,64.26,77.39Z"/>
          <path class="cls-10" d="M76.56,37.14A29.78,29.78,0,0,0,73.44,40c-.38.37-.68.78-1,1.15s-.53.77-.76,1.09a2.53,2.53,0,0,0-.23.47l-.16.37-.14.33.08-.35q0-.17.09-.39a2,2,0,0,1,.15-.52c.17-.35.32-.79.57-1.22s.49-.9.81-1.33a28.87,28.87,0,0,1,2.67-3.38Z"/>
          <g id="eye_bros" data-name="eye bros">
            <path class="cls-12" d="M62.91,34.53s-.43,3.1-1.7,3.36c-3.54.73-9.89-2.7-15.17,1a5.11,5.11,0,0,1,3.48-4C52.61,33.91,61.88,35,62.91,34.53Z"/>
            <path class="cls-12" d="M72,34.79s.25,3.08,1.47,3.29c3.41.58,9.78-3.12,14.71.37A4.5,4.5,0,0,0,85,34.54C82.08,33.74,73,35.25,72,34.79Z"/>
          </g>
          <g>
            <path class="cls-13" d="M61.35,44.52a1.8,1.8,0,0,0,.2-1.29c-.18-.65-6.66-5.6-11,.43C50.57,43.66,55.39,49.8,61.35,44.52Z"/>
            <path class="cls-14" d="M52.61,45.46l-1.28-.61c-.42-.21-.86-.47-1.3-.72l-.37-.21.29-.63h0l.52-.65A4.53,4.53,0,0,1,51,42l.66-.56a5.53,5.53,0,0,1,.74-.48,3.17,3.17,0,0,1,.81-.38,5.08,5.08,0,0,1,.86-.28c.3,0,.6-.12.9-.15h.9a8.86,8.86,0,0,1,1.72.32,8.33,8.33,0,0,1,1.57.64,10.79,10.79,0,0,1,1.38.88c.2.18.42.34.6.53a2.2,2.2,0,0,1,.51.67h0a4.88,4.88,0,0,1-.23,1.1,4.26,4.26,0,0,0,0-1.07h0a2.52,2.52,0,0,0-.54-.45c-.21-.15-.44-.28-.66-.41a10.39,10.39,0,0,0-1.4-.64,9.83,9.83,0,0,0-1.48-.4,8.26,8.26,0,0,0-1.48-.11,6.52,6.52,0,0,0-1.41.27,3.27,3.27,0,0,0-.65.26,2.38,2.38,0,0,0-.6.34,5.34,5.34,0,0,0-.57.4l-.51.47c-.35.31-.62.71-.94,1.05h0l-.07-.83c.21.36.41.74.68,1.12Z"/>
          </g>
          <g>
            <path class="cls-15" d="M59.46,43.34a2.77,2.77,0,1,1-2.76-2.52A2.65,2.65,0,0,1,59.46,43.34Z"/>
            <path class="cls-16" d="M58,43.34a1.31,1.31,0,1,1-1.3-1.18A1.24,1.24,0,0,1,58,43.34Z"/>
            <path class="cls-13" d="M56.17,42.48a.64.64,0,0,1-.66.6.6.6,0,1,1,0-1.2A.64.64,0,0,1,56.17,42.48Z"/>
          </g>
          <g>
            <path class="cls-13" d="M73.62,44.52a1.78,1.78,0,0,1-.21-1.29c.18-.65,6.66-5.6,11,.43C84.39,43.66,79.57,49.8,73.62,44.52Z"/>
            <path class="cls-14" d="M82.35,45.46l.81-1.14c.27-.38.47-.76.69-1.12l-.08.83h0c-.32-.34-.6-.74-.94-1.05l-.52-.47a4.49,4.49,0,0,0-.57-.4,2.38,2.38,0,0,0-.6-.34,3,3,0,0,0-.65-.26,6.54,6.54,0,0,0-1.4-.27,8.37,8.37,0,0,0-1.49.11,9.4,9.4,0,0,0-1.47.4,10,10,0,0,0-1.41.64c-.22.13-.45.26-.66.41a2.52,2.52,0,0,0-.54.45h0a4.78,4.78,0,0,0,0,1.07,4.88,4.88,0,0,1-.23-1.1h0a2,2,0,0,1,.5-.67,8,8,0,0,1,.61-.53,11.42,11.42,0,0,1,1.37-.88,8.33,8.33,0,0,1,1.57-.64,8.86,8.86,0,0,1,1.72-.32H80c.3,0,.6.1.89.15a5.19,5.19,0,0,1,.87.28,3.34,3.34,0,0,1,.81.38,7.2,7.2,0,0,1,.74.48l.65.56a5.41,5.41,0,0,1,.56.62l.51.65h0l.29.63-.37.21c-.44.25-.87.51-1.3.72Z"/>
          </g>
          <g>
            <path class="cls-15" d="M75.5,43.34a2.77,2.77,0,1,0,2.76-2.52A2.65,2.65,0,0,0,75.5,43.34Z"/>
            <path class="cls-16" d="M77,43.34a1.3,1.3,0,1,0,1.29-1.18A1.24,1.24,0,0,0,77,43.34Z"/>
            <path class="cls-13" d="M78.8,42.48a.66.66,0,1,0,.66-.6A.63.63,0,0,0,78.8,42.48Z"/>
          </g>
          <g id="nose">
            <path class="cls-17" d="M69.63,47.57a65.8,65.8,0,0,0-.15,7.52,2.42,2.42,0,0,1-1.67,2.76s3.63.53,4.18-2.59C72.36,53.15,70.19,50.85,69.63,47.57Z"/>
            <path class="cls-10" d="M65.91,57.54s-3.48-1.11-2.91-.13S65.91,57.54,65.91,57.54Z"/>
          </g>
          <g>
            <path class="cls-12" d="M38.54,38.35s2.62,1.27,3.69,6.24a17.4,17.4,0,0,0,2-7c.5-4.75,1.36-6.08,3.28-9.41,0,0,4.66-6.92,2.62-13.41-1.3-4.14-8.16-6.16-10.75-1.58C34.26,22.15,37.49,36.71,38.54,38.35Z"/>
            <path d="M46.78,10.41c-2.88-3.32,2.33-6.69,7-8.87-5,1.18-11.59,3.94-10.61,10.26L49,17.91s6.68,8.64,15.72,10.45a78.85,78.85,0,0,1-7-4.36,61.11,61.11,0,0,0,19.58,5.45s-6.55-2-9-4.9c0,0,6.37,4.18,18.15,4.9,0,0-4.47-1.32-6.14-2.9,0,0,6,1.49,8,2.9s3.68,12.73,3.68,12.73A17.62,17.62,0,0,1,95,38.8s2.85-14.2,1.65-18.06c0-.18-.12-.38-.19-.61C91.33,30.07,51.22,15.53,46.78,10.41Z"/>
            <path class="cls-12" d="M41.57,25.26c-2.85-4.18-3.22-12.21,2-14.7h0a5,5,0,0,0-4.22,2.6c-5.07,9-1.84,23.55-.79,25.19,0,0,2.62,1.27,3.69,6.24a17.4,17.4,0,0,0,2-7,23.24,23.24,0,0,1,.74-4.16A27.38,27.38,0,0,0,41.57,25.26Z"/>
            <path class="cls-18" d="M96.44,20.13C94.81,15.22,88.1-.69,59,.71a36,36,0,0,0-4.91.77c-1.07.79-1.49,1.76-.6,3C56.69,8.86,86.73,1.66,96.44,20.13Z"/>
            <path class="cls-12" d="M49,17.91s6.68,8.64,15.72,10.45a78.85,78.85,0,0,1-7-4.36,61.11,61.11,0,0,0,19.58,5.45s-6.55-2-9-4.9c0,0,6.37,4.18,18.15,4.9,0,0-4.47-1.32-6.14-2.9,0,0,6,1.49,8,2.9s3.68,12.73,3.68,12.73A17.62,17.62,0,0,1,95,38.8s2.85-14.2,1.65-18.06c-1.25-4-7.2-21.5-37.67-20,0,0-17.31,1.13-15.77,11.09Z"/>
          </g>
          <g id="mouth">
            <path class="cls-13" d="M67.25,62c-4.7-.07-8.55-.44-8.55-.44.51,2.16,4.78,2.91,8.55,2.92s8-.76,8.56-2.92C75.81,61.6,72,62,67.25,62Z"/>
            <path class="cls-12" d="M78.75,60.63c-2.41-1.69-11.1-2.2-11.1-2.2s-8.7.51-11.11,2.2a3.62,3.62,0,0,0-1.72,3.89s1.23-2.57,3-2.25c1,.19,9.86.8,9.86-1.69,0,2.49,8.85,1.65,9.85,1.69,1.36.06,3,1.95,3,1.95S81.16,62.33,78.75,60.63Z"/>
          </g>
          <path class="cls-3" d="M99.12,131.73c-2.51-17.22-.06-37.23,8.64-38.45h0c8.7-1.23,15.54,8.28,17.8,32.11,1.65,17.4,9.84,65.07-3,68.6C108.64,197.79,101.69,149.33,99.12,131.73Z"/>
          <g>
            <path class="cls-19" d="M83,83.65a15.45,15.45,0,0,1-30.89-.43c-12.12,1.86-25.29,4.89-25.29,4.89L30.9,204.35l71.46.52,5.82-116.16S95.2,85.71,83,83.65Z"/>
            <path class="cls-19" d="M28,87.84c-5.27.75-9.11,4.07-11.64,7.55-4.21,5.79-8.91,13.51-10.48,30-.17,1.84-.4,4-.65,6.47-.46,4.42-1,9.43-1.45,14.84a1.65,1.65,0,0,0,1.32,1.77c8.14,1.65,24,4.89,25.87,3.67s4.18-10.71,7.06-26"/>
            <path class="cls-19" d="M103.77,88c3.45,1,7.63,2.06,10.9,4.32,11,7.62,18,46.72,18.29,52.14.1,1.65-3.37,2.27-10.94,4.85-7.87,2.69-16,3.58-18,2.49s-4.41-10.2-8.31-25.23"/>
          </g>
          <path class="cls-3" d="M128.84,178.08c1,2.16,1.77,34.34,1.69,36.93-.43,13.93-3.77,44-3.35,48.74.26,3,1.08,11.34.87,14.54-.32,4.85-.81,9.71-3.08,13.08-16.39,24.22-4-1.35-3.19-4.21-.71,2.81-16.67,31.65-5.06-1.27-2,2.52-11.49,34.44-5-3.07-1.68,1.42-9.21,42.45-4.24-3.27.43-4,1-1.68,2-4-11.33,30.7-5.58.51-3.72-3.59,4-4,5.65-6.53,7.43-7.78-1.69-10.6-2.23-40.27-2.2-48.84,0-8.29-1.24-34.37.85-36.19"/>
          <path class="cls-20" d="M121.36,285.73,115.1,145c.14-7.4-3.33-13.17-4.79-19-.91-3.64-3.77-4.1-6.24-3.9-1.9-4.25-15.2-34-18.93-40.08-1.56-.1-3.15-.19-4.77-.25,1.39,3.41,12.4,22.85,16.18,40.92l-5.79.08-33,.5c-.66-2.89-9.15-39.54-12.53-40.31l-3.92.33s8.8,20.66,9.72,40.08h0l-1.45,0A4,4,0,0,0,45.5,127c-.52,15.86-17.45,26.25-17.45,26.25l-1.12,65.22c1.68,7.62,3.56,17.11,5.51,27,3.14,16,6.42,33.26,9.24,45.76,1.41,6.32,14.47,5.44,21.65,5.44h46.33C116.31,296.74,121.65,291.71,121.36,285.73Z"/>
          <path class="cls-3" d="M4.18,182.65c-.88,2.23.89,34.36,1.17,36.94,1.5,13.86,7.15,43.59,7.1,48.33,0,3-.2,11.39.26,14.57.7,4.81,1.55,9.62,4.08,12.8,18.21,22.89,3.91-1.66,2.86-4.44.91,2.75,19.06,30.27,4.94-1.65,2.2,2.35,14.12,33.45,4.78-3.46,1.79,1.29,12.46,41.61,4-3.59-.73-3.9-1.17-1.59-2.29-3.83,13.66,29.74,5.59.08,3.43-3.86-4.28-3.73-6.15-6.08-8-7.18.87-10.71-.88-40.33-1.58-48.87-.67-8.26-1.41-34.37-3.63-36"/>
        </g>
      </g>
    </g>
  </g>
</svg>
