<svg xmlns="http://www.w3.org/2000/svg" xmlns:xlink="http://www.w3.org/1999/xlink" width="217" height="460" viewBox="0 0 217 460">
  <defs>
    <style>
      .cls-1, .cls-34 {
        fill: none;
      }

      .cls-2 {
        isolation: isolate;
      }

      .cls-3 {
        opacity: 0.3;
      }

      .cls-13, .cls-15, .cls-36, .cls-4 {
        fill: #f4c9ab;
      }

      .cls-15, .cls-28, .cls-29, .cls-34, .cls-4, .cls-48, .cls-5, .cls-6 {
        stroke: #231f20;
      }

      .cls-15, .cls-16, .cls-28, .cls-29, .cls-34, .cls-36, .cls-4, .cls-48, .cls-5, .cls-6 {
        stroke-miterlimit: 10;
      }

      .cls-4, .cls-48, .cls-5, .cls-6 {
        stroke-width: 0.12px;
      }

      .cls-11, .cls-5, .cls-8 {
        fill: #e2b698;
      }

      .cls-6, .cls-7 {
        fill: #e8c9c4;
      }

      .cls-9 {
        fill: #f9dad2;
      }

      .cls-10 {
        fill: #cfe52c;
      }

      .cls-11 {
        fill-rule: evenodd;
      }

      .cls-12, .cls-24 {
        fill: #962127;
      }

      .cls-14 {
        fill: #efcbc5;
      }

      .cls-15, .cls-34 {
        stroke-width: 0.48px;
      }

      .cls-16, .cls-22 {
        fill: #fad35c;
      }

      .cls-16 {
        stroke: #917423;
      }

      .cls-17 {
        fill: #e8b83f;
      }

      .cls-18 {
        fill: #d13c35;
      }

      .cls-19 {
        fill: #991f1f;
        opacity: 0.8;
      }

      .cls-20 {
        fill: #c43131;
      }

      .cls-21 {
        fill: #e05555;
      }

      .cls-23 {
        fill: #9a2329;
      }

      .cls-24 {
        opacity: 0.5;
      }

      .cls-25 {
        fill: #e57777;
      }

      .cls-26 {
        fill: #d3a688;
      }

      .cls-27 {
        fill: #231f20;
      }

      .cls-28 {
        fill: #96db1f;
      }

      .cls-28, .cls-29 {
        stroke-width: 0.16px;
      }

      .cls-29 {
        fill: #a5f921;
      }

      .cls-30 {
        clip-path: url(#clip-path);
      }

      .cls-31 {
        fill: #414042;
      }

      .cls-32, .cls-48 {
        fill: #fff;
      }

      .cls-33 {
        fill: #58595b;
      }

      .cls-35 {
        fill: #47301c;
      }

      .cls-36 {
        stroke: #a57453;
        stroke-width: 0.75px;
      }

      .cls-37, .cls-38 {
        mix-blend-mode: multiply;
        opacity: 0.75;
      }

      .cls-37 {
        fill: url(#radial-gradient);
      }

      .cls-38 {
        fill: url(#radial-gradient-2);
      }

      .cls-39 {
        fill: #8c3d35;
      }

      .cls-40 {
        fill: #f9988f;
      }

      .cls-41 {
        fill: #f58778;
      }

      .cls-42 {
        fill: #fff7f4;
      }

      .cls-43 {
        fill: #d26653;
      }

      .cls-44 {
        fill: #f9124e;
      }

      .cls-45 {
        fill: #965e38;
      }

      .cls-46 {
        fill: #4c311e;
      }

      .cls-47 {
        fill: #3d2d16;
      }
    </style>
    <clipPath id="clip-path">
      <path class="cls-1" d="M186,181.15s-2.52-.27-3.09-2.25L185,168.19s.58-1.22,3.57,0C188.6,168.19,192.49,176.14,186,181.15Z"/>
    </clipPath>
    <radialGradient id="radial-gradient" cx="393.61" cy="140.7" r="1.36" gradientTransform="matrix(1.28, 0.04, -0.04, 1.19, -319.69, -116.5)" gradientUnits="userSpaceOnUse">
      <stop offset="0" stop-color="#e19f77"/>
      <stop offset="0.24" stop-color="#ebc1a6"/>
      <stop offset="0.47" stop-color="#f4dccd"/>
      <stop offset="0.68" stop-color="#faefe8"/>
      <stop offset="0.86" stop-color="#fefbf9"/>
      <stop offset="1" stop-color="#fff"/>
    </radialGradient>
    <radialGradient id="radial-gradient-2" cx="352.43" cy="141.45" r="1.36" xlink:href="#radial-gradient"/>
  </defs>
  <g class="cls-2">
    <g id="Layer_1" data-name="Layer 1">
      <g>
        <g>
          <ellipse class="cls-3" cx="157.11" cy="447.82" rx="53.12" ry="11.49"/>
          <path class="cls-4" d="M60.73,142s-6.68-4-10.49-8.68a65.89,65.89,0,0,1-5-7.5,39,39,0,0,0-6.5-7.15c-1.39-1.11-20.73-11.25-23.21-7,0,0-.4,1.37,3.8,2.33,2.93.67,7.21,3.15,13.11,8.82,0,0-9.12,6.56-7.86,10.69a8.22,8.22,0,0,0,4.22,4.66c5.45,2.16,11.12,3.08,13.19,4.69,1.74,1.35,7.65,6.45,7.65,6.45S59.08,147.27,60.73,142Z"/>
          <path class="cls-5" d="M25.88,134.21c4.32,1.22,8.12.91,11.25,4.73.58.72,1.2,1.41,1.82,2.1a89.44,89.44,0,0,1-10.13-2.86,8.08,8.08,0,0,1-4.12-4.4A8.68,8.68,0,0,0,25.88,134.21Z"/>
          <path class="cls-4" d="M26.74,130.92a9.86,9.86,0,0,0,3.64,2.2,9.89,9.89,0,0,1,3.48,1.66c.94,1.08,1,3-4.55,1.68-3.83-.91-4.75-2.09-5.49-3.27s-.71-5.69-.71-5.69Z"/>
          <path class="cls-4" d="M28.75,132.37a9.62,9.62,0,0,0,1.63.75,9.89,9.89,0,0,1,3.48,1.66c.94,1.08,1,3-4.55,1.68-.46-.11-.88-.22-1.26-.34A6,6,0,0,0,28.75,132.37Z"/>
          <path class="cls-6" d="M34.14,135.62c.14-.83-1.86-1.36-1.94-1.3a1.08,1.08,0,0,0-.3,1.72,2.31,2.31,0,0,0,1.35.25C33.88,136.21,34.07,136,34.14,135.62Z"/>
          <path class="cls-5" d="M27.43,132.62l-4.17-1.9c-.16-1.57-.15-3.22-.15-3.22l3.63,3.42a9.86,9.86,0,0,0,3.64,2.2,12,12,0,0,1,3.28,1.48C31.72,133.71,29.49,133.55,27.43,132.62Z"/>
          <path class="cls-7" d="M31.22,119.22s-2.38-2-2.52-2-.77-.79-.91,1.1a5.19,5.19,0,0,0,1.33,1.83C29.88,120.73,30.87,119.59,31.22,119.22Z"/>
          <path class="cls-4" d="M29.93,128.75c1.58.73,5.32,3.29,4.62,4.45-.86,1.42-3.44.33-6.23-.78s-6.5-2.42-6.64-3.77a23.25,23.25,0,0,1,.31-4.19S29.53,128.56,29.93,128.75Z"/>
          <path class="cls-4" d="M28.42,128h0l1.51.8c1.58.73,5.32,3.29,4.62,4.45-.86,1.42-3.44.33-6.23-.78l-.27-.11A5.93,5.93,0,0,0,28.42,128Z"/>
          <path class="cls-6" d="M34.36,132.87c.31-.89-1.8-1.86-1.9-1.8a1.21,1.21,0,0,0-.65,1.84,2.62,2.62,0,0,0,1.44.53C34,133.48,34.22,133.27,34.36,132.87Z"/>
          <path class="cls-8" d="M21.83,125.68c.08-.7.16-1.22.16-1.22s7.54,4.1,7.94,4.29a15.56,15.56,0,0,1,2.68,1.68C29,129.58,25.69,127.25,21.83,125.68Z"/>
          <path class="cls-4" d="M27.71,123.22a17.06,17.06,0,0,0,2.86,1.89c2.12,1.1,6.21,3.49,5.06,5-.74,1-1.79.81-3.79-.15-1.72-.82-3.86-1.92-4.35-2.23-.95-.63-6.64-2.64-6.57-4.22.09-2-.19-4.87,3.14-2.82A30.76,30.76,0,0,1,27.71,123.22Z"/>
          <path class="cls-4" d="M29.68,124.58c.29.18.58.37.89.53,2.12,1.1,6.21,3.49,5.06,5-.74,1-1.79.81-3.79-.15-1.46-.7-3.23-1.6-4-2A5.6,5.6,0,0,0,29.68,124.58Z"/>
          <path class="cls-6" d="M35.58,129.72c.35-1-2-2.06-2.11-2a1.36,1.36,0,0,0-.72,2.06,3,3,0,0,0,1.61.59C35.14,130.39,35.43,130.16,35.58,129.72Z"/>
          <path class="cls-4" d="M41.69,142.35l-.22.19c17.34,15.37,29.16,26.79,36,32.49A38.84,38.84,0,0,0,90,183,18.63,18.63,0,0,0,95.59,184s3.61.9,6.17-1.25c5-4.19,8.27-14,11.67-32l-9.9-3.28-10.48-2.06-3.86,13-24.11-14-14.29-9.93"/>
          <path class="cls-4" d="M89,158.18s10.19,6.43,7.9,20.14"/>
          <g>
            <path class="cls-9" d="M62,142c0,.2,0,.4,0,.61,0,0,0,.07,0,.11h0a19.87,19.87,0,0,1-1.69,6.4,20.09,20.09,0,0,1-3.49,5.65l-.06.06c-.1.1-.2.21-.3.3s-.26.24-.38.35l-.06-.05-.24-.22L56,155l.39-.39.06-.06,0,0A19.91,19.91,0,0,0,59.89,149a19.65,19.65,0,0,0,1.66-6.28c0-.08,0-.17,0-.25v-.13q0-.32,0-.6Z"/>
            <g>
              <path class="cls-10" d="M65.54,142.66a2.53,2.53,0,0,0-.18-.37,1.61,1.61,0,0,0-.74-.68,1.53,1.53,0,0,0-.6-.12h0a2,2,0,0,0-.41,0,3.81,3.81,0,0,0-1.35.68l.36.25a2.88,2.88,0,0,1,1.06-.52,1.48,1.48,0,0,1,.35,0h.06a1.12,1.12,0,0,1,.37.09,1.23,1.23,0,0,1,.54.48c.06.11.12.23.18.37a4.72,4.72,0,0,1,.26,1.51v.45a.62.62,0,0,1,0,.13,2.18,2.18,0,0,1,0,.25A22.15,22.15,0,0,1,60.32,157l0,.06a7.06,7.06,0,0,1-1.33,1.12l-.15.08a2,2,0,0,1-.37.17,1.65,1.65,0,0,1-.63.13,1.16,1.16,0,0,1-.42-.08,1.74,1.74,0,0,1-.87-1.37c0-.13,0-.27-.07-.41a7.64,7.64,0,0,1,0-.86l-.35-.32c.12-.11.25-.22.38-.35s0-.42.06-.65l0,0-.06.06L56,155l0,.47v.1a7.32,7.32,0,0,0,.05,1.17c0,.15,0,.28.06.42a2.19,2.19,0,0,0,1.11,1.7,1.45,1.45,0,0,0,.59.12,2.05,2.05,0,0,0,.81-.18,2,2,0,0,0,.37-.17l.28-.17a7.36,7.36,0,0,0,1.33-1.14l.06-.06a22.46,22.46,0,0,0,5.18-12h0a.34.34,0,0,0,0-.1c0-.18,0-.35,0-.51A5.28,5.28,0,0,0,65.54,142.66Z"/>
              <path class="cls-10" d="M58.39,155.41l-.23.22h0c0,.2,0,.39,0,.57l.14-.11,0,0,.27-.25a.76.76,0,0,0,0-.15.31.31,0,0,0,0-.1Zm8.37-13.17a1.45,1.45,0,0,0-.59-.12,2.22,2.22,0,0,0-.81.17,3.14,3.14,0,0,0-.37.18,6,6,0,0,0-.87.61l-.28.24-.15.15h0l0,0a.6.6,0,0,1-.08.08l.09.07h0l.24.18.08-.08.1-.09.09-.09a5.35,5.35,0,0,1,1-.72,3.14,3.14,0,0,1,.37-.18,1.84,1.84,0,0,1,.63-.12,1,1,0,0,1,.43.08c.68.29,1,1.37,1,3,0,.08,0,.15,0,.22s0,.35,0,.53v.06a20.74,20.74,0,0,1-1.61,5.69,18.08,18.08,0,0,1-4.06,6.16l-.05,0a3.31,3.31,0,0,1-1.74.9h-.11a1,1,0,0,1-.43-.09,1.29,1.29,0,0,1-.54-.48,2.55,2.55,0,0,1-.18-.37c0-.09-.07-.2-.1-.31l-.5-.46a4.62,4.62,0,0,0,.23.94c.06.14.12.26.18.37a1.6,1.6,0,0,0,.75.69,1.45,1.45,0,0,0,.59.12h0a1.71,1.71,0,0,0,.49-.07,4.23,4.23,0,0,0,1.69-1l0,0a18.34,18.34,0,0,0,4.13-6.27,21,21,0,0,0,1.61-5.58v0c0-.27.06-.53.07-.78h0C68.09,143.9,67.66,142.62,66.76,142.24Z"/>
            </g>
            <g>
              <path class="cls-10" d="M61.68,140.21a2.12,2.12,0,0,0-.18-.37,1.61,1.61,0,0,0-.75-.69,1.45,1.45,0,0,0-.59-.12,3,3,0,0,0-1.61.62l.36.25a2.39,2.39,0,0,1,1.25-.45,1.22,1.22,0,0,1,.43.08,1.18,1.18,0,0,1,.53.49,2,2,0,0,1,.18.36,4.5,4.5,0,0,1,.26,1.36q0,.28,0,.6v.13c0,.08,0,.17,0,.25A19.65,19.65,0,0,1,59.89,149a19.91,19.91,0,0,1-3.41,5.52l0,0-.06.06L56,155l-.27.25a5.16,5.16,0,0,1-.81.56,2.39,2.39,0,0,1-.37.17,1.87,1.87,0,0,1-.63.13,1,1,0,0,1-.43-.09c-.82-.35-1.11-1.74-.91-3.64L52.2,152c-.28,2.26.09,3.92,1.14,4.37a1.45,1.45,0,0,0,.59.12,2.22,2.22,0,0,0,.81-.17,3.14,3.14,0,0,0,.37-.18,5.25,5.25,0,0,0,.87-.6l.06,0c.12-.11.25-.22.38-.35s.2-.2.3-.3l.06-.06a20.09,20.09,0,0,0,3.49-5.65,19.87,19.87,0,0,0,1.69-6.4h0s0-.07,0-.11c0-.21,0-.41,0-.61A5.2,5.2,0,0,0,61.68,140.21Z"/>
              <path class="cls-10" d="M64.08,141.9c0-.14,0-.28-.07-.41a2.13,2.13,0,0,0-1.11-1.7,1.45,1.45,0,0,0-.59-.12,2.22,2.22,0,0,0-.81.17l-.38.18a5.91,5.91,0,0,0-1,.72l.35.24a4.65,4.65,0,0,1,.83-.6,2.48,2.48,0,0,1,.38-.17,1.87,1.87,0,0,1,.63-.13,1.07,1.07,0,0,1,.43.09,1.76,1.76,0,0,1,.86,1.37c0,.13,0,.26.07.41a8.71,8.71,0,0,1,0,1.28v.24h0c0,.06,0,.11,0,.17h0a1.94,1.94,0,0,1,0,.24V144a20.53,20.53,0,0,1-1.6,5.68,19.52,19.52,0,0,1-3.65,5.78l-.23.22h0l-.19.17,0,0a5.34,5.34,0,0,1-.87.61,2.66,2.66,0,0,1-.63.25,1.45,1.45,0,0,1-.35,0h0a1,1,0,0,1-.38-.08,1.15,1.15,0,0,1-.54-.49,2,2,0,0,1-.18-.36,4.63,4.63,0,0,1-.26-1.53l-.41-.38a5.68,5.68,0,0,0,.3,2.08,3.18,3.18,0,0,0,.18.37,1.61,1.61,0,0,0,.75.69,1.45,1.45,0,0,0,.59.12h0a2,2,0,0,0,.41,0,3.2,3.2,0,0,0,.87-.37,4.39,4.39,0,0,0,.75-.54h0l.14-.11,0,0,.27-.25a19.13,19.13,0,0,0,3.86-6A22,22,0,0,0,64,144.21v0c0-.18,0-.35,0-.52s0-.1,0-.14,0-.09,0-.13,0-.2,0-.3A7.45,7.45,0,0,0,64.08,141.9Z"/>
            </g>
          </g>
          <path class="cls-11" d="M93.1,145.86l16.83,6.58S102,181.8,93.84,183.64a14.45,14.45,0,0,0,4.62.42,6.67,6.67,0,0,0,1.82-.41,7.32,7.32,0,0,0,1.58-.92,8.81,8.81,0,0,0,1.17-1,18.39,18.39,0,0,0,2.77-3.87,47.69,47.69,0,0,0,3.37-8.24c2.23-8.11,4-16.51,4.48-19a80,80,0,0,0-17.09-4.35C95.39,146.1,94.23,146,93.1,145.86Z"/>
          <path class="cls-12" d="M215.06,272l-1.38-93.12,0-.8-.13-9-.08-5.66-.71-47.72v-.24l-7.34-3.26-1.26-.56-2.81-1.25-4.48-2-11-4.92h0l-1.05-.47,0,1.54v.3l-.47,14.08L184,124.2v0l-.05,1.43-.51,15.42-.3,8.92-.29,8.85V159l0,1.09-.08,2.56v.11l0,1.06-.08,2.36-.13,3.79-.11,3.31,0,.66,0,.57,0,1.26v.07l-.37,11-.05,1.46L181.22,208l-.25,7.5-4.19,125.71c1.42,3.45,6.76,5,13,5.52,1.15.1,2.34.17,3.53.21a137.37,137.37,0,0,0,21.74-1.42C211.24,336.93,215.06,272,215.06,272Zm-28.95-84.63c.36-2.46.76-5.16,1.18-7.9l1,.6c.64,2.47,1.28,4.64,1.76,6.23C188.8,186.66,187.47,187,186.11,187.35Z"/>
          <path class="cls-13" d="M175.47,97.18a44.23,44.23,0,0,1-2.95,8.33c-8.78,18.14-26,13.71-26,13.71-.66-.2-9.56-3.12-11.93-11.91a17.21,17.21,0,0,1,1.13-11.6,10.49,10.49,0,0,0,3.5-2.2.52.52,0,0,0,.1-.11c2.57-3,2.56-15.14,2.56-15.14l21.54.09s1.64,11.45,4.14,14.17C169.07,94.13,172,95.72,175.47,97.18Z"/>
          <path class="cls-14" d="M190.09,186.28c-1.29.38-2.62.74-4,1.07.36-2.46.76-5.16,1.18-7.9l1,.6C189,182.52,189.61,184.69,190.09,186.28Z"/>
          <path class="cls-15" d="M210.93,146.55s6.47,31.08,3.32,36.22l-3.32,4s-7,2-9.6-3.81l-7.64-29.13Z"/>
          <path class="cls-16" d="M211,148.06l-17.36,5.29-3.6-9.68-.66-1.77c0,.06.22,1.2.37,2.94.38,4.36.37,12.47-4.13,16.53a8.92,8.92,0,0,1-2.08,1.4h-57.3a15.72,15.72,0,0,1-1.41-1c-2.34-1.87-6.72-6.19-6.54-12.27l1.87-25-7,26.47s-14.44-5.45-20.52-4.9c4.2-16.52,12.41-43.95,22-46.24.64-.15,5.06-1.09,10.19-2.1,4.64-.91,8.44-1.59,10.88-2a17.21,17.21,0,0,0-1.13,11.6c2.37,8.79,11.27,11.71,11.93,11.91,0,0,22,5.67,28.93-22l.33-1.42,21.36,7.56a21.93,21.93,0,0,1,6.79,7.29Z"/>
          <path class="cls-17" d="M92.68,144.91s13.93-1.94,18.53,0L119.86,122l-1.29-8.77,2.22,6.47s-.74-6.29.72-8c0,0-.09,7.08.52,7.18l3.26-7.18-3.26,9.6-1.24,10.94s-2.46,23.7,8.81,25c0,0,8.85,4.81,20.5,0,0,0,5.54-3,10.33.66,0,0,20.14,5.14,23.57-1.32,0,0,7.24-17.65,1.45-28.63l-4.54-10.41,3.09,3.74-2-9.6,3.14,8.61,2.59-6.3s-3.08,8.89-1.43,10.66l8.8,25L211,146.9l-17.36,5.3-4.26-11.46s2.2,17.84-5.84,20.88H126.25s-10-6.13-7.85-14.76l1.76-23.52-7,26.47S98.51,145.14,92.68,144.91Z"/>
          <path class="cls-18" d="M203,244c-1,38-8.16,29.58-6.44,67.37L193.32,347l-1.23,13.41s4.58,68.36,6.64,72.34l-5.39,7,3.25,9.44-22.89,4.73v3.48l-6-1.25-1.49,1.25-10.44-1.25s-15.91-2.48-19.89-.5L119,449.94l-1.24-44.82V310.66s-.41-4-1-10.43l-.09-1c-.88-9.77-2.1-24.65-2.94-39.9-1.33-24.14-1.7-49.22,1.78-56.57l4-16.49.7.23c.57.19,1.46.47,2.6.81,7.08,2.12,23.9,6.47,34.62,3.66l.51-.14s1,0,2.64-.11c1.28-.06,3-.16,4.94-.32,1.46-.12,3.08-.26,4.81-.45s3.61-.41,5.52-.69l3.13-.48.1,0c.93-.16,1.87-.33,2.8-.51s2-.39,2.94-.61l1.29-.3c1.36-.33,2.69-.69,4-1.07C190.09,186.28,204,206,203,244Z"/>
          <path class="cls-19" d="M184.31,186s8.48,17.12-22.49,69.39l-44,82.61,26.38-86.71S169.06,188.22,184.31,186Z"/>
          <path class="cls-18" d="M212.74,115.65c-.09.13-.43,0-.75,0-2-.21-4.1,3.14-5.86,6.55s-4.58,10.27-4.58,10.27c-.69,2-1.69,4.71-2.81,7.59s-2.35,6-3.51,8.8l-.43,1.08c-.44,1.05-.85,2.07-1.24,3l0,0,0,.05c-1.59,3.85-2.74,6.6-2.74,6.6a52.49,52.49,0,0,0-1.15,5.4c-.37,2-.77,4.45-1.19,7h0c-.15.94-.3,1.9-.46,2.88-.11.75-.23,1.51-.35,2.27l-.1.67-.24,1.56c-.42,2.74-.82,5.44-1.18,7.9-.28,1.91-.53,3.66-.74,5.16-.45,3.07-.72,5.06-.72,5.06A70.11,70.11,0,0,1,181.22,208C175.16,223.54,163.6,247,163.6,247c-3.14,2.82-24,43.92-28,50.88-2.65,4.63-9.66,20.88-14.06,31.25-2.17,5.09-3.7,8.76-3.77,8.93h0l.12-22.25-.12-.21c-2.65-4.78-2.06-13.76-2.06-13.76-3.64-3.15-2-20.55-2-20.55l-.74-6.61-3.41-30.5c-1.65-26.35,5.14-51.37,5.14-51.37,4.14-15.25,2.49-25.85,2.49-25.85a56.05,56.05,0,0,1-1.58-14.44v-.6a1.85,1.85,0,0,0,0-.23c0-.26,0-.51,0-.76a2.72,2.72,0,0,1,0-.28v-.43c0-.11,0-.23,0-.34s0-.22,0-.33c0-.3,0-.61.05-.91,0-.07,0-.14,0-.22s0-.38,0-.58l0-.49c0-.32.05-.64.08-.95l0-.32c0-.46.09-.93.14-1.39l0-.31,0-.27c0-.38.09-.75.14-1.12l0-.3c0-.4.11-.79.16-1.18,0-.1,0-.2.05-.3.17-1.19.36-2.35.56-3.45,0-.14.05-.28.07-.41.18-.94.36-1.83.54-2.68l.06-.29c0-.27.11-.53.17-.79l.09-.38.06-.29a1.36,1.36,0,0,0,0-.17l.31-1.31a1.46,1.46,0,0,0,0-.2,2.5,2.5,0,0,0,.07-.26l.18-.69c0-.18.09-.36.14-.54s0-.11,0-.17l.18-.67s0-.09,0-.14.06-.2.08-.3a.74.74,0,0,0,0-.14l.27-.92,0-.11a.36.36,0,0,1,0-.11q.08-.29.15-.51s0-.1,0-.14l0-.11a.5.5,0,0,1,0-.13c0-.15.08-.27.11-.37s0,0,0,0a1.7,1.7,0,0,1,.06-.18h0l1.7-1,1.63-.93,15.75-9,28.69-16.32,4.66-2.65a18.12,18.12,0,0,1,3.63-.37,19,19,0,0,1,6.41,1.09A23.77,23.77,0,0,1,188.61,98c2.28.92,4.25,1.91,4.25,1.91,3.23.5,10.06,7.21,10.06,7.21l1,.8,3.28,2.76C210,112.84,213,115.21,212.74,115.65Z"/>
          <g>
            <path class="cls-20" d="M139.45,165.64s-18.52,8.72-19.59,23.33c0,0-6.85,68.9-6.66,83.69a7.1,7.1,0,0,1-.21,2l-3.41-30.51c-1.65-26.35,5.14-51.37,5.14-51.37,4.14-15.25,2.49-25.85,2.49-25.85-4.75-18.49,2.66-40.69,2.85-41.25C119.83,126.45,107.05,171.07,139.45,165.64Z"/>
            <path class="cls-20" d="M139.45,165.64s-18.52,8.72-19.59,23.33c0,0-6.85,68.9-6.66,83.69a7.1,7.1,0,0,1-.21,2l-3.41-30.51c-1.65-26.35,5.14-51.37,5.14-51.37,4.14-15.25,2.49-25.85,2.49-25.85-4.75-18.49,2.66-40.69,2.85-41.25C119.83,126.45,107.05,171.07,139.45,165.64Z"/>
          </g>
          <path class="cls-21" d="M118.57,297.19s40.36-68.27,48.48-96.44c0,0,24.42-82,31.68-88.39,0,0-20.75,30.39-35.41,86.07l-46.26,98.76-.67,3.69Z"/>
          <path class="cls-21" d="M123.56,267.88s29.85-53.95,36.87-76.67c0,0,20.93-66.07,25.89-70.94,0,0-15,23.86-28,68.83l-35.66,78.7-.67,3Z"/>
          <path class="cls-21" d="M123.49,182.64s30.56-29,37.94-41.86c0,0,22-37.38,27-39.73,0,0-15.32,12.61-29,38.2l-36.79,43.23-.72,1.73Z"/>
          <path class="cls-21" d="M119.75,153.68s28.72-18.36,35.33-26.84c0,0,19.73-24.62,24.56-26,0,0-14.5,7.87-26.72,24.8l-34.1,27.85-.62,1.16Z"/>
          <path class="cls-22" d="M204.42,113s-26,54.23-25.38,78.88c0,0-1,17.13-17.72,45,0,0-39.29,73.93-39.81,79.72,0,0,29.68-69.53,34.1-76.49,0,0,20.28-40.59,19.86-48.72,0,0,4.94-26.85,7.43-32.56,0,0,16.38-48.3,19.14-49.2l1.83-1.67,3.28,2.77Z"/>
          <polygon class="cls-23" points="136.52 455.35 150.1 272.66 140.24 454.84 136.52 455.35"/>
          <polygon class="cls-23" points="196.3 435.86 172.32 258.67 193.14 439.92 196.3 435.86"/>
          <polygon class="cls-23" points="166.24 457.32 163 268.02 167.73 456.08 166.24 457.32"/>
          <path class="cls-24" d="M118.71,439l18.65,5,3.5-.65s20.46,3.28,24.5,2.45l2.12.14S189,440.5,191.94,438v-5.8l4.36-6.29,2.43,6.8-5.59,7.2,3.45,9.2-22.89,4.73v3.48l-6-1.25-2.37,1.14-25.12-2.38-4.33.75L119,449.94Z"/>
          <path class="cls-25" d="M128.74,434.35l14.75-148.24S126.35,411.11,128.74,434.35Z"/>
          <path class="cls-25" d="M157,437.08l4.49-169.36S153,410.82,157,437.08Z"/>
          <path class="cls-25" d="M178.84,425.81l-10.1-181.36S182,397.59,178.84,425.81Z"/>
          <polygon class="cls-8" points="196.11 162.66 195.66 154.35 211 147.94 193.64 153.24 196.11 162.66"/>
          <polygon class="cls-1" points="180.67 163.97 179.21 162.56 183.11 159.9 187.1 163.97 188.44 172.07 184.62 176.37 183.5 176.81 181.23 175 180.67 163.97"/>
          <path class="cls-26" d="M172.5,95.83l-4.66,2.65c-7-8.62-23.25-6.14-28.5-5.08,2.57-3,2.56-15.14,2.56-15.14l21.54.09s1.64,11.45,4.14,14.17A17.94,17.94,0,0,0,172.5,95.83Z"/>
          <path class="cls-27" d="M136,95.74A33.55,33.55,0,0,0,140,113a22.65,22.65,0,0,0,5.57,6.67,20.55,20.55,0,0,0,1.78,1.2,13.67,13.67,0,0,0,1.91.87,10.16,10.16,0,0,0,2,.52c.34,0,.68,0,1,.06a4.52,4.52,0,0,0,1,0,16.5,16.5,0,0,0,7.87-3.2,25.51,25.51,0,0,0,6.06-6.37,31.49,31.49,0,0,0,3.82-8,38.5,38.5,0,0,0,1.47-8.91H173a35.42,35.42,0,0,1-.8,9.22,30.75,30.75,0,0,1-3.61,8.62,25.17,25.17,0,0,1-6.27,7,17.5,17.5,0,0,1-8.84,3.71,5.79,5.79,0,0,1-1.25,0c-.42,0-.84,0-1.26-.07a12.53,12.53,0,0,1-2.43-.61,13.82,13.82,0,0,1-2.24-1,21.54,21.54,0,0,1-2-1.37,23.22,23.22,0,0,1-5.94-7.41,30.29,30.29,0,0,1-2.86-18.2Z"/>
          <g>
            <circle class="cls-28" cx="153.49" cy="124.68" r="2.26"/>
            <circle class="cls-29" cx="150.09" cy="122.54" r="1.74"/>
            <circle class="cls-29" cx="156.85" cy="122.54" r="1.74"/>
          </g>
          <path class="cls-15" d="M215,174.41a12.69,12.69,0,0,1,.08,7.36,7,7,0,0,1-.5,1A10.25,10.25,0,0,1,202.82,188a31.31,31.31,0,0,1-13.55-4q-.53-.28-1.05-.6a33,33,0,0,1-3.78-2.65h0c-.4-.32-.8-.66-1.2-1l-.71-.66-.25-.21s-.05,0-.07-.06l0,0c-.21-.18-.49-.42-.81-.73s-.8-.75-1.24-1.22q-.45-.47-.9-1a17,17,0,0,1-1.6-2.16c-1.5-2.44-2.05-5.16,1-6.95l.2-.11.41.11.6.16.91.23.07,0,1.54.36,1.31.29,1.48.3,1.43.27,1.61.28c.79.12,1.6.24,2.41.34a42.38,42.38,0,0,0,7.2.38,16.14,16.14,0,0,0,4.06-.64s6.3-1.63,10.11.68a2.38,2.38,0,0,1,.24.23"/>
          <path class="cls-15" d="M181,167.37l-.14-.12s-6.61-7-6.89-8c0,0-.8-2.21-4.14-2.38H160.4L151,162.72s-.15,2.58,4.62,1.1l5.41-2.48,6.18.11-5.74,2.65-10.11,6.52s-1.43,2.52,3.92,1.12l8.79-3.89,5.52-1.27-5.3,1.72-9.39,3.86s-2.76,1-2.16,2.32a4.91,4.91,0,0,0,4.15-.38l8.78-2.36,6.46-1.18-6.21,1.6-8.37,2.05s-3.12.76-1.49,1.78h8.78l8.78-.57s4.34,4.21,8.7,3.4l.16,0"/>
          <g class="cls-30">
            <path class="cls-31" d="M183,181a2.38,2.38,0,0,1-.46,0,2.94,2.94,0,0,1-1.88-1.31c-1-1.46-1.28-4-.76-6.55.74-3.71,2.85-6.4,5-6.4a2.38,2.38,0,0,1,.46,0,3,3,0,0,1,1.88,1.31c1,1.46,1.28,4,.76,6.55C187.31,178.26,185.2,181,183,181ZM185,168.31c-1.15,0-2.78,2-3.39,5.06-.43,2.13-.23,4.21.51,5.3a1.32,1.32,0,0,0,.81.61H183c1.14,0,2.78-2,3.39-5.06.42-2.13.22-4.21-.52-5.3a1.24,1.24,0,0,0-.8-.61Z"/>
            <g>
              <ellipse class="cls-32" cx="187.48" cy="173.86" rx="2.62" ry="1.51" transform="translate(-6.07 340.93) rotate(-83.64)"/>
              <path class="cls-33" d="M187.29,176.88h-.13a1.48,1.48,0,0,1-1-.57,3.67,3.67,0,0,1-.61-2.64c.17-1.61,1.08-2.83,2.11-2.83h.12a1.44,1.44,0,0,1,1,.57,3.65,3.65,0,0,1,.6,2.63C189.22,175.66,188.31,176.88,187.29,176.88Zm.38-5.21c-.51,0-1.15.84-1.28,2.09a2.84,2.84,0,0,0,.42,2,.61.61,0,0,0,.43.27h0c.51,0,1.15-.84,1.28-2.09a2.9,2.9,0,0,0-.42-2,.7.7,0,0,0-.44-.27Z"/>
            </g>
          </g>
          <path class="cls-34" d="M193.56,439.48l5.23-6.74h0l-.2-.57c-2.15-7.67-6.44-71.77-6.44-71.77L193.38,347a136,136,0,0,0,21.73-1.42c-3.81-8.61,0-73.57,0-73.57l-1.3-87.89a14.36,14.36,0,0,0,.86-1.3,9.76,9.76,0,0,0,.5-1,12.73,12.73,0,0,0-.08-7.37c-.23-4.25-.9-9.41-1.63-14.13l-.67-44.63a.15.15,0,0,0,0-.16v-.07l0,0c-.43-.78-3-2.83-5.55-4.72l-3.27-2.76-1-.8s-6.84-6.71-10.07-7.21c0,0-2-1-4.24-1.91a23.83,23.83,0,0,0-6.07-1.45,18.78,18.78,0,0,0-9.76-.77h-.39l-.28-.15h0l-.32-.17-.1,0-.27-.15-.07,0-.32-.18L171,95l-.25-.14-.09-.05-.3-.18,0,0-.26-.17-.09-.06a1.64,1.64,0,0,1-.22-.14l-.07,0L169.4,94l-.07,0-.19-.14-.08-.06-.24-.18,0,0-.21-.17-.07-.06-.18-.14-.05,0-.21-.18,0,0-.15-.15-.05,0a1.57,1.57,0,0,1-.18-.19c-1.4-1.52-2.53-5.77-3.26-9.23.84-.73,1.7-1.54,2.57-2.46,5,2.57-19.95-16.7-14.71-23.11,5.75-7,29.46-1.66,34.17-3.28.32-.11-.55-.41-.84-.59a6.51,6.51,0,0,0-.75-2.75,2.65,2.65,0,0,0-2.93-1.6,1.55,1.55,0,0,1,1.16,0s7.16-39.13-26-44.38c-9.18-1.45-19.11,0-26.4,6a23.72,23.72,0,0,0-6.51,8.4,42.86,42.86,0,0,0-4.57,19.39c0,.54.86,10.29,1.15,10.23a4.35,4.35,0,0,1,.48-.05c-.62.2.9,1.31.43,2.15a10.59,10.59,0,0,0,.12,10.94c.5.81.94,1.71,1.41,2.61a11.66,11.66,0,0,0,2.85,3.92,1.49,1.49,0,0,0,1.39,1,1.08,1.08,0,0,0,.36,0,1,1,0,0,0,1.3-.6l.06.17c.07.21.15.42.23.63l.09.23q.22.56.48,1.11c0,.07.07.15.11.22s.1.21.16.32l.21.42c.07.11.13.23.19.34a1.42,1.42,0,0,0,.11.18s.05.09.07.14l.25.42a2.39,2.39,0,0,1,.13.21c.18.27.35.55.54.82h0l.28.41a48.72,48.72,0,0,0,9.57,10.59c-.34,3.27-1,6.76-2.2,8.18l-.09.1a10.65,10.65,0,0,1-3.5,2.21h0c-2.45.43-6.24,1.11-10.89,2-5.12,1-9.55,1.94-10.19,2.1-9.55,2.28-17.74,29.59-22,46.12h0l0,.11h.18l-3.66,12.28-.23-.15,0,.1L65.13,144.42l-12.8-8.91a24.48,24.48,0,0,1-2-2.2,67,67,0,0,1-5-7.49,39,39,0,0,0-6.5-7.15c-1.4-1.11-20.74-11.26-23.22-7,0,0-.4,1.37,3.81,2.33a21,21,0,0,1,7.31,3.85c-.26,1-.09,2.57,1.57,4.93a7.51,7.51,0,0,0,1.92,1.9.69.69,0,0,0-.13.11l-.35-.21v0a16.92,16.92,0,0,1-2-1.39,32.35,32.35,0,0,0-3.66-2.57c-3.32-2-3,.78-3.14,2.82,0,.43.4.9,1,1.36a20.76,20.76,0,0,0-.25,3.83c.05.52.65,1,1.53,1.55a8.26,8.26,0,0,0,.6,3,5.56,5.56,0,0,0,1.35,1.55,5.21,5.21,0,0,0,.29.49h0a1,1,0,0,0,.08.11l0,.08.05.06.08.12,0,0a8.16,8.16,0,0,0,1.77,1.81h0l.18.12,0,0,.17.1,0,0,.16.1.06,0,.16.08.06,0,.17.08.06,0,.23.1c5,2,10.27,2.93,12.67,4.34h0c17.33,15.38,29.16,26.8,36,32.49A39.11,39.11,0,0,0,90.05,183a19.22,19.22,0,0,0,5.6,1,7.83,7.83,0,0,0,5.69-.89c.23-.14.42-.28.57-.39a9.49,9.49,0,0,0,1.18-1,18.75,18.75,0,0,0,2.77-3.88,47.44,47.44,0,0,0,3.37-8.23c2.22-8.12,4-16.51,4.47-19l-.32-.12,6.82-26-.08,1.11h0l-.16.51,0,.07v0l-.06.19h0v0c0,.1-.06.21-.1.33l-.09.3,0,.1c-.11.37-.24.81-.38,1.31l0,.07,0,.1h0a.57.57,0,0,0,0,.14l-.12.42c-.05.18-.1.36-.14.55s-.07.27-.11.4l0,.16,0,.08-.06.22h0l-.06.23,0,.11a2.33,2.33,0,0,0-.07.25l0,.1c0,.1,0,.21-.08.32-.14.58-.28,1.18-.42,1.82h0v0c0,.11,0,.21-.07.32l0,.07-.12.58,0,.07v0c-.18.83-.35,1.71-.52,2.62v.06c0,.11,0,.21,0,.32l0,.07h0c0,.13-.05.26-.07.39v.08l-.06.32,0,.11c0,.1,0,.2,0,.3l0,.11c0,.1,0,.21,0,.32v.08c0,.13,0,.26-.07.4h0c-.11.7-.21,1.41-.31,2.13l0,.15-.18,1.38h0l-.06.52v.07l-.12,1.18v.1c-.06.62-.12,1.24-.17,1.87v.17c0,.38-.05.76-.08,1.14v0h0c0,.29,0,.58,0,.86v0c0,.11,0,.22,0,.32a1.93,1.93,0,0,1,0,.24v.54a2.44,2.44,0,0,1,0,.27v0c0,.32,0,.65,0,1V152a.91.91,0,0,1,0,.17v1.21h0c0,.29,0,.59,0,.88v0c0,.29,0,.58,0,.86v.06q0,.42,0,.84v.07c0,.28,0,.55,0,.83v.08l.06.82V158c0,.27,0,.54.07.82v.09c0,.27,0,.54.07.81v.1l.09.81,0,.09c0,.27.06.55.1.82v.08l.12.83v.08c.05.27.09.55.14.83v.06c0,.28.1.56.16.84v.06c0,.28.11.56.17.85v0c.06.29.12.57.19.86v0c.06.3.14.59.21.88h0s1.66,10.62-2.48,25.85c0,0-6.8,25-5.14,51.37l3.4,30.51h0l.74,6.61s-1.66,17.4,2,20.55c0,0-.6,9,2,13.76V338h0v67.11l1,34.75"/>
          <g>
            <path class="cls-4" d="M44.6,126.69c-.1-.26-.17-.41-.17-.41a75,75,0,0,1-6.49-5c-1.47-1.47-4,.74-9.35-4.19a1.12,1.12,0,0,0-1.77.3c-.44,1-.49,2.63,1.41,5.34,2.37,3.38,6.48,3.46,7.39,3.8.56.21,1.19,2.31,3.09,3.81"/>
            <path class="cls-5" d="M26.82,117.44a.93.93,0,0,1,.13-.15,6.35,6.35,0,0,0,.47,1.82,6.9,6.9,0,0,0,6.6,4,14.93,14.93,0,0,0,2.14-.19c-.18,3,1.65,6.18,2.43,7.33-1.79-1.48-2.42-3.47-3-3.67-.91-.34-5-.42-7.39-3.8C26.33,120.07,26.38,118.4,26.82,117.44Z"/>
          </g>
          <g>
            <ellipse class="cls-35" cx="174.1" cy="64.97" rx="16.46" ry="11.31" transform="translate(13.63 158.67) rotate(-50.75)"/>
            <ellipse class="cls-35" cx="130.55" cy="61.11" rx="12.82" ry="16.46" transform="translate(-2 4.48) rotate(-1.95)"/>
            <g>
              <path class="cls-36" d="M183.26,61c-.5.79-1,1.67-1.44,2.55a11.08,11.08,0,0,1-3.19,4c-4.35,2.93-2.74-3-2.27-5.11.76-3.38-.19-7.28,1.49-10.42a9.33,9.33,0,0,1,1.91-2.39,7.18,7.18,0,0,1,2.35-1.48,2.71,2.71,0,0,1,3.57,1.44C187.69,53.36,185.3,57.87,183.26,61Z"/>
              <path class="cls-8" d="M178.85,53.29s3.84-4.23,5.72-2.36-2.27,9.69-4.07,11.41a3.61,3.61,0,0,1-2.14,1.09,1.47,1.47,0,0,1-1.09-.17c-.78-.69-.23-3.48,1.48-5.06,1.17-1.08,2.55-1.28,2.54-2.09a1.1,1.1,0,0,0-.58-.89c-.78-.43-1.69.43-2.1.11C178.41,55.17,178.3,54.71,178.85,53.29Z"/>
            </g>
            <path class="cls-9" d="M177.66,64.86c.07-.31.15-.63.22-1C177.81,64.23,177.73,64.55,177.66,64.86Z"/>
            <path class="cls-9" d="M125.09,44.08c0,.28.07.56.1.85,0-.28-.07-.57-.1-.85Z"/>
            <path class="cls-9" d="M125.31,45.92l-.12-1Z"/>
            <path class="cls-36" d="M124.07,63.25a11,11,0,0,0,3.11,4.11c4.31,3,2.8-3,2.37-5.12-.71-3.44.31-7.37-1.31-10.58-1.36-2.68-5.68-6.4-7.79-2.59s.25,8.35,2.22,11.58C123.16,61.45,123.6,62.35,124.07,63.25Z"/>
            <path class="cls-8" d="M127,53.29s-3.84-4.24-5.72-2.37,2.26,9.69,4.07,11.42a3.61,3.61,0,0,0,2.13,1.08,1.46,1.46,0,0,0,1.09-.17c.78-.69.23-3.48-1.47-5-1.17-1.09-2.55-1.28-2.55-2.1a1.11,1.11,0,0,1,.59-.88c.78-.44,1.69.43,2.1.1C127.46,55.16,127.57,54.71,127,53.29Z"/>
            <path class="cls-36" d="M179.89,50.83c0,21.15-15.1,39.64-28,38.29S126,71.12,126,50s10.52-35.22,26-35.22S179.89,29.68,179.89,50.83Z"/>
            <path class="cls-8" d="M173.94,31.67C136.76,42.14,136.57,17,136.57,17a1.62,1.62,0,0,1,1.53-1.38c.11,2.1,1.62,17.4,22.06,17A52.39,52.39,0,0,0,173.94,31.67Z"/>
            <path class="cls-8" d="M182.11,48.18a7.18,7.18,0,0,0-2.35,1.48l-.24-.7c-6.8-19.16-32.67-24.32-32.67-24.32a11.28,11.28,0,0,0-7-4c-11.48,11.29-13.41,26.09-13.52,31.74,0,.45-1.33-3.8-3.13-4.61-.43-1.12-.71-1.92-.71-1.92s4.2-14.54,4.61-18S138,15,138,15l15.25-1.56,16.25,6.76S180.05,42.51,182.11,48.18Z"/>
            <path class="cls-35" d="M125.92,52.3c-.25-.74-1.28-4.06-3.41-4.14-2.58-.09-2.05,1.36-2.48.92-3.32-3.31-2.1-11.8-2.11-12.36-.15-7.15,1.79-13.82,4.94-20.24a25.14,25.14,0,0,1,7.06-8.77c7.89-6.18,18.65-7.75,28.59-6.23C194.36,7,185.38,48.81,185.38,48.81c-2.76-2.76-5.62.85-5.62.85,0-.93.13.89,0,0-2-13.34-12.52-22.78-28.16-26.89-6.26-1.64-7.21,1.8-12.52-1.76-6.89,7.73-13.44,17.58-12.79,31.38"/>
            <g>
              <path class="cls-37" d="M180.81,66.83a1.44,1.44,0,0,1-1.54,1.34,1.39,1.39,0,1,1,.1-2.77A1.44,1.44,0,0,1,180.81,66.83Z"/>
              <path class="cls-32" d="M180.4,66.29a1.17,1.17,0,1,1-1.13-1.2A1.17,1.17,0,0,1,180.4,66.29Z"/>
              <path class="cls-32" d="M181.55,67.55c-1.77-1.89-1.41-1.88-3.31-.11,1.9-1.77,1.88-1.42.11-3.31,1.77,1.89,1.42,1.88,3.31.11C179.77,66,179.78,65.66,181.55,67.55Z"/>
            </g>
            <g>
              <path class="cls-38" d="M128,66a1.43,1.43,0,0,1-1.53,1.34,1.39,1.39,0,1,1,.09-2.77A1.43,1.43,0,0,1,128,66Z"/>
              <path class="cls-32" d="M127.6,65.43a1.17,1.17,0,0,1-1.21,1.13,1.17,1.17,0,0,1,.08-2.33A1.17,1.17,0,0,1,127.6,65.43Z"/>
              <path class="cls-32" d="M128.75,66.7c-1.77-1.9-1.41-1.89-3.31-.12,1.9-1.77,1.89-1.42.11-3.31,1.78,1.89,1.42,1.88,3.31.11C127,65.15,127,64.8,128.75,66.7Z"/>
            </g>
            <path class="cls-35" d="M136.61,15.32s.2,27.46,40.82,16c0,0-33.06,7.31-31.16-14.73C146.27,16.61,137.41,11.25,136.61,15.32Z"/>
            <g>
              <path class="cls-39" d="M164.5,67.07c-.1.2-1.68,1.36-1.94,1.73-1.21,1.68-3.92,5.81-7.41,6.93a10.28,10.28,0,0,1-7.17,0c-3.24-1.18-4.35-4-6.29-7C141.22,68,139,66.9,139.26,67c1.83.4,6.44,2.37,13.71,2.19a33.06,33.06,0,0,0,9.82-1.41.29.29,0,0,1,.32.09s1.41-.8,1.39-.76Z"/>
              <path class="cls-40" d="M163.11,67.94c-1.11,1.91-3.23,7.38-6.66,9.52-2.15,1.34-4.42,2.7-9.48-1.35a21.55,21.55,0,0,1-5.57-7.82c2.11,1.81,3.44,5.9,10.32,7,6,1,10.13-6,11.39-7.38Z"/>
              <path class="cls-41" d="M164.48,67.28a37.06,37.06,0,0,1-14.14,2.54c-6.7-.28-9.93-2.22-11.11-2.91.64,1.07-.25,0,0,0a48.31,48.31,0,0,0,13.35,1.38,63.06,63.06,0,0,0,11.92-1.22c.14,0-.07.12,0,.21Z"/>
              <path class="cls-42" d="M142.33,68.35c.14.05,8,2.86,18.87.13,0,0-2.23,3.56-8.71,3.74-7.41.2-10.16-3.87-10.16-3.87Z"/>
              <path class="cls-43" d="M152.12,75.35a13.24,13.24,0,0,1-4.79-1.44,4.73,4.73,0,0,1,4.25-.55s.06.07.1.06a6.28,6.28,0,0,1,4.64,1.13,7.22,7.22,0,0,1-4.2.8Z"/>
              <path class="cls-8" d="M139.67,65.45s-2.07,1-.64,2.66Z"/>
              <path class="cls-8" d="M163.89,65.77s2.77.22,1.53,2.47c0,0,.37-1.45-1.53-2.47Z"/>
              <path class="cls-41" d="M150.05,79.24a6.35,6.35,0,0,0,2.5.48,6.28,6.28,0,0,0,2.43-.48"/>
            </g>
            <path class="cls-44" d="M148.7,42.48A1.59,1.59,0,1,0,150.25,41a1.51,1.51,0,0,0-1.55,1.49"/>
            <path class="cls-45" d="M149,49.84a10.06,10.06,0,0,1-.19,5.44,12,12,0,0,1-1.06,2.53c-.21.4-.47.8-.68,1.22l-.61,1.26a2.66,2.66,0,0,0,.42,2.84,3.23,3.23,0,0,0,1.23.83,5.64,5.64,0,0,0,1.39.39,4.83,4.83,0,0,0,2.83-.35,3.36,3.36,0,0,0,1.82-2.1h0a3.41,3.41,0,0,1-1.9,1.83,4.87,4.87,0,0,1-2.62.19,4.46,4.46,0,0,1-2.33-1.11,2.21,2.21,0,0,1-.43-2.35c.18-.41.38-.85.57-1.26s.43-.8.64-1.23a12.74,12.74,0,0,0,1-2.61,10.28,10.28,0,0,0,0-5.53Z"/>
            <g>
              <g>
                <path class="cls-32" d="M163.36,57.84a6.15,6.15,0,0,0,1.57-12.2,6,6,0,0,0-1.8,0,6.17,6.17,0,0,0-1.4,11.72A5.87,5.87,0,0,0,163.36,57.84Z"/>
                <path class="cls-46" d="M163.36,57.79a5.66,5.66,0,0,0,4.41-1.33,5.83,5.83,0,0,0,1.95-4A5.63,5.63,0,0,0,158.57,51a5.8,5.8,0,0,0,.87,4.37A5.74,5.74,0,0,0,163.36,57.79Zm0,.1a6.11,6.11,0,0,1-4.09-2.37A6.19,6.19,0,0,1,158,51a6.32,6.32,0,0,1,2.33-4.14,6.13,6.13,0,0,1,8.7,1.12,6.36,6.36,0,0,1,1.21,4.6,6.25,6.25,0,0,1-2.36,4.11A6.08,6.08,0,0,1,163.35,57.89Z"/>
              </g>
              <g>
                <path class="cls-47" d="M160.39,51.77a3.76,3.76,0,1,0,3.75-3.7,3.74,3.74,0,0,0-3.75,3.7Z"/>
                <path class="cls-32" d="M165.58,50.26a.93.93,0,0,0,1.28.1.88.88,0,0,0-.05-1.25.92.92,0,0,0-1.28-.11.89.89,0,0,0,.05,1.26Z"/>
              </g>
            </g>
            <path class="cls-47" d="M158.78,41.26l-1.2-2.39s7.73-7.09,16.29,1A13.08,13.08,0,0,0,158.78,41.26Z"/>
            <path class="cls-47" d="M143.89,41.44l1.17-2.39s-7.6-7.09-16,1C129.05,40.06,136.2,35.28,143.89,41.44Z"/>
            <g>
              <g>
                <path class="cls-32" d="M138.93,57.53a6.06,6.06,0,1,0-1.62-.44A5.88,5.88,0,0,0,138.93,57.53Z"/>
                <path class="cls-46" d="M138.94,57.48a5.65,5.65,0,0,0,4.39-1.32,5.83,5.83,0,0,0,1.95-4,5.62,5.62,0,0,0-11.12-1.43,5.74,5.74,0,0,0,.87,4.35A5.66,5.66,0,0,0,138.94,57.48Zm0,.1a6.1,6.1,0,0,1-4.09-2.36,6.15,6.15,0,1,1,8.64,1.12A6.11,6.11,0,0,1,138.93,57.58Z"/>
              </g>
              <g>
                <path class="cls-47" d="M136,51.48a3.75,3.75,0,1,0,3.74-3.69A3.72,3.72,0,0,0,136,51.48Z"/>
                <path class="cls-32" d="M141.15,50a.94.94,0,0,0,1.28.11.89.89,0,0,0-.06-1.26.93.93,0,0,0-1.27-.11.89.89,0,0,0,.05,1.26Z"/>
              </g>
            </g>
          </g>
        </g>
        <path class="cls-48" d="M1.28,108.19c3.13-4.1,25.44,9.69,25.44,9.69a6.14,6.14,0,0,0,1.51,4.9c2,1.93,1.45,1.8,1.45,1.8L3.5,112.5S-.58,110.62,1.28,108.19Z"/>
      </g>
    </g>
  </g>
</svg>
