<svg xmlns="http://www.w3.org/2000/svg" viewBox="0 0 130 130"><defs><style>.a{fill:#fff;}.b{fill:#f7de26;}.c{fill:#db9303;}.d{fill:#f4ba00;}.e{fill:#d8d8d8;}.f{fill:#fbfcfa;}</style></defs><circle class="a" cx="65" cy="65" r="65"/><circle class="b" cx="65" cy="65" r="58.23"/><circle class="c" cx="67.01" cy="67.01" r="56.22"/><circle class="d" cx="65.83" cy="65.83" r="55.04"/><path class="e" d="M42.31,63.55c1.38-3.31,8.87-9.91,18.74-16.27,9.27-6,17.89-10,21.86-10.33h.85a4.84,4.84,0,0,1,3.09,8.31c-1.07.64-2.15,1.32-3.25,2-9.86,6.36-17.36,13-18.73,16.27a5.82,5.82,0,0,0-.64,2.65,5.92,5.92,0,0,0,1.49,3.93c2.54,3.57,9.32,9.28,17.88,14.8,1.1.71,2.19,1.39,3.26,2a4.85,4.85,0,0,1-3,8.3H83c-4-.33-12.59-4.32-21.9-10.32-8.57-5.52-15.34-11.23-17.88-14.8a5.9,5.9,0,0,1-.86-6.58Z"/><path class="f" d="M42.31,61.34c1.38-3.3,8.87-9.91,18.74-16.27,9.27-6,17.89-10,21.86-10.32h.85a4.84,4.84,0,0,1,3.09,8.31l-3.25,2c-9.86,6.36-17.36,13-18.73,16.27a5.9,5.9,0,0,0,.85,6.59C68.26,71.49,75,77.19,83.6,82.71c1.1.71,2.19,1.39,3.26,2a4.85,4.85,0,0,1-3,8.3H83C79,92.67,70.4,88.69,61.09,82.68c-8.57-5.52-15.34-11.22-17.88-14.79a5.92,5.92,0,0,1-.86-6.59Z"/></svg>