<svg xmlns="http://www.w3.org/2000/svg" viewBox="0 0 182.64 182.64"><defs><style>.a{fill:#fff;}.b{fill:#c0e55a;}.c{fill:#5b9319;}.d{fill:#8dc610;}.e{fill:#d8d8d8;}.f{fill:#fbfcfa;}</style></defs><circle class="a" cx="91.32" cy="91.32" r="91.32"/><circle class="b" cx="91.32" cy="91.32" r="81.81"/><circle class="c" cx="88.49" cy="94.15" r="78.98"/><circle class="d" cx="90.15" cy="92.49" r="77.32"/><path class="e" d="M120.18,82.12,77.06,57.22a10.63,10.63,0,0,0-15.88,9.21v49.79a10.63,10.63,0,0,0,15.94,9.2l43.06-24.89a10.63,10.63,0,0,0,0-18.41Z"/><path class="f" d="M119.93,80.53,77,56.08a10.62,10.62,0,0,0-15.84,9.23v48.91a10.63,10.63,0,0,0,15.89,9.23L120,99a10.63,10.63,0,0,0,0-18.47Z"/></svg>