<svg xmlns="http://www.w3.org/2000/svg" viewBox="0 0 130 130"><defs><style>.a{fill:#fff;}.b{fill:#c0e55a;}.c{fill:#5b9319;}.d{fill:#8dc610;}.e{fill:#d8d8d8;}.f{fill:#fbfcfa;}</style></defs><circle class="a" cx="65" cy="65" r="65"/><circle class="b" cx="65" cy="65" r="58.23"/><circle class="c" cx="62.99" cy="67.01" r="56.22"/><circle class="d" cx="64.17" cy="65.83" r="55.04"/><path class="e" d="M66.13,38.76S94.79,58,94.79,64.89,75.06,89.4,66.13,93.24c-8.34,3.58-10.82-3.67-8.42-6.83C60.45,82.58,70.13,73.59,73.18,70c.94-1.18,3.54-3.78.82-7.08S58.86,47.65,58.86,47.65s-4.58-4.58-1.54-8.38C60.78,35,66.13,38.76,66.13,38.76Z"/><path class="e" d="M47.79,47.53S65,59.37,65,65.91C63.73,73.91,42,91.24,36.22,84c-5.71-9.75,15.17-13.37,7.67-21.84-3.81-4-6.85-6.73-6.85-6.73s-4.2-4.08.36-7.92C42.12,43.56,47.79,47.53,47.79,47.53Z"/><path class="f" d="M66.13,37.31S94.79,56.52,94.79,63.45,75.06,88,66.13,91.79c-8.34,3.58-10.82-3.66-8.42-6.82,2.74-3.83,12.42-12.82,15.47-16.44.94-1.18,3.54-3.78.82-7.09S58.86,46.23,58.86,46.23s-4.58-4.58-1.54-8.39C60.78,33.55,66.13,37.31,66.13,37.31Z"/><path class="f" d="M47.79,46.11S65,57.94,65,64.49c-1.3,8-23.05,25.33-28.81,18.11-5.71-9.76,15.17-13.37,7.67-21.85C40.08,56.75,37,54,37,54s-4.2-4.07.36-7.91C42.12,42.14,47.79,46.11,47.79,46.11Z"/></svg>