<svg xmlns="http://www.w3.org/2000/svg" viewBox="0 0 130 130"><defs><style>.a{fill:#fff;}.b{fill:#f7de26;}.c{fill:#db9303;}.d{fill:#f4ba00;}.e{fill:#d8d8d8;}.f{fill:#fbfcfa;}</style></defs><circle class="a" cx="65" cy="65" r="65"/><circle class="b" cx="65" cy="65" r="58.23"/><circle class="c" cx="62.99" cy="67.01" r="56.22"/><circle class="d" cx="64.17" cy="65.83" r="55.04"/><path class="e" d="M87.69,63.55c-1.38-3.3-8.88-9.91-18.74-16.27-9.28-6-17.89-10-21.86-10.32h-.85a4.85,4.85,0,0,0-3.1,8.31c1.08.65,2.16,1.32,3.25,2,9.87,6.36,17.36,13,18.74,16.27a5.92,5.92,0,0,1-.85,6.58C61.73,73.7,55,79.4,46.39,84.92c-1.09.71-2.18,1.39-3.26,2a4.85,4.85,0,0,0,3,8.29H47c4-.34,12.6-4.32,21.91-10.33,8.56-5.52,15.34-11.22,17.88-14.8a5.9,5.9,0,0,0,.86-6.58Z"/><path class="f" d="M87.69,61.35C86.31,58,78.81,51.43,69,45.08c-9.28-6-17.89-10-21.86-10.33h-.85a4.85,4.85,0,0,0-3.1,8.31c1.08.64,2.16,1.32,3.25,2,9.87,6.35,17.36,13,18.74,16.27a5.94,5.94,0,0,1-.85,6.58c-2.55,3.57-9.32,9.28-17.89,14.8-1.09.71-2.18,1.38-3.26,2a4.85,4.85,0,0,0,3,8.3H47c4-.33,12.6-4.32,21.91-10.32,8.56-5.52,15.34-11.23,17.88-14.8a5.9,5.9,0,0,0,.86-6.58Z"/></svg>