<svg xmlns="http://www.w3.org/2000/svg" viewBox="0 0 130 130"><defs><style>.a{fill:#fff;}.b{fill:#c0e55a;}.c{fill:#5b9319;}.d{fill:#8dc610;}.e{fill:#d8d8d8;}.f{fill:#fbfcfa;}</style></defs><circle class="a" cx="65" cy="65" r="65"/><circle class="b" cx="65" cy="65" r="58.23"/><circle class="c" cx="62.99" cy="67.01" r="56.22"/><circle class="d" cx="64.17" cy="65.83" r="55.04"/><path class="e" d="M87.69,63.55C86.31,60.24,78.82,53.64,69,47.28c-9.28-6-17.89-10-21.86-10.32h-.85a4.84,4.84,0,0,0-3.09,8.31l3.25,2c9.86,6.36,17.35,13,18.73,16.27a5.88,5.88,0,0,1-.85,6.58C61.74,73.69,55,79.4,46.4,84.92c-1.1.71-2.19,1.37-3.27,2a4.85,4.85,0,0,0,3,8.29H47c4-.33,12.59-4.32,21.9-10.32,8.57-5.52,15.34-11.23,17.88-14.8a5.9,5.9,0,0,0,.86-6.58Z"/><path class="f" d="M87.69,61.34C86.31,58,78.82,51.43,69,45.07c-9.28-6-17.89-10-21.86-10.32h-.85a4.84,4.84,0,0,0-3.09,8.31l3.25,2c9.86,6.36,17.35,13,18.73,16.27a5.9,5.9,0,0,1-.85,6.59C61.74,71.49,55,77.2,46.4,82.72c-1.1.7-2.19,1.38-3.27,2a4.85,4.85,0,0,0,3,8.3H47c4-.33,12.59-4.32,21.9-10.32,8.57-5.52,15.34-11.23,17.88-14.8a6.19,6.19,0,0,0,1-6.56Z"/></svg>