<svg xmlns="http://www.w3.org/2000/svg" xmlns:xlink="http://www.w3.org/1999/xlink" width="1600" height="900" viewBox="0 0 1600 900">
  <defs>
    <style>
      .cls-1 {
        fill: none;
      }

      .cls-2 {
        isolation: isolate;
      }

      .cls-3 {
        clip-path: url(#clip-path);
      }

      .cls-4 {
        fill: url(#linear-gradient);
      }

      .cls-5 {
        opacity: 0.3;
      }

      .cls-6 {
        fill: #fff;
      }

      .cls-7 {
        fill: #c67b63;
      }

      .cls-8 {
        opacity: 0.54;
      }

      .cls-9 {
        fill: #b7a28f;
      }

      .cls-10 {
        fill: #7a6f73;
      }

      .cls-11 {
        fill: #cec4b2;
      }

      .cls-12 {
        fill: #fefbf2;
      }

      .cls-13 {
        opacity: 0.6;
      }

      .cls-14 {
        fill: #305f7f;
      }

      .cls-15, .cls-20, .cls-25, .cls-31, .cls-35, .cls-37 {
        opacity: 0.4;
      }

      .cls-16, .cls-37 {
        fill: #736357;
      }

      .cls-17 {
        fill: #f2f2f2;
      }

      .cls-18 {
        fill: #b5b5b5;
      }

      .cls-19 {
        fill: #92adb5;
      }

      .cls-20 {
        fill: #112f41;
      }

      .cls-21 {
        fill: #e4eaf2;
      }

      .cls-22 {
        fill: #abb0b5;
      }

      .cls-23, .cls-50 {
        opacity: 0.5;
      }

      .cls-24 {
        fill: #0b476d;
      }

      .cls-25, .cls-26 {
        fill: #5a8bba;
      }

      .cls-27 {
        fill: #454755;
      }

      .cls-28 {
        fill: #797979;
      }

      .cls-29 {
        opacity: 0.8;
      }

      .cls-30 {
        fill: #b7aaaa;
      }

      .cls-31, .cls-40 {
        fill: #355c7d;
      }

      .cls-32 {
        fill: #e2bf9a;
      }

      .cls-33 {
        fill: #aa8f73;
      }

      .cls-34 {
        fill: #666c73;
      }

      .cls-35 {
        fill: #534741;
      }

      .cls-36 {
        fill: #2cb4ce;
      }

      .cls-38 {
        fill: #727579;
      }

      .cls-39 {
        fill: #038c8c;
      }

      .cls-41 {
        fill: #c2e7f2;
      }

      .cls-42 {
        fill: #acce20;
      }

      .cls-43 {
        fill: #7bab05;
      }

      .cls-44 {
        fill: #5b8f00;
      }

      .cls-45 {
        fill: #4b6312;
      }

      .cls-46 {
        fill: #64920c;
      }

      .cls-47 {
        fill: #bcd650;
      }

      .cls-48 {
        fill: #bce557;
      }

      .cls-49 {
        fill: #835436;
      }

      .cls-50 {
        mix-blend-mode: multiply;
      }

      .cls-51 {
        fill: #69a337;
      }

      .cls-52 {
        fill: #2c7700;
      }

      .cls-53 {
        fill: #439c3d;
      }

      .cls-54 {
        fill: #86cf36;
      }

      .cls-55 {
        fill: #6db41f;
      }

      .cls-56 {
        fill: #407506;
      }

      .cls-57 {
        fill: #2e470b;
      }

      .cls-58 {
        fill: #704b26;
      }

      .cls-59 {
        fill: #81b51c;
      }

      .cls-60 {
        fill: #9bcf35;
      }

      .cls-61 {
        fill: #415e23;
      }

      .cls-62 {
        fill: #3e631e;
      }

      .cls-63 {
        fill: #609a23;
      }

      .cls-64 {
        fill: #fcfafa;
        opacity: 0.37;
      }
    </style>
    <clipPath id="clip-path">
      <rect class="cls-1" width="1600" height="900"/>
    </clipPath>
    <linearGradient id="linear-gradient" x1="816.97" y1="673.65" x2="816.97" y2="-23.29" gradientUnits="userSpaceOnUse">
      <stop offset="0.05" stop-color="#fff9c5"/>
      <stop offset="0.79" stop-color="#a7d8dd"/>
    </linearGradient>
  </defs>
  <g class="cls-2">
    <g id="Layer_1" data-name="Layer 1">
      <g class="cls-3">
        <g>
          <g>
            <rect id="sky" class="cls-4" x="-61.5" y="-23.29" width="1756.96" height="696.94"/>
            <g id="shapes_sky" data-name="shapes sky" class="cls-5">
              <polygon class="cls-6" points="-61.5 134 1695.45 250.19 1695.45 329.07 -61.5 319.13 -61.5 134"/>
              <polygon class="cls-6" points="-61.5 80.14 1695.45 203.2 1695.45 112.28 -61.5 58.78 -61.5 80.14"/>
              <polygon class="cls-6" points="-61.5 480.9 1695.45 381.65 1695.45 524.31 -61.5 515.98 -61.5 480.9"/>
              <polygon class="cls-6" points="-61.5 363.54 1277.16 364.83 -61.5 439.82 -61.5 363.54"/>
            </g>
          </g>
          <path class="cls-7" d="M542.88,702.82s135-11,340.09-5,399.2,33.77,249.17,41.3-168.51,7.52-168.51,7.52l-364,.07S468.2,727.41,542.88,702.82Z"/>
          <g class="cls-8">
            <g id="house">
              <g id="bg">
                <rect class="cls-9" x="-26.33" y="301.52" width="192.69" height="272.03"/>
                <rect class="cls-10" x="166.36" y="301.52" width="56.67" height="272.03"/>
                <g>
                  <rect class="cls-11" x="166.36" y="290.18" width="64.23" height="11.33"/>
                  <rect class="cls-11" x="166.36" y="369.52" width="60.45" height="7.56"/>
                </g>
                <g>
                  <rect class="cls-12" x="-30.1" y="369.52" width="196.46" height="7.56"/>
                  <rect class="cls-12" x="-30.1" y="290.18" width="196.46" height="11.33"/>
                </g>
              </g>
              <g id="windows" class="cls-13">
                <rect class="cls-14" x="-14.99" y="320.41" width="18.89" height="26.45"/>
                <rect class="cls-14" x="15.23" y="320.41" width="18.89" height="26.45"/>
                <rect class="cls-14" x="45.46" y="320.41" width="18.89" height="26.45"/>
                <rect class="cls-14" x="75.68" y="320.41" width="18.89" height="26.45"/>
                <rect class="cls-14" x="105.91" y="320.41" width="18.89" height="26.45"/>
                <rect class="cls-14" x="136.13" y="320.41" width="18.89" height="26.45"/>
                <rect class="cls-14" x="-14.99" y="392.19" width="18.89" height="26.45"/>
                <rect class="cls-14" x="15.23" y="392.19" width="18.89" height="26.45"/>
                <rect class="cls-14" x="45.46" y="392.19" width="18.89" height="26.45"/>
                <rect class="cls-14" x="75.68" y="392.19" width="18.89" height="26.45"/>
                <rect class="cls-14" x="105.91" y="392.19" width="18.89" height="26.45"/>
                <rect class="cls-14" x="136.13" y="392.19" width="18.89" height="26.45"/>
                <rect class="cls-14" x="-14.99" y="437.53" width="18.89" height="26.45"/>
                <rect class="cls-14" x="15.23" y="437.53" width="18.89" height="26.45"/>
                <rect class="cls-14" x="45.46" y="437.53" width="18.89" height="26.45"/>
                <rect class="cls-14" x="75.68" y="437.53" width="18.89" height="26.45"/>
                <rect class="cls-14" x="105.91" y="437.53" width="18.89" height="26.45"/>
                <rect class="cls-14" x="136.13" y="437.53" width="18.89" height="26.45"/>
                <rect class="cls-14" x="-14.99" y="482.87" width="18.89" height="26.45"/>
                <rect class="cls-14" x="15.23" y="482.87" width="18.89" height="26.45"/>
                <rect class="cls-14" x="45.46" y="482.87" width="18.89" height="26.45"/>
                <rect class="cls-14" x="75.68" y="482.87" width="18.89" height="26.45"/>
                <rect class="cls-14" x="105.91" y="482.87" width="18.89" height="26.45"/>
                <rect class="cls-14" x="136.13" y="482.87" width="18.89" height="26.45"/>
                <rect class="cls-14" x="-14.99" y="528.21" width="18.89" height="26.45"/>
                <rect class="cls-14" x="15.23" y="528.21" width="18.89" height="26.45"/>
                <rect class="cls-14" x="45.46" y="528.21" width="18.89" height="26.45"/>
                <rect class="cls-14" x="75.68" y="528.21" width="18.89" height="26.45"/>
                <rect class="cls-14" x="105.91" y="528.21" width="18.89" height="26.45"/>
                <rect class="cls-14" x="136.13" y="528.21" width="18.89" height="26.45"/>
              </g>
              <g id="light">
                <polygon class="cls-6" points="166.36 290.18 -30.1 290.18 -30.1 301.52 -27.99 292.42 166.36 290.18"/>
                <polygon class="cls-6" points="166.36 369.52 -30.1 369.52 -30.1 377.08 -28.21 371.16 166.36 369.52"/>
              </g>
              <g id="shadow" class="cls-15">
                <rect class="cls-16" x="-26.33" y="301.52" width="249.36" height="3.78"/>
                <rect class="cls-16" x="-26.33" y="377.08" width="249.36" height="3.78"/>
              </g>
            </g>
            <g id="house-2" data-name="house">
              <g id="bg-2" data-name="bg">
                <rect class="cls-17" x="207.94" y="479.97" width="120.9" height="86.9"/>
                <rect class="cls-18" x="328.84" y="479.97" width="34" height="86.9"/>
                <rect class="cls-12" x="200.38" y="468.64" width="128.46" height="11.33"/>
                <rect class="cls-11" x="328.84" y="468.64" width="37.78" height="11.33"/>
              </g>
              <g id="windows-2" data-name="windows">
                <rect class="cls-19" x="211.72" y="487.53" width="22.67" height="18.89"/>
                <rect class="cls-19" x="241.94" y="487.53" width="22.67" height="18.89"/>
                <rect class="cls-19" x="272.17" y="487.53" width="22.67" height="18.89"/>
                <rect class="cls-19" x="302.39" y="487.53" width="22.67" height="18.89"/>
                <rect class="cls-19" x="211.72" y="513.98" width="22.67" height="18.89"/>
                <rect class="cls-19" x="241.94" y="513.98" width="22.67" height="18.89"/>
                <rect class="cls-19" x="272.17" y="513.98" width="22.67" height="18.89"/>
                <rect class="cls-19" x="302.39" y="513.98" width="22.67" height="18.89"/>
                <rect class="cls-19" x="211.72" y="540.42" width="22.67" height="18.89"/>
                <rect class="cls-19" x="241.94" y="540.42" width="22.67" height="18.89"/>
                <rect class="cls-19" x="272.17" y="540.42" width="22.67" height="18.89"/>
                <rect class="cls-19" x="302.39" y="540.42" width="22.67" height="18.89"/>
              </g>
              <polygon id="light-2" data-name="light" class="cls-6" points="328.84 468.64 200.38 468.64 200.38 479.97 201.97 471.09 328.84 468.64"/>
              <g id="shadow-2" data-name="shadow">
                <rect class="cls-20" x="207.94" y="479.97" width="154.9" height="3.78"/>
                <polygon class="cls-20" points="200.38 468.64 230.61 468.64 234.39 479.97 245.72 479.97 268.39 566.87 207.94 566.87 207.94 479.97 200.38 479.97 200.38 468.64"/>
              </g>
            </g>
            <g>
              <g id="house-3" data-name="house">
                <g id="bg-3" data-name="bg">
                  <rect class="cls-21" x="742.31" y="407.71" width="143.57" height="256.91"/>
                  <rect class="cls-22" x="885.88" y="407.71" width="49.12" height="256.91"/>
                </g>
                <g id="windows-3" data-name="windows" class="cls-23">
                  <rect class="cls-24" x="757.42" y="422.82" width="41.56" height="18.89"/>
                  <rect class="cls-24" x="829.21" y="422.82" width="41.56" height="18.89"/>
                  <rect class="cls-24" x="806.54" y="422.82" width="15.11" height="18.89"/>
                  <rect class="cls-24" x="757.42" y="453.05" width="41.56" height="18.89"/>
                  <rect class="cls-24" x="829.21" y="453.05" width="41.56" height="18.89"/>
                  <rect class="cls-24" x="806.54" y="453.05" width="15.11" height="18.89"/>
                  <rect class="cls-24" x="757.42" y="483.27" width="41.56" height="18.89"/>
                  <rect class="cls-24" x="829.21" y="483.27" width="41.56" height="18.89"/>
                  <rect class="cls-24" x="806.54" y="483.27" width="15.11" height="18.89"/>
                  <rect class="cls-24" x="757.42" y="513.5" width="41.56" height="18.89"/>
                  <rect class="cls-24" x="829.21" y="513.5" width="41.56" height="18.89"/>
                  <rect class="cls-24" x="806.54" y="513.5" width="15.11" height="18.89"/>
                  <rect class="cls-24" x="757.42" y="543.72" width="41.56" height="18.89"/>
                  <rect class="cls-24" x="829.21" y="543.72" width="41.56" height="18.89"/>
                  <rect class="cls-24" x="806.54" y="543.72" width="15.11" height="18.89"/>
                  <rect class="cls-24" x="757.42" y="573.95" width="41.56" height="18.89"/>
                  <rect class="cls-24" x="829.21" y="573.95" width="41.56" height="18.89"/>
                  <rect class="cls-24" x="806.54" y="573.95" width="15.11" height="18.89"/>
                  <rect class="cls-24" x="757.42" y="604.17" width="41.56" height="18.89"/>
                  <rect class="cls-24" x="829.21" y="604.17" width="41.56" height="18.89"/>
                  <rect class="cls-24" x="806.54" y="604.17" width="15.11" height="18.89"/>
                  <rect class="cls-24" x="757.42" y="634.4" width="41.56" height="18.89"/>
                  <rect class="cls-24" x="829.21" y="634.4" width="41.56" height="18.89"/>
                  <rect class="cls-24" x="806.54" y="634.4" width="15.11" height="18.89"/>
                </g>
                <polygon id="light-3" data-name="light" class="cls-6" points="885.88 407.71 742.31 407.71 742.31 651.56 745.04 410.14 885.88 407.71"/>
                <polygon id="shadow-3" data-name="shadow" class="cls-25" points="742.31 430.38 795.2 437.94 832.98 479.5 863.21 479.5 885.88 498.39 885.88 664.63 742.31 664.63 742.31 430.38"/>
              </g>
              <g id="house-4" data-name="house">
                <g id="bg-4" data-name="bg">
                  <polygon class="cls-17" points="1010.56 266.63 1010.56 294.37 999.22 294.37 999.22 664.63 1074.79 664.63 1074.79 294.37 1074.79 266.63 1010.56 266.63"/>
                  <polygon class="cls-18" points="1101.23 294.37 1101.23 266.63 1074.79 266.63 1074.79 294.37 1074.79 664.63 1112.57 664.63 1112.57 294.37 1101.23 294.37"/>
                </g>
                <g id="windows-4" data-name="windows" class="cls-23">
                  <rect class="cls-26" x="1006.78" y="301.92" width="15.11" height="362.7"/>
                  <rect class="cls-26" x="1052.12" y="301.92" width="15.11" height="362.7"/>
                  <rect class="cls-26" x="1029.45" y="301.92" width="15.11" height="362.7"/>
                </g>
                <g id="light-4" data-name="light">
                  <polygon class="cls-6" points="1074.79 266.63 1010.56 266.63 1010.56 291.88 1012.21 267.92 1074.79 266.63"/>
                  <polygon class="cls-6" points="1074.79 294.37 999.22 294.37 999.22 584.83 1000.91 295.85 1074.79 294.37"/>
                </g>
                <polygon id="shadow-4" data-name="shadow" class="cls-25" points="1003 320.81 1037 362.37 1059.67 366.15 1074.79 403.93 1074.79 664.63 1003 664.63 1003 320.81"/>
              </g>
              <g id="house-5" data-name="house">
                <g id="bg-5" data-name="bg">
                  <polygon class="cls-9" points="984.11 385.04 984.11 351.04 972.77 351.04 972.77 328.37 957.66 328.37 957.66 294.37 950.11 294.37 950.11 328.37 923.66 328.37 923.66 351.04 908.55 351.04 908.55 385.04 897.21 385.04 897.21 664.63 991.67 664.63 991.67 385.04 984.11 385.04"/>
                  <g>
                    <polygon class="cls-10" points="1010.56 385.04 1010.56 351.04 995.44 351.04 995.44 328.37 972.77 328.37 972.77 351.04 984.11 351.04 984.11 385.04 991.67 385.04 991.67 664.63 1021.89 664.63 1021.89 385.04 1010.56 385.04"/>
                    <rect class="cls-10" x="957.66" y="294.37" width="3.78" height="34"/>
                  </g>
                </g>
                <g id="windows-5" data-name="windows" class="cls-23">
                  <rect class="cls-27" x="908.55" y="396.38" width="18.89" height="11.33"/>
                  <rect class="cls-27" x="961.44" y="396.38" width="18.89" height="11.33"/>
                  <rect class="cls-27" x="938.77" y="396.38" width="11.33" height="11.33"/>
                  <rect class="cls-27" x="908.55" y="419.05" width="18.89" height="11.33"/>
                  <rect class="cls-27" x="961.44" y="419.05" width="18.89" height="11.33"/>
                  <rect class="cls-27" x="938.77" y="419.05" width="11.33" height="11.33"/>
                  <rect class="cls-27" x="908.55" y="441.71" width="18.89" height="11.33"/>
                  <rect class="cls-27" x="961.44" y="441.71" width="18.89" height="11.33"/>
                  <rect class="cls-27" x="938.77" y="441.71" width="11.33" height="11.33"/>
                  <rect class="cls-27" x="908.55" y="464.38" width="18.89" height="11.33"/>
                  <rect class="cls-27" x="961.44" y="464.38" width="18.89" height="11.33"/>
                  <rect class="cls-27" x="938.77" y="464.38" width="11.33" height="11.33"/>
                  <rect class="cls-27" x="908.55" y="487.05" width="18.89" height="11.33"/>
                  <rect class="cls-27" x="961.44" y="487.05" width="18.89" height="11.33"/>
                  <rect class="cls-27" x="938.77" y="487.05" width="11.33" height="11.33"/>
                  <rect class="cls-27" x="908.55" y="509.72" width="18.89" height="11.33"/>
                  <rect class="cls-27" x="961.44" y="509.72" width="18.89" height="11.33"/>
                  <rect class="cls-27" x="938.77" y="509.72" width="11.33" height="11.33"/>
                  <rect class="cls-27" x="908.55" y="532.39" width="18.89" height="11.33"/>
                  <rect class="cls-27" x="961.44" y="532.39" width="18.89" height="11.33"/>
                  <rect class="cls-27" x="938.77" y="532.39" width="11.33" height="11.33"/>
                  <rect class="cls-27" x="908.55" y="555.06" width="18.89" height="11.33"/>
                  <rect class="cls-27" x="961.44" y="555.06" width="18.89" height="11.33"/>
                  <rect class="cls-27" x="938.77" y="555.06" width="11.33" height="11.33"/>
                  <rect class="cls-27" x="908.55" y="577.73" width="18.89" height="11.33"/>
                  <rect class="cls-27" x="961.44" y="577.73" width="18.89" height="11.33"/>
                  <rect class="cls-27" x="938.77" y="577.73" width="11.33" height="11.33"/>
                  <rect class="cls-27" x="908.55" y="600.4" width="18.89" height="11.33"/>
                  <rect class="cls-27" x="961.44" y="600.4" width="18.89" height="11.33"/>
                  <rect class="cls-27" x="938.77" y="600.4" width="11.33" height="11.33"/>
                  <rect class="cls-27" x="908.55" y="623.07" width="18.89" height="11.33"/>
                  <rect class="cls-27" x="961.44" y="623.07" width="18.89" height="11.33"/>
                  <rect class="cls-27" x="938.77" y="623.07" width="11.33" height="11.33"/>
                  <rect class="cls-27" x="908.55" y="645.73" width="18.89" height="11.33"/>
                  <rect class="cls-27" x="961.44" y="645.73" width="18.89" height="11.33"/>
                  <rect class="cls-27" x="938.77" y="645.73" width="11.33" height="11.33"/>
                  <rect class="cls-27" x="942.55" y="358.6" width="3.78" height="22.67"/>
                  <rect class="cls-27" x="953.88" y="358.6" width="3.78" height="22.67"/>
                  <rect class="cls-27" x="965.22" y="358.6" width="3.78" height="22.67"/>
                  <rect class="cls-27" x="931.22" y="358.6" width="3.78" height="22.67"/>
                  <rect class="cls-27" x="919.88" y="358.6" width="3.78" height="22.67"/>
                </g>
                <g id="light-5" data-name="light">
                  <polygon class="cls-6" points="957.66 294.37 950.11 294.37 950.11 321.91 951.05 295.41 957.66 294.37"/>
                  <polygon class="cls-6" points="972.77 328.37 923.66 328.37 923.66 349.28 924.89 329.91 972.77 328.37"/>
                  <polygon class="cls-6" points="984.11 351.04 908.55 351.04 908.55 382.72 909.85 352.47 984.11 351.04"/>
                  <polygon class="cls-6" points="897.21 385.04 897.21 637.87 898.82 386.64 991.67 385.04 897.21 385.04"/>
                </g>
              </g>
              <g id="house-6" data-name="house">
                <g id="bg-6" data-name="bg">
                  <polygon class="cls-18" points="1184.35 460.61 1078.56 460.61 1082.34 464.38 1184.35 464.38 1184.35 460.61"/>
                  <polygon class="cls-28" points="1184.35 460.61 1237.25 460.61 1233.47 464.38 1184.35 464.38 1184.35 460.61"/>
                  <g>
                    <rect class="cls-17" x="1082.34" y="464.38" width="102.01" height="200.24"/>
                    <rect class="cls-17" x="1074.79" y="453.05" width="109.57" height="7.56"/>
                  </g>
                  <g>
                    <rect class="cls-18" x="1184.35" y="464.38" width="49.12" height="200.24"/>
                    <rect class="cls-18" x="1184.35" y="453.05" width="56.67" height="7.56"/>
                  </g>
                </g>
                <g id="windows-6" data-name="windows" class="cls-29">
                  <rect class="cls-30" x="1123.9" y="475.72" width="15.11" height="147.35"/>
                  <rect class="cls-30" x="1089.9" y="475.72" width="22.67" height="15.11"/>
                  <rect class="cls-30" x="1150.35" y="475.72" width="26.45" height="15.11"/>
                  <rect class="cls-30" x="1089.9" y="502.16" width="22.67" height="15.11"/>
                  <rect class="cls-30" x="1150.35" y="502.16" width="26.45" height="15.11"/>
                  <rect class="cls-30" x="1089.9" y="528.61" width="22.67" height="15.11"/>
                  <rect class="cls-30" x="1150.35" y="528.61" width="26.45" height="15.11"/>
                  <rect class="cls-30" x="1089.9" y="555.06" width="22.67" height="15.11"/>
                  <rect class="cls-30" x="1150.35" y="555.06" width="26.45" height="15.11"/>
                  <rect class="cls-30" x="1089.9" y="581.51" width="22.67" height="15.11"/>
                  <rect class="cls-30" x="1150.35" y="581.51" width="26.45" height="15.11"/>
                  <rect class="cls-30" x="1089.9" y="607.95" width="22.67" height="15.11"/>
                  <rect class="cls-30" x="1150.35" y="607.95" width="26.45" height="15.11"/>
                  <rect class="cls-30" x="1089.9" y="634.4" width="22.67" height="15.11"/>
                  <rect class="cls-30" x="1150.35" y="634.4" width="26.45" height="15.11"/>
                  <rect class="cls-30" x="1123.9" y="634.4" width="15.11" height="30.23"/>
                </g>
                <g id="light-6" data-name="light">
                  <polygon class="cls-6" points="1184.35 453.05 1074.79 453.05 1074.79 460.61 1075.68 454.46 1184.35 453.05"/>
                  <polygon class="cls-6" points="1082.34 464.38 1082.34 653.31 1083.86 464.38 1082.34 464.38"/>
                </g>
                <rect id="shadow-5" data-name="shadow" class="cls-31" x="1082.34" y="464.38" width="151.13" height="3.78"/>
              </g>
              <g id="house-7" data-name="house">
                <g id="bg-7" data-name="bg">
                  <g>
                    <rect class="cls-32" x="1222.13" y="536.17" width="105.79" height="128.46"/>
                    <rect class="cls-32" x="1222.13" y="505.94" width="105.79" height="22.67"/>
                  </g>
                  <g>
                    <rect class="cls-33" x="1327.92" y="536.17" width="37.78" height="128.46"/>
                    <rect class="cls-33" x="1327.92" y="505.94" width="37.78" height="22.67"/>
                  </g>
                  <g>
                    <rect class="cls-12" x="1218.36" y="528.61" width="109.57" height="7.56"/>
                    <rect class="cls-12" x="1218.36" y="498.39" width="109.57" height="7.56"/>
                  </g>
                  <g>
                    <rect class="cls-11" x="1327.92" y="528.61" width="41.56" height="7.56"/>
                    <rect class="cls-11" x="1327.92" y="498.39" width="41.56" height="7.56"/>
                  </g>
                </g>
                <g id="windows-7" data-name="windows" class="cls-29">
                  <rect class="cls-34" x="1256.14" y="547.5" width="37.78" height="11.33"/>
                  <rect class="cls-34" x="1301.47" y="547.5" width="15.11" height="11.33"/>
                  <rect class="cls-34" x="1233.47" y="547.5" width="15.11" height="11.33"/>
                  <rect class="cls-34" x="1256.14" y="566.39" width="37.78" height="11.33"/>
                  <rect class="cls-34" x="1301.47" y="566.39" width="15.11" height="11.33"/>
                  <rect class="cls-34" x="1233.47" y="566.39" width="15.11" height="11.33"/>
                  <rect class="cls-34" x="1256.14" y="585.28" width="37.78" height="11.33"/>
                  <rect class="cls-34" x="1301.47" y="585.28" width="15.11" height="11.33"/>
                  <rect class="cls-34" x="1233.47" y="585.28" width="15.11" height="11.33"/>
                  <rect class="cls-34" x="1256.14" y="604.17" width="37.78" height="11.33"/>
                  <rect class="cls-34" x="1301.47" y="604.17" width="15.11" height="11.33"/>
                  <rect class="cls-34" x="1233.47" y="604.17" width="15.11" height="11.33"/>
                  <rect class="cls-34" x="1256.14" y="623.07" width="37.78" height="11.33"/>
                  <rect class="cls-34" x="1301.47" y="623.07" width="15.11" height="11.33"/>
                  <rect class="cls-34" x="1233.47" y="623.07" width="15.11" height="11.33"/>
                  <rect class="cls-34" x="1256.14" y="641.96" width="37.78" height="11.33"/>
                  <rect class="cls-34" x="1301.47" y="641.96" width="15.11" height="11.33"/>
                  <rect class="cls-34" x="1233.47" y="641.96" width="15.11" height="11.33"/>
                  <rect class="cls-34" x="1233.47" y="513.5" width="15.11" height="7.56"/>
                  <rect class="cls-34" x="1301.47" y="513.5" width="15.11" height="7.56"/>
                  <rect class="cls-34" x="1256.14" y="513.5" width="15.11" height="7.56"/>
                  <rect class="cls-34" x="1278.81" y="513.5" width="15.11" height="7.56"/>
                </g>
                <g id="light-7" data-name="light">
                  <polygon class="cls-6" points="1327.92 498.39 1218.36 498.39 1218.36 505.94 1219.84 499.66 1327.92 498.39"/>
                  <polygon class="cls-6" points="1223.13 505.94 1222.13 505.94 1222.13 528.61 1218.36 528.61 1218.36 536.17 1219.55 530.08 1327.92 528.61 1223.13 528.61 1223.13 505.94"/>
                  <polygon class="cls-6" points="1222.13 647.25 1223.13 536.17 1222.13 536.17 1222.13 647.25"/>
                </g>
                <g id="shadow-6" data-name="shadow">
                  <rect class="cls-31" x="1222.13" y="505.94" width="143.57" height="3.78"/>
                  <rect class="cls-31" x="1222.13" y="536.17" width="143.57" height="3.78"/>
                  <polygon class="cls-35" points="1241.02 498.39 1293.92 664.63 1222.13 664.63 1222.13 536.17 1218.36 536.17 1218.36 528.61 1222.13 528.61 1222.13 505.94 1218.36 505.94 1218.36 498.39 1241.02 498.39"/>
                </g>
              </g>
              <g id="house-8" data-name="house">
                <g id="bg-8" data-name="bg">
                  <g>
                    <rect class="cls-17" x="817.87" y="558.84" width="105.79" height="105.79"/>
                    <rect class="cls-17" x="817.87" y="528.61" width="105.79" height="22.67"/>
                  </g>
                  <g>
                    <rect class="cls-18" x="923.66" y="558.84" width="37.78" height="105.79"/>
                    <rect class="cls-18" x="923.66" y="528.61" width="37.78" height="22.67"/>
                  </g>
                  <g>
                    <rect class="cls-12" x="814.09" y="551.28" width="109.57" height="7.56"/>
                    <rect class="cls-12" x="814.09" y="521.06" width="109.57" height="7.56"/>
                  </g>
                  <g>
                    <rect class="cls-11" x="923.66" y="551.28" width="41.56" height="7.56"/>
                    <rect class="cls-11" x="923.66" y="521.06" width="41.56" height="7.56"/>
                  </g>
                </g>
                <g id="windows-8" data-name="windows" class="cls-29">
                  <rect class="cls-36" x="851.87" y="570.17" width="37.78" height="11.33"/>
                  <rect class="cls-36" x="897.21" y="570.17" width="15.11" height="11.33"/>
                  <rect class="cls-36" x="829.21" y="570.17" width="15.11" height="11.33"/>
                  <rect class="cls-36" x="851.87" y="589.06" width="37.78" height="11.33"/>
                  <rect class="cls-36" x="897.21" y="589.06" width="15.11" height="11.33"/>
                  <rect class="cls-36" x="829.21" y="589.06" width="15.11" height="11.33"/>
                  <rect class="cls-36" x="851.87" y="607.95" width="37.78" height="11.33"/>
                  <rect class="cls-36" x="897.21" y="607.95" width="15.11" height="11.33"/>
                  <rect class="cls-36" x="829.21" y="607.95" width="15.11" height="11.33"/>
                  <rect class="cls-36" x="851.87" y="626.84" width="37.78" height="11.33"/>
                  <rect class="cls-36" x="897.21" y="626.84" width="15.11" height="11.33"/>
                  <rect class="cls-36" x="829.21" y="626.84" width="15.11" height="11.33"/>
                  <rect class="cls-36" x="851.87" y="645.73" width="37.78" height="11.33"/>
                  <rect class="cls-36" x="897.21" y="645.73" width="15.11" height="11.33"/>
                  <rect class="cls-36" x="829.21" y="645.73" width="15.11" height="11.33"/>
                  <rect class="cls-36" x="829.21" y="536.17" width="15.11" height="7.56"/>
                  <rect class="cls-36" x="897.21" y="536.17" width="15.11" height="7.56"/>
                  <rect class="cls-36" x="851.87" y="536.17" width="15.11" height="7.56"/>
                  <rect class="cls-36" x="874.54" y="536.17" width="15.11" height="7.56"/>
                </g>
                <g id="light-8" data-name="light">
                  <polygon class="cls-6" points="923.66 521.06 814.09 521.06 814.09 528.61 815.58 522.33 923.66 521.06"/>
                  <polygon class="cls-6" points="818.87 528.61 817.87 528.61 817.87 551.28 814.09 551.28 814.09 558.84 815.28 552.75 923.66 551.28 818.87 551.28 818.87 528.61"/>
                  <polygon class="cls-6" points="817.87 654.8 818.87 558.84 817.87 558.84 817.87 654.8"/>
                </g>
                <g id="shadow-7" data-name="shadow">
                  <rect class="cls-31" x="817.87" y="528.61" width="143.57" height="3.78"/>
                  <rect class="cls-31" x="817.87" y="558.84" width="143.57" height="3.78"/>
                  <polygon class="cls-37" points="961.44 543.73 991.67 566.39 991.67 664.63 961.44 664.63 961.44 558.84 965.22 558.84 965.22 551.28 961.44 551.28 961.44 543.73"/>
                </g>
              </g>
              <g id="house-9" data-name="house">
                <g id="bg-9" data-name="bg">
                  <rect class="cls-38" x="753.64" y="366.15" width="41.56" height="11.33"/>
                  <g>
                    <rect class="cls-21" x="628.96" y="377.49" width="124.68" height="287.14"/>
                    <rect class="cls-21" x="647.85" y="347.26" width="39.18" height="18.89"/>
                  </g>
                  <g>
                    <rect class="cls-22" x="753.64" y="377.49" width="34" height="287.14"/>
                    <rect class="cls-22" x="687.03" y="347.26" width="13.71" height="18.89"/>
                    <rect class="cls-22" x="621.41" y="366.15" width="132.24" height="11.33"/>
                  </g>
                </g>
                <g id="windows-9" data-name="windows" class="cls-23">
                  <rect class="cls-39" x="640.3" y="392.6" width="98.23" height="15.11"/>
                  <rect class="cls-39" x="640.3" y="422.82" width="98.23" height="15.11"/>
                  <rect class="cls-39" x="640.3" y="453.05" width="98.23" height="15.11"/>
                  <rect class="cls-39" x="640.3" y="483.27" width="98.23" height="15.11"/>
                  <rect class="cls-39" x="640.3" y="543.72" width="98.23" height="15.11"/>
                  <rect class="cls-39" x="640.3" y="573.95" width="98.23" height="15.11"/>
                  <rect class="cls-39" x="640.3" y="604.17" width="98.23" height="15.11"/>
                  <rect class="cls-39" x="640.3" y="634.4" width="98.23" height="15.11"/>
                  <rect class="cls-39" x="640.3" y="513.5" width="98.23" height="15.11"/>
                </g>
                <g id="light-9" data-name="light">
                  <polygon class="cls-6" points="753.64 366.15 621.41 366.15 621.41 377.49 622.79 367.56 753.64 366.15"/>
                  <polygon class="cls-6" points="687.03 347.26 647.85 347.26 647.85 364.52 649.79 349.17 687.03 347.26"/>
                  <polygon class="cls-6" points="628.96 377.49 628.96 620.05 631.24 377.49 628.96 377.49"/>
                </g>
                <g id="shadow-8" data-name="shadow" class="cls-15">
                  <rect class="cls-40" x="628.96" y="377.49" width="158.68" height="7.56"/>
                </g>
              </g>
              <g id="house-10" data-name="house">
                <g id="bg-10" data-name="bg">
                  <rect class="cls-41" x="523.17" y="441.71" width="98.23" height="222.91"/>
                  <rect class="cls-19" x="621.41" y="441.71" width="34" height="222.91"/>
                </g>
                <g id="windwos">
                  <rect class="cls-19" x="534.51" y="453.05" width="30.23" height="15.11"/>
                  <rect class="cls-19" x="572.29" y="453.05" width="15.11" height="15.11"/>
                  <rect class="cls-19" x="594.96" y="453.05" width="15.11" height="15.11"/>
                  <rect class="cls-19" x="534.51" y="479.5" width="30.23" height="15.11"/>
                  <rect class="cls-19" x="572.29" y="479.5" width="15.11" height="15.11"/>
                  <rect class="cls-19" x="594.96" y="479.5" width="15.11" height="15.11"/>
                  <rect class="cls-19" x="534.51" y="505.94" width="30.23" height="15.11"/>
                  <rect class="cls-19" x="572.29" y="505.94" width="15.11" height="15.11"/>
                  <rect class="cls-19" x="594.96" y="505.94" width="15.11" height="15.11"/>
                  <rect class="cls-19" x="534.51" y="532.39" width="30.23" height="15.11"/>
                  <rect class="cls-19" x="572.29" y="532.39" width="15.11" height="15.11"/>
                  <rect class="cls-19" x="594.96" y="532.39" width="15.11" height="15.11"/>
                  <rect class="cls-19" x="534.51" y="558.84" width="30.23" height="15.11"/>
                  <rect class="cls-19" x="572.29" y="558.84" width="15.11" height="15.11"/>
                  <rect class="cls-19" x="594.96" y="558.84" width="15.11" height="15.11"/>
                  <rect class="cls-19" x="534.51" y="585.28" width="30.23" height="15.11"/>
                  <rect class="cls-19" x="572.29" y="585.28" width="15.11" height="15.11"/>
                  <rect class="cls-19" x="594.96" y="585.28" width="15.11" height="15.11"/>
                  <rect class="cls-19" x="534.51" y="611.73" width="30.23" height="15.11"/>
                  <rect class="cls-19" x="572.29" y="611.73" width="15.11" height="15.11"/>
                  <rect class="cls-19" x="594.96" y="611.73" width="15.11" height="15.11"/>
                  <rect class="cls-19" x="534.51" y="638.18" width="30.23" height="15.11"/>
                  <rect class="cls-19" x="572.29" y="638.18" width="15.11" height="15.11"/>
                  <rect class="cls-19" x="594.96" y="638.18" width="15.11" height="15.11"/>
                </g>
                <polygon id="light-10" data-name="light" class="cls-6" points="621.41 441.71 523.17 441.71 523.17 637.53 525.26 443.43 621.41 441.71"/>
                <g id="shadow-9" data-name="shadow">
                  <polygon class="cls-31" points="655.41 475.72 655.41 664.63 719.64 664.63 719.64 528.61 655.41 475.72"/>
                  <polygon class="cls-31" points="523.17 441.71 523.17 664.63 587.4 664.63 557.18 460.61 526.95 441.71 523.17 441.71"/>
                </g>
              </g>
              <g id="house-11" data-name="house">
                <g id="bg-11" data-name="bg">
                  <polygon class="cls-9" points="662.97 566.39 662.97 577.73 670.52 577.73 670.52 664.63 761.2 664.63 761.2 577.73 761.2 566.39 662.97 566.39"/>
                  <polygon class="cls-10" points="761.2 566.39 761.2 577.73 761.2 664.63 795.2 664.63 795.2 577.73 798.98 577.73 798.98 566.39 761.2 566.39"/>
                </g>
                <g id="windows-10" data-name="windows" class="cls-23">
                  <rect class="cls-27" x="674.3" y="585.28" width="22.67" height="18.89"/>
                  <rect class="cls-27" x="704.53" y="585.28" width="22.67" height="18.89"/>
                  <rect class="cls-27" x="734.75" y="585.28" width="22.67" height="18.89"/>
                  <rect class="cls-27" x="674.3" y="611.73" width="22.67" height="18.89"/>
                  <rect class="cls-27" x="704.53" y="611.73" width="22.67" height="18.89"/>
                  <rect class="cls-27" x="734.75" y="611.73" width="22.67" height="18.89"/>
                  <rect class="cls-27" x="674.3" y="638.18" width="22.67" height="18.89"/>
                  <rect class="cls-27" x="704.53" y="638.18" width="22.67" height="18.89"/>
                  <rect class="cls-27" x="734.75" y="638.18" width="22.67" height="18.89"/>
                </g>
                <polygon id="light-11" data-name="light" class="cls-6" points="761.2 566.39 662.97 566.39 662.97 577.73 664.55 568.84 761.2 566.39"/>
                <g id="shadow-10" data-name="shadow">
                  <rect class="cls-35" x="670.52" y="577.73" width="124.68" height="3.78"/>
                  <polygon class="cls-35" points="662.97 566.39 693.19 566.39 696.97 577.73 708.3 577.73 730.97 664.63 670.52 664.63 670.52 577.73 662.97 577.73 662.97 566.39"/>
                </g>
              </g>
            </g>
          </g>
          <path class="cls-42" d="M386.79,521.7s194.66-35.5,329.87,25.38,233.45,110,233.45,110,133.57,47.42-81.23,7.5S386.79,521.7,386.79,521.7Z"/>
          <path class="cls-43" d="M29.92,571.33S208.77,499.83,453,538.65,720.61,656.91,870.16,655s181-164.63,698.81-127.59l225.35,46.06V790.34l-1819-27.06Z"/>
          <path class="cls-44" d="M879.89,676.56s115.86-13.52,174.37-43,138.14-98.25,280.83-113.74,281.27-7.89,319.19,15.29,42.51,225,42.51,225l-667.34-63.27Z"/>
          <path class="cls-45" d="M-34.51,502.28s267.75-32.84,591,183.65L618.11,732l-697.4-13.9S-107.22,533.48-34.51,502.28Z"/>
          <g id="meadow">
            <path id="bg_meadow" data-name="bg meadow" class="cls-46" d="M386.22,771.45H1449.49V682.3L701,673.89c-8.68-.18-72.82,1.17-81.48,1.72L386.22,682.3Z"/>
            <g id="light_meadow" data-name="light meadow">
              <path class="cls-47" d="M347.42,684.25s620.25-15.65,522.78-1.33-272.91,26.26-191.39,31,120.5,11.94-54.94,14.32-276.45-.95-276.45-.95Z"/>
              <path class="cls-48" d="M872.66,690.36c-21,4,99.23,7.79,120.5,1.95S913.41,682.57,872.66,690.36Z"/>
              <path class="cls-48" d="M1013.74,688.87c-9.45,2.19,21.27,5.76,26.58,2.88S1026.15,686,1013.74,688.87Z"/>
            </g>
          </g>
          <path class="cls-47" d="M927.79,706s-68.11-.5-45.3,8.6,59.51,6,59.51,6S948.75,710.28,927.79,706Z"/>
          <g>
            <g>
              <polygon class="cls-49" points="1509.09 628.01 1502.45 545.12 1486.72 545.72 1477.58 629.88 1509.09 628.01"/>
              <g class="cls-50">
                <polygon class="cls-49" points="1477.58 629.88 1486.72 545.72 1502.45 545.12 1505.7 585.86 1493.01 573.28 1486.44 623.21 1508.32 618.3 1509.09 628.01 1477.58 629.88"/>
              </g>
              <path class="cls-51" d="M1544.63,513.09s13.21,56.54,5.61,71-30.51-20.12-30.51-20.12.53,13.85-1,20.74-23.81-25.76-23.81-25.76-17.81,17.6-24.42,17-3.54-20.12-3.54-20.12-15.78,12-22.39,12.59-1.51-38.93,11.19-74.11c-10.63,10.07-1.51-36.4,12.19-67.8-17.26,23.87-20.31,25.13-13.7-3.12s26.92-76,26.92-76-16.77,15.05-19.31,11.92,20.31-47.72,20.31-47.72,9.69-37.67,21.36-37.67,32.49,62.8,33,87.9c0,6.9-13.78-18.2-13.78-18.2s30,74.72,29.52,119.93c-.52,5.67-12.22-16.94-12.22-16.94s12.22,44,14.21,74.11C1554.26,528.15,1544.63,513.09,1544.63,513.09Z"/>
              <g class="cls-50">
                <path class="cls-52" d="M1455.72,494.23c-10.63,10.07-1.51-36.4,12.19-67.8-17.26,23.87-20.31,25.13-13.7-3.12s26.92-76,26.92-76-16.77,15.05-19.31,11.92,20.31-47.72,20.31-47.72,9.69-37.67,21.36-37.67c7.23,0,18,24.25,25.3,48.62-3.12-7.16-17.32-39.29-23.53-38.59-7,.78-12.07,18.08-21,40.88s12.83,21.29,18.55,11.1c-3.81,20.45,8.7,11.87,17,1.65-5.68,28.29-22.14,36-29.16,22.59-5.71-11.76-17.3,28.2-26.06,48-8.24,17.27,14.06,11.8,24.88-1.56-2,22.8,12.88,9.22,16,6.11,3.84,30.62,18.79,10.46,18.79,10.46s-11.38,40-19.66,13.24c-10.16,24.39-19.93,9.36-20.57-7.15-19.1,54.23-11.35,74.6-1.17,55.74,3.81,19.64,16.42,22.22,22.81,1.75,1.26,24.4,17.89,39.79,24.9,4.41-2.57,37.71-20.78,45.86-27.81,24.65-12,23.59-24.19,9.55-24.19-6.17-20.95,42.43-28,47-12.75,36.06,0,0,0,40,28-1.58,16.51,32.21,18.4,27.48,20.33-3.14,21.42,25.92,30.62,35.11,38.39,26.39.13,7.12-.5,13.2-2.33,16.76-7.65,14.45-30.51-20.12-30.51-20.12s.53,13.85-1,20.74-23.81-25.76-23.81-25.76-17.81,17.6-24.42,17-3.54-20.12-3.54-20.12-15.78,12-22.39,12.59S1443,529.41,1455.72,494.23Z"/>
              </g>
            </g>
            <g>
              <polygon class="cls-49" points="1445.79 619.82 1440.54 559.27 1427.92 559.72 1420.64 621.22 1445.79 619.82"/>
              <g class="cls-50">
                <polygon class="cls-49" points="1420.64 621.22 1427.92 559.72 1440.54 559.27 1443.12 589.01 1432.97 579.86 1427.74 616.35 1445.15 612.74 1445.79 619.82 1420.64 621.22"/>
              </g>
              <path class="cls-44" d="M1474.17,535.89s10.54,41.27,4.46,51.82S1454.3,573,1454.3,573s.42,10.08-.82,15.15-19-18.8-19-18.8-14.22,12.84-19.47,12.37-2.86-14.67-2.86-14.67-12.55,8.7-17.83,9.15-1.22-28.44,8.92-54.13c-8.52,7.34-1.22-26.59,9.72-49.54-13.78,17.42-16.19,18.37-10.94-2.3s21.52-55.51,21.52-55.51-13.41,11-15.43,8.7,16.21-34.86,16.21-34.86,7.69-27.55,17-27.55,25.92,45.9,26.35,64.27c0,5-11-13.31-11-13.31s23.94,54.58,23.52,87.62c-.41,4.13-9.73-12.39-9.73-12.39s9.73,32.12,11.36,54.12C1481.88,546.89,1474.17,535.89,1474.17,535.89Z"/>
              <g class="cls-50">
                <path class="cls-52" d="M1403.21,522.1c-8.52,7.34-1.22-26.59,9.72-49.54-13.78,17.42-16.19,18.37-10.94-2.3s21.52-55.51,21.52-55.51-13.41,11-15.43,8.7,16.21-34.86,16.21-34.86,7.69-27.55,17-27.55c5.78,0,14.38,17.74,20.18,35.57-2.49-5.27-13.82-28.72-18.76-28.19-5.58.56-9.65,13.17-16.77,29.84s10.22,15.57,14.8,8.12c-3,14.93,7,8.66,13.54,1.19-4.55,20.69-17.69,26.26-23.26,16.52-4.56-8.6-13.86,20.6-20.79,35-6.63,12.66,11.19,8.65,19.81-1.12-1.52,16.66,10.32,6.74,12.85,4.46,3,22.39,15,7.65,15,7.65s-9.08,29.2-15.7,9.68c-8.11,17.81-15.87,6.82-16.39-5.23-15.24,39.61-9.08,54.49-.93,40.7,3,14.36,13.1,16.24,18.17,1.31,1,17.81,14.31,29,19.89,3.21-2,27.57-16.59,33.51-22.18,18-9.66,17.24-19.3,7-19.3-4.5-16.77,31-22.37,34.35-10.19,26.33,0,0,0,29.29,22.33-1.15,13.18,23.54,14.7,20.1,16.25-2.3,17.11,19,24.45,25.69,30.65,19.26.1,5.25-.41,9.7-1.88,12.28-6.07,10.54-24.33-14.68-24.33-14.68s.42,10.08-.82,15.15-19-18.8-19-18.8-14.22,12.84-19.47,12.37-2.86-14.67-2.86-14.67-12.55,8.7-17.83,9.15S1393.07,547.79,1403.21,522.1Z"/>
              </g>
            </g>
          </g>
          <g>
            <g>
              <path class="cls-53" d="M1359.39,729.45h353.18V653.56c-6.1-14.08-26-22.45-37.38-12.42,0,0,3.55-27.35-22.33-40.28s-44.41,8.79-44.41,8.79-8.49-33-40.56-15.85c-10.3-19.06-36.77-17.25-39.47,7.06,0,0-19.93-30.35-50.4-23.09s-30.87,37.08-30.87,37.08-.85-.63-2.38-1.54c-6.35-3.78-24.78-9.78-41.67,3.3-19.35,15-18.95,29.83-17.29,41.47.37,2.58.92,5.22,1.45,8,0,0-20.52-2.5-31.25,27.78A40.79,40.79,0,0,0,1359.39,729.45Z"/>
              <path class="cls-54" d="M1385.73,729.45h300.39a23.26,23.26,0,0,0-1.81-14.84c-7.59-16.75-26.92-14.39-26.92-14.39s19.16-19.83,7.31-33.16-28.13-2-28.13-2,16-25.2-1.57-38c-.74-.54-1.47-1-2.19-1.44-15.13-8.95-26.71,5.09-26.71,5.09S1603.31,617,1593.35,614c-11.19-3.45-17.81,8.1-17.81,8.1s-5.11-19-22.81-17.84c-24.54,1.56-25.89,20.87-25.89,20.87s-7.95-15.11-18.55-12.81c-9,1.94-8.88,17-8.88,17s-9.19-24.79-38.56-17.38h0a2.05,2.05,0,0,0-.65,0c-29.9,7.84-21.65,36.64-21.65,36.64s-13.43-8.34-23.4-2.44a15.48,15.48,0,0,0-4.58,4.14c-9.56,12.73,1,28.1,1.46,28.77-.74-.17-18.17-4.22-25.19,13.17C1380.87,706.87,1381.85,719.92,1385.73,729.45Z"/>
              <path class="cls-55" d="M1484.53,729.45h228V719.22c-6.87-5.77-16.27-4.7-16.27-4.7s14.76-14.63,5.57-24.51-21.74-1.55-21.74-1.55,12.28-18.62-1.29-28.11c-12.53-8.75-22.34,2.63-22.34,2.63s-2.17-10.16-9.88-12.45c-8.66-2.59-13.74,6-13.74,6s-4-14.05-17.67-13.26c-19,1.09-20,15.39-20,15.39s-3.11-9-9.53-9.79a7.85,7.85,0,0,0-2.58.11c-6.92,1.42-9.08,12.59-9.08,12.59s-18.38-14.83-25,9.58c-13.59-13.52-22,4.6-22,4.6s-14.09-8.39-21.62,1.23c-7.36,9.41.84,20.81,1.19,21.31-.57-.13-14-3.13-19.45,9.73A37.11,37.11,0,0,0,1484.53,729.45Z"/>
            </g>
            <g>
              <path class="cls-44" d="M344.61,708.56H-74V632.67c7.23-14.08,30.85-22.45,44.3-12.42,0,0-4.2-27.35,26.47-40.29s52.63,8.8,52.63,8.8,10.06-33,48.08-15.86c12.2-19,43.58-17.24,46.78,7.06,0,0,23.61-30.34,59.73-23.08S240.59,594,240.59,594s1-.63,2.81-1.54c7.54-3.79,29.38-9.78,49.4,3.3,22.93,15,22.46,29.83,20.49,41.47-.44,2.58-1.09,5.22-1.72,8,0,0,24.32-2.5,37,27.78C354.92,688,350.5,700.17,344.61,708.56Z"/>
              <path class="cls-56" d="M313.39,708.56h-356c-1.15-4.43-.74-9.43,2.16-14.84,9-16.76,31.9-14.39,31.9-14.39s-22.71-19.83-8.66-33.16,33.33-2,33.33-2-18.92-25.2,1.86-38c.88-.54,1.75-1,2.6-1.44,17.93-9,31.66,5.08,31.66,5.08s3.3-13.71,15.11-16.78c13.26-3.45,21.11,8.1,21.11,8.1s6-19,27-17.84c29.09,1.56,30.68,20.87,30.68,20.87s9.44-15.11,22-12.81c10.61,1.94,10.52,17,10.52,17s10.89-24.79,45.7-17.39h0a2.81,2.81,0,0,1,.76,0c35.45,7.84,25.67,36.64,25.67,36.64s15.91-8.34,27.73-2.44a17.66,17.66,0,0,1,5.43,4.14c11.32,12.73-1.19,28.1-1.74,28.77.89-.18,21.54-4.23,29.86,13.17C319.14,686,318,699,313.39,708.56Z"/>
              <path class="cls-57" d="M196.28,708.56H-74V698.33c8.14-5.77,19.28-4.7,19.28-4.7S-72.2,679-61.31,669.11s25.76-1.54,25.76-1.54S-50.1,649-34,639.46c14.85-8.76,26.47,2.63,26.47,2.63S-5,631.93,4.18,629.63c10.25-2.58,16.28,6,16.28,6A20.75,20.75,0,0,1,41.4,622.33c22.48,1.09,23.67,15.39,23.67,15.39s3.68-9,11.3-9.79a10.94,10.94,0,0,1,3,.11c8.21,1.41,10.76,12.58,10.76,12.58S112,625.8,119.82,650.2c16.11-13.52,26.08,4.61,26.08,4.61s16.7-8.39,25.63,1.23c8.72,9.41-1,20.81-1.42,21.31.69-.13,16.65-3.14,23,9.73C197.14,695.06,197.68,702.42,196.28,708.56Z"/>
            </g>
          </g>
          <g>
            <path class="cls-58" d="M180.67,437.24a115.9,115.9,0,0,0-17.09,8.12,121.66,121.66,0,0,0-34,29.2c-.23-9-.5-18-.94-27.06-.54-11.1-2.06-49.07-3.16-60.18-1.1,11.11-2.61,49.08-3.16,60.18q-.42,8.85-.68,17.69a85.27,85.27,0,0,0-18.59-21.93,80.09,80.09,0,0,0-10.76-7.62c-2.74-1.62-4.39-2.4-4.38-2.41s1.5,1,4,2.85a95.75,95.75,0,0,1,9.72,8.43,97.68,97.68,0,0,1,11.63,13.93,101.87,101.87,0,0,1,5.37,8.72c.84,1.54,1.64,3.1,2.39,4.7.14.3.29.61.43.92-.08,2.7-.14,5.38-.21,8.06q-.42,16.68-.59,33.35c-.1,11.11,0,14.3,0,18.08h9.64c0-2.81.13-7,0-18.08q-.17-15.45-.54-30.9c.45-.66.9-1.32,1.36-2,1.45-2.07,3-4.09,4.53-6a141.64,141.64,0,0,1,29.59-27.82,137.48,137.48,0,0,1,15.8-9.51c4-2,6.33-3,6.33-3S184.93,435.63,180.67,437.24Z"/>
            <g>
              <path class="cls-59" d="M192.29,350.09a61,61,0,1,1-61-61A61,61,0,0,1,192.29,350.09Z"/>
              <path class="cls-60" d="M81.25,363.57a61,61,0,0,1,102.36-44.85A61,61,0,1,0,89.94,395,60.63,60.63,0,0,1,81.25,363.57Z"/>
              <path class="cls-60" d="M151.36,317.25a4.31,4.31,0,1,1-4.31-4.3A4.31,4.31,0,0,1,151.36,317.25Z"/>
              <path class="cls-59" d="M157.52,395.77a59.61,59.61,0,1,1-59.6-59.61A59.59,59.59,0,0,1,157.52,395.77Z"/>
              <path class="cls-61" d="M133.08,347.64A59.61,59.61,0,0,1,52,433.74a59.61,59.61,0,1,0,81.11-86.1Z"/>
              <path class="cls-59" d="M228.33,399.21a53.78,53.78,0,1,1-53.77-53.77A53.77,53.77,0,0,1,228.33,399.21Z"/>
              <path class="cls-61" d="M208.05,357.15a53.76,53.76,0,0,1-80.19,68.71,53.77,53.77,0,1,0,80.19-68.71Z"/>
              <path class="cls-44" d="M173.12,385.26a14.5,14.5,0,0,1-21.64,18.53,14.5,14.5,0,1,0,21.64-18.53Z"/>
              <path class="cls-60" d="M49,408.93A59.6,59.6,0,0,1,149,365.1a59.61,59.61,0,1,0-91.52,74.48A59.34,59.34,0,0,1,49,408.93Z"/>
              <path class="cls-60" d="M79.21,404.66a8.91,8.91,0,1,1-8.92-8.9A8.91,8.91,0,0,1,79.21,404.66Z"/>
              <path class="cls-60" d="M83.51,385.59a4.31,4.31,0,1,1-4.3-4.31A4.29,4.29,0,0,1,83.51,385.59Z"/>
              <path class="cls-60" d="M173.65,357a4.31,4.31,0,1,1-4.31-4.31A4.3,4.3,0,0,1,173.65,357Z"/>
              <path class="cls-60" d="M186.71,365.57a4.31,4.31,0,1,1-4.31-4.32A4.31,4.31,0,0,1,186.71,365.57Z"/>
              <path class="cls-59" d="M73.78,408.29A2.33,2.33,0,1,1,71.46,406,2.32,2.32,0,0,1,73.78,408.29Z"/>
            </g>
          </g>
          <path class="cls-56" d="M160.82,534a2.3,2.3,0,0,0-2.39-2.24c-2.45-.24-3.11.84-4,1.9-5.13-9.39-13.85-6.59-15.37-.65-2.23-10.17-4.85-6.35-3.91-.16-3-2.19-6.48-2.37-7.14.28-8.18-9.9-20.43-4.5-19.23-.16-4.1-2-5.37-.74-5.73.43-7.84-6.09-7.73-2.23-5.45-.23-3-.54-5.1-.22-3.74.83Z"/>
          <g>
            <g>
              <path class="cls-62" d="M600.55,747.16s1.25-13.83-2.28-14.53-4,5.72-5.17,9.43c2.41-25.4-8.47-14.94-9.14-.13-5.3-35.24-9.22-28.21-5.28-.29-4.9-6.6-7.61-5.48-7.68-.42-5.42-19.66-14.55-16-14.47.3-3.24-9.95-7.12-5.63-7.72.13-3.66-5.09-6.07-3-5.62,1.32-14.91-26.37-13.39-5.13-6.79,4.19Z"/>
              <path class="cls-62" d="M494.07,747.16c-3.31-11,6.39-12.56,8.81-5.19.88-26.05,5.59-18.73,4.61,2.66,4.17-8.13,7.48-7.16,8.61-.82,8.91-18.87,15.9-15.8,16,0,2.71-10.13,6.36-8.6,8.38-5.63s2,9,2,9Z"/>
              <path class="cls-63" d="M580.75,747.16a2.33,2.33,0,0,0-2.4-2.25c-2.44-.23-3.11.85-4,1.91-5.14-9.39-13.85-6.59-15.37-.66-2.23-10.16-4.85-6.34-3.91-.16-3-2.18-6.49-2.36-7.15.29-8.17-9.9-20.42-4.51-19.22-.16-4.1-2-5.37-.74-5.73.42-7.85-6.08-7.74-2.22-5.46-.22-3-.55-5.1-.22-3.73.83Z"/>
              <path class="cls-63" d="M314.56,747.16a2.31,2.31,0,0,0-2.39-2.25c-2.45-.23-3.11.85-4,1.91-5.13-9.39-13.85-6.59-15.37-.66-2.23-10.16-4.85-6.34-3.91-.16-3-2.18-6.48-2.36-7.14.29-8.18-9.9-20.43-4.51-19.23-.16-4.1-2-5.37-.74-5.72.42-7.85-6.08-7.74-2.22-5.46-.22-3-.55-5.1-.22-3.74.83Z"/>
            </g>
            <g>
              <path class="cls-62" d="M1458.55,748.36s1.46-13.83-2.68-14.53-4.7,5.72-6,9.43c2.82-25.39-9.93-14.94-10.72-.13-6.2-35.23-10.8-28.2-6.19-.29-5.73-6.6-8.91-5.48-9-.42-6.34-19.66-17.05-16-17,.3-3.8-10-8.34-5.63-9,.13-4.29-5.09-7.12-3.05-6.59,1.32-17.47-26.36-15.69-5.13-8,4.19Z"/>
              <path class="cls-62" d="M1333.77,748.36c-3.89-11,7.49-12.56,10.32-5.19,1-26,6.55-18.73,5.4,2.67,4.9-8.14,8.77-7.17,10.1-.82,10.43-18.88,18.63-15.81,18.78,0,3.17-10.12,7.45-8.6,9.82-5.63s2.36,9,2.36,9Z"/>
              <path class="cls-62" d="M1019.79,746.89c-3.88-8.92,7.49-10.21,10.32-4.22,1-21.17,6.56-15.22,5.41,2.17,4.89-6.61,8.76-5.82,10.09-.67,10.44-15.34,18.63-12.85,18.78,0,3.17-8.23,7.45-7,9.82-4.58s2.37,7.28,2.37,7.28Z"/>
              <path class="cls-63" d="M1435.34,748.36s.07-2-2.8-2.24a4.61,4.61,0,0,0-4.64,1.9c-6-9.39-16.23-6.59-18-.66-2.61-10.16-5.68-6.34-4.58-.16-3.53-2.18-7.6-2.36-8.38.29-9.57-9.9-23.93-4.5-22.52-.16-4.81-2-6.29-.74-6.71.42-9.2-6.08-9.07-2.22-6.4-.22-3.47-.55-6-.22-4.38.83Z"/>
            </g>
          </g>
          <rect class="cls-64" x="-44.45" y="-10.72" width="1717.71" height="946.29"/>
          <rect class="cls-43" x="-32.86" y="757.57" width="1783.29" height="176.14"/>
        </g>
      </g>
    </g>
  </g>
</svg>
