<svg xmlns="http://www.w3.org/2000/svg" viewBox="0 0 130 130"><defs><style>.a{fill:#fff;}.b{fill:#f99573;}.c{fill:#cc1b1b;}.d{fill:#f4413d;}.e{fill:#d8d8d8;}.f{fill:#fbfcfa;}</style></defs><circle class="a" cx="65" cy="65" r="65"/><circle class="b" cx="65" cy="65" r="58.23"/><circle class="c" cx="62.99" cy="67.01" r="56.22"/><circle class="d" cx="64.17" cy="65.83" r="55.04"/><path class="e" d="M87.68,63.55C86.31,60.24,78.81,53.64,69,47.28c-9.28-6-17.89-10-21.86-10.32h-.85a4.85,4.85,0,0,0-3.1,8.31l3.25,2c9.87,6.36,17.36,13,18.74,16.27a5.9,5.9,0,0,1-.86,6.58C61.73,73.69,55,79.4,46.39,84.92c-1.09.71-2.18,1.39-3.26,2a4.85,4.85,0,0,0,3,8.29H47c4-.34,12.6-4.33,21.91-10.33,8.56-5.52,15.34-11.23,17.88-14.8a5.91,5.91,0,0,0,1.49-3.92A5.75,5.75,0,0,0,87.68,63.55Z"/><path class="f" d="M87.68,61.37C86.31,58.07,78.81,51.46,69,45.1c-9.28-6-17.89-10-21.86-10.32h-.85a4.85,4.85,0,0,0-3.1,8.31l3.25,2c9.87,6.36,17.36,13,18.74,16.27A6,6,0,0,1,65.76,64,5.92,5.92,0,0,1,64.27,68c-2.54,3.57-9.31,9.28-17.88,14.8-1.09.7-2.18,1.38-3.26,2a4.85,4.85,0,0,0,3,8.3H47c4-.33,12.6-4.32,21.91-10.32,8.56-5.52,15.34-11.23,17.88-14.8A5.92,5.92,0,0,0,88.25,64,5.83,5.83,0,0,0,87.68,61.37Z"/></svg>