<svg id="Layer_1" data-name="Layer 1" xmlns="http://www.w3.org/2000/svg" width="250" height="50" viewBox="0 0 250 50">
  <defs>
    <style>
      .cls-1 {
        fill: #7f4317;
      }

      .cls-2 {
        fill: #c15d1a;
      }
    </style>
  </defs>
  <g>
    <rect class="cls-1" x="12.09" y="2.47" width="225.81" height="45.06" rx="18.85"/>
    <g>
      <path class="cls-2" d="M61.11,20.91a.52.52,0,0,0-.11-.19l0,0a.79.79,0,0,0-.17-.14l0,0a2,2,0,0,0-.29-.16h0l-.35-.13-.06,0c-2.79-.86-10-.52-11.19-1.44-1.5-1.12-3.76-11.1-5.62-11.12s-4.33,9.92-5.86,11-11.72.14-12.31,1.91,8.09,7.19,8.65,9c.31,1-.8,4.34-1.59,7.31h0a18.24,18.24,0,0,0-.72,3.92h0c0,.09,0,.18,0,.27v0a1.46,1.46,0,0,0,0,.22v0a.84.84,0,0,0,0,.17s0,0,0,0a.75.75,0,0,0,.09.15h0a.53.53,0,0,0,.13.13c1.5,1.12,9.33-5.48,11.2-5.46,1.71,0,8.28,5.66,10.56,5.8A.79.79,0,0,0,54,42C55.53,41,51.68,31.47,52.28,29.7c.38-1.14,4.14-3.7,6.64-5.86,1.27-1.1,2.22-2.1,2.22-2.75A.57.57,0,0,0,61.11,20.91Z"/>
      <path class="cls-2" d="M102.07,20.91a.52.52,0,0,0-.11-.19l0,0a.79.79,0,0,0-.17-.14l0,0a2,2,0,0,0-.29-.16h0l-.35-.13-.06,0c-2.79-.86-9.95-.52-11.19-1.44-1.5-1.12-3.75-11.1-5.62-11.12s-4.33,9.92-5.86,11S66.6,18.77,66,20.54s8.09,7.19,8.65,9c.31,1-.8,4.34-1.59,7.31h0a18.24,18.24,0,0,0-.72,3.92h0c0,.09,0,.18,0,.27v0l0,.22v0a.84.84,0,0,0,0,.17.06.06,0,0,1,0,0l.09.15h0a.37.37,0,0,0,.12.13c1.5,1.12,9.33-5.48,11.2-5.46,1.71,0,8.28,5.66,10.56,5.8A.79.79,0,0,0,95,42C96.49,41,92.64,31.47,93.24,29.7c.38-1.14,4.14-3.7,6.64-5.86,1.27-1.1,2.22-2.1,2.22-2.75A.57.57,0,0,0,102.07,20.91Z"/>
      <path class="cls-2" d="M143,20.91a.52.52,0,0,0-.11-.19l0,0a.79.79,0,0,0-.17-.14l0,0a2,2,0,0,0-.29-.16h0a2.34,2.34,0,0,0-.35-.13l-.06,0c-2.79-.86-9.95-.52-11.19-1.44-1.5-1.12-3.75-11.1-5.62-11.12s-4.33,9.92-5.86,11-11.71.14-12.31,1.91,8.09,7.19,8.65,9c.32,1-.8,4.34-1.59,7.31h0a17.75,17.75,0,0,0-.73,3.92h0a2.45,2.45,0,0,0,0,.27v0l0,.22v0a.84.84,0,0,0,0,.17.06.06,0,0,1,0,0l.09.15h0a.37.37,0,0,0,.12.13c1.5,1.12,9.33-5.48,11.2-5.46,1.71,0,8.28,5.66,10.56,5.8a.79.79,0,0,0,.53-.11c1.52-1.08-2.33-10.57-1.73-12.34.38-1.14,4.14-3.7,6.64-5.86,1.27-1.1,2.22-2.1,2.22-2.75A.57.57,0,0,0,143,20.91Z"/>
      <path class="cls-2" d="M184,20.91a.76.76,0,0,0-.12-.19l0,0a.79.79,0,0,0-.17-.14l0,0a1.57,1.57,0,0,0-.29-.16h0a2.34,2.34,0,0,0-.35-.13l-.06,0c-2.79-.86-9.95-.52-11.19-1.44-1.5-1.12-3.75-11.1-5.62-11.12s-4.33,9.92-5.86,11-11.71.14-12.31,1.91,8.1,7.19,8.65,9c.32,1-.8,4.34-1.59,7.31h0a17.75,17.75,0,0,0-.73,3.92h0a2.45,2.45,0,0,0,0,.27v0l0,.22v0a.84.84,0,0,0,.05.17l0,0a.71.71,0,0,0,.08.15h0a.37.37,0,0,0,.12.13c1.5,1.12,9.33-5.48,11.2-5.46,1.71,0,8.29,5.66,10.57,5.8a.78.78,0,0,0,.52-.11c1.52-1.08-2.33-10.57-1.73-12.34.38-1.14,4.14-3.7,6.64-5.86,1.27-1.1,2.22-2.1,2.22-2.75A1.1,1.1,0,0,0,184,20.91Z"/>
      <path class="cls-2" d="M225,20.91a.76.76,0,0,0-.12-.19l0,0a.79.79,0,0,0-.17-.14l0,0a1.57,1.57,0,0,0-.29-.16h0a2.34,2.34,0,0,0-.35-.13l-.06,0c-2.79-.86-10-.52-11.19-1.44-1.5-1.12-3.75-11.1-5.62-11.12s-4.33,9.92-5.85,11-11.72.14-12.32,1.91,8.1,7.19,8.66,9c.31,1-.81,4.34-1.6,7.31h0a17.75,17.75,0,0,0-.73,3.92h0c0,.09,0,.18,0,.27v0l0,.22v0c0,.06,0,.12.05.17l0,0a.71.71,0,0,0,.08.15h0a.37.37,0,0,0,.12.13c1.5,1.12,9.33-5.48,11.2-5.46,1.71,0,8.29,5.66,10.57,5.8a.78.78,0,0,0,.52-.11c1.52-1.08-2.33-10.57-1.73-12.34.38-1.14,4.14-3.7,6.64-5.86,1.27-1.1,2.22-2.1,2.22-2.75A1.1,1.1,0,0,0,225,20.91Z"/>
    </g>
  </g>
</svg>
