<svg xmlns="http://www.w3.org/2000/svg" xmlns:xlink="http://www.w3.org/1999/xlink" width="1600" height="900" viewBox="0 0 1600 900">
  <defs>
    <style>
      .cls-1 {
        fill: none;
      }

      .cls-2 {
        isolation: isolate;
      }

      .cls-3 {
        clip-path: url(#clip-path);
      }

      .cls-4 {
        fill: url(#Áåçûìÿííûé_ãðàäèåíò_523);
      }

      .cls-5 {
        fill: url(#Áåçûìÿííûé_ãðàäèåíò_518);
      }

      .cls-6 {
        fill: #f6dbaa;
      }

      .cls-7 {
        fill: #efc899;
      }

      .cls-8 {
        fill: #c3bbb8;
      }

      .cls-9 {
        fill: #a97769;
      }

      .cls-10 {
        fill: #965543;
      }

      .cls-11 {
        fill: #ec8d64;
      }

      .cls-12 {
        fill: url(#Áåçûìÿííûé_ãðàäèåíò_516);
      }

      .cls-13 {
        fill: url(#Áåçûìÿííûé_ãðàäèåíò_516-2);
      }

      .cls-14 {
        fill: #6e4a3f;
      }

      .cls-15 {
        fill: #e6c8ba;
        mix-blend-mode: multiply;
      }

      .cls-16 {
        fill: #9c6a5c;
      }

      .cls-17 {
        fill: #feeed9;
      }

      .cls-18 {
        fill: #fff5d0;
      }

      .cls-19 {
        fill: url(#Áåçûìÿííûé_ãðàäèåíò_518-2);
      }

      .cls-20 {
        fill: url(#Áåçûìÿííûé_ãðàäèåíò_518-3);
      }

      .cls-21 {
        fill: url(#Áåçûìÿííûé_ãðàäèåíò_518-4);
      }

      .cls-22 {
        fill: url(#Áåçûìÿííûé_ãðàäèåíò_518-5);
      }

      .cls-23 {
        fill: url(#Áåçûìÿííûé_ãðàäèåíò_518-6);
      }

      .cls-24 {
        fill: url(#Áåçûìÿííûé_ãðàäèåíò_518-7);
      }

      .cls-25 {
        fill: url(#Áåçûìÿííûé_ãðàäèåíò_518-8);
      }

      .cls-26 {
        fill: url(#Áåçûìÿííûé_ãðàäèåíò_518-9);
      }

      .cls-27 {
        fill: url(#Áåçûìÿííûé_ãðàäèåíò_518-10);
      }

      .cls-28 {
        fill: url(#Áåçûìÿííûé_ãðàäèåíò_518-11);
      }

      .cls-29 {
        fill: url(#Áåçûìÿííûé_ãðàäèåíò_518-12);
      }

      .cls-30 {
        fill: url(#Áåçûìÿííûé_ãðàäèåíò_518-13);
      }

      .cls-31 {
        fill: url(#Áåçûìÿííûé_ãðàäèåíò_518-14);
      }

      .cls-32 {
        fill: url(#Áåçûìÿííûé_ãðàäèåíò_518-15);
      }

      .cls-33 {
        fill: url(#Áåçûìÿííûé_ãðàäèåíò_518-16);
      }

      .cls-34 {
        fill: url(#Áåçûìÿííûé_ãðàäèåíò_518-17);
      }

      .cls-35 {
        fill: url(#Áåçûìÿííûé_ãðàäèåíò_518-18);
      }

      .cls-36 {
        fill: url(#Áåçûìÿííûé_ãðàäèåíò_515);
      }

      .cls-37 {
        fill: #376b76;
      }

      .cls-38 {
        fill: url(#Áåçûìÿííûé_ãðàäèåíò_515-2);
      }

      .cls-39 {
        fill: url(#Áåçûìÿííûé_ãðàäèåíò_515-3);
      }

      .cls-40, .cls-44, .cls-50, .cls-51, .cls-59, .cls-62 {
        mix-blend-mode: screen;
      }

      .cls-40 {
        fill: url(#Áåçûìÿííûé_ãðàäèåíò_514);
      }

      .cls-41 {
        fill: url(#Áåçûìÿííûé_ãðàäèåíò_515-4);
      }

      .cls-42 {
        fill: url(#Áåçûìÿííûé_ãðàäèåíò_515-5);
      }

      .cls-43 {
        fill: url(#Áåçûìÿííûé_ãðàäèåíò_515-6);
      }

      .cls-44 {
        fill: url(#Áåçûìÿííûé_ãðàäèåíò_514-2);
      }

      .cls-45 {
        fill: url(#Áåçûìÿííûé_ãðàäèåíò_517);
      }

      .cls-46 {
        fill: url(#linear-gradient);
      }

      .cls-47 {
        fill: url(#Áåçûìÿííûé_ãðàäèåíò_515-7);
      }

      .cls-48 {
        fill: url(#Áåçûìÿííûé_ãðàäèåíò_515-8);
      }

      .cls-49 {
        fill: url(#Áåçûìÿííûé_ãðàäèåíò_515-9);
      }

      .cls-50 {
        fill: url(#Áåçûìÿííûé_ãðàäèåíò_514-3);
      }

      .cls-51 {
        fill: #d9e9b4;
      }

      .cls-52 {
        fill: #c07962;
      }

      .cls-53 {
        fill: #9e5747;
      }

      .cls-54 {
        fill: url(#Áåçûìÿííûé_ãðàäèåíò_517-2);
      }

      .cls-55 {
        fill: url(#linear-gradient-2);
      }

      .cls-56 {
        fill: url(#Áåçûìÿííûé_ãðàäèåíò_515-10);
      }

      .cls-57 {
        fill: url(#Áåçûìÿííûé_ãðàäèåíò_515-11);
      }

      .cls-58 {
        fill: url(#Áåçûìÿííûé_ãðàäèåíò_515-12);
      }

      .cls-59 {
        fill: url(#Áåçûìÿííûé_ãðàäèåíò_514-4);
      }

      .cls-60 {
        fill: #587678;
      }

      .cls-61 {
        fill: url(#Áåçûìÿííûé_ãðàäèåíò_507);
      }

      .cls-62 {
        fill: #565348;
      }

      .cls-63 {
        fill: url(#Áåçûìÿííûé_ãðàäèåíò_510);
      }

      .cls-64 {
        fill: url(#Áåçûìÿííûé_ãðàäèåíò_509);
      }

      .cls-65 {
        fill: url(#Áåçûìÿííûé_ãðàäèåíò_509-2);
      }

      .cls-66 {
        fill: url(#Áåçûìÿííûé_ãðàäèåíò_507-2);
      }

      .cls-67 {
        fill: #f58d39;
      }

      .cls-68 {
        fill: #c46d32;
      }

      .cls-69 {
        fill: url(#Áåçûìÿííûé_ãðàäèåíò_511);
      }

      .cls-70 {
        fill: url(#Áåçûìÿííûé_ãðàäèåíò_511-2);
      }

      .cls-71 {
        fill: url(#Áåçûìÿííûé_ãðàäèåíò_511-3);
      }

      .cls-72 {
        fill: url(#Áåçûìÿííûé_ãðàäèåíò_511-4);
      }

      .cls-73 {
        fill: url(#Áåçûìÿííûé_ãðàäèåíò_511-5);
      }

      .cls-74 {
        fill: url(#Áåçûìÿííûé_ãðàäèåíò_511-6);
      }

      .cls-75 {
        fill: url(#Áåçûìÿííûé_ãðàäèåíò_511-7);
      }

      .cls-76 {
        fill: url(#Áåçûìÿííûé_ãðàäèåíò_511-8);
      }

      .cls-77 {
        fill: #f6d497;
      }

      .cls-78 {
        fill: #5d999d;
      }

      .cls-79 {
        fill: #426f7b;
      }
    </style>
    <clipPath id="clip-path">
      <rect class="cls-1" width="1600" height="900"/>
    </clipPath>
    <linearGradient id="Áåçûìÿííûé_ãðàäèåíò_523" data-name="Áåçûìÿííûé ãðàäèåíò 523" x1="807.28" y1="545.72" x2="807.28" y2="928.09" gradientUnits="userSpaceOnUse">
      <stop offset="0" stop-color="#ade2c4"/>
      <stop offset="1" stop-color="#67c6ad"/>
    </linearGradient>
    <linearGradient id="Áåçûìÿííûé_ãðàäèåíò_518" data-name="Áåçûìÿííûé ãðàäèåíò 518" x1="807.21" y1="500.93" x2="807.21" y2="923.46" gradientUnits="userSpaceOnUse">
      <stop offset="0" stop-color="#9bdbb6"/>
      <stop offset="1" stop-color="#52b89b"/>
    </linearGradient>
    <linearGradient id="Áåçûìÿííûé_ãðàäèåíò_516" data-name="Áåçûìÿííûé ãðàäèåíò 516" x1="746.65" y1="559.86" x2="746.65" y2="383.92" gradientUnits="userSpaceOnUse">
      <stop offset="0" stop-color="#fff6bd"/>
      <stop offset="1" stop-color="#a2f5cf"/>
    </linearGradient>
    <linearGradient id="Áåçûìÿííûé_ãðàäèåíò_516-2" x1="879.94" y1="558.59" x2="879.94" y2="382.65" xlink:href="#Áåçûìÿííûé_ãðàäèåíò_516"/>
    <linearGradient id="Áåçûìÿííûé_ãðàäèåíò_518-2" x1="606.89" y1="578.06" x2="606.89" y2="990.64" xlink:href="#Áåçûìÿííûé_ãðàäèåíò_518"/>
    <linearGradient id="Áåçûìÿííûé_ãðàäèåíò_518-3" x1="677.94" y1="578.06" x2="677.94" y2="990.64" xlink:href="#Áåçûìÿííûé_ãðàäèåíò_518"/>
    <linearGradient id="Áåçûìÿííûé_ãðàäèåíò_518-4" x1="423.69" y1="578.06" x2="423.69" y2="990.64" xlink:href="#Áåçûìÿííûé_ãðàäèåíò_518"/>
    <linearGradient id="Áåçûìÿííûé_ãðàäèåíò_518-5" x1="475.73" y1="578.06" x2="475.73" y2="990.64" xlink:href="#Áåçûìÿííûé_ãðàäèåíò_518"/>
    <linearGradient id="Áåçûìÿííûé_ãðàäèåíò_518-6" x1="148.74" y1="578.06" x2="148.74" y2="990.64" xlink:href="#Áåçûìÿííûé_ãðàäèåíò_518"/>
    <linearGradient id="Áåçûìÿííûé_ãðàäèåíò_518-7" x1="406.33" y1="578.06" x2="406.33" y2="990.64" xlink:href="#Áåçûìÿííûé_ãðàäèåíò_518"/>
    <linearGradient id="Áåçûìÿííûé_ãðàäèåíò_518-8" x1="812.7" y1="578.06" x2="812.7" y2="990.64" xlink:href="#Áåçûìÿííûé_ãðàäèåíò_518"/>
    <linearGradient id="Áåçûìÿííûé_ãðàäèåíò_518-9" x1="897.81" y1="578.06" x2="897.81" y2="990.64" xlink:href="#Áåçûìÿííûé_ãðàäèåíò_518"/>
    <linearGradient id="Áåçûìÿííûé_ãðàäèåíò_518-10" x1="1018.51" y1="578.06" x2="1018.51" y2="990.64" xlink:href="#Áåçûìÿííûé_ãðàäèåíò_518"/>
    <linearGradient id="Áåçûìÿííûé_ãðàäèåíò_518-11" x1="564.51" y1="578.06" x2="564.51" y2="990.64" xlink:href="#Áåçûìÿííûé_ãðàäèåíò_518"/>
    <linearGradient id="Áåçûìÿííûé_ãðàäèåíò_518-12" x1="675.56" y1="578.06" x2="675.56" y2="990.64" xlink:href="#Áåçûìÿííûé_ãðàäèåíò_518"/>
    <linearGradient id="Áåçûìÿííûé_ãðàäèåíò_518-13" x1="812.7" y1="578.06" x2="812.7" y2="990.64" xlink:href="#Áåçûìÿííûé_ãðàäèåíò_518"/>
    <linearGradient id="Áåçûìÿííûé_ãðàäèåíò_518-14" x1="1201.71" y1="578.06" x2="1201.71" y2="990.64" xlink:href="#Áåçûìÿííûé_ãðàäèåíò_518"/>
    <linearGradient id="Áåçûìÿííûé_ãðàäèåíò_518-15" x1="1149.68" y1="578.06" x2="1149.68" y2="990.64" xlink:href="#Áåçûìÿííûé_ãðàäèåíò_518"/>
    <linearGradient id="Áåçûìÿííûé_ãðàäèåíò_518-16" x1="541.6" y1="578.06" x2="541.6" y2="990.64" xlink:href="#Áåçûìÿííûé_ãðàäèåíò_518"/>
    <linearGradient id="Áåçûìÿííûé_ãðàäèåíò_518-17" x1="646.56" y1="578.06" x2="646.56" y2="990.64" xlink:href="#Áåçûìÿííûé_ãðàäèåíò_518"/>
    <linearGradient id="Áåçûìÿííûé_ãðàäèåíò_518-18" x1="1142.46" y1="578.06" x2="1142.46" y2="990.64" xlink:href="#Áåçûìÿííûé_ãðàäèåíò_518"/>
    <linearGradient id="Áåçûìÿííûé_ãðàäèåíò_515" data-name="Áåçûìÿííûé ãðàäèåíò 515" x1="772.67" y1="462.94" x2="772.73" y2="459.65" gradientTransform="translate(26.47)" gradientUnits="userSpaceOnUse">
      <stop offset="0" stop-color="#afe2b1"/>
      <stop offset="0.07" stop-color="#91ccac"/>
      <stop offset="0.16" stop-color="#73b6a6"/>
      <stop offset="0.25" stop-color="#5da7a2"/>
      <stop offset="0.33" stop-color="#509da0"/>
      <stop offset="0.41" stop-color="#4c9a9f"/>
      <stop offset="0.51" stop-color="#57a2a1"/>
      <stop offset="0.7" stop-color="#73b6a6"/>
      <stop offset="0.93" stop-color="#a1d8ae"/>
      <stop offset="1" stop-color="#afe2b1"/>
    </linearGradient>
    <linearGradient id="Áåçûìÿííûé_ãðàäèåíò_515-2" x1="772.67" y1="493.76" x2="772.73" y2="490.46" xlink:href="#Áåçûìÿííûé_ãðàäèåíò_515"/>
    <linearGradient id="Áåçûìÿííûé_ãðàäèåíò_515-3" x1="775.93" y1="458.71" x2="775.93" y2="494.71" xlink:href="#Áåçûìÿííûé_ãðàäèåíò_515"/>
    <linearGradient id="Áåçûìÿííûé_ãðàäèåíò_514" data-name="Áåçûìÿííûé ãðàäèåíò 514" x1="776.38" y1="450.13" x2="775.66" y2="500.35" gradientTransform="translate(26.47)" gradientUnits="userSpaceOnUse">
      <stop offset="0"/>
      <stop offset="0.39" stop-color="#9cc488"/>
      <stop offset="0.81" stop-color="#313e2b"/>
      <stop offset="1"/>
    </linearGradient>
    <linearGradient id="Áåçûìÿííûé_ãðàäèåíò_515-4" x1="801.1" y1="462.69" x2="801.15" y2="459.4" xlink:href="#Áåçûìÿííûé_ãðàäèåíò_515"/>
    <linearGradient id="Áåçûìÿííûé_ãðàäèåíò_515-5" x1="801.1" y1="493.51" x2="801.15" y2="490.21" xlink:href="#Áåçûìÿííûé_ãðàäèåíò_515"/>
    <linearGradient id="Áåçûìÿííûé_ãðàäèåíò_515-6" x1="804.36" y1="458.46" x2="804.36" y2="494.46" xlink:href="#Áåçûìÿííûé_ãðàäèåíò_515"/>
    <linearGradient id="Áåçûìÿííûé_ãðàäèåíò_514-2" x1="804.81" y1="449.88" x2="804.09" y2="500.1" xlink:href="#Áåçûìÿííûé_ãðàäèåíò_514"/>
    <linearGradient id="Áåçûìÿííûé_ãðàäèåíò_517" data-name="Áåçûìÿííûé ãðàäèåíò 517" x1="1070.42" y1="478.87" x2="1756.94" y2="478.87" gradientUnits="userSpaceOnUse">
      <stop offset="0" stop-color="#91ecb4"/>
      <stop offset="0.51" stop-color="#50d6b3"/>
      <stop offset="1" stop-color="#32a997"/>
    </linearGradient>
    <linearGradient id="linear-gradient" x1="1186.24" y1="684.1" x2="1178.03" y2="338.6" gradientUnits="userSpaceOnUse">
      <stop offset="0.01" stop-color="#fff6bd"/>
      <stop offset="0.06" stop-color="#f5f6bf"/>
      <stop offset="0.21" stop-color="#d7f6c5"/>
      <stop offset="0.38" stop-color="#c0f5c9"/>
      <stop offset="0.56" stop-color="#aff5cc"/>
      <stop offset="0.75" stop-color="#a5f5ce"/>
      <stop offset="1" stop-color="#a2f5cf"/>
    </linearGradient>
    <linearGradient id="Áåçûìÿííûé_ãðàäèåíò_515-7" x1="6727.27" y1="661.12" x2="6727.35" y2="656.26" gradientTransform="matrix(-1.18, -0.04, -0.03, 1, 9120.63, 110.12)" xlink:href="#Áåçûìÿííûé_ãðàäèåíò_515"/>
    <linearGradient id="Áåçûìÿííûé_ãðàäèåíò_515-8" x1="6727.19" y1="706.6" x2="6727.27" y2="701.75" gradientTransform="matrix(-1.18, -0.04, -0.03, 1, 9120.63, 110.12)" xlink:href="#Áåçûìÿííûé_ãðàäèåíò_515"/>
    <linearGradient id="Áåçûìÿííûé_ãðàäèåíò_515-9" x1="6731.78" y1="654.87" x2="6731.78" y2="708" gradientTransform="matrix(-1.18, -0.04, -0.03, 1, 9120.63, 110.12)" xlink:href="#Áåçûìÿííûé_ãðàäèåíò_515"/>
    <linearGradient id="Áåçûìÿííûé_ãðàäèåíò_514-3" x1="6732.46" y1="642.2" x2="6731.4" y2="716.33" gradientTransform="matrix(-1.18, -0.04, -0.03, 1, 9120.63, 110.12)" xlink:href="#Áåçûìÿííûé_ãðàäèåíò_514"/>
    <linearGradient id="Áåçûìÿííûé_ãðàäèåíò_517-2" x1="7870.73" y1="472.49" x2="8561.91" y2="472.49" gradientTransform="matrix(-1, 0, 0, 1, 8433.75, 0)" xlink:href="#Áåçûìÿííûé_ãðàäèåíò_517"/>
    <linearGradient id="linear-gradient-2" x1="7987.31" y1="683.95" x2="7979.1" y2="338.48" gradientTransform="matrix(-1, 0, 0, 1, 8433.75, 0)" xlink:href="#linear-gradient"/>
    <linearGradient id="Áåçûìÿííûé_ãðàäèåíò_515-10" x1="966.7" y1="423.53" x2="966.78" y2="418.67" gradientTransform="matrix(1.18, -0.04, 0.03, 1, -686.87, 110.12)" xlink:href="#Áåçûìÿííûé_ãðàäèåíò_515"/>
    <linearGradient id="Áåçûìÿííûé_ãðàäèåíò_515-11" x1="966.63" y1="469" x2="966.71" y2="464.14" gradientTransform="matrix(1.18, -0.04, 0.03, 1, -686.87, 110.12)" xlink:href="#Áåçûìÿííûé_ãðàäèåíò_515"/>
    <linearGradient id="Áåçûìÿííûé_ãðàäèåíò_515-12" x1="971.25" y1="417.27" x2="971.25" y2="470.4" gradientTransform="matrix(1.18, -0.04, 0.03, 1, -686.87, 110.12)" xlink:href="#Áåçûìÿííûé_ãðàäèåíò_515"/>
    <linearGradient id="Áåçûìÿííûé_ãðàäèåíò_514-4" x1="971.92" y1="404.61" x2="970.86" y2="478.73" gradientTransform="matrix(1.18, -0.04, 0.03, 1, -686.87, 110.12)" xlink:href="#Áåçûìÿííûé_ãðàäèåíò_514"/>
    <linearGradient id="Áåçûìÿííûé_ãðàäèåíò_507" data-name="Áåçûìÿííûé ãðàäèåíò 507" x1="1349.49" y1="537.23" x2="1370.17" y2="460.14" gradientUnits="userSpaceOnUse">
      <stop offset="0" stop-color="#ffe4a5"/>
      <stop offset="0.38" stop-color="#f6ce97"/>
      <stop offset="0.94" stop-color="#e6a77d"/>
    </linearGradient>
    <linearGradient id="Áåçûìÿííûé_ãðàäèåíò_510" data-name="Áåçûìÿííûé ãðàäèåíò 510" x1="1309.24" y1="501.11" x2="1325.88" y2="439.1" gradientUnits="userSpaceOnUse">
      <stop offset="0" stop-color="#ff9e74"/>
      <stop offset="0.33" stop-color="#f8886b"/>
      <stop offset="0.94" stop-color="#e65555"/>
    </linearGradient>
    <linearGradient id="Áåçûìÿííûé_ãðàäèåíò_509" data-name="Áåçûìÿííûé ãðàäèåíò 509" x1="1260.82" y1="98.24" x2="1275.37" y2="43.98" gradientTransform="translate(95.66 494.6) rotate(-6.03)" gradientUnits="userSpaceOnUse">
      <stop offset="0" stop-color="#ffbd56"/>
      <stop offset="0.3" stop-color="#f8a74f"/>
      <stop offset="0.92" stop-color="#e76f3d"/>
      <stop offset="0.94" stop-color="#e66d3c"/>
    </linearGradient>
    <linearGradient id="Áåçûìÿííûé_ãðàäèåíò_509-2" x1="1201.92" y1="99.23" x2="1216.48" y2="44.97" xlink:href="#Áåçûìÿííûé_ãðàäèåíò_509"/>
    <linearGradient id="Áåçûìÿííûé_ãðàäèåíò_507-2" x1="1316.9" y1="432.19" x2="1334.01" y2="368.43" xlink:href="#Áåçûìÿííûé_ãðàäèåíò_507"/>
    <linearGradient id="Áåçûìÿííûé_ãðàäèåíò_511" data-name="Áåçûìÿííûé ãðàäèåíò 511" x1="229.5" y1="628.38" x2="228.42" y2="668.22" gradientTransform="translate(-15.21 -107.07) rotate(1.5)" gradientUnits="userSpaceOnUse">
      <stop offset="0" stop-color="#afe2b1"/>
      <stop offset="0.17" stop-color="#a3d7ab"/>
      <stop offset="0.47" stop-color="#82b89c"/>
      <stop offset="0.87" stop-color="#4e8883"/>
      <stop offset="1" stop-color="#3c777b"/>
    </linearGradient>
    <linearGradient id="Áåçûìÿííûé_ãðàäèåíò_511-2" x1="298.74" y1="628.04" x2="297.7" y2="666.12" xlink:href="#Áåçûìÿííûé_ãðàäèåíò_511"/>
    <linearGradient id="Áåçûìÿííûé_ãðàäèåíò_511-3" x1="351" y1="630.61" x2="350.04" y2="665.95" xlink:href="#Áåçûìÿííûé_ãðàäèåíò_511"/>
    <linearGradient id="Áåçûìÿííûé_ãðàäèåíò_511-4" x1="399.09" y1="629.31" x2="398.15" y2="663.94" xlink:href="#Áåçûìÿííûé_ãðàäèåíò_511"/>
    <linearGradient id="Áåçûìÿííûé_ãðàäèåíò_511-5" x1="243.82" y1="876.2" x2="242.74" y2="916.04" xlink:href="#Áåçûìÿííûé_ãðàäèåíò_511"/>
    <linearGradient id="Áåçûìÿííûé_ãðàäèåíò_511-6" x1="311.55" y1="854.36" x2="310.51" y2="892.45" xlink:href="#Áåçûìÿííûé_ãðàäèåíò_511"/>
    <linearGradient id="Áåçûìÿííûé_ãðàäèåíò_511-7" x1="361.25" y1="837.85" x2="360.29" y2="873.2" xlink:href="#Áåçûìÿííûé_ãðàäèåíò_511"/>
    <linearGradient id="Áåçûìÿííûé_ãðàäèåíò_511-8" x1="404.96" y1="821.02" x2="404.02" y2="855.64" xlink:href="#Áåçûìÿííûé_ãðàäèåíò_511"/>
  </defs>
  <g class="cls-2">
    <g id="Layer_1" data-name="Layer 1">
      <g class="cls-3">
        <g>
          <path class="cls-4" d="M-17.73,575.17C-16.55,639-15.43,703-19.42,766.74c-.19,3.11-.4,6.21-.6,9.31v69.28c.67,11.31,1.61,22.61,2.89,33.9a132.1,132.1,0,0,0,2.95,13.82c.6,1.05,1.22,2.09,1.86,3.11q2.27,2.43,4.65,4.74c25.88,1.15,51.72,2.76,77.51,5.2,23.54,2.23,47,5,70.53,7.87l16.75,0a108.17,108.17,0,0,1,20.56,2H1494.06q.74-.06,1.47-.09a79.91,79.91,0,0,1,35.75.09h96.81c3.12-67.44,6.5-134.76,6.5-202.32V575.17Z"/>
          <path class="cls-5" d="M1634.59,595.32H1034l-45.86-18.68-.42,1.29,42.7,17.39H984.86l-35.63-18.66-.51,1.24L982,595.32H935.76l-25.38-18.61-.67,1.15,23.81,17.46H886.69l-15.13-18.5-.91.93L885,595.32h-47.3l-5-18.24-1.17.4,4.86,17.84H789l4.87-17.84-1.17-.4-5,18.24h-47.3l14.38-17.57-.9-.93-15.14,18.5H691.88l23.82-17.46-.67-1.15-25.38,18.61H643.44l33.25-17.42-.52-1.24-35.63,18.66H595l42.69-17.39-.42-1.29-45.86,18.68H-17.37l0,1.38H588.05l-45.6,18.58H-17c0,.45,0,.91,0,1.37H539.08l-59.31,24.17H-16.75c0,.46,0,.92,0,1.37H476.4l-65.19,26.57H-16.64v1.37H407.84l-96.53,39.33H-17.09c0,.46,0,.92,0,1.38H307.94L169.43,767.28H-19.45l-.09,1.37h185.6L-15.81,842.76h-4.35c0,.46.05.92.07,1.37h.91l-.89.37.09,1.42,4.38-1.79H165.63L50.53,904.44l2.52.19,115.47-60.5h181.9L239.68,925.36l2,.19,111-81.42H535.17l-66.61,81.44.9.93,67.38-82.37h183l-22.28,81.7,1.17.4,22.39-82.1H904.29l22.39,82.1,1.17-.4-22.28-81.7h183l67.37,82.37.9-.93-66.61-81.44h182.51l112.45,82.48.66-1.15L1275,844.13h181.9l146.27,76.63,2.63-.13-146-76.5h171.58l.06-1.37H1457.15L1315.7,768.65h140.06l175.75,71.62.06-1.44-172.23-70.18h174.57l0-1.37H1456l-138.51-56.44h317.13v-1.38h-320.5l-96.53-39.33h417v-1.37h-420.4L1149,642.19h485.59v-1.37h-489l-59.31-24.17h548.27v-1.37H1083l-45.6-18.58h597.24Zm-650,1.38,35.46,18.58H963L937.63,596.7ZM856.47,668.76H768.93l7.24-26.57h73.06Zm-6-26.57h72.86l21.73,26.57H857.75Zm-82.86,26.57H680.3L702,642.19h72.86Zm-89,0H591.77L628,642.19h72.39Zm-1.13,1.37-32.17,39.33H536.27l53.62-39.33Zm1.67,0h88.1l-10.73,39.33H647Zm89.38,0h88.29l10.72,39.33H757.83Zm89.57,0h88.1l32.17,39.33H868.85Zm89.76,0h87.62l53.63,39.33H980.07Zm-1.12-1.37L925,642.19h72.38l36.22,26.57Zm-22.86-27.94-19.77-24.17H962.6l32.95,24.17Zm-1.66,0H850.14l-6.6-24.17h58.94Zm-73.39,0H776.55l6.59-24.17h59.13Zm-73.59,0H703.15l19.77-24.17h58.94Zm-73.78,0H629.85l33-24.17h58.45Zm-73.87,0h-71l46.13-24.17h57.84Zm-1.88,1.37-36.21,26.57H503.27L554,642.19Zm-38.08,27.94L534,709.46H425.57l75.08-39.33Zm-55.5,40.71-76.95,56.44h-140L423,710.84Zm2.23,0H644.22l-46.17,56.44H457.44Zm111.49,0h110.3l-15.39,56.44H599.71Zm111.58,0H868l15.39,56.44H742.07Zm111.77,0h110.3l46.17,56.44H884.62Zm112,0H1091l77,56.44h-140.6Zm112.06,0h109.2l107.73,56.44h-140Zm-1.88-1.38-53.62-39.33h87l75.08,39.33Zm-55.5-40.7-36.21-26.57h71.77l50.7,26.57Zm-38.08-27.94-33-24.17h57.84l46.14,24.17Zm-62.4-44.12,25.34,18.58H903l-15.2-18.58Zm-49.23,0,15.2,18.58H843.17L838.1,596.7Zm-97.58,0h48.24l5.07,18.58H783.51Zm-49.33,0h48l-5.07,18.58H724.05Zm-49.24,0h47.58l-15.2,18.58H664.68Zm-49.19,0h46.95l-25.33,18.58H605.35Zm-49.18,0h46.28l-35.46,18.58H546Zm-49,19.95h57.17L553.7,640.82H483.35ZM480,642.19h71.09l-50.7,26.57H414.8Zm-68.56,27.94h86.33l-75.08,39.33H314.9Zm-99.9,40.71H420.06L312.33,767.28H173ZM168.25,842.76H-12.23l181.88-74.11H309.71Zm184,0H171.14L312.6,768.65H453.33Zm184,0H354.53l101-74.11H596.92Zm183.9,0H538l60.62-74.11H740.41Zm1.28,0,20.21-74.11h142l20.21,74.11Zm183.72,0L885,768.65h141.83l60.63,74.11Zm183.91,0-60.63-74.11h141.35l101,74.11Zm365.15,0H1273.11l-101-74.11H1312.8Zm-1.87-75.48H1313.08l-107.74-56.44h108.54Zm-141.88-57.82H1202.72l-75.08-39.33H1214Zm-99.9-40.7H1125l-50.7-26.57h71.1Zm-68.56-27.94H1071.7l-46.13-24.17h57.16Zm-62.69-25.54H1023L987.48,596.7h46.29Z"/>
          <path class="cls-6" d="M1633.42,269.65c-1.19-36.65-4.11-73.33-4.51-110-.33-30.07,1.31-60.25-1.09-90.24A195.59,195.59,0,0,0,1623,50.09a92.43,92.43,0,0,1-3.55-35.5c-.43-2.76-.85-5.52-1.24-8.28-.12-.86,1.94-6.46,1.82-7.31-84-2-170.21.69-254.22-1.35H856.13c-51.53,3-259.51,2.18-311.88,0H-15.31v331h1650Q1634.33,299.12,1633.42,269.65Z"/>
          <path class="cls-7" d="M1634.42,311.09H1037.35l45.6-18.58H1634l0-1.37H1086.32L1145.63,267h487.69c0-.46,0-.92,0-1.37H1149L1214.19,239h417.92l-.06-1.37H1217.56l96.53-39.33h316L1630,197H1317.46L1456,140.51h172.94c0-.46,0-.91,0-1.37H1459.34l168.55-68.68c0-.35,0-.7-.07-1,0-.12,0-.24-.08-.35l-172,70.08H1315.7L1457.15,65h169.74c-.1-.46-.2-.92-.31-1.38H1459.77L1576.05,2.74l-2.77-.07-116.4,61H1275l90-66-2.17,0-90.09,66.07H1090.23l59.9-73.22-1.63,0-59.93,73.26h-183L924.68-6.41l-1.3.07-19.09,70H721.11L704.45,2.57h-1.28l16.66,61.09h-183L480.74-4.91,479-5l56.14,68.63H352.66L256.14-7.14,254-7.1l96.47,70.75H168.52L41-3.16l-2.87,0,127.5,66.79H-15.6l-15.15-6.17c.05.51.1,1,.16,1.52l11.41,4.65H-30.09l.15,1.38h14.13l181.87,74.11H-22.7c0,.46.06.91.08,1.37H169.43L307.94,197H-21.8v1.38H311.31l96.53,39.33H-21.86V239H411.21L476.4,265.6H-21.89c0,.45,0,.91,0,1.37H479.77l59.31,24.17h-561v1.37H542.45l45.6,18.58H-21.87v1.38H591.42l45.86,18.68.42-1.29L595,312.47h45.53l35.63,18.66.52-1.24-33.25-17.42h46.21L715,331.08l.67-1.15-23.82-17.46h46.83L753.85,331l.9-.93-14.38-17.57h47.3l5,18.24,1.17-.4L789,312.47h47.5l-4.86,17.84,1.17.4,5-18.24H885L870.65,330l.91.93,15.13-18.5h46.83l-23.81,17.46.67,1.15,25.38-18.61H982l-33.25,17.42.51,1.24,35.63-18.66h45.54l-42.7,17.39.42,1.29L1034,312.47h600.46C1634.43,312,1634.42,311.55,1634.42,311.09Zm-551.69-19.95h-57.16L1071.7,267h70.35Zm-136.5-53.48h-88.1l10.72-39.33H978.4Zm33.84-39.33h109.07l-53.63,39.33H947.89ZM856.85,237.66H768.56l-10.73-39.33H867.57Zm-89.57,0h-88.1L647,198.33H756.55Zm-89.77,0H589.89l-53.62-39.33H645.34Zm1.13,1.37,21.73,26.57H628L591.77,239Zm1.66,0h87.35l7.24,26.57H702Zm88.63,0h87.54l-7.24,26.57H776.17Zm88.82,0H945.1L923.37,265.6H850.51Zm89,0h86.87L997.42,265.6H925Zm89.1,0h86.26l-50.7,26.57H999.66Zm1.88-1.37,53.62-39.33h108.46l-75.08,39.33Zm55.5-40.71,77-56.44h140L1202.45,197Zm-2.24,0H981.19l46.17-56.44H1168Zm-111.48,0H869.23l15.39-56.44H1025.7ZM868,197H757.46l-15.39-56.44H883.34Zm-111.77,0H645.88l-46.17-56.44H740.79Zm-112,0H534.39l-76.95-56.44H598.05Zm-112.06,0H423L315.22,140.51h140Zm1.87,1.38,53.63,39.33h-87l-75.08-39.33Zm55.5,40.7,36.21,26.57H554L503.27,239ZM627.62,267l33,24.17H602.73L556.6,267Zm2.23,0h71.64l19.77,24.17H662.81Zm73.3,0h72.12l6.59,24.17H722.92Zm73.4,0h72.31l-6.59,24.17H783.14Zm73.59,0h72.11l-19.77,24.17H843.54Zm73.77,0h71.64L962.6,291.14H904.14Zm73.88,0h71l-46.14,24.17H964.83Zm147.63-1.37h-71.1L1125,239h85.59ZM1214,237.66h-86.34l75.08-39.33h107.79Zm238.41-97.15L1313.88,197H1205.34l107.74-56.44ZM1273.11,65h181.15L1312.8,139.14H1172.07Zm-184,0h181.76l-101,74.11H1028.48ZM905.2,65h182.25l-60.63,74.11H885Zm-1.28,0-20.21,74.11h-142L721.48,65ZM720.2,65l20.21,74.11H598.58L538,65ZM536.3,65l60.62,74.11H455.57L354.53,65Zm-184,0,101,74.11H312.6L171.14,65ZM-12.23,65H168.25l141.46,74.11H169.65ZM173,140.51H312.33L420.06,197H311.53ZM314.9,198.33H422.68l75.08,39.33H411.43ZM414.8,239h85.58l50.7,26.57H480ZM483.35,267H553.7l46.14,24.17H542.67Zm108.29,44.12L546,292.51h56.42l35.46,18.58Zm49.18,0-35.47-18.58h57.09l25.33,18.58Zm49.19,0-25.33-18.58h57.71l15.2,18.58Zm49.24,0-15.2-18.58h58.18l5.07,18.58Zm97.57,0H788.58l-5.07-18.58h58.38Zm49.34,0H838.1l5.07-18.58h58.19Zm49.23,0H887.82L903,292.51h57.71Zm49.2,0h-47L963,292.51h57.09Zm49.18,0H987.48L1023,292.51h56.41Z"/>
          <rect class="cls-8" x="527.71" y="326.43" width="570.55" height="250.74"/>
          <rect class="cls-9" x="-15.31" y="567.48" width="1143.14" height="11.98"/>
          <rect class="cls-9" x="533.71" y="326" width="543" height="12.62"/>
          <polygon class="cls-10" points="680.27 379.35 685.12 579.27 945.69 579.43 946.12 379.55 680.27 379.35"/>
          <polygon class="cls-9" points="812.84 371.91 672.63 371.91 673.26 579.41 683.05 579.41 682.01 380.32 812.84 380.32 946.98 381.05 949.33 579.45 958.58 579.52 958.63 371.91 812.84 371.91"/>
          <g>
            <polygon class="cls-11" points="705.55 409.3 707.76 552.77 788.4 552.21 787.55 408.32 705.55 409.3"/>
            <polygon class="cls-12" points="709.69 550.94 706.88 410.87 785.83 409.91 786.42 550.25 709.69 550.94"/>
          </g>
          <g>
            <polygon class="cls-11" points="838.84 408.03 841.05 551.5 921.69 550.94 920.83 407.05 838.84 408.03"/>
            <polygon class="cls-13" points="842.98 549.67 840.16 409.6 919.12 408.64 919.71 548.98 842.98 549.67"/>
          </g>
          <path class="cls-14" d="M812.84,380.32H682l-.32,198.73,131.15.41,136.81,0,.75-199.71ZM686,576.77l-.43-194.22,126.43.22.28,193.71Zm259.92-.72-129.85-.21-2.22-193.07,132.5-.43Z"/>
          <g>
            <path class="cls-15" d="M810.3,374.55a20,20,0,0,1-9-7.89,16.87,16.87,0,0,1,.77-17.32c3.83-5.75,11.35-8.91,18.39-8.08a16.47,16.47,0,0,1,14.65,14.36c1.18,8.14-2.82,17.28-11.41,20.07A18.28,18.28,0,0,1,810.3,374.55Z"/>
            <path class="cls-16" d="M806.12,371.59a19.92,19.92,0,0,1-9-7.88,16.88,16.88,0,0,1,.77-17.33c3.83-5.74,11.35-8.9,18.39-8.08a16.48,16.48,0,0,1,14.65,14.36c1.18,8.15-2.82,17.28-11.41,20.08A18.2,18.2,0,0,1,806.12,371.59Z"/>
            <path class="cls-17" d="M806.94,369.72a17.67,17.67,0,0,1-8-7,14.86,14.86,0,0,1,.68-15.26c3.37-5.06,10-7.84,16.2-7.12A14.52,14.52,0,0,1,828.77,353c1,7.18-2.48,15.23-10,17.69A16.09,16.09,0,0,1,806.94,369.72Z"/>
            <path class="cls-16" d="M813.41,347.87q-.23-3.14-.47-6.27a5.27,5.27,0,0,0,2.13,0,48.48,48.48,0,0,0-.52,6.25C814.31,347.8,813.66,347.93,813.41,347.87Zm1.27,18.4c-.25-.09-.59,0-.85-.09-.12,1.38-.25,2.76-.37,4.14.34,0,.78,0,1.13,0C814.6,369,814.66,367.59,814.68,366.27ZM798.42,355c0,.54-.14.85-.19,1.4l3.61.06c0-.35,0-.72,0-1.08C800.8,355.22,799.47,355.16,798.42,355Zm28.78,1.31c0-.55.07-.86.08-1.41l-3.61.26c0,.35.09.72.09,1.07C824.82,356.3,826.15,356.25,827.2,356.31Z"/>
            <path class="cls-16" d="M813.21,356.21c-.08-.64.64-1.72.89-2.24a15.58,15.58,0,0,1,1.39-2.33,15.13,15.13,0,0,1,1.78-2.05c.25-.25,2-1.39,2-1.63a12.49,12.49,0,0,1-4.24,8.55,1.43,1.43,0,0,1-1,.44.91.91,0,0,1-.79-.61Z"/>
            <path class="cls-16" d="M820.64,364.52a14.86,14.86,0,0,1-7.63-8.3,5.36,5.36,0,0,1,2.19-2A61,61,0,0,1,820.64,364.52Z"/>
          </g>
          <g>
            <polygon class="cls-7" points="627 249.97 659.95 274.14 779 274.14 772.41 249.97 627 249.97"/>
            <polygon class="cls-18" points="637.15 253.5 661.82 272.18 776.09 272.18 770.35 253.19 637.15 253.5"/>
          </g>
          <g>
            <polygon class="cls-7" points="457.44 140.51 534.33 196.95 756.18 196.95 740.9 140.51 457.44 140.51"/>
            <polygon class="cls-18" points="477.1 147.87 537.96 192.87 750.53 192.87 736.91 147.23 477.1 147.87"/>
          </g>
          <g>
            <polygon class="cls-7" points="1002.98 241.4 970.03 265.57 850.97 265.57 857.56 241.4 1002.98 241.4"/>
            <polygon class="cls-18" points="992.83 244.93 968.15 263.61 853.89 263.61 859.62 244.62 992.83 244.93"/>
          </g>
          <g>
            <polygon class="cls-7" points="1167.96 140.51 1091.07 196.95 869.23 196.95 884.51 140.51 1167.96 140.51"/>
            <polygon class="cls-18" points="1148.3 147.87 1087.44 192.87 874.88 192.87 888.49 147.23 1148.3 147.87"/>
          </g>
          <g>
            <polygon class="cls-19" points="645.34 709.46 536.27 709.46 589.89 670.13 677.51 670.13 645.34 709.46"/>
            <polygon class="cls-20" points="740.79 767.28 599.71 767.28 645.88 710.84 756.18 710.84 740.79 767.28"/>
            <polygon class="cls-21" points="455.21 767.28 315.22 767.28 422.95 710.84 532.16 710.84 455.21 767.28"/>
            <polygon class="cls-22" points="354.53 842.76 455.57 768.65 596.92 768.65 536.3 842.76 354.53 842.76"/>
            <polygon class="cls-23" points="169.65 768.65 309.71 768.65 168.25 842.76 -12.23 842.76 169.65 768.65"/>
            <polygon class="cls-24" points="411.43 670.13 497.76 670.13 422.68 709.46 314.9 709.46 411.43 670.13"/>
          </g>
          <polygon class="cls-25" points="867.57 709.46 757.83 709.46 768.56 670.13 856.85 670.13 867.57 709.46"/>
          <polygon class="cls-26" points="850.51 642.19 923.38 642.19 945.1 668.76 857.75 668.76 850.51 642.19"/>
          <polygon class="cls-27" points="1035.51 670.13 1089.14 709.46 980.07 709.46 947.89 670.13 1035.51 670.13"/>
          <polygon class="cls-28" points="503.27 668.76 553.98 642.19 625.75 642.19 589.53 668.76 503.27 668.76"/>
          <polygon class="cls-29" points="662.81 616.65 721.26 616.65 701.49 640.82 629.85 640.82 662.81 616.65"/>
          <polygon class="cls-30" points="783.14 616.65 842.26 616.65 848.86 640.82 776.55 640.82 783.14 616.65"/>
          <polygon class="cls-31" points="1202.45 710.84 1310.18 767.28 1170.2 767.28 1093.25 710.84 1202.45 710.84"/>
          <polygon class="cls-32" points="1089.11 842.76 1028.48 768.65 1169.83 768.65 1270.87 842.76 1089.11 842.76"/>
          <polygon class="cls-33" points="542.67 616.65 599.84 616.65 553.7 640.82 483.36 640.82 542.67 616.65"/>
          <polygon class="cls-34" points="687.77 596.7 662.44 615.28 605.35 615.28 640.82 596.7 687.77 596.7"/>
          <polygon class="cls-35" points="1210.61 668.76 1125.02 668.76 1074.32 642.19 1145.42 642.19 1210.61 668.76"/>
          <g>
            <path class="cls-15" d="M796.21,458.17l.5,36.91a1.92,1.92,0,0,0,2.12-.32l.25-36.59A3,3,0,0,0,796.21,458.17Z"/>
            <path class="cls-36" d="M800.47,459.73h-2.19c-.76.8-.59,1.77,0,2.81l2.26.46Z"/>
            <path class="cls-37" d="M797.94,461a3,3,0,0,0,.4,1.37l2,.28V460h-.42l-.27,1.08Z"/>
            <path class="cls-38" d="M800.47,490.55h-2.19c-.76.8-.59,1.76,0,2.81l2.26.45Z"/>
            <path class="cls-37" d="M797.94,491.86a2.92,2.92,0,0,0,.4,1.36l2,.28v-2.73h-.42l-.27,1.07Z"/>
            <path class="cls-37" d="M800.7,495.08l.53-36.91a3.34,3.34,0,0,1,1.4-.36h0a11,11,0,0,0-2.44.36L799.82,495a4.87,4.87,0,0,0,1.77.25h0A2.2,2.2,0,0,1,800.7,495.08Z"/>
            <path class="cls-39" d="M801.23,458.17l-.53,36.91a1.94,1.94,0,0,0,2.13-.32l1.27-36.59A3,3,0,0,0,801.23,458.17Z"/>
            <path class="cls-40" d="M801.55,458.33l1.48.88-1,35.44-.93.32a1.79,1.79,0,0,0,1.65-.25l1.19-36.28A2.43,2.43,0,0,0,801.55,458.33Z"/>
          </g>
          <g>
            <path class="cls-15" d="M824.64,457.92l.5,36.91a1.92,1.92,0,0,0,2.12-.32l.25-36.59A3,3,0,0,0,824.64,457.92Z"/>
            <path class="cls-41" d="M828.9,459.48h-2.19c-.77.8-.59,1.77,0,2.81l2.26.46Z"/>
            <path class="cls-37" d="M826.37,460.79a3,3,0,0,0,.4,1.37l2,.28V459.7h-.42l-.27,1.08Z"/>
            <path class="cls-42" d="M828.9,490.3h-2.19c-.77.8-.59,1.76,0,2.81l2.26.45Z"/>
            <path class="cls-37" d="M826.37,491.61a2.92,2.92,0,0,0,.4,1.36l2,.28v-2.73h-.42l-.27,1.07Z"/>
            <path class="cls-37" d="M829.13,494.83l.53-36.91a3.34,3.34,0,0,1,1.4-.36h0a11,11,0,0,0-2.44.36l-.37,36.84A4.87,4.87,0,0,0,830,495h0A2.2,2.2,0,0,1,829.13,494.83Z"/>
            <path class="cls-43" d="M829.66,457.92l-.53,36.91a1.92,1.92,0,0,0,2.12-.32l1.28-36.59A3,3,0,0,0,829.66,457.92Z"/>
            <path class="cls-44" d="M830,458.08l1.47.88-1,35.44-.92.32a1.79,1.79,0,0,0,1.65-.25l1.19-36.28A2.44,2.44,0,0,0,830,458.08Z"/>
          </g>
          <path class="cls-1" d="M1628,71.61c-.06-.74-.1-1.47-.16-2.2A195.59,195.59,0,0,0,1623,50.09a92.28,92.28,0,0,1-3.55-35.51q-.51-3.26-1-6.53H-4v910c24.65,1.14,49.28,2.71,73.86,5l3.9.38H1628Z"/>
          <rect class="cls-1" x="3.55" y="12.48" width="1600" height="900"/>
          <g>
            <path class="cls-45" d="M1534.49,953a83.14,83.14,0,0,1,43.6,1.94c3.86,1,7.75,1.95,11.66,2.73,12.66,1,25.38,1.2,38.08.95,14.22-.28,28.41-1.14,42.58-2.33,3.24-70,6.82-139.87,6.82-210V507.89c0-77.54,1.32-155.21-1.21-232.72-1.21-37.47-4.22-75-4.63-112.43-.34-30.74,1.35-61.59-1.12-92.24a198.76,198.76,0,0,0-5-19.75,93.94,93.94,0,0,1-3.65-36.28c-.44-2.82-.87-5.64-1.27-8.47-.12-.87-1.26-5.13-1.38-6-60.71-1.47-120.4.46-181.11-1L1070.42,303.44l.83,318,51,38.74,22.24-1.33,76.73,50.3.63,24.2,294.62,222.52A81.94,81.94,0,0,1,1534.49,953Z"/>
            <g>
              <polygon class="cls-9" points="1071.21 603.22 1113.48 631.72 1121.98 659.85 1071.26 621.4 1071.21 603.22"/>
              <path class="cls-9" d="M1534.49,953a83.14,83.14,0,0,1,43.6,1.94c3.86,1,7.75,1.95,11.66,2.73,3.43.27,6.86.47,10.3.63L1217,705.61l-.11,24,299.5,226.21A82.17,82.17,0,0,1,1534.49,953Z"/>
            </g>
            <polygon class="cls-46" points="1144.16 658.68 1217.06 707.13 1219.75 349.1 1143.94 370.81 1144.16 658.68"/>
            <g>
              <path class="cls-15" d="M1170,486.85l-2.61,54.42a3.45,3.45,0,0,1-3.48-.6l1.37-54A5.51,5.51,0,0,1,1170,486.85Z"/>
              <path class="cls-47" d="M1163,488.9l3.6.14c1.21,1.22.87,2.64-.14,4.14l-3.74.54Z"/>
              <path class="cls-37" d="M1167.05,491a4,4,0,0,1-.72,2l-3.34.3.13-4,.7,0,.38,1.61Z"/>
              <path class="cls-48" d="M1161.46,534.36l3.6.13c1.21,1.23.87,2.64-.14,4.14l-3.74.54Z"/>
              <path class="cls-37" d="M1165.55,536.44a4.09,4.09,0,0,1-.72,2l-3.34.29.13-4,.7,0,.38,1.61Z"/>
              <path class="cls-37" d="M1160.85,541l.93-54.48a6.16,6.16,0,0,0-2.29-.61h0a20.46,20.46,0,0,1,4,.68L1162.3,541a8.93,8.93,0,0,1-2.91.27v0A3.75,3.75,0,0,0,1160.85,541Z"/>
              <path class="cls-49" d="M1161.78,486.55l-.93,54.48a3.46,3.46,0,0,1-3.48-.6l-.31-54.06A5.51,5.51,0,0,1,1161.78,486.55Z"/>
              <path class="cls-50" d="M1161.25,486.77l-2.47,1.21,0,52.34,1.51.53a3.24,3.24,0,0,1-2.7-.48l-.19-53.59A4.42,4.42,0,0,1,1161.25,486.77Z"/>
            </g>
            <g>
              <g>
                <polygon class="cls-6" points="1155.6 394.38 1202.52 387.77 1202.86 461.55 1155.77 455.1 1155.6 394.38"/>
                <polygon class="cls-51" points="1159.56 398.61 1198.62 392.7 1198.89 458.73 1159.7 452.95 1159.56 398.61"/>
              </g>
              <polygon class="cls-52" points="1202.52 387.77 1204.01 387.94 1204.28 461.71 1203.04 461.55 1202.52 387.77"/>
            </g>
            <g>
              <polygon class="cls-9" points="1122.3 660.14 1121.88 370.37 1218.18 340.4 1216.92 729.64 1228.88 738.74 1229.52 309.42 1109.6 355.38 1108.68 649.84 1122.3 660.14"/>
              <polygon class="cls-53" points="1229.62 308.98 1236.12 309.31 1236.04 744.07 1227.96 738 1229.62 308.98"/>
              <polygon class="cls-53" points="1121.88 370.37 1144.85 373.04 1218.32 353.63 1218.65 337.76 1121.88 370.37"/>
              <polygon class="cls-53" points="1144.85 373.04 1144.54 658.8 1122.3 660.14 1121.88 370.37 1144.85 373.04"/>
            </g>
          </g>
          <g>
            <path class="cls-54" d="M146-6.14C78.73-4.65,11.47-3.39-55.71-4.58c.82,58.43,13.58,116.34,13.58,174.89,0,69.31-.39,138.64.21,208,.62,70.19,2.4,140.37,3.69,210.56,1.29,70.41,3,140.91-1.45,211.24-1.54,24.22-3.48,48.42-5.29,72.64-.28,16-.75,32.1-1.55,48.14q-.76,15.15-2,30.29,84.6-.39,169.19-.59l289.8-217.4.64-24.2,77.25-50.29,22.4,1.33,51.39-38.74L563,303.3Z"/>
            <g>
              <polygon class="cls-9" points="562.22 603.06 519.66 631.56 511.1 659.69 562.17 621.24 562.22 603.06"/>
              <path class="cls-9" d="M120.82,950.54l294.7-221.07-.12-24L41.09,950.74Q81,950.58,120.82,950.54Z"/>
            </g>
            <polygon class="cls-55" points="488.77 658.52 415.38 706.96 412.67 348.96 489 370.68 488.77 658.52"/>
            <g>
              <path class="cls-15" d="M462.73,486.71l2.63,54.42a3.52,3.52,0,0,0,3.5-.61l-1.38-54A5.58,5.58,0,0,0,462.73,486.71Z"/>
              <path class="cls-56" d="M469.85,488.76l-3.62.13c-1.23,1.22-.88,2.64.13,4.14l3.77.54Z"/>
              <path class="cls-37" d="M465.73,490.84a4,4,0,0,0,.73,2l3.36.29-.14-4-.69,0-.39,1.61Z"/>
              <path class="cls-57" d="M471.36,534.21l-3.62.13c-1.23,1.23-.88,2.64.14,4.14l3.76.54Z"/>
              <path class="cls-37" d="M467.24,536.29a4,4,0,0,0,.73,2l3.36.3-.14-4-.69,0-.39,1.61Z"/>
              <path class="cls-37" d="M472,540.88,471,486.4a6.4,6.4,0,0,1,2.3-.61h0a20.06,20.06,0,0,0-4,.68l1.2,54.36a9.06,9.06,0,0,0,2.94.27v0A3.85,3.85,0,0,1,472,540.88Z"/>
              <path class="cls-58" d="M471,486.4l.93,54.48a3.49,3.49,0,0,0,3.5-.6l.32-54A5.58,5.58,0,0,0,471,486.4Z"/>
              <path class="cls-59" d="M471.57,486.62l2.49,1.21,0,52.34-1.52.53a3.28,3.28,0,0,0,2.72-.48l.19-53.58A4.43,4.43,0,0,0,471.57,486.62Z"/>
            </g>
            <g>
              <g>
                <polygon class="cls-6" points="477.26 394.24 430.02 387.64 429.68 461.41 477.09 454.95 477.26 394.24"/>
                <polygon class="cls-51" points="473.27 398.47 433.95 392.56 433.67 458.58 473.13 452.81 473.27 398.47"/>
              </g>
              <polygon class="cls-52" points="430.02 387.64 428.52 387.8 428.25 461.57 429.5 461.41 430.02 387.64"/>
            </g>
            <g>
              <polygon class="cls-9" points="510.79 659.98 511.21 370.24 414.25 340.26 415.52 729.47 403.48 738.58 402.84 309.29 523.57 355.25 524.5 649.68 510.79 659.98"/>
              <polygon class="cls-53" points="402.74 308.85 396.19 309.18 396.27 743.91 404.4 737.84 402.74 308.85"/>
              <polygon class="cls-53" points="511.21 370.24 488.08 372.9 414.11 353.5 413.78 337.63 511.21 370.24"/>
              <polygon class="cls-53" points="488.08 372.9 488.39 658.65 510.79 659.98 511.21 370.24 488.08 372.9"/>
            </g>
          </g>
          <g>
            <g>
              <g>
                <polygon class="cls-6" points="1269.45 355.78 1407.47 334.68 1408.45 570.54 1269.95 549.91 1269.45 355.78"/>
                <polygon class="cls-60" points="1281.11 369.3 1395.99 350.42 1396.8 561.52 1281.52 543.05 1281.11 369.3"/>
              </g>
              <polygon class="cls-52" points="1407.47 334.68 1411.85 335.2 1412.64 571.07 1409 570.54 1407.47 334.68"/>
            </g>
            <g>
              <path class="cls-15" d="M1381,479.5l0,51c-10.27-2.18-21.7-2.52-33.89-1.67l.64-6.35Z"/>
              <path class="cls-61" d="M1343.08,467.84a419.72,419.72,0,0,1-1.07,55.58,207.76,207.76,0,0,1,35,4.49c3.82-18.83,4.7-39.9,3.53-62.53Z"/>
              <polygon class="cls-62" points="1357.44 461.27 1359.3 473.99 1363.45 473.16 1363.1 461.27 1357.44 461.27"/>
            </g>
            <g>
              <path class="cls-15" d="M1334.59,454.67v41c-8.25-1.75-17.45-2-27.26-1.34l.52-5.11Z"/>
              <path class="cls-63" d="M1304.08,445.3a338,338,0,0,1-.85,44.7,167.78,167.78,0,0,1,28.15,3.61c3.07-15.15,3.78-32.1,2.84-50.29Z"/>
              <polygon class="cls-62" points="1315.64 440.01 1317.13 450.24 1320.47 449.57 1320.19 440.01 1315.64 440.01"/>
            </g>
            <g>
              <path class="cls-15" d="M1377.68,417.11l3.34,35.37a86.08,86.08,0,0,0-23.62,1.62l0-4.45Z"/>
              <path class="cls-64" d="M1350.61,412.14a292.43,292.43,0,0,1,2.89,38.64,144.86,144.86,0,0,1,24.57.24c1.42-13.38.65-28.07-1.63-43.66Z"/>
              <polygon class="cls-62" points="1360.61 405.92 1361.91 414.8 1364.81 414.22 1364.56 405.92 1360.61 405.92"/>
            </g>
            <g>
              <path class="cls-15" d="M1319.21,424.28l3.34,35.37a85.69,85.69,0,0,0-23.62,1.62l0-4.46Z"/>
              <path class="cls-65" d="M1292.14,419.31A292.43,292.43,0,0,1,1295,458a144.86,144.86,0,0,1,24.57.24c1.42-13.38.65-28.07-1.63-43.67Z"/>
              <polygon class="cls-62" points="1302.14 413.09 1303.44 421.97 1306.34 421.39 1306.09 413.09 1302.14 413.09"/>
            </g>
            <g>
              <path class="cls-15" d="M1343,384.44l0,42.17c-8.49-1.8-18-2.09-28-1.38l.53-5.25Z"/>
              <path class="cls-66" d="M1311.6,374.8a348.76,348.76,0,0,1-.88,46,172.91,172.91,0,0,1,28.94,3.71c3.17-15.57,3.89-33,2.92-51.71Z"/>
              <polygon class="cls-62" points="1323.48 369.36 1325.02 379.89 1328.45 379.2 1328.16 369.36 1323.48 369.36"/>
            </g>
          </g>
          <g>
            <path class="cls-67" d="M385,451.43-28.46,406.15c.67,65,2.27,130,3.45,195,1.25,68.9,2.9,137.88-1.41,206.7-1.48,23.69-3.36,47.38-5.11,71.07-.27,15.71-.72,31.41-1.5,47.1q-.73,14.84-1.9,29.64c61.68-.29,123.36-.6,185.05-.6a106.78,106.78,0,0,1,30.93,4.56l208-162.24Z"/>
            <g>
              <path class="cls-68" d="M-25.42,789.5,387.38,654l-.06-5.23L-25,779.34C-25.1,782.73-25.26,786.12-25.42,789.5Z"/>
              <path class="cls-68" d="M-28.36,415.18,385,456.67l-.06-5.23L-28.46,406.15Q-28.41,410.67-28.36,415.18Z"/>
              <path class="cls-68" d="M181,959.66,389,797.41,389,792,169.05,956.79A101.86,101.86,0,0,1,181,959.66Z"/>
              <polygon class="cls-68" points="349.8 827.11 343.22 830.57 343.22 447.79 350.26 449.61 349.8 827.11"/>
              <polygon class="cls-68" points="388.96 797.64 382.38 800.8 382.31 451.21 389.44 451.77 388.96 797.64"/>
              <polygon class="cls-68" points="299.4 862.06 292.82 865.87 292.82 444.27 299.85 446.27 299.4 862.06"/>
              <polygon class="cls-68" points="247.13 900.65 240.54 904.87 240.54 438.83 247.58 441.04 247.13 900.65"/>
              <path class="cls-68" d="M172.75,957.52l1.33-1,.45-522.36-7-2.52V956.51Q170.15,956.95,172.75,957.52Z"/>
            </g>
            <g>
              <g>
                <g>
                  <g>
                    <path class="cls-15" d="M188.79,525.38a8.57,8.57,0,0,0-4.38,5.26,18.13,18.13,0,0,0-.48,6.52c.55,10.08,2.53,20.06,4.49,30a1.75,1.75,0,0,0,2.06-.73,3.44,3.44,0,0,0,.36-2.05,251.48,251.48,0,0,1,.62-29.69C191.72,531.43,191.4,527.86,188.79,525.38Z"/>
                    <g>
                      <path class="cls-37" d="M197.13,526.14l-7.79-1.08s-6,2.37-5.25,8.55,5.15,7.48,5.15,7.48l4.19-.42c3.25,7.28,3.68,14.85,3,23.1l3.76-1.53Z"/>
                      <path class="cls-69" d="M196.52,544.91a41,41,0,0,1-.11,18.86c-.36,1.43-1.91,4,.26,4.47,3.07.69,4.15-4.31,4.63-6.2a67.87,67.87,0,0,0,1.9-20.77,11.09,11.09,0,0,1-.17-2.87,10.2,10.2,0,0,1,.91-2.13,7.19,7.19,0,0,0-.48-6.89,7.49,7.49,0,0,0-6.33-3.24,7.11,7.11,0,0,0-6,3.73,8,8,0,0,0,.27,7,6.11,6.11,0,0,0,3.15,2.7A14.88,14.88,0,0,1,196.52,544.91Z"/>
                      <path class="cls-37" d="M199.37,537.05c-.23-2.95-.49-5.89-1-8.82a2.62,2.62,0,0,0-1.89.37l.93,8.61A4.78,4.78,0,0,0,199.37,537.05Z"/>
                    </g>
                  </g>
                  <g>
                    <path class="cls-15" d="M258.41,526.92a8.23,8.23,0,0,0-4.18,5,17.66,17.66,0,0,0-.47,6.23c.54,9.64,2.42,19.18,4.3,28.7a1.69,1.69,0,0,0,2-.7,3.22,3.22,0,0,0,.34-2,242.19,242.19,0,0,1,.59-28.38C261.21,532.71,260.91,529.29,258.41,526.92Z"/>
                    <g>
                      <path class="cls-37" d="M266.38,527.65l-7.44-1s-5.69,2.27-5,8.17,4.93,7.16,4.93,7.16l4-.4c3.11,7,3.51,14.19,2.85,22.08l3.59-1.47Z"/>
                      <path class="cls-70" d="M265.81,545.59a39.36,39.36,0,0,1-.11,18c-.35,1.36-1.82,3.81.25,4.28,2.93.65,4-4.13,4.42-5.94a64.69,64.69,0,0,0,1.82-19.85,10.6,10.6,0,0,1-.16-2.75,9.48,9.48,0,0,1,.87-2,6.85,6.85,0,0,0-.47-6.58,7.14,7.14,0,0,0-6.05-3.1,6.81,6.81,0,0,0-5.77,3.56,7.67,7.67,0,0,0,.26,6.7,5.87,5.87,0,0,0,3,2.59A14.49,14.49,0,0,1,265.81,545.59Z"/>
                      <path class="cls-37" d="M268.53,538.07c-.22-2.82-.47-5.63-.95-8.42a2.52,2.52,0,0,0-1.81.35q.45,4.13.89,8.23A4.4,4.4,0,0,0,268.53,538.07Z"/>
                    </g>
                  </g>
                  <g>
                    <path class="cls-15" d="M311.22,531a7.61,7.61,0,0,0-3.89,4.66,16.35,16.35,0,0,0-.43,5.79c.5,8.94,2.25,17.79,4,26.63a1.57,1.57,0,0,0,1.83-.65,3,3,0,0,0,.31-1.81,227,227,0,0,1,.55-26.34C313.81,536.35,313.53,533.17,311.22,531Z"/>
                    <g>
                      <path class="cls-37" d="M318.61,531.65l-6.91-1s-5.28,2.11-4.65,7.58,4.57,6.65,4.57,6.65l3.71-.38C318.22,551,318.6,557.72,318,565l3.33-1.36Z"/>
                      <path class="cls-71" d="M318.08,548.3A36.51,36.51,0,0,1,318,565c-.33,1.27-1.69,3.54.23,4,2.72.61,3.68-3.83,4.1-5.5A59.84,59.84,0,0,0,324,545.08a10,10,0,0,1-.15-2.56,9.12,9.12,0,0,1,.81-1.88,6.39,6.39,0,0,0-.43-6.11,6.65,6.65,0,0,0-5.62-2.88,6.31,6.31,0,0,0-5.35,3.31,7.09,7.09,0,0,0,.24,6.22,5.45,5.45,0,0,0,2.8,2.4A13.51,13.51,0,0,1,318.08,548.3Z"/>
                      <path class="cls-37" d="M320.61,541.33c-.21-2.62-.44-5.23-.88-7.82a2.32,2.32,0,0,0-1.68.33c.27,2.54.55,5.09.82,7.63A4.12,4.12,0,0,0,320.61,541.33Z"/>
                    </g>
                  </g>
                  <g>
                    <path class="cls-15" d="M359.49,531a7.47,7.47,0,0,0-3.81,4.57,16.15,16.15,0,0,0-.42,5.67c.49,8.75,2.2,17.43,3.91,26.08a1.53,1.53,0,0,0,1.79-.63,3,3,0,0,0,.31-1.78,217.77,217.77,0,0,1,.54-25.8C362,536.23,361.76,533.12,359.49,531Z"/>
                    <g>
                      <path class="cls-37" d="M366.73,531.63l-6.76-.94s-5.18,2.06-4.56,7.43,4.47,6.5,4.47,6.5l3.64-.37c2.83,6.33,3.2,12.91,2.59,20.08l3.27-1.34Z"/>
                      <path class="cls-72" d="M366.21,547.94a35.73,35.73,0,0,1-.1,16.39c-.31,1.24-1.65,3.46.23,3.89,2.67.6,3.61-3.75,4-5.4a58.89,58.89,0,0,0,1.65-18,9.56,9.56,0,0,1-.14-2.5,8.81,8.81,0,0,1,.79-1.85,6.24,6.24,0,0,0-.42-6,6.48,6.48,0,0,0-5.51-2.82,6.18,6.18,0,0,0-5.24,3.24,7,7,0,0,0,.23,6.09,5.38,5.38,0,0,0,2.74,2.35A13.09,13.09,0,0,1,366.21,547.94Z"/>
                      <path class="cls-37" d="M368.69,541.1c-.2-2.56-.43-5.11-.86-7.65a2.29,2.29,0,0,0-1.65.32l.81,7.48A3.94,3.94,0,0,0,368.69,541.1Z"/>
                    </g>
                  </g>
                </g>
                <g>
                  <g>
                    <path class="cls-15" d="M196.64,773.5a8.61,8.61,0,0,0-4.38,5.26,18.59,18.59,0,0,0-.48,6.52c.56,10.08,2.53,20.06,4.49,30a1.75,1.75,0,0,0,2.06-.73,3.44,3.44,0,0,0,.36-2.05,251.48,251.48,0,0,1,.62-29.69C199.57,779.55,199.25,776,196.64,773.5Z"/>
                    <g>
                      <path class="cls-37" d="M205,774.26l-7.79-1.08s-5.95,2.37-5.25,8.54,5.15,7.49,5.15,7.49l4.19-.42c3.25,7.28,3.68,14.85,3,23.1l3.76-1.54Z"/>
                      <path class="cls-73" d="M204.37,793a41,41,0,0,1-.11,18.86c-.36,1.43-1.9,4,.26,4.47,3.07.69,4.15-4.31,4.63-6.2a67.56,67.56,0,0,0,1.9-20.77,11.11,11.11,0,0,1-.17-2.87,10,10,0,0,1,.91-2.13,7.19,7.19,0,0,0-.48-6.89,7.49,7.49,0,0,0-6.33-3.24,7.11,7.11,0,0,0-6,3.73,8,8,0,0,0,.27,7,6.19,6.19,0,0,0,3.16,2.7A15,15,0,0,1,204.37,793Z"/>
                      <path class="cls-37" d="M207.23,785.16c-.24-2.94-.5-5.88-1-8.81a2.62,2.62,0,0,0-1.89.37l.93,8.61A4.68,4.68,0,0,0,207.23,785.16Z"/>
                    </g>
                  </g>
                  <g>
                    <path class="cls-15" d="M265.31,753.52a8.18,8.18,0,0,0-4.18,5,17.72,17.72,0,0,0-.47,6.24c.54,9.63,2.42,19.17,4.3,28.69a1.67,1.67,0,0,0,2-.69,3.31,3.31,0,0,0,.34-2,242.14,242.14,0,0,1,.59-28.38C268.11,759.3,267.81,755.88,265.31,753.52Z"/>
                    <g>
                      <path class="cls-37" d="M273.28,754.25l-7.44-1s-5.69,2.27-5,8.17,4.93,7.15,4.93,7.15l4-.4c3.11,7,3.51,14.2,2.85,22.08l3.59-1.47Z"/>
                      <path class="cls-74" d="M272.7,772.19a39.18,39.18,0,0,1-.1,18c-.35,1.37-1.82,3.81.25,4.28,2.93.66,4-4.13,4.42-5.94a64.31,64.31,0,0,0,1.81-19.84,11.1,11.1,0,0,1-.15-2.75,9.27,9.27,0,0,1,.87-2,6.87,6.87,0,0,0-.47-6.59,7.11,7.11,0,0,0-6.05-3.09,6.77,6.77,0,0,0-5.77,3.56,7.67,7.67,0,0,0,.26,6.7,5.86,5.86,0,0,0,3,2.58A14.52,14.52,0,0,1,272.7,772.19Z"/>
                      <path class="cls-37" d="M275.43,764.67c-.22-2.82-.47-5.63-.95-8.43a2.52,2.52,0,0,0-1.81.36q.45,4.11.89,8.22A4.4,4.4,0,0,0,275.43,764.67Z"/>
                    </g>
                  </g>
                  <g>
                    <path class="cls-15" d="M316.05,738.43a7.59,7.59,0,0,0-3.88,4.66,16.35,16.35,0,0,0-.43,5.79c.49,8.94,2.24,17.79,4,26.63a1.56,1.56,0,0,0,1.82-.64,3,3,0,0,0,.32-1.82,224.78,224.78,0,0,1,.55-26.34C318.65,743.8,318.37,740.62,316.05,738.43Z"/>
                    <g>
                      <path class="cls-37" d="M323.45,739.11l-6.91-1s-5.28,2.11-4.66,7.58,4.57,6.65,4.57,6.65l3.72-.38c2.88,6.46,3.26,13.18,2.64,20.49l3.34-1.36Z"/>
                      <path class="cls-75" d="M322.91,755.75a36.51,36.51,0,0,1-.1,16.73c-.32,1.27-1.69,3.54.24,4,2.72.61,3.68-3.83,4.1-5.5a59.83,59.83,0,0,0,1.68-18.42,10,10,0,0,1-.14-2.56,8.61,8.61,0,0,1,.81-1.88,6.39,6.39,0,0,0-.43-6.11,6.63,6.63,0,0,0-5.62-2.87,6.3,6.3,0,0,0-5.36,3.3,7.12,7.12,0,0,0,.24,6.22,5.49,5.49,0,0,0,2.8,2.4A13.13,13.13,0,0,1,322.91,755.75Z"/>
                      <path class="cls-37" d="M325.44,748.78c-.2-2.62-.44-5.23-.88-7.82a2.34,2.34,0,0,0-1.68.33c.28,2.54.55,5.09.83,7.63A4.06,4.06,0,0,0,325.44,748.78Z"/>
                    </g>
                  </g>
                  <g>
                    <path class="cls-15" d="M360.36,722.77a7.47,7.47,0,0,0-3.81,4.57,15.91,15.91,0,0,0-.42,5.67c.48,8.76,2.2,17.43,3.91,26.08a1.52,1.52,0,0,0,1.79-.63,2.94,2.94,0,0,0,.3-1.78,222.17,222.17,0,0,1,.54-25.8C362.9,728,362.62,724.92,360.36,722.77Z"/>
                    <g>
                      <path class="cls-37" d="M367.6,723.44l-6.77-1s-5.17,2.07-4.56,7.43,4.48,6.5,4.48,6.5l3.64-.36c2.82,6.33,3.19,12.9,2.59,20.07l3.26-1.33Z"/>
                      <path class="cls-76" d="M367.08,739.74a35.87,35.87,0,0,1-.1,16.39c-.32,1.24-1.66,3.47.23,3.89,2.66.6,3.6-3.75,4-5.4a58.86,58.86,0,0,0,1.65-18,9.56,9.56,0,0,1-.15-2.5,8.73,8.73,0,0,1,.79-1.84,6.23,6.23,0,0,0-.42-6,6.47,6.47,0,0,0-5.5-2.81,6.18,6.18,0,0,0-5.25,3.23,7,7,0,0,0,.24,6.09,5.34,5.34,0,0,0,2.74,2.35A13.09,13.09,0,0,1,367.08,739.74Z"/>
                      <path class="cls-37" d="M369.55,732.91c-.2-2.56-.43-5.12-.86-7.66a2.27,2.27,0,0,0-1.64.32l.81,7.48A3.89,3.89,0,0,0,369.55,732.91Z"/>
                    </g>
                  </g>
                </g>
              </g>
              <g>
                <g>
                  <polygon class="cls-77" points="182.02 484.12 233.79 484.12 232.88 461.42 182.02 457.78 182.02 484.12"/>
                  <polygon class="cls-77" points="251.67 481.74 286.7 481.74 286.08 466.37 251.67 463.91 251.67 481.74"/>
                  <polygon class="cls-77" points="306.44 482.25 336.56 482.25 336.03 469.04 306.44 466.92 306.44 482.25"/>
                  <polygon class="cls-77" points="356.38 480.49 378.7 480.49 378.31 470.7 356.38 469.13 356.38 480.49"/>
                </g>
                <g>
                  <polygon class="cls-77" points="182.37 739.19 229.02 724.21 229.02 743.28 182.37 761.33 182.37 739.19"/>
                  <polygon class="cls-77" points="252.52 715.59 288.96 703.89 288.96 718.78 252.52 732.88 252.52 715.59"/>
                  <polygon class="cls-77" points="308.14 698.97 334.54 690.49 334.54 701.28 308.14 711.49 308.14 698.97"/>
                  <polygon class="cls-77" points="353.43 683.12 377.5 675.39 377.5 685.23 353.43 694.54 353.43 683.12"/>
                </g>
              </g>
            </g>
          </g>
          <g>
            <polygon class="cls-78" points="174.89 104.02 172.1 244.54 275.09 269.4 281.49 153.04 174.89 104.02"/>
            <path class="cls-79" d="M266.9,255.58l-81.58-22.66.85-102.22,85.63,35.79Zm-86.72-17.09,89.12,23.27,5.55-99.49-91.77-40Z"/>
            <g>
              <polygon class="cls-79" points="185.23 137.03 271.79 173.21 271.61 176.48 185.03 145.75 185.23 137.03"/>
              <polygon class="cls-79" points="184.8 156.27 270.86 189.9 270.67 193.36 184.61 164.49 184.8 156.27"/>
              <polygon class="cls-79" points="184.36 175.52 269.93 206.58 269.73 210.24 184.19 183.24 184.36 175.52"/>
              <polygon class="cls-79" points="183.93 194.77 269 223.27 268.78 227.12 183.77 201.98 183.93 194.77"/>
              <polygon class="cls-79" points="183.5 214.01 268.07 239.95 267.84 244 183.35 220.72 183.5 214.01"/>
            </g>
          </g>
        </g>
      </g>
    </g>
  </g>
</svg>
