<svg xmlns="http://www.w3.org/2000/svg" width="238" height="489" viewBox="0 0 238 489">
  <defs>
    <style>
      .cls-1 {
        isolation: isolate;
      }

      .cls-2 {
        opacity: 0.3;
      }

      .cls-14, .cls-3, .cls-7 {
        fill: #d0846a;
      }

      .cls-14, .cls-3, .cls-8 {
        stroke: #c16452;
      }

      .cls-14, .cls-22, .cls-23, .cls-24, .cls-3, .cls-5, .cls-8 {
        stroke-miterlimit: 10;
      }

      .cls-3, .cls-8 {
        stroke-width: 0.71px;
      }

      .cls-4 {
        fill: #03164d;
      }

      .cls-5 {
        fill: #5e6666;
      }

      .cls-24, .cls-5 {
        stroke: #333838;
      }

      .cls-22, .cls-23, .cls-24, .cls-5 {
        stroke-width: 1.07px;
      }

      .cls-6 {
        mix-blend-mode: multiply;
        opacity: 0.5;
      }

      .cls-8 {
        fill: none;
      }

      .cls-9 {
        fill: #ba705b;
      }

      .cls-10 {
        fill: #333e44;
      }

      .cls-11 {
        fill: #b76f5c;
      }

      .cls-12, .cls-20 {
        fill: #a5644f;
      }

      .cls-12 {
        opacity: 0.4;
      }

      .cls-13 {
        fill: #975238;
      }

      .cls-14 {
        stroke-width: 1.43px;
      }

      .cls-15 {
        fill: #1c0000;
      }

      .cls-16 {
        fill: #f0f0ed;
      }

      .cls-17 {
        fill: #030000;
      }

      .cls-18 {
        fill: #2c1117;
      }

      .cls-19 {
        fill: #040000;
      }

      .cls-21 {
        fill: #2b101a;
      }

      .cls-22 {
        fill: #e8deaf;
        stroke: #c1b891;
      }

      .cls-23 {
        fill: #f99746;
        stroke: #e0843f;
      }

      .cls-24 {
        fill: #2a3838;
      }

      .cls-25 {
        fill: #ffbe39;
      }

      .cls-26 {
        fill: #d9a53d;
      }
    </style>
  </defs>
  <g class="cls-1">
    <g id="Layer_1" data-name="Layer 1">
      <g>
        <ellipse class="cls-2" cx="111" cy="477.8" rx="110.65" ry="9.82"/>
        <g>
          <g>
            <path class="cls-3" d="M86,440.27H68.86c.61,11.29,1,19.56.9,20.16-.72,4.18-30.26,11.5-24.28,17.37,4.33,4.25,30.9,2.42,37.44-3.37,2.86-2.54,3.16-4.18,2.44-7.76C84.61,462.89,85,452.51,86,440.27Z"/>
            <path class="cls-4" d="M87.22,461c-1.55-3.3-4.2,1.32-5.58,2.57-2.23,2.05-4.74,2.42-7.36.76-1.92-1.2-2.82-3.31-3.84-5.22-.89-1.64-2.43-2.33-4.13-1.44-2.15,1.12-2.27,3-2.68,5.14-4,1.94-19.65,7.2-21.52,9.91-2.37,3.42-1.44,7.16,3.41,7.59,10,.88,22.67-.77,32.13-1.27s9.47-6.67,9.21-13.82c0-1.38,1-2.58.46-4C87.29,461.18,87.25,461.1,87.22,461Z"/>
            <g>
              <path class="cls-3" d="M105.6,440.27h17.09c-.61,11.29-1,19.56-.9,20.16.73,4.18,30.27,11.5,24.29,17.37-4.33,4.25-30.91,2.42-37.44-3.37-2.86-2.54-3.16-4.18-2.45-7.76C107,462.89,106.57,452.51,105.6,440.27Z"/>
              <path class="cls-4" d="M104.34,461c1.54-3.3,4.2,1.32,5.57,2.57a5.6,5.6,0,0,0,7.37.76c1.91-1.2,2.82-3.31,3.84-5.22a2.9,2.9,0,0,1,4.13-1.44c2.14,1.12,2.27,3,2.67,5.14,4,1.94,19.66,7.2,21.53,9.91,2.36,3.42,1.43,7.16-3.42,7.59-10,.88-22.67-.77-32.12-1.27-9.61-.5-9.48-6.67-9.22-13.82,0-1.38-1-2.58-.46-4C104.27,461.18,104.3,461.1,104.34,461Z"/>
            </g>
          </g>
          <g>
            <path class="cls-5" d="M65.07,443H87.9c.35-34.29.35-159.55,2.85-187.6.08-.08,8.84-.08,8.92,0,2.5,28.05,2.5,153.31,2.85,187.6h22.82c3.85-28.91,7-108.28,7.83-124.38,1-18.43,1.24-40.21,1.24-58.92,0-21.3-.25-39.1-4-59.6-.08-.44-19.68-.83-35.22-.81s-35.14.37-35.22.81c-3.73,20.5-4,38.3-4,59.6,0,18.71.28,40.49,1.23,58.92C58.07,334.69,61.23,414.06,65.07,443Z"/>
            <g class="cls-6">
              <path class="cls-5" d="M99.35,248.12c-3.92-.28-6,.12-6.64-4.1-.5-3.14-.11-6.79-.17-10-.11-5.63-.09-11.27-.6-16.88-.08-1-1.62-.83-1.68.11-.6,9.18-.19,18.48-.09,27.67.08,6.77,2,5.82,9,5.42C100.59,250.29,100.84,248.23,99.35,248.12Z"/>
              <path class="cls-5" d="M130.06,224.21c-3.44-.35-6.64,0-10-1.36s-5.22-4-8.15-5.7a.65.65,0,0,0-.94.72c1.5,6.77,13.75,10.66,19.46,7.88C131.29,225.36,130.8,224.28,130.06,224.21Z"/>
              <path class="cls-5" d="M61.8,224.21c3.45-.35,6.64,0,10-1.36s5.22-4,8.15-5.7a.64.64,0,0,1,.93.72c-1.5,6.77-13.75,10.66-19.46,7.88C60.57,225.36,61.07,224.28,61.8,224.21Z"/>
            </g>
          </g>
          <g id="face">
            <g>
              <g>
                <g>
                  <path class="cls-7" d="M61.25,87.83c5.58-.9,12.14-1.48,18.92-4.23,2.23-.89,4.69-1.53,6.52-2.43l.09-11.67,9.63.07H97l9.63.07-.09,11.68c1.83.93,4.28,1.59,6.49,2.52,6.8,2.87,13.41,3.53,19,4.54-.2,5,.06,21.32.06,21.32l-35.7-.27L61,109.18S61.09,94,61.25,87.83Z"/>
                  <path class="cls-8" d="M61.25,87.83c5.58-.9,12.14-1.48,18.92-4.23,2.23-.89,4.69-1.53,6.52-2.43l.09-11.67,9.63.07H97l9.63.07-.09,11.68c1.83.93,4.28,1.59,6.49,2.52,6.8,2.87,13.41,3.53,19,4.54-.2,5,.06,21.32.06,21.32l-35.7-.27L61,109.18S61.09,94,61.25,87.83Z"/>
                </g>
                <path class="cls-9" d="M96.65,79.49a20.63,20.63,0,0,1-9.93-2.42l0-5.73,9.63.07H97l9.63.07-.05,5.74A20.56,20.56,0,0,1,96.65,79.49Z"/>
              </g>
              <g>
                <g>
                  <g>
                    <path class="cls-7" d="M81,42.14a2.38,2.38,0,0,0-.62,1,1.16,1.16,0,0,0,.21,1.08,1.25,1.25,0,0,0,1.18.28A5.47,5.47,0,0,0,82.91,44a10.88,10.88,0,0,1,5.29-.81c1.43.07,3.6.69,4.83-.32l.06,0a1.55,1.55,0,0,0,.36-2.43,4,4,0,0,0-2.76-1.1,16.25,16.25,0,0,0-5.23.63,9.81,9.81,0,0,0-4.27,2Z"/>
                    <path class="cls-7" d="M84.52,47.13a2.54,2.54,0,1,0,2.55-2.52A2.54,2.54,0,0,0,84.52,47.13Z"/>
                  </g>
                  <g>
                    <path class="cls-7" d="M112.9,42.15a9.72,9.72,0,0,0-4.23-2.08,16.54,16.54,0,0,0-5.22-.71,3.94,3.94,0,0,0-2.78,1.07,1.55,1.55,0,0,0,.33,2.43l0,0c1.22,1,3.4.44,4.82.39a10.83,10.83,0,0,1,5.28.88,5.57,5.57,0,0,0,1.17.52,1.25,1.25,0,0,0,1.18-.27,1.09,1.09,0,0,0,.22-1.07,2.38,2.38,0,0,0-.59-1Z"/>
                    <path class="cls-7" d="M109.5,47.31A2.54,2.54,0,1,1,107,44.75,2.53,2.53,0,0,1,109.5,47.31Z"/>
                  </g>
                </g>
                <path class="cls-7" d="M104.62,62.57c-2.81,1.49-4.85,2.85-8.27,2.38a22.4,22.4,0,0,1-7.16-2.39c-.44-.23-1,.35-.56.72,4.22,3.75,12.64,4.58,16.56,0A.48.48,0,0,0,104.62,62.57Z"/>
                <g>
                  <path class="cls-7" d="M96.78,59.51c-4.51-.5-1.73-4.81-1.16-7.12a26.7,26.7,0,0,0,.51-6.18.13.13,0,0,0-.25,0c-.65,2.24-1.28,4.56-2,6.77-.52,1.54-1.56,3.14-1.6,4.8-.06,2.7,2.35,3.76,4.69,3A.64.64,0,0,0,96.78,59.51Z"/>
                  <path class="cls-7" d="M101.42,57.21a.65.65,0,0,0-1.2.31c.09,1.07-.83,1.14-1.59,1.56a.36.36,0,0,0,.08.65C100.17,60.2,102.25,58.85,101.42,57.21Z"/>
                </g>
              </g>
            </g>
          </g>
          <path class="cls-10" d="M236.89,478.54c-.81-3.37-6.58-3.48-9.07-3.84a66.19,66.19,0,0,0-9.69-.69c-1.27-.54-2.52-1-3.33-1.27a26,26,0,0,0-2.71-.9c-3.36-2.84-7.78-4.6-10.19-.51-3.94-3.07-10.24-3.6-11.66,1.33a10.12,10.12,0,0,0-15.07,3.11c-2.72-1.78-6.43-.56-7.32,1.87a.82.82,0,0,0-.35,0,7.41,7.41,0,0,0-2,.62,5.22,5.22,0,0,0-3.88,3.41h0c-.31,1.42.47,2.9,3,3.78,6.29,2.2,15.92.82,22.56.68,8.71-.18,17.41-.75,26.08-1.5,4.09-.36,8.18-.76,12.26-1.17,2.58-.26,6.28.08,8.68-1C235.92,481.74,237.42,480.76,236.89,478.54Z"/>
          <path class="cls-3" d="M61.49,131.58c2.46-17.22.27-37.19-7.91-38.32h0c-8.18-1.13-14.68,8.44-16.95,32.26-1.65,17.4-7.93,65.58,2.6,67.72C52.51,195.93,59,149.18,61.49,131.58Z"/>
          <path class="cls-11" d="M165.28,167.35c-5.83-1.33-13.42-.84-19.28.16-.37.06-.27.62.08.63,3.18.12,6.37-.1,9.55-.11s6.42.39,9.55,0C165.56,168,165.71,167.45,165.28,167.35Z"/>
          <g id="ears">
            <g>
              <path class="cls-7" d="M120.64,42.65S124,36.51,128,38.32c2.2,1,.19,17.15-7.31,16.37,0,0-1.33-.43-1.43-3Z"/>
              <path class="cls-12" d="M126.21,40.35s2.12,6.17-.77,7.63c0,0-1.53.48-1.44,1.15s-.6,5.14-2.33,3.71c0,0-1.34-2,.33-2.79s.48-.79-.84-2.42C121.16,47.63,123.63,39.9,126.21,40.35Z"/>
              <path class="cls-13" d="M126.9,44.9a16.22,16.22,0,0,0-.5-3.3,2.24,2.24,0,0,0-.31-.68c-.15-.19-.22-.2-.31-.16s-.21.11-.28.15a2.23,2.23,0,0,0-.27.23,5.25,5.25,0,0,0-.56.59,16.53,16.53,0,0,0-1.84,2.78,6.49,6.49,0,0,0-1,2.91l-.14-.24A6.91,6.91,0,0,1,123,48.8a1.85,1.85,0,0,1,.19.56.82.82,0,0,1-.27.76,1.33,1.33,0,0,1-.65.23l-.25,0a.22.22,0,0,1-.12,0,1.39,1.39,0,0,0-.5,1.4,1.94,1.94,0,0,0,.94,1.49A2,2,0,0,1,121,51.92a1.73,1.73,0,0,1,.49-2l.34-.16.24-.08a.87.87,0,0,0,.29-.09s0,0,0-.1a1.23,1.23,0,0,0-.15-.31A6.69,6.69,0,0,0,121,47.84l-.11-.11,0-.14a3.73,3.73,0,0,1,.26-1.89,10.3,10.3,0,0,1,.71-1.63,13.85,13.85,0,0,1,2.08-2.91,6.14,6.14,0,0,1,.69-.65,4.73,4.73,0,0,1,.44-.3,1.83,1.83,0,0,1,.55-.21,1.09,1.09,0,0,1,1.17.57,3.28,3.28,0,0,1,.28.91A10.57,10.57,0,0,1,126.9,44.9Z"/>
              <path class="cls-13" d="M125.69,46.36a7.46,7.46,0,0,0-.47-2.3,2.52,2.52,0,0,0-.85-1.19,1.12,1.12,0,0,0-.39-.17l-.14,0,.32-1,.27.13a2.17,2.17,0,0,1,.59.43,3.11,3.11,0,0,1,.74,1.69A7.45,7.45,0,0,1,125.69,46.36Z"/>
            </g>
            <g>
              <path class="cls-7" d="M71.83,42.65s-3.39-6.14-7.31-4.33c-2.19,1-.19,17.15,7.31,16.37,0,0,1.33-.43,1.43-3Z"/>
              <path class="cls-12" d="M66.26,40.35S64.14,46.52,67,48c0,0,1.54.48,1.45,1.15s.6,5.14,2.32,3.71c0,0,1.34-2-.33-2.79s-.48-.79.84-2.42C71.31,47.63,68.84,39.9,66.26,40.35Z"/>
              <path class="cls-13" d="M65.57,44.9a11.17,11.17,0,0,1-.14-3.42,3.28,3.28,0,0,1,.28-.91A1.1,1.1,0,0,1,66.89,40a2.05,2.05,0,0,1,.55.21c.19.11.28.2.43.3a6.26,6.26,0,0,1,.7.65,14.17,14.17,0,0,1,2.07,2.91,10.3,10.3,0,0,1,.71,1.63,3.62,3.62,0,0,1,.26,1.89l0,.14-.11.11a6.69,6.69,0,0,0-1.19,1.33,1.23,1.23,0,0,0-.15.31c0,.11,0,.08,0,.1a.87.87,0,0,0,.29.09l.24.08.34.16a1.72,1.72,0,0,1,.49,2,2,2,0,0,1-1.33,1.42,1.94,1.94,0,0,0,.94-1.49,1.39,1.39,0,0,0-.5-1.4.26.26,0,0,1-.12,0l-.25,0a1.33,1.33,0,0,1-.65-.23.82.82,0,0,1-.27-.76,1.85,1.85,0,0,1,.19-.56,7.18,7.18,0,0,1,1.26-1.62l-.14.24a6.49,6.49,0,0,0-1-2.91,16.53,16.53,0,0,0-1.84-2.78,4.48,4.48,0,0,0-.56-.59,2.23,2.23,0,0,0-.27-.23c-.07,0-.1-.12-.28-.15s-.16,0-.31.16a2.51,2.51,0,0,0-.31.68A16.22,16.22,0,0,0,65.57,44.9Z"/>
              <path class="cls-13" d="M66.78,46.36a7.45,7.45,0,0,1-.07-2.42,3.11,3.11,0,0,1,.74-1.69,2.17,2.17,0,0,1,.59-.43l.27-.13.32,1-.14,0a1.2,1.2,0,0,0-.39.17,2.59,2.59,0,0,0-.85,1.19A7.46,7.46,0,0,0,66.78,46.36Z"/>
            </g>
          </g>
          <path class="cls-14" d="M93.34,77.39S80.45,69.47,76.48,64.71C72.86,60.38,70.36,40.49,70,37.05c0-.11,0-.22,0-.34s0-.16,0-.16h0c-.07-.71-.11-1.43-.11-2.15,0-13.25,11.76-24,26.27-24s26.28,10.74,26.28,24a21.55,21.55,0,0,1-.15,2.55h0s-2.58,23-6.55,27.77S98.79,77.39,98.79,77.39A7.6,7.6,0,0,1,93.34,77.39Z"/>
          <path class="cls-13" d="M105.64,37.14A29.78,29.78,0,0,0,102.52,40c-.38.37-.68.78-1,1.15s-.53.77-.76,1.09a2.53,2.53,0,0,0-.23.47l-.16.37-.14.33.08-.35q0-.17.09-.39a2,2,0,0,1,.15-.52c.16-.35.32-.79.56-1.22s.5-.9.82-1.33a30.68,30.68,0,0,1,2.66-3.38Z"/>
          <g id="eye_bros" data-name="eye bros">
            <path class="cls-15" d="M92,34.53s-.43,3.1-1.7,3.36c-3.55.73-9.89-2.7-15.17,1a5.11,5.11,0,0,1,3.48-4C81.69,33.91,91,35,92,34.53Z"/>
            <path class="cls-15" d="M101.1,34.79s.24,3.08,1.46,3.29c3.42.58,9.78-3.12,14.72.37a4.5,4.5,0,0,0-3.16-3.91C111.16,33.74,102.08,35.25,101.1,34.79Z"/>
          </g>
          <g>
            <path class="cls-16" d="M90.42,44.52a1.78,1.78,0,0,0,.21-1.29c-.18-.65-6.66-5.6-11,.43C79.65,43.66,84.47,49.8,90.42,44.52Z"/>
            <path class="cls-17" d="M81.69,45.46l-1.28-.61c-.43-.21-.86-.47-1.3-.72l-.37-.21.29-.63h0l.52-.65A4.53,4.53,0,0,1,80.1,42l.66-.56a6.13,6.13,0,0,1,.73-.48,3.34,3.34,0,0,1,.81-.38,5.19,5.19,0,0,1,.87-.28c.3,0,.59-.12.89-.15H85a8.86,8.86,0,0,1,1.72.32,8.33,8.33,0,0,1,1.57.64,10.67,10.67,0,0,1,1.37.88,8,8,0,0,1,.61.53,2,2,0,0,1,.5.67h0a4.88,4.88,0,0,1-.23,1.1,4.26,4.26,0,0,0,0-1.07h0A2.37,2.37,0,0,0,90,42.8a7.14,7.14,0,0,0-.65-.41,10,10,0,0,0-1.41-.64,9.4,9.4,0,0,0-1.47-.4A8.33,8.33,0,0,0,85,41.24a6.52,6.52,0,0,0-1.41.27,3,3,0,0,0-.65.26,2.38,2.38,0,0,0-.6.34,4.49,4.49,0,0,0-.57.4l-.51.47c-.35.31-.63.71-1,1.05h0l-.08-.83c.22.36.42.74.69,1.12Z"/>
          </g>
          <g>
            <path class="cls-18" d="M88.54,43.34a2.77,2.77,0,1,1-2.76-2.52A2.65,2.65,0,0,1,88.54,43.34Z"/>
            <path class="cls-19" d="M87.08,43.34a1.31,1.31,0,1,1-1.3-1.18A1.24,1.24,0,0,1,87.08,43.34Z"/>
            <path class="cls-16" d="M85.24,42.48a.66.66,0,1,1-.65-.6A.63.63,0,0,1,85.24,42.48Z"/>
          </g>
          <g>
            <path class="cls-16" d="M102.7,44.52a1.78,1.78,0,0,1-.21-1.29c.18-.65,6.66-5.6,11,.43C113.47,43.66,108.65,49.8,102.7,44.52Z"/>
            <path class="cls-17" d="M111.43,45.46l.81-1.14c.27-.38.47-.76.69-1.12l-.08.83h0c-.32-.34-.6-.74-.94-1.05l-.52-.47a4.49,4.49,0,0,0-.57-.4,2.38,2.38,0,0,0-.6-.34,3.27,3.27,0,0,0-.65-.26,6.52,6.52,0,0,0-1.41-.27,8.26,8.26,0,0,0-1.48.11,9.83,9.83,0,0,0-1.48.4,11.11,11.11,0,0,0-1.41.64c-.21.13-.44.26-.65.41a2.52,2.52,0,0,0-.54.45h0a4.26,4.26,0,0,0,0,1.07,4.88,4.88,0,0,1-.23-1.1h0a2.2,2.2,0,0,1,.51-.67,8,8,0,0,1,.61-.53,10.67,10.67,0,0,1,1.37-.88,8.33,8.33,0,0,1,1.57-.64,8.86,8.86,0,0,1,1.72-.32h.91c.3,0,.59.1.89.15a5.19,5.19,0,0,1,.87.28,3.34,3.34,0,0,1,.81.38,7.2,7.2,0,0,1,.74.48L113,42a4.53,4.53,0,0,1,.55.62l.52.65h0l.29.63-.37.21c-.44.25-.87.51-1.3.72Z"/>
          </g>
          <g>
            <path class="cls-18" d="M104.58,43.34a2.77,2.77,0,1,0,2.76-2.52A2.65,2.65,0,0,0,104.58,43.34Z"/>
            <path class="cls-19" d="M106,43.34a1.31,1.31,0,1,0,1.3-1.18A1.24,1.24,0,0,0,106,43.34Z"/>
            <path class="cls-16" d="M107.88,42.48a.66.66,0,1,0,.65-.6A.63.63,0,0,0,107.88,42.48Z"/>
          </g>
          <g id="nose">
            <path class="cls-20" d="M98.71,47.57a65.8,65.8,0,0,0-.15,7.52,2.43,2.43,0,0,1-1.67,2.76s3.63.53,4.18-2.59C101.43,53.15,99.27,50.85,98.71,47.57Z"/>
            <path class="cls-13" d="M95,57.54s-3.48-1.11-2.91-.13S95,57.54,95,57.54Z"/>
          </g>
          <g>
            <path class="cls-15" d="M67.62,38.35s2.62,1.27,3.69,6.24a17.4,17.4,0,0,0,2-7c.49-4.75,1.36-6.08,3.28-9.41,0,0,4.65-6.92,2.61-13.41C77.85,10.6,71,8.58,68.41,13.16,63.34,22.15,66.57,36.71,67.62,38.35Z"/>
            <path d="M75.86,10.41c-2.89-3.32,2.33-6.69,7-8.87-5,1.18-11.59,3.94-10.61,10.26l5.82,6.11s6.68,8.64,15.72,10.45a78.85,78.85,0,0,1-7-4.36,61.11,61.11,0,0,0,19.58,5.45s-6.55-2-9-4.9c0,0,6.37,4.18,18.15,4.9,0,0-4.47-1.32-6.14-2.9,0,0,6,1.49,8,2.9s3.68,12.73,3.68,12.73a17.62,17.62,0,0,1,2.9-3.38s2.85-14.2,1.65-18.06c-.06-.18-.12-.38-.19-.61C120.41,30.07,80.29,15.53,75.86,10.41Z"/>
            <path class="cls-15" d="M70.65,25.26c-2.85-4.18-3.22-12.21,2-14.7h0a5,5,0,0,0-4.22,2.6c-5.07,9-1.84,23.55-.79,25.19,0,0,2.62,1.27,3.69,6.24a17.4,17.4,0,0,0,2-7A23.24,23.24,0,0,1,74,33.4,27.65,27.65,0,0,0,70.65,25.26Z"/>
            <path class="cls-21" d="M125.52,20.13C123.89,15.22,117.18-.69,88,.71a36,36,0,0,0-4.91.77c-1.07.79-1.49,1.76-.61,3C85.77,8.86,115.8,1.66,125.52,20.13Z"/>
            <path class="cls-15" d="M78.09,17.91s6.68,8.64,15.72,10.45a78.85,78.85,0,0,1-7-4.36,61.11,61.11,0,0,0,19.58,5.45s-6.55-2-9-4.9c0,0,6.37,4.18,18.15,4.9,0,0-4.47-1.32-6.14-2.9,0,0,6,1.49,8,2.9s3.68,12.73,3.68,12.73a17.62,17.62,0,0,1,2.9-3.38s2.85-14.2,1.65-18.06c-1.25-4-7.2-21.5-37.67-20,0,0-17.31,1.13-15.77,11.09Z"/>
          </g>
          <g id="mouth">
            <path class="cls-16" d="M96.33,62c-4.7-.07-8.55-.44-8.55-.44.51,2.16,4.78,2.91,8.55,2.92s8-.76,8.56-2.92C104.89,61.6,101,62,96.33,62Z"/>
            <path class="cls-15" d="M107.83,60.63c-2.41-1.69-11.1-2.2-11.1-2.2s-8.7.51-11.11,2.2a3.62,3.62,0,0,0-1.72,3.89s1.23-2.57,3-2.25c1,.19,9.86.8,9.86-1.69,0,2.49,8.85,1.65,9.85,1.69,1.36.06,3,1.95,3,1.95S110.24,62.33,107.83,60.63Z"/>
          </g>
          <path class="cls-3" d="M135.28,131.38c-5.76-16.42-7.48-36.43.33-39.12h0c7.8-2.69,16,5.44,22.88,28.37,5,16.75,22.08,62,10.88,67.66C157.27,194.39,141.17,148.16,135.28,131.38Z"/>
          <g>
            <path class="cls-22" d="M112,83.65a15.45,15.45,0,0,1-30.89-.43C69,85.08,55.85,88.11,55.85,88.11L60,204.35l71.45.52,5.83-116.16S124.28,85.71,112,83.65Z"/>
            <path class="cls-22" d="M57.1,87.84c-5.28.75-9.12,4.07-11.65,7.55-4.2,5.79-8.9,13.51-10.47,30-.17,1.84-.4,4-.65,6.47-.46,4.42-1,9.43-1.46,14.84a1.67,1.67,0,0,0,1.33,1.77c8.14,1.65,24,4.89,25.87,3.67s4.17-10.71,7.06-26"/>
            <path class="cls-22" d="M131.74,87.87c3.54.55,7.82,1.07,11.35,2.9,11.88,6.16,23.76,44.06,24.79,49.38.31,1.63-3.06,2.69-10.24,6.21-7.45,3.67-15.46,5.59-17.48,4.75s-5.68-9.55-11.46-24"/>
          </g>
          <path class="cls-23" d="M150.44,285.73,144.18,145c.14-7.4-3.33-13.17-4.79-19-.91-3.64-3.77-4.1-6.24-3.9-1.9-4.25-15.21-34-18.93-40.08-1.56-.1-3.15-.19-4.77-.25,1.39,3.41,12.4,22.85,16.18,40.92l-5.79.08-33,.5C86.2,120.37,77.71,83.72,74.32,83l-3.91.33s8.8,20.66,9.72,40.08h0l-1.45,0a4,4,0,0,0-4.1,3.64c-.53,15.86-17.45,26.25-17.45,26.25L56,218.49c1.68,7.62,3.56,17.11,5.5,27,3.15,16,6.43,33.26,9.24,45.76,1.42,6.32,14.48,5.44,21.65,5.44h46.34C145.39,296.74,150.73,291.71,150.44,285.73Z"/>
          <g>
            <rect class="cls-24" x="143.16" y="433.53" width="80.59" height="20.54" transform="translate(-120.04 71.64) rotate(-16.74)"/>
            <path class="cls-25" d="M185.69,429.29l-12.1,3.64L83,131.65a6.32,6.32,0,0,1,4.23-7.88h0A6.32,6.32,0,0,1,95.08,128Z"/>
            <path class="cls-26" d="M169.36,418.88l4.23,14.05,12.1-3.64-4.37-14.55Q175.41,417,169.36,418.88Z"/>
            <path class="cls-25" d="M220.73,423.89l-79.35,23.86A3.51,3.51,0,0,1,137,445.4h0a3.52,3.52,0,0,1,2.35-4.37l79.36-23.87a3.51,3.51,0,0,1,4.38,2.35h0A3.53,3.53,0,0,1,220.73,423.89Z"/>
          </g>
          <path class="cls-3" d="M172.06,171.55c1.07,1.73,1.44,4.28,1.44,7.95,0,5-1.26,7.46-4.82,9.1-2.17,1-5.39.76-8,.6-14.06-.83-42.53-5.47-47.4-5.31a50.71,50.71,0,0,1-7.9,0c-4.9-.46-5.61-1.44-9-2.63-2.6-.91-3.73-3.85-1-4.35-3-.68-4.26-3.72-1.35-4.88-3.23.17-4.25-4.05-1.22-4.69-3-1.4-1.68-5,1.15-4.33,3.94.88,10.26,1.65,12.62,3.18-.64-1.65-.57-2.18-.85-2.92,1.39.8,6.24,3.83,7.5,5.67,8.2-1.08,28.07-1.11,40.79-.94"/>
          <path class="cls-3" d="M33.5,179.5c-.15,4.81,1.33,14.41,4.3,17,1.82,1.55,5,2.5,7.58,3.06,13.76,3,43.19,5.68,47.7,7.25,2.86,1,10.8,3.83,14,4.41,4.84.88,9.7-.82,13.67.21,2.66.7,1.92-4.46-1.1-4.35,2.94,0,1.49-4.18-2-5,3-1.34,1.74-5.25-1.61-5.65,1.86-1.29.88-4.79-2-4.94-4-.21-10.5,1.26-13,1.61a26.81,26.81,0,0,0-1.36-3.73c-.48,1.25-.52,2.48-2.24,3.91C87.5,189,57.7,177.94,49.3,175.87"/>
        </g>
      </g>
    </g>
  </g>
</svg>
