<svg xmlns="http://www.w3.org/2000/svg" xmlns:xlink="http://www.w3.org/1999/xlink" width="289" height="639" viewBox="0 0 289 639">
  <defs>
    <style>
      .cls-1 {
        mask: url(#mask);
        filter: url(#luminosity-noclip-10);
      }

      .Graphic-Style-7, .cls-10, .cls-12, .cls-14, .cls-16, .cls-18, .cls-2, .cls-28, .cls-32, .cls-35, .cls-4, .cls-42, .cls-6, .cls-8 {
        mix-blend-mode: multiply;
      }

      .cls-2 {
        fill: url(#linear-gradient);
      }

      .cls-3 {
        mask: url(#mask-2);
        filter: url(#luminosity-noclip-15);
      }

      .cls-4 {
        fill: url(#linear-gradient-2);
      }

      .cls-5 {
        mask: url(#mask-3);
        filter: url(#luminosity-noclip-16);
      }

      .cls-6 {
        fill: url(#linear-gradient-3);
      }

      .cls-7 {
        mask: url(#mask-4);
        filter: url(#luminosity-noclip-17);
      }

      .cls-8 {
        fill: url(#linear-gradient-4);
      }

      .cls-9 {
        mask: url(#mask-5);
        filter: url(#luminosity-noclip-18);
      }

      .cls-10 {
        fill: url(#linear-gradient-5);
      }

      .cls-11 {
        mask: url(#mask-6);
        filter: url(#luminosity-noclip-11);
      }

      .cls-12 {
        fill: url(#linear-gradient-6);
      }

      .cls-13 {
        mask: url(#mask-7);
        filter: url(#luminosity-noclip-12);
      }

      .cls-14 {
        fill: url(#linear-gradient-7);
      }

      .cls-15 {
        mask: url(#mask-8);
        filter: url(#luminosity-noclip-13);
      }

      .cls-16 {
        fill: url(#linear-gradient-8);
      }

      .cls-17 {
        mask: url(#mask-9);
        filter: url(#luminosity-noclip-14);
      }

      .cls-18 {
        fill: url(#linear-gradient-9);
      }

      .cls-19 {
        isolation: isolate;
      }

      .cls-20 {
        opacity: 0.3;
      }

      .cls-21 {
        fill: #342517;
      }

      .cls-22, .cls-48 {
        fill: #fbd3c7;
      }

      .cls-22 {
        stroke: #453323;
      }

      .cls-22, .cls-30, .cls-37, .cls-38, .cls-39, .cls-51, .cls-54, .cls-64, .cls-67, .cls-68, .cls-69, .cls-70, .cls-71, .cls-74, .cls-75, .cls-78, .cls-79 {
        stroke-miterlimit: 10;
      }

      .cls-23 {
        mask: url(#mask-10);
      }

      .cls-24 {
        fill: #dd9f8f;
      }

      .cls-25 {
        fill: #70287f;
      }

      .cls-26 {
        fill: url(#radial-gradient);
      }

      .cls-27 {
        mask: url(#mask-11);
      }

      .cls-28, .cls-42 {
        opacity: 0.4;
      }

      .cls-28 {
        fill: url(#linear-gradient-10);
      }

      .cls-29 {
        mask: url(#mask-12);
      }

      .cls-30, .cls-37, .cls-38, .cls-69, .cls-70, .cls-71, .cls-78, .cls-79 {
        stroke: #563b35;
      }

      .cls-30 {
        fill: url(#radial-gradient-2);
      }

      .cls-31 {
        mask: url(#mask-13);
      }

      .cls-32 {
        fill: url(#linear-gradient-11);
      }

      .cls-33 {
        mask: url(#mask-14);
      }

      .Graphic-Style-7 {
        fill: url(#linear-gradient-12);
      }

      .cls-34 {
        mask: url(#mask-15);
      }

      .cls-35 {
        fill: url(#linear-gradient-13);
      }

      .cls-36 {
        fill: #c4628b;
      }

      .cls-37 {
        fill: url(#radial-gradient-3);
      }

      .cls-38 {
        fill: #f9f1ef;
      }

      .cls-39 {
        fill: #faf079;
        stroke: #9a9435;
      }

      .cls-40 {
        fill: url(#radial-gradient-4);
      }

      .cls-41 {
        mask: url(#mask-16);
      }

      .cls-42 {
        fill: url(#linear-gradient-14);
      }

      .cls-43 {
        mask: url(#mask-17);
      }

      .cls-44, .cls-46 {
        mix-blend-mode: darken;
      }

      .cls-44 {
        fill: url(#linear-gradient-15);
      }

      .cls-45 {
        mask: url(#mask-18);
      }

      .cls-46 {
        fill: url(#linear-gradient-16);
      }

      .cls-47 {
        fill: #914c37;
      }

      .cls-49 {
        fill: #453323;
      }

      .cls-50 {
        fill: #342516;
      }

      .cls-51, .cls-74, .cls-76 {
        fill: #f9dad2;
      }

      .cls-51, .cls-74, .cls-75 {
        stroke: #4c2606;
      }

      .cls-52 {
        fill: #b26b51;
      }

      .cls-53 {
        fill: #eaa698;
        opacity: 0.5;
      }

      .cls-54, .cls-56 {
        fill: #fff;
      }

      .cls-54 {
        stroke: #3d2d16;
      }

      .cls-54, .cls-74, .cls-75 {
        stroke-width: 0.75px;
      }

      .cls-55 {
        fill: #3d2d16;
      }

      .cls-57 {
        fill: #8c3d35;
      }

      .cls-58 {
        fill: #7a2f2b;
      }

      .cls-59 {
        fill: #f9988f;
      }

      .cls-60 {
        fill: #f58778;
      }

      .cls-61 {
        fill: #fff7f4;
      }

      .cls-62 {
        fill: #f48a71;
      }

      .cls-63 {
        fill: #ef4b3b;
      }

      .cls-64 {
        fill: #fe66ca;
      }

      .cls-64, .cls-67 {
        stroke: #af1086;
        stroke-width: 2px;
      }

      .cls-65 {
        fill: #fffa71;
      }

      .cls-66 {
        fill: #cc0098;
      }

      .cls-67 {
        fill: #e852bb;
      }

      .cls-68 {
        fill: #e7d760;
        stroke: #baa73b;
      }

      .cls-69 {
        fill: url(#radial-gradient-5);
      }

      .cls-70 {
        fill: url(#radial-gradient-6);
      }

      .cls-71 {
        fill: url(#radial-gradient-7);
      }

      .cls-72 {
        fill: #ba8313;
      }

      .cls-73 {
        fill: #f86909;
      }

      .cls-75 {
        fill: none;
      }

      .cls-77 {
        fill: #4c2606;
      }

      .cls-78 {
        fill: url(#radial-gradient-8);
      }

      .cls-79 {
        fill: url(#radial-gradient-9);
      }

      .cls-80 {
        filter: url(#luminosity-noclip-9);
      }

      .cls-81 {
        filter: url(#luminosity-noclip-8);
      }

      .cls-82 {
        filter: url(#luminosity-noclip-7);
      }

      .cls-83 {
        filter: url(#luminosity-noclip-6);
      }

      .cls-84 {
        filter: url(#luminosity-noclip-5);
      }

      .cls-85 {
        filter: url(#luminosity-noclip-4);
      }

      .cls-86 {
        filter: url(#luminosity-noclip-3);
      }

      .cls-87 {
        filter: url(#luminosity-noclip-2);
      }

      .cls-88 {
        filter: url(#luminosity-noclip);
      }
    </style>
    <filter id="luminosity-noclip" x="82.79" y="-8480" width="34.32" height="32766" filterUnits="userSpaceOnUse" color-interpolation-filters="sRGB">
      <feFlood flood-color="#fff" result="bg"/>
      <feBlend in="SourceGraphic" in2="bg"/>
    </filter>
    <mask id="mask" x="82.79" y="-8480" width="34.32" height="32766" maskUnits="userSpaceOnUse">
      <g class="cls-88"/>
    </mask>
    <linearGradient id="linear-gradient" x1="6194.6" y1="532.15" x2="6275.37" y2="560.5" gradientTransform="matrix(-1, 0, 0, 1, 6353.97, 0)" gradientUnits="userSpaceOnUse">
      <stop offset="0" stop-color="#fff"/>
      <stop offset="1"/>
    </linearGradient>
    <filter id="luminosity-noclip-2" x="28.84" y="-8480" width="41.38" height="32766" filterUnits="userSpaceOnUse" color-interpolation-filters="sRGB">
      <feFlood flood-color="#fff" result="bg"/>
      <feBlend in="SourceGraphic" in2="bg"/>
    </filter>
    <mask id="mask-2" x="28.84" y="-8480" width="41.38" height="32766" maskUnits="userSpaceOnUse">
      <g class="cls-87"/>
    </mask>
    <linearGradient id="linear-gradient-2" x1="6389.49" y1="412.77" x2="6278.85" y2="445.89" xlink:href="#linear-gradient"/>
    <filter id="luminosity-noclip-3" x="184.95" y="-8480" width="24.21" height="32766" filterUnits="userSpaceOnUse" color-interpolation-filters="sRGB">
      <feFlood flood-color="#fff" result="bg"/>
      <feBlend in="SourceGraphic" in2="bg"/>
    </filter>
    <mask id="mask-3" x="184.95" y="-8480" width="24.21" height="32766" maskUnits="userSpaceOnUse">
      <g class="cls-86"/>
    </mask>
    <linearGradient id="linear-gradient-3" x1="6113.63" y1="553.51" x2="6177.1" y2="615.22" xlink:href="#linear-gradient"/>
    <filter id="luminosity-noclip-4" x="161.77" y="-8480" width="28.33" height="32766" filterUnits="userSpaceOnUse" color-interpolation-filters="sRGB">
      <feFlood flood-color="#fff" result="bg"/>
      <feBlend in="SourceGraphic" in2="bg"/>
    </filter>
    <mask id="mask-4" x="161.77" y="-8480" width="28.33" height="32766" maskUnits="userSpaceOnUse">
      <g class="cls-85"/>
    </mask>
    <linearGradient id="linear-gradient-4" x1="6214.31" y1="356.81" x2="6171.42" y2="328.46" xlink:href="#linear-gradient"/>
    <filter id="luminosity-noclip-5" x="231.79" y="-8480" width="19.53" height="32766" filterUnits="userSpaceOnUse" color-interpolation-filters="sRGB">
      <feFlood flood-color="#fff" result="bg"/>
      <feBlend in="SourceGraphic" in2="bg"/>
    </filter>
    <mask id="mask-5" x="231.79" y="-8480" width="19.53" height="32766" maskUnits="userSpaceOnUse">
      <g class="cls-84"/>
    </mask>
    <linearGradient id="linear-gradient-5" x1="6118.17" y1="266.12" x2="6103.75" y2="291.58" xlink:href="#linear-gradient"/>
    <filter id="luminosity-noclip-6" x="109.5" y="-8480" width="6.97" height="32766" filterUnits="userSpaceOnUse" color-interpolation-filters="sRGB">
      <feFlood flood-color="#fff" result="bg"/>
      <feBlend in="SourceGraphic" in2="bg"/>
    </filter>
    <mask id="mask-6" x="109.5" y="-8480" width="6.97" height="32766" maskUnits="userSpaceOnUse">
      <g class="cls-83"/>
    </mask>
    <linearGradient id="linear-gradient-6" x1="6184.09" y1="568.97" x2="6270.64" y2="612.62" xlink:href="#linear-gradient"/>
    <filter id="luminosity-noclip-7" x="134.29" y="-8480" width="64.9" height="32766" filterUnits="userSpaceOnUse" color-interpolation-filters="sRGB">
      <feFlood flood-color="#fff" result="bg"/>
      <feBlend in="SourceGraphic" in2="bg"/>
    </filter>
    <mask id="mask-7" x="134.29" y="-8480" width="64.9" height="32766" maskUnits="userSpaceOnUse">
      <g class="cls-82"/>
    </mask>
    <linearGradient id="linear-gradient-7" x1="6190.39" y1="471.68" x2="6185.5" y2="596.23" xlink:href="#linear-gradient"/>
    <filter id="luminosity-noclip-8" x="147.1" y="-8480" width="20.39" height="32766" filterUnits="userSpaceOnUse" color-interpolation-filters="sRGB">
      <feFlood flood-color="#fff" result="bg"/>
      <feBlend in="SourceGraphic" in2="bg"/>
    </filter>
    <mask id="mask-8" x="147.1" y="-8480" width="20.39" height="32766" maskUnits="userSpaceOnUse">
      <g class="cls-81"/>
    </mask>
    <linearGradient id="linear-gradient-8" x1="6127.25" y1="704.33" x2="6201.01" y2="612.13" gradientTransform="matrix(-1, -0.03, -0.03, 1, 6365.03, 108.47)" xlink:href="#linear-gradient"/>
    <filter id="luminosity-noclip-9" x="146.35" y="-8480" width="48.91" height="32766" filterUnits="userSpaceOnUse" color-interpolation-filters="sRGB">
      <feFlood flood-color="#fff" result="bg"/>
      <feBlend in="SourceGraphic" in2="bg"/>
    </filter>
    <mask id="mask-9" x="146.35" y="-8480" width="48.91" height="32766" maskUnits="userSpaceOnUse">
      <g class="cls-80"/>
    </mask>
    <linearGradient id="linear-gradient-9" x1="5881.11" y1="512.92" x2="6320.03" y2="412.07" xlink:href="#linear-gradient"/>
    <filter id="luminosity-noclip-10" x="82.79" y="505.91" width="34.32" height="90.88" filterUnits="userSpaceOnUse" color-interpolation-filters="sRGB">
      <feFlood flood-color="#fff" result="bg"/>
      <feBlend in="SourceGraphic" in2="bg"/>
    </filter>
    <mask id="mask-10" x="82.79" y="505.91" width="34.32" height="90.88" maskUnits="userSpaceOnUse">
      <g class="cls-1">
        <path class="cls-2" d="M82.79,515.59c1.23,5.6,2.89,13.46,4.39,20.6a60.15,60.15,0,0,0,15.15-.52c4.51-.75,7.52,8.28,8,16.8s1.51,12.31.52,20.08-1.78,22.34-1.78,22.82a6.23,6.23,0,0,0,.66,1.41c3.13-4.66,4.82-9.87,4.7-14-.3-10.36,1.23-19.39.3-24.57-1-5.39-.3-13.61,0-21.88s1.47-17.77,2.35-25.47C104.4,502.26,94.32,505.54,82.79,515.59Z"/>
      </g>
    </mask>
    <radialGradient id="radial-gradient" cx="6264.35" cy="615.75" r="19.89" gradientTransform="matrix(-1, 0, 0, 1, 6353.97, 0)" gradientUnits="userSpaceOnUse">
      <stop offset="0.15" stop-color="#f9edf1"/>
      <stop offset="0.66" stop-color="#efe0e5"/>
      <stop offset="1" stop-color="#e6d5db"/>
    </radialGradient>
    <filter id="luminosity-noclip-11" x="109.5" y="578.36" width="6.97" height="41.45" filterUnits="userSpaceOnUse" color-interpolation-filters="sRGB">
      <feFlood flood-color="#fff" result="bg"/>
      <feBlend in="SourceGraphic" in2="bg"/>
    </filter>
    <mask id="mask-11" x="109.5" y="578.36" width="6.97" height="41.45" maskUnits="userSpaceOnUse">
      <g class="cls-11">
        <path class="cls-12" d="M110.12,619.81c3.92-2.31,5.93-5.14,6.14-7.13.12-1.08.19-3,.22-5.27,0-6.74-.34-17.07-.7-21.55-.24-2.65-2.41-5.39-5.57-7.5,0,9.06-.21,19.51-.6,25.56A128.15,128.15,0,0,0,110.12,619.81Z"/>
      </g>
    </mask>
    <linearGradient id="linear-gradient-10" x1="6184.09" y1="568.97" x2="6270.64" y2="612.62" gradientTransform="matrix(-1, 0, 0, 1, 6353.97, 0)" gradientUnits="userSpaceOnUse">
      <stop offset="0" stop-color="#383433"/>
      <stop offset="1" stop-color="#383432"/>
    </linearGradient>
    <filter id="luminosity-noclip-12" x="134.29" y="501.79" width="64.9" height="89.04" filterUnits="userSpaceOnUse" color-interpolation-filters="sRGB">
      <feFlood flood-color="#fff" result="bg"/>
      <feBlend in="SourceGraphic" in2="bg"/>
    </filter>
    <mask id="mask-12" x="134.29" y="501.79" width="64.9" height="89.04" maskUnits="userSpaceOnUse">
      <g class="cls-13">
        <path class="cls-14" d="M134.29,513.34c.66,2.89,1.38,5.78,2,8.49,2.11,4.15,5.06,9.3,8.07,14.51,7.14,1.17,14.48-.09,19.72-.85,6.38-1,9,14.3,10.9,20.11s9.6,18.64,13.94,26.55c2.07,3.86,6.38,6.75,10.23,8.67a49.14,49.14,0,0,0-2.05-9.24c-3.82-6.8-6.47-9.09-10-14.42s-5.87-6.92-7.2-13.42-6.59-32.76-8.45-47.6C160.21,496.36,146.75,505,134.29,513.34Z"/>
      </g>
    </mask>
    <radialGradient id="radial-gradient-2" cx="6248.68" cy="525.84" r="134.17" gradientTransform="matrix(-1, 0, 0, 1, 6353.97, 0)" gradientUnits="userSpaceOnUse">
      <stop offset="0.13" stop-color="#f186b3"/>
      <stop offset="1" stop-color="#e977a7"/>
    </radialGradient>
    <filter id="luminosity-noclip-13" x="147.1" y="516.91" width="20.39" height="13.11" filterUnits="userSpaceOnUse" color-interpolation-filters="sRGB">
      <feFlood flood-color="#fff" result="bg"/>
      <feBlend in="SourceGraphic" in2="bg"/>
    </filter>
    <mask id="mask-13" x="147.1" y="516.91" width="20.39" height="13.11" maskUnits="userSpaceOnUse">
      <g class="cls-15">
        <path class="cls-16" d="M147.1,530a34.13,34.13,0,0,0,9.06-3.19,89.6,89.6,0,0,1,11.34-4.89C161.91,515.16,153,513,147.1,530Z"/>
      </g>
    </mask>
    <linearGradient id="linear-gradient-11" x1="6127.25" y1="704.33" x2="6201.01" y2="612.13" gradientTransform="matrix(-1, -0.03, -0.03, 1, 6365.03, 108.47)" gradientUnits="userSpaceOnUse">
      <stop offset="0" stop-color="#b191a3"/>
      <stop offset="1" stop-color="#b191a3"/>
    </linearGradient>
    <filter id="luminosity-noclip-14" x="146.35" y="367.44" width="48.91" height="149.77" filterUnits="userSpaceOnUse" color-interpolation-filters="sRGB">
      <feFlood flood-color="#fff" result="bg"/>
      <feBlend in="SourceGraphic" in2="bg"/>
    </filter>
    <mask id="mask-14" x="146.35" y="367.44" width="48.91" height="149.77" maskUnits="userSpaceOnUse">
      <g class="cls-17">
        <path class="cls-18" d="M173.21,456.27c2.68,13.13,8.06,44.87,10.32,60.94.39-.14.79-.24,1.19-.35,10.64-3.05,11.88-6.74,9.56-15.86s-28.45-103.8-33.87-122.85c-2.11-1.57-6.68-10.32-13.15-10.71-.55,1.65-.91,2.8-.91,2.8,4.4,15.62,10.54,40.4,13.34,52.26.87,3.73,1.41,6.2,1.47,6.68-.24-3.58-.45-6.68-.66-9.42v-.15c-1.14-15-1.95-18.61-2.59-24.54C157.16,388,169.68,439,173.21,456.27Z"/>
      </g>
    </mask>
    <linearGradient id="linear-gradient-12" x1="5881.11" y1="512.92" x2="6320.03" y2="412.07" gradientTransform="matrix(-1, 0, 0, 1, 6353.97, 0)" xlink:href="#linear-gradient-11"/>
    <filter id="luminosity-noclip-15" x="28.84" y="369.54" width="41.38" height="137.45" filterUnits="userSpaceOnUse" color-interpolation-filters="sRGB">
      <feFlood flood-color="#fff" result="bg"/>
      <feBlend in="SourceGraphic" in2="bg"/>
    </filter>
    <mask id="mask-15" x="28.84" y="369.54" width="41.38" height="137.45" maskUnits="userSpaceOnUse">
      <g class="cls-3">
        <path class="cls-4" d="M29.13,507c7.49-28.06,35.76-120.12,41.09-137.46-1.87.49-3.91,1-6.14,1.69-5.27,16.92-33.48,122.67-35,130.2A14.5,14.5,0,0,0,29.13,507Z"/>
      </g>
    </mask>
    <linearGradient id="linear-gradient-13" x1="6389.49" y1="412.77" x2="6278.85" y2="445.89" gradientTransform="matrix(-1, 0, 0, 1, 6353.97, 0)" xlink:href="#linear-gradient-11"/>
    <radialGradient id="radial-gradient-3" cx="6238.47" cy="328.63" r="56.94" xlink:href="#radial-gradient-2"/>
    <radialGradient id="radial-gradient-4" cx="6171.82" cy="615.75" r="19.97" xlink:href="#radial-gradient"/>
    <filter id="luminosity-noclip-16" x="184.95" y="576.13" width="24.21" height="45.49" filterUnits="userSpaceOnUse" color-interpolation-filters="sRGB">
      <feFlood flood-color="#fff" result="bg"/>
      <feBlend in="SourceGraphic" in2="bg"/>
    </filter>
    <mask id="mask-16" x="184.95" y="576.13" width="24.21" height="45.49" maskUnits="userSpaceOnUse">
      <g class="cls-5">
        <path class="cls-6" d="M185,576.13c6.68,10.6,12.82,26.86,13.72,45.49,7.08-2.08,10-5.18,10.27-8.94.12-1.36.18-2.83.21-4.4.06-5-.54-10.74-2.41-14.42a78.86,78.86,0,0,0-7.83-12A55.47,55.47,0,0,0,185,576.13Z"/>
      </g>
    </mask>
    <linearGradient id="linear-gradient-14" x1="6113.63" y1="553.51" x2="6177.1" y2="615.22" xlink:href="#linear-gradient-10"/>
    <filter id="luminosity-noclip-17" x="161.77" y="313.14" width="28.33" height="43.41" filterUnits="userSpaceOnUse" color-interpolation-filters="sRGB">
      <feFlood flood-color="#fff" result="bg"/>
      <feBlend in="SourceGraphic" in2="bg"/>
    </filter>
    <mask id="mask-17" x="161.77" y="313.14" width="28.33" height="43.41" maskUnits="userSpaceOnUse">
      <g class="cls-7">
        <path class="cls-8" d="M161.77,313.14a80.36,80.36,0,0,0,3,14.06c6.78,13.55,11.77,26.1,18.55,29.35A13.2,13.2,0,0,0,190.1,351a9.43,9.43,0,0,1-5.24-2.17C178.6,343.79,167.52,324.22,161.77,313.14Z"/>
      </g>
    </mask>
    <linearGradient id="linear-gradient-15" x1="6214.31" y1="356.81" x2="6171.42" y2="328.46" gradientTransform="matrix(-1, 0, 0, 1, 6353.97, 0)" gradientUnits="userSpaceOnUse">
      <stop offset="0" stop-color="#e77e65"/>
      <stop offset="1" stop-color="#e77e65"/>
    </linearGradient>
    <filter id="luminosity-noclip-18" x="231.79" y="265.1" width="19.53" height="20.95" filterUnits="userSpaceOnUse" color-interpolation-filters="sRGB">
      <feFlood flood-color="#fff" result="bg"/>
      <feBlend in="SourceGraphic" in2="bg"/>
    </filter>
    <mask id="mask-18" x="231.79" y="265.1" width="19.53" height="20.95" maskUnits="userSpaceOnUse">
      <g class="cls-9">
        <path class="cls-10" d="M250.76,271.39a7.64,7.64,0,0,0-.24-6.29c-.42,3.1-1.39,6.32-3.19,7.4-4.52,2.77-9.4,5.54-10.66,5.78-1.63,4.64-2.89,6.15-4.88,7.77,4.25-1.11,5.54-4.36,7.17-7.13C246.09,276.9,249.61,274,250.76,271.39Z"/>
      </g>
    </mask>
    <linearGradient id="linear-gradient-16" x1="6118.17" y1="266.12" x2="6103.75" y2="291.58" xlink:href="#linear-gradient-15"/>
    <radialGradient id="radial-gradient-5" cx="6287.94" cy="300.88" r="27.23" xlink:href="#radial-gradient-2"/>
    <radialGradient id="radial-gradient-6" cx="6180.7" cy="305.05" r="23.77" xlink:href="#radial-gradient-2"/>
    <radialGradient id="radial-gradient-7" cx="6189.55" cy="316.67" r="11.25" xlink:href="#radial-gradient-2"/>
    <radialGradient id="radial-gradient-8" cx="53.85" cy="304.04" r="25.24" gradientTransform="matrix(1, 0, 0, 1, 0, 0)" xlink:href="#radial-gradient-2"/>
    <radialGradient id="radial-gradient-9" cx="66.25" cy="334.32" r="7.92" gradientTransform="matrix(1, 0, 0, 1, 0, 0)" xlink:href="#radial-gradient-2"/>
  </defs>
  <g class="cls-19">
    <g id="Layer_1" data-name="Layer 1">
      <g>
        <ellipse class="cls-20" cx="133.65" cy="616.9" rx="121.76" ry="20.06"/>
        <g>
          <g>
            <path class="cls-21" d="M209.79,100.06s19.53,51.57,13.35,93.12,15.16,53.63-12,77.11S130.7,304.15,108,281.83c0,0-15.11,4.46-51.28-1S-6.67,258.5,3.39,224.19s5.16-79.75,6.73-106.71S45.29,58.93,116,78,209.79,100.06,209.79,100.06Z"/>
            <g>
              <g>
                <path class="cls-22" d="M86.94,608.19c10.12,1.24,18.1-4.42,22.82-11.41,3.13-4.66,4.82-9.87,4.7-14-.3-10.36,1.23-19.39.3-24.57-1-5.39-.3-13.61,0-21.88s1.47-17.77,2.35-25.47c-12.71-8.58-22.79-5.3-34.32,4.75,1.23,5.6,2.89,13.46,4.39,20.6,1.78,8.24,3.29,15.53,3.59,17.27.6,3.26-3.26,8-6.81,13.31s-5.6,8-9.45,14.81C70.66,594.29,70.05,606.15,86.94,608.19Z"/>
                <g class="cls-23">
                  <path class="cls-24" d="M82.79,515.59c1.23,5.6,2.89,13.46,4.39,20.6a60.15,60.15,0,0,0,15.15-.52c4.51-.75,7.52,8.28,8,16.8s1.51,12.31.52,20.08-1.78,22.34-1.78,22.82a6.23,6.23,0,0,0,.66,1.41c3.13-4.66,4.82-9.87,4.7-14-.3-10.36,1.23-19.39.3-24.57-1-5.39-.3-13.61,0-21.88s1.47-17.77,2.35-25.47C104.4,502.26,94.32,505.54,82.79,515.59Z"/>
                </g>
              </g>
              <g>
                <path class="cls-25" d="M62.77,608.28c0,1.57.09,3,.21,4.4.45,5.78,7,10.05,25.56,11.29,9.93.69,17.07-1.39,21.58-4.16,3.92-2.31,5.93-5.14,6.14-7.13.12-1.08.19-3,.22-5.27,0-6.74-.34-17.07-.7-21.55-.24-2.65-2.41-5.39-5.57-7.5a23.44,23.44,0,0,0-14.87-3.79,56.18,56.18,0,0,0-22.4,7.25,79.57,79.57,0,0,0-7.79,12C63.28,597.54,62.71,603.23,62.77,608.28Z"/>
                <path class="cls-26" d="M116.48,607.41c0,2.29-.09,4.19-.2,5.27C115.78,617,107,625.23,88.53,624S63.44,618.46,63,612.68c-.12-1.36-.17-2.83-.2-4.4,2.1,4.76,9.43,9.82,26.72,9.82C105.53,618.1,113.44,612.83,116.48,607.41Z"/>
                <g class="cls-27">
                  <path class="cls-28" d="M110.12,619.81c3.92-2.31,5.93-5.14,6.14-7.13.12-1.08.19-3,.22-5.27,0-6.74-.34-17.07-.7-21.55-.24-2.65-2.41-5.39-5.57-7.5,0,9.06-.21,19.51-.6,25.56A128.15,128.15,0,0,0,110.12,619.81Z"/>
                </g>
              </g>
              <g>
                <path class="cls-22" d="M133.26,514c.18,1.59,1.36,4.36,3.07,7.8,2.11,4.15,5.06,9.3,8.07,14.51,5.57,9.69,11.35,19.59,12.19,23.78,1.06,5.15.91,12.28.61,22.64s10.65,27.51,27.54,25.43c10.36-1.26,14.12-6.2,14.6-12.76a21.81,21.81,0,0,0-.15-4.61,49.14,49.14,0,0,0-2.05-9.24c-3.82-6.8-6.47-9.09-10-14.42s-5.87-6.92-7.2-13.42-6.59-32.76-8.45-47.6c-11.26-9.78-24.72-1.17-37.18,7.2C134,513.58,133.59,513.79,133.26,514Z"/>
                <g class="cls-29">
                  <path class="cls-24" d="M134.29,513.34c.66,2.89,1.38,5.78,2,8.49,2.11,4.15,5.06,9.3,8.07,14.51,7.14,1.17,14.48-.09,19.72-.85,6.38-1,9,14.3,10.9,20.11s9.6,18.64,13.94,26.55c2.07,3.86,6.38,6.75,10.23,8.67a49.14,49.14,0,0,0-2.05-9.24c-3.82-6.8-6.47-9.09-10-14.42s-5.87-6.92-7.2-13.42-6.59-32.76-8.45-47.6C160.21,496.36,146.75,505,134.29,513.34Z"/>
                </g>
              </g>
              <g>
                <path class="cls-30" d="M29.13,507v0c1.29,5.63,5.27,10.33,12.1,10.29,9-.06,13.07,3.81,23.09,8.66s20.57,3.7,28.93,1.36,18.14-2,30.45,1c8.72,2.13,16.16,3.13,23.4,1.65a34.13,34.13,0,0,0,9.06-3.19,89.6,89.6,0,0,1,11.34-4.89c5.15-1.81,10.13-3.09,16-4.73.39-.14.79-.24,1.19-.35,10.64-3.05,11.88-6.74,9.56-15.86s-28.45-103.8-33.87-122.85c-2.11-1.57-6.68-10.32-13.15-10.71-10.09-.63-24.15-.09-37.84.6-16.89.84-20.63-3.13-39.2,1.5-1.87.49-3.91,1-6.14,1.69C62.27,377,57.85,393,52.7,411.87c-3.82,14.21-8.1,30.07-11.92,44.49-6.08,22.85-11.08,42-11.68,45.07A14.5,14.5,0,0,0,29.13,507Z"/>
                <g class="cls-31">
                  <path class="cls-32" d="M147.1,530a34.13,34.13,0,0,0,9.06-3.19,89.6,89.6,0,0,1,11.34-4.89C161.91,515.16,153,513,147.1,530Z"/>
                </g>
                <g class="cls-33">
                  <path class="Graphic-Style-7" d="M173.21,456.27c2.68,13.13,8.06,44.87,10.32,60.94.39-.14.79-.24,1.19-.35,10.64-3.05,11.88-6.74,9.56-15.86s-28.45-103.8-33.87-122.85c-2.11-1.57-6.68-10.32-13.15-10.71-.55,1.65-.91,2.8-.91,2.8,4.4,15.62,10.54,40.4,13.34,52.26.87,3.73,1.41,6.2,1.47,6.68-.24-3.58-.45-6.68-.66-9.42v-.15c-1.14-15-1.95-18.61-2.59-24.54C157.16,388,169.68,439,173.21,456.27Z"/>
                </g>
                <g class="cls-34">
                  <path class="cls-35" d="M29.13,507c7.49-28.06,35.76-120.12,41.09-137.46-1.87.49-3.91,1-6.14,1.69-5.27,16.92-33.48,122.67-35,130.2A14.5,14.5,0,0,0,29.13,507Z"/>
                </g>
                <path class="cls-36" d="M153,385.88c1,5.59,2,10.89,3,16.19l2.92,16.2c1,5.38,2,10.76,2.94,16.18s2,10.6,3.06,16.18q-.81-8.19-2-16.35T160.21,418c-1-5.4-2.13-10.78-3.34-16.14S154.38,391.2,153,385.88Z"/>
                <path class="cls-36" d="M132.05,384.78c-.16,2.76-.29,5-.42,7.24-.07,2.48-.14,4.85-.21,7.24s0,4.83,0,7.24.17,4.84.34,7.25c.22-2.41.39-4.82.47-7.24s.14-4.83.16-7.24-.05-4.76-.07-7.25C132.26,389.79,132.17,387.54,132.05,384.78Z"/>
                <path class="cls-36" d="M102.46,396.44c.22,4.84.43,9.34.64,13.83.17,4.65.34,9.23.51,13.83s.32,9.18.48,13.82.32,9,.49,13.84q.44-6.92.47-13.85t-.23-13.86q-.31-6.93-.9-13.83C103.53,405.62,103.06,401,102.46,396.44Z"/>
                <path class="cls-36" d="M80.73,391.94q-1.38,8.35-2.49,16.74t-2,16.82c-.54,5.61-1,11.24-1.36,16.87s-.59,11.27-.71,16.91c.58-5.79,1.13-11.31,1.68-16.83S77,431.21,77.5,425.61s1.06-11.19,1.6-16.83S80.17,397.74,80.73,391.94Z"/>
                <path class="cls-36" d="M67.36,381q-1.8,4.68-3.3,9.46t-2.69,9.65c-.78,3.25-1.44,6.52-2,9.81s-1,6.61-1.32,9.93c.82-3.52,1.55-6.63,2.27-9.74.78-3.28,1.53-6.49,2.29-9.71s1.55-6.42,2.33-9.7C65.7,387.59,66.48,384.49,67.36,381Z"/>
              </g>
              <path class="cls-37" d="M66.07,325.53c-.32,10.36-2.22,34.79-1.94,47.42,5.87,8.5,27.7,15.36,42.9,16.36,12.38.81,27,3.24,39.71-1.81a88,88,0,0,0,12.81-7.5c1-6.18,3.4-46.89,4-56.45.37-5.64,4.64-13.93,2.93-26.18-.39-2.83-.84-5.57-1.42-8.1-1.08-5.09-2.5-9.3-4.3-11.56-4.34-2.26-16.56-8.64-22.76-10.08-10.18-1.81-24.84-.69-37.09.12-7,1.38-19.17,5.45-26.13,9.39a33.23,33.23,0,0,0-1.41,4.55C70.36,293.94,66.33,316.56,66.07,325.53Z"/>
              <path class="cls-38" d="M89.28,285.45c1.12,6.56,5.09,12,12.61,11.65s12.59-8.28,17.68-15.23c1.89,3.58,4.72,8.64,8.67,12.61s11.1,3.73,15.62-1.9c2.74-3.4,4.36-8.73,4.91-13.09.33-2.8.21-5.21-.39-6.47a6.56,6.56,0,0,0-2.32-2.5s0,0-.06,0a21.63,21.63,0,0,0-7.08-2.65c-.33-.06-.63-.15-.9-.21-17.88,5.15-29.17,1.8-35.19-.81-1.9-.58-10.93.57-12.8,3.94a12.87,12.87,0,0,0-1.44,5.66A38.77,38.77,0,0,0,89.28,285.45Z"/>
              <g>
                <path class="cls-22" d="M99.08,269.7c4.14,7,15.22,11.08,20.88,11.08s16-5.17,18.06-13.15a12.44,12.44,0,0,1-.68-2.75,70.44,70.44,0,0,1-.74-7.77c-.31-6.83-.19-15.5.12-22.49-4.11-3.43-10.7-5.88-17.66-5.91a31.52,31.52,0,0,0-3.74.22,25.36,25.36,0,0,0-14.95,7.24c.25,7.45.31,14.45.16,20.17-.09,3-.25,5.69-.46,7.89A24.57,24.57,0,0,1,99.08,269.7Z"/>
                <path class="cls-24" d="M100.52,256.34c.15-5.72.09-12.72-.15-20.17a24.42,24.42,0,0,1,14.57-7.24,30.28,30.28,0,0,1,3.65-.22c6.79,0,13.22,2.48,17.23,5.91-.3,7,.07,15.82.37,22.65a69.92,69.92,0,0,0,.6,7.43c-10.41,4.55-23.41,6-36.21-.22C100.79,262.28,100.43,259.37,100.52,256.34Z"/>
              </g>
              <path class="cls-39" d="M62.27,387.48c25.84,9,56.5,10.47,85,8,3.83-.29,13.82-2.14,17.54-2.59.94-5.21,2.71-12.19-4.38-14.77-2.29.32-5.51,2.46-7.91,2.69-29.79,3-66.73-.71-89.59-8C62.15,376.89,62.6,383.48,62.27,387.48Z"/>
              <g>
                <path class="cls-25" d="M155.17,607.41c0,2.29.09,4.19.21,5.27.49,4.27,9.31,12.55,27.88,11.29a75.37,75.37,0,0,0,15.41-2.35c7.08-2.08,10-5.18,10.27-8.94.12-1.36.18-2.83.21-4.4.06-5-.54-10.74-2.41-14.42a78.86,78.86,0,0,0-7.83-12,55.47,55.47,0,0,0-14-5.69,52.38,52.38,0,0,0-8.52-1.56c-9.55-1-20.05,5.27-20.56,11.29C155.51,590.34,155.14,600.67,155.17,607.41Z"/>
                <path class="cls-40" d="M155.17,607.41c0,2.29.09,4.19.21,5.27.5,4.27,9.3,12.55,27.88,11.29s25.2-5.51,25.67-11.29c.12-1.36.18-2.83.21-4.4-2.11,4.76-9.48,9.82-26.85,9.82C166.18,618.1,158.23,612.83,155.17,607.41Z"/>
                <g class="cls-41">
                  <path class="cls-42" d="M185,576.13c6.68,10.6,12.82,26.86,13.72,45.49,7.08-2.08,10-5.18,10.27-8.94.12-1.36.18-2.83.21-4.4.06-5-.54-10.74-2.41-14.42a78.86,78.86,0,0,0-7.83-12A55.47,55.47,0,0,0,185,576.13Z"/>
                </g>
              </g>
              <path class="cls-36" d="M62.77,525.21a35,35,0,0,0,14.83,4.12A54.25,54.25,0,0,0,93,527.44c9.75-2.19,19.94-.7,29.72,1.84a68.05,68.05,0,0,0,15.51,2,34.33,34.33,0,0,0,15.37-3.49c8.88-5.21,18.69-7.9,28.36-11.38l-14.72,4.35a88.46,88.46,0,0,0-14.12,6A34.74,34.74,0,0,1,138.25,530a67,67,0,0,1-15.16-2.13c-9.86-2.45-20.34-4-30.35-1.51a52.82,52.82,0,0,1-15.13,2.27A34.61,34.61,0,0,1,62.77,525.21Z"/>
            </g>
            <g class="cls-43">
              <path class="cls-44" d="M161.77,313.14a80.36,80.36,0,0,0,3,14.06c6.78,13.55,11.77,26.1,18.55,29.35A13.2,13.2,0,0,0,190.1,351a9.43,9.43,0,0,1-5.24-2.17C178.6,343.79,167.52,324.22,161.77,313.14Z"/>
            </g>
            <path class="cls-22" d="M161.77,313.14a81.44,81.44,0,0,0,3,14.07c1.14,2.28,2.33,4.7,3.54,7.16,6,12.1,12.62,25.12,18.26,27.84a13.45,13.45,0,0,0,6.74-5.59c5.33-8.26,4.46-22,3.31-27-.3-.6-.57-1.2-.9-1.83-2.9-6-6.44-12.93-9.42-19-2.4-4.92-4.44-9.28-5.48-12.14-2.5-6.78-10.78-16.68-20.08-18.88-.3,2.32-.52,4.91-.6,7.62A159.49,159.49,0,0,0,161.77,313.14Z"/>
            <path class="cls-24" d="M161.77,313.14a70.16,70.16,0,0,0,3.6,13.73c1.14,2.29,2.17,4.89,3.37,7.34,11.23-4.22,15.51-16.62,17.48-25-2.4-4.92-4.32-9.79-5.36-12.65-2.5-6.78-10.78-16.68-20.08-18.88-.3,2.32-.52,4.91-.6,7.62A159.49,159.49,0,0,0,161.77,313.14Z"/>
            <path class="cls-22" d="M182.29,358.13a11.86,11.86,0,0,0,4.32,4.07c9.54,5.27,20.83-1.75,25.1-9.78S227,319.81,231,308c-.18-4.9.42-10.56-4.15-13.85-1.93-1.41-4.85-2.37-9.13-2.7-2.83,4.66-14.87,19.62-23.93,31.12-4.6,5.81-7.15,7.15-9.94,15.88"/>
            <g>
              <g>
                <path class="cls-22" d="M218.91,302.61a16.49,16.49,0,0,0,13.4,6.23c9.21.75,21.07,1.05,25.58,1.45s7.83.48,13-1.9,8.79-3.64,8.67-5.63c.09-.06.21-.09.3-.15s0,0,.06,0a11.74,11.74,0,0,0,4.49-3.43,2.39,2.39,0,0,0,0-3.16,1.65,1.65,0,0,0,.27-.21.58.58,0,0,0,.15-.13,8.82,8.82,0,0,0,3-3.28,3.1,3.1,0,0,0-.49-3.67,9.82,9.82,0,0,0-6.65-2.59h0a6,6,0,0,0-1.05.09h0a.27.27,0,0,0,0-.15,4.66,4.66,0,0,0-.54-1.53,6.14,6.14,0,0,0-6.48-2.71c-3.37.63-7.37,2-9.27,2.25-5.18-.93-8.25-1.35-11.89-2a6,6,0,0,0-.78-.15c-.51-.12-1-.21-1.57-.33-4.75-1-8.28-2.5-10-2.62,7.13-2,10.65-4.91,11.8-7.53a7.64,7.64,0,0,0-.24-6.29,3.11,3.11,0,0,0-1.42-1.36c-2.25-1-3,.37-5.63,2.26a27.37,27.37,0,0,1-12.28,4.76c-5.9.87-8.79,2.65-12.43,6.77s-5.63,13.19-4.28,18.7"/>
                <g class="cls-45">
                  <path class="cls-46" d="M250.76,271.39a7.64,7.64,0,0,0-.24-6.29c-.42,3.1-1.39,6.32-3.19,7.4-4.52,2.77-9.4,5.54-10.66,5.78-1.63,4.64-2.89,6.15-4.88,7.77,4.25-1.11,5.54-4.36,7.17-7.13C246.09,276.9,249.61,274,250.76,271.39Z"/>
                </g>
                <path class="cls-47" d="M241,291.86a28.05,28.05,0,0,0-5.55-2,21,21,0,0,0-6-.56,14,14,0,0,0-5.82,1.76,11.31,11.31,0,0,0-2.41,1.86,9.69,9.69,0,0,0-1.73,2.46,13.36,13.36,0,0,1,2.25-1.83,15.21,15.21,0,0,1,2.47-1.35,18.58,18.58,0,0,1,5.37-1.44,22.5,22.5,0,0,1,5.68,0A49.61,49.61,0,0,1,241,291.86Z"/>
                <path class="cls-47" d="M255,302.6c.21,0,.39.09.61.12a57,57,0,0,0,6.11.94c1.14.12,2.25.21,3.37.3a8.66,8.66,0,0,0,3.64-.39,21.12,21.12,0,0,0,3-1.75,11.14,11.14,0,0,1,2.89-1.26,4.67,4.67,0,0,1,5,2.19c.09-.06.21-.09.3-.15s0,0,.06,0c-.57-2.19-3.22-3.43-5.51-3.1s-4.55,1.78-6.32,2.53a7.78,7.78,0,0,1-3,.33c-1.12,0-2.23,0-3.34-.06a59.35,59.35,0,0,0-6.11.27A4.91,4.91,0,0,0,255,302.6Z"/>
                <path class="cls-47" d="M253,288.09a.18.18,0,0,1,0,.12,14.63,14.63,0,0,0,1.65.36v0c1.72.39,3.43.72,5.15,1a50.34,50.34,0,0,0,7.47.9,17.34,17.34,0,0,0,7.43-1.83,38.88,38.88,0,0,1,5.93-2.59,6.3,6.3,0,0,0-1.08.09.27.27,0,0,0,0-.15,44.3,44.3,0,0,0-5.3,1.38,20.2,20.2,0,0,1-6.95,1.27c-2.35,0-4.82-.31-7.29-.43-1.81-.12-3.64-.21-5.51-.21C254,288.06,253.46,288.06,253,288.09Z"/>
                <path class="cls-47" d="M255.26,294.84c.31.09.61.18.91.24,2.2.6,4.45,1.11,6.71,1.56a35.31,35.31,0,0,0,3.88.67,9.36,9.36,0,0,0,4.1-.34c2.62-.81,4.81-1.77,7.4-2a10.63,10.63,0,0,1,6.15,1.05,1.65,1.65,0,0,0,.27-.21.53.53,0,0,0,.15-.12c-1.72-1.57-4.4-1.84-6.63-1.72a27.78,27.78,0,0,0-4,.49c-1.35.3-2.56.69-3.73,1.05a9.23,9.23,0,0,1-3.62.39c-1.26-.06-2.55-.24-3.85-.39-2.26-.27-4.54-.48-6.86-.57A9.07,9.07,0,0,0,255.26,294.84Z"/>
              </g>
              <g>
                <path class="cls-48" d="M256.59,307.72s2.18-16.72-6-25.85"/>
                <path class="cls-49" d="M256.59,307.72c0-1.14,0-2.28,0-3.41s-.06-2.26-.15-3.38a59.63,59.63,0,0,0-.83-6.69,42.52,42.52,0,0,0-1.81-6.47,29,29,0,0,0-3.24-5.9,19.13,19.13,0,0,1,2.22,2.61,24,24,0,0,1,1.73,3,30.34,30.34,0,0,1,2.08,6.58,39.39,39.39,0,0,1,.62,6.85A34.61,34.61,0,0,1,256.59,307.72Z"/>
              </g>
            </g>
            <g>
              <path class="cls-50" d="M8.62,125.75c0,61.15,48.23,100,108.34,100S225.8,176.21,225.8,115.06s-31.5-113-110.72-113C32,2.05,8.62,64.6,8.62,125.75Z"/>
              <g>
                <path class="cls-51" d="M200.29,174.49c4.31-5.82,9.92-11.43,16.61-10.35s9.92,7.33,8.62,18.12-3.66,16.39-11.86,22.86-12.51,9.7-21.13,3.88C191,197.14,198.13,178.38,200.29,174.49Z"/>
                <path class="cls-52" d="M194.76,205.38a5,5,0,0,0,3.3-.33,20.47,20.47,0,0,0,3.05-1.4,10.58,10.58,0,0,0,4.52-5.09,10.26,10.26,0,0,0,.38-6.78,9.8,9.8,0,0,0-1.83-3.47c.47-.76,1-1.5,1.47-2.22a62.89,62.89,0,0,1,4.33-5.54c1.53-1.76,3.05-3.62,5.14-4.42a4.06,4.06,0,0,1,3.17.09,3.07,3.07,0,0,1,2,2.59,3.15,3.15,0,0,0-1.71-3.06,4.58,4.58,0,0,0-3.71-.43c-2.48.76-4.15,2.74-5.72,4.49a42.06,42.06,0,0,0-4.2,5.81c-.41.71-.81,1.43-1.19,2.16-.07.12-.12.24-.19.38a5.8,5.8,0,0,1,.36.59,10.35,10.35,0,0,1,1.26,3.24,10.07,10.07,0,0,1-.58,6.14,10.6,10.6,0,0,1-3.94,4.8,27.42,27.42,0,0,1-2.79,1.62A5.32,5.32,0,0,1,194.76,205.38Zm17.41-6.73a67,67,0,0,1-6.09,3.8,32.25,32.25,0,0,0,6.57-3.09,14.13,14.13,0,0,0,5.13-5.33,12.91,12.91,0,0,0,1.09-7.32,28.55,28.55,0,0,0-1.9-7,51.49,51.49,0,0,1,1,7.1,13.11,13.11,0,0,1-1.24,6.74A14.7,14.7,0,0,1,212.17,198.65Z"/>
              </g>
              <g>
                <path class="cls-51" d="M35.16,174.85c-4.37-5.91-10.06-11.6-16.85-10.5s-10.06,7.44-8.75,18.38,3.72,16.63,12,23.19,12.69,9.85,21.44,3.94C44.57,197.83,37.35,178.79,35.16,174.85Z"/>
                <path class="cls-52" d="M37.64,205.34a26.53,26.53,0,0,1-2.84-1.64,10.77,10.77,0,0,1-4-4.87,10.22,10.22,0,0,1-.59-6.23,10.43,10.43,0,0,1,1.28-3.29c.1-.21.24-.4.36-.6-.07-.14-.12-.26-.19-.38-.38-.74-.79-1.47-1.21-2.19a43.27,43.27,0,0,0-4.25-5.9c-1.59-1.77-3.29-3.78-5.81-4.55a4.64,4.64,0,0,0-3.77.44,3.19,3.19,0,0,0-1.73,3.1,3.11,3.11,0,0,1,2-2.63,4.09,4.09,0,0,1,3.22-.09c2.12.81,3.66,2.7,5.21,4.48a66.8,66.8,0,0,1,4.4,5.62c.51.74,1,1.49,1.49,2.26a9.93,9.93,0,0,0-1.86,3.52,10.43,10.43,0,0,0,.38,6.88,10.74,10.74,0,0,0,4.59,5.16,20.14,20.14,0,0,0,3.1,1.42,5,5,0,0,0,3.34.33A5.38,5.38,0,0,1,37.64,205.34ZM18.45,194.15a13.36,13.36,0,0,1-1.26-6.84,53,53,0,0,1,1-7.2,28.9,28.9,0,0,0-1.92,7.13,13,13,0,0,0,1.1,7.43,14.23,14.23,0,0,0,5.2,5.41,33.24,33.24,0,0,0,6.67,3.14,71.4,71.4,0,0,1-6.18-3.86A15,15,0,0,1,18.45,194.15Z"/>
              </g>
              <g>
                <path class="cls-51" d="M30.18,142.33c.09.78-7.76,1.59-7.67,2.37,3.09,26.11,7.89,51.12,11.4,64.07a50.13,50.13,0,0,0,5.94,13.74c4,6.46,9.47,11.78,16.29,16.55a190.56,190.56,0,0,0,29,15.69,143.29,143.29,0,0,0,14.71,5.67c5.94,1.89,11.49,3.09,16,3.09,5.36,0,11.63-1.33,18.05-3.35,14-4.36,28.71-11.92,36.69-16.12,11.67-6.09,25.85-19.15,29.18-33a642,642,0,0,0,12.49-65c1.18-8.78-6.34-12.2-13.57-38.25C189,72.81,175.71,59,120.63,59,24.52,59,27.11,115.37,30.18,142.33Z"/>
                <path class="cls-53" d="M206.39,180.91s-9.07-59-28.65-74.93-22.39-26.22-22.39-26.22-5.21,29.84-38.91,42.6l1.48-17.92a43.74,43.74,0,0,1-20,17.92l3.25-22.61a350.44,350.44,0,0,0-50.3,24.34c-24.39,14.63-23.36,62.84-23.36,62.84L37.28,87l83.35-34.58,53.05-2.09L209.6,99.75,204,138.31Z"/>
              </g>
              <g>
                <ellipse class="cls-54" cx="76.51" cy="162.03" rx="17.56" ry="18.58"/>
                <ellipse class="cls-55" cx="76.26" cy="161.82" rx="11.75" ry="12.43"/>
                <ellipse class="cls-56" cx="70.77" cy="151.81" rx="3.22" ry="3.41"/>
              </g>
              <g>
                <ellipse class="cls-54" cx="160.18" cy="165.38" rx="17.56" ry="18.58"/>
                <ellipse class="cls-55" cx="159.75" cy="165.37" rx="11.57" ry="12.25"/>
                <ellipse class="cls-56" cx="154.44" cy="155.17" rx="3.22" ry="3.41"/>
              </g>
              <path class="cls-57" d="M129.92,190.38a13.43,13.43,0,0,1-10.36,8.07,11.36,11.36,0,0,1-6.83-1.17A10.88,10.88,0,0,1,108,192.5a16.78,16.78,0,0,0,5.33,3.36,12.21,12.21,0,0,0,5.92.61,15.32,15.32,0,0,0,5.7-2A23.1,23.1,0,0,0,129.92,190.38Z"/>
              <g>
                <path class="cls-53" d="M149,207c1.35-.53,2.92-2.71,4.15-3.47a9.46,9.46,0,0,1,4.06-1.36c1.86-.19,4.13.49,4.51,2.18.3,1.36-.78,2.67-2,3.53a12.11,12.11,0,0,1-7.17,2.22,3.63,3.63,0,0,1-3-1.14c-.6-.86.1-2.38,1.2-2.21Z"/>
                <path class="cls-53" d="M88.78,210.79c-.86-1-2.25-3.63-3.36-4.33a5.69,5.69,0,0,0-2.4-1,4.06,4.06,0,0,0-4.08,2.62,4.8,4.8,0,0,0,1,4.64,9.3,9.3,0,0,0,4.38,2.67,6.92,6.92,0,0,0,3.49.32,3,3,0,0,0,2.44-2.18,2.9,2.9,0,0,0-1.52-2.79,9.69,9.69,0,0,0-3.33-1.1Z"/>
                <g>
                  <path class="cls-58" d="M83,209.36a29.5,29.5,0,0,0,1.5,3.44c3.32,6.67,11.21,19,21.23,23.57A28,28,0,0,0,129,236c9.57-4.5,13.91-9.86,19.4-18.88,1.79-2.93,3.7-6.26,6-10.06,0,0,.54-.71-.35-.74a5.3,5.3,0,0,0-1.49.26c-5.39,1.49-19,9.08-40.19,8.05-16.25-.8-25.13-4.36-28.38-6a.71.71,0,0,0-1,.34A.53.53,0,0,0,83,209.36Z"/>
                  <path class="cls-59" d="M84.48,212.8c3.32,6.67,11.21,19,21.23,23.57A28,28,0,0,0,129,236c9.57-4.5,13.91-9.86,19.4-18.88-6.39,7.06-17.17,16.32-30.27,17.21C100.2,235.5,88,218.39,84.48,212.8Z"/>
                  <path class="cls-60" d="M83,209a68.77,68.77,0,0,0,36.83,8.57c19.51-.82,30.67-8.59,34.19-11.25a5.3,5.3,0,0,0-1.49.26c-5.39,1.49-19,9.08-40.19,8.05-16.25-.8-25.13-4.36-28.38-6A.71.71,0,0,0,83,209Z"/>
                  <path class="cls-61" d="M146.06,210.39c-.41.17-23.13,13.83-54.36,2.57,0,0,4.49,10.29,23.33,11.26C136.56,225.34,146.06,210.39,146.06,210.39Z"/>
                  <path class="cls-62" d="M118.05,234c4.43-.24,10-1.42,12.14-3.39-3.92-3.86-9-1-13.23-2.26-8.92-2.58-12,.63-13.17,2.41C106.39,232.82,111.88,234.36,118.05,234Z"/>
                </g>
              </g>
              <path class="cls-55" d="M154.25,127.76s17.48-3,25.88,8.65c.33.46,1.12.24,1.08-.3-.27-3.54-2.18-10.8-13.05-12.93C151,119.83,154.25,127.76,154.25,127.76Z"/>
              <path class="cls-55" d="M87.35,120.61s-17.49-3-25.88,8.64a.59.59,0,0,1-1.08-.3c.27-3.53,2.18-10.8,13-12.92C90.58,112.68,87.35,120.61,87.35,120.61Z"/>
              <path class="cls-50" d="M16.2,157a112,112,0,0,0,8.46,16.54c.56,1,4.75,6.24,4.55,7.39,0,0-7-46.16,26.21-63.06,13-6.6,26.27-11.9,39.36-18s26.07-12.41,38.61-19.77c6.6-3.88,13.73-8,19.57-13.45,21.84,37.07,49.58,37.9,52,100,.13,3.3.44,6.6.67,9.9l.75,4.31s5.42-4.73,14.88-34.11c10.3-30.83-14.46-53.38-29.59-79.26-24-41.06-51.52-36.12-61.76-37.14-18.06-1.8-18.12,11.1-35.85,14.83-38.93,8.19-53.49,1.5-61.75,45.2C27.41,116.45,6.35,133.25,16.2,157Z"/>
              <path class="cls-50" d="M120.63,78a56.82,56.82,0,0,1,0,36.67c31-21.52,33.38-55,33.38-55"/>
              <path class="cls-50" d="M129.92,74.13s-.55,13.33-28.77,41.52c0,0,10.45-18.61,4.5-37.64"/>
              <path class="cls-63" d="M214.1,167.61c.44-4.24.69-8.48.79-12.72s.11-8.47,0-12.68a181.26,181.26,0,0,0-2.53-25c-.37-2.05-.76-4.09-1-6.14s-.58-4.11-1-6.14a122.85,122.85,0,0,0-3-12,101.11,101.11,0,0,0-9.89-22.52A82.3,82.3,0,0,0,181.91,51.5,86.49,86.49,0,0,0,172.25,44,96,96,0,0,0,138.53,29.5a100.57,100.57,0,0,0-24.48-2.21A105.5,105.5,0,0,0,66.86,40.11,83.51,83.51,0,0,0,47.38,54.76a61.21,61.21,0,0,0-7.51,9.4c-.54.84-1,1.7-1.53,2.56s-1,1.82-1.44,2.72c-1,1.81-1.84,3.69-2.71,5.56A121.13,121.13,0,0,0,26.4,98.48c-.89,4-1.65,8.13-2.17,12.25-.31,2-.44,4.13-.62,6.19-.1,1-.15,2.07-.3,3.1s-.27,2.07-.37,3.11A178.2,178.2,0,0,0,22,148.26q.21,6.31.85,12.65c.42,4.21.95,8.43,1.78,12.61a147.49,147.49,0,0,1-6.18-24.91c-.72-4.25-1.23-8.53-1.59-12.83s-.59-8.64-.61-13a56.82,56.82,0,0,1,.21-6.52q.36-3.24.8-6.47c.55-4.32,1.34-8.61,2.28-12.86a128.47,128.47,0,0,1,8.24-24.83c.92-2,1.83-4,2.88-5.91.52-1,1-1.94,1.54-2.92s1.14-1.95,1.75-2.9a67.69,67.69,0,0,1,8.37-10.5A90.35,90.35,0,0,1,63.48,34,112.19,112.19,0,0,1,113.83,20.3,107.28,107.28,0,0,1,140,22.66a103.11,103.11,0,0,1,36.15,15.51,95.59,95.59,0,0,1,10.44,8.13,89,89,0,0,1,16.74,20.46,107.82,107.82,0,0,1,10.58,24.06,126.83,126.83,0,0,1,3.2,12.7c.44,2.13.86,4.27,1.24,6.41a52.29,52.29,0,0,1,.67,6.49,170.72,170.72,0,0,1-.54,25.9A155.74,155.74,0,0,1,214.1,167.61Z"/>
              <g>
                <g>
                  <g>
                    <path class="cls-64" d="M218.92,81.76c8.75-7.84,21-8.48,9.8-20.93s-36.05-8.33-36.05-8.33-6.78,24.3,4.38,36.74S210.18,89.61,218.92,81.76Z"/>
                    <path class="cls-64" d="M166,22.74c8.75-7.85,10.7-19.93,21.87-7.48S192.22,52,192.22,52s-24.89,4.12-36.06-8.33S157.22,30.58,166,22.74Z"/>
                  </g>
                  <circle class="cls-65" cx="164.45" cy="39.99" r="2.53"/>
                  <circle class="cls-65" cx="174.25" cy="44.91" r="2.53"/>
                  <circle class="cls-65" cx="175.74" cy="29.85" r="2.53"/>
                  <path class="cls-65" d="M188,35.89a2.53,2.53,0,1,0-3.57-.2A2.52,2.52,0,0,0,188,35.89Z"/>
                  <circle class="cls-65" cx="183.27" cy="23.1" r="2.53"/>
                  <path class="cls-65" d="M180,49.78a2.53,2.53,0,0,1,4.21,2.1c-1.53,0-3.23,0-5-.07A2.55,2.55,0,0,1,180,49.78Z"/>
                  <path class="cls-65" d="M169.32,49.2a2.43,2.43,0,0,1,.6,1.25,33.63,33.63,0,0,1-4.23-1.37l.06-.07A2.53,2.53,0,0,1,169.32,49.2Z"/>
                  <path class="cls-65" d="M192.1,25.37l0,0a35,35,0,0,1,.91,4.3,2.47,2.47,0,0,1-1.13-.71A2.53,2.53,0,0,1,192.1,25.37Z"/>
                  <path class="cls-65" d="M191.13,43.22A2.52,2.52,0,0,1,193.39,39c-.09,1.8-.26,3.49-.47,5A2.56,2.56,0,0,1,191.13,43.22Z"/>
                  <path class="cls-65" d="M163.15,31A2.52,2.52,0,0,1,159,28.69c1-.64,2.12-1.3,3.23-2a2.58,2.58,0,0,1,1.14.72A2.53,2.53,0,0,1,163.15,31Z"/>
                  <path class="cls-65" d="M155.81,34.15a2.52,2.52,0,0,1-2.16,4.19,5.24,5.24,0,0,1-.15-5A2.5,2.5,0,0,1,155.81,34.15Z"/>
                  <path class="cls-65" d="M174.63,17.26a2.53,2.53,0,0,1-3.76,3.38,2.63,2.63,0,0,1-.6-1.23c.84-1,1.61-2,2.35-3A2.55,2.55,0,0,1,174.63,17.26Z"/>
                  <path class="cls-65" d="M182,14.08a2.53,2.53,0,0,1-4.12-2.56,5.29,5.29,0,0,1,5,.73A2.52,2.52,0,0,1,182,14.08Z"/>
                  <circle class="cls-65" cx="201.6" cy="81.39" r="2.53"/>
                  <circle class="cls-65" cx="198.61" cy="70.48" r="2.53"/>
                  <circle class="cls-65" cx="212.89" cy="71.25" r="2.53"/>
                  <path class="cls-65" d="M208.21,58.47A2.53,2.53,0,1,1,208,62,2.52,2.52,0,0,1,208.21,58.47Z"/>
                  <circle class="cls-65" cx="220.42" cy="64.5" r="2.53"/>
                  <path class="cls-65" d="M193.54,64.83a2.52,2.52,0,0,0-1.63-4.4c-.21,1.52-.38,3.21-.48,5A2.48,2.48,0,0,0,193.54,64.83Z"/>
                  <path class="cls-65" d="M193,75.55a2.52,2.52,0,0,0-1.18-.74,34.09,34.09,0,0,0,.91,4.36l.08,0A2.53,2.53,0,0,0,193,75.55Z"/>
                  <path class="cls-65" d="M219.12,55.48l0,0A34.6,34.6,0,0,0,215,54.08a2.45,2.45,0,0,0,.58,1.2A2.54,2.54,0,0,0,219.12,55.48Z"/>
                  <path class="cls-65" d="M201.26,54.51a2.52,2.52,0,0,0,3.57.19,2.49,2.49,0,0,0,.83-2c-1.8-.1-3.5-.11-5-.07A2.53,2.53,0,0,0,201.26,54.51Z"/>
                  <path class="cls-65" d="M210.43,83.65a2.52,2.52,0,0,0,1.81,4.4c.74-1,1.51-2,2.35-3a2.45,2.45,0,0,0-.59-1.22A2.53,2.53,0,0,0,210.43,83.65Z"/>
                  <path class="cls-65" d="M206.47,90.6a2.52,2.52,0,0,0-4.4,1.7A5.27,5.27,0,0,0,207,93,2.54,2.54,0,0,0,206.47,90.6Z"/>
                  <path class="cls-65" d="M225.29,73.72a2.52,2.52,0,1,0-3.76,3.37,2.49,2.49,0,0,0,1.15.73c1.11-.72,2.19-1.38,3.21-2A2.5,2.5,0,0,0,225.29,73.72Z"/>
                  <path class="cls-65" d="M229.25,66.77a2.52,2.52,0,0,0,2.09,4.37c.73-1.36.77-3-.19-5A2.48,2.48,0,0,0,229.25,66.77Z"/>
                </g>
                <g>
                  <g>
                    <g>
                      <path class="cls-66" d="M170.83,35.71c2.67-3.79,13.79,9.71,13.79,9.71S168.16,39.5,170.83,35.71Z"/>
                      <path class="cls-66" d="M181.18,31.38c2.8-1.37,6.15,12.55,6.15,12.55S178.38,32.75,181.18,31.38Z"/>
                    </g>
                    <g>
                      <path class="cls-66" d="M206.54,75.5c4.05-2.24-8.17-14.75-8.17-14.75S202.48,77.75,206.54,75.5Z"/>
                      <path class="cls-66" d="M212,65.68c1.67-2.64-11.81-7.46-11.81-7.46S210.3,68.32,212,65.68Z"/>
                    </g>
                  </g>
                  <rect class="cls-67" x="184.83" y="44.68" width="15.17" height="15.17" rx="4.49" transform="translate(14.29 141.86) rotate(-41.9)"/>
                </g>
              </g>
              <path class="cls-68" d="M203.39,204.91s-7.15,14.89,1.65,17.42,6.06-14.09,6.06-14.09-2.29,14-5,5.35Z"/>
              <path class="cls-68" d="M30.51,205.85s7.15,14.88-1.65,17.42-6.06-14.1-6.06-14.1,2.29,14,5,5.35Z"/>
            </g>
            <path class="cls-69" d="M66.42,321.62,51.6,331A131.76,131.76,0,0,1,42,297.22c23.89-18.69,29.73-21.16,29.73-21.16L90,270.76"/>
            <path class="cls-70" d="M156.55,275.89s17.43,2.59,23.61,17.71S190,309.35,190,309.35s-2.5,16.27-21.26,24.86l-5.75-9"/>
            <line class="cls-71" x1="163.13" y1="332.53" x2="165.73" y2="300.82"/>
            <g>
              <path class="cls-39" d="M136.62,345.71a7.38,7.38,0,0,1-.75,1.38,7.17,7.17,0,0,1-3.15,2.53c-1.92.81-7.58.21-8.36-2.13.91,2.72,2.25,4.08.84,7.11a9.25,9.25,0,0,1-1.86,2.63,11,11,0,0,1-1.26,1.09,11.16,11.16,0,0,1-2.78,1.49,8.09,8.09,0,0,1-2,.46,6.83,6.83,0,0,1-1.43,0c-5.2-.49-8.83-6.39-7.39-11.82-.25.95-3.56,2.5-4.42,2.73a11.36,11.36,0,0,1-6.81-.19,8.28,8.28,0,0,1-1.83-1,8.49,8.49,0,0,1-1.25-1.09,6.7,6.7,0,0,1-1.65-4.65h0a10.24,10.24,0,0,1,0-1.1c0-.15,0-.31,0-.46.67-5.09,5.39-8.8,10.43-7.12-2.81-3.11-5-6.71-3.84-9.7a4.81,4.81,0,0,1,.75-1.28,8.6,8.6,0,0,1,3.17-2.29,8.33,8.33,0,0,1,1.49-.53,6.81,6.81,0,0,1,1.76-.23c3.3,0,6,2.36,7.06,5.74-.27-3.32,2.62-7.4,5.49-8.6a7.82,7.82,0,0,1,4-.44,10.64,10.64,0,0,1,1.91.4h0a11.35,11.35,0,0,1,4.31,2.39,7.87,7.87,0,0,1,1,1.1,6.16,6.16,0,0,1,.41.63c3,5.29-1.79,10-5.57,13.15,4.34-1.81,10.2.54,11.76,5a6.94,6.94,0,0,1,.36,1.59l0,.31A6.69,6.69,0,0,1,136.62,345.71Z"/>
              <path class="cls-72" d="M120,345.38c3.69-2.93,5.2-8.37.93-12.53a8.74,8.74,0,0,0-13.11,1c-3,3.86-2.62,9.63,1.63,12.26A9,9,0,0,0,120,345.38Z"/>
              <path class="cls-73" d="M119.23,344.42c3.13-2.49,4.41-7.11.79-10.65a7.43,7.43,0,0,0-11.14.84c-2.54,3.28-2.23,8.19,1.38,10.42A7.65,7.65,0,0,0,119.23,344.42Z"/>
            </g>
          </g>
          <g>
            <g>
              <g>
                <path class="cls-74" d="M36.53,391.53s2.16,4.31,5.6,17.44S54,423,54,423c6.89.43,4.74-3.45,4.74-3.45-8.18-4.73-6.68-6.89-6.68-6.89,15.72,6.89,12.28-.64,12.28-.64,10.33.86,5-5.17,5-5.17-8.83-6.67-9.91-9.47-9.91-9.47s13.35,5.59,15.72,2.8-2.58-6.46-2.58-6.46c-16.46-4.94-10.12-14-10.12-14L64.13,373s-12.45,2.58-17.48-2.73"/>
                <path class="cls-74" d="M65.6,412s-3.38.21-10.12-5l-6.82-6.45"/>
                <path class="cls-74" d="M54.62,413.64s-4.88-1.15-8.54-8.33"/>
                <path class="cls-74" d="M60.43,398s-2.15-.57-5.53-5.24"/>
                <path class="cls-75" d="M65.62,390.91s-7.31-4.64-7.16-9.59"/>
                <g>
                  <path class="cls-76" d="M42.7,395.55s-.35-2.72,1.58-3.37,3.23-.5,2.59-5.89,6.24-3.44,6.24-3.44"/>
                  <path class="cls-77" d="M42.7,395.55A4.07,4.07,0,0,1,43,393a2.25,2.25,0,0,1,1-.95c.42-.21.82-.31,1.2-.46,1.67-.43,1.53-2.38,1.45-4,0-.41-.07-.82-.11-1.24l0-.67a2.62,2.62,0,0,1,0-.68,2.85,2.85,0,0,1,1.5-2.25,6.83,6.83,0,0,1,5.09.06,11.67,11.67,0,0,0-2.5-.15,4.65,4.65,0,0,0-2.3.59,2.3,2.3,0,0,0-1.08,1.85,5.74,5.74,0,0,0,0,1.17c0,.42.1.84.12,1.27a9,9,0,0,1-.12,2.63,2.58,2.58,0,0,1-.65,1.27,2.8,2.8,0,0,1-1.23.66c-.41.13-.85.21-1.19.35a1.88,1.88,0,0,0-.87.71A4.25,4.25,0,0,0,42.7,395.55Z"/>
                </g>
              </g>
              <path class="cls-74" d="M36.87,392.24c-3.36-6.83-11.92-17.1-23.43-32.81s-12.23-30.58-6-36.93,27.81-20.74,27.81-20.74,9.71,21.58,14.39,26.5l-1.56.71s-6.35,6.24-14.15,8.88c0,0,4.92,10.67,10.79,25.06,0,0,2.6,8.35,6.8,10.15"/>
              <path class="cls-74" d="M33.94,337.85s-5.51-9.35-12.59-10"/>
            </g>
            <path class="cls-78" d="M74.47,274.9,33.22,301s9.12,27.1,16.79,32.13l14.87-10.31"/>
          </g>
          <line class="cls-79" x1="66.07" y1="345.53" x2="66.42" y2="323.12"/>
        </g>
      </g>
    </g>
  </g>
</svg>
