<svg xmlns="http://www.w3.org/2000/svg" xmlns:xlink="http://www.w3.org/1999/xlink" width="242" height="497" viewBox="0 0 242 497">
  <defs>
    <style>
      .cls-1 {
        mask: url(#mask);
        filter: url(#luminosity-noclip-10);
      }

      .Graphic-Style-6, .cls-10, .cls-12, .cls-14, .cls-16, .cls-18, .cls-2, .cls-28, .cls-32, .cls-35, .cls-4, .cls-43, .cls-6, .cls-8 {
        mix-blend-mode: multiply;
      }

      .cls-2 {
        fill: url(#linear-gradient);
      }

      .cls-3 {
        mask: url(#mask-2);
        filter: url(#luminosity-noclip-15);
      }

      .cls-4 {
        fill: url(#linear-gradient-2);
      }

      .cls-5 {
        mask: url(#mask-3);
        filter: url(#luminosity-noclip-16);
      }

      .cls-6 {
        fill: url(#linear-gradient-3);
      }

      .cls-7 {
        mask: url(#mask-4);
        filter: url(#luminosity-noclip-17);
      }

      .cls-8 {
        fill: url(#linear-gradient-4);
      }

      .cls-9 {
        mask: url(#mask-5);
        filter: url(#luminosity-noclip-18);
      }

      .cls-10 {
        fill: url(#linear-gradient-5);
      }

      .cls-11 {
        mask: url(#mask-6);
        filter: url(#luminosity-noclip-11);
      }

      .cls-12 {
        fill: url(#linear-gradient-6);
      }

      .cls-13 {
        mask: url(#mask-7);
        filter: url(#luminosity-noclip-12);
      }

      .cls-14 {
        fill: url(#linear-gradient-7);
      }

      .cls-15 {
        mask: url(#mask-8);
        filter: url(#luminosity-noclip-13);
      }

      .cls-16 {
        fill: url(#linear-gradient-8);
      }

      .cls-17 {
        mask: url(#mask-9);
        filter: url(#luminosity-noclip-14);
      }

      .cls-18 {
        fill: url(#linear-gradient-9);
      }

      .cls-19 {
        isolation: isolate;
      }

      .cls-20 {
        fill: #592854;
      }

      .cls-21 {
        fill: #342517;
      }

      .cls-22, .cls-49 {
        fill: #fbd3c7;
      }

      .cls-22 {
        stroke: #453323;
      }

      .cls-22, .cls-30, .cls-37, .cls-38, .cls-39, .cls-52, .cls-55, .cls-65, .cls-68, .cls-69, .cls-70, .cls-71, .cls-72, .cls-75, .cls-76, .cls-79, .cls-80 {
        stroke-miterlimit: 10;
      }

      .cls-23 {
        mask: url(#mask-10);
      }

      .cls-24 {
        fill: #dd9f8f;
      }

      .cls-25 {
        fill: url(#radial-gradient);
      }

      .cls-26 {
        fill: url(#radial-gradient-2);
      }

      .cls-27 {
        mask: url(#mask-11);
      }

      .cls-28, .cls-43 {
        opacity: 0.4;
      }

      .cls-28 {
        fill: url(#linear-gradient-10);
      }

      .cls-29 {
        mask: url(#mask-12);
      }

      .cls-30, .cls-37, .cls-38, .cls-70, .cls-71, .cls-72, .cls-79, .cls-80 {
        stroke: #563b35;
      }

      .cls-30 {
        fill: url(#radial-gradient-3);
      }

      .cls-31 {
        mask: url(#mask-13);
      }

      .cls-32 {
        fill: url(#linear-gradient-11);
      }

      .cls-33 {
        mask: url(#mask-14);
      }

      .Graphic-Style-6 {
        fill: url(#linear-gradient-12);
      }

      .cls-34 {
        mask: url(#mask-15);
      }

      .cls-35 {
        fill: url(#linear-gradient-13);
      }

      .cls-36 {
        fill: #c4628b;
      }

      .cls-37 {
        fill: url(#radial-gradient-4);
      }

      .cls-38 {
        fill: #f9f1ef;
      }

      .cls-39 {
        fill: #faf079;
        stroke: #9a9435;
      }

      .cls-40 {
        fill: url(#radial-gradient-5);
      }

      .cls-41 {
        fill: url(#radial-gradient-6);
      }

      .cls-42 {
        mask: url(#mask-16);
      }

      .cls-43 {
        fill: url(#linear-gradient-14);
      }

      .cls-44 {
        mask: url(#mask-17);
      }

      .cls-45, .cls-47 {
        mix-blend-mode: darken;
      }

      .cls-45 {
        fill: url(#linear-gradient-15);
      }

      .cls-46 {
        mask: url(#mask-18);
      }

      .cls-47 {
        fill: url(#linear-gradient-16);
      }

      .cls-48 {
        fill: #914c37;
      }

      .cls-50 {
        fill: #453323;
      }

      .cls-51 {
        fill: #342516;
      }

      .cls-52, .cls-75, .cls-77 {
        fill: #f9dad2;
      }

      .cls-52, .cls-75, .cls-76 {
        stroke: #4c2606;
      }

      .cls-53 {
        fill: #b26b51;
      }

      .cls-54 {
        fill: #eaa698;
        opacity: 0.5;
      }

      .cls-55, .cls-57 {
        fill: #fff;
      }

      .cls-55 {
        stroke: #3d2d16;
      }

      .cls-55, .cls-75, .cls-76 {
        stroke-width: 0.75px;
      }

      .cls-56 {
        fill: #3d2d16;
      }

      .cls-58 {
        fill: #8c3d35;
      }

      .cls-59 {
        fill: #7a2f2b;
      }

      .cls-60 {
        fill: #f9988f;
      }

      .cls-61 {
        fill: #f58778;
      }

      .cls-62 {
        fill: #fff7f4;
      }

      .cls-63 {
        fill: #f48a71;
      }

      .cls-64 {
        fill: #ef4b3b;
      }

      .cls-65 {
        fill: #fe66ca;
      }

      .cls-65, .cls-68 {
        stroke: #af1086;
        stroke-width: 2px;
      }

      .cls-66 {
        fill: #fffa71;
      }

      .cls-67 {
        fill: #cc0098;
      }

      .cls-68 {
        fill: #e852bb;
      }

      .cls-69 {
        fill: #e7d760;
        stroke: #baa73b;
      }

      .cls-70 {
        fill: url(#radial-gradient-7);
      }

      .cls-71 {
        fill: url(#radial-gradient-8);
      }

      .cls-72 {
        fill: url(#radial-gradient-9);
      }

      .cls-73 {
        fill: #ba8313;
      }

      .cls-74 {
        fill: #f86909;
      }

      .cls-76 {
        fill: none;
      }

      .cls-78 {
        fill: #4c2606;
      }

      .cls-79 {
        fill: url(#radial-gradient-10);
      }

      .cls-80 {
        fill: url(#radial-gradient-11);
      }

      .cls-81 {
        filter: url(#luminosity-noclip-9);
      }

      .cls-82 {
        filter: url(#luminosity-noclip-8);
      }

      .cls-83 {
        filter: url(#luminosity-noclip-7);
      }

      .cls-84 {
        filter: url(#luminosity-noclip-6);
      }

      .cls-85 {
        filter: url(#luminosity-noclip-5);
      }

      .cls-86 {
        filter: url(#luminosity-noclip-4);
      }

      .cls-87 {
        filter: url(#luminosity-noclip-3);
      }

      .cls-88 {
        filter: url(#luminosity-noclip-2);
      }

      .cls-89 {
        filter: url(#luminosity-noclip);
      }
    </style>
    <filter id="luminosity-noclip" x="78.04" y="-8480" width="27.22" height="32766" filterUnits="userSpaceOnUse" color-interpolation-filters="sRGB">
      <feFlood flood-color="#fff" result="bg"/>
      <feBlend in="SourceGraphic" in2="bg"/>
    </filter>
    <mask id="mask" x="78.04" y="-8480" width="27.22" height="32766" maskUnits="userSpaceOnUse">
      <g class="cls-89"/>
    </mask>
    <linearGradient id="linear-gradient" x1="7099.18" y1="423.26" x2="7163.26" y2="445.74" gradientTransform="matrix(-1, 0, 0, 1, 7237.97, 0)" gradientUnits="userSpaceOnUse">
      <stop offset="0" stop-color="#fff"/>
      <stop offset="1"/>
    </linearGradient>
    <filter id="luminosity-noclip-2" x="35.25" y="-8480" width="32.82" height="32766" filterUnits="userSpaceOnUse" color-interpolation-filters="sRGB">
      <feFlood flood-color="#fff" result="bg"/>
      <feBlend in="SourceGraphic" in2="bg"/>
    </filter>
    <mask id="mask-2" x="35.25" y="-8480" width="32.82" height="32766" maskUnits="userSpaceOnUse">
      <g class="cls-88"/>
    </mask>
    <linearGradient id="linear-gradient-2" x1="7253.77" y1="328.57" x2="7166.02" y2="354.83" xlink:href="#linear-gradient"/>
    <filter id="luminosity-noclip-3" x="159.07" y="-8480" width="19.2" height="32766" filterUnits="userSpaceOnUse" color-interpolation-filters="sRGB">
      <feFlood flood-color="#fff" result="bg"/>
      <feBlend in="SourceGraphic" in2="bg"/>
    </filter>
    <mask id="mask-3" x="159.07" y="-8480" width="19.2" height="32766" maskUnits="userSpaceOnUse">
      <g class="cls-87"/>
    </mask>
    <linearGradient id="linear-gradient-3" x1="7034.96" y1="440.2" x2="7085.31" y2="489.15" xlink:href="#linear-gradient"/>
    <filter id="luminosity-noclip-4" x="140.69" y="-8480" width="22.47" height="32766" filterUnits="userSpaceOnUse" color-interpolation-filters="sRGB">
      <feFlood flood-color="#fff" result="bg"/>
      <feBlend in="SourceGraphic" in2="bg"/>
    </filter>
    <mask id="mask-4" x="140.69" y="-8480" width="22.47" height="32766" maskUnits="userSpaceOnUse">
      <g class="cls-86"/>
    </mask>
    <linearGradient id="linear-gradient-4" x1="7114.82" y1="284.17" x2="7080.8" y2="261.69" xlink:href="#linear-gradient"/>
    <filter id="luminosity-noclip-5" x="196.23" y="-8480" width="15.49" height="32766" filterUnits="userSpaceOnUse" color-interpolation-filters="sRGB">
      <feFlood flood-color="#fff" result="bg"/>
      <feBlend in="SourceGraphic" in2="bg"/>
    </filter>
    <mask id="mask-5" x="196.23" y="-8480" width="15.49" height="32766" maskUnits="userSpaceOnUse">
      <g class="cls-85"/>
    </mask>
    <linearGradient id="linear-gradient-5" x1="7038.57" y1="212.24" x2="7027.12" y2="232.43" xlink:href="#linear-gradient"/>
    <filter id="luminosity-noclip-6" x="99.23" y="-8480" width="5.53" height="32766" filterUnits="userSpaceOnUse" color-interpolation-filters="sRGB">
      <feFlood flood-color="#fff" result="bg"/>
      <feBlend in="SourceGraphic" in2="bg"/>
    </filter>
    <mask id="mask-6" x="99.23" y="-8480" width="5.53" height="32766" maskUnits="userSpaceOnUse">
      <g class="cls-84"/>
    </mask>
    <linearGradient id="linear-gradient-6" x1="7090.85" y1="452.46" x2="7159.5" y2="487.09" xlink:href="#linear-gradient"/>
    <filter id="luminosity-noclip-7" x="118.89" y="-8480" width="51.48" height="32766" filterUnits="userSpaceOnUse" color-interpolation-filters="sRGB">
      <feFlood flood-color="#fff" result="bg"/>
      <feBlend in="SourceGraphic" in2="bg"/>
    </filter>
    <mask id="mask-7" x="118.89" y="-8480" width="51.48" height="32766" maskUnits="userSpaceOnUse">
      <g class="cls-83"/>
    </mask>
    <linearGradient id="linear-gradient-7" x1="7095.85" y1="375.29" x2="7091.97" y2="474.09" xlink:href="#linear-gradient"/>
    <filter id="luminosity-noclip-8" x="129.05" y="-8480" width="16.18" height="32766" filterUnits="userSpaceOnUse" color-interpolation-filters="sRGB">
      <feFlood flood-color="#fff" result="bg"/>
      <feBlend in="SourceGraphic" in2="bg"/>
    </filter>
    <mask id="mask-8" x="129.05" y="-8480" width="16.18" height="32766" maskUnits="userSpaceOnUse">
      <g class="cls-82"/>
    </mask>
    <linearGradient id="linear-gradient-8" x1="7047.85" y1="595.9" x2="7106.36" y2="522.77" gradientTransform="matrix(-1, -0.03, -0.03, 1, 7248.77, 123.28)" xlink:href="#linear-gradient"/>
    <filter id="luminosity-noclip-9" x="128.46" y="-8480" width="38.8" height="32766" filterUnits="userSpaceOnUse" color-interpolation-filters="sRGB">
      <feFlood flood-color="#fff" result="bg"/>
      <feBlend in="SourceGraphic" in2="bg"/>
    </filter>
    <mask id="mask-9" x="128.46" y="-8480" width="38.8" height="32766" maskUnits="userSpaceOnUse">
      <g class="cls-81"/>
    </mask>
    <linearGradient id="linear-gradient-9" x1="6850.52" y1="408" x2="7198.68" y2="328.01" xlink:href="#linear-gradient"/>
    <filter id="luminosity-noclip-10" x="78.04" y="402.44" width="27.22" height="72.08" filterUnits="userSpaceOnUse" color-interpolation-filters="sRGB">
      <feFlood flood-color="#fff" result="bg"/>
      <feBlend in="SourceGraphic" in2="bg"/>
    </filter>
    <mask id="mask-10" x="78.04" y="402.44" width="27.22" height="72.08" maskUnits="userSpaceOnUse">
      <g class="cls-1">
        <path class="cls-2" d="M78,410.12c1,4.45,2.29,10.68,3.48,16.34a47.87,47.87,0,0,0,12-.41c3.58-.6,6,6.57,6.37,13.33s1.19,9.76.41,15.92S98.91,473,98.91,473.4a5,5,0,0,0,.52,1.13,20.18,20.18,0,0,0,3.73-11.13c-.24-8.22,1-15.38.24-19.49-.79-4.27-.24-10.79,0-17.36s1.17-14.09,1.86-20.2C95.18,399.55,87.18,402.15,78,410.12Z"/>
      </g>
    </mask>
    <radialGradient id="radial-gradient" cx="7161.28" cy="476.9" r="20.51" gradientTransform="matrix(-1, 0, 0, 1, 7237.97, 0)" gradientUnits="userSpaceOnUse">
      <stop offset="0.06" stop-color="#7e59a4"/>
      <stop offset="1" stop-color="#754e9b"/>
    </radialGradient>
    <radialGradient id="radial-gradient-2" cx="7154.51" cy="489.57" r="15.77" gradientTransform="matrix(-1, 0, 0, 1, 7237.97, 0)" gradientUnits="userSpaceOnUse">
      <stop offset="0.15" stop-color="#f9edf1"/>
      <stop offset="0.66" stop-color="#efe0e5"/>
      <stop offset="1" stop-color="#e6d5db"/>
    </radialGradient>
    <filter id="luminosity-noclip-11" x="99.23" y="459.91" width="5.53" height="32.88" filterUnits="userSpaceOnUse" color-interpolation-filters="sRGB">
      <feFlood flood-color="#fff" result="bg"/>
      <feBlend in="SourceGraphic" in2="bg"/>
    </filter>
    <mask id="mask-11" x="99.23" y="459.91" width="5.53" height="32.88" maskUnits="userSpaceOnUse">
      <g class="cls-11">
        <path class="cls-12" d="M99.72,492.79c3.1-1.84,4.7-4.08,4.87-5.66.1-.86.14-2.36.17-4.18,0-5.34-.26-13.53-.55-17.09-.19-2.1-1.91-4.28-4.42-5.95,0,7.19-.17,15.48-.48,20.27A102.44,102.44,0,0,0,99.72,492.79Z"/>
      </g>
    </mask>
    <linearGradient id="linear-gradient-10" x1="7090.85" y1="452.46" x2="7159.5" y2="487.09" gradientTransform="matrix(-1, 0, 0, 1, 7237.97, 0)" gradientUnits="userSpaceOnUse">
      <stop offset="0" stop-color="#383433"/>
      <stop offset="1" stop-color="#383432"/>
    </linearGradient>
    <filter id="luminosity-noclip-12" x="118.89" y="399.17" width="51.48" height="70.62" filterUnits="userSpaceOnUse" color-interpolation-filters="sRGB">
      <feFlood flood-color="#fff" result="bg"/>
      <feBlend in="SourceGraphic" in2="bg"/>
    </filter>
    <mask id="mask-12" x="118.89" y="399.17" width="51.48" height="70.62" maskUnits="userSpaceOnUse">
      <g class="cls-13">
        <path class="cls-14" d="M118.89,408.33c.52,2.3,1.09,4.59,1.62,6.74,1.67,3.29,4,7.38,6.4,11.51,5.66.93,11.49-.08,15.64-.67,5.06-.77,7.16,11.34,8.64,15.95s7.62,14.78,11.06,21.06c1.65,3.06,5.06,5.35,8.12,6.88a39.76,39.76,0,0,0-1.62-7.33c-3-5.4-5.14-7.21-8-11.44s-4.65-5.49-5.7-10.65-5.23-26-6.71-37.75C139.45,394.87,128.77,401.69,118.89,408.33Z"/>
      </g>
    </mask>
    <radialGradient id="radial-gradient-3" cx="7142.09" cy="418.26" r="106.43" gradientTransform="matrix(-1, 0, 0, 1, 7237.97, 0)" gradientUnits="userSpaceOnUse">
      <stop offset="0.13" stop-color="#f186b3"/>
      <stop offset="1" stop-color="#e977a7"/>
    </radialGradient>
    <filter id="luminosity-noclip-13" x="129.05" y="411.17" width="16.18" height="10.4" filterUnits="userSpaceOnUse" color-interpolation-filters="sRGB">
      <feFlood flood-color="#fff" result="bg"/>
      <feBlend in="SourceGraphic" in2="bg"/>
    </filter>
    <mask id="mask-13" x="129.05" y="411.17" width="16.18" height="10.4" maskUnits="userSpaceOnUse">
      <g class="cls-15">
        <path class="cls-16" d="M129.05,421.57a27.19,27.19,0,0,0,7.18-2.53,70.81,70.81,0,0,1,9-3.88C140.8,409.78,133.74,408.06,129.05,421.57Z"/>
      </g>
    </mask>
    <linearGradient id="linear-gradient-11" x1="7047.85" y1="595.9" x2="7106.36" y2="522.77" gradientTransform="matrix(-1, -0.03, -0.03, 1, 7248.77, 123.28)" gradientUnits="userSpaceOnUse">
      <stop offset="0" stop-color="#b191a3"/>
      <stop offset="1" stop-color="#b191a3"/>
    </linearGradient>
    <filter id="luminosity-noclip-14" x="128.46" y="292.6" width="38.8" height="118.8" filterUnits="userSpaceOnUse" color-interpolation-filters="sRGB">
      <feFlood flood-color="#fff" result="bg"/>
      <feBlend in="SourceGraphic" in2="bg"/>
    </filter>
    <mask id="mask-14" x="128.46" y="292.6" width="38.8" height="118.8" maskUnits="userSpaceOnUse">
      <g class="cls-17">
        <path class="cls-18" d="M149.76,363.07c2.12,10.41,6.39,35.59,8.19,48.34.31-.11.62-.2.94-.28,8.44-2.42,9.42-5.35,7.59-12.58s-22.57-82.34-26.87-97.45c-1.67-1.24-5.3-8.19-10.44-8.5-.43,1.32-.71,2.22-.71,2.22,3.48,12.4,8.36,32.05,10.58,41.46.69,3,1.12,4.92,1.17,5.3-.19-2.84-.36-5.3-.53-7.47V334c-.91-11.92-1.55-14.76-2.05-19.47C137,308.94,147,349.34,149.76,363.07Z"/>
      </g>
    </mask>
    <linearGradient id="linear-gradient-12" x1="6850.52" y1="408" x2="7198.68" y2="328.01" gradientTransform="matrix(-1, 0, 0, 1, 7237.97, 0)" xlink:href="#linear-gradient-11"/>
    <filter id="luminosity-noclip-15" x="35.25" y="294.28" width="32.82" height="109.03" filterUnits="userSpaceOnUse" color-interpolation-filters="sRGB">
      <feFlood flood-color="#fff" result="bg"/>
      <feBlend in="SourceGraphic" in2="bg"/>
    </filter>
    <mask id="mask-15" x="35.25" y="294.28" width="32.82" height="109.03" maskUnits="userSpaceOnUse">
      <g class="cls-3">
        <path class="cls-4" d="M35.47,403.31c6-22.26,28.37-95.28,32.6-109-1.48.38-3.11.81-4.87,1.33C59,309,36.64,392.92,35.45,398.89A11.53,11.53,0,0,0,35.47,403.31Z"/>
      </g>
    </mask>
    <linearGradient id="linear-gradient-13" x1="7253.77" y1="328.57" x2="7166.02" y2="354.83" gradientTransform="matrix(-1, 0, 0, 1, 7237.97, 0)" xlink:href="#linear-gradient-11"/>
    <radialGradient id="radial-gradient-4" cx="7133.98" cy="261.82" r="45.16" xlink:href="#radial-gradient-3"/>
    <radialGradient id="radial-gradient-5" cx="7087.28" cy="476.5" r="20.57" xlink:href="#radial-gradient"/>
    <radialGradient id="radial-gradient-6" cx="7081.11" cy="489.57" r="15.84" xlink:href="#radial-gradient-2"/>
    <filter id="luminosity-noclip-16" x="159.07" y="458.14" width="19.2" height="36.08" filterUnits="userSpaceOnUse" color-interpolation-filters="sRGB">
      <feFlood flood-color="#fff" result="bg"/>
      <feBlend in="SourceGraphic" in2="bg"/>
    </filter>
    <mask id="mask-16" x="159.07" y="458.14" width="19.2" height="36.08" maskUnits="userSpaceOnUse">
      <g class="cls-5">
        <path class="cls-6" d="M159.07,458.14c5.3,8.41,10.17,21.3,10.89,36.09,5.61-1.65,7.9-4.11,8.14-7.1.1-1.07.15-2.24.17-3.48,0-4-.43-8.53-1.91-11.44a61.62,61.62,0,0,0-6.21-9.55A43.45,43.45,0,0,0,159.07,458.14Z"/>
      </g>
    </mask>
    <linearGradient id="linear-gradient-14" x1="7034.96" y1="440.2" x2="7085.31" y2="489.15" xlink:href="#linear-gradient-10"/>
    <filter id="luminosity-noclip-17" x="140.69" y="249.54" width="22.47" height="34.43" filterUnits="userSpaceOnUse" color-interpolation-filters="sRGB">
      <feFlood flood-color="#fff" result="bg"/>
      <feBlend in="SourceGraphic" in2="bg"/>
    </filter>
    <mask id="mask-17" x="140.69" y="249.54" width="22.47" height="34.43" maskUnits="userSpaceOnUse">
      <g class="cls-7">
        <path class="cls-8" d="M140.69,249.54a63.2,63.2,0,0,0,2.41,11.15c5.37,10.75,9.34,20.7,14.71,23.28a10.42,10.42,0,0,0,5.35-4.44,7.4,7.4,0,0,1-4.16-1.72C154,273.85,145.25,258.33,140.69,249.54Z"/>
      </g>
    </mask>
    <linearGradient id="linear-gradient-15" x1="7114.82" y1="284.17" x2="7080.8" y2="261.69" gradientTransform="matrix(-1, 0, 0, 1, 7237.97, 0)" gradientUnits="userSpaceOnUse">
      <stop offset="0" stop-color="#e77e65"/>
      <stop offset="1" stop-color="#e77e65"/>
    </linearGradient>
    <filter id="luminosity-noclip-18" x="196.23" y="211.43" width="15.49" height="16.62" filterUnits="userSpaceOnUse" color-interpolation-filters="sRGB">
      <feFlood flood-color="#fff" result="bg"/>
      <feBlend in="SourceGraphic" in2="bg"/>
    </filter>
    <mask id="mask-18" x="196.23" y="211.43" width="15.49" height="16.62" maskUnits="userSpaceOnUse">
      <g class="cls-9">
        <path class="cls-10" d="M211.27,216.42a6,6,0,0,0-.19-5c-.33,2.46-1.1,5-2.53,5.87-3.58,2.2-7.45,4.4-8.45,4.59-1.29,3.67-2.29,4.87-3.87,6.16,3.37-.89,4.39-3.47,5.68-5.66C207.57,220.79,210.37,218.5,211.27,216.42Z"/>
      </g>
    </mask>
    <linearGradient id="linear-gradient-16" x1="7038.57" y1="212.24" x2="7027.12" y2="232.43" xlink:href="#linear-gradient-15"/>
    <radialGradient id="radial-gradient-7" cx="7173.22" cy="239.81" r="21.6" xlink:href="#radial-gradient-3"/>
    <radialGradient id="radial-gradient-8" cx="7088.16" cy="243.12" r="18.85" xlink:href="#radial-gradient-3"/>
    <radialGradient id="radial-gradient-9" cx="7095.18" cy="252.34" r="8.92" xlink:href="#radial-gradient-3"/>
    <radialGradient id="radial-gradient-10" cx="55.08" cy="242.31" r="20.02" gradientTransform="matrix(1, 0, 0, 1, 0, 0)" xlink:href="#radial-gradient-3"/>
    <radialGradient id="radial-gradient-11" cx="64.92" cy="250.47" r="6.29" gradientTransform="matrix(1, 0, 0, 1, 0, 0)" xlink:href="#radial-gradient-3"/>
  </defs>
  <g class="cls-19">
    <g id="Layer_1" data-name="Layer 1">
      <g>
        <path class="cls-20" d="M227.93,228.86a7.75,7.75,0,0,0-5.28-2.06h0a4.64,4.64,0,0,0-.85.07.22.22,0,0,0,0-.11,3.78,3.78,0,0,0-.43-1.22,4.86,4.86,0,0,0-5.14-2.15c-2.67.5-5.85,1.57-7.35,1.79-4.11-.74-6.54-1.08-9.43-1.62a4,4,0,0,0-.62-.12c-.41-.1-.82-.17-1.25-.27-3.77-.78-6.56-2-7.95-2.07,5.66-1.6,8.46-3.9,9.36-6a6,6,0,0,0-.19-5,2.44,2.44,0,0,0-1.12-1.08c-1.79-.79-2.39.29-4.47,1.79a21.72,21.72,0,0,1-9.74,3.77,14.09,14.09,0,0,0-9.86,5.38c-2.87,3.28-4.45,10.38-3.4,14.76-3.93,5.29-10.86,13.94-16.4,21-.09.13-.19.24-.28.36-1.21-2.45-2.49-5-3.72-7.47a18.53,18.53,0,0,0,1-3.39s-2.9-.48-7.81-12.48a20.12,20.12,0,0,0-2.15-3.95c10.08-3.33,19.52-8.35,26.69-14.54,21.58-18.63,4.65-28.21,9.55-61.17,0,0,0-.07,0-.1a36,36,0,0,0,1.88-8.57c.51-4.26.13-7.62-1-10a155.61,155.61,0,0,0-2-19.08,38.86,38.86,0,0,0,1-3.89,89.76,89.76,0,0,0,2.32-20.29A120.67,120.67,0,0,0,176,62.9c6.5-4.62,13.39-6,5.48-14.79-3.44-3.84-8.52-5.68-13.45-6.52a72.64,72.64,0,0,0-14.3-18.78A20.74,20.74,0,0,0,149,12c-5.88-6.55-8.54-4.54-11.69-.63-12.27-6.28-27.5-9.85-46-9.85C25.44,1.48,6.88,51.1,6.88,99.6a86.59,86.59,0,0,0,1,13c.08,7.66.2,16,0,24.43a22.25,22.25,0,0,0-.25,7.52C7.05,156,5.72,167.47,2.73,177.69c-8,27.21,13.63,40.54,42.32,44.9,1.68.25,3.3.48,4.86.68-1.54,1.07-3.39,2.39-5.59,4L26.39,238.64s.17.5.47,1.35c-3.92,2.64-16.75,11.43-20.92,15.68C1,260.71,1.57,272.5,10.7,285s15.8,20.47,18.51,25.89a97.92,97.92,0,0,1,4.25,13.41c1.51,5.76,4.22,8.54,6.34,9.88-.38,1.4-.76,2.82-1.14,4.24-3.69,13.7-7.5,28-10.44,39.19-2.78,10.6-4.77,18.36-5.1,20a11.48,11.48,0,0,0,0,4.41v0c1,4.46,4.18,8.19,9.6,8.16,6.79-.05,10,2.7,17.08,6.26h0a26.2,26.2,0,0,0,3.91,1.72,26.76,26.76,0,0,0,5.9,1.36c.65.08,1.31.15,2,.18.47,0,.93,0,1.4,0h.5a34.75,34.75,0,0,0,4.49-.33c.41,1.93.82,3.87,1.21,5.76,1.41,6.54,2.61,12.32,2.84,13.7.48,2.58-2.57,6.33-5.39,10.56-2.69,4-4.29,6.15-7.08,11-.59.31-1.14.62-1.66.93a61.85,61.85,0,0,0-6.19,9.55c-1.48,2.91-1.93,7.42-1.88,11.44h0c0,1.24.07,2.41.17,3.48.37,4.59,5.58,8,20.27,9,.93.06,1.84.09,2.71.1.55,0,1.06,0,1.59,0,.31,0,.63,0,.93,0,.55,0,1.07-.09,1.59-.14l.76-.08c.5-.06,1-.14,1.44-.23l.75-.13c.42-.08.82-.18,1.22-.28l.82-.21q.5-.13,1-.3t1-.33l.63-.25c.42-.17.82-.34,1.2-.53l.21-.1a16.49,16.49,0,0,0,3.33-2.13l.18-.15c.21-.19.42-.37.61-.56l.29-.3.39-.43c.12-.14.22-.27.32-.41l.25-.34a5.06,5.06,0,0,0,.26-.44c.06-.1.13-.21.18-.31s.1-.23.15-.35.1-.25.14-.36a.13.13,0,0,1,0-.06,3.1,3.1,0,0,0,.13-.57c.09-.86.14-2.36.16-4.18h0c0-5.35-.27-13.54-.55-17.09a6,6,0,0,0-1.06-2.72c-.2-8.1,1-15.16.25-19.23-.79-4.27-.24-10.79,0-17.36.07-2.22.23-4.55.43-6.9,2,.37,4,.82,5.9,1.33a54.2,54.2,0,0,0,12.3,1.61c.84,0,1.68-.05,2.52-.12l2.36,4.1c4.42,7.69,9,15.55,9.67,18.87.83,4,.72,9.61.49,17.67a5.83,5.83,0,0,0-1.07,2.75c-.28,3.55-.57,11.74-.55,17.09,0,1.82.07,3.32.17,4.18a4.53,4.53,0,0,0,.67,1.75c1.07,1.82,3.49,3.93,7.33,5.42a31.1,31.1,0,0,0,11.44,1.89c.86,0,1.75,0,2.67-.1l2.14-.17,1.18-.12.95-.1,1.07-.13,1.79-.25L153,494c.58-.1,1.15-.2,1.69-.31l.07,0c1-.21,2-.43,2.85-.69,5.07-1.48,7.42-3.64,8-6.24h0a5.66,5.66,0,0,0,.13-.84c.1-1.07.14-2.24.17-3.48.05-4-.43-8.53-1.91-11.44a62.62,62.62,0,0,0-6.21-9.55c-.58-.35-1.22-.69-1.89-1-2.78-4.76-4.8-6.6-7.47-10.6-2.81-4.23-4.65-5.5-5.7-10.65-.79-3.77-3.22-15.91-5-26.77,2.5-.73,5.07-1.42,7.91-2.21.31-.11.62-.19.94-.28,8.44-2.41,9.42-5.34,7.59-12.57-1.54-6-16.27-59.49-23.58-85.71l.18,0c.75-4.13,2.15-9.66-3.47-11.71a4.37,4.37,0,0,1-.46-.43c.81-7.86,2.28-32,2.85-41l2.57,4c2.41,4.95,4.58,9.6,6.78,13.25,3.11,5.59,6.23,10.17,9,11.53h0c7.56,4.17,16.51-1.39,19.9-7.76a369.3,369.3,0,0,0,15.09-34.58c.4,0,.82,0,1.25,0,7.3.6,16.71.84,20.29,1.15s6.21.38,10.29-1.51,7-2.89,6.88-4.46c.07,0,.17-.07.24-.12s0,0,.05,0a9.3,9.3,0,0,0,3.56-2.73,1.89,1.89,0,0,0,0-2.5,1.57,1.57,0,0,0,.21-.17.38.38,0,0,0,.12-.1,6.86,6.86,0,0,0,2.34-2.6A2.44,2.44,0,0,0,227.93,228.86ZM37.22,261.68a11.17,11.17,0,0,0,2.49,2.45L51.5,256l0-.24,1.1-.69c-.11,1.15-.18,2.18-.2,3-.24,7.86-1.64,25.92-1.56,36.24h0c-.13.4-.27.88-.43,1.39l-.5-.15c0,.09,0,.2,0,.29-1.9.29-6.13.72-9.53-.37-3-1.87-4.84-7.76-4.84-7.76C30.86,276.31,27,267.84,27,267.84A33.05,33.05,0,0,0,37.22,261.68Zm4.09,65.48.33.14-.25.92C41.08,327.51,41.31,327.16,41.31,327.16Z"/>
        <g>
          <g>
            <path class="cls-21" d="M178.77,80.52s15.5,40.9,10.6,73.86,12,42.54-9.56,61.17S116,242.4,98.06,224.7c0,0-12,3.54-40.68-.82S7.08,206.19,15.06,179s4.09-63.26,5.34-84.64S48.3,47.89,104.4,63,178.77,80.52,178.77,80.52Z"/>
            <g>
              <g>
                <path class="cls-22" d="M81.33,483.58c8,1,14.35-3.51,18.1-9.05a20.18,20.18,0,0,0,3.73-11.13c-.24-8.22,1-15.38.24-19.49-.79-4.27-.24-10.79,0-17.36s1.17-14.09,1.86-20.2c-10.08-6.8-18.08-4.2-27.22,3.77,1,4.45,2.29,10.68,3.48,16.34,1.41,6.54,2.61,12.32,2.85,13.7.47,2.58-2.58,6.33-5.4,10.56s-4.44,6.35-7.5,11.75C68.41,472.54,67.94,482,81.33,483.58Z"/>
                <g class="cls-23">
                  <path class="cls-24" d="M78,410.12c1,4.45,2.29,10.68,3.48,16.34a47.87,47.87,0,0,0,12-.41c3.58-.6,6,6.57,6.37,13.33s1.19,9.76.41,15.92S98.91,473,98.91,473.4a5,5,0,0,0,.52,1.13,20.18,20.18,0,0,0,3.73-11.13c-.24-8.22,1-15.38.24-19.49-.79-4.27-.24-10.79,0-17.36s1.17-14.09,1.86-20.2C95.18,399.55,87.18,402.15,78,410.12Z"/>
                </g>
              </g>
              <g>
                <path class="cls-25" d="M62.16,483.65c0,1.24.07,2.41.17,3.48.35,4.59,5.58,8,20.27,9,7.88.55,13.54-1.1,17.12-3.3,3.1-1.84,4.7-4.08,4.87-5.66.1-.86.14-2.36.17-4.18,0-5.34-.26-13.53-.55-17.09-.19-2.1-1.91-4.28-4.42-5.95a18.61,18.61,0,0,0-11.79-3,44.53,44.53,0,0,0-17.77,5.76A62.34,62.34,0,0,0,64,472.21C62.56,475.12,62.11,479.64,62.16,483.65Z"/>
                <path class="cls-26" d="M104.76,483c0,1.82-.07,3.32-.16,4.18-.39,3.39-7.34,10-22,9s-19.9-4.37-20.27-9c-.1-1.07-.14-2.24-.16-3.48,1.66,3.77,7.48,7.78,21.19,7.78C96.07,491.43,102.35,487.25,104.76,483Z"/>
                <g class="cls-27">
                  <path class="cls-28" d="M99.72,492.79c3.1-1.84,4.7-4.08,4.87-5.66.1-.86.14-2.36.17-4.18,0-5.34-.26-13.53-.55-17.09-.19-2.1-1.91-4.28-4.42-5.95,0,7.19-.17,15.48-.48,20.27A102.44,102.44,0,0,0,99.72,492.79Z"/>
                </g>
              </g>
              <g>
                <path class="cls-22" d="M118.07,408.88a24.09,24.09,0,0,0,2.44,6.19c1.67,3.29,4,7.38,6.4,11.51,4.42,7.69,9,15.54,9.67,18.86.84,4.08.72,9.74.48,18s8.45,21.82,21.85,20.18c8.21-1,11.2-4.92,11.58-10.13a17.35,17.35,0,0,0-.12-3.65,39.76,39.76,0,0,0-1.62-7.33c-3-5.4-5.14-7.21-8-11.44s-4.65-5.49-5.7-10.65-5.23-26-6.71-37.75c-8.93-7.76-19.61-.94-29.49,5.7Z"/>
                <g class="cls-29">
                  <path class="cls-24" d="M118.89,408.33c.52,2.3,1.09,4.59,1.62,6.74,1.67,3.29,4,7.38,6.4,11.51,5.66.93,11.49-.08,15.64-.67,5.06-.77,7.16,11.34,8.64,15.95s7.62,14.78,11.06,21.06c1.65,3.06,5.06,5.35,8.12,6.88a39.76,39.76,0,0,0-1.62-7.33c-3-5.4-5.14-7.21-8-11.44s-4.65-5.49-5.7-10.65-5.23-26-6.71-37.75C139.45,394.87,128.77,401.69,118.89,408.33Z"/>
                </g>
              </g>
              <g>
                <path class="cls-30" d="M35.47,403.31v0c1,4.47,4.18,8.19,9.61,8.16,7.17-.05,10.36,3,18.31,6.87s16.31,2.94,22.94,1.08,14.39-1.59,24.16.81c6.92,1.69,12.81,2.49,18.56,1.32a27.19,27.19,0,0,0,7.18-2.53,70.81,70.81,0,0,1,9-3.88c4.09-1.44,8-2.45,12.72-3.75.31-.11.62-.2.94-.28,8.44-2.42,9.42-5.35,7.59-12.58s-22.57-82.34-26.87-97.45c-1.67-1.24-5.3-8.19-10.44-8.5-8-.5-19.15-.07-30,.48-13.4.67-16.36-2.48-31.09,1.2-1.48.38-3.11.81-4.87,1.33-1.44,4.56-5,17.24-9,32.24-3,11.27-6.42,23.85-9.46,35.29-4.82,18.13-8.78,33.34-9.26,35.75A11.53,11.53,0,0,0,35.47,403.31Z"/>
                <g class="cls-31">
                  <path class="cls-32" d="M129.05,421.57a27.19,27.19,0,0,0,7.18-2.53,70.81,70.81,0,0,1,9-3.88C140.8,409.78,133.74,408.06,129.05,421.57Z"/>
                </g>
                <g class="cls-33">
                  <path class="Graphic-Style-6" d="M149.76,363.07c2.12,10.41,6.39,35.59,8.19,48.34.31-.11.62-.2.94-.28,8.44-2.42,9.42-5.35,7.59-12.58s-22.57-82.34-26.87-97.45c-1.67-1.24-5.3-8.19-10.44-8.5-.43,1.32-.71,2.22-.71,2.22,3.48,12.4,8.36,32.05,10.58,41.46.69,3,1.12,4.92,1.17,5.3-.19-2.84-.36-5.3-.53-7.47V334c-.91-11.92-1.55-14.76-2.05-19.47C137,308.94,147,349.34,149.76,363.07Z"/>
                </g>
                <g class="cls-34">
                  <path class="cls-35" d="M35.47,403.31c6-22.26,28.37-95.28,32.6-109-1.48.38-3.11.81-4.87,1.33C59,309,36.64,392.92,35.45,398.89A11.53,11.53,0,0,0,35.47,403.31Z"/>
                </g>
                <path class="cls-36" d="M133.72,307.24l2.38,12.84c.78,4.3,1.55,8.57,2.32,12.84s1.55,8.54,2.33,12.84,1.59,8.41,2.43,12.84q-.65-6.51-1.58-13c-.63-4.31-1.36-8.6-2.15-12.89s-1.69-8.55-2.65-12.79S134.82,311.45,133.72,307.24Z"/>
                <path class="cls-36" d="M117.12,306.36c-.13,2.19-.24,4-.34,5.74-.06,2-.11,3.85-.16,5.75s0,3.83,0,5.74.13,3.83.27,5.75c.17-1.91.3-3.83.37-5.74s.11-3.83.13-5.75,0-3.77-.07-5.74C117.28,310.34,117.21,308.55,117.12,306.36Z"/>
                <path class="cls-36" d="M93.64,315.61c.18,3.84.34,7.41.51,11s.27,7.32.41,11,.25,7.28.37,11,.26,7.15.39,11q.34-5.49.38-11c0-3.66,0-7.33-.19-11s-.4-7.32-.71-11S94.11,319.24,93.64,315.61Z"/>
                <path class="cls-36" d="M76.41,312q-1.11,6.61-2,13.28t-1.55,13.34c-.44,4.45-.81,8.91-1.08,13.38s-.47,8.94-.57,13.42c.46-4.6.9-9,1.34-13.36s.85-8.91,1.28-13.35.84-8.88,1.26-13.35S76,316.64,76.41,312Z"/>
                <path class="cls-36" d="M65.8,303.35q-1.42,3.7-2.62,7.5t-2.13,7.65c-.62,2.58-1.14,5.18-1.6,7.79s-.8,5.24-1.05,7.87c.65-2.79,1.23-5.26,1.8-7.72.61-2.61,1.22-5.15,1.82-7.71s1.22-5.09,1.85-7.69S65.1,306.13,65.8,303.35Z"/>
              </g>
              <path class="cls-37" d="M64.78,259.36C64.53,267.58,63,287,63.24,297c4.65,6.75,22,12.19,34,13,9.82.65,21.44,2.57,31.5-1.43a69.09,69.09,0,0,0,10.15-5.95c.78-4.9,2.7-37.2,3.2-44.78.3-4.47,3.69-11.05,2.32-20.76-.31-2.25-.66-4.42-1.12-6.43-.86-4-2-7.38-3.41-9.17-3.44-1.79-13.14-6.85-18-8-8.08-1.43-19.7-.55-29.42.1-5.52,1.1-15.21,4.32-20.73,7.45a26.27,26.27,0,0,0-1.12,3.6C68.18,234.3,65,252.24,64.78,259.36Z"/>
              <path class="cls-38" d="M83.19,227.57c.88,5.21,4,9.55,10,9.24s10-6.57,14-12.08a42.08,42.08,0,0,0,6.88,10c3.13,3.13,8.81,3,12.39-1.5,2.17-2.7,3.46-6.93,3.89-10.39a10.68,10.68,0,0,0-.31-5.13,5.09,5.09,0,0,0-1.84-2s0,0,0,0a17.38,17.38,0,0,0-5.62-2.1c-.26,0-.5-.12-.71-.17-14.19,4.09-23.14,1.44-27.92-.64-1.5-.46-8.67.45-10.15,3.13a10.15,10.15,0,0,0-1.14,4.49A30.16,30.16,0,0,0,83.19,227.57Z"/>
              <g>
                <path class="cls-22" d="M91,215.08c3.28,5.52,12.07,8.79,16.56,8.79s12.69-4.1,14.33-10.43a10.08,10.08,0,0,1-.54-2.19,55.62,55.62,0,0,1-.59-6.16c-.24-5.42-.15-12.29.1-17.84a22.72,22.72,0,0,0-14-4.68,25,25,0,0,0-3,.17A20.06,20.06,0,0,0,92,188.48c.19,5.91.24,11.46.12,16-.07,2.4-.2,4.51-.37,6.26A19.16,19.16,0,0,1,91,215.08Z"/>
                <path class="cls-24" d="M92.1,204.48c.12-4.54.07-10.09-.12-16a19.41,19.41,0,0,1,11.56-5.74,23.73,23.73,0,0,1,2.9-.17,21.86,21.86,0,0,1,13.67,4.68c-.24,5.55,0,12.55.29,18a53.67,53.67,0,0,0,.47,5.89c-8.26,3.61-18.57,4.78-28.72-.18C92.32,209.19,92,206.88,92.1,204.48Z"/>
              </g>
              <path class="cls-39" d="M61.77,308.5c20.49,7.17,44.81,8.3,67.4,6.37,3-.23,11-1.7,13.91-2.06.75-4.13,2.15-9.66-3.47-11.71-1.82.26-4.37,2-6.28,2.14-23.62,2.37-52.93-.57-71.06-6.39C61.66,300.1,62,305.33,61.77,308.5Z"/>
              <g>
                <path class="cls-40" d="M135.45,483c0,1.82.08,3.32.17,4.18.38,3.39,7.38,10,22.11,9A60,60,0,0,0,170,494.23c5.61-1.65,7.9-4.11,8.14-7.1.1-1.07.15-2.24.17-3.48,0-4-.43-8.53-1.91-11.44a61.62,61.62,0,0,0-6.21-9.55,43.45,43.45,0,0,0-11.08-4.52,41.82,41.82,0,0,0-6.76-1.24c-7.57-.81-15.9,4.18-16.31,9C135.72,469.42,135.43,477.61,135.45,483Z"/>
                <path class="cls-41" d="M135.45,483c0,1.82.07,3.32.17,4.18.39,3.39,7.38,10,22.11,9s20-4.37,20.37-9c.09-1.07.14-2.24.16-3.48-1.68,3.77-7.52,7.78-21.3,7.78C144.18,491.43,137.88,487.25,135.45,483Z"/>
                <g class="cls-42">
                  <path class="cls-43" d="M159.07,458.14c5.3,8.41,10.17,21.3,10.89,36.09,5.61-1.65,7.9-4.11,8.14-7.1.1-1.07.15-2.24.17-3.48,0-4-.43-8.53-1.91-11.44a61.62,61.62,0,0,0-6.21-9.55A43.45,43.45,0,0,0,159.07,458.14Z"/>
                </g>
              </g>
              <path class="cls-36" d="M62.15,417.75A27.9,27.9,0,0,0,73.92,421a43.22,43.22,0,0,0,12.23-1.5c7.74-1.73,15.82-.56,23.58,1.46a54.2,54.2,0,0,0,12.3,1.61,27.21,27.21,0,0,0,12.19-2.77c7.05-4.13,14.83-6.26,22.5-9L145,414.24a71.15,71.15,0,0,0-11.2,4.75A27.63,27.63,0,0,1,122,421.51a53.28,53.28,0,0,1-12-1.69c-7.82-1.94-16.13-3.17-24.07-1.2a42.09,42.09,0,0,1-12,1.81A27.62,27.62,0,0,1,62.15,417.75Z"/>
            </g>
            <g class="cls-44">
              <path class="cls-45" d="M140.69,249.54a63.2,63.2,0,0,0,2.41,11.15c5.37,10.75,9.34,20.7,14.71,23.28a10.42,10.42,0,0,0,5.35-4.44,7.4,7.4,0,0,1-4.16-1.72C154,273.85,145.25,258.33,140.69,249.54Z"/>
            </g>
            <path class="cls-22" d="M140.69,249.54a64.11,64.11,0,0,0,2.41,11.15c.91,1.82,1.85,3.73,2.8,5.68,4.74,9.6,10,19.93,14.49,22.09a10.65,10.65,0,0,0,5.34-4.44c4.23-6.54,3.54-17.48,2.63-21.44-.23-.48-.45-1-.71-1.46-2.3-4.74-5.11-10.25-7.47-15.08-1.91-3.9-3.52-7.36-4.35-9.63-2-5.38-8.55-13.24-15.93-15-.24,1.84-.41,3.9-.48,6A127.09,127.09,0,0,0,140.69,249.54Z"/>
            <path class="cls-24" d="M140.69,249.54a56.33,56.33,0,0,0,2.85,10.89c.9,1.81,1.72,3.87,2.68,5.82,8.91-3.35,12.3-13.19,13.86-19.81a108.48,108.48,0,0,1-4.25-10c-2-5.38-8.55-13.24-15.93-15-.24,1.84-.41,3.9-.48,6A127.09,127.09,0,0,0,140.69,249.54Z"/>
            <path class="cls-22" d="M157,285.22a9.46,9.46,0,0,0,3.43,3.23c7.57,4.18,16.52-1.39,19.91-7.76s12.13-25.86,15.31-35.22c-.14-3.9.33-8.38-3.3-11-1.52-1.12-3.84-1.88-7.23-2.15-2.25,3.7-11.8,15.57-19,24.69-3.65,4.61-5.67,5.67-7.88,12.6"/>
            <g>
              <g>
                <path class="cls-22" d="M186,241.18a13.08,13.08,0,0,0,10.63,4.94c7.3.6,16.71.84,20.29,1.15s6.21.38,10.3-1.5,7-2.89,6.87-4.47c.07-.05.17-.07.24-.12s0,0,0,0a9.3,9.3,0,0,0,3.56-2.73,1.89,1.89,0,0,0,0-2.5l.22-.17a.33.33,0,0,0,.11-.1,6.91,6.91,0,0,0,2.35-2.6,2.46,2.46,0,0,0-.39-2.91A7.74,7.74,0,0,0,235,228.1h0a4.43,4.43,0,0,0-.83.07h0a.25.25,0,0,0,0-.12,3.78,3.78,0,0,0-.43-1.22,4.86,4.86,0,0,0-5.14-2.15c-2.67.5-5.85,1.58-7.35,1.79-4.11-.74-6.54-1.07-9.43-1.62a4,4,0,0,0-.62-.12c-.41-.1-.82-.17-1.24-.26-3.78-.79-6.57-2-8-2.08,5.66-1.6,8.46-3.89,9.36-6a6,6,0,0,0-.19-5,2.44,2.44,0,0,0-1.12-1.08c-1.79-.79-2.39.29-4.46,1.79a21.93,21.93,0,0,1-9.75,3.78,14,14,0,0,0-9.86,5.37c-2.89,3.29-4.46,10.46-3.39,14.83"/>
                <g class="cls-46">
                  <path class="cls-47" d="M211.27,216.42a6,6,0,0,0-.19-5c-.33,2.46-1.1,5-2.53,5.87-3.58,2.2-7.45,4.4-8.45,4.59-1.29,3.67-2.29,4.87-3.87,6.16,3.37-.89,4.39-3.47,5.68-5.66C207.57,220.79,210.37,218.5,211.27,216.42Z"/>
                </g>
                <path class="cls-48" d="M203.5,232.66a22.14,22.14,0,0,0-4.41-1.6,16.74,16.74,0,0,0-4.75-.44,11,11,0,0,0-4.61,1.39,8.88,8.88,0,0,0-1.91,1.48,7.48,7.48,0,0,0-1.37,1.95,10.63,10.63,0,0,1,1.78-1.46,12.82,12.82,0,0,1,2-1.06,14.71,14.71,0,0,1,4.26-1.15,17.92,17.92,0,0,1,4.51,0A36.6,36.6,0,0,1,203.5,232.66Z"/>
                <path class="cls-48" d="M214.61,241.18c.17,0,.31.07.48.09a44.19,44.19,0,0,0,4.84.74c.91.1,1.8.17,2.68.24a6.86,6.86,0,0,0,2.89-.31,16.15,16.15,0,0,0,2.36-1.38,8.9,8.9,0,0,1,2.29-1,3.72,3.72,0,0,1,3.94,1.75c.08-.05.17-.08.24-.12s0,0,0,0c-.45-1.74-2.55-2.72-4.37-2.46s-3.6,1.41-5,2a6.11,6.11,0,0,1-2.37.26c-.88,0-1.76,0-2.65-.05a46.42,46.42,0,0,0-4.85.22A3.15,3.15,0,0,0,214.61,241.18Z"/>
                <path class="cls-48" d="M213,229.67a.15.15,0,0,1,0,.09,11,11,0,0,0,1.32.29v0q2,.47,4.08.81a38,38,0,0,0,5.92.72,13.57,13.57,0,0,0,5.9-1.46,32,32,0,0,1,4.7-2,4.83,4.83,0,0,0-.86.07.25.25,0,0,0,0-.12,36.45,36.45,0,0,0-4.2,1.1,15.91,15.91,0,0,1-5.52,1c-1.86,0-3.82-.23-5.78-.33-1.43-.1-2.89-.17-4.37-.17C213.82,229.64,213.42,229.64,213,229.67Z"/>
                <path class="cls-48" d="M214.85,235c.24.07.48.14.71.19,1.75.47,3.54.88,5.33,1.24A26,26,0,0,0,224,237a7.47,7.47,0,0,0,3.25-.26,30.28,30.28,0,0,1,5.87-1.62,8.45,8.45,0,0,1,4.87.83,1,1,0,0,0,.22-.16.53.53,0,0,0,.12-.1c-1.36-1.24-3.49-1.46-5.26-1.36a23.76,23.76,0,0,0-3.15.38c-1.07.24-2,.55-3,.84a7.3,7.3,0,0,1-2.87.31c-1-.05-2-.19-3.05-.31-1.79-.22-3.61-.38-5.45-.46C215.33,235,215.09,235,214.85,235Z"/>
              </g>
              <g>
                <path class="cls-49" d="M215.9,245.23s1.73-13.26-4.79-20.5"/>
                <path class="cls-50" d="M215.9,245.23c0-1.81-.09-3.6-.21-5.38a51.67,51.67,0,0,0-.68-5.29,34.5,34.5,0,0,0-1.41-5.11,23.72,23.72,0,0,0-2.49-4.72,15,15,0,0,1,3.21,4.41,23.61,23.61,0,0,1,1.67,5.23A28.34,28.34,0,0,1,215.9,245.23Z"/>
              </g>
            </g>
            <g>
              <path class="cls-51" d="M19.21,100.89c0,48.51,38.25,79.35,85.94,79.35s86.33-39.32,86.33-87.83-25-89.64-87.83-89.64C37.77,2.77,19.21,52.39,19.21,100.89Z"/>
              <g>
                <path class="cls-52" d="M171.24,139.56c3.42-4.62,7.87-9.07,13.17-8.21s7.87,5.81,6.85,14.37-2.91,13-9.41,18.13-9.92,7.7-16.77,3.08C163.88,157.52,169.53,142.64,171.24,139.56Z"/>
                <path class="cls-53" d="M166.85,164.06a4,4,0,0,0,2.62-.26,17,17,0,0,0,2.42-1.11,8.37,8.37,0,0,0,3.59-4,8.22,8.22,0,0,0,.3-5.38,7.89,7.89,0,0,0-1.45-2.75c.37-.6.76-1.19,1.16-1.77a52.34,52.34,0,0,1,3.44-4.39c1.21-1.39,2.42-2.87,4.07-3.5a3.2,3.2,0,0,1,2.52.07,2.42,2.42,0,0,1,1.56,2,2.49,2.49,0,0,0-1.35-2.42,3.65,3.65,0,0,0-2.94-.35c-2,.61-3.3,2.18-4.55,3.56a33.56,33.56,0,0,0-3.32,4.62c-.33.56-.65,1.13-.95,1.71-.05.09-.09.19-.15.3a4.43,4.43,0,0,1,.29.46,8.38,8.38,0,0,1,1,2.58,8,8,0,0,1-.47,4.87,8.38,8.38,0,0,1-3.12,3.8,21.08,21.08,0,0,1-2.22,1.29A4.18,4.18,0,0,1,166.85,164.06Zm13.81-5.34a56.1,56.1,0,0,1-4.83,3,25.89,25.89,0,0,0,5.22-2.46,11.08,11.08,0,0,0,4.06-4.23,10.15,10.15,0,0,0,.87-5.8,22.57,22.57,0,0,0-1.51-5.58,40.87,40.87,0,0,1,.82,5.63,10.56,10.56,0,0,1-1,5.35A11.63,11.63,0,0,1,180.66,158.72Z"/>
              </g>
              <g>
                <path class="cls-52" d="M40.26,139.84c-3.47-4.69-8-9.2-13.36-8.33s-8,5.9-6.95,14.58,2.95,13.19,9.55,18.4,10.07,7.81,17,3.12C47.72,158.07,42,143,40.26,139.84Z"/>
                <path class="cls-53" d="M42.22,164A19.88,19.88,0,0,1,40,162.72a8.47,8.47,0,0,1-3.17-3.86,8.1,8.1,0,0,1-.47-4.94,8.57,8.57,0,0,1,1-2.61,5.35,5.35,0,0,1,.29-.47,3,3,0,0,0-.15-.31c-.31-.58-.62-1.16-1-1.73a32.5,32.5,0,0,0-3.37-4.68c-1.27-1.41-2.61-3-4.61-3.61a3.72,3.72,0,0,0-3,.34,2.53,2.53,0,0,0-1.37,2.46,2.47,2.47,0,0,1,1.58-2.08,3.3,3.3,0,0,1,2.56-.07c1.68.64,2.9,2.14,4.13,3.55A51.9,51.9,0,0,1,36,149.17c.4.58.8,1.18,1.18,1.79a7.88,7.88,0,0,0-1.47,2.79,8.26,8.26,0,0,0,.3,5.46,8.55,8.55,0,0,0,3.64,4.1,16,16,0,0,0,2.46,1.12,4,4,0,0,0,2.65.27A4.33,4.33,0,0,1,42.22,164ZM27,155.15a10.64,10.64,0,0,1-1-5.42,43.42,43.42,0,0,1,.83-5.71,23.12,23.12,0,0,0-1.52,5.65,10.37,10.37,0,0,0,.88,5.89,11.25,11.25,0,0,0,4.12,4.29,26.84,26.84,0,0,0,5.29,2.49,55.28,55.28,0,0,1-4.9-3.06A11.88,11.88,0,0,1,27,155.15Z"/>
              </g>
              <g>
                <path class="cls-52" d="M36.31,114.05c.07.61-6.15,1.26-6.08,1.88,2.45,20.71,6.25,40.54,9,50.82A39.63,39.63,0,0,0,44,177.64,45.07,45.07,0,0,0,56.9,190.78a151.32,151.32,0,0,0,23,12.44,114.67,114.67,0,0,0,11.67,4.5,44.25,44.25,0,0,0,12.7,2.45,50,50,0,0,0,14.31-2.66c11.07-3.46,22.78-9.45,29.1-12.78,9.26-4.83,20.51-15.2,23.15-26.22A513.28,513.28,0,0,0,180.74,117c.93-7-5-9.68-10.76-30.34-7.67-27.71-18.24-38.69-61.92-38.69C31.81,47.92,33.87,92.66,36.31,114.05Z"/>
                <path class="cls-54" d="M176.08,144.65s-7.19-46.77-22.72-59.44S135.6,64.42,135.6,64.42s-4.14,23.66-30.87,33.78L105.91,84A34.68,34.68,0,0,1,90,98.2L92.6,80.27A277.7,277.7,0,0,0,52.7,99.58c-19.35,11.6-18.53,49.84-18.53,49.84l7.77-79.3,66.12-27.43L150.13,41l28.49,39.24-4.42,30.58Z"/>
              </g>
              <g>
                <ellipse class="cls-55" cx="73.06" cy="129.67" rx="13.93" ry="14.74"/>
                <ellipse class="cls-56" cx="72.86" cy="129.51" rx="9.32" ry="9.86"/>
                <ellipse class="cls-57" cx="68.5" cy="121.57" rx="2.56" ry="2.71"/>
              </g>
              <g>
                <ellipse class="cls-55" cx="139.43" cy="132.33" rx="13.93" ry="14.74"/>
                <ellipse class="cls-56" cx="139.09" cy="132.32" rx="9.18" ry="9.71"/>
                <ellipse class="cls-57" cx="134.87" cy="124.23" rx="2.56" ry="2.71"/>
              </g>
              <path class="cls-58" d="M115.42,152.16a10.32,10.32,0,0,1-8.18,6.6,8.8,8.8,0,0,1-5.52-1,8.33,8.33,0,0,1-3.65-3.94,14.25,14.25,0,0,0,4.29,2.52,9.91,9.91,0,0,0,4.61.42,12.69,12.69,0,0,0,4.45-1.54A20,20,0,0,0,115.42,152.16Z"/>
              <g>
                <path class="cls-54" d="M130.53,165.37c1.07-.43,2.32-2.15,3.29-2.75a7.61,7.61,0,0,1,3.22-1.09c1.48-.14,3.28.4,3.58,1.74.24,1.07-.61,2.11-1.56,2.79a9.52,9.52,0,0,1-5.68,1.77,2.9,2.9,0,0,1-2.36-.91c-.48-.68.07-1.88.95-1.75Z"/>
                <path class="cls-54" d="M82.79,168.35c-.68-.76-1.78-2.88-2.67-3.44a4.49,4.49,0,0,0-1.9-.75A3.22,3.22,0,0,0,75,166.24a3.84,3.84,0,0,0,.83,3.68A7.37,7.37,0,0,0,79.29,172a5.45,5.45,0,0,0,2.77.25A2.44,2.44,0,0,0,84,170.56a2.31,2.31,0,0,0-1.21-2.21,7.89,7.89,0,0,0-2.65-.88Z"/>
                <g>
                  <path class="cls-59" d="M78.19,167.21a23.35,23.35,0,0,0,1.19,2.73c2.63,5.29,8.89,15.06,16.84,18.7a22.17,22.17,0,0,0,18.48-.33c7.59-3.58,11-7.83,15.39-15,1.42-2.33,2.93-5,4.72-8,0,0,.43-.56-.28-.59a4.46,4.46,0,0,0-1.18.21c-4.27,1.18-15.1,7.2-31.88,6.38-12.89-.63-19.93-3.46-22.51-4.73a.57.57,0,0,0-.77.27A.44.44,0,0,0,78.19,167.21Z"/>
                  <path class="cls-60" d="M79.38,169.94c2.63,5.29,8.89,15.06,16.84,18.7a22.17,22.17,0,0,0,18.48-.33c7.59-3.58,11-7.83,15.39-15-5.07,5.6-13.62,12.94-24,13.65C91.85,188,82.15,174.38,79.38,169.94Z"/>
                  <path class="cls-61" d="M78.19,166.89a54.65,54.65,0,0,0,29.22,6.8c15.48-.65,24.33-6.81,27.12-8.93a4.46,4.46,0,0,0-1.18.21c-4.27,1.18-15.1,7.2-31.88,6.38-12.89-.63-19.94-3.46-22.51-4.73A.57.57,0,0,0,78.19,166.89Z"/>
                  <path class="cls-62" d="M128.23,168c-.33.14-18.35,11-43.12,2,0,0,3.56,8.16,18.5,8.94C120.69,179.89,128.23,168,128.23,168Z"/>
                  <path class="cls-63" d="M106,186.77c3.51-.2,7.9-1.13,9.63-2.69-3.11-3.06-7.12-.82-10.49-1.79-7.08-2-9.53.5-10.46,1.9C96.75,185.82,101.12,187.05,106,186.77Z"/>
                </g>
              </g>
              <path class="cls-56" d="M134.72,102.49s13.87-2.37,20.53,6.86a.47.47,0,0,0,.86-.24c-.22-2.81-1.73-8.57-10.36-10.25C132.16,96.2,134.72,102.49,134.72,102.49Z"/>
              <path class="cls-56" d="M81.65,96.81s-13.87-2.36-20.52,6.86c-.27.37-.89.2-.86-.23.21-2.81,1.73-8.57,10.35-10.26C84.22,90.53,81.65,96.81,81.65,96.81Z"/>
              <path class="cls-51" d="M25.22,125.67a90,90,0,0,0,6.71,13.12c.45.76,3.76,4.94,3.61,5.86,0,0-5.53-36.62,20.79-50,10.27-5.24,20.84-9.44,31.22-14.26s20.68-9.85,30.62-15.69c5.24-3.07,10.9-6.35,15.53-10.67C151,83.42,173,84.08,175,133.38c.11,2.62.35,5.23.54,7.85l.59,3.42s4.3-3.76,11.8-27.06c8.17-24.45-11.47-42.34-23.47-62.87-19-32.57-40.86-28.65-49-29.46C101.09,23.84,101.05,34.06,87,37c-30.87,6.5-42.43,1.19-49,35.85C34.11,93.52,17.41,106.84,25.22,125.67Z"/>
              <path class="cls-51" d="M108.06,63a45.08,45.08,0,0,1,0,29.09,62.79,62.79,0,0,0,26.47-43.58"/>
              <path class="cls-51" d="M115.42,60S115,70.52,92.6,92.88c0,0,8.29-14.76,3.57-29.86"/>
              <path class="cls-64" d="M182.2,134.1q.41-5.07.42-10.11c0-3.36,0-6.72-.22-10.06a143.7,143.7,0,0,0-2.32-19.75c-.32-1.62-.65-3.22-.85-4.84s-.45-3.24-.78-4.84A95.05,95.05,0,0,0,176.06,75a79,79,0,0,0-7.77-17.7,65,65,0,0,0-12.11-14.8,74.8,74.8,0,0,0-15.91-10.82,76.11,76.11,0,0,0-18.17-6.46,79.16,79.16,0,0,0-19.25-1.73A82.77,82.77,0,0,0,65.76,33.6,65.34,65.34,0,0,0,50.47,45.09a48.21,48.21,0,0,0-5.87,7.34c-.42.66-.82,1.32-1.19,2s-.75,1.42-1.13,2.13c-.78,1.43-1.45,2.9-2.13,4.38A95.74,95.74,0,0,0,34,79.43c-.7,3.18-1.29,6.4-1.7,9.64-.25,1.62-.34,3.26-.47,4.89s-.4,3.25-.58,4.89a140.94,140.94,0,0,0-1.05,19.86q.08,5,.5,10c.27,3.35.65,6.7,1.22,10a113.39,113.39,0,0,1-5.27-19.73c-.63-3.37-1.09-6.77-1.43-10.2s-.57-6.88-.64-10.34a41,41,0,0,1,.11-5.2l.67-5.17c.43-3.44,1.06-6.86,1.81-10.26a102.87,102.87,0,0,1,6.59-19.84c.73-1.59,1.46-3.18,2.3-4.72.41-.78.79-1.54,1.23-2.33s.92-1.58,1.41-2.34a54.21,54.21,0,0,1,6.73-8.44A72.66,72.66,0,0,1,62.37,27.47a89.93,89.93,0,0,1,40.27-10.95,86.25,86.25,0,0,1,20.94,1.89,83.25,83.25,0,0,1,19.85,7.05,81.7,81.7,0,0,1,17.44,11.88,71.4,71.4,0,0,1,13.42,16.39A86.29,86.29,0,0,1,182.75,73a102.15,102.15,0,0,1,2.56,10.13c.35,1.71.69,3.41,1,5.12a36,36,0,0,1,.49,5.18,135.1,135.1,0,0,1-.74,20.64A121.82,121.82,0,0,1,182.2,134.1Z"/>
              <g>
                <g>
                  <g>
                    <path class="cls-65" d="M186,66c6.94-6.22,16.63-6.73,7.77-16.6s-28.59-6.61-28.59-6.61-5.38,19.27,3.48,29.15S179.08,72.23,186,66Z"/>
                    <path class="cls-65" d="M144,19.18C151,13,152.5,3.38,161.36,13.25s3.48,29.14,3.48,29.14-19.74,3.27-28.6-6.6S137.08,25.41,144,19.18Z"/>
                  </g>
                  <circle class="cls-66" cx="142.81" cy="32.86" r="2.01"/>
                  <circle class="cls-66" cx="150.59" cy="36.77" r="2.01"/>
                  <circle class="cls-66" cx="151.77" cy="24.83" r="2.01"/>
                  <path class="cls-66" d="M161.45,29.61a2,2,0,1,0-2.83-.15A2,2,0,0,0,161.45,29.61Z"/>
                  <circle class="cls-66" cx="157.74" cy="19.47" r="2.01"/>
                  <path class="cls-66" d="M155.17,40.64a2,2,0,0,1,2.84.15,2,2,0,0,1,.5,1.51c-1.22,0-2.57,0-4,0A2,2,0,0,1,155.17,40.64Z"/>
                  <path class="cls-66" d="M146.68,40.18a1.94,1.94,0,0,1,.47,1,26.72,26.72,0,0,1-3.35-1.09l0-.06A2,2,0,0,1,146.68,40.18Z"/>
                  <path class="cls-66" d="M164.75,21.27l0,0a26.65,26.65,0,0,1,.72,3.42,2,2,0,0,1-.74-3.4Z"/>
                  <path class="cls-66" d="M164,35.43a2,2,0,0,1,.15-2.83,2,2,0,0,1,1.64-.48c-.08,1.42-.21,2.77-.37,4A2,2,0,0,1,164,35.43Z"/>
                  <path class="cls-66" d="M141.78,25.71a2,2,0,0,1-3.31-1.81c.81-.5,1.68-1,2.55-1.6a2,2,0,0,1,.91.57A2,2,0,0,1,141.78,25.71Z"/>
                  <path class="cls-66" d="M136,28.23a2,2,0,0,1-1.72,3.33,4.16,4.16,0,0,1-.11-4A2,2,0,0,1,136,28.23Z"/>
                  <path class="cls-66" d="M150.89,14.84a2,2,0,0,1-3,2.68,2.13,2.13,0,0,1-.47-1c.66-.81,1.27-1.61,1.86-2.36A2,2,0,0,1,150.89,14.84Z"/>
                  <path class="cls-66" d="M156.71,12.31a2,2,0,0,1-2.83-.15,2,2,0,0,1-.44-1.87,4.19,4.19,0,0,1,3.93.57A2,2,0,0,1,156.71,12.31Z"/>
                  <circle class="cls-66" cx="172.28" cy="65.7" r="2.01"/>
                  <circle class="cls-66" cx="169.91" cy="57.05" r="2.01"/>
                  <circle class="cls-66" cx="181.24" cy="57.67" r="2.01"/>
                  <path class="cls-66" d="M177.52,47.52a2,2,0,1,1-.15,2.84A2,2,0,0,1,177.52,47.52Z"/>
                  <circle class="cls-66" cx="187.21" cy="52.31" r="2.01"/>
                  <path class="cls-66" d="M165.89,52.57a2,2,0,0,0,.15-2.83,2,2,0,0,0-1.45-.66c-.16,1.21-.3,2.55-.37,4A2,2,0,0,0,165.89,52.57Z"/>
                  <path class="cls-66" d="M165.43,61.07a2,2,0,0,0-.94-.58,27.61,27.61,0,0,0,.72,3.46l.06-.05A2,2,0,0,0,165.43,61.07Z"/>
                  <path class="cls-66" d="M186.17,45.15l0,0a25.73,25.73,0,0,0-3.32-1.08,2,2,0,0,0,.47,1A2,2,0,0,0,186.17,45.15Z"/>
                  <path class="cls-66" d="M172,44.38A2,2,0,0,0,175.5,43c-1.43-.08-2.78-.09-4-.06A2,2,0,0,0,172,44.38Z"/>
                  <path class="cls-66" d="M179.28,67.5A2,2,0,0,0,180.72,71c.59-.75,1.2-1.56,1.86-2.37a1.85,1.85,0,0,0-.47-1A2,2,0,0,0,179.28,67.5Z"/>
                  <path class="cls-66" d="M176.14,73a2,2,0,0,0-3.49,1.35,4.19,4.19,0,0,0,3.92.55A2,2,0,0,0,176.14,73Z"/>
                  <path class="cls-66" d="M191.07,59.62a2,2,0,1,0-3,2.68,2,2,0,0,0,.91.57c.88-.57,1.74-1.09,2.55-1.59A2,2,0,0,0,191.07,59.62Z"/>
                  <path class="cls-66" d="M194.21,54.11a2,2,0,0,0,1.66,3.47,4.17,4.17,0,0,0-.15-4A2,2,0,0,0,194.21,54.11Z"/>
                </g>
                <g>
                  <g>
                    <g>
                      <path class="cls-67" d="M147.88,29.47c2.11-3,10.93,7.71,10.93,7.71S145.76,32.48,147.88,29.47Z"/>
                      <path class="cls-67" d="M156.08,26C158.31,25,161,36,161,36S153.86,27.12,156.08,26Z"/>
                    </g>
                    <g>
                      <path class="cls-67" d="M176.2,61c3.21-1.78-6.48-11.71-6.48-11.71S173,62.82,176.2,61Z"/>
                      <path class="cls-67" d="M180.5,53.25c1.32-2.1-9.37-5.92-9.37-5.92S179.18,55.34,180.5,53.25Z"/>
                    </g>
                  </g>
                  <rect class="cls-68" x="158.97" y="36.59" width="12.03" height="12.03" rx="3.56" transform="translate(13.74 121.08) rotate(-41.9)"/>
                </g>
              </g>
              <path class="cls-69" d="M173.7,163.69S168,175.49,175,177.5s4.8-11.18,4.8-11.18-1.81,11.12-4,4.25Z"/>
              <path class="cls-69" d="M36.57,164.43s5.67,11.81-1.31,13.81-4.81-11.17-4.81-11.17,1.82,11.12,4,4.24Z"/>
            </g>
            <path class="cls-70" d="M65.05,256.26,53.3,263.7a104.44,104.44,0,0,1-7.59-26.8c18.95-14.82,23.58-16.78,23.58-16.78l14.49-4.2"/>
            <path class="cls-71" d="M136.54,220s13.83,2,18.73,14,7.81,12.49,7.81,12.49-2,12.91-16.86,19.72l-4.57-7.12"/>
            <line class="cls-72" x1="141.76" y1="264.91" x2="143.83" y2="239.76"/>
            <g>
              <path class="cls-39" d="M120.73,275.37a5.7,5.7,0,0,1-.58,1.09,5.76,5.76,0,0,1-2.5,2c-1.53.64-6,.17-6.64-1.69.73,2.16,1.79,3.23.67,5.64a7.75,7.75,0,0,1-1.47,2.09,8.34,8.34,0,0,1-1,.86,8.52,8.52,0,0,1-2.2,1.18,6.51,6.51,0,0,1-1.62.37,5.34,5.34,0,0,1-1.13,0c-4.13-.39-7-5.07-5.87-9.37-.2.75-2.82,2-3.51,2.16a8.92,8.92,0,0,1-5.39-.16A6.53,6.53,0,0,1,87,277.91a5.25,5.25,0,0,1-1.3-3.68h0a8.43,8.43,0,0,1,0-.87c0-.13,0-.25,0-.37.54-4,4.28-7,8.28-5.64-2.23-2.48-4-5.33-3-7.71a3.74,3.74,0,0,1,.6-1,6.63,6.63,0,0,1,2.51-1.82,6.49,6.49,0,0,1,1.18-.43,5.78,5.78,0,0,1,1.4-.18,6,6,0,0,1,5.6,4.55c-.21-2.63,2.08-5.86,4.35-6.81a6.33,6.33,0,0,1,3.18-.36,9,9,0,0,1,1.51.32h0a9,9,0,0,1,3.42,1.9,5.79,5.79,0,0,1,.78.87,5.39,5.39,0,0,1,.33.5c2.36,4.2-1.42,7.93-4.42,10.43,3.44-1.44,8.1.43,9.33,4a5.26,5.26,0,0,1,.29,1.26c0,.08,0,.16,0,.24A5.21,5.21,0,0,1,120.73,275.37Z"/>
              <path class="cls-73" d="M107.58,275.11c2.92-2.33,4.12-6.64.74-9.94a6.94,6.94,0,0,0-10.41.79c-2.36,3.05-2.08,7.64,1.3,9.72A7.15,7.15,0,0,0,107.58,275.11Z"/>
              <path class="cls-74" d="M106.94,274.34c2.48-2,3.5-5.63.63-8.44a5.89,5.89,0,0,0-8.84.67c-2,2.6-1.77,6.49,1.1,8.26A6.07,6.07,0,0,0,106.94,274.34Z"/>
            </g>
          </g>
          <g>
            <g>
              <g>
                <path class="cls-75" d="M41.35,311.72s1.7,3.41,4.44,13.83,9.39,11.1,9.39,11.1c5.46.34,3.76-2.73,3.76-2.73-6.49-3.76-5.3-5.47-5.3-5.47,12.47,5.47,9.74-.51,9.74-.51,8.19.68,3.92-4.1,3.92-4.1-7-5.29-7.85-7.51-7.85-7.51s10.59,4.44,12.46,2.22-2-5.12-2-5.12c-13.06-3.92-8-11.1-8-11.1l1.4-5.36s-9.88,2-13.87-2.16"/>
                <path class="cls-75" d="M64.4,327.94s-2.67.17-8-3.93L51,318.89"/>
                <path class="cls-75" d="M55.69,329.25s-3.87-.91-6.77-6.6"/>
                <path class="cls-75" d="M60.3,316.84s-1.71-.45-4.38-4.15"/>
                <path class="cls-76" d="M64.42,311.22s-5.8-3.68-5.68-7.6"/>
                <g>
                  <path class="cls-77" d="M46.24,314.91s-.28-2.17,1.25-2.68,2.57-.4,2-4.67,5-2.73,5-2.73"/>
                  <path class="cls-78" d="M46.24,314.91a3.21,3.21,0,0,1,.19-2,1.8,1.8,0,0,1,.79-.78c.35-.17.66-.25,1-.38,1.27-.34,1.15-1.81,1.09-3.08,0-.33-.06-.65-.09-1a5,5,0,0,1,0-1.09,2.3,2.3,0,0,1,1.23-1.83,5.35,5.35,0,0,1,4.07.1,9.53,9.53,0,0,0-2-.08,3.68,3.68,0,0,0-1.79.48,1.77,1.77,0,0,0-.82,1.42,4.63,4.63,0,0,0,0,.91c0,.34.09.68.11,1a7.51,7.51,0,0,1-.11,2.1,2.09,2.09,0,0,1-.54,1,2.12,2.12,0,0,1-1,.53c-.33.1-.68.16-.95.27a1.41,1.41,0,0,0-.67.54A3.28,3.28,0,0,0,46.24,314.91Z"/>
                </g>
              </g>
              <path class="cls-75" d="M41.61,312.28c-2.66-5.42-9.45-13.57-18.58-26S13.33,262,18.27,257s22.07-16.45,22.07-16.45,7.7,17.11,11.41,21l-1.24.57a34,34,0,0,1-11.22,7s3.9,8.47,8.56,19.88c0,0,2.06,6.63,5.39,8.06"/>
              <path class="cls-75" d="M39.29,269.13s-4.37-7.42-10-7.89"/>
            </g>
            <path class="cls-79" d="M71.44,219.2,38.72,239.94S46,261.43,52,265.42l11.79-8.18"/>
          </g>
          <line class="cls-80" x1="64.78" y1="259.36" x2="65.05" y2="241.59"/>
        </g>
      </g>
    </g>
  </g>
</svg>
