<svg xmlns="http://www.w3.org/2000/svg" xmlns:xlink="http://www.w3.org/1999/xlink" viewBox="0 0 375 375"><defs><style>.cls-1{mask:url(#mask);filter:url(#luminosity-noclip-10);}.Graphic-Style-3,.cls-10,.cls-12,.cls-14,.cls-16,.cls-18,.cls-2,.cls-30,.cls-33,.cls-4,.cls-6,.cls-8{mix-blend-mode:multiply;}.cls-2{fill:url(#linear-gradient);}.cls-3{mask:url(#mask-2);filter:url(#luminosity-noclip-15);}.cls-4{fill:url(#linear-gradient-2);}.cls-5{mask:url(#mask-3);filter:url(#luminosity-noclip-16);}.cls-6{fill:url(#linear-gradient-3);}.cls-7{mask:url(#mask-4);filter:url(#luminosity-noclip-17);}.cls-8{fill:url(#linear-gradient-4);}.cls-9{mask:url(#mask-5);filter:url(#luminosity-noclip-18);}.cls-10{fill:url(#linear-gradient-5);}.cls-11{mask:url(#mask-6);filter:url(#luminosity-noclip-11);}.cls-12{fill:url(#linear-gradient-6);}.cls-13{mask:url(#mask-7);filter:url(#luminosity-noclip-12);}.cls-14{fill:url(#linear-gradient-7);}.cls-15{mask:url(#mask-8);filter:url(#luminosity-noclip-13);}.cls-16{fill:url(#linear-gradient-8);}.cls-17{mask:url(#mask-9);filter:url(#luminosity-noclip-14);}.cls-18{fill:url(#linear-gradient-9);}.cls-19,.cls-47{fill:none;}.cls-20{isolation:isolate;}.cls-21{fill:#fff;stroke:#770061;stroke-width:10px;}.cls-21,.cls-24,.cls-28,.cls-35,.cls-37,.cls-38,.cls-47,.cls-49,.cls-54,.cls-57,.cls-58,.cls-59,.cls-60,.cls-61{stroke-miterlimit:10;}.cls-22{clip-path:url(#clip-path);}.cls-23{fill:#342517;}.cls-24,.cls-45{fill:#fbd3c7;}.cls-24,.cls-47{stroke:#453323;}.cls-25{mask:url(#mask-10);}.cls-26{fill:#dd9f8f;}.cls-27{mask:url(#mask-11);}.cls-28,.cls-35,.cls-37,.cls-59,.cls-60,.cls-61{stroke:#563b35;}.cls-28{fill:url(#radial-gradient);}.cls-29{mask:url(#mask-12);}.cls-30{fill:url(#linear-gradient-10);}.cls-31{mask:url(#mask-13);}.Graphic-Style-3{fill:url(#linear-gradient-11);}.cls-32{mask:url(#mask-14);}.cls-33{fill:url(#linear-gradient-12);}.cls-34{fill:#c4628b;}.cls-35{fill:url(#radial-gradient-2);}.cls-36{mask:url(#mask-15);}.cls-37{fill:#f9f1ef;}.cls-38{fill:#faf079;stroke:#9a9435;}.cls-39{mask:url(#mask-16);}.cls-40{fill:#914c37;}.cls-41{mask:url(#mask-17);}.cls-42,.cls-44{mix-blend-mode:darken;}.cls-42{fill:url(#linear-gradient-15);}.cls-43{mask:url(#mask-18);}.cls-44{fill:url(#linear-gradient-16);}.cls-46{fill:#453323;}.cls-48{fill:#342516;}.cls-49{fill:#f9dad2;stroke:#4c2606;}.cls-50{fill:#b26b51;}.cls-51{fill:#eaa698;opacity:0.5;}.cls-52{fill:#8c3d35;}.cls-53{fill:#ef4b3b;}.cls-54{fill:#fe66ca;}.cls-54,.cls-57{stroke:#af1086;stroke-width:2px;}.cls-55{fill:#fffa71;}.cls-56{fill:#cc0098;}.cls-57{fill:#e852bb;}.cls-58{fill:#e7d760;stroke:#baa73b;}.cls-59{fill:url(#radial-gradient-3);}.cls-60{fill:url(#radial-gradient-4);}.cls-61{fill:url(#radial-gradient-5);}.cls-62{fill:#ba8313;}.cls-63{fill:#f86909;}.cls-64{filter:url(#luminosity-noclip-9);}.cls-65{filter:url(#luminosity-noclip-8);}.cls-66{filter:url(#luminosity-noclip-7);}.cls-67{filter:url(#luminosity-noclip-6);}.cls-68{filter:url(#luminosity-noclip-5);}.cls-69{filter:url(#luminosity-noclip-4);}.cls-70{filter:url(#luminosity-noclip-3);}.cls-71{filter:url(#luminosity-noclip-2);}.cls-72{filter:url(#luminosity-noclip);}</style><filter id="luminosity-noclip" x="162.01" y="-10491.38" width="17.84" height="32766" filterUnits="userSpaceOnUse" color-interpolation-filters="sRGB"><feFlood flood-color="#fff" result="bg"/><feBlend in="SourceGraphic" in2="bg"/></filter><mask id="mask" x="162.01" y="-10491.38" width="17.84" height="32766" maskUnits="userSpaceOnUse"><g class="cls-72"/></mask><linearGradient id="linear-gradient" x1="3859.61" y1="367.04" x2="3901.59" y2="381.78" gradientTransform="matrix(-1, 0, 0, 1, 4061.42, 0)" gradientUnits="userSpaceOnUse"><stop offset="0" stop-color="#fff"/><stop offset="1"/></linearGradient><filter id="luminosity-noclip-2" x="198.93" y="-10491.38" width="7.02" height="32766" filterUnits="userSpaceOnUse" color-interpolation-filters="sRGB"><feFlood flood-color="#fff" result="bg"/><feBlend in="SourceGraphic" in2="bg"/></filter><mask id="mask-2" x="198.93" y="-10491.38" width="7.02" height="32766" maskUnits="userSpaceOnUse"><g class="cls-71"/></mask><linearGradient id="linear-gradient-2" x1="3837.73" y1="268.31" x2="3866.51" y2="261.7" xlink:href="#linear-gradient"/><filter id="luminosity-noclip-3" x="196.45" y="-10491.38" width="6.39" height="32766" filterUnits="userSpaceOnUse" color-interpolation-filters="sRGB"><feFlood flood-color="#fff" result="bg"/><feBlend in="SourceGraphic" in2="bg"/></filter><mask id="mask-3" x="196.45" y="-10491.38" width="6.39" height="32766" maskUnits="userSpaceOnUse"><g class="cls-70"/></mask><linearGradient id="linear-gradient-3" x1="4002.32" y1="443.59" x2="4032.74" y2="436.6" gradientTransform="matrix(-1, -0.08, -0.08, 1, 4246.08, 176.07)" xlink:href="#linear-gradient"/><filter id="luminosity-noclip-4" x="203.06" y="-10491.38" width="14.72" height="32766" filterUnits="userSpaceOnUse" color-interpolation-filters="sRGB"><feFlood flood-color="#fff" result="bg"/><feBlend in="SourceGraphic" in2="bg"/></filter><mask id="mask-4" x="203.06" y="-10491.38" width="14.72" height="32766" maskUnits="userSpaceOnUse"><g class="cls-69"/></mask><linearGradient id="linear-gradient-4" x1="3869.85" y1="275.92" x2="3847.56" y2="261.19" xlink:href="#linear-gradient"/><filter id="luminosity-noclip-5" x="239.45" y="-10491.38" width="10.15" height="32766" filterUnits="userSpaceOnUse" color-interpolation-filters="sRGB"><feFlood flood-color="#fff" result="bg"/><feBlend in="SourceGraphic" in2="bg"/></filter><mask id="mask-5" x="239.45" y="-10491.38" width="10.15" height="32766" maskUnits="userSpaceOnUse"><g class="cls-68"/></mask><linearGradient id="linear-gradient-5" x1="3819.89" y1="228.79" x2="3812.39" y2="242.02" xlink:href="#linear-gradient"/><filter id="luminosity-noclip-6" x="188.77" y="-10491.38" width="33.73" height="32766" filterUnits="userSpaceOnUse" color-interpolation-filters="sRGB"><feFlood flood-color="#fff" result="bg"/><feBlend in="SourceGraphic" in2="bg"/></filter><mask id="mask-6" x="188.77" y="-10491.38" width="33.73" height="32766" maskUnits="userSpaceOnUse"><g class="cls-67"/></mask><linearGradient id="linear-gradient-6" x1="3857.42" y1="335.62" x2="3854.88" y2="400.35" xlink:href="#linear-gradient"/><filter id="luminosity-noclip-7" x="195.44" y="-10491.38" width="10.6" height="32766" filterUnits="userSpaceOnUse" color-interpolation-filters="sRGB"><feFlood flood-color="#fff" result="bg"/><feBlend in="SourceGraphic" in2="bg"/></filter><mask id="mask-7" x="195.44" y="-10491.38" width="10.6" height="32766" maskUnits="userSpaceOnUse"><g class="cls-66"/></mask><linearGradient id="linear-gradient-7" x1="3895.08" y1="465.49" x2="3933.42" y2="417.57" gradientTransform="matrix(-1, -0.03, -0.03, 1, 4140.55, 71.28)" xlink:href="#linear-gradient"/><filter id="luminosity-noclip-8" x="195.04" y="-10491.38" width="25.42" height="32766" filterUnits="userSpaceOnUse" color-interpolation-filters="sRGB"><feFlood flood-color="#fff" result="bg"/><feBlend in="SourceGraphic" in2="bg"/></filter><mask id="mask-8" x="195.04" y="-10491.38" width="25.42" height="32766" maskUnits="userSpaceOnUse"><g class="cls-65"/></mask><linearGradient id="linear-gradient-8" x1="3696.69" y1="357.05" x2="3924.79" y2="304.64" xlink:href="#linear-gradient"/><filter id="luminosity-noclip-9" x="133.97" y="-10491.38" width="21.5" height="32766" filterUnits="userSpaceOnUse" color-interpolation-filters="sRGB"><feFlood flood-color="#fff" result="bg"/><feBlend in="SourceGraphic" in2="bg"/></filter><mask id="mask-9" x="133.97" y="-10491.38" width="21.5" height="32766" maskUnits="userSpaceOnUse"><g class="cls-64"/></mask><linearGradient id="linear-gradient-9" x1="3960.89" y1="305" x2="3903.39" y2="322.21" xlink:href="#linear-gradient"/><clipPath id="clip-path"><circle class="cls-19" cx="187.55" cy="193.62" r="130.58" transform="translate(-81.97 189.33) rotate(-45)"/></clipPath><filter id="luminosity-noclip-10" x="162.01" y="353.41" width="17.84" height="47.23" filterUnits="userSpaceOnUse" color-interpolation-filters="sRGB"><feFlood flood-color="#fff" result="bg"/><feBlend in="SourceGraphic" in2="bg"/></filter><mask id="mask-10" x="162.01" y="353.41" width="17.84" height="47.23" maskUnits="userSpaceOnUse"><g class="cls-1"><path class="cls-2" d="M162,358.44c.64,2.91,1.5,7,2.28,10.7a31.1,31.1,0,0,0,7.87-.27c2.35-.39,3.91,4.31,4.18,8.73s.78,6.4.27,10.44-.93,11.61-.93,11.86a3.42,3.42,0,0,0,.35.73,13.17,13.17,0,0,0,2.44-7.29c-.16-5.38.64-10.07.16-12.76s-.16-7.07,0-11.38.76-9.23,1.22-13.23C173.24,351.51,168,353.21,162,358.44Z"/></g></mask><filter id="luminosity-noclip-11" x="188.77" y="351.26" width="33.73" height="46.27" filterUnits="userSpaceOnUse" color-interpolation-filters="sRGB"><feFlood flood-color="#fff" result="bg"/><feBlend in="SourceGraphic" in2="bg"/></filter><mask id="mask-11" x="188.77" y="351.26" width="33.73" height="46.27" maskUnits="userSpaceOnUse"><g class="cls-11"><path class="cls-12" d="M188.77,357.27c.35,1.5.72,3,1.07,4.41,1.09,2.16,2.63,4.83,4.19,7.54,3.71.61,7.53-.05,10.25-.44,3.31-.5,4.69,7.43,5.66,10.45s5,9.69,7.24,13.8c1.08,2,3.32,3.51,5.32,4.51a25.46,25.46,0,0,0-1.06-4.81c-2-3.53-3.36-4.72-5.21-7.49s-3-3.6-3.74-7-3.43-17-4.39-24.73C202.24,348.44,195.25,352.92,188.77,357.27Z"/></g></mask><radialGradient id="radial-gradient" cx="3887.71" cy="363.77" r="69.73" gradientTransform="matrix(-1, 0, 0, 1, 4061.42, 0)" gradientUnits="userSpaceOnUse"><stop offset="0.13" stop-color="#f186b3"/><stop offset="1" stop-color="#e977a7"/></radialGradient><filter id="luminosity-noclip-12" x="195.44" y="359.12" width="10.6" height="6.81" filterUnits="userSpaceOnUse" color-interpolation-filters="sRGB"><feFlood flood-color="#fff" result="bg"/><feBlend in="SourceGraphic" in2="bg"/></filter><mask id="mask-12" x="195.44" y="359.12" width="10.6" height="6.81" maskUnits="userSpaceOnUse"><g class="cls-13"><path class="cls-14" d="M195.44,365.94a17.89,17.89,0,0,0,4.7-1.66,46.31,46.31,0,0,1,5.89-2.54C203.13,358.21,198.5,357.09,195.44,365.94Z"/></g></mask><linearGradient id="linear-gradient-10" x1="3895.08" y1="465.49" x2="3933.42" y2="417.57" gradientTransform="matrix(-1, -0.03, -0.03, 1, 4140.55, 71.28)" gradientUnits="userSpaceOnUse"><stop offset="0" stop-color="#b191a3"/><stop offset="1" stop-color="#b191a3"/></linearGradient><filter id="luminosity-noclip-13" x="195.04" y="281.44" width="25.42" height="77.84" filterUnits="userSpaceOnUse" color-interpolation-filters="sRGB"><feFlood flood-color="#fff" result="bg"/><feBlend in="SourceGraphic" in2="bg"/></filter><mask id="mask-13" x="195.04" y="281.44" width="25.42" height="77.84" maskUnits="userSpaceOnUse"><g class="cls-15"><path class="cls-16" d="M209,327.61c1.39,6.82,4.19,23.32,5.36,31.67l.62-.18c5.53-1.59,6.18-3.51,5-8.24s-14.78-53.95-17.6-63.85c-1.1-.82-3.47-5.36-6.84-5.57L195,282.9c2.29,8.12,5.48,21,6.94,27.16.45,1.94.73,3.22.76,3.47-.12-1.86-.23-3.47-.34-4.9v-.07c-.6-7.81-1-9.67-1.35-12.75C200.66,292.14,207.17,318.62,209,327.61Z"/></g></mask><linearGradient id="linear-gradient-11" x1="3696.69" y1="357.05" x2="3924.79" y2="304.64" gradientTransform="matrix(-1, 0, 0, 1, 4061.42, 0)" xlink:href="#linear-gradient-10"/><filter id="luminosity-noclip-14" x="133.97" y="282.54" width="21.5" height="71.43" filterUnits="userSpaceOnUse" color-interpolation-filters="sRGB"><feFlood flood-color="#fff" result="bg"/><feBlend in="SourceGraphic" in2="bg"/></filter><mask id="mask-14" x="133.97" y="282.54" width="21.5" height="71.43" maskUnits="userSpaceOnUse"><g class="cls-17"><path class="cls-18" d="M134.12,354c3.9-14.58,18.59-62.42,21.36-71.43-1,.25-2,.53-3.19.87-2.74,8.8-17.4,63.76-18.18,67.67A7.59,7.59,0,0,0,134.12,354Z"/></g></mask><linearGradient id="linear-gradient-12" x1="3960.89" y1="305" x2="3903.39" y2="322.21" gradientTransform="matrix(-1, 0, 0, 1, 4061.42, 0)" xlink:href="#linear-gradient-10"/><radialGradient id="radial-gradient-2" cx="3882.26" cy="256.19" r="26.84" xlink:href="#radial-gradient"/><filter id="luminosity-noclip-15" x="198.93" y="235.9" width="7.02" height="45.83" filterUnits="userSpaceOnUse" color-interpolation-filters="sRGB"><feFlood flood-color="#fff" result="bg"/><feBlend in="SourceGraphic" in2="bg"/></filter><mask id="mask-15" x="198.93" y="235.9" width="7.02" height="45.83" maskUnits="userSpaceOnUse"><g class="cls-3"><path class="cls-4" d="M204,253.88c-.24,7.48-4.28,23-5.06,27.85a15.26,15.26,0,0,0,3.91-2.2c.51-3.21,2.33-11.26,2.66-16.23.19-2.93.91-11.9,0-18.27A40,40,0,0,0,204,253.88Z"/></g></mask><filter id="luminosity-noclip-16" x="196.45" y="279.53" width="6.39" height="8.06" filterUnits="userSpaceOnUse" color-interpolation-filters="sRGB"><feFlood flood-color="#fff" result="bg"/><feBlend in="SourceGraphic" in2="bg"/></filter><mask id="mask-16" x="196.45" y="279.53" width="6.39" height="8.06" maskUnits="userSpaceOnUse"><g class="cls-5"><path class="cls-6" d="M196.45,287.59c2-.15,4-.35,5.9-.58.49-2.71.11-4.45.49-7.48-1.19.17-2.41.32-3.66.44v0C198.77,283.73,199,285.13,196.45,287.59Z"/></g></mask><filter id="luminosity-noclip-17" x="203.06" y="253.23" width="14.72" height="22.56" filterUnits="userSpaceOnUse" color-interpolation-filters="sRGB"><feFlood flood-color="#fff" result="bg"/><feBlend in="SourceGraphic" in2="bg"/></filter><mask id="mask-17" x="203.06" y="253.23" width="14.72" height="22.56" maskUnits="userSpaceOnUse"><g class="cls-7"><path class="cls-8" d="M203.06,253.23a41.43,41.43,0,0,0,1.58,7.3c3.52,7,6.11,13.57,9.63,15.26a6.87,6.87,0,0,0,3.51-2.91,4.91,4.91,0,0,1-2.72-1.13C211.8,269.15,206.05,259,203.06,253.23Z"/></g></mask><linearGradient id="linear-gradient-15" x1="3869.85" y1="275.92" x2="3847.56" y2="261.19" gradientTransform="matrix(-1, 0, 0, 1, 4061.42, 0)" gradientUnits="userSpaceOnUse"><stop offset="0" stop-color="#e77e65"/><stop offset="1" stop-color="#e77e65"/></linearGradient><filter id="luminosity-noclip-18" x="239.45" y="228.26" width="10.15" height="10.89" filterUnits="userSpaceOnUse" color-interpolation-filters="sRGB"><feFlood flood-color="#fff" result="bg"/><feBlend in="SourceGraphic" in2="bg"/></filter><mask id="mask-18" x="239.45" y="228.26" width="10.15" height="10.89" maskUnits="userSpaceOnUse"><g class="cls-9"><path class="cls-10" d="M249.3,231.53a4,4,0,0,0-.12-3.27c-.22,1.61-.72,3.28-1.66,3.85a34.89,34.89,0,0,1-5.54,3c-.84,2.41-1.5,3.19-2.53,4,2.2-.58,2.88-2.27,3.72-3.71C246.88,234.39,248.71,232.89,249.3,231.53Z"/></g></mask><linearGradient id="linear-gradient-16" x1="3819.89" y1="228.79" x2="3812.39" y2="242.02" xlink:href="#linear-gradient-15"/><radialGradient id="radial-gradient-3" cx="3908.11" cy="246.85" r="14.15" xlink:href="#radial-gradient"/><radialGradient id="radial-gradient-4" cx="3852.38" cy="249.02" r="12.35" xlink:href="#radial-gradient"/><radialGradient id="radial-gradient-5" cx="3856.98" cy="255.06" r="5.85" xlink:href="#radial-gradient"/></defs><title>SB26_comp</title><g class="cls-20"><g id="Layer_1" data-name="Layer 1"><circle class="cls-21" cx="187.55" cy="192.24" r="135.7" transform="translate(-81 188.92) rotate(-45)"/><g class="cls-22"><path class="cls-23" d="M228,142.49s10.15,26.8,6.94,48.39,7.88,27.87-6.26,40.08-41.78,17.59-53.56,6c0,0-7.85,2.32-26.65-.53s-33-11.59-27.73-29.42,2.68-41.45,3.49-55.46,18.28-30.43,55-20.53S228,142.49,228,142.49Z"/><path class="cls-24" d="M164.17,406.56c5.26.64,9.4-2.3,11.86-5.93a13.17,13.17,0,0,0,2.44-7.29c-.16-5.38.64-10.07.16-12.76s-.16-7.07,0-11.38.76-9.23,1.22-13.23c-6.61-4.46-11.85-2.76-17.84,2.47.64,2.91,1.5,7,2.28,10.7.93,4.29,1.71,8.07,1.87,9,.31,1.69-1.69,4.15-3.54,6.92s-2.91,4.16-4.91,7.69C155.71,399.34,155.39,405.5,164.17,406.56Z"/><g class="cls-25"><path class="cls-26" d="M162,358.44c.64,2.91,1.5,7,2.28,10.7a31.1,31.1,0,0,0,7.87-.27c2.35-.39,3.91,4.31,4.18,8.73s.78,6.4.27,10.44-.93,11.61-.93,11.86a3.42,3.42,0,0,0,.35.73,13.17,13.17,0,0,0,2.44-7.29c-.16-5.38.64-10.07.16-12.76s-.16-7.07,0-11.38.76-9.23,1.22-13.23C173.24,351.51,168,353.21,162,358.44Z"/></g><path class="cls-24" d="M188.24,357.63a15.94,15.94,0,0,0,1.6,4.05c1.09,2.16,2.63,4.83,4.19,7.54,2.89,5,5.9,10.18,6.34,12.36.54,2.67.47,6.38.31,11.76s5.54,14.3,14.31,13.22c5.39-.65,7.34-3.22,7.59-6.63a11.38,11.38,0,0,0-.08-2.39,25.46,25.46,0,0,0-1.06-4.81c-2-3.53-3.36-4.72-5.21-7.49s-3-3.6-3.74-7-3.43-17-4.39-24.73c-5.86-5.09-12.85-.61-19.33,3.74C188.6,357.39,188.41,357.5,188.24,357.63Z"/><g class="cls-27"><path class="cls-26" d="M188.77,357.27c.35,1.5.72,3,1.07,4.41,1.09,2.16,2.63,4.83,4.19,7.54,3.71.61,7.53-.05,10.25-.44,3.31-.5,4.69,7.43,5.66,10.45s5,9.69,7.24,13.8c1.08,2,3.32,3.51,5.32,4.51a25.46,25.46,0,0,0-1.06-4.81c-2-3.53-3.36-4.72-5.21-7.49s-3-3.6-3.74-7-3.43-17-4.39-24.73C202.24,348.44,195.25,352.92,188.77,357.27Z"/></g><path class="cls-28" d="M134.12,354v0c.68,2.92,2.74,5.37,6.29,5.34,4.7,0,6.79,2,12,4.51s10.69,1.92,15,.71,9.42-1.05,15.82.53c4.53,1.1,8.4,1.62,12.17.86a17.89,17.89,0,0,0,4.7-1.66,46.31,46.31,0,0,1,5.89-2.54c2.68-.94,5.27-1.61,8.33-2.46l.62-.18c5.53-1.59,6.18-3.51,5-8.24s-14.78-53.95-17.6-63.85c-1.1-.82-3.47-5.36-6.84-5.57a194.57,194.57,0,0,0-19.66.32c-8.78.43-10.72-1.63-20.37.78-1,.25-2,.53-3.19.87-.94,3-3.24,11.3-5.92,21.12-2,7.39-4.21,15.63-6.19,23.13-3.16,11.87-5.76,21.84-6.07,23.42A7.59,7.59,0,0,0,134.12,354Z"/><g class="cls-29"><path class="cls-30" d="M195.44,365.94a17.89,17.89,0,0,0,4.7-1.66,46.31,46.31,0,0,1,5.89-2.54C203.13,358.21,198.5,357.09,195.44,365.94Z"/></g><g class="cls-31"><path class="Graphic-Style-3" d="M209,327.61c1.39,6.82,4.19,23.32,5.36,31.67l.62-.18c5.53-1.59,6.18-3.51,5-8.24s-14.78-53.95-17.6-63.85c-1.1-.82-3.47-5.36-6.84-5.57L195,282.9c2.29,8.12,5.48,21,6.94,27.16.45,1.94.73,3.22.76,3.47-.12-1.86-.23-3.47-.34-4.9v-.07c-.6-7.81-1-9.67-1.35-12.75C200.66,292.14,207.17,318.62,209,327.61Z"/></g><g class="cls-32"><path class="cls-33" d="M134.12,354c3.9-14.58,18.59-62.42,21.36-71.43-1,.25-2,.53-3.19.87-2.74,8.8-17.4,63.76-18.18,67.67A7.59,7.59,0,0,0,134.12,354Z"/></g><path class="cls-34" d="M198.49,291c.54,2.9,1,5.66,1.56,8.41s1,5.62,1.52,8.42,1,5.59,1.53,8.41l1.59,8.41c-.28-2.84-.62-5.68-1-8.5s-.89-5.64-1.4-8.45-1.11-5.6-1.74-8.38S199.22,293.79,198.49,291Z"/><path class="cls-34" d="M187.61,290.45c-.08,1.44-.15,2.61-.22,3.77s-.07,2.52-.1,3.76,0,2.51,0,3.77.08,2.51.17,3.76c.11-1.25.2-2.51.25-3.76s.07-2.51.08-3.76,0-2.48,0-3.77S187.67,291.89,187.61,290.45Z"/><path class="cls-34" d="M172.23,296.52c.12,2.51.23,4.85.34,7.18s.17,4.8.26,7.19.17,4.77.25,7.18.17,4.68.25,7.19c.15-2.39.24-4.79.25-7.19s0-4.81-.12-7.21-.27-4.79-.47-7.18S172.54,298.9,172.23,296.52Z"/><path class="cls-34" d="M160.94,294.18q-.72,4.33-1.29,8.7t-1,8.74c-.28,2.91-.53,5.84-.71,8.76s-.31,5.86-.37,8.79c.3-3,.59-5.88.88-8.75s.56-5.83.83-8.74.55-5.82.83-8.75S160.65,297.19,160.94,294.18Z"/><path class="cls-34" d="M154,288.48q-.93,2.43-1.71,4.92c-.52,1.65-1,3.33-1.4,5s-.75,3.39-1,5.1-.52,3.43-.69,5.16c.43-1.83.81-3.45,1.18-5.06s.8-3.38,1.19-5.05.81-3.33,1.22-5Z"/><path class="cls-35" d="M153.32,259.66c-.16,5.39-.85,9.56-.7,16.12,3,4.42,16.18,6.27,24.08,6.79,6.43.43,15.64,1.79,22.23-.84a15.26,15.26,0,0,0,3.91-2.2c.51-3.21.83-15.93,1.16-20.89.19-2.94,2.41-7.24,1.52-13.61-.2-1.47-.44-2.9-.74-4.21a15.85,15.85,0,0,0-2.23-6c-2.26-1.17-8.61-4.49-11.83-5.24-5.29-.94-12.91-.36-19.28.06a55.85,55.85,0,0,0-13.58,4.89,17,17,0,0,0-.73,2.36C155.55,243.25,153.46,255,153.32,259.66Z"/><g class="cls-36"><path class="Graphic-Style-3" d="M204,253.88c-.24,7.48-4.28,23-5.06,27.85a15.26,15.26,0,0,0,3.91-2.2c.51-3.21.59-11.26.92-16.23.19-2.93-1.25-21-2.14-27.4C201.18,238,204.11,249.79,204,253.88Z"/></g><path class="cls-37" d="M165.38,238.83c.58,3.41,2.65,6.26,6.56,6.06s6.54-4.3,9.18-7.92a28,28,0,0,0,4.51,6.56c2.05,2.05,5.77,1.94,8.12-1a14.42,14.42,0,0,0,2.55-6.8,7.11,7.11,0,0,0-.2-3.37,3.47,3.47,0,0,0-1.21-1.3h0a11.14,11.14,0,0,0-3.68-1.38l-.47-.11c-9.29,2.68-15.16.94-18.29-.42-1-.3-5.67.3-6.64,2a6.67,6.67,0,0,0-.76,2.94A20.45,20.45,0,0,0,165.38,238.83Z"/><path class="cls-24" d="M170.47,230.65c2.16,3.62,7.91,5.76,10.86,5.76s8.31-2.69,9.39-6.84a6.12,6.12,0,0,1-.36-1.43,36.27,36.27,0,0,1-.38-4c-.16-3.56-.1-8.06.06-11.69a14.82,14.82,0,0,0-9.18-3.07,16.16,16.16,0,0,0-2,.11,13.17,13.17,0,0,0-7.76,3.76c.13,3.88.16,7.51.08,10.49,0,1.57-.13,2.95-.24,4.1A12.27,12.27,0,0,1,170.47,230.65Z"/><path class="cls-26" d="M171.22,223.71c.08-3,.05-6.61-.07-10.49a12.69,12.69,0,0,1,7.57-3.76,15.24,15.24,0,0,1,1.9-.11,14.21,14.21,0,0,1,8.95,3.07c-.15,3.63,0,8.22.19,11.77a37.23,37.23,0,0,0,.31,3.86,22,22,0,0,1-18.81-.12C171.37,226.79,171.18,225.28,171.22,223.71Z"/><path class="cls-38" d="M152.29,283.41c13.42,4.7,29.36,5.45,44.16,4.18,2-.15,4-.35,5.9-.58.49-2.71.11-4.45.49-7.48-1.19.17-2.41.32-3.66.44-15.48,1.55-34.68-.37-46.56-4.19C152.22,277.91,152.46,281.34,152.29,283.41Z"/><g class="cls-39"><path class="Graphic-Style-3" d="M196.45,287.59c2-.15,4-.35,5.9-.58.49-2.71.11-4.45.49-7.48-1.19.17-2.41.32-3.66.44v0C198.77,283.73,199,285.13,196.45,287.59Z"/></g><path class="cls-34" d="M151.6,363.44a18.38,18.38,0,0,0,7.72,2.14,28,28,0,0,0,8-1c5.07-1.13,10.36-.36,15.44,1a35.55,35.55,0,0,0,8.06,1.06,18,18,0,0,0,8-1.82c4.62-2.7,9.71-4.1,14.74-5.91l-7.65,2.26a45.91,45.91,0,0,0-7.34,3.11,18.09,18.09,0,0,1-7.73,1.65,35.07,35.07,0,0,1-7.89-1.11c-5.12-1.27-10.56-2.07-15.77-.78a27.62,27.62,0,0,1-7.86,1.18A18.08,18.08,0,0,1,151.6,363.44Z"/><path class="cls-24" d="M141.37,291.79a4.25,4.25,0,0,1,1.06,1.35,5.63,5.63,0,0,0,4.4,3.46,11,11,0,0,0,3.47-.13,27.28,27.28,0,0,0,2.67-.64c.25-.08.54-.14.82-.22s.55-.16.84-.22l.22-.06,2.74-.63.69-.15,0,0,.53-.11.24-.06a21.35,21.35,0,0,1,3.88-.58c.37.09.72.47,2.11,1.2a3.22,3.22,0,0,0,3.13.24,1.67,1.67,0,0,0,.42-2.05h0c.13,0,.25.05.38.05a3.42,3.42,0,0,0,2.69-.44c.47-.53.28-1.61-.17-2.51a1.11,1.11,0,0,1,.34,0,2.73,2.73,0,0,0,2.38-.47l.15-.19a1.87,1.87,0,0,0-.83-2.94.8.8,0,0,0,.24-.25A1.93,1.93,0,0,0,173,284c-1.08-.61-1.81-1.41-3.6-2.31-.81-.41-1.37-.69-1.94-.94a11.6,11.6,0,0,0-2.75-.69,21.93,21.93,0,0,0-6.48-.2c-.08,0-.17,0-.23.07-1.32.49-8.2,3-10.79,4.17-.82,1.32-4.2,4.17-5.53,6.94C141.57,291.29,141.46,291.54,141.37,291.79Z"/><path class="cls-40" d="M159.08,282.92c1.39.12,2.75.19,4.13.2a11.67,11.67,0,0,1,3.93.38c.6.24,1.18.58,1.79.89l1.87.9c.91.43,1.89,1,2.8,1.42a.89.89,0,0,0,.23-.25c-.89-.61-1.83-1.16-2.75-1.69-.6-.35-1.2-.67-1.78-1a14,14,0,0,0-1.89-1,11,11,0,0,0-4.21-.25A40.67,40.67,0,0,0,159.08,282.92Z"/><path class="cls-40" d="M157.34,287c1.33.07,2.65,0,4,0l2-.1a4.23,4.23,0,0,1,1.8.08c1.06.49,2.28,1.21,3.46,1.78.93.46,2.05,1.05,3,1.47a1.07,1.07,0,0,1,.34,0c-1-.73-2-1.4-3-2.06a33.22,33.22,0,0,0-3.49-2,4.48,4.48,0,0,0-2.14-.08l-2,.24C160,286.56,158.64,286.77,157.34,287Z"/><path class="cls-40" d="M157.19,290.24c1.33.05,2.35.09,3.34.15s2.21.13,3.31.23,1.79.64,2.77,1.28c.67.45,1.33.86,2,1.27h0a2.47,2.47,0,0,0,.38.05c-.63-.64-1.32-1.27-2-1.85a10.53,10.53,0,0,0-1.36-1.07,3.33,3.33,0,0,0-1.75-.56,23.85,23.85,0,0,0-3.38,0A17.09,17.09,0,0,0,157.19,290.24Z"/><path class="cls-24" d="M152.59,258.22l-.41.18,0,.07C152.59,258.94,152.72,258,152.59,258.22Z"/><path class="cls-24" d="M122.59,269.11c1.32,2.64,3.5,3.25,6,2.81a19.66,19.66,0,0,0,6.36-2.61c2.29-1.31,4.37-2.78,5.81-3.6,2.51-1.44,4.33-3,6.47-4.5a27.46,27.46,0,0,1,5-2.81c2.55-5.25-3-12.15,6.16-21.75.5-.53-.29-1.43-.47-2.14-2.74.86-10.6,5.66-17,10.21-2.26,1.6-4.35,3.17-6,4.52-.77.62-1.42,1.22-1.95,1.73C127.93,255.81,118.94,261.8,122.59,269.11Z"/><path class="cls-24" d="M122.59,269.11c2,3.77,14.61,18.9,18.78,22.68.15-.12.32-.28.51-.45a23.87,23.87,0,0,0,2.57-2.85c.28-.36.56-.72.81-1.08a.05.05,0,0,0,0-.05,13.07,13.07,0,0,0,1.91-3.26c0-.11-.09-.26-.15-.41-1.24-3-5.65-12.64-7.19-17.68-.45-1.5-2.2-5.07-5.78-5.65"/><path class="cls-26" d="M152.59,258.22l-.41.18,0,.07C152.59,258.94,152.72,258,152.59,258.22Z"/><path class="cls-26" d="M147,261a24.68,24.68,0,0,1,4.7-2.7c2.55-5.24-2.54-12.05,6.62-21.65.5-.53-.29-1.43-.47-2.14-2.74.86-10.6,5.89-17,10.44C141.58,249.3,143,256,147,261Z"/><g class="cls-41"><path class="cls-42" d="M203.06,253.23a41.43,41.43,0,0,0,1.58,7.3c3.52,7,6.11,13.57,9.63,15.26a6.87,6.87,0,0,0,3.51-2.91,4.91,4.91,0,0,1-2.72-1.13C211.8,269.15,206.05,259,203.06,253.23Z"/></g><path class="cls-24" d="M203.06,253.23a41.43,41.43,0,0,0,1.58,7.3l1.84,3.73c3.1,6.28,6.55,13.05,9.48,14.47a7,7,0,0,0,3.51-2.91c2.77-4.29,2.32-11.45,1.72-14.05-.16-.31-.3-.63-.47-.95-1.51-3.11-3.34-6.72-4.89-9.89-1.25-2.55-2.31-4.82-2.85-6.31-1.3-3.52-5.61-8.67-10.44-9.81a38.86,38.86,0,0,0-.31,4A82.23,82.23,0,0,0,203.06,253.23Z"/><path class="cls-26" d="M203.06,253.23a35.63,35.63,0,0,0,1.87,7.13c.59,1.19,1.12,2.54,1.75,3.82,5.84-2.2,8.06-8.64,9.08-13a70.37,70.37,0,0,1-2.78-6.58c-1.3-3.52-5.61-8.67-10.44-9.81a38.86,38.86,0,0,0-.31,4A82.23,82.23,0,0,0,203.06,253.23Z"/><path class="cls-24" d="M213.72,276.61a6.24,6.24,0,0,0,2.24,2.11c5,2.74,10.83-.91,13-5.08a235,235,0,0,0,10-23.08c-.09-2.55.22-5.49-2.16-7.2a9.18,9.18,0,0,0-4.74-1.4c-1.47,2.42-7.73,10.2-12.44,16.17-2.39,3-3.71,3.71-5.16,8.25"/><path class="cls-24" d="M232.75,247.75a8.57,8.57,0,0,0,7,3.24c4.79.39,10.95.55,13.3.75a11.6,11.6,0,0,0,6.74-1c2.68-1.24,4.57-1.9,4.51-2.93l.16-.08h0a6,6,0,0,0,2.33-1.79,1.24,1.24,0,0,0,0-1.64.72.72,0,0,0,.15-.11l.07-.06a4.56,4.56,0,0,0,1.54-1.71,1.62,1.62,0,0,0-.25-1.91,5.11,5.11,0,0,0-3.46-1.34h0a3.12,3.12,0,0,0-.54,0h0a.1.1,0,0,0,0-.07,2.32,2.32,0,0,0-.28-.8,3.17,3.17,0,0,0-3.36-1.41c-1.75.33-3.83,1-4.82,1.17-2.69-.48-4.29-.7-6.18-1.06l-.41-.08-.81-.17c-2.47-.52-4.3-1.3-5.21-1.36,3.71-1.05,5.54-2.55,6.13-3.91a4,4,0,0,0-.12-3.27,1.54,1.54,0,0,0-.74-.71c-1.17-.51-1.56.19-2.92,1.18a14.23,14.23,0,0,1-6.39,2.47,9.23,9.23,0,0,0-6.46,3.52c-1.89,2.16-2.92,6.85-2.22,9.71"/><g class="cls-43"><path class="cls-44" d="M249.3,231.53a4,4,0,0,0-.12-3.27c-.22,1.61-.72,3.28-1.66,3.85a34.89,34.89,0,0,1-5.54,3c-.84,2.41-1.5,3.19-2.53,4,2.2-.58,2.88-2.27,3.72-3.71C246.88,234.39,248.71,232.89,249.3,231.53Z"/></g><path class="cls-40" d="M244.21,242.17a13.86,13.86,0,0,0-2.89-1,10.74,10.74,0,0,0-3.11-.29,7.31,7.31,0,0,0-3,.91,6.31,6.31,0,0,0-1.26,1A5.34,5.34,0,0,0,233,244a7,7,0,0,1,1.17-1,7.62,7.62,0,0,1,1.28-.7,9.38,9.38,0,0,1,2.79-.75,11.65,11.65,0,0,1,2.95,0A25.65,25.65,0,0,1,244.21,242.17Z"/><path class="cls-40" d="M251.49,247.75c.11,0,.2.05.31.06a30.9,30.9,0,0,0,3.18.49l1.75.15a4.5,4.5,0,0,0,1.89-.2,11.13,11.13,0,0,0,1.55-.91,5.78,5.78,0,0,1,1.5-.65,2.44,2.44,0,0,1,2.59,1.14l.15-.08s0,0,0,0a2.56,2.56,0,0,0-2.86-1.61,10.84,10.84,0,0,0-3.29,1.32,4.14,4.14,0,0,1-1.54.17l-1.74,0a30.88,30.88,0,0,0-3.18.14A2,2,0,0,0,251.49,247.75Z"/><path class="cls-40" d="M250.44,240.21s0,0,0,.06a7.7,7.7,0,0,0,.86.19h0c.89.21,1.78.38,2.67.54a27.25,27.25,0,0,0,3.88.47,9.07,9.07,0,0,0,3.87-1,20.49,20.49,0,0,1,3.08-1.34,3.28,3.28,0,0,0-.56,0,.13.13,0,0,0,0-.08,24.64,24.64,0,0,0-2.75.72,10.42,10.42,0,0,1-3.62.66c-1.22,0-2.5-.16-3.78-.22-.94-.06-1.9-.11-2.87-.11C251,240.19,250.71,240.19,250.44,240.21Z"/><path class="cls-40" d="M251.65,243.71a4,4,0,0,0,.46.13c1.15.31,2.32.58,3.49.81a19.37,19.37,0,0,0,2,.35,5,5,0,0,0,2.13-.18,19.93,19.93,0,0,1,3.85-1.06,5.42,5.42,0,0,1,3.19.55l.14-.11a.25.25,0,0,0,.08-.07,4.81,4.81,0,0,0-3.44-.89,15.81,15.81,0,0,0-2.07.25c-.7.16-1.33.36-1.94.55a4.58,4.58,0,0,1-1.88.2c-.65,0-1.33-.12-2-.2-1.17-.14-2.36-.25-3.57-.3Z"/><path class="cls-45" d="M252.34,250.41s1.13-8.69-3.15-13.44"/><path class="cls-46" d="M252.34,250.41a57.88,57.88,0,0,0-.76-7,25.06,25.06,0,0,0-.87-3.33,19,19,0,0,0-1.52-3.15,8.85,8.85,0,0,1,2.23,2.84,14,14,0,0,1,1.14,3.45,18.15,18.15,0,0,1,.28,3.6A14.76,14.76,0,0,1,252.34,250.41Z"/><path class="cls-45" d="M148.67,284.25c-1-.38-1.62.45-3.4-.95s-5.15,6.37-5.15,6.37,1.22,3.09,3.37,2.53S148.67,284.25,148.67,284.25Z"/><path class="cls-47" d="M148,283.81a6.61,6.61,0,0,0-3,2.64"/><path class="cls-48" d="M123.47,155.84c0,31.78,25.06,52,56.3,52s56.57-25.76,56.57-57.54S220,91.55,178.79,91.55C135.63,91.55,123.47,124.06,123.47,155.84Z"/><path class="cls-49" d="M223.08,181.17c2.24-3,5.15-5.94,8.63-5.38s5.15,3.81,4.48,9.42-1.91,8.51-6.17,11.88-6.5,5-11,2C218.26,192.94,222,183.19,223.08,181.17Z"/><path class="cls-50" d="M220.2,197.22a2.53,2.53,0,0,0,1.71-.17,10.38,10.38,0,0,0,1.59-.73,5.5,5.5,0,0,0,2.35-2.64,5.33,5.33,0,0,0,.2-3.52,5.15,5.15,0,0,0-1-1.81c.24-.39.5-.78.76-1.15a31.74,31.74,0,0,1,2.25-2.88,7.38,7.38,0,0,1,2.67-2.3,2.1,2.1,0,0,1,1.65,0,1.58,1.58,0,0,1,1,1.34,1.65,1.65,0,0,0-.88-1.59,2.37,2.37,0,0,0-1.93-.22,7.11,7.11,0,0,0-3,2.33,22.26,22.26,0,0,0-2.18,3l-.62,1.12-.09.2a3.14,3.14,0,0,1,.18.31,5.5,5.5,0,0,1,.66,1.68,5.27,5.27,0,0,1-.31,3.19,5.48,5.48,0,0,1-2,2.5,14.8,14.8,0,0,1-1.45.84A2.81,2.81,0,0,1,220.2,197.22Zm9.05-3.5a35.17,35.17,0,0,1-3.17,2,16.66,16.66,0,0,0,3.42-1.61,7.3,7.3,0,0,0,2.66-2.77,6.67,6.67,0,0,0,.57-3.8,15.14,15.14,0,0,0-1-3.65,29.39,29.39,0,0,1,.53,3.68,7,7,0,0,1-.64,3.51A7.69,7.69,0,0,1,229.25,193.72Z"/><path class="cls-49" d="M137.26,181.36c-2.28-3.08-5.23-6-8.76-5.46s-5.23,3.86-4.55,9.55,1.94,8.64,6.26,12.05,6.59,5.12,11.14,2.05C142.15,193.3,138.4,183.4,137.26,181.36Z"/><path class="cls-50" d="M138.55,197.2a13.51,13.51,0,0,1-1.48-.85,5.62,5.62,0,0,1-2.07-2.53,5.29,5.29,0,0,1-.31-3.24,5.67,5.67,0,0,1,.66-1.71c.06-.11.13-.21.19-.31a1.24,1.24,0,0,0-.1-.2c-.2-.38-.41-.76-.62-1.14a23.11,23.11,0,0,0-2.21-3.06,7.1,7.1,0,0,0-3-2.37,2.4,2.4,0,0,0-2,.23,1.66,1.66,0,0,0-.9,1.61,1.6,1.6,0,0,1,1-1.36,2.11,2.11,0,0,1,1.67-.05,7.5,7.5,0,0,1,2.71,2.33,34.11,34.11,0,0,1,2.28,2.92q.4.57.78,1.17a5.2,5.2,0,0,0-1,1.83,5.5,5.5,0,0,0,.2,3.58,5.62,5.62,0,0,0,2.39,2.68,10.65,10.65,0,0,0,1.61.74,2.59,2.59,0,0,0,1.73.17A2.76,2.76,0,0,1,138.55,197.2Zm-10-5.81a7.06,7.06,0,0,1-.65-3.56,28.56,28.56,0,0,1,.54-3.74,15.57,15.57,0,0,0-1,3.7,6.8,6.8,0,0,0,.58,3.86,7.54,7.54,0,0,0,2.7,2.82,17.42,17.42,0,0,0,3.47,1.63,34.72,34.72,0,0,1-3.21-2A7.74,7.74,0,0,1,128.57,191.39Z"/><path class="cls-49" d="M134.67,164.46c.05.4-4,.82-4,1.23a264.38,264.38,0,0,0,5.92,33.3,26.32,26.32,0,0,0,3.08,7.13,29.62,29.62,0,0,0,8.47,8.61,99,99,0,0,0,15.07,8.15,75.83,75.83,0,0,0,7.65,3,29,29,0,0,0,8.31,1.6,32.62,32.62,0,0,0,9.38-1.74,121.69,121.69,0,0,0,19.07-8.38c6.06-3.16,13.43-9.95,15.17-17.17a338.32,338.32,0,0,0,6.49-33.78c.61-4.56-3.3-6.34-7.05-19.88-5-18.16-11.95-25.35-40.57-25.35C131.73,121.13,133.08,150.45,134.67,164.46Z"/><path class="cls-51" d="M226.25,184.5s-4.72-30.64-14.89-38.94-11.64-13.62-11.64-13.62S197,147.45,179.5,154.07l.77-9.31a22.67,22.67,0,0,1-10.41,9.31l1.69-11.74A181.58,181.58,0,0,0,145.41,155c-12.68,7.6-12.14,32.65-12.14,32.65l5.09-51.95,43.32-18,27.56-1.08,18.67,25.71-2.9,20Z"/><path class="cls-52" d="M186.5,189.43a6.4,6.4,0,0,1-5.31,4.67,5.81,5.81,0,0,1-3.77-.74,5.08,5.08,0,0,1-2.29-2.83,10.63,10.63,0,0,0,2.93,1.39,6.77,6.77,0,0,0,2.86.19,9.28,9.28,0,0,0,2.81-.89A18,18,0,0,0,186.5,189.43Z"/><path class="cls-48" d="M127.4,172.07a60,60,0,0,0,4.4,8.6c.29.49,2.47,3.24,2.37,3.83,0,0-3.62-24,13.62-32.77,6.72-3.43,13.65-6.18,20.45-9.34s13.55-6.45,20.07-10.27a57.36,57.36,0,0,0,10.17-7c11.35,19.27,25.77,19.7,27,52,.06,1.72.23,3.43.35,5.14l.39,2.24s2.81-2.45,7.73-17.72c5.35-16-7.52-27.74-15.38-41.19-12.47-21.34-26.77-18.77-32.1-19.3-9.38-.94-9.41,5.76-18.63,7.7-20.23,4.26-27.8.78-32.09,23.49C133.23,151,122.29,159.74,127.4,172.07Z"/><path class="cls-48" d="M181.68,131a29.55,29.55,0,0,1,0,19.05A41.09,41.09,0,0,0,199,121.53"/><path class="cls-48" d="M186.5,129s-.28,6.93-14.95,21.58c0,0,5.43-9.67,2.34-19.56"/><path class="cls-53" d="M230.25,177.59c.06-2.23.05-4.44-.05-6.65s-.22-4.4-.44-6.58a97.69,97.69,0,0,0-2-12.79,24.14,24.14,0,0,1-.63-3.11c-.12-1.05-.25-2.1-.46-3.12q-.63-3.1-1.54-6.09a51,51,0,0,0-5-11.33,41,41,0,0,0-7.71-9.42,48,48,0,0,0-10.16-6.91,49.5,49.5,0,0,0-23.93-5.23,53,53,0,0,0-23.76,6.45,42.18,42.18,0,0,0-9.74,7.31,33.67,33.67,0,0,0-3.69,4.62l-.74,1.25c-.25.42-.49.91-.73,1.36-.5.91-.93,1.86-1.36,2.81A61.13,61.13,0,0,0,134.34,142c-.45,2.05-.83,4.12-1.1,6.21-.16,1-.2,2.1-.27,3.16a31.47,31.47,0,0,1-.46,3.15,98.41,98.41,0,0,0-.71,26.11,71.89,71.89,0,0,1-4.07-12.87,84.76,84.76,0,0,1-1.88-13.57,19,19,0,0,1,0-3.46l.46-3.44c.29-2.29.71-4.56,1.21-6.83a68.71,68.71,0,0,1,4.4-13.23c.49-1.06,1-2.12,1.53-3.15.28-.52.53-1,.83-1.56l1-1.59a39.75,39.75,0,0,1,4.56-5.72,48.55,48.55,0,0,1,11.38-8.56,60,60,0,0,1,26.92-7.33,56.55,56.55,0,0,1,27.31,6c1,.56,2.08,1.12,3.1,1.71s2,1.22,3,1.89,1.93,1.34,2.87,2.07,1.86,1.49,2.74,2.29a48.42,48.42,0,0,1,9,11,57.6,57.6,0,0,1,5.66,12.88,69.47,69.47,0,0,1,1.71,6.75l.7,3.4a17.42,17.42,0,0,1,.25,3.46,86.12,86.12,0,0,1-1,13.67A75.5,75.5,0,0,1,230.25,177.59Z"/><path class="cls-54" d="M232.76,133c4.54-4.08,10.89-4.41,5.09-10.88s-18.74-4.33-18.74-4.33-3.52,12.63,2.28,19.1S228.21,137.06,232.76,133Z"/><path class="cls-54" d="M205.24,102.3c4.54-4.07,5.56-10.35,11.36-3.88s2.28,19.09,2.28,19.09-12.93,2.14-18.74-4.33S200.69,106.38,205.24,102.3Z"/><circle class="cls-55" cx="204.45" cy="111.27" r="1.31"/><circle class="cls-55" cx="209.54" cy="113.82" r="1.31"/><circle class="cls-55" cx="210.32" cy="106" r="1.31"/><path class="cls-55" d="M216.66,109.14a1.31,1.31,0,1,0-1.85-.1A1.31,1.31,0,0,0,216.66,109.14Z"/><circle class="cls-55" cx="214.23" cy="102.49" r="1.31"/><path class="cls-55" d="M212.55,116.36a1.3,1.3,0,0,1,1.85.1,1.28,1.28,0,0,1,.33,1c-.79,0-1.68,0-2.61,0A1.31,1.31,0,0,1,212.55,116.36Z"/><path class="cls-55" d="M207,116.06a1.27,1.27,0,0,1,.31.65,17.66,17.66,0,0,1-2.2-.72l0,0A1.3,1.3,0,0,1,207,116.06Z"/><path class="cls-55" d="M218.82,103.67h0a16.78,16.78,0,0,1,.46,2.24,1.34,1.34,0,0,1-.58-.37A1.31,1.31,0,0,1,218.82,103.67Z"/><path class="cls-55" d="M218.32,113a1.31,1.31,0,0,1,.1-1.86,1.29,1.29,0,0,1,1.07-.31c-.05.93-.14,1.81-.24,2.6A1.29,1.29,0,0,1,218.32,113Z"/><path class="cls-55" d="M203.77,106.58a1.31,1.31,0,0,1-1.85-.1,1.3,1.3,0,0,1-.32-1.08l1.68-1.05a1.24,1.24,0,0,1,.59.37A1.31,1.31,0,0,1,203.77,106.58Z"/><path class="cls-55" d="M200,108.23a1.31,1.31,0,0,1-.1,1.86,1.3,1.3,0,0,1-1,.32,2.71,2.71,0,0,1-.08-2.59A1.29,1.29,0,0,1,200,108.23Z"/><path class="cls-55" d="M209.74,99.46a1.31,1.31,0,1,1-2,1.75,1.28,1.28,0,0,1-.31-.64c.43-.53.83-1,1.21-1.54A1.29,1.29,0,0,1,209.74,99.46Z"/><path class="cls-55" d="M213.55,97.8a1.3,1.3,0,0,1-1.85-.1,1.33,1.33,0,0,1-.29-1.23,2.79,2.79,0,0,1,2.58.38A1.29,1.29,0,0,1,213.55,97.8Z"/><circle class="cls-55" cx="223.75" cy="132.78" r="1.31"/><circle class="cls-55" cx="222.2" cy="127.12" r="1.31"/><circle class="cls-55" cx="229.62" cy="127.52" r="1.31"/><path class="cls-55" d="M227.19,120.87a1.32,1.32,0,1,1-.1,1.86A1.32,1.32,0,0,1,227.19,120.87Z"/><circle class="cls-55" cx="233.54" cy="124.01" r="1.31"/><path class="cls-55" d="M219.57,124.18a1.31,1.31,0,0,0,.1-1.85,1.29,1.29,0,0,0-.95-.44c-.11.79-.2,1.67-.25,2.6A1.29,1.29,0,0,0,219.57,124.18Z"/><path class="cls-55" d="M219.27,129.75a1.27,1.27,0,0,0-.62-.38,17.47,17.47,0,0,0,.48,2.26l0,0A1.31,1.31,0,0,0,219.27,129.75Z"/><path class="cls-55" d="M232.86,119.32v0a19,19,0,0,0-2.17-.71,1.3,1.3,0,0,0,2.16.73Z"/><path class="cls-55" d="M223.58,118.81a1.32,1.32,0,0,0,1.86.11,1.36,1.36,0,0,0,.43-1c-.94,0-1.82-.06-2.62,0A1.3,1.3,0,0,0,223.58,118.81Z"/><path class="cls-55" d="M228.34,134a1.32,1.32,0,0,0-.1,1.86,1.36,1.36,0,0,0,1,.43c.39-.5.79-1,1.23-1.56a1.49,1.49,0,0,0-.31-.63A1.32,1.32,0,0,0,228.34,134Z"/><path class="cls-55" d="M226.29,137.57a1.31,1.31,0,0,0-2.29.89,2.72,2.72,0,0,0,2.57.35A1.32,1.32,0,0,0,226.29,137.57Z"/><path class="cls-55" d="M236.07,128.8a1.31,1.31,0,0,0-2,1.75,1.34,1.34,0,0,0,.6.38c.58-.37,1.14-.72,1.67-1A1.33,1.33,0,0,0,236.07,128.8Z"/><path class="cls-55" d="M238.12,125.19a1.31,1.31,0,0,0,1.09,2.27,2.74,2.74,0,0,0-.1-2.6A1.3,1.3,0,0,0,238.12,125.19Z"/><path class="cls-56" d="M207.77,109.05c1.38-2,7.16,5,7.16,5S206.38,111,207.77,109.05Z"/><path class="cls-56" d="M213.15,106.79c1.45-.71,3.19,6.52,3.19,6.52S211.69,107.51,213.15,106.79Z"/><path class="cls-56" d="M226.32,129.72c2.11-1.16-4.24-7.66-4.24-7.66S224.21,130.89,226.32,129.72Z"/><path class="cls-56" d="M229.14,124.62c.87-1.37-6.14-3.88-6.14-3.88S228.28,126,229.14,124.62Z"/><rect class="cls-57" x="215.04" y="113.7" width="7.88" height="7.88" rx="2.33" transform="translate(-22.58 176.32) rotate(-41.9)"/><path class="cls-58" d="M224.69,197s-3.72,7.73.85,9.05,3.15-7.32,3.15-7.32-1.19,7.28-2.6,2.78Z"/><path class="cls-58" d="M134.84,197.47s3.72,7.73-.86,9.05-3.15-7.33-3.15-7.33,1.19,7.29,2.6,2.78Z"/><path class="cls-59" d="M156.37,256.71,145.8,262.5a68.51,68.51,0,0,1-5-17.55c12.42-9.71,15.45-11,15.45-11l9.5-2.75"/><path class="cls-60" d="M200.34,233.87s9.06,1.34,12.27,9.2,5.12,8.18,5.12,8.18-1.3,8.46-11,12.93l-4-5.43"/><line class="cls-61" x1="203.76" y1="263.3" x2="205.11" y2="246.82"/><path class="cls-38" d="M190,270.15a4.14,4.14,0,0,1-.38.72,3.79,3.79,0,0,1-1.64,1.31c-1,.42-3.94.11-4.34-1.1.47,1.41,1.16,2.11.43,3.69a4.78,4.78,0,0,1-1,1.37,7,7,0,0,1-.66.56,5.66,5.66,0,0,1-1.45.78,4.17,4.17,0,0,1-1,.24,4.69,4.69,0,0,1-.75,0c-2.7-.26-4.59-3.32-3.84-6.14-.13.49-1.85,1.3-2.3,1.41a5.82,5.82,0,0,1-3.53-.1,4,4,0,0,1-1-.5,5.77,5.77,0,0,1-.65-.57,3.52,3.52,0,0,1-.85-2.42h0a5.43,5.43,0,0,1,0-.57l0-.24a4.22,4.22,0,0,1,5.42-3.7c-1.46-1.62-2.62-3.49-2-5a2.49,2.49,0,0,1,.39-.66,4.51,4.51,0,0,1,1.65-1.19,3.49,3.49,0,0,1,.78-.28,3.61,3.61,0,0,1,.91-.12,3.94,3.94,0,0,1,3.67,3,5.15,5.15,0,0,1,2.85-4.47,4.22,4.22,0,0,1,2.08-.23,6.71,6.71,0,0,1,1,.21h0a5.78,5.78,0,0,1,2.24,1.25,3.12,3.12,0,0,1,.52.57,1.85,1.85,0,0,1,.21.33c1.55,2.75-.93,5.19-2.89,6.83a4.8,4.8,0,0,1,6.11,2.59,3.23,3.23,0,0,1,.18.83.88.88,0,0,1,0,.16A3.46,3.46,0,0,1,190,270.15Z"/><path class="cls-62" d="M181.36,270c1.92-1.52,2.71-4.35.49-6.51A4.55,4.55,0,0,0,175,264a4.32,4.32,0,0,0,.85,6.37A4.65,4.65,0,0,0,181.36,270Z"/><path class="cls-63" d="M181,269.48a3.56,3.56,0,0,0,.41-5.53,3.86,3.86,0,0,0-5.79.43,3.68,3.68,0,0,0,.72,5.42A4,4,0,0,0,181,269.48Z"/></g></g></g></svg>