<svg id="Layer_1" data-name="Layer 1" xmlns="http://www.w3.org/2000/svg" xmlns:xlink="http://www.w3.org/1999/xlink" width="475" height="512" viewBox="0 0 475 512">
  <defs>
    <style>
      .cls-1, .cls-10, .cls-11, .cls-15, .cls-19 {
        fill: none;
      }

      .cls-2 {
        fill: #32223f;
      }

      .cls-3 {
        fill: #9edbd5;
        stroke: #6f31f7;
        stroke-width: 9px;
      }

      .cls-10, .cls-11, .cls-12, .cls-15, .cls-16, .cls-19, .cls-20, .cls-29, .cls-3, .cls-33, .cls-37, .cls-38, .cls-39, .cls-5, .cls-6, .cls-7 {
        stroke-miterlimit: 10;
      }

      .cls-4 {
        clip-path: url(#clip-path);
      }

      .cls-5, .cls-6 {
        fill: #9e7732;
      }

      .cls-15, .cls-5, .cls-6 {
        stroke: #66491b;
      }

      .cls-6 {
        stroke-width: 2px;
      }

      .cls-7 {
        fill: #6c0f07;
        stroke: #381c0d;
      }

      .cls-8 {
        fill: #c6d1d5;
      }

      .cls-9 {
        fill: #84622c;
      }

      .cls-10 {
        stroke: #38352c;
      }

      .cls-11, .cls-12, .cls-19 {
        stroke: #6d6c5c;
      }

      .cls-12 {
        fill: #f1d02b;
      }

      .cls-13 {
        fill: #5b5951;
      }

      .cls-14, .cls-38 {
        fill: #423850;
      }

      .cls-16, .cls-26 {
        fill: #f4c9ab;
      }

      .cls-16 {
        stroke: #965e38;
      }

      .cls-16, .cls-37 {
        stroke-width: 0.75px;
      }

      .cls-17 {
        fill: #dba47f;
      }

      .cls-18 {
        fill: #23220c;
      }

      .cls-19, .cls-33 {
        stroke-width: 0.5px;
      }

      .cls-20 {
        fill: #a17a36;
      }

      .cls-20, .cls-29 {
        stroke: #562516;
      }

      .cls-21 {
        fill: #ea9653;
      }

      .cls-22 {
        fill: #542d19;
      }

      .cls-23 {
        fill: #f7eee8;
      }

      .cls-24 {
        fill: #e07a5f;
      }

      .cls-25 {
        fill: #ad7b59;
      }

      .cls-27 {
        fill: #965e38;
      }

      .cls-28 {
        fill: #70501c;
      }

      .cls-29 {
        fill: #826029;
      }

      .cls-30 {
        fill: #13132d;
      }

      .cls-31 {
        fill: #d89f79;
      }

      .cls-32 {
        fill: #f4f42a;
      }

      .cls-33, .cls-35 {
        fill: #f9f4f4;
      }

      .cls-33 {
        stroke: #000;
      }

      .cls-34 {
        fill: #300909;
      }

      .cls-36 {
        fill: #211e18;
      }

      .cls-37 {
        fill: #514945;
        stroke: #1e150f;
      }

      .cls-38 {
        stroke: #755f2f;
      }

      .cls-39 {
        fill: #dbccc3;
        stroke: #512e17;
      }
    </style>
    <clipPath id="clip-path">
      <rect class="cls-1" x="48.81" y="56.31" width="384.19" height="400.11" rx="8.77"/>
    </clipPath>
  </defs>
  <g>
    <g>
      <path class="cls-2" d="M306.76,50.75H168.24A93.78,93.78,0,0,0,87,97.65l-69.26,120a93.79,93.79,0,0,0,0,93.78L87,431.35a93.78,93.78,0,0,0,81.22,46.9H306.76A93.78,93.78,0,0,0,388,431.35l69.26-120a93.79,93.79,0,0,0,0-93.78L388,97.65A93.78,93.78,0,0,0,306.76,50.75Z"/>
      <path class="cls-3" d="M306.76,33.75H168.24A93.78,93.78,0,0,0,87,80.65l-69.26,120a93.79,93.79,0,0,0,0,93.78L87,414.35a93.78,93.78,0,0,0,81.22,46.9H306.76A93.78,93.78,0,0,0,388,414.35l69.26-120a93.79,93.79,0,0,0,0-93.78L388,80.65A93.78,93.78,0,0,0,306.76,33.75Z"/>
    </g>
    <g class="cls-4">
      <g>
        <g>
          <path class="cls-5" d="M253.68,276.71l.48,13.12,25.78,27.55a14.88,14.88,0,0,0,22-.3l23.71-26.71L313.86,277c-.09,1.78-7.48,9.91-20.46,10.06-3.19,0-5.68-5.62-9.11-10.22a71.48,71.48,0,0,1-10.48-20.4c-3.52-10.67-11.21-29.78-21.94-33l-17.64,16.38Z"/>
          <path class="cls-6" d="M271.5,638.87c-.54,3.14-6.09,4.26-6.09,4.26-6.19,3.26-14.52,2.7-20.81,1.07-5.32-1.36-9.17-3.51-9-4.76.3-2.72,5.15-3.24,5.15-3.24l-.47-.3a6.81,6.81,0,0,1-3.25-6.31,248.45,248.45,0,0,0,.26-39.5c-1-16.62-6.39-57.75-10.18-72.13s-13.59-73.7-15.39-84.46-3.54-6.19-3.54-6.19-.09,1.06-.26,2.94v0c-1,12.13-5,58.24-7.58,80.69-3,26-4.39,92.79-2.61,104.81s4.87,26,4.87,26-7.87,1.7-21.66.51S166,638.76,166,638.76c.95-.75-.82-2.69-.36-3.54a8.52,8.52,0,0,0,.6-6.6c-1.79-13-1-8.6-.8-16.38s-4.86-33.1-4.11-44.85-3.46-44.9-3.88-55.84-11.4-61.19-10.75-96.49c.56-30.25,16.29-51.94,20.78-57.52.75-.93,1.19-1.42,1.19-1.42l83.05,3.76C263.51,377.41,270.6,407,270.6,407c6.86,39.27,2.49,81,1.95,103.94-.36,14.95-.66,24.24-1.53,55-.45,16-3.87,35.13-4.42,48a29.25,29.25,0,0,0,.35,6.57,28.54,28.54,0,0,1,.25,9.58C266.19,636.68,272,636.27,271.5,638.87Z"/>
          <g>
            <path class="cls-7" d="M254.31,360.57a28.37,28.37,0,0,1-5.39,1.86c-5.86,1.59-17.07,3.66-36.21,4.05-18.25.36-30.33-2.69-37.27-5.34a34,34,0,0,1-7.41-3.66s1.11-10.06,1.95-16.5,4-5.42,4-5.42l2.07.06,68.36,1.85c.59,0,1.15,0,1.68,0,7.31-.05,8.46,2,8.46,2C257.36,349.14,254.31,360.57,254.31,360.57Z"/>
            <g>
              <path class="cls-6" d="M186.43,339.65s-2.32,3.1-3.25,12.53-.33,13.23-.33,13.23,7.86,3.35,12.57,1.58c0,0-.79-16.57,1.66-24.87l-11.34-2.64"/>
              <path class="cls-6" d="M243.23,338.8s2.16,3.2,2.62,12.67-.33,13.24-.33,13.24-8,3-12.64.94c0,0,1.62-16.51-.41-24.92l11.45-2.07"/>
              <path class="cls-6" d="M175.44,361.14a34,34,0,0,1-7.41-3.66s1.11-10.06,1.95-16.5,4-5.42,4-5.42l2.07.06,1.47,3S175.24,345.12,175.44,361.14Z"/>
              <path class="cls-6" d="M253.56,360.87c4.47-8.4,2.61-19.45,1.25-21.27s-5-2.15-7.11-2.23-1.82.93-1.82.93,2.79-.57,3.14,5.91c.29,5.29,0,14.91-.1,18.22Z"/>
            </g>
          </g>
          <polygon class="cls-8" points="167.44 277.07 167.39 278.75 166.62 278.28 167.44 277.07"/>
          <path class="cls-5" d="M258.26,249.93l2,18.5c.6,22.08-3.23,29.56-3.23,29.56s-2.73,13.12-3.43,18-.37,15.09,0,18.89-4.85,5.23-4.85,5.23c-7.15,5-30.5,3.66-47.41,3.24s-27.43-4.05-28.54-5.55a9,9,0,0,0-2-2.09c-1-1.26-1.16-3.22-1-5a49.07,49.07,0,0,0-.45-12.05,234.57,234.57,0,0,0-10.58-39.44l1.07-1.13c7.52-29.34-4.6-46.78-4.6-46.78,6.43-3.83,18.41-8.47,18.41-8.47l.84-15.22,11.14-7.81,35,4.13s3.45.08,6.76,6l1.94,5.31,19.31,5.11"/>
          <path class="cls-9" d="M169.41,281.73c3.38,4.51,8.48,8.19,9.93,13.49a12.85,12.85,0,0,0,.95,3c1.59,2.81,5.79,3.21,9.23,2.91a55.19,55.19,0,0,0,8.48-1.42,18.39,18.39,0,0,0,7.05-3.05c4-3.2,4.87-8.59,5.08-13.49.45-10.83-.74-21.65-1.8-32.44-.56-5.61-1.05-11.42,1-16.7.43-1.07,1.5-3.38,2.74-3.17s1.41,2.62,1.55,3.71c1.71,12.71,4.21,29.51,4.44,42.31.08,5,0,6,0,11,0,3.27-1.75,6.7-2.44,9.91-.59,2.7-1.67,5.28-2.37,8-3,11.57,1.3,23.69.74,35.59a3.08,3.08,0,0,1-.46,1.73c-.69.9-2.14,1-3.32.7a11.21,11.21,0,0,0-3.54-.64,130.72,130.72,0,0,0-1.33-29.63c-.29-1.84-.85-4-2.71-4.76a7.42,7.42,0,0,0-3.75-.13,62.55,62.55,0,0,1-18-.26,5.71,5.71,0,0,1-2.38-.77,5.35,5.35,0,0,1-1.58-2.3,81.52,81.52,0,0,0-11.66-18.51c-1.64-2-3.4-3.9-4.21-6.25-1.3-3.75-.3-9.15,1-12.79,2.16.58,3.35,2.76,4,4.47C167.2,274.89,167.65,279.38,169.41,281.73Z"/>
          <path class="cls-9" d="M162.6,289.8A138.37,138.37,0,0,1,170,322.69c.24,2.64.48,9.81-.06,10.39.63,3.86,7.12,8.16,17.31,8.46-2.37-1.13-7.75-6.16-7.79-8.59-.06-3.85,2.12-8.3,4.09-11.69,1.35-2.31,1-2.88,1.16-5.5a19.36,19.36,0,0,0-3.86-12.62l-12.25-17.61-4.06-2.46-1.93,6.73"/>
          <path class="cls-10" d="M173.69,220.32l7.48,25.41s9.51-21,21-16.19"/>
          <path class="cls-10" d="M229.32,215.35l5.84,19.74c-3.91-9.4-18.79-8.67-18.79-8.67,5.46-10.89,2-18.86,2-18.86"/>
          <path class="cls-10" d="M181.24,208.37s3.31,19.63,30.88,22.52l7-9.13"/>
          <path class="cls-10" d="M212.81,230.91s3,23.25,5,41.27-.4,23.16-3,30.82,1,16.73,1.67,23.21-.08,16.87-.08,16.87"/>
          <path class="cls-5" d="M229.85,288.56l15.34,8.57s9.27-5,11.5-11.22c0,0,1-13.69.78-24.1L227.16,265Z"/>
          <path class="cls-11" d="M238.28,269.38s2.48,18.19,1.63,24.63"/>
          <path class="cls-11" d="M251.28,267.49s3,18.84.07,25.07"/>
          <path class="cls-5" d="M227,264.37l30.83-3.18s2,4.56-.56,8.5c-1.95,3-8.26,9.36-11.17,11.55,0,0-10.33-2.79-17.22-8.95C227.33,270.91,228.32,266.22,227,264.37Z"/>
          <polygon class="cls-5" points="174.73 268.58 177.63 297.5 196.59 306.17 211.38 295.19 209.75 263.46 174.73 268.58"/>
          <polyline class="cls-5" points="209.56 270.87 202.07 277.23 194.21 283.88 175.3 273.48"/>
          <line class="cls-12" x1="204.17" y1="300.05" x2="202.07" y2="277.22"/>
          <line class="cls-12" x1="187.4" y1="279.77" x2="189.26" y2="302.2"/>
          <path class="cls-5" d="M257.47,231.88l-5.89-13.21-21.79-3.73,3.81,13.49S229.29,226,257.47,231.88Z"/>
          <ellipse class="cls-13" cx="237.78" cy="221.47" rx="2.34" ry="3.8" transform="translate(-5.42 436.98) rotate(-84.51)"/>
          <ellipse class="cls-13" cx="248.03" cy="223.12" rx="1.93" ry="3.14" transform="translate(2.21 448.68) rotate(-84.51)"/>
          <path class="cls-14" d="M251.91,231.07s6.8,11.23,8.57,33.13-1.92,30.43-7.17,29.25l-3.06,3.5s4.86,10.21,10,3.19,7.08-23.47,3.95-42.67c-3.16-19.47-7-25-7-25Z"/>
          <path class="cls-15" d="M176.56,292.11s-7.26-6.64-10.2-20.43"/>
          <path class="cls-16" d="M221.13,215.77c-3,11.59-9.35,14.9-9.35,14.9-22.39-2.87-27.61-15-27.61-15,.63-3.8,1-7.05,1.19-9.6.31-4,.24-6.24.24-6.24s35.53-11.71,34.16,1.49a47.32,47.32,0,0,0-.2,10.06C220,215.26,221.13,215.77,221.13,215.77Z"/>
          <path class="cls-17" d="M219.07,211.83c-16.4,6.32-27.67-.7-33.21-5.16a27.44,27.44,0,0,0-.26-6.82s35.53-11.71,34.16,1.49C219.27,206.06,218.82,209.68,219.07,211.83Z"/>
          <g>
            <g>
              <path class="cls-18" d="M148.75,165.15s-10,3.54-10.47,13.19,9.73,16.22,18.28,15.38,15.38-7.39,16.46-13.67-23.35-14.87-23.35-14.87"/>
              <g>
                <path class="cls-19" d="M140.18,185.43s.59-14.38,11.16-18.22"/>
                <path class="cls-19" d="M141.4,187.35s10.44-7.72,14.81-16.76"/>
                <path class="cls-19" d="M144.43,190.48s14.26.77,21.58-15.86"/>
                <path class="cls-19" d="M150.59,192.94s15.51,1.44,21.86-13"/>
                <path class="cls-19" d="M138.83,174.78s6.6,17.09,24.11,17.1"/>
                <path class="cls-19" d="M138.23,178.18s3.82,15.23,21.33,15.25"/>
                <path class="cls-19" d="M142.42,169.62s10.7,14,25.32,18.81"/>
                <path class="cls-19" d="M145.47,167.12s13.05,10.26,25.33,18.81"/>
                <path class="cls-19" d="M140,172.4s10.71,14,25.33,18.81"/>
              </g>
            </g>
            <path class="cls-16" d="M231.46,200.94s-8.21,8-18.35,8.38a49.22,49.22,0,0,1-44.25-24.23,85.29,85.29,0,0,1-8.48-22c-.21-1-.41-2-.57-3L155.14,149s20.23-17.36,51.43-21.31c0,0,18.57-3.22,30.46-2.22a20.52,20.52,0,0,1,7.33,1.69,40.33,40.33,0,0,0-.73,4.22,70.09,70.09,0,0,0-.59,8.26c-.08,4.33-1.78,11.62-.82,17.58C244.91,173.85,244.75,187.56,231.46,200.94Z"/>
            <path class="cls-17" d="M243,139.66l-.39.4a16.15,16.15,0,0,0-13.06-9.46c-33.36.74-63.29,16.54-63.29,16.54-3.4,4.8-3.05,18.21-3.05,18.21l0,.64-2.85-2.85c-.21-1-.41-2-.57-3L155.14,149s20.23-17.36,51.43-21.31c0,0,18.57-3.22,30.46-2.22l6.6,5.91A70.09,70.09,0,0,0,243,139.66Z"/>
            <path class="cls-20" d="M252.71,117.61c.74,4.91,1.28,7.6-5.47,11.69-2.86,1.74-10.56-5.42-14.75-4.47-9.31,2.13-21.26,2.55-32.44,5.66s-21.59,8.91-31.36,10.57c-11.61,2-14.72,15.08-19.54,15-19.07-.48-9.32-19.61,1.22-35,20.26-29.61,37.2-45.92,56.27-45.45S250.25,101.31,252.71,117.61Z"/>
            <path d="M204.73,146.61a20.57,20.57,0,0,0-4.85-4.37,14.24,14.24,0,0,0-9.41-2.46,32.85,32.85,0,0,0-3.44.35,20.05,20.05,0,0,0-3.35.85,7.17,7.17,0,0,0-2.94,1.8,7.28,7.28,0,0,1,2.73-2.27,20.19,20.19,0,0,1,3.32-1.38,34.26,34.26,0,0,1,3.49-.88A13.76,13.76,0,0,1,194,138a17.37,17.37,0,0,1,7.13,2.14,23.87,23.87,0,0,1,3.13,2,22.21,22.21,0,0,1,2.81,2.56Z"/>
            <path d="M222.12,142.41a16.59,16.59,0,0,1,2.41-1.64,20,20,0,0,1,2.56-1.21,14.53,14.53,0,0,1,5.53-1,11.53,11.53,0,0,1,5.3,1.4,14.07,14.07,0,0,1,2.26,1.46c.7.55,1.3,1.21,1.95,1.8-.73-.5-1.41-1.06-2.16-1.49a12.75,12.75,0,0,0-2.35-1.08,10.39,10.39,0,0,0-5-.59,12.44,12.44,0,0,0-4.64,1.52A15.77,15.77,0,0,0,226,143a13,13,0,0,0-1.75,1.59Z"/>
            <g>
              <path class="cls-21" d="M197.89,182.75s8,13.51,16.48,14.2S228.76,182,228.76,182,219.66,186.94,197.89,182.75Z"/>
              <path class="cls-22" d="M198.88,183.32s7,9.83,15.51,10.52,14.66-12.29,14.66-12.29S221.47,189.87,198.88,183.32Z"/>
              <path class="cls-23" d="M200.78,183.68s3.06,4.89,8.32,5.57,10.53,1.29,14.9-2.15l3.37-4.09A31.47,31.47,0,0,1,200.78,183.68Z"/>
              <path class="cls-21" d="M197.89,182.75s10.86,2.63,17.42,2.24,11.67-.73,14-4c0,0-3.79,6-15.16,5.53S197.89,182.75,197.89,182.75Z"/>
              <path class="cls-24" d="M207.52,191.31a6.5,6.5,0,0,1,5.88-.18s4-1.4,7.44.74C220.84,191.87,215.12,196.78,207.52,191.31Z"/>
              <path class="cls-25" d="M198.29,181.26s-2.55.25-1.26,3A3.34,3.34,0,0,1,198.29,181.26Z"/>
              <path class="cls-25" d="M229.48,182.69s1.83-1.55-1.11-3C228.37,179.67,230,181.12,229.48,182.69Z"/>
            </g>
            <g>
              <path class="cls-26" d="M220.3,154.43s-1.92,5.45,1.88,12.13c.28.5.57,1,.82,1.53l.71,1.51a3.6,3.6,0,0,1-1.77,4.81l-.1.05c-3.36,1.61-7.61,1-9-2.51"/>
              <path class="cls-27" d="M220.33,154.44a14.86,14.86,0,0,0,.29,7.91,17.34,17.34,0,0,0,1.55,3.66c.31.59.68,1.16,1,1.77l.89,1.83a3.88,3.88,0,0,1-.62,4.15,4.45,4.45,0,0,1-1.79,1.21,8.45,8.45,0,0,1-2,.57,7.77,7.77,0,0,1-2.1.05,5.7,5.7,0,0,1-2-.57,5.27,5.27,0,0,1-1.67-1.25,5.43,5.43,0,0,1-1-1.8l.07,0a5.6,5.6,0,0,0,1.14,1.61,4.87,4.87,0,0,0,1.63,1,6.83,6.83,0,0,0,3.8.27,9.15,9.15,0,0,0,1.84-.58,4,4,0,0,0,1.52-1,3.21,3.21,0,0,0,.62-3.39c-.25-.6-.55-1.23-.82-1.83s-.63-1.16-.93-1.78a18.48,18.48,0,0,1-1.48-3.8,15,15,0,0,1,0-8Z"/>
            </g>
            <path class="cls-18" d="M165.07,143.38s-5.25,12-1.64,24.13l-11-16Z"/>
            <path class="cls-28" d="M148.72,152.38a20.32,20.32,0,0,1,1.27-5.22c.3-.85.66-1.68,1-2.52s.78-1.63,1.21-2.43.87-1.6,1.33-2.38a16.28,16.28,0,0,1,1.78-2c1.24-1.29,2.45-2.6,3.77-3.8a97.6,97.6,0,0,1,8.12-6.84l4.3-3.07,4.42-2.89-.32.24c.79-.67,1.46-1.15,2.2-1.69s1.46-1,2.21-1.47c1.48-.94,3-1.81,4.56-2.62a67.64,67.64,0,0,1,9.66-4.07A70.8,70.8,0,0,1,214.8,108a74,74,0,0,1,10.42.49,48.23,48.23,0,0,1,5.25.86,49.3,49.3,0,0,1,5.23,1.55,13.66,13.66,0,0,1,2.43,1.38,23.28,23.28,0,0,1,2.22,1.74,16.11,16.11,0,0,1,3.52,4.41,13.15,13.15,0,0,1,.9,10.42,12.56,12.56,0,0,0-3.23-8.82,13.43,13.43,0,0,0-3.56-2.72,22.38,22.38,0,0,0-2.06-.93l-1.07-.36a7.53,7.53,0,0,1-1.07-.38,31.69,31.69,0,0,0-9.13-2.18,68.78,68.78,0,0,0-9.73-.46,65.87,65.87,0,0,0-19.09,3.32,63.82,63.82,0,0,0-8.94,3.77q-2.14,1.11-4.19,2.4c-.67.43-1.34.87-2,1.33s-1.32,1-1.81,1.38l-.14.12-.18.12-4.24,2.77-4.11,2.94a92,92,0,0,0-7.69,6.47c-1.24,1.13-2.37,2.35-3.52,3.54a13.9,13.9,0,0,1-1.64,1.87c-.64.54-1.26,1.09-1.9,1.65A39.94,39.94,0,0,0,148.72,152.38Z"/>
            <ellipse class="cls-29" cx="206.97" cy="98.84" rx="8" ry="6.97" transform="translate(103.01 303.29) rotate(-88.57)"/>
            <path class="cls-30" d="M153.4,153.81s11.16-13.28,55.51-23c0,0,20.92-3.16,35.37-.8,0,0-.42-6-2.93-7.17-4.42-2.06-66.42,3.65-91.66,27.61C149.69,150.46,148.31,154.74,153.4,153.81Z"/>
            <path class="cls-18" d="M230.14,129s12.21,2.2,12.8,13.25l4.3-13A59.4,59.4,0,0,0,230.14,129Z"/>
            <g>
              <g>
                <path class="cls-26" d="M161.05,161.36s-2.72-6.58-7.61-8.81-11.68,6.44-4.89,15.75,16.82,13.77,17.1,7.15"/>
                <path class="cls-27" d="M161,161.37a22.15,22.15,0,0,0-3.83-5.82,12.36,12.36,0,0,0-2.66-2.23,6.79,6.79,0,0,0-.75-.41,5.35,5.35,0,0,0-.78-.35,3.9,3.9,0,0,0-1.66-.14,5.16,5.16,0,0,0-2.94,1.55,7.86,7.86,0,0,0-1.82,2.85,10.41,10.41,0,0,0-.09,6.73,17,17,0,0,0,3.44,5.92,33.52,33.52,0,0,0,4.88,4.94,19.62,19.62,0,0,0,5.87,3.58,4.92,4.92,0,0,0,3.29.2,2.26,2.26,0,0,0,1.2-1.08,4.45,4.45,0,0,0,.45-1.66h.08a4.62,4.62,0,0,1-.34,1.75,2.57,2.57,0,0,1-1.26,1.3,5.3,5.3,0,0,1-3.58,0,19.74,19.74,0,0,1-6.19-3.5,34.39,34.39,0,0,1-5-5.05,17.77,17.77,0,0,1-3.45-6.22,11,11,0,0,1,.21-7.07,8.45,8.45,0,0,1,2-3,5.62,5.62,0,0,1,3.19-1.61,4.25,4.25,0,0,1,1.81.19,4.11,4.11,0,0,1,.82.38,6.47,6.47,0,0,1,.77.45,12.63,12.63,0,0,1,2.67,2.33,22.33,22.33,0,0,1,3.73,5.95Z"/>
              </g>
              <path class="cls-31" d="M149.55,161.29a12.54,12.54,0,0,1,2.06-3.48l0-.06.08,0a4.19,4.19,0,0,1,3,.42A7,7,0,0,1,157,160a8.73,8.73,0,0,1,2,5.54v.76l-.7-.31a3,3,0,0,0-1.71-.26,1.34,1.34,0,0,0-1.11.91c-.13.43.14.83.69,1a4.4,4.4,0,0,0,1.85.17,9.42,9.42,0,0,1,1.07,0,2,2,0,0,1,1.16.4,2.19,2.19,0,0,1,.64,2.18,2.35,2.35,0,0,1-1.46,1.6,2.65,2.65,0,0,1-2.07-.06,2.75,2.75,0,0,0,2-.19,2,2,0,0,0,1.07-1.46,1.59,1.59,0,0,0-.54-1.56c-.4-.3-1.09-.18-1.77-.11a4.75,4.75,0,0,1-2.23-.12,2.19,2.19,0,0,1-1-.75,1.62,1.62,0,0,1-.26-1.36,2.31,2.31,0,0,1,1.85-1.64,3.78,3.78,0,0,1,2.31.32l-.7.45a8.28,8.28,0,0,0-1.7-5,6.9,6.9,0,0,0-1.95-1.82,3.66,3.66,0,0,0-2.53-.54l.13-.07A14.42,14.42,0,0,0,149.55,161.29Z"/>
              <ellipse class="cls-32" cx="162.37" cy="175.11" rx="2.57" ry="2.82" transform="translate(-16.72 333.07) rotate(-88.57)"/>
            </g>
            <path class="cls-33" d="M204.81,159c-.14,5.6-5,8.09-11.08,7.94s-11-2.89-10.85-8.48,5.17-10,11.22-9.85S205,153.43,204.81,159Z"/>
            <g>
              <ellipse class="cls-34" cx="192.89" cy="157.65" rx="5.55" ry="6.01" transform="translate(30.48 346.55) rotate(-88.57)"/>
              <ellipse class="cls-35" cx="196.37" cy="154.66" rx="1.4" ry="1.52" transform="translate(36.86 347.11) rotate(-88.57)"/>
            </g>
            <path class="cls-33" d="M240,158.36c-.13,5.35-4.28,7.54-9.46,7.41s-9.43-2.53-9.3-7.88a9.39,9.39,0,1,1,18.76.47Z"/>
            <g>
              <ellipse class="cls-34" cx="229.82" cy="157.95" rx="5.33" ry="5.35" transform="translate(66.19 383.77) rotate(-88.57)"/>
              <ellipse class="cls-35" cx="232.92" cy="155.07" rx="1.34" ry="1.35" transform="translate(72.1 384.06) rotate(-88.57)"/>
            </g>
            <path class="cls-18" d="M245.68,129.58s6.88,11.28-3.76,22.37l1.32-14.87"/>
          </g>
          <path class="cls-14" d="M198.38,255a138.18,138.18,0,0,0-21,3.76c-.43,1.27.29,4.35.65,5.57,8.37-1.6,18.55-2.94,27-4.08,1.42,0,1.37-2.87.7-4,.05-2.54-2-1.88-3.69-1.56-.61.09-1.44.09-2.05.16Z"/>
          <path class="cls-9" d="M244.6,644.2c-5.32-1.36-9.17-3.51-9-4.76.3-2.72,5.15-3.24,5.15-3.24l-.47-.3a6.81,6.81,0,0,1-3.25-6.31,248.45,248.45,0,0,0,.26-39.5c-1-16.62-6.39-57.75-10.18-72.13s-13.59-73.7-15.39-84.46-3.54-6.19-3.54-6.19-.09,1.06-.26,2.94a100.19,100.19,0,0,1,.46-11.28c1.24-12.4,9.24,3.34,15.51,51.38S237,529.13,240.13,565.9a532.18,532.18,0,0,1,1.44,66.88l5.11,7S236.64,638.56,244.6,644.2Z"/>
          <path class="cls-9" d="M172.66,640.61s-.21-1.06-5.6-1.2c0,0-.89-3.72-.93-3.73,1.83-3.33,1.47-4.79,1.47-4.79-2.14-8.13-1.93-9.28-1.74-17s-5.26-34.7-4.51-46.45-3.06-46.1-3.48-57-11.8-60-11.15-95.29c.56-30.25,16.29-51.94,20.78-57.52l5.91,3.25s-10.93,26.91-6.35,93.09c4.53,65.4,4.4,83.18,3.47,103.89s2.92,50.93,2.92,50.93Z"/>
          <g>
            <path class="cls-36" d="M239.28,362.73a17.69,17.69,0,0,0,.64,5.55,25,25,0,0,0,.84,2.67c.32.88.75,1.71,1.11,2.57a35.46,35.46,0,0,0,6.54,9,67.65,67.65,0,0,0,8.55,7.19l4.65,3.14c1.61,1,3.22,1.93,4.8,3l0,.09c-1.72-.78-3.42-1.61-5.11-2.45s-3.25-1.94-4.87-2.92c-1.51-1.15-3.09-2.21-4.5-3.48l-2.1-1.93c-.71-.62-1.3-1.37-2-2.05a36.36,36.36,0,0,1-6.41-9.36c-.34-.88-.74-1.74-1-2.65a25.66,25.66,0,0,1-.76-2.73,18.15,18.15,0,0,1-.44-5.64Z"/>
            <path class="cls-36" d="M179.2,361.22a38,38,0,0,1-.7,14,32.9,32.9,0,0,1-6.07,12.7,31,31,0,0,1-4.94,5.1,14.84,14.84,0,0,1-1.41,1.1c-.48.34-1,.71-1.45,1-1,.61-2,1.27-3.08,1.78a43.88,43.88,0,0,1-13.44,4.24l0-.1a57.91,57.91,0,0,0,13-5,38.81,38.81,0,0,0,5.78-3.78,30.57,30.57,0,0,0,4.95-4.83A32.51,32.51,0,0,0,178,375.1a38.13,38.13,0,0,0,1.09-13.87Z"/>
            <path class="cls-36" d="M203.67,368.56l-.18,18.81-.1,9.4c0,3.14-.09,6.27-.26,9.4l-.09-.29c1,1.31,2,2.61,2.9,3.95s1.89,2.66,2.81,4l-.08.06q-1.65-1.83-3.22-3.7c-1.06-1.24-2.09-2.51-3.13-3.77l-.09-.12v-.17c0-3.14.08-6.27.21-9.4l.37-9.4.76-18.79Z"/>
            <path class="cls-36" d="M218.17,368.92q.09,7.09.11,14.19c0,2.36.09,4.73,0,7.09s-.24,4.73-.57,7.08h-.1c-.25-2.37-.28-4.73-.33-7.1s.13-4.72.22-7.08q.26-7.1.59-14.18Z"/>
          </g>
          <path class="cls-5" d="M149,232.05s-8,7.7-15.54,36.12S125,332,125,332s.23,15.55,25.29,57.84l22.14-15s.57-2.71-5.38-13.74c-10.35-19.22-13.17-40.21-13.17-40.21l10.26-37.67S173.94,242.18,149,232.05Z"/>
          <path class="cls-5" d="M153.89,320.91s-10.47-4-14.36,2.13"/>
          <path class="cls-16" d="M170.24,376.05l1.35,3.78S168.54,394,156.31,398.4l-4.1-10.06Z"/>
          <g>
            <path class="cls-37" d="M308.3,301.54l115.91-131.4c.83-1-5.33-11.2-6.15-10.21L302.15,296.38,269.3,335s1.22,5.21,6.18,5.95Z"/>
            <g>
              <path class="cls-16" d="M311.8,284.88a11.73,11.73,0,0,1-3-10.35,15.33,15.33,0,0,1,6.67-9.21L322.61,276Z"/>
              <path class="cls-16" d="M320.53,266.5s-.08-6.38-1.6-9.45c0,0-2.6-3.41-5.49,1.29S311,268.55,313,274"/>
              <g>
                <path class="cls-16" d="M312.19,296.69a5.82,5.82,0,0,0,6.47,1c3.86-1.7,6.94-6.1,6.94-6.1s6.28-6.39,7.79-7.45a19.9,19.9,0,0,0,4.34-3.14,5.4,5.4,0,0,0-.25-7.9l-.09-.07a16.56,16.56,0,0,0-8.86-10.54s-4.22-3-7.26.08a4.13,4.13,0,0,0-1.14,4.25s-1.84-.71-4.32,4.06l.21,1-1.2-.19a11,11,0,0,0-3.88,5.53l.06,1s-2.24.86-5,4.86,1.21,7.06,1.21,7.06l4.55-5.24s3.36-.42,6.35,4.92"/>
                <path class="cls-16" d="M319.35,266.84s1.72-.4,9,5.36c5.44,4.28,4.39,8.82,4.39,8.82"/>
                <path class="cls-16" d="M316,271.9s7.25,2,11.66,12"/>
                <path class="cls-16" d="M311,278.25l.91.39a24.84,24.84,0,0,1,10.7,8.94h0l.39,2.25"/>
              </g>
            </g>
          </g>
          <path class="cls-5" d="M293.4,287.08s-7.75-2.22-10.61,14"/>
          <path class="cls-38" d="M134.6,263l7.17,3.49-5,19.15-7.58,5S127.44,275.9,134.6,263Z"/>
          <path class="cls-5" d="M177.07,233.33a34.75,34.75,0,0,0-11,3.17,29.74,29.74,0,0,0-8.27,5.49l-1.48,1.38s-4.19-7.14-7.37-11.32c0,0,6.13-7.1,24.68-10.53h0Z"/>
          <ellipse class="cls-13" cx="170.43" cy="226.24" rx="3.58" ry="2.23" transform="translate(-48.21 46.16) rotate(-13.53)"/>
          <ellipse class="cls-13" cx="159.89" cy="230.61" rx="3.66" ry="2.28" transform="translate(-49.52 43.81) rotate(-13.53)"/>
          <path class="cls-39" d="M201.37,343.39v23.36l2.78.42a68.51,68.51,0,0,0,24.31-.74l1.44-.3-.1-22.65S214.48,343.23,201.37,343.39Z"/>
        </g>
        <g>
          <path class="cls-16" d="M170.31,376.9l2.38,1.2A36.75,36.75,0,0,1,187,391c1.84,2.86,4.12,6.53,6.83,11.17,0,0,1.5,7.46-12.25-2.46-.43-.31-.21-.48,0,0,1.51,3.42,6.48,11.33,11.81,18,0,0,2,8.24-5.27,6,0,0-.66,6.79-7.9,1.13,0,0-.88,5.38-7.46.28,0,0,.22,3.87-7-2.63s-12.49-31.93-12.49-31.93"/>
          <g>
            <path class="cls-26" d="M188.16,423.64s-5.12-3.57-11.27-16.15"/>
            <path class="cls-27" d="M188,423.94a22.52,22.52,0,0,1-3.47-3.65,46.06,46.06,0,0,1-2.87-4.08c-.89-1.39-1.7-2.83-2.5-4.28L178,409.72l-1.08-2.23,1.16,2.19,1.22,2.15c.85,1.42,1.71,2.83,2.66,4.18a43.94,43.94,0,0,0,3,3.92,22.73,22.73,0,0,0,3.47,3.4Z"/>
          </g>
          <g>
            <path class="cls-26" d="M181.28,425.34s-4.82-3.22-9.22-15.66"/>
            <path class="cls-27" d="M181.08,425.65a16.91,16.91,0,0,1-3.13-3.5,33.28,33.28,0,0,1-2.37-4c-.72-1.36-1.33-2.77-1.93-4.18l-.83-2.15-.76-2.17.85,2.14.91,2.1c.65,1.39,1.32,2.76,2.09,4.08a32.47,32.47,0,0,0,2.5,3.81,16.29,16.29,0,0,0,3.08,3.22Z"/>
          </g>
          <g>
            <path class="cls-26" d="M173.53,425.2s-4.25-1.76-8.05-14.2"/>
            <path class="cls-27" d="M173.38,425.54a9.78,9.78,0,0,1-3-3.07,26.26,26.26,0,0,1-2.06-3.65c-.59-1.26-1.1-2.55-1.57-3.86s-.87-2.63-1.26-4c.45,1.31.91,2.61,1.43,3.9s1.1,2.53,1.74,3.75a26.47,26.47,0,0,0,2.17,3.49,15.16,15.16,0,0,0,1.33,1.54,6.66,6.66,0,0,0,1.52,1.17Z"/>
          </g>
        </g>
      </g>
    </g>
  </g>
</svg>
