<svg id="Layer_1" data-name="Layer 1" xmlns="http://www.w3.org/2000/svg" xmlns:xlink="http://www.w3.org/1999/xlink" width="475" height="512" viewBox="0 0 475 512">
  <defs>
    <style>
      .cls-1 {
        fill: none;
      }

      .cls-2 {
        fill: #32223f;
      }

      .cls-3 {
        fill: #9edbd5;
        stroke: #6f31f7;
        stroke-width: 9px;
      }

      .cls-12, .cls-15, .cls-3 {
        stroke-miterlimit: 10;
      }

      .cls-4 {
        clip-path: url(#clip-path);
      }

      .cls-5 {
        fill: #53622b;
      }

      .cls-6 {
        fill: #f05638;
      }

      .cls-7 {
        fill: #d94e32;
      }

      .cls-8 {
        fill: #cf4a2e;
      }

      .cls-9 {
        fill: #fff;
      }

      .cls-10 {
        fill: #47140f;
      }

      .cls-11 {
        fill: #79b543;
      }

      .cls-12, .cls-25 {
        fill: #f9dad2;
      }

      .cls-12 {
        stroke: #755339;
      }

      .cls-13 {
        fill: #c4b8bb;
      }

      .cls-14 {
        fill: #755339;
      }

      .cls-15, .cls-38 {
        fill: #8e8e34;
      }

      .cls-15 {
        stroke: #3f2717;
      }

      .cls-16 {
        fill: #b26b51;
      }

      .cls-17 {
        fill: #342517;
      }

      .cls-18 {
        fill: #381515;
      }

      .cls-19 {
        fill: #2b1c1c;
      }

      .cls-20 {
        fill: #a84545;
      }

      .cls-21 {
        fill: #f4a198;
      }

      .cls-22 {
        fill: #681c1c;
      }

      .cls-23 {
        fill: #f97a98;
      }

      .cls-24 {
        fill: #a1c5ce;
      }

      .cls-26 {
        fill: #773823;
      }

      .cls-27 {
        fill: #99922c;
      }

      .cls-28 {
        fill: #b1a927;
      }

      .cls-29 {
        fill: #945a3c;
      }

      .cls-30 {
        fill: #67a944;
      }

      .cls-31 {
        fill: #7bbc43;
      }

      .cls-32 {
        fill: #88c140;
      }

      .cls-33 {
        fill: #acd15f;
      }

      .cls-34 {
        fill: #653f18;
      }

      .cls-35 {
        fill: #2b8ecd;
      }

      .cls-36 {
        fill: #ffda00;
      }

      .cls-37 {
        fill: #ef67a5;
      }

      .cls-39 {
        fill: #3f2717;
      }
    </style>
    <clipPath id="clip-path">
      <path class="cls-1" d="M303.49,39.41h-132A93.79,93.79,0,0,0,90.29,86.3l-66,114.31a93.79,93.79,0,0,0,0,93.78l66,114.31a93.79,93.79,0,0,0,81.22,46.89h132a93.79,93.79,0,0,0,81.22-46.89l66-114.31a93.79,93.79,0,0,0,0-93.78l-66-114.31A93.79,93.79,0,0,0,303.49,39.41Z"/>
    </clipPath>
  </defs>
  <g>
    <g>
      <path class="cls-2" d="M306.76,50.75H168.24A93.78,93.78,0,0,0,87,97.65l-69.26,120a93.79,93.79,0,0,0,0,93.78L87,431.35a93.78,93.78,0,0,0,81.22,46.9H306.76A93.78,93.78,0,0,0,388,431.35l69.26-120a93.79,93.79,0,0,0,0-93.78L388,97.65A93.78,93.78,0,0,0,306.76,50.75Z"/>
      <path class="cls-3" d="M306.76,33.75H168.24A93.78,93.78,0,0,0,87,80.65l-69.26,120a93.79,93.79,0,0,0,0,93.78L87,414.35a93.78,93.78,0,0,0,81.22,46.9H306.76A93.78,93.78,0,0,0,388,414.35l69.26-120a93.79,93.79,0,0,0,0-93.78L388,80.65A93.78,93.78,0,0,0,306.76,33.75Z"/>
    </g>
    <g class="cls-4">
      <g>
        <g>
          <path class="cls-5" d="M410.35,525a.91.91,0,0,0,1.07-.49c8.22-17.89,17-72.8,10.14-85.13a.9.9,0,0,0-1.58.87c6.49,11.71-2.32,66.35-10.19,83.51a.88.88,0,0,0,.44,1.19Z"/>
          <g>
            <path class="cls-6" d="M404.88,468.15c8,4.07,14.26-1,18.31-7.8,3.55-6.2,5.13-13.59,1.56-15.82-3.42-2.57-13,.82-18.85,6.26C399.3,456.56,396.65,465,404.88,468.15Z"/>
            <path class="cls-7" d="M425.78,423.52c-10.95-.36-13.09,4.61-11.94,9.43,1.31,5.3,6.38,10.37,10.47,10.94,4.22,0,10-4.24,12-9.31C438.12,430,436.66,424.73,425.78,423.52Z"/>
            <path class="cls-6" d="M392.24,441.76c-3,8.35,5.05,8.07,13.68,7.25,8.51-1.16,17.44-2.81,19-5.7s-4.65-8.53-12.44-9.93C405,431.74,395,434.18,392.24,441.76Z"/>
            <path class="cls-8" d="M442.39,470.55c8.51-1.92,6.7-10.81.71-17.45-5.31-6.22-14.46-10.79-18-8.76-3.86,1.81-3,9.32-.1,15.94C428.35,467.53,434,473.45,442.39,470.55Z"/>
            <path class="cls-6" d="M455.9,442.45c-3.85-8.11-13.21-10.23-20-8.55-7.21,1.51-12.5,7.21-10.72,9.92,2,3,11,5,19.22,6.37C452.61,451.17,459.92,451.44,455.9,442.45Z"/>
            <g>
              <path class="cls-9" d="M424.19,443.54l.29,0c.19-1.58.4-3.12.6-4.65l-.29,0C424.59,440.41,424.39,442,424.19,443.54Z"/>
              <path class="cls-9" d="M429.87,440.73l-.17-.16c-1.68.95-3.31,2-4.95,3a1,1,0,0,1,.19.17C426.58,442.69,428.23,441.69,429.87,440.73Z"/>
              <path class="cls-9" d="M425.18,444c2,.08,4.08.27,6.12.5,0-.08,0-.15,0-.21-2.05-.24-4.08-.41-6.12-.51A1.62,1.62,0,0,0,425.18,444Z"/>
              <path class="cls-9" d="M424.7,444.45c1.51,1.2,3,2.44,4.5,3.74l.19-.14c-1.49-1.29-3-2.54-4.5-3.73Z"/>
              <path class="cls-9" d="M423.77,449.14l.26,0c.16-1.46.32-2.9.47-4.33l-.28,0C424.06,446.23,423.91,447.68,423.77,449.14Z"/>
              <path class="cls-9" d="M418.81,447c.05,0,.1.12.16.16,1.61-.77,3.21-1.53,4.83-2.21,0-.06-.1-.11-.14-.17C422,445.46,420.41,446.21,418.81,447Z"/>
              <path class="cls-9" d="M423.3,443.82c-2-.11-4.06-.15-6.11-.15,0,.07,0,.13,0,.19q3.07,0,6.11.19A2,2,0,0,1,423.3,443.82Z"/>
              <path class="cls-9" d="M419.26,440.31c1.5,1.06,3,2.18,4.47,3.36l.2-.14c-1.46-1.16-2.95-2.29-4.47-3.35A1.13,1.13,0,0,0,419.26,440.31Z"/>
            </g>
            <path class="cls-9" d="M429.61,444.46c-.2,2.17-2.72,3.61-5.61,3.39s-5.15-2-5-4.17,2.64-3.78,5.6-3.56S429.8,442.35,429.61,444.46Z"/>
            <path class="cls-10" d="M427.29,444.2c-.12,1.19-1.52,2-3.15,1.91s-2.91-1.16-2.82-2.37,1.5-2.1,3.15-2S427.38,443,427.29,444.2Z"/>
            <path class="cls-10" d="M424.93,439.68c-.69,0-1.26-.44-1.24-.92s.58-.85,1.28-.81,1.23.47,1.22.93S425.62,439.71,424.93,439.68Z"/>
            <path class="cls-10" d="M429.16,441a.49.49,0,0,1,0-.86,1.17,1.17,0,0,1,1.24.11.51.51,0,0,1,0,.87A1.17,1.17,0,0,1,429.16,441Z"/>
            <path class="cls-10" d="M430.25,444.31c0-.37.44-.67,1-.6s1,.42,1,.82-.43.66-1,.61A1,1,0,0,1,430.25,444.31Z"/>
            <path class="cls-10" d="M428.41,447.4a1.5,1.5,0,0,1,1.75.13.8.8,0,0,1,0,1.33,1.53,1.53,0,0,1-1.75-.13A.79.79,0,0,1,428.41,447.4Z"/>
            <path class="cls-10" d="M423.88,448.32a.8.8,0,0,1,.89.67c0,.38-.35.67-.83.67s-.89-.31-.9-.66A.75.75,0,0,1,423.88,448.32Z"/>
            <path class="cls-10" d="M419.57,446.73a.52.52,0,0,1,.05.88,1,1,0,0,1-1.15.06.52.52,0,0,1-.06-.87A1,1,0,0,1,419.57,446.73Z"/>
            <path class="cls-10" d="M418.27,443.68c.05.42-.4.82-1,.87s-1.12-.25-1.16-.68.41-.82,1-.88S418.24,443.25,418.27,443.68Z"/>
            <path class="cls-10" d="M420,440.47a1.43,1.43,0,0,1-1.48.09.57.57,0,0,1-.1-1,1.34,1.34,0,0,1,1.45-.11A.59.59,0,0,1,420,440.47Z"/>
          </g>
        </g>
        <path class="cls-11" d="M175.15,536.09s8.61-11.44,21.42-13.91c-15.12.45-19,4.32-24.26,9.88,4.37-16.39,28.31-45,28.31-45s-28.14,9.89-33.85,44.23c-3.44-22.1-31-36.82-31-36.82s25.95,27.23,25.26,37c-11.87-13-31.72-6.16-31.72-6.16s26.78,1.63,28.24,11.55C168.19,538.67,175.15,536.09,175.15,536.09Z"/>
        <path class="cls-12" d="M95.85,414.4S89.29,534.78,76.78,580.07c0,0,29.2,11.94,58.4,11.35s38.14-9,4.76-16.71l-35.75-7.15s22.64-90,25.62-134.09"/>
        <path class="cls-12" d="M35.66,424.53S29.1,544.91,16.59,590.2c0,0,29.2,11.94,58.4,11.35,21.19-.44,27.11-2.26,22.64-11.5C96,586.6,88.91,587,79.76,584.84L44,577.69S67.47,483.4,70.45,439.3"/>
        <g>
          <g>
            <path class="cls-13" d="M147.62,445s-6.14,10.9-22.35,17.1a63.21,63.21,0,0,1-16.64,3.8c-2.17.22-4.44.35-6.82.37-34,.33-62.18-11.13-76.58-18.65s-8.84-12.11-2-36.65,6.87-52,6.87-52L40,363.85l69.38-1.31s26.5,14.72,28.15,31.41S147.62,445,147.62,445Z"/>
            <path class="cls-14" d="M147.67,445a32.22,32.22,0,0,1-4.38,5.6,46.54,46.54,0,0,1-5.28,4.73,51.84,51.84,0,0,1-12.38,6.91,61.44,61.44,0,0,1-13.73,3.59c-1.17.17-2.35.32-3.53.42l-3.55.2c-1.18.05-2.37.16-3.55.16l-3.55,0a159.56,159.56,0,0,1-55.4-10.95q-6.62-2.56-13-5.65c-1.07-.51-2.12-1.05-3.17-1.59S24,447.31,23,446.7a17.56,17.56,0,0,1-5.46-4.58,8.28,8.28,0,0,1-1.4-3.32,12.35,12.35,0,0,1-.05-3.59,41.6,41.6,0,0,1,1.64-6.91c1.41-4.51,2.9-9,4.21-13.52s2.49-9.09,3.46-13.71,1.69-9.27,2.32-13.94a237.61,237.61,0,0,0,2-28.19v-.61l.55.27,9.84,4.86-.2,0,34.69-.73,34.69-.65h.14l.11.07a94.94,94.94,0,0,1,10,6.68,74.59,74.59,0,0,1,9,8,41.14,41.14,0,0,1,7.07,9.74,22.24,22.24,0,0,1,2,5.73c.35,2,.46,4,.75,6,1.06,7.88,2.59,15.7,4.19,23.5S145.83,437.22,147.67,445Zm-.1,0c-1.95-7.69-3.81-15.46-5.51-23.24s-3.28-15.6-4.42-23.51c-.3-2-.44-4-.79-5.89a20.85,20.85,0,0,0-2-5.51,39.72,39.72,0,0,0-7-9.47,78.16,78.16,0,0,0-8.93-7.81,93.53,93.53,0,0,0-9.87-6.58l.25.06-34.68.65L40,364.28h-.11l-.09,0L30,359.29l.56-.35a240.6,240.6,0,0,1-2.25,28.26c-.66,4.68-1.43,9.34-2.41,14s-2.16,9.21-3.55,13.72-2.88,9-4.23,13.52a40.53,40.53,0,0,0-1.56,6.86,11.46,11.46,0,0,0,.07,3.46,7.78,7.78,0,0,0,1.35,3.14,17,17,0,0,0,5.34,4.4c2,1.16,4.16,2.2,6.28,3.22,4.26,2,8.6,3.86,13,5.53s8.89,3.12,13.42,4.43,9.1,2.43,13.73,3.29c2.3.5,4.63.83,7,1.24s4.66.66,7,1c4.68.48,9.38.86,14.09.92l3.53.06c1.17,0,2.34-.1,3.52-.14l3.52-.18c1.17-.08,2.34-.22,3.5-.38a61.55,61.55,0,0,0,13.63-3.46,54.72,54.72,0,0,0,12.35-6.71,45.91,45.91,0,0,0,5.34-4.6A33,33,0,0,0,147.57,445Z"/>
          </g>
          <g>
            <path class="cls-13" d="M108.63,465.91a63.21,63.21,0,0,0,16.64-3.8"/>
            <path class="cls-14" d="M108.62,465.86a18.79,18.79,0,0,1,4.19-.9c.71,0,1.44,0,2.14-.11a9.86,9.86,0,0,0,2.07-.54c1.34-.51,2.69-.92,4-1.33a35.38,35.38,0,0,1,4.19-.91l0,.09a16.5,16.5,0,0,1-3.92,1.84,21,21,0,0,1-4.23.84,15.22,15.22,0,0,0-2.13.33c-.69.17-1.37.43-2.07.62a12.22,12.22,0,0,1-4.31.17Z"/>
          </g>
          <g>
            <path class="cls-13" d="M125.27,462.11a63.21,63.21,0,0,1-16.64,3.8c3.28-2.05,7-6.61,6.26-16.65-1.31-17.35-7.2-59.56-7.2-59.56l6.87-16c8.18-1.31,5.24,9.16,5.24,9.16l-1.64,1.3s3.27,10.81,6.22,39.93C126.83,448.31,128.83,454.63,125.27,462.11Z"/>
            <path class="cls-14" d="M125.31,462.15c-1.36.55-2.68,1-4,1.46s-2.74.82-4.14,1.16a65.3,65.3,0,0,1-8.46,1.45l-1.31.14,1.12-.7a13,13,0,0,0,5.35-7.69,26.6,26.6,0,0,0,.56-9.63c-.58-6.52-1.29-13-2-19.56s-1.43-13-2.26-19.55-1.7-13-2.64-19.5v-.06l0-.05,6.73-16.09.07-.18.2,0a6.28,6.28,0,0,1,3.45.24,4.13,4.13,0,0,1,2.36,2.61,9.54,9.54,0,0,1,.42,3.42,16.05,16.05,0,0,1-.5,3.36l0,.14-.12.09-1.64,1.32.16-.5c.9,3.22,1.54,6.43,2.16,9.68s1.16,6.49,1.62,9.75q1.41,9.78,2.37,19.61c.6,6.55,1.32,13.08,2,19.62a98.51,98.51,0,0,1,.65,9.87A21.07,21.07,0,0,1,125.31,462.15Zm-.07-.07a19.88,19.88,0,0,0,1.43-4.67,24.12,24.12,0,0,0,.31-4.88c-.07-3.27-.45-6.54-.83-9.8-.8-6.52-1.64-13.06-2.35-19.6s-1.48-13.05-2.45-19.55c-.49-3.25-1-6.49-1.57-9.72s-1.22-6.47-2.06-9.59l-.09-.31.24-.19,1.65-1.3-.16.23a15.79,15.79,0,0,0,.5-3.15,8.49,8.49,0,0,0-.32-3.11,3.33,3.33,0,0,0-1.87-2.18,5.7,5.7,0,0,0-3-.24l.27-.21-7,16v-.11l5.23,39c.43,3.26.81,6.52,1.17,9.78s.71,6.53.95,9.81a27.58,27.58,0,0,1-.67,9.9,13.36,13.36,0,0,1-5.78,8l-.19-.56a75.27,75.27,0,0,0,8.44-1.23c1.39-.29,2.77-.63,4.14-1S123.93,462.54,125.24,462.08Z"/>
          </g>
          <g>
            <path class="cls-13" d="M32.1,373.34s8.18,44.83,36.65,42.87"/>
            <path class="cls-14" d="M32.15,373.33c1.34,4.94,2.91,9.79,4.67,14.57a65,65,0,0,0,2.86,7.1,45.36,45.36,0,0,0,3.93,6.56,39.55,39.55,0,0,0,10.78,10.53,26.15,26.15,0,0,0,6.83,3.09,30.47,30.47,0,0,0,7.52,1v.1a24.45,24.45,0,0,1-7.72-.32A24,24,0,0,1,53.82,413a28.24,28.24,0,0,1-3.17-2.28A35.7,35.7,0,0,1,47.84,408a39.43,39.43,0,0,1-4.69-6.16c-1.35-2.19-2.58-4.44-3.76-6.71S37,390.57,36,388.2a62.73,62.73,0,0,1-4-14.85Z"/>
          </g>
        </g>
        <g>
          <path class="cls-12" d="M215.36,301l4.91,7.2s40.9-6.55,61.85-23.57c0,0,14.84-14.8,16.8-11.52s10,11.85,19.85,16.76S331,281.2,331,281.2s8.73-4.8,6.77,3.05-32.41,15.46-32.41,15.46-3.7-3.24-15.81,5.27-48.66,39.23-86.62,37.27a98.23,98.23,0,0,1-19.31-31.09S202.6,292.83,215.36,301Z"/>
          <path class="cls-12" d="M220.27,308.22s-8.18-1-11.13,11.45"/>
        </g>
        <path class="cls-15" d="M161.69,280.4s2,25.85,18,39.6c0,0,23.23-10.8,38-21.93,0,0-18.65-36.65-29.13-63.16S151.54,253.56,161.69,280.4Z"/>
        <path class="cls-15" d="M184.92,231.64s-4.69-29.41-28-38.92-26-3.3-26-3.3-10.8-3.27-41.24,26.84S40,280.73,37,298.07s-9.49,26.51-9.16,44.83-8.18,11.79,2.62,23.57S78.89,407.05,96.24,409l21.92-21.6s7.53,18.33,18.33,18.65c0,0,5.56-11.78,3.93-29.45s4.25-27.49,4.25-27.49,4.59-28,24.22-61.38"/>
        <path class="cls-12" d="M137.14,183.86s-11.45,16.69-8.18,22.91,17.67,23.89,17.67,23.89,3,4.25,1.64,14.4c0,0-2.94.32,4.26,8.18l2.29,9.81,8.5-9.81s3-2.29,6.55-13.75,5.24-25.85,5.24-25.85l-5.57-15.38Z"/>
        <g>
          <path class="cls-15" d="M132.56,183.53S119.47,199.89,118,206.88s3.92,32.94,10,41.67c0,0,7.2-20.08,17-17.89,0,0,3.05.43,4.14,7,0,0,0-5.67-4.8-11.57s-10.25-22.25-10.25-22.25A25.14,25.14,0,0,1,138.67,189C143.69,182.22,132.56,183.53,132.56,183.53Z"/>
          <path class="cls-15" d="M169,208.4s3.92,9.17-2,38.84c0,0,6.77-12.88,11.13-13.09s5.45,5.67,11.34,8.07-8.72-37.53-16.79-35.78Z"/>
        </g>
        <g>
          <path class="cls-12" d="M213.47,149.86c2.55-4.17,6-8.29,10.7-8.07s7.34,4.12,7.22,11.35-1,13.07-6.16,18S214,177,210.57,173.26"/>
          <path class="cls-16" d="M211.85,170.7a3.61,3.61,0,0,0,2.25-.46,13.65,13.65,0,0,0,2-1.15,7.1,7.1,0,0,0,2.75-3.7,6.54,6.54,0,0,0-.22-4.51,6.41,6.41,0,0,0-1.5-2.16c.26-.54.56-1.07.85-1.58a41.88,41.88,0,0,1,2.59-4,9.79,9.79,0,0,1,3.22-3.3,2.92,2.92,0,0,1,2.19-.17,2,2,0,0,1,1.54,1.56,2.07,2.07,0,0,0-1.39-1.89,3.26,3.26,0,0,0-2.58,0,9.21,9.21,0,0,0-3.63,3.39,27.2,27.2,0,0,0-2.47,4.15c-.24.5-.46,1-.67,1.52a1.57,1.57,0,0,0-.1.26c.09.12.2.23.29.36a7,7,0,0,1,1.1,2.06,6.53,6.53,0,0,1,0,4.1,7,7,0,0,1-2.37,3.46,16.81,16.81,0,0,1-1.81,1.28A3.79,3.79,0,0,1,211.85,170.7ZM223.36,165a46.92,46.92,0,0,1-3.93,3,23.29,23.29,0,0,0,4.31-2.53,9.48,9.48,0,0,0,3.15-3.91,8.28,8.28,0,0,0,.23-4.92,18.56,18.56,0,0,0-1.8-4.51,33.83,33.83,0,0,1,1.21,4.62,8.45,8.45,0,0,1-.37,4.55A10,10,0,0,1,223.36,165Z"/>
        </g>
        <path class="cls-17" d="M216.78,69.87S210.89,59.18,200.2,55l-.22,5s-9.82-14.62-30.33-10.47l7,6.76a28.74,28.74,0,0,1-13.31-5.89s-7.41,4.36,1.31,10.47c0,0-9.6-11.34-21.81,3.49,0,0-13.53,2.4-17.46,26.62,0,0-7.2,7.85.44,11.78s29-18.76,29-18.76L188,78.81l18.32-2,16.58,3.05c2-.22-7-10-7-10"/>
        <path class="cls-12" d="M228.45,109.41s1.47,18-11.78,40.91c0,0-2.46,27.48-11.62,39.1S180.67,210,169.22,211.51s-35.84-18.65-40.91-32.89-2.62-30.76-2.62-30.76L127,130s3.11-29.46,13.42-40.58S183.29,75.7,183.29,75.7l14.4,6.38L225,96.65Z"/>
        <g>
          <g>
            <circle class="cls-9" cx="198.45" cy="151.68" r="13.09"/>
            <path class="cls-18" d="M211.59,151.68a13.26,13.26,0,0,1-3.76,9.38,13.55,13.55,0,0,1-19.19.42,13.58,13.58,0,0,1,0-19.61,13.64,13.64,0,0,1,9.8-3.75,13.5,13.5,0,0,1,9.38,4.18A13.24,13.24,0,0,1,211.59,151.68Zm-.1,0a13,13,0,1,0-3.83,9.21A13,13,0,0,0,211.49,151.68Z"/>
          </g>
          <circle class="cls-19" cx="198.68" cy="157.88" r="5.77"/>
        </g>
        <g>
          <g>
            <ellipse class="cls-9" cx="165.82" cy="143.94" rx="13.21" ry="14.08"/>
            <path class="cls-18" d="M179.08,143.94a14.69,14.69,0,0,1-3.65,9.91,13.08,13.08,0,0,1-19.66.4,15.15,15.15,0,0,1,0-20.62,13.35,13.35,0,0,1,10-4.24,13.22,13.22,0,0,1,9.61,4.64A14.69,14.69,0,0,1,179.08,143.94Zm-.1,0a14.54,14.54,0,0,0-3.72-9.75,12.56,12.56,0,0,0-18.85,0,14.67,14.67,0,0,0,0,19.46,12.56,12.56,0,0,0,18.85,0A14.54,14.54,0,0,0,179,143.94Z"/>
          </g>
          <circle class="cls-19" cx="166.92" cy="151.13" r="5.77"/>
        </g>
        <ellipse class="cls-9" cx="170.61" cy="146.06" rx="1.72" ry="1.96"/>
        <ellipse class="cls-9" cx="202.76" cy="154.9" rx="1.72" ry="1.96"/>
        <path class="cls-19" d="M176.09,123.81S164.31,111,152,127.9c0,0,.17-8.84,13.91-13.26C165.94,114.64,177.4,112.84,176.09,123.81Z"/>
        <path class="cls-19" d="M193.6,129.7s13.25-10.47,21.76,5.56a12.19,12.19,0,0,0-8-11.94c-8-3-12.76-2.13-14.4,6.05"/>
        <path class="cls-20" d="M183.17,148.68a18,18,0,0,0,1.81,6.09,23.38,23.38,0,0,0,3.42,5.29c.71.79,1.41,1.56,2.16,2.3a15.26,15.26,0,0,1,2.22,2.59A8,8,0,0,1,194,168.3a6.33,6.33,0,0,1-.62,3.65,8.66,8.66,0,0,1-5.66,4.1,11.61,11.61,0,0,1-6.81-.41,19.71,19.71,0,0,1-5.76-3.32,11.15,11.15,0,0,1-2.17-2.53,6.73,6.73,0,0,1-1.07-3.11h.1a8.77,8.77,0,0,0,3.47,5.24,18.85,18.85,0,0,0,5.68,3,11.28,11.28,0,0,0,6.33.27,7.71,7.71,0,0,0,5-3.68,5.37,5.37,0,0,0,.56-3.08,7.17,7.17,0,0,0-1.09-3A14.1,14.1,0,0,0,190,163c-.37-.4-.76-.78-1.12-1.18l-1-1.24A23.55,23.55,0,0,1,184.5,155a17.16,17.16,0,0,1-1.43-6.3Z"/>
        <g>
          <path class="cls-21" d="M152.05,167.82s-3.8,15.77,4.84,24.9c6.21,6.56,16.17,7.12,23.53,2A20.2,20.2,0,0,0,188.26,183l1.68-6.73S158.62,186.08,152.05,167.82Z"/>
          <path class="cls-22" d="M152.53,165.21s-3.6,15.54,4.58,24.54,23.23,6.54,29-6.55l2.13-6.54S158.74,183.2,152.53,165.21Z"/>
          <path class="cls-9" d="M185.09,178.79s2.94,6.87-8,8.34-23.89-4.74-23.89-14.4,1.31-6,1.31-6S160.54,180.75,185.09,178.79Z"/>
          <path class="cls-21" d="M152,163.9s19.17,18.37,40.42,9.81c0,0-3.44,7.2-13.58,7S155.31,175.35,152,163.9Z"/>
          <path class="cls-23" d="M158.42,191.17s2.29-2.51,9.05-.33c0,0,5.89-2,9.49,2.4C177,193.24,167.14,198.91,158.42,191.17Z"/>
        </g>
        <path class="cls-17" d="M198.89,91.9s4.36,15-46.69,17.24S187.32,79,198.89,91.9Z"/>
        <path class="cls-17" d="M229.59,110.8s-10.05,11.5-30.88-10.72S235.26,97.35,229.59,110.8Z"/>
        <g>
          <g>
            <g>
              <path class="cls-24" d="M224.19,86.45s19,16.8,12.44,38.39c0,0-4.8,8.08-9.38-3.92s-4.8-24-33.6-29S210.89,80.77,224.19,86.45Z"/>
              <path class="cls-14" d="M224.22,86.4a47.33,47.33,0,0,1,7,8,43.16,43.16,0,0,1,5.08,9.41,34.6,34.6,0,0,1,2.26,10.51,32.19,32.19,0,0,1-1.24,10.73l0,.09,0,.08a8,8,0,0,1-1.22,1.53,5.42,5.42,0,0,1-1.67,1.16l-.5.2-.55.1a3.24,3.24,0,0,1-1.12,0,5.59,5.59,0,0,1-1.05-.34c-.31-.17-.58-.38-.87-.57a10,10,0,0,1-2.36-3A25.94,25.94,0,0,1,226.4,121c-1.69-4.46-2.89-9-5.12-13a24.93,24.93,0,0,0-4.12-5.39,27.11,27.11,0,0,0-5.52-4,52.29,52.29,0,0,0-13-4.79c-2.3-.47-4.54-1-6.9-1.4-1.17-.23-2.34-.5-3.5-.83a13,13,0,0,1-3.48-1.42,2.79,2.79,0,0,1-.85-.81,1.28,1.28,0,0,1-.17-.33,1.08,1.08,0,0,1-.1-.41,1.39,1.39,0,0,1,.18-.82,2.38,2.38,0,0,1,.84-.88,5.46,5.46,0,0,1,.88-.48A18.67,18.67,0,0,1,189,85.27a60.79,60.79,0,0,1,7.06-1.07,93.56,93.56,0,0,1,14.2-.33,69.63,69.63,0,0,1,7.07.7A28.67,28.67,0,0,1,224.22,86.4Zm-.05.09a28,28,0,0,0-6.84-1.66,66.12,66.12,0,0,0-7-.55,102.48,102.48,0,0,0-14.12.56,58.35,58.35,0,0,0-7,1.14,18.44,18.44,0,0,0-3.35,1.08,2.89,2.89,0,0,0-1.34,1c-.3.53.22,1,.68,1.33a12.79,12.79,0,0,0,3.26,1.28c1.13.32,2.28.57,3.44.8,2.31.42,4.63.91,6.94,1.37a53,53,0,0,1,13.27,4.83,28.11,28.11,0,0,1,5.74,4.14,26,26,0,0,1,4.27,5.64c2.29,4.17,3.47,8.78,5.13,13.19a26.33,26.33,0,0,0,1.45,3.2,9.29,9.29,0,0,0,2.13,2.76c.24.15.47.34.72.47a4.81,4.81,0,0,0,.81.27,2.48,2.48,0,0,0,.86,0l.42-.07.4-.16a6.11,6.11,0,0,0,2.52-2.34v0a31.9,31.9,0,0,0,1.33-10.46A34,34,0,0,0,235.8,104,43.89,43.89,0,0,0,231,94.59,48.43,48.43,0,0,0,224.17,86.49Z"/>
            </g>
            <g>
              <path class="cls-24" d="M198.67,86.88s22.25-3,34,24.66"/>
              <path class="cls-14" d="M198.66,86.83a23.88,23.88,0,0,1,5.67-.26A30.79,30.79,0,0,1,210,87.64a32.79,32.79,0,0,1,10.21,5.21,40,40,0,0,1,4.15,4l1,1.06a8.81,8.81,0,0,1,.91,1.11c.57.76,1.12,1.55,1.65,2.33a19.54,19.54,0,0,1,1.46,2.45l1.37,2.49c.73,1.74,1.44,3.5,2.09,5.26l-.09,0c-.83-1.69-1.61-3.39-2.46-5l-1.46-2.4a21,21,0,0,0-1.54-2.34l-1.69-2.23a7.79,7.79,0,0,0-.91-1.07l-.95-1a42.22,42.22,0,0,0-4.1-3.81,33.58,33.58,0,0,0-9.84-5.25,28,28,0,0,0-11-1.45Z"/>
            </g>
          </g>
          <g>
            <g>
              <path class="cls-24" d="M127.54,134S167.69,81.86,227.9,89.94c0,0,12.22-.44.88-12.87,0,0,6.1-7.86-13.53-10.26s-45.6,5.46-65.89,14.4S113.36,107,121,116.77c0,0-4.15,5.89,0,9.16C121,125.93,118.16,134.23,127.54,134Z"/>
              <path class="cls-14" d="M127.52,134a112.75,112.75,0,0,1,9.59-10.58q5.12-5,10.71-9.51a121.61,121.61,0,0,1,11.66-8.34A115.32,115.32,0,0,1,172,98.6a104,104,0,0,1,27.28-8.8l1.77-.32,1.78-.23c1.19-.14,2.38-.31,3.57-.44,2.4-.14,4.79-.42,7.19-.39a100.21,100.21,0,0,1,14.38.75h-.13a7.4,7.4,0,0,0,3.76-1.22,2.89,2.89,0,0,0,1-3.19A11,11,0,0,0,230.89,81a33.58,33.58,0,0,0-2.74-3.39l-.45-.49.41-.59a4.38,4.38,0,0,0,.65-1.62,3.29,3.29,0,0,0-.16-1.68,5.39,5.39,0,0,0-2.6-2.61,26.72,26.72,0,0,0-7.94-2.51,67.92,67.92,0,0,0-17.1-.62c-11.46.93-22.73,3.8-33.67,7.44q-8.21,2.76-16.18,6.18A81.42,81.42,0,0,0,136,89.36a63.51,63.51,0,0,0-6.75,5.36,42.8,42.8,0,0,0-5.77,6.34,21.4,21.4,0,0,0-3.75,7.57,10.42,10.42,0,0,0-.15,4.16,8.82,8.82,0,0,0,1.68,3.79l.14.18-.13.19a12.11,12.11,0,0,0-1.16,2.16,8.59,8.59,0,0,0-.64,2.37,5.34,5.34,0,0,0,.25,2.38,5,5,0,0,0,1.42,1.92l.1.1,0,.12a8.86,8.86,0,0,0-.4,3.07,5,5,0,0,0,1,2.88,5.22,5.22,0,0,0,2.6,1.63c.5.15,1,.2,1.55.31Zm0,.09L126,134a13.75,13.75,0,0,1-1.58-.29,5.39,5.39,0,0,1-2.7-1.65,5.11,5.11,0,0,1-1.1-3,8.72,8.72,0,0,1,.38-3.17l0,.06a5.25,5.25,0,0,1-1.53-2,5.67,5.67,0,0,1-.3-2.52,9.13,9.13,0,0,1,.64-2.45,12,12,0,0,1,1.17-2.25v.07a9.32,9.32,0,0,1-1.8-3.94,10.75,10.75,0,0,1,.11-4.34,21.26,21.26,0,0,1,3.76-7.79,42.42,42.42,0,0,1,5.82-6.45,63.32,63.32,0,0,1,6.78-5.44,81.78,81.78,0,0,1,15.21-8.35q8-3.45,16.21-6.27c11-3.71,22.28-6.64,33.84-7.64a69.51,69.51,0,0,1,17.35.57,26.34,26.34,0,0,1,8.26,2.64,6.36,6.36,0,0,1,3,3.11,4.37,4.37,0,0,1,.2,2.18,5.2,5.2,0,0,1-.85,2V77a33.65,33.65,0,0,1,2.8,3.51,11.94,11.94,0,0,1,1.92,4.06,4.55,4.55,0,0,1-.06,2.26,3.7,3.7,0,0,1-1.34,1.82A8.22,8.22,0,0,1,227.91,90h0a98.32,98.32,0,0,0-14.24-.81c-2.39,0-4.76.23-7.13.36-1.19.12-2.37.28-3.55.42l-1.77.22-1.76.31a103.61,103.61,0,0,0-27.14,8.63,127.55,127.55,0,0,0-24.22,15A131.8,131.8,0,0,0,127.57,134.05Z"/>
            </g>
            <g>
              <path class="cls-24" d="M119.91,118.52s22.47-26.4,63.7-36.22,45.17-5.23,45.17-5.23"/>
              <path class="cls-14" d="M119.87,118.48A108.47,108.47,0,0,1,142.7,98.92a128,128,0,0,1,27-13.42l3.59-1.17c1.2-.38,2.38-.83,3.61-1.12,2.44-.63,4.87-1.31,7.32-1.9,4.89-1.1,9.78-2.21,14.73-3.07s9.92-1.64,14.92-2.14c1.25-.11,2.5-.21,3.76-.26s2.52-.08,3.78-.09,2.51.08,3.77.22a14.79,14.79,0,0,1,1.86.33,5.92,5.92,0,0,1,.91.27,2.56,2.56,0,0,1,.84.46l-.07.07a4.38,4.38,0,0,0-1.71-.65,16.52,16.52,0,0,0-1.85-.28c-1.25-.1-2.5-.12-3.75-.1s-2.5.08-3.75.19-2.49.22-3.73.36C209,77.21,204,78,199.12,79c-9.8,2-19.64,4-29.07,7.44-2.37.82-4.67,1.81-7,2.7s-4.57,2.06-6.85,3.09-4.47,2.25-6.64,3.5-4.36,2.47-6.44,3.85a123.6,123.6,0,0,0-12.2,8.74,96.56,96.56,0,0,0-11,10.23Z"/>
            </g>
            <g>
              <path class="cls-24" d="M120.78,127.68s2-8.94,27.05-22"/>
              <path class="cls-14" d="M120.73,127.67a7.61,7.61,0,0,1,.75-2.13,16.65,16.65,0,0,1,1.12-2,21.81,21.81,0,0,1,1.35-1.81c.46-.6,1-1.15,1.47-1.71a20,20,0,0,1,1.58-1.61c.54-.52,1.11-1,1.68-1.49,1.12-1,2.31-1.9,3.49-2.82a82.68,82.68,0,0,1,7.57-4.75c1.33-.68,2.63-1.39,4-2s2.71-1.21,4.1-1.75l.05.09L144,107.81c-1.29.72-2.55,1.49-3.83,2.23s-2.5,1.58-3.75,2.37-2.43,1.66-3.63,2.52A61.26,61.26,0,0,0,126,120.6c-.52.52-1,1-1.53,1.6s-1,1.1-1.42,1.69a13.38,13.38,0,0,0-2.19,3.8Z"/>
            </g>
          </g>
        </g>
        <g>
          <path class="cls-12" d="M129.14,136.61c-2.83-4.17-6.65-8.29-11.82-8.07s-8.13,4.12-8,11.35,1.08,13.07,6.81,18,12.37,5.89,16.2,2.17"/>
          <path class="cls-16" d="M130.92,157.45a4.35,4.35,0,0,1-2.48-.46,16,16,0,0,1-2.21-1.15,7.24,7.24,0,0,1-3-3.7,6,6,0,0,1,.24-4.51,6.48,6.48,0,0,1,1.67-2.16c-.3-.54-.62-1.07-.95-1.58a42.7,42.7,0,0,0-2.86-4,10.4,10.4,0,0,0-3.56-3.3,3.48,3.48,0,0,0-2.42-.17,2.16,2.16,0,0,0-1.7,1.56,2.1,2.1,0,0,1,1.54-1.89,4,4,0,0,1,2.85,0,9.87,9.87,0,0,1,4,3.39,27.25,27.25,0,0,1,2.73,4.15c.26.5.51,1,.74,1.52,0,.08.07.16.11.26s-.22.23-.32.36a6.72,6.72,0,0,0-1.21,2,5.93,5.93,0,0,0,0,4.11,7.1,7.1,0,0,0,2.62,3.46,18.43,18.43,0,0,0,2,1.28A4.48,4.48,0,0,0,130.92,157.45Zm-12.71-5.74a50.92,50.92,0,0,0,4.34,3,26.85,26.85,0,0,1-4.77-2.53,9.82,9.82,0,0,1-3.48-3.91,7.51,7.51,0,0,1-.25-4.92,17.62,17.62,0,0,1,2-4.51,31.8,31.8,0,0,0-1.34,4.62,7.75,7.75,0,0,0,.41,4.55A10.06,10.06,0,0,0,118.21,151.71Z"/>
        </g>
        <g>
          <g>
            <line class="cls-25" x1="189.72" y1="194.66" x2="193.87" y2="199.46"/>
            <path class="cls-14" d="M189.75,194.63a8.24,8.24,0,0,1,4.15,4.8l-.06,0-2.1-2.37-2.05-2.43Z"/>
          </g>
          <g>
            <line class="cls-25" x1="165.07" y1="168.04" x2="161.8" y2="168.91"/>
            <path class="cls-14" d="M165.08,168.08a2.57,2.57,0,0,1-3.27.87l0-.07,1.62-.47,1.65-.4Z"/>
          </g>
          <g>
            <line class="cls-25" x1="159.18" y1="165.86" x2="156.56" y2="167.17"/>
            <path class="cls-14" d="M159.2,165.89a2,2,0,0,1-2.62,1.31l0-.06,1.3-.69,1.32-.62Z"/>
          </g>
          <g>
            <line class="cls-25" x1="153.51" y1="162.37" x2="148.93" y2="161.93"/>
            <path class="cls-14" d="M153.5,162.41a4.07,4.07,0,0,1-2.35.41,4.18,4.18,0,0,1-2.23-.85v-.07l2.29.18,2.29.25Z"/>
          </g>
          <g>
            <line class="cls-25" x1="200.63" y1="190.08" x2="204.34" y2="194"/>
            <path class="cls-14" d="M200.66,190.05a5.49,5.49,0,0,1,2.32,1.53,5.66,5.66,0,0,1,1.39,2.4l-.06.05-1.88-1.94-1.83-2Z"/>
          </g>
          <g>
            <g>
              <line class="cls-25" x1="180.56" y1="202.51" x2="183.4" y2="207.97"/>
              <path class="cls-14" d="M180.59,202.49a7.08,7.08,0,0,1,2,2.44,7.16,7.16,0,0,1,.85,3l-.07,0-1.45-2.71-1.38-2.74Z"/>
            </g>
            <g>
              <line class="cls-25" x1="154.82" y1="199.24" x2="153.51" y2="202.51"/>
              <path class="cls-14" d="M154.85,199.25a2.75,2.75,0,0,1-1.31,3.28l-.07,0,.62-1.65.69-1.62Z"/>
            </g>
            <g>
              <line class="cls-25" x1="157.22" y1="206.44" x2="157" y2="210.8"/>
              <path class="cls-14" d="M157.25,206.44a3.75,3.75,0,0,1,.53,2.21,3.87,3.87,0,0,1-.74,2.15H157l.07-2.18.15-2.18Z"/>
            </g>
            <g>
              <line class="cls-25" x1="165.07" y1="207.09" x2="164.63" y2="212.55"/>
              <path class="cls-14" d="M165.11,207.1a5.54,5.54,0,0,1,.41,2.77,5.69,5.69,0,0,1-.85,2.68h-.07l.18-2.74.25-2.72Z"/>
            </g>
            <g>
              <g>
                <line class="cls-25" x1="146.09" y1="175.02" x2="142.38" y2="175.68"/>
                <path class="cls-14" d="M146.1,175.06a2.87,2.87,0,0,1-1.75.95,2.91,2.91,0,0,1-2-.3l0-.07,1.85-.36,1.86-.29Z"/>
              </g>
              <g>
                <line class="cls-25" x1="138.24" y1="179.17" x2="134.96" y2="182"/>
                <path class="cls-14" d="M138.26,179.2A4,4,0,0,1,135,182l-.05-.05,1.61-1.45,1.66-1.39Z"/>
              </g>
              <g>
                <line class="cls-25" x1="145.87" y1="184.19" x2="141.73" y2="187.24"/>
                <path class="cls-14" d="M145.89,184.22a5.11,5.11,0,0,1-1.69,2,5.05,5.05,0,0,1-2.45,1l-.05-.06,2.05-1.56,2.1-1.49Z"/>
              </g>
              <g>
                <line class="cls-25" x1="149.8" y1="191.82" x2="147.18" y2="194.88"/>
                <path class="cls-14" d="M149.83,191.85a3.35,3.35,0,0,1-.83,1.94,3.3,3.3,0,0,1-1.79,1.11l-.06-.05,1.28-1.55,1.34-1.5Z"/>
              </g>
              <g>
                <line class="cls-25" x1="142.6" y1="196.62" x2="140.64" y2="199.02"/>
                <path class="cls-14" d="M142.63,196.65a2.21,2.21,0,0,1-2,2.4l0-.05.95-1.23,1-1.17Z"/>
              </g>
              <g>
                <line class="cls-25" x1="137.58" y1="191.39" x2="133.44" y2="192.91"/>
                <path class="cls-14" d="M137.59,191.42a3.77,3.77,0,0,1-1.85,1.36,3.9,3.9,0,0,1-2.29.17l0-.07,2.06-.8,2.09-.73Z"/>
              </g>
              <g>
                <line class="cls-25" x1="130.16" y1="168.26" x2="123.84" y2="169.79"/>
                <path class="cls-14" d="M130.17,168.3a7.74,7.74,0,0,1-3,1.38,7.84,7.84,0,0,1-3.32.14v-.07L127,169l3.17-.73Z"/>
              </g>
            </g>
          </g>
          <g>
            <line class="cls-25" x1="193.87" y1="172.84" x2="197.36" y2="174.37"/>
            <path class="cls-14" d="M193.88,172.81a3.18,3.18,0,0,1,3.49,1.52l0,.07-1.76-.73-1.73-.79Z"/>
          </g>
        </g>
        <g>
          <path class="cls-26" d="M464.73,568.35c34.2,6.95,37.36-35.2-7.5-23.64-29.49-24.47-47.33-28.19-63.54-11.71-28.77-38.6-49.71-20.54-60.18,0-12.56-8.68-31.41-6.64-34.2,13.07-28.61-29.23-71.89-9.82-71.19,18.89,29.31,23.26,79.57,7.62,79.57,7.62,16.05,17,50.25,15.64,64.21,2C404,588.22,442.67,589.38,464.73,568.35Z"/>
          <path class="cls-27" d="M399.81,550.61a2,2,0,0,1-.77-.16,1.82,1.82,0,0,1-.93-2.42c4.35-9.35,3.92-21.84,3.54-32.87-.11-3.19-.22-6.28-.22-9.2a1.86,1.86,0,0,1,1.88-1.82h0a1.85,1.85,0,0,1,1.87,1.83c0,2.87.1,5.93.21,9.07.4,11.42.85,24.36-3.87,34.5A1.87,1.87,0,0,1,399.81,550.61Z"/>
          <path class="cls-28" d="M403.51,514.91c14.46-16.42,7.19-32.74,0-32.74S396.23,506.52,403.51,514.91Z"/>
          <g>
            <path class="cls-27" d="M350.26,530.91l-.33,0a1.84,1.84,0,0,1-1.51-2.13c2.81-15.32,1.61-32.9-3.45-50.85a1.82,1.82,0,0,1,1.31-2.25,1.9,1.9,0,0,1,2.3,1.28c5.21,18.47,6.43,36.61,3.52,52.47A1.87,1.87,0,0,1,350.26,530.91Z"/>
            <g>
              <path class="cls-27" d="M347.83,477.44a30.33,30.33,0,0,0,1.46,10.43c-50.57-60.92-7.11-45.14-2.51-10.47Z"/>
              <path class="cls-28" d="M349.29,487.87a30.33,30.33,0,0,1-1.46-10.43c.08-15.25,7.08-35.18,11.54-34.55C365,443.73,373.3,461.78,349.29,487.87Z"/>
            </g>
          </g>
          <g>
            <path class="cls-27" d="M315.39,546.29h-.06a1.84,1.84,0,0,1-1.81-1.88c.39-12-9.35-34.57-15.17-46a1.82,1.82,0,0,1,.85-2.45,1.91,1.91,0,0,1,2.51.83c1.65,3.25,16.07,32.16,15.55,47.77A1.85,1.85,0,0,1,315.39,546.29Z"/>
            <g>
              <path class="cls-27" d="M300,497.57c-3.48-27.22,9.89-32.69,5,8.79C303.48,503.34,301.76,500.37,300,497.57Z"/>
              <path class="cls-28" d="M300,497.57c1.73,2.8,3.45,5.77,5,8.79-16.07-4.82-30.83-16.27-30.83-23.13S281.9,476.48,300,497.57Z"/>
            </g>
          </g>
        </g>
        <g>
          <path class="cls-27" d="M221.51,515.8a24.85,24.85,0,0,0,1.19,8.49c-41.15-49.59-5.79-36.74-2-8.52Z"/>
          <path class="cls-28" d="M222.7,524.29a24.85,24.85,0,0,1-1.19-8.49c.07-12.41,5.77-28.63,9.39-28.12C235.51,488.36,242.24,503.05,222.7,524.29Z"/>
        </g>
        <g>
          <path class="cls-29" d="M292.47,463.05q-1.43,3.79-2.87,7.37c-1.21,1.81-3.26-1.07-3.63-1.62a246.31,246.31,0,0,0,9.59-24.61,258.68,258.68,0,0,1,11.61-29.78c-8.25-12.59-4.32-25.38-3.66-26.73s.77-.59.44.27c-2.75,11.26,1.75,21.15,3.9,25,8.68-18.43,16.54-29.33,17.28-30.34,1.65-2.24,2.71-2.52,1,.23-10.82,17.49-20.75,33.8-29.62,61.82-1.71,5.4-3.25,10.51-5,15.36Z"/>
          <g>
            <path class="cls-30" d="M303.33,394.05c5,2.05,7.75-.21,11.26-4.74C309.51,386.41,301.87,390.17,303.33,394.05Z"/>
            <path class="cls-31" d="M303.33,394.05c5,2.05,7.75-.21,11.26-4.74A98.05,98.05,0,0,0,303.33,394.05Z"/>
          </g>
          <g>
            <path class="cls-30" d="M301.71,434c1-7.63,7.6-8.69,19-8.47C321.17,434.07,307.31,439.3,301.71,434Z"/>
            <path class="cls-31" d="M301.71,434c1-7.63,7.6-8.69,19-8.47A167.28,167.28,0,0,1,301.71,434Z"/>
          </g>
          <g>
            <path class="cls-30" d="M295.58,444.83c4.68-5.51,1.23-10.8-6.15-18.63C283.22,431.27,288.36,444.27,295.58,444.83Z"/>
            <path class="cls-31" d="M295.58,444.83c4.68-5.51,1.23-10.8-6.15-18.63A157.65,157.65,0,0,0,295.58,444.83Z"/>
          </g>
          <g>
            <path class="cls-30" d="M305.13,419.69c3.5-4.11.92-8.06-4.59-13.91C295.9,409.57,299.74,419.28,305.13,419.69Z"/>
            <path class="cls-31" d="M305.13,419.69c3.5-4.11.92-8.06-4.59-13.91A118.72,118.72,0,0,0,305.13,419.69Z"/>
          </g>
          <g>
            <path class="cls-30" d="M318.83,395.42c1.29-5.61,6.4-6,15.07-5.24C333.63,396.54,322.7,399.65,318.83,395.42Z"/>
            <path class="cls-32" d="M321.7,394.57c-1.37-4.05,3.53-5.18,12.2-4.39C333.63,396.54,324,397.67,321.7,394.57Z"/>
            <path class="cls-31" d="M318.83,395.42c1.29-5.61,6.4-6,15.07-5.24A134.14,134.14,0,0,1,318.83,395.42Z"/>
          </g>
          <g>
            <path class="cls-30" d="M323.43,383.08c-6.56-2.29-7.49-6.91-7.36-14.42C323.4,370.2,328,380.52,323.43,383.08Z"/>
            <path class="cls-32" d="M322.2,380.37c-4.52.38-6.26-4.2-6.13-11.71C323.4,370.2,325.57,379,322.2,380.37Z"/>
            <path class="cls-31" d="M323.43,383.08c-6.56-2.29-7.49-6.91-7.36-14.42A136.91,136.91,0,0,1,323.43,383.08Z"/>
            <path class="cls-33" d="M322.2,380.37l0,0c-1.75-3.71-4.65-9.29-6.16-11.69C315.94,376.17,317.68,380.75,322.2,380.37Z"/>
          </g>
        </g>
        <g>
          <path class="cls-29" d="M296.58,538.74c-.59,3.42-9.3-1.57-10.19-2.14,0-14.87,1.95-50.5.54-63.27-2.08-18.82-3.95-32.8-3.75-47.71-20.22-13-19.73-35.27-19.64-37.66s.75-1.36.82.11c3.33,18.19,14.38,30.51,20,34.73.66-32.48,6.94-54.33,7.36-56.28.94-4.34,2.31-5.44,1.63-.33-4.37,32.51-8.22,62.73-2.89,109.31,1,9,2.11,17.42,2.67,25.64C293.15,501.14,296.43,534.66,296.58,538.74Z"/>
          <g>
            <path class="cls-30" d="M267.43,397.35c8.61-.27,11.16-5.35,13.31-14.23C271.46,382.21,262.78,392.66,267.43,397.35Z"/>
            <path class="cls-31" d="M267.43,397.35c8.61-.27,11.16-5.35,13.31-14.23A156.77,156.77,0,0,0,267.43,397.35Z"/>
          </g>
          <g>
            <path class="cls-30" d="M291.08,456.61c-3.53-11.74,5.42-17.59,22.18-24.69C319.47,444,302.67,460.67,291.08,456.61Z"/>
            <path class="cls-31" d="M291.08,456.61c-3.53-11.74,5.42-17.59,22.18-24.69C308.93,437.8,295.81,452.35,291.08,456.61Z"/>
          </g>
          <g>
            <path class="cls-30" d="M289.19,476.35c3.23-11.07-5.24-16.53-21.07-23.13C262.37,464.65,278.31,480.23,289.19,476.35Z"/>
            <path class="cls-31" d="M289.19,476.35c3.23-11.07-5.24-16.53-21.07-23.13A251.82,251.82,0,0,0,289.19,476.35Z"/>
          </g>
          <g>
            <path class="cls-30" d="M286.75,433.53c2.41-8.28-3.91-12.35-15.75-17.29C266.71,424.79,278.62,436.43,286.75,433.53Z"/>
            <path class="cls-31" d="M286.75,433.53c2.41-8.28-3.91-12.35-15.75-17.29A188.72,188.72,0,0,0,286.75,433.53Z"/>
          </g>
          <g>
            <path class="cls-30" d="M290.89,389.25c-1.76-9,5.41-12.94,18.54-17.42C313.18,381.25,299.29,392.9,290.89,389.25Z"/>
            <path class="cls-32" d="M294.52,386.15c-4.63-5,1.78-9.84,14.91-14.32C313.18,381.25,299.88,389.18,294.52,386.15Z"/>
            <path class="cls-31" d="M290.89,389.25c-1.76-9,5.41-12.94,18.54-17.42A210.08,210.08,0,0,1,290.89,389.25Z"/>
          </g>
          <g>
            <path class="cls-30" d="M289.57,368.3c-11.05.92-15.41-5.19-20.1-16.21C281.14,349.56,294.49,361.62,289.57,368.3Z"/>
            <path class="cls-32" d="M286,365.14c-6.34,3.51-11.85-2-16.54-13.05C281.14,349.56,290,360.92,286,365.14Z"/>
            <path class="cls-31" d="M289.57,368.3c-11.05.92-15.41-5.19-20.1-16.21A220.29,220.29,0,0,1,289.57,368.3Z"/>
            <path class="cls-33" d="M286,365.14l0,0c-5-4.28-12.82-10.51-16.57-13C274.16,363.11,279.67,368.65,286,365.14Z"/>
          </g>
        </g>
        <g>
          <path class="cls-29" d="M373.78,518.37c-.67,3.91-11.31-.42-12.33-1.07,0-17,2.15-41.7.54-56.3-2.39-21.52-1.64-42-1.41-59.09-23.12-14.83-26.11-39.05-26-41.79s.86-1.55.94.12c3.81,20.81,18.66,33.93,25.11,38.76.75-37.16,5.72-61.17,6.2-63.4,1.08-5,2.64-6.21,1.86-.38-5,37.19-9.39,71.75-3.3,125,1.16,10.27,2.41,19.92,3.06,29.31C368.44,489.55,373.6,513.7,373.78,518.37Z"/>
          <g>
            <path class="cls-30" d="M339,370.86c9.84-.31,12.76-6.11,15.23-16.28C343.62,353.54,333.7,365.49,339,370.86Z"/>
            <path class="cls-31" d="M339,370.86c9.84-.31,12.76-6.11,15.23-16.28A180.52,180.52,0,0,0,339,370.86Z"/>
          </g>
          <g>
            <path class="cls-30" d="M366.07,438.63c-4-13.43,6.19-20.11,25.36-28.24C398.53,424.24,379.33,443.27,366.07,438.63Z"/>
            <path class="cls-32" d="M371.08,433.57c-7.76-7.07,1.18-15.05,20.35-23.18C398.53,424.24,379.65,437.6,371.08,433.57Z"/>
            <path class="cls-31" d="M366.07,438.63c-4-13.43,6.19-20.11,25.36-28.24C386.48,417.12,371.48,433.76,366.07,438.63Z"/>
            <path class="cls-33" d="M371.08,433.57l.07,0c6.76-7,16.48-18.05,20.28-23.21C372.26,418.52,363.32,426.5,371.08,433.57Z"/>
          </g>
          <g>
            <path class="cls-30" d="M363.9,461.21c3.69-12.67-6-18.9-24.09-26.46C333.23,447.83,351.46,465.65,363.9,461.21Z"/>
            <path class="cls-31" d="M363.9,461.21c3.69-12.67-6-18.9-24.09-26.46C344.52,441.06,358.78,456.65,363.9,461.21Z"/>
          </g>
          <g>
            <path class="cls-30" d="M361.11,412.23c2.76-9.46-4.47-14.12-18-19.76C338.2,402.24,351.82,415.55,361.11,412.23Z"/>
            <path class="cls-32" d="M357.56,408.69c5.42-5-.92-10.58-14.45-16.22C338.2,402.24,351.56,411.56,357.56,408.69Z"/>
            <path class="cls-31" d="M361.11,412.23c2.76-9.46-4.47-14.12-18-19.76A213.11,213.11,0,0,0,361.11,412.23Z"/>
            <path class="cls-33" d="M357.56,408.69l-.05,0c-4.79-4.92-11.7-12.62-14.4-16.24C356.64,398.11,363,403.69,357.56,408.69Z"/>
          </g>
          <g>
            <path class="cls-30" d="M365.85,361.6c-2-10.3,6.19-14.8,21.2-19.92C391.34,352.45,375.45,365.78,365.85,361.6Z"/>
            <path class="cls-31" d="M365.85,361.6c-2-10.3,6.19-14.8,21.2-19.92A242.25,242.25,0,0,1,365.85,361.6Z"/>
          </g>
          <g>
            <path class="cls-30" d="M364.34,337.64c-12.64,1.06-17.63-5.93-23-18.54C354.7,316.2,370,330,364.34,337.64Z"/>
            <path class="cls-32" d="M360.27,334c-7.25,4-13.56-2.32-18.92-14.93C354.7,316.2,364.83,329.2,360.27,334Z"/>
            <path class="cls-31" d="M364.34,337.64c-12.64,1.06-17.63-5.93-23-18.54A253.15,253.15,0,0,1,364.34,337.64Z"/>
            <path class="cls-33" d="M360.27,334l0,0c-5.69-4.89-14.66-12-18.95-14.89C346.71,331.71,353,338,360.27,334Z"/>
          </g>
          <path class="cls-34" d="M398.75,533.51c-3.51-2.75-2.46-5.14-6.07-4.1s-3.75-3.71-6.14-4.19a10.57,10.57,0,0,1-6.89-4.85c-2-3-7.88-9.5-9.32-9.69.22.87-7.06-.79-7.06-.79a6.26,6.26,0,0,0-2.87,3.61c-.47,2.3-5.53,6.77-9.69,7.82s-5.93,5-7.16,7.53-4,2.94-7,3.61-9.21,27.78-7.84,28.26,9.54-25.21,11.73-22.83,7.91,1.62,11.33,0,8.93-3.71,13.24-2.1,12.68,2.87,14.8.77,8.19-4.1,12-2.38S400.46,534.85,398.75,533.51Z"/>
        </g>
        <g>
          <path class="cls-5" d="M370.6,322.75a.9.9,0,1,1,1.2,1.34"/>
          <g>
            <path class="cls-35" d="M372.33,314.71c13.31-28.11,38.91-12.29,2.4,2.28,33.61-13.49,42.41,12.13.64,3,41.77,9.15,29.75,31.91-1.33,2.53,38.79,36.12,5.69,39.52-2.83,1.11,12.38,51.81-20.54,32-3.22-.7-20.81,45.64-38.94,12.31-2.4-2.25-43.7,17.4-42.47-12.14-.66-3-41.81-9.17-29.76-31.91,1.35-2.55-28.24-25.28-5.7-39.52,2.81-1.13C361.44,284.34,389.63,282,372.33,314.71Z"/>
            <path class="cls-36" d="M382.17,325.16c3.11-5.91.06-13.66-6.86-17.3s-15.06-1.83-18.17,4.06-.06,13.68,6.85,17.32S379,331.06,382.17,325.16Z"/>
          </g>
        </g>
        <g>
          <path class="cls-5" d="M363.85,419.32a.62.62,0,1,1,.83.92"/>
          <g>
            <path class="cls-35" d="M365.05,413.77c9.18-19.4,26.85-8.48,1.66,1.57,23.19-9.3,29.26,8.38.44,2.06,28.82,6.32,20.53,22-.92,1.75,26.77,24.93,3.92,27.27-2,.76,8.54,35.76-14.18,22.11-2.23-.48-14.36,31.5-26.87,8.49-1.65-1.55-30.16,12-29.31-8.38-.46-2.05-28.85-6.33-20.54-22,.93-1.76-19.48-17.45-3.93-27.27,1.94-.78C357.53,392.82,377,391.19,365.05,413.77Z"/>
            <path class="cls-36" d="M371.83,421c2.16-4.08.05-9.42-4.72-11.94s-10.4-1.26-12.55,2.8,0,9.45,4.73,12S369.67,425.06,371.83,421Z"/>
          </g>
        </g>
        <g>
          <path class="cls-37" d="M290.26,342.31c-16.88-35.66-49.37-15.6-3,2.89-42.65-17.11-53.81,15.4-.81,3.79-53,11.61-37.75,40.48,1.69,3.21-49.22,45.83-7.22,50.14,3.58,1.41-15.71,65.73,26.07,40.65,4.09-.9,26.4,57.92,49.42,15.62,3-2.85,55.45,22.07,53.89-15.41.85-3.77,53-11.64,37.76-40.49-1.71-3.23,35.82-32.08,7.22-50.15-3.57-1.43C304.09,303.78,268.32,300.79,290.26,342.31Z"/>
          <path class="cls-36" d="M277.78,355.57c-3.95-7.5-.07-17.33,8.7-22s19.12-2.32,23.06,5.16.07,17.36-8.69,22S281.76,363.06,277.78,355.57Z"/>
        </g>
        <g>
          <path class="cls-38" d="M154.82,263.05s-12.11,19.31-13.42,40.58-13.75,29.13-15.71,47.78a203.21,203.21,0,0,1-7.53,36"/>
          <path class="cls-39" d="M154.86,263.08a102.78,102.78,0,0,0-6.78,14.79,93.51,93.51,0,0,0-4.53,15.56c-.25,1.33-.52,2.65-.67,4s-.4,2.66-.49,4l-.36,4.06-.19,2.06-.34,2.05a53,53,0,0,1-2,8,72.91,72.91,0,0,1-3.14,7.64c-2.36,5-5.1,9.65-7,14.66a39.57,39.57,0,0,0-1.3,3.8c-.43,1.27-.68,2.58-1,3.88s-.41,2.64-.64,4-.34,2.71-.55,4.06q-1.22,8.12-3.12,16.07c-1.33,5.29-2.81,10.54-4.55,15.71l-.09,0a205.45,205.45,0,0,0,7-31.85c.19-1.35.33-2.7.49-4.05s.34-2.71.62-4,.55-2.67,1-4,.82-2.6,1.3-3.88c1.93-5.1,4.66-9.84,7-14.76a75,75,0,0,0,3.14-7.52,53.32,53.32,0,0,0,2-7.89l.34-2,.19-2,.39-4.07c.09-1.36.3-2.7.51-4s.47-2.68.75-4a94.54,94.54,0,0,1,4.79-15.59A104.64,104.64,0,0,1,154.77,263Z"/>
        </g>
        <g>
          <g>
            <path class="cls-12" d="M201.94,363.19s10.8,1.64,24.22-4.25,19.31-3.93,15.05,6.87-40.91-2-40.91-2"/>
            <path class="cls-12" d="M209.14,366.47a114.51,114.51,0,0,0,25.2-3.28s9.82-2.94,11.13,4.59-24.22,6.54-24.22,6.54l-14.07.65c-2.29-4.9,2.29-9.81,2.29-9.81"/>
            <path class="cls-12" d="M199,361.88s15.7,5.57,20.61,10.15-31.74,1.64-31.74,1.64l-2.29-11.79S187.21,354,199,361.88Z"/>
            <path class="cls-12" d="M170.52,354.36s9.17,2,15.71-2.29,9.49-12.77,18.33-9.17-7.86,16.69-7.86,16.69.66,5.57,10.8,8.19c0,0,5.89,3.27,18.66,2.61s16.36.33,16.36.33,3.6,5.24-10.47,7.2-30.44,5.24-49.42-1.64c0,0-62.83-6.21-84.76-25.52L84.13,320.65l31.74-12.11,7.2,22.58S149.58,352.72,170.52,354.36Z"/>
          </g>
          <path class="cls-15" d="M112.61,245.85s5.23,49.6,11.44,64.66c0,0-3.27,6.87-24.21,13.74s-21.27,1.64-21.27,1.64-16-53.67-5.57-77.56"/>
        </g>
        <polyline class="cls-29" points="366.28 477.09 398.45 425.08 433.29 392.91 402.74 416.5 402.2 375.22 398.98 416.5 392.95 427.02 366.01 471.86"/>
        <g>
          <path class="cls-30" d="M401.21,407.94c3.69-12.66-6-18.9-24.09-26.45C370.54,394.56,388.77,412.38,401.21,407.94Z"/>
          <path class="cls-31" d="M401.21,407.94c3.69-12.66-6-18.9-24.09-26.45C381.83,387.8,396.09,403.38,401.21,407.94Z"/>
        </g>
        <g>
          <path class="cls-30" d="M404.35,390.13c-10-7.6-5.94-18.37,3.91-35.34C420.71,360.94,416.52,386,404.35,390.13Z"/>
          <path class="cls-31" d="M404.35,390.13c-10-7.6-5.94-18.37,3.91-35.34C408.13,362.59,405.78,383.44,404.35,390.13Z"/>
        </g>
        <g>
          <path class="cls-30" d="M374.77,457.32c3.63-12,15.14-12,34.47-8.69C407.83,462.44,382.92,467.27,374.77,457.32Z"/>
          <path class="cls-31" d="M374.77,457.32c3.63-12,15.14-12,34.47-8.69C401.89,451.23,381.53,456.32,374.77,457.32Z"/>
        </g>
        <g>
          <path class="cls-30" d="M426.77,397.81c3.63-12,15.14-12,34.48-8.69C459.84,402.93,434.93,407.76,426.77,397.81Z"/>
          <path class="cls-31" d="M426.77,397.81c3.63-12,15.14-12,34.48-8.69C453.9,391.72,433.54,396.81,426.77,397.81Z"/>
        </g>
        <polyline class="cls-29" points="284.38 454.37 250.47 422.4 215.09 409 249.4 418.65 245.11 390.77 252.42 420.19 285.19 450.95"/>
        <g>
          <path class="cls-30" d="M253.53,422.78c-6.48-10.75-18-7.85-36.49.21C221.74,436.06,247.76,434.5,253.53,422.78Z"/>
          <path class="cls-31" d="M253.53,422.78c-6.48-10.75-18-7.85-36.49.21C225,423.68,246.54,423.51,253.53,422.78Z"/>
        </g>
        <g>
          <path class="cls-30" d="M248.69,400.14c7-10.4-.44-19.6-15.54-33C223.27,376.89,235.63,399.83,248.69,400.14Z"/>
          <path class="cls-31" d="M248.69,400.14c7-10.4-.44-19.6-15.54-33C235.87,374.64,245.09,394.1,248.69,400.14Z"/>
        </g>
        <g>
          <path class="cls-37" d="M217.5,401.43c-8.34-17.62-24.39-7.71-1.5,1.43-21.08-8.46-26.59,7.61-.4,1.87-26.19,5.74-18.66,20,.83,1.59-24.32,22.65-3.57,24.78,1.77.69-7.76,32.49,12.88,20.09,2-.44,13.05,28.62,24.42,7.72,1.51-1.41,27.39,10.91,26.62-7.61.41-1.86,26.21-5.75,18.66-20-.84-1.6,17.7-15.85,3.57-24.78-1.77-.7C224.33,382.39,206.66,380.92,217.5,401.43Z"/>
          <path class="cls-36" d="M211.33,408c-2-3.7,0-8.56,4.3-10.85s9.45-1.14,11.4,2.55,0,8.58-4.3,10.86S213.3,411.69,211.33,408Z"/>
        </g>
        <g>
          <path class="cls-12" d="M280.38,287.53s1.08-11.16,10.55-16.37,7.66-4.48,12.4-9.68c0,0,7.27-5.86,10.08-1.44s-3.76,12.16-8.85,14.21c0,0,1.4,6.15,9.82,1.26s18.08-13.72,27.55-11.51c0,0,3,1.42,1.58,3.78,0,0,8.43,3.16,1.93,11.51,0,0,2.64,5.68-7.54,10.41,0,0,.75,8.54-19.61,12s-28.92,0-28.92,0"/>
          <path class="cls-12" d="M337.9,289.7s1.23-3.1-3.22-5.1-13.16,5.15-19.59,5.89"/>
          <path class="cls-12" d="M345.91,280.5s-.7-4-5.5-4.1-16.73,8.83-25.85,10.94"/>
          <path class="cls-12" d="M345.33,268.73s-2.69-2.42-7.37.63-17.73,10.56-22.87,11.2"/>
        </g>
        <path class="cls-12" d="M304.32,274s4,10.66-7.36,13.71"/>
        <path class="cls-12" d="M312.23,276.62s8.29,5.89,2.18,17.23"/>
        <g>
          <g>
            <path class="cls-6" d="M268.92,493.83c-8.8,1.18-13-5.6-14.54-13.24-1.29-6.94-.36-14.35,3.7-15.27,4-1.27,11.83,5,15.54,12C277.9,484.83,277.61,493.58,268.92,493.83Z"/>
            <path class="cls-7" d="M264,445.4c10.32,3.23,10.7,8.56,8.06,12.67-2.95,4.52-9.32,7.6-13.32,6.81-3.95-1.35-7.94-7.2-8.18-12.59C250.34,447.4,253.42,443,264,445.4Z"/>
            <path class="cls-6" d="M289.3,473.32c.06,8.76-7.34,5.89-15.11,2.32-7.57-3.86-15.35-8.3-15.9-11.52-.52-3.06,7.11-6.43,14.84-5.21C280.65,459.82,289.15,465.35,289.3,473.32Z"/>
            <path class="cls-8" d="M233.16,483.85c-7.31-4.55-2.73-12.26,5-16.5,7-4.07,17-5.36,19.64-2.32,3,3-.25,9.67-5.1,14.9C247.23,485.61,240.07,489.3,233.16,483.85Z"/>
            <path class="cls-6" d="M229.7,453.25c6.23-6.32,15.65-5.24,21.44-1.47,6.23,3.76,9.31,10.8,6.77,12.75-2.83,2.12-11.86,1.1-20-.32C229.94,462.46,223,460.32,229.7,453.25Z"/>
            <g>
              <path class="cls-9" d="M258.92,464.59l-.28-.07c.34-1.53.64-3,1-4.53l.28.08C259.57,461.54,259.25,463.05,258.92,464.59Z"/>
              <path class="cls-9" d="M254.54,460.12l.21-.09c1.26,1.43,2.45,2.9,3.64,4.42a.83.83,0,0,0-.23.1C257,463,255.76,461.55,254.54,460.12Z"/>
              <path class="cls-9" d="M257.84,464.73c-1.93-.59-3.89-1.08-5.87-1.52a1,1,0,0,1,.06-.2c2,.44,3.94.95,5.87,1.52Z"/>
              <path class="cls-9" d="M258.16,465.27c-1.81.62-3.61,1.3-5.42,2a1.82,1.82,0,0,0-.14-.19c1.81-.72,3.6-1.4,5.42-2A1.1,1.1,0,0,0,258.16,465.27Z"/>
              <path class="cls-9" d="M257.5,470l-.26-.07c.33-1.41.65-2.81,1-4.19l.27.07C258.16,467.14,257.84,468.54,257.5,470Z"/>
              <path class="cls-9" d="M262.82,469.56a2.12,2.12,0,0,1-.21.11c-1.24-1.25-2.49-2.47-3.78-3.64a.59.59,0,0,1,.19-.11C260.31,467.08,261.58,468.31,262.82,469.56Z"/>
              <path class="cls-9" d="M259.66,465.14c1.92.55,3.84,1.18,5.75,1.85a1.21,1.21,0,0,0-.05.18c-1.92-.67-3.84-1.28-5.76-1.81C259.62,465.3,259.64,465.22,259.66,465.14Z"/>
              <path class="cls-9" d="M264.57,463.18c-1.74.5-3.5,1.05-5.26,1.68a1.43,1.43,0,0,0-.14-.2c1.74-.61,3.5-1.17,5.26-1.67A1.56,1.56,0,0,1,264.57,463.18Z"/>
            </g>
            <path class="cls-9" d="M253.57,463.68c-.52,2.09,1.36,4.26,4.13,5s5.46-.2,6-2.27-1.24-4.38-4.07-5.14S254.07,461.65,253.57,463.68Z"/>
            <path class="cls-10" d="M255.82,464.19c-.28,1.15.76,2.39,2.31,2.81s3.1-.13,3.4-1.29-.7-2.45-2.28-2.87S256.13,463,255.82,464.19Z"/>
            <path class="cls-10" d="M259.49,460.75c.65.19,1.32,0,1.46-.45s-.27-1-.93-1.18-1.31,0-1.45.47S258.84,460.55,259.49,460.75Z"/>
            <path class="cls-10" d="M255.1,460.63a.49.49,0,0,0,.28-.81,1.17,1.17,0,0,0-1.19-.3.5.5,0,0,0-.28.82A1.16,1.16,0,0,0,255.1,460.63Z"/>
            <path class="cls-10" d="M253,463.34c.12-.35-.2-.77-.71-.89a1,1,0,0,0-1.18.45c-.12.37.19.75.7.89A1,1,0,0,0,253,463.34Z"/>
            <path class="cls-10" d="M253.74,466.81a1.5,1.5,0,0,0-1.68-.44.79.79,0,0,0-.46,1.23,1.5,1.5,0,0,0,1.67.45A.79.79,0,0,0,253.74,466.81Z"/>
            <path class="cls-10" d="M257.66,469.14a.81.81,0,0,0-1.05.34.71.71,0,0,0,.55.89.84.84,0,0,0,1.06-.32A.74.74,0,0,0,257.66,469.14Z"/>
            <path class="cls-10" d="M262.19,469.07a.51.51,0,0,0-.33.8,1,1,0,0,0,1.06.43.51.51,0,0,0,.33-.79A1,1,0,0,0,262.19,469.07Z"/>
            <path class="cls-10" d="M264.4,466.65c-.18.37.11.89.66,1.14s1.13.13,1.3-.26-.11-.9-.66-1.15A1,1,0,0,0,264.4,466.65Z"/>
            <path class="cls-10" d="M263.8,463.08a1.42,1.42,0,0,0,1.35.57.57.57,0,0,0,.43-.92,1.33,1.33,0,0,0-1.32-.57A.59.59,0,0,0,263.8,463.08Z"/>
          </g>
          <g>
            <path class="cls-6" d="M349.25,502.24c-8.81,1.18-13-5.59-14.54-13.23-1.29-6.94-.36-14.35,3.7-15.27,4-1.28,11.83,5,15.54,12C358.23,493.25,357.94,502,349.25,502.24Z"/>
            <path class="cls-7" d="M344.29,453.81c10.32,3.24,10.7,8.57,8.06,12.68-3,4.52-9.32,7.6-13.32,6.8-3.95-1.34-7.94-7.19-8.18-12.59C330.67,455.82,333.74,451.4,344.29,453.81Z"/>
            <path class="cls-6" d="M369.63,481.74c.06,8.76-7.34,5.89-15.12,2.32-7.56-3.86-15.34-8.31-15.9-11.52s7.12-6.44,14.84-5.21C361,468.24,369.48,473.77,369.63,481.74Z"/>
            <path class="cls-8" d="M313.49,492.27c-7.31-4.56-2.74-12.26,5-16.5,7-4.07,17-5.36,19.64-2.32,3,2.95-.25,9.67-5.1,14.89C327.56,494,320.4,497.72,313.49,492.27Z"/>
            <path class="cls-6" d="M310,461.67c6.23-6.32,15.65-5.24,21.44-1.47,6.23,3.76,9.31,10.8,6.76,12.75-2.83,2.12-11.85,1.09-20-.32C310.27,470.88,303.35,468.74,310,461.67Z"/>
            <g>
              <path class="cls-9" d="M339.25,473l-.28-.06c.34-1.53.64-3,1-4.53l.28.07C339.9,470,339.58,471.47,339.25,473Z"/>
              <path class="cls-9" d="M334.86,468.53l.22-.08c1.26,1.43,2.45,2.9,3.64,4.42a.61.61,0,0,0-.23.1C337.3,471.44,336.09,470,334.86,468.53Z"/>
              <path class="cls-9" d="M338.17,473.15c-1.93-.59-3.89-1.08-5.87-1.52a1,1,0,0,1,.06-.2c2,.44,3.94.95,5.87,1.52Z"/>
              <path class="cls-9" d="M338.49,473.69c-1.81.62-3.61,1.3-5.43,2a.92.92,0,0,0-.13-.19c1.81-.72,3.6-1.4,5.42-2A1.1,1.1,0,0,0,338.49,473.69Z"/>
              <path class="cls-9" d="M337.83,478.37l-.26-.07c.33-1.41.65-2.81,1-4.19l.27.07C338.49,475.56,338.17,477,337.83,478.37Z"/>
              <path class="cls-9" d="M343.15,478a2.12,2.12,0,0,1-.21.11c-1.24-1.25-2.5-2.48-3.78-3.64a.88.88,0,0,1,.19-.12C340.64,475.5,341.91,476.73,343.15,478Z"/>
              <path class="cls-9" d="M340,473.56c1.92.55,3.84,1.18,5.75,1.85a1.21,1.21,0,0,0-.05.18q-2.88-1-5.76-1.82Q340,473.68,340,473.56Z"/>
              <path class="cls-9" d="M344.9,471.6c-1.75.5-3.5,1-5.27,1.68a.86.86,0,0,0-.13-.2c1.74-.61,3.5-1.17,5.26-1.67A1.56,1.56,0,0,1,344.9,471.6Z"/>
            </g>
            <path class="cls-9" d="M333.9,472.1c-.52,2.09,1.36,4.25,4.13,5s5.46-.2,6-2.26-1.24-4.38-4.07-5.14S334.4,470.07,333.9,472.1Z"/>
            <path class="cls-10" d="M336.15,472.61c-.28,1.15.76,2.39,2.31,2.81s3.09-.13,3.4-1.29-.71-2.45-2.28-2.87S336.46,471.46,336.15,472.61Z"/>
            <path class="cls-10" d="M339.82,469.16c.65.2,1.31,0,1.46-.44s-.27-1-.93-1.18-1.31,0-1.45.47S339.17,469,339.82,469.16Z"/>
            <path class="cls-10" d="M335.43,469.05a.49.49,0,0,0,.28-.81,1.17,1.17,0,0,0-1.19-.3.5.5,0,0,0-.28.82A1.18,1.18,0,0,0,335.43,469.05Z"/>
            <path class="cls-10" d="M333.35,471.75c.11-.34-.2-.77-.72-.88a1,1,0,0,0-1.17.45c-.12.36.18.75.7.89A1,1,0,0,0,333.35,471.75Z"/>
            <path class="cls-10" d="M334.07,475.23a1.5,1.5,0,0,0-1.68-.44.79.79,0,0,0-.46,1.23,1.5,1.5,0,0,0,1.67.45A.79.79,0,0,0,334.07,475.23Z"/>
            <path class="cls-10" d="M338,477.56a.8.8,0,0,0-1,.34.72.72,0,0,0,.55.89.84.84,0,0,0,1.06-.32A.74.74,0,0,0,338,477.56Z"/>
            <path class="cls-10" d="M342.52,477.49a.51.51,0,0,0-.33.8,1,1,0,0,0,1.06.43.51.51,0,0,0,.33-.79A1,1,0,0,0,342.52,477.49Z"/>
            <path class="cls-10" d="M344.73,475.07c-.19.37.11.89.65,1.14s1.14.13,1.31-.26-.12-.9-.66-1.15A1,1,0,0,0,344.73,475.07Z"/>
            <path class="cls-10" d="M341.17,476.92a1.42,1.42,0,0,0,1.35.57.57.57,0,0,0,.43-.92,1.33,1.33,0,0,0-1.32-.57A.59.59,0,0,0,341.17,476.92Z"/>
          </g>
          <g>
            <path class="cls-6" d="M343.19,426.55c-8.81,1.18-13-5.59-14.54-13.23-1.29-6.94-.36-14.35,3.7-15.27,4-1.28,11.83,5,15.54,12C352.17,417.56,351.88,426.31,343.19,426.55Z"/>
            <path class="cls-7" d="M338.22,378.12c10.33,3.24,10.71,8.57,8.07,12.68-3,4.52-9.32,7.6-13.32,6.8-4-1.34-7.94-7.2-8.18-12.59C324.61,380.13,327.68,375.71,338.22,378.12Z"/>
            <path class="cls-6" d="M363.57,406.05c.06,8.76-7.34,5.89-15.12,2.32-7.56-3.86-15.35-8.31-15.9-11.52s7.12-6.44,14.84-5.21C354.92,392.55,363.42,398.07,363.57,406.05Z"/>
            <path class="cls-8" d="M307.43,416.58c-7.31-4.56-2.74-12.26,5-16.5,7-4.07,17-5.36,19.63-2.32,3,2.95-.24,9.67-5.09,14.89C321.5,418.34,314.34,422,307.43,416.58Z"/>
            <path class="cls-6" d="M304,386c6.23-6.32,15.65-5.24,21.44-1.47,6.23,3.76,9.31,10.8,6.76,12.75-2.83,2.12-11.85,1.09-20-.32C304.21,395.19,297.29,393.05,304,386Z"/>
            <g>
              <path class="cls-9" d="M333.19,397.31l-.28-.06c.34-1.53.64-3,1-4.53l.28.07C333.84,394.27,333.51,395.78,333.19,397.31Z"/>
              <path class="cls-9" d="M328.8,392.84l.22-.08c1.25,1.43,2.45,2.9,3.64,4.42a.85.85,0,0,0-.23.09C331.24,395.75,330,394.28,328.8,392.84Z"/>
              <path class="cls-9" d="M332.1,397.46c-1.92-.59-3.88-1.08-5.87-1.52,0-.08,0-.14.07-.2,2,.44,3.94.95,5.87,1.51A1.29,1.29,0,0,1,332.1,397.46Z"/>
              <path class="cls-9" d="M332.43,398c-1.81.62-3.61,1.3-5.43,2a.92.92,0,0,0-.13-.19c1.81-.72,3.6-1.4,5.42-2A1.1,1.1,0,0,0,332.43,398Z"/>
              <path class="cls-9" d="M331.76,402.68l-.25-.07c.33-1.41.65-2.81,1-4.19l.27.07C332.43,399.87,332.1,401.26,331.76,402.68Z"/>
              <path class="cls-9" d="M337.09,402.29a2.12,2.12,0,0,1-.21.11c-1.24-1.25-2.5-2.48-3.78-3.64a1.13,1.13,0,0,1,.18-.12C334.58,399.81,335.84,401,337.09,402.29Z"/>
              <path class="cls-9" d="M333.93,397.87c1.91.55,3.84,1.18,5.74,1.85,0,.06,0,.12,0,.18q-2.88-1-5.76-1.82Q333.9,398,333.93,397.87Z"/>
              <path class="cls-9" d="M338.84,395.91c-1.75.5-3.51,1-5.27,1.68a.86.86,0,0,0-.13-.2q2.61-.92,5.26-1.67A1.56,1.56,0,0,1,338.84,395.91Z"/>
            </g>
            <path class="cls-9" d="M327.84,396.41c-.52,2.09,1.36,4.25,4.12,5s5.46-.2,6-2.26-1.24-4.38-4.07-5.14S328.34,394.38,327.84,396.41Z"/>
            <path class="cls-10" d="M330.09,396.92c-.28,1.15.76,2.39,2.31,2.81s3.09-.13,3.4-1.29-.71-2.45-2.29-2.87S330.39,395.77,330.09,396.92Z"/>
            <path class="cls-10" d="M333.76,393.47c.65.2,1.31,0,1.45-.45s-.26-1-.92-1.17-1.31,0-1.45.47S333.1,393.28,333.76,393.47Z"/>
            <path class="cls-10" d="M329.37,393.36a.49.49,0,0,0,.28-.81,1.17,1.17,0,0,0-1.19-.3.5.5,0,0,0-.28.82A1.18,1.18,0,0,0,329.37,393.36Z"/>
            <path class="cls-10" d="M327.29,396.06c.11-.34-.2-.77-.72-.88a1,1,0,0,0-1.17.45c-.12.36.18.75.7.89A1,1,0,0,0,327.29,396.06Z"/>
            <path class="cls-10" d="M328,399.54a1.52,1.52,0,0,0-1.68-.45.8.8,0,0,0-.46,1.24,1.52,1.52,0,0,0,1.67.45A.8.8,0,0,0,328,399.54Z"/>
            <path class="cls-10" d="M331.92,401.87a.8.8,0,0,0-1,.34.72.72,0,0,0,.55.89.84.84,0,0,0,1.06-.32A.74.74,0,0,0,331.92,401.87Z"/>
            <path class="cls-10" d="M336.46,401.8a.51.51,0,0,0-.33.8,1,1,0,0,0,1.06.43.51.51,0,0,0,.33-.79A1,1,0,0,0,336.46,401.8Z"/>
            <path class="cls-10" d="M338.67,399.38c-.19.37.11.89.65,1.14a1,1,0,0,0,1.31-.26c.18-.39-.12-.9-.66-1.15A1,1,0,0,0,338.67,399.38Z"/>
            <path class="cls-10" d="M338.07,395.81a1.4,1.4,0,0,0,1.35.56.56.56,0,0,0,.43-.91,1.31,1.31,0,0,0-1.32-.57A.59.59,0,0,0,338.07,395.81Z"/>
          </g>
        </g>
      </g>
    </g>
  </g>
</svg>
