<svg xmlns="http://www.w3.org/2000/svg" xmlns:xlink="http://www.w3.org/1999/xlink" width="273" height="512" viewBox="0 0 273 512">
  <defs>
    <style>
      .cls-1 {
        isolation: isolate;
      }

      .cls-2 {
        fill: #cca9ff;
        stroke: #323232;
        stroke-width: 3px;
      }

      .cls-2, .cls-6, .cls-8 {
        stroke-miterlimit: 10;
      }

      .cls-3 {
        fill: #b79c2c;
      }

      .cls-4 {
        fill: #ceb345;
      }

      .cls-5 {
        fill: #e5ca5a;
      }

      .cls-6 {
        fill: #5acc90;
        stroke: #387a56;
      }

      .cls-6, .cls-8 {
        stroke-width: 0.5px;
      }

      .cls-7 {
        fill: #4bb77c;
      }

      .cls-8 {
        fill: #8e8e8e;
        stroke: #505151;
      }

      .cls-9 {
        mix-blend-mode: overlay;
        opacity: 0.4;
        fill: url(#linear-gradient);
      }
    </style>
    <linearGradient id="linear-gradient" x1="298.84" y1="862.71" x2="310.22" y2="862.71" gradientTransform="matrix(0.95, 0.31, -0.31, 0.95, 135.8, -677.98)" gradientUnits="userSpaceOnUse">
      <stop offset="0.02" stop-color="#fff"/>
      <stop offset="0.72" stop-color="#636060"/>
      <stop offset="1" stop-color="#231f20"/>
    </linearGradient>
  </defs>
  <g class="cls-1">
    <g id="Layer_1" data-name="Layer 1">
      <g>
        <rect class="cls-2" x="3.32" y="133.77" width="266.35" height="244.47" rx="8.77"/>
        <g>
          <path class="cls-3" d="M140.22,352.33c-1.44,1.46-3.92,1-5.7,0a12,12,0,0,1-4.61-4.75c-.46-2.38-.95-4.76-1.5-7.12L120,336.41l-3.09-.63-.09,0h0l-4.69-3.69c-1.65.05-3.06,1.21-4.67,1.57a13.9,13.9,0,0,1-4.54-.21,21.5,21.5,0,0,0-2.54-.13l-11-1.35a2.13,2.13,0,0,0-.38,1.63,12.38,12.38,0,0,1-4.16-1.23,10.6,10.6,0,0,1-5.59-8.08c-.06-.48-.17-1.09-.65-1.2a1.25,1.25,0,0,0-.6.06A7.28,7.28,0,0,1,74,323c1.15,3.67,2.44,7.54,4.91,10.38A34,34,0,0,0,74,332.26a23.51,23.51,0,0,0-7.35-3.07,1.78,1.78,0,0,0-1,0,1.88,1.88,0,0,0-.91,1.06l-.87,1.8a1.1,1.1,0,0,0-.16.63,44.14,44.14,0,0,0-8.2,2.35L57,336.78a1.11,1.11,0,0,0,.47.39,1.14,1.14,0,0,0,.7-.07,26.74,26.74,0,0,1,12.14-.5,7.75,7.75,0,0,0-1.26.32c-2.09.73-3.77,2.29-5.66,3.44a15.65,15.65,0,0,1-10,2.12c-1.8-.23-3.7-.77-5.38-.08l10.52,2.38v0a24.93,24.93,0,0,0-8.44.32.61.61,0,0,0-.43.21.67.67,0,0,0-.06.42,19.33,19.33,0,0,0,.53,3.28,5.45,5.45,0,0,0,2.61.19,21.81,21.81,0,0,1,5.22.39c-2.85.4-5.65,1.46-7.31,3.74a35.65,35.65,0,0,1,15.48.68,12.71,12.71,0,0,0,1.44,4.6A17,17,0,0,1,77,359a10,10,0,0,0,2.35.95l.22.12c.84,1.18,1.67,2.37,2.51,3.56,2.74-1.62,6.21-1.47,9.24-.52s5.79,2.59,8.68,3.92a42.78,42.78,0,0,0,16.81,3.84,1.81,1.81,0,0,1-.39.87,2.9,2.9,0,0,1-2.46.66,9.75,9.75,0,0,0,5.72.42,42.92,42.92,0,0,0,8.06-2,3.24,3.24,0,0,0,1.39-.81,2.72,2.72,0,0,0,.53-1.39c0-.07,0-.15,0-.23a7.24,7.24,0,0,0,.71-1.24,14.57,14.57,0,0,0,1-3.09,6.35,6.35,0,0,0,2.3.86,3.79,3.79,0,0,1,1.75-2.64c.36-.21.79-.42.89-.82a8,8,0,0,1-4.72-2.74c-.07-.76-.18-1.52-.28-2.28-.08-.54-.17-1.08-.26-1.62a12.87,12.87,0,0,1,5,3.23c.25-.57,1.24.06,1.73-.32s0-1.1-.1-1.71C137.53,354.43,139.93,353.81,140.22,352.33Z"/>
          <path class="cls-4" d="M119,345.83l-2.12,0L106.6,356.62c-1.85,1.93-3.87,3.95-6.48,4.5-3.2.66-6.38-1.06-9.64-1.28,0,.32-.08.64-.13,1,2,.6,3.9,1.59,5.91,2.24a8.74,8.74,0,0,0,6.17,0c1.86-.83,3.12-2.56,4.73-3.8,2.36-1.82,5.44-2.57,7.64-4.57C117.26,352.47,118.2,349.06,119,345.83Z"/>
          <path class="cls-4" d="M117.36,332.88l-4.76.58a10.53,10.53,0,0,1-7.29,1.87c-2.56-.16-5.07-.81-7.63-1.06s-5.39-.09-8.06-.41a37.25,37.25,0,0,0-3.93-.46c-1.33,0-2.66.22-4,.26a26.94,26.94,0,0,1-4.9-.41l-8.22-1.19a13.93,13.93,0,0,1,1.28,3.24,1.17,1.17,0,0,0,1,1.19,99.29,99.29,0,0,0,20.47,3.42c4.76.29,9.55.22,14.28.81a16.74,16.74,0,0,0,4.17.24C113.72,340.49,116.7,336.78,117.36,332.88Z"/>
          <path class="cls-5" d="M113.32,340.25a14.17,14.17,0,0,1-4,.52,60,60,0,0,1-13.7-1.25c-1.91-.39-3.81-.88-5.74-1.16a54,54,0,0,0-5.82-.39,56.28,56.28,0,0,0-11.61.47,18.79,18.79,0,0,0-10.29,5.05l-.11-.08a4,4,0,0,1-.08,2.52,31.27,31.27,0,0,1,20.22-6.05c6.55.38,12.88,2.83,19.44,2.89,4.53,0,9-1.06,13.53-1.1a18.61,18.61,0,0,0,2-4.06A8.26,8.26,0,0,1,113.32,340.25Z"/>
          <path class="cls-5" d="M80.17,350.9a6.62,6.62,0,0,1,3.74-3.2,19.17,19.17,0,0,1,4.93-1l12.64-1.41c3.78-.41,8-1,10.38-4a20.34,20.34,0,0,0,2.43-4.56.68.68,0,0,1,.26-.34.7.7,0,0,1,.53,0l3.5,1.07a16.94,16.94,0,0,1-8.26,9.6c-8.34,4.27-19,1.11-27.33,5.44a1.72,1.72,0,0,1-.8.26,1.52,1.52,0,0,1-.55-.13l-2.23-.82"/>
          <path class="cls-5" d="M76.06,346.79a24.27,24.27,0,0,1,5.29-.62c1.52,0,3,.12,4.55.06a36.25,36.25,0,0,0,8.88-1.83L85,342.57a29.64,29.64,0,0,0-10.82.44,20.09,20.09,0,0,0-4.1,1.27c-2.64,1.17-4.87,3.14-7.55,4.2a20.81,20.81,0,0,1-4.69,1.11l.17,0c-2.85.4-5.65,1.46-7.31,3.74a35.29,35.29,0,0,1,9.46-.39l1.62-.68,6.66-2.79A48.12,48.12,0,0,1,76.06,346.79Z"/>
          <path class="cls-5" d="M119.7,359.15c.42-2.6-1.26-5.23-.71-7.81a12,12,0,0,1,2-3.83,20.07,20.07,0,0,0,2.78-6.93l-1.58-.2a12.76,12.76,0,0,0-5.5,9.51c-.23,3.27.77,6.85-.89,9.68a3.52,3.52,0,0,1-1.46,1.45,6.73,6.73,0,0,1-2.65.29,9.38,9.38,0,0,0-5.49,1.93,7.27,7.27,0,0,1,6.54,1.2c.32-1,1.75-1.05,2.83-1.22A5.07,5.07,0,0,0,119.7,359.15Z"/>
          <path class="cls-5" d="M114.64,348.78a25.64,25.64,0,0,0,4.11-4c1.22-1.35,2.52-3,2.26-4.77l-1-.49-2.27-1.11a26.46,26.46,0,0,1-8.58,8.49c-3,1.67-6.36,2.45-9.63,3.43a76.8,76.8,0,0,0-20.12,9.56l.2.11q1.26,1.77,2.51,3.56a9.2,9.2,0,0,1,4.09-1.2c3-.57,6.3-.51,9.23-1.52,4.82-1.66,8.19-6,12.59-8.56C110.18,351.06,112.59,350.23,114.64,348.78Z"/>
          <path class="cls-4" d="M136.39,361.36a8,8,0,0,1-4.72-2.74c0-.15-4.34-6.29-5.21-9.7a15.63,15.63,0,0,1,.36-9.21l-1.35-.65L122.94,341c-1.32,3.08-2.09,12.72-.85,15.82.88,2.2,2.9,3.72,4.93,4.93a31.42,31.42,0,0,0,4.43,2.21,6.35,6.35,0,0,0,2.3.86,3.79,3.79,0,0,1,1.75-2.64C135.86,362,136.29,361.76,136.39,361.36Z"/>
          <g>
            <path class="cls-4" d="M127.93,343c.09.48.67.66,1.15.54-.21-1-.43-2-.67-3L120,336.41l-3.09-.63-.09,0h0l-4.69-3.69c-1.34,0-2.53.81-3.8,1.29a3.45,3.45,0,0,1-2.65,2.59l2.49-.09a14.6,14.6,0,0,1-5.07.94,13.59,13.59,0,0,0,6.88-.12,26.33,26.33,0,0,1-14.37,2.26,23.77,23.77,0,0,0,16,1.28c-1.26,1.53-4.35,3.22-5.26,3.78,1.23,0,5.57.07,6.16-3.43-.6,3.18-3.79,5.08-6.67,6.57-1.45.75-8.92.45-10.37,1.2,2.25-1,11,.54,13.42-.17,3-.87,5.13-3.45,8-4.69-1.38,2.24-2.77,4.47-4.16,6.71,2.59-1,4.22-3.5,5.68-5.86-.68,3.14-1.36,6.29-2,9.43a11.84,11.84,0,0,1,2-4.46.07.07,0,0,0,.07,0c.19,0,.33-.18.4-.37a18.35,18.35,0,0,1,2.49-4.17c-.18,2.32-1.4,4.62-1.13,6.3.52-2.67,2.52-5.22,4.11-7.44l3.66,6.18A26.62,26.62,0,0,1,127.93,343Z"/>
            <path class="cls-4" d="M105.66,335.94l-.35,0A2,2,0,0,0,105.66,335.94Z"/>
          </g>
          <path class="cls-5" d="M120.48,372.63a28.11,28.11,0,0,0,2.15-5,11,11,0,0,0,.17-6.27c-.43-1.41-1.23-2.7-1.68-4.09a26.34,26.34,0,0,1,.49,4.31c-.32,3-2.09,5.59-4,7.95-.37.47-1,1.31-.82,1.31a1.81,1.81,0,0,1-.39.87,2.9,2.9,0,0,1-2.46.66,9.75,9.75,0,0,0,5.72.42Z"/>
          <path class="cls-4" d="M75.81,354.35c-3.22-.16-6.59-.75-9.64,0a13.76,13.76,0,0,0,1.41,4.24,16.51,16.51,0,0,1,4.26-.51,36.68,36.68,0,0,1,3.77-1.33c4-1.12,8.37-1.36,11.61-3.91A32.91,32.91,0,0,1,75.81,354.35Z"/>
          <path class="cls-6" d="M129.83,341.4s-3.09,2.65-11.33-1.1c-7.9-3.59-8.35-8-8.35-8l8.77-11s2.53-.95,6.65.71c4.51,1.82,5.49,4.62,5.49,4.62Z"/>
          <path class="cls-7" d="M125.76,334.13c.69-2.78,3.23-4.64,4.91-7a7.54,7.54,0,0,1-8.11.27,7.12,7.12,0,0,1-3.35-5.95l-.17.06-8.66,10.83s.22,4.35,8.12,7.94c8.24,3.75,11.33,1.1,11.33,1.1v-.1a7.83,7.83,0,0,0-.78-.36A6.11,6.11,0,0,1,125.76,334.13Z"/>
          <path class="cls-8" d="M126.92,326.31s-.83.67-3,.06a2.76,2.76,0,0,1-2-1.95l67.68-179.7s.48-.9,3,.14c1.85.75,2,1.75,2,1.75Z"/>
          <path class="cls-9" d="M123.93,326.39a5.43,5.43,0,0,0,2.24.19l68-179.83a4.53,4.53,0,0,1-1.22-.07,9.45,9.45,0,0,1-1.16-.27Z"/>
        </g>
      </g>
    </g>
  </g>
</svg>
