<svg xmlns="http://www.w3.org/2000/svg" width="273" height="512" viewBox="0 0 273 512">
  <defs>
    <style>
      .cls-1 {
        isolation: isolate;
      }

      .cls-2 {
        fill: #cca9ff;
        stroke: #323232;
        stroke-miterlimit: 10;
        stroke-width: 3px;
      }

      .cls-3 {
        fill: #ee3a59;
      }

      .cls-4 {
        fill: #efca58;
      }

      .cls-5 {
        fill: #c61c40;
      }

      .cls-6 {
        fill: #ebe9df;
      }

      .cls-7 {
        fill: #e0ddc9;
      }

      .cls-8 {
        fill: #dedede;
        mix-blend-mode: multiply;
      }

      .cls-9 {
        fill: #d1a730;
      }
    </style>
  </defs>
  <g class="cls-1">
    <g id="Layer_1" data-name="Layer 1">
      <g>
        <rect class="cls-2" x="3.32" y="133.77" width="266.35" height="244.47" rx="8.77"/>
        <g>
          <path class="cls-3" d="M186.13,173,190,196.68l7.64,46.11-97,70.93L108.41,359a2.43,2.43,0,0,0,3.93,1.47l105.48-86.63a6,6,0,0,0,2.13-5.67L213.8,231,206,183.6l-.58-3.49a17.71,17.71,0,0,0-11.23-13.68,6,6,0,0,0-8,6.59Z"/>
          <g>
            <polygon class="cls-4" points="192.64 185.38 188.71 188.62 190.04 196.68 197.68 242.79 185.52 251.68 192.62 294.55 208.54 281.47 192.64 185.38"/>
            <polygon class="cls-4" points="109.36 307.41 117.38 356.34 120.16 354.06 112.15 305.36 109.36 307.41"/>
          </g>
          <path class="cls-5" d="M186.13,173,190,196.68,206,183.6l-.58-3.49a17.71,17.71,0,0,0-11.23-13.68,6,6,0,0,0-8,6.59Z"/>
          <path class="cls-6" d="M188.29,171c-.92,1-1.4,2.63-1.11,4.93h0l.21,3,5,71.59-102.93,98a31.49,31.49,0,0,1,5.89,1.35c.83.27,1.65.59,2.45.92s1.63.71,2.41,1.11,1.45.75,2.16,1.16c.88.5,1.75,1,2.58,1.6.65.44,1.3.89,1.92,1.36s1,.79,1.55,1.19l108.07-88.79-14.16-86.57a18,18,0,0,0-1.38-4.49,17.45,17.45,0,0,0-2.4-3.84h0c-.19-.24-.4-.47-.6-.7a16.57,16.57,0,0,0-1.34-1.31c-.27-.24-.55-.49-.84-.7l-.41-.32a7.55,7.55,0,0,0-2.21-.81,6.43,6.43,0,0,0-2.31,0A4.36,4.36,0,0,0,188.29,171Z"/>
          <g>
            <path class="cls-7" d="M195.75,170.82l16.79,95.49-107.6,88.37c.65.44,1.3.89,1.92,1.36L215,267.22l-16.46-93.68h0c-.19-.24-.4-.47-.6-.7a16.57,16.57,0,0,0-1.34-1.31C196.32,171.28,196,171,195.75,170.82Z"/>
            <path class="cls-7" d="M190.82,169.65l16.56,94.25-107.18,88c.74.36,1.45.75,2.16,1.16l107.48-88.27-16.71-95.12A6.43,6.43,0,0,0,190.82,169.65Z"/>
            <path class="cls-7" d="M187.18,175.94h0l.21,3L202,262.28,95.34,349.89c.83.27,1.65.59,2.45.92l106.69-87.62L188.29,171C187.37,172,186.89,173.64,187.18,175.94Z"/>
          </g>
          <path class="cls-8" d="M195.55,259.33,89.45,348.54a31.49,31.49,0,0,1,5.89,1.35c.83.27,1.65.59,2.45.92s1.63.71,2.41,1.11,1.45.75,2.16,1.16c.88.5,1.75,1,2.58,1.6.65.44,1.3.89,1.92,1.36s1,.79,1.55,1.19l108.07-88.79Q208.38,262,195.55,259.33Z"/>
          <path class="cls-3" d="M188.24,167.41,76.83,258.92a6,6,0,0,0-2.12,5.61l1.08,6.53,13.35,80.68a2.43,2.43,0,0,0,3.94,1.47l105.78-86.87a5.34,5.34,0,0,0,1.88-5l-13.53-81.78L186.13,173A6,6,0,0,1,188.24,167.41Z"/>
          <g>
            <polygon class="cls-4" points="172.76 180.13 156.84 193.2 172.52 287.97 188.44 274.9 172.76 180.13"/>
            <polygon class="cls-4" points="84.45 252.66 81.69 254.93 97.27 349.78 100.03 347.51 84.45 252.66"/>
          </g>
          <path class="cls-5" d="M188.24,167.41,76.83,258.92a6,6,0,0,0-2.12,5.61l1.08,6.53,111.42-91.51L186.13,173A6,6,0,0,1,188.24,167.41Z"/>
          <g>
            <path class="cls-9" d="M173.36,183.51l1.08,6.53-16.08,13.2-1.07-6.53a5.93,5.93,0,0,1,2.11-5.61l16.08-13.21A6,6,0,0,0,173.36,183.51Z"/>
            <path class="cls-9" d="M84.9,256.16,86,262.69l-2.88,2.37L82,258.53a6,6,0,0,1,2.11-5.62L87,250.55A6,6,0,0,0,84.9,256.16Z"/>
          </g>
        </g>
      </g>
    </g>
  </g>
</svg>
