<svg id="Layer_1" data-name="Layer 1" xmlns="http://www.w3.org/2000/svg" width="273" height="512" viewBox="0 0 273 512">
  <defs>
    <style>
      .cls-1 {
        fill: #cca9ff;
        stroke: #323232;
        stroke-width: 3px;
      }

      .cls-1, .cls-2, .cls-3, .cls-4, .cls-5 {
        stroke-miterlimit: 10;
      }

      .cls-2 {
        fill: #dd372a;
        stroke: #871e18;
      }

      .cls-2, .cls-5 {
        stroke-width: 0.75px;
      }

      .cls-3, .cls-5 {
        fill: #474141;
        stroke: #1e1a1a;
      }

      .cls-3 {
        stroke-width: 0.5px;
      }

      .cls-11, .cls-4 {
        fill: #cecece;
      }

      .cls-4 {
        stroke: #757575;
        stroke-width: 0.25px;
      }

      .cls-6 {
        fill: #c6130a;
      }

      .cls-7 {
        fill: #f45a4a;
      }

      .cls-8 {
        fill: #fff;
      }

      .cls-9 {
        fill: #2f65bc;
      }

      .cls-10 {
        fill: #5886e0;
      }

      .cls-12 {
        fill: #a8a8a8;
      }

      .cls-13 {
        fill: #e2e2e2;
      }

      .cls-14 {
        fill: #332d2d;
      }

      .cls-15 {
        fill: #565050;
      }

      .cls-16 {
        fill: #ff886c;
      }

      .cls-17 {
        fill: #6d6969;
      }
    </style>
  </defs>
  <g>
    <rect class="cls-1" x="3.32" y="133.77" width="266.35" height="244.47" rx="8.77"/>
    <g>
      <path class="cls-2" d="M161.85,209.41c-.57-12.78-18.86-18.88-32.76-18.88s-32.19,6.1-32.76,18.88,0,132.17,0,132.17,19.22,2.63,32.76,1.33c13.54,1.3,32.76-1.33,32.76-1.33S162.42,222.18,161.85,209.41Z"/>
      <path class="cls-3" d="M95.09,324.44H88.63c0-16.42-6-35.74-11.79-54.42-6.91-22.28-13.44-43.33-10.74-60.36,3.84-24.26,20.43-37.58,46.75-37.58h.71l-.06,6.47c-16.35-.14-36.76,5.3-41,32.12C70,226.21,76.34,246.56,83,268.11,89,287.25,95.09,307,95.09,324.44Z"/>
      <path class="cls-4" d="M125.19,170.82c-3.73,0-12.34.22-12.34.22a70.72,70.72,0,0,0-.13,8.49l12.47.33Z"/>
      <path class="cls-4" d="M121.66,175.9a2.1,2.1,0,0,0-.33,1.42l.15,7.93a65.43,65.43,0,0,0,15.38-.45L137,175a124,124,0,0,0-13.9.44A2,2,0,0,0,121.66,175.9Z"/>
      <path class="cls-4" d="M135.15,174.92c-.18-3.07-.26-3.13-.44-6.2a31.94,31.94,0,0,0-10.76.73l-.58,6.18A107.64,107.64,0,0,0,135.15,174.92Z"/>
      <path class="cls-2" d="M128.7,159.59a148.59,148.59,0,0,1,23.78-1c5.47.31,15.93,6.07,16.08,8.1-.39,2-10.08-3.06-12.61-3.9s-11.6.88-21.17,2c.05,2.28.08,3.44.13,5.73-2.66,0-8.5,0-11.16-.05a38.76,38.76,0,0,1,.87-7.89,4.15,4.15,0,0,1,1-2.15C126.37,159.68,127.6,159.73,128.7,159.59Z"/>
      <path class="cls-2" d="M131.91,165c10.86,2.6,25.51,8.38,31.78,14.61.74.73.82,2.9-2.37,1.22-11-5.62-19.41-8.34-31.43-11.32Z"/>
      <path class="cls-2" d="M119.45,192.68c.48-2.8.71-5.78,1.35-9.14a56.55,56.55,0,0,1,17.13-.19c.28,3.84.15,6.19.4,9.81Z"/>
      <path class="cls-5" d="M163.56,347.36a146.18,146.18,0,0,0,1-21.18L162.2,325c0,.79,0,1.59,0,2.38-22.33,3.52-43.88,2.5-66.08,0,0-1.54-.08-.85-.08-2.38l-2.33.62c-.61,7.71-.16,20.24.85,20.68C109.62,352.85,151,352.21,163.56,347.36Z"/>
      <path class="cls-6" d="M135.78,191.85c-4.57-1-9.82-.39-14.38.36-.3,0-.78.58-.22.53,4.69-.35,9.33,0,14-.11C135.44,192.62,136.35,192,135.78,191.85Z"/>
      <path class="cls-6" d="M134.86,168.12c-.09-.62-.24-1.25-.29-1.87,0-.24-.54-.05-.53.15.05.64,0,1.3,0,1.94a4.88,4.88,0,0,0,.1,1.71c.14.36.83-.06.87-.31A4.92,4.92,0,0,0,134.86,168.12Z"/>
      <path class="cls-6" d="M135.91,164.38c-1.89-.3-4.17.42-6,.86-.1,0-.36.28-.12.29a17,17,0,0,0,5.86-.47C135.89,165,136.5,164.48,135.91,164.38Z"/>
      <path class="cls-7" d="M115.62,195.16a28.48,28.48,0,0,0-14.16,10.36,153.61,153.61,0,0,0,38.68.66,55.32,55.32,0,0,0-.69-11.78C131.49,193.53,123.24,192.67,115.62,195.16Z"/>
      <path class="cls-7" d="M132.76,184.54a73.17,73.17,0,0,0-10.34.93l-.52,4.37q5.34,0,10.68-.36Z"/>
      <path class="cls-7" d="M149.41,159.08l-19.63,1.55a5.54,5.54,0,0,0-2.61.64,4.73,4.73,0,0,0-1.76,3.82,15.55,15.55,0,0,1-.44,4.32l4.21-.33q.42-3.14.85-6.26,9.79-.76,19.51-2.26C149.5,160.07,149.45,159.58,149.41,159.08Z"/>
      <path class="cls-7" d="M136.56,169.24c7.18,3.22,14.41,6.46,22.08,8.24a96.8,96.8,0,0,0-21.29-9.59C137.08,168.34,136.82,168.79,136.56,169.24Z"/>
      <path class="cls-7" d="M154,160.94l10.72,3.79a17,17,0,0,0-10.53-4.81C154.16,160.26,154.09,160.6,154,160.94Z"/>
      <path class="cls-7" d="M136.89,326.2C138.24,295,138,242,138.68,210.06l-38,1.64c-1.24,30.21-1.7,82.68-1.39,112.93C111.47,326.93,125.42,327.1,136.89,326.2Z"/>
      <path class="cls-8" d="M154.08,219a312,312,0,0,1-49.39-.06,272.69,272.69,0,0,0-.71,29.5,201.19,201.19,0,0,0,50.1,0C154,238.7,154.94,228.83,154.08,219Z"/>
      <path class="cls-9" d="M151.88,246c-4.38.55-9,.93-13.87,1.13a215.47,215.47,0,0,1-31.8-1.13,203.93,203.93,0,0,1,.65-24.44,312.52,312.52,0,0,0,31.89.71c4.52-.13,8.91-.36,13.13-.66C152.66,229.79,151.8,238,151.88,246Z"/>
      <path class="cls-10" d="M138.75,222.29q-.37,12.44-.74,24.86a215.47,215.47,0,0,1-31.8-1.13,203.93,203.93,0,0,1,.65-24.44A312.52,312.52,0,0,0,138.75,222.29Z"/>
      <path class="cls-11" d="M88.21,337.36a16.75,16.75,0,0,0,6.39-.09q.62-8.17,1.22-16.37l-8.5.65Q87.77,329.46,88.21,337.36Z"/>
      <path class="cls-3" d="M96.08,326.35a57.52,57.52,0,0,0-9.64.19q-.12,7-.25,14.08a33.83,33.83,0,0,0,12.26,4Z"/>
      <path class="cls-12" d="M135.36,175.28a98.4,98.4,0,0,0-12.14.16c-.24,0-.76.51-.31.53A103.73,103.73,0,0,0,135,175.9C135.27,175.87,135.91,175.33,135.36,175.28Z"/>
      <path class="cls-12" d="M123.13,171.18c0-.32-.7-.07-.71.2a10.92,10.92,0,0,0,0,3.33c.07.23.57,0,.61-.17A12.59,12.59,0,0,0,123.13,171.18Z"/>
      <path class="cls-12" d="M120.74,175.5c0-.32-.67-.06-.71.19a7,7,0,0,0,0,3.53c.13.31.86,0,.85-.31A27.62,27.62,0,0,1,120.74,175.5Z"/>
      <path class="cls-13" d="M132.9,176.06a3.82,3.82,0,0,1-2.12.38l-7.66-.12c0,2,0,3.89,0,5.83q4.77-.1,9.51-.55C132.71,179.75,132.81,177.91,132.9,176.06Z"/>
      <path class="cls-13" d="M131.4,171.38l-6.81-.1c0,.91,0,1.82,0,2.73a52,52,0,0,1,6.72-.13A11,11,0,0,1,131.4,171.38Z"/>
      <path class="cls-13" d="M119.39,177l.66-5.11a16.87,16.87,0,0,0-6.3.37v4.84Z"/>
      <path class="cls-14" d="M95.19,328.52c0-.45-1-.09-1,.28a128.42,128.42,0,0,0-.31,14c0,.45.94.09,1-.26A128.81,128.81,0,0,0,95.19,328.52Z"/>
      <path class="cls-15" d="M101.25,345.68a70.72,70.72,0,0,0,34.83,1L136,330.42a277.18,277.18,0,0,1-34.58-.75A111.11,111.11,0,0,0,101.25,345.68Z"/>
      <path class="cls-15" d="M87.77,327.73q0,6,0,12l2.69.51q.63-6.36.92-12.75Z"/>
      <path class="cls-15" d="M90.49,306.67c-.58-3.09-15.65-58.77-17.7-64.78-1-2.95-.69-7.9-1.35-10.94-.39-1.78-.64-3.57-.89-5.37-.22-1.56,0-3.23-.88-4.58-.15-.22-.57,0-.65.18-1.09,2.55-.27,5.95.16,8.62s.69,8.52,1.48,11.27c1.75,6.08,17.58,66.33,18.58,69,.56,1.49.2,3.22.92,4.65.16.34.9,0,1-.26C91.75,312,91,309.16,90.49,306.67Z"/>
      <path class="cls-15" d="M104.94,174.15c-8.75-.7-18.45,4.62-24.73,10.26C73.37,190.57,68.42,200,68.55,209.3c0,.37.7,0,.75-.2,1.74-8.56,4.86-16.46,11-22.83a36.08,36.08,0,0,1,10.5-7.4c4.34-2.08,8.77-2.58,13.41-3.47C104.66,175.31,106.11,174.24,104.94,174.15Z"/>
      <path class="cls-16" d="M120.47,206.78q.94-6.47,1.9-12.93a23.61,23.61,0,0,0-13.31,11.48Q114.81,205.78,120.47,206.78Z"/>
      <path class="cls-16" d="M127.8,189.9a.6.6,0,0,0,.14-.44l.15-4.76-4.12.42-.42,4.61,3.85.24A.56.56,0,0,0,127.8,189.9Z"/>
      <path class="cls-16" d="M106.21,211.72a12.34,12.34,0,0,1-1,5.19,74.07,74.07,0,0,0,17.91-.61v-5.61Z"/>
      <path class="cls-16" d="M140.46,161.17a4.43,4.43,0,0,0,1.54-.24,1.49,1.49,0,0,0,.95-1.15q-6.85.71-13.71,1.21c0,.43-.05.86-.08,1.29A97.35,97.35,0,0,1,140.46,161.17Z"/>
      <path class="cls-16" d="M141.61,169.7c0,.15.09.31.13.47l12.07,5.18c-.23-1-1.3-1.59-2.27-2A66.33,66.33,0,0,0,141.61,169.7Z"/>
      <path class="cls-16" d="M106.92,253.65c-.06,15.53-.13,53.29-.2,68.82l10.65,0c1.8-15.37,2.66-53.08,2.59-68.56Z"/>
      <path class="cls-8" d="M119.44,172.19a20.59,20.59,0,0,0-4.62.59c-.31.08-1.06.79-.34.83a18.24,18.24,0,0,0,4.3-.29,1.51,1.51,0,0,0,.94-.5C119.92,172.54,119.82,172.19,119.44,172.19Z"/>
      <path class="cls-8" d="M126,178.74c-.07-.71,0-1.62-.73-1.92a.46.46,0,0,0-.44.13,2.72,2.72,0,0,0-.73,2c-.07.8-.23,2.07.27,2.73.38.5,1.42.06,1.61-.45A5.42,5.42,0,0,0,126,178.74Z"/>
      <path class="cls-8" d="M125.62,180.86c-.6,0-1.88,1.15-.87,1.15C125.35,182,126.63,180.86,125.62,180.86Z"/>
      <path class="cls-8" d="M130.93,172.1a8,8,0,0,0-3-.08,5.78,5.78,0,0,0-2.65.7c-.07,0-.2.16-.1.24.53.42,1.42.25,2,.25a17.42,17.42,0,0,0,2.89,0C130.41,173.13,131.75,172.35,130.93,172.1Z"/>
      <path class="cls-8" d="M92.73,322.71c-.52.12-1,.27-1.57.38a11.27,11.27,0,0,1-2.08.33c-.1,0-.48.22-.26.28s.44.22.7.27a4.45,4.45,0,0,0,1.15.07,5.41,5.41,0,0,0,2.2-.55C93.47,323.2,93.54,322.52,92.73,322.71Z"/>
      <path class="cls-8" d="M93.82,322.59c-.6,0-1.88,1.15-.87,1.15C93.55,323.74,94.83,322.59,93.82,322.59Z"/>
      <path class="cls-17" d="M83.31,184.5c.14-.15-.17-.14-.24-.08-14.37,9.92-19.9,32.26-11.78,47.69.19.36,1.06,0,.95-.42-2.6-8.73-3.67-17.46-1.45-26.4C72.83,197.09,77.73,190.62,83.31,184.5Z"/>
      <path class="cls-17" d="M75,256.58c-.11-.11-.43.06-.39.21,1.46,5.32,8.45,26.44,9.75,31.83.09.34.89,0,.9-.33C85.44,282.58,78.65,260.52,75,256.58Z"/>
      <path class="cls-17" d="M89.6,328.26c0-.15-.37,0-.39.11a24.57,24.57,0,0,0-.67,9.39c.06.49.94.06,1-.28A23.27,23.27,0,0,0,89.6,328.26Z"/>
      <path class="cls-17" d="M119.3,331.39a33.28,33.28,0,0,1-10.77-.38q-.21,7.61-.41,15.23a53,53,0,0,0,9.82,1A158.77,158.77,0,0,0,119.3,331.39Z"/>
    </g>
  </g>
</svg>
