<svg id="Layer_1" data-name="Layer 1" xmlns="http://www.w3.org/2000/svg" width="273" height="512" viewBox="0 0 273 512">
  <defs>
    <style>
      .cls-1 {
        fill: #cca9ff;
        stroke: #323232;
        stroke-width: 3px;
      }

      .cls-1, .cls-12, .cls-4, .cls-7, .cls-8, .cls-9 {
        stroke-miterlimit: 10;
      }

      .cls-2 {
        fill: #c1392b;
      }

      .cls-3 {
        fill: #107865;
      }

      .cls-10, .cls-4 {
        fill: #1fa4b2;
      }

      .cls-4, .cls-7, .cls-8, .cls-9 {
        stroke: #106266;
      }

      .cls-4, .cls-7, .cls-8 {
        stroke-width: 0.75px;
      }

      .cls-5 {
        fill: #187777;
      }

      .cls-6, .cls-9 {
        fill: #1b959b;
      }

      .cls-7 {
        fill: #106666;
      }

      .cls-8 {
        fill: #158d93;
      }

      .cls-11 {
        fill: #0d3a39;
      }

      .cls-12 {
        fill: #36c7ce;
        stroke: #259e9b;
        stroke-width: 0.5px;
      }

      .cls-13 {
        fill: #22c4c4;
      }
    </style>
  </defs>
  <g>
    <rect class="cls-1" x="3.32" y="133.77" width="266.35" height="244.47" rx="8.77"/>
    <g>
      <path class="cls-2" d="M200.82,168.53l.38.42v0l-.3-.44Z"/>
      <path d="M142.87,215.26a.34.34,0,0,1-.09-.12.64.64,0,0,0,.1.13Z"/>
      <path class="cls-3" d="M137.37,267.23q-.59-.68-1.53-1.65Z"/>
      <g>
        <path class="cls-2" d="M236.47,222.44l0,.57v0c0-.18.07-.35.11-.53Z"/>
        <path d="M162.45,214.51a.39.39,0,0,1,0-.15.88.88,0,0,0,0,.16Z"/>
        <g>
          <path class="cls-4" d="M212.11,325.34c-1.66-2.76-.06-6-.06-6l-44.4-.17-55.24-1.38s.86,3.67-.25,6c0,0,0,11.07,64.65,12.07C208,336.35,212.11,325.34,212.11,325.34Z"/>
          <g>
            <path class="cls-5" d="M162,332.84c-26.1-.4-47.42-4.37-49.85-9l-.4,9.67c-.21,5.09,22.22,9.59,50.08,10s50.42-3.37,50.37-8.46l-.1-9.68C209.53,329.94,188.1,333.25,162,332.84Z"/>
            <path class="cls-4" d="M112.41,317.77c3,4.57,24.06,8.41,49.69,8.81s46.77-2.78,50-7.26l-.92-102.58s-37.78-6.26-50.51-6.46c-34.66-.54-44.11,5-44.11,5Z"/>
            <path class="cls-6" d="M112.64,317.78c3,4.57,23.83,8.4,49.46,8.8s46.77-2.78,50-7.26L211.94,307a227.49,227.49,0,0,1-30.17,1.37c-28.86-.45-49.09-24-48-50.13l.55-13.82.11-2.56c.94-16.07,29.3-17.1,29.3-17.1l-47-9.4Z"/>
          </g>
          <path class="cls-7" d="M126.15,215.42c0,2.48,7.18,4.6,16.12,4.74s16.23-1.76,16.27-4.23-7.18-4.6-16.13-4.74S126.19,213,126.15,215.42Z"/>
          <path class="cls-8" d="M116.51,215.27c-.07,4.81,21,9,47.18,9.44s47.37-3.16,47.44-8-21-9-47.17-9.44S116.59,210.47,116.51,215.27Zm9.64.15c0-2.47,7.32-4.37,16.26-4.23s16.17,2.26,16.13,4.74-7.32,4.37-16.27,4.23S126.11,217.9,126.15,215.42Z"/>
          <path class="cls-9" d="M114.46,266.47l-1.27,31.7L54,224.81a3.88,3.88,0,0,0,.31-.26l10.81-9.47Z"/>
          <polygon class="cls-10" points="67.2 226.65 108.17 270.44 108.33 260.09 69.36 219.55 67.2 226.65"/>
          <path class="cls-11" d="M126.15,215.42a1.18,1.18,0,0,0,0,.37c3-1.1,7.77-1.76,13.2-1.68,8.51.14,15.46,2.06,16.08,4.38,1.91-.71,3.05-1.59,3.06-2.56,0-2.48-7.18-4.6-16.13-4.74S126.19,213,126.15,215.42Z"/>
          <path class="cls-3" d="M134.28,244.37c0-.51.07-1.16.08-1.94Z"/>
          <path class="cls-4" d="M19.5,226.39l1.77,1.37a17.32,17.32,0,0,0,6,3,29.38,29.38,0,0,0,27.17-6.23L66,214.43a29.4,29.4,0,0,0,10-21.64,31.83,31.83,0,0,0-.13-3.23l-.27-1.38A17.65,17.65,0,0,0,72,180.54h0Z"/>
          <path class="cls-6" d="M19.5,226.39l1.77,1.37a17.32,17.32,0,0,0,6,3,29.38,29.38,0,0,0,27.17-6.23L66,214.43a29.26,29.26,0,0,0,6.29-7.79l-10.63,7.63A29.39,29.39,0,0,1,34,217.83a16.55,16.55,0,0,1-3-1.5Z"/>
          <path class="cls-12" d="M19.5,226.39c3.29,3.73,17.72-3.52,32.22-16.18S75.32,184.27,72,180.54s-17.72,3.52-32.23,16.18S16.2,222.66,19.5,226.39ZM34.35,209.2a16.13,16.13,0,0,1-5.08,4.43c-1.72.86-2.24.28-1.15-1.31a15.9,15.9,0,0,1,5.08-4.43C34.92,207,35.43,207.61,34.35,209.2Zm8.43-9.11c-2,1.73-4,2.72-4.41,2.21s.8-2.33,2.78-4.06,4-2.72,4.4-2.21S44.76,198.36,42.78,200.09Zm20.55-10.32c-2,1.73-4,2.72-4.41,2.21s.8-2.32,2.78-4,4-2.73,4.41-2.22S65.31,188,63.33,189.77Zm-6.15,8a15.93,15.93,0,0,1,5.08-4.44c1.72-.86,2.24-.28,1.15,1.31A16,16,0,0,1,58.33,199C56.61,199.9,56.09,199.32,57.18,197.74ZM53,193c-1.72.87-2.24.28-1.16-1.3a16,16,0,0,1,5.08-4.43c1.72-.87,2.24-.28,1.16,1.3A15.89,15.89,0,0,1,53,193Zm-4.21,13.9c2-1.74,4-2.73,4.4-2.22s-.79,2.33-2.77,4.06-4,2.72-4.41,2.21S46.76,208.58,48.75,206.85ZM45,202.54c2-1.73,4-2.72,4.41-2.21s-.8,2.33-2.78,4.06-4,2.72-4.41,2.21S43,204.27,45,202.54ZM33.49,218.41A15.89,15.89,0,0,1,38.57,214c1.72-.87,2.24-.29,1.15,1.3a15.78,15.78,0,0,1-5.08,4.43C32.92,220.58,32.41,220,33.49,218.41Zm-5.29-1.25c2-1.73,4-2.72,4.4-2.21s-.79,2.33-2.77,4.06-4,2.72-4.41,2.21S26.22,218.89,28.2,217.16Z"/>
          <path class="cls-3" d="M53,193A15.89,15.89,0,0,0,58,188.52c1.08-1.58.56-2.17-1.16-1.3a16,16,0,0,0-5.08,4.43C50.72,193.23,51.24,193.82,53,193Z"/>
          <path class="cls-3" d="M58.33,199a16,16,0,0,0,5.08-4.43c1.09-1.59.57-2.17-1.15-1.31a15.93,15.93,0,0,0-5.08,4.44C56.09,199.32,56.61,199.9,58.33,199Z"/>
          <path class="cls-3" d="M58.92,192c.45.51,2.42-.48,4.41-2.21s3.22-3.55,2.78-4.06-2.43.48-4.41,2.22S58.47,191.47,58.92,192Z"/>
          <path class="cls-3" d="M29.27,213.63a16.13,16.13,0,0,0,5.08-4.43c1.08-1.59.57-2.17-1.15-1.31a15.9,15.9,0,0,0-5.08,4.43C27,213.91,27.55,214.49,29.27,213.63Z"/>
          <path class="cls-3" d="M25.42,221.22c.45.51,2.43-.48,4.41-2.21s3.22-3.55,2.77-4.06-2.42.48-4.4,2.21S25,220.71,25.42,221.22Z"/>
          <path class="cls-3" d="M34.64,219.71a15.78,15.78,0,0,0,5.08-4.43c1.09-1.59.57-2.17-1.15-1.3a15.89,15.89,0,0,0-5.08,4.43C32.41,220,32.92,220.58,34.64,219.71Z"/>
          <path class="cls-3" d="M46,210.9c.45.51,2.43-.48,4.41-2.21s3.22-3.55,2.77-4.06-2.42.48-4.4,2.22S45.52,210.39,46,210.9Z"/>
          <path class="cls-3" d="M42.17,206.6c.45.51,2.43-.48,4.41-2.21s3.22-3.55,2.78-4.06-2.43.48-4.41,2.21S41.72,206.09,42.17,206.6Z"/>
          <path class="cls-3" d="M38.37,202.3c.45.51,2.42-.48,4.41-2.21S46,196.54,45.55,196s-2.42.48-4.4,2.21S37.92,201.79,38.37,202.3Z"/>
        </g>
        <path class="cls-4" d="M254.17,221.32a75.16,75.16,0,0,1-9.77,35.88l-32.4,57-.32-36.6L229,248.48a57.53,57.53,0,0,0,7.48-27.43,28.4,28.4,0,0,0-56.2-6.22l0,.14c-.38,1.2-4.24,2.1-8.93,2-4.91-.07-8.89-1.18-8.9-2.47h0a.77.77,0,0,1,0-.15A45.72,45.72,0,0,1,176,187.53C205.26,159.21,254.81,180.16,254.17,221.32Z"/>
        <path class="cls-6" d="M212.05,281l.11,32.61,32.58-57c5.93-10.45,9-25.11,9.44-37.11l-1.85,12.12c-1.78,11.74-4.45,14.09-11.39,23.74l-24.1,32.94Z"/>
        <path class="cls-6" d="M162.58,214.52c0,1.29,3.86,2.4,8.77,2.47,4.69.08,8.36-.86,8.74-2.07l0-.13A28.73,28.73,0,0,1,208.48,192,29,29,0,0,1,225.59,198c-4.3-9.74-17-11-17-11a33.59,33.59,0,0,0-32.83,24.48s-7.89,1.6-11.67-4.13C163.56,209.44,162.58,214.52,162.58,214.52Z"/>
        <ellipse class="cls-13" cx="206.7" cy="262.77" rx="1.61" ry="35.4"/>
        <path class="cls-13" d="M190,180.54s52.41-14,59.71,41.9C249.73,222.44,251.74,165.8,190,180.54Z"/>
      </g>
    </g>
  </g>
</svg>
