<svg xmlns="http://www.w3.org/2000/svg" viewBox="0 0 269.35 247.47"><defs><style>.cls-1{fill:#cca9ff;stroke:#323232;stroke-miterlimit:10;stroke-width:3px;}.cls-2{fill:#f29600;}.cls-3{fill:#fff8ee;}.cls-4{fill:#ededed;}.cls-4,.cls-5,.cls-6{fill-rule:evenodd;}.cls-5{fill:#dadada;}.cls-6{fill:#fff;}</style></defs><title>Asset 1</title><g id="Layer_2" data-name="Layer 2"><g id="be354c8b-bfd2-4ffa-80c9-58c76bbd3c99"><rect class="cls-1" x="1.5" y="1.5" width="266.35" height="244.47" rx="8.77"/><path class="cls-2" d="M236.78,133.53l-15.73-.06a10.47,10.47,0,0,0,2.42-6.67l.08-19.74A10.5,10.5,0,0,0,213.1,96.51h0l-146.2-.6a10.52,10.52,0,0,0-10.55,10.47l-.08,19.74a10.46,10.46,0,0,0,2.37,6.69l-15.74-.08c-.77,0-1.4,1.71-1.4,3.82s.6,3.84,1.37,3.84l193.9.79c.77,0,1.4-1.71,1.41-3.83S237.55,133.53,236.78,133.53Z"/><rect class="cls-3" x="133.74" y="46.33" width="11.49" height="198.2" transform="translate(-6.46 284.38) rotate(-89.79)"/><path class="cls-4" d="M49.3,131.66,33.12,125A3.77,3.77,0,0,1,31,120.11a1.08,1.08,0,0,1,.08-.19h0a3.8,3.8,0,0,1,2.79-2.1l15.74-2.66H166.43a3.78,3.78,0,0,1,3.78,3.78v9.28a3.78,3.78,0,0,1-3.78,3.78H50.73A3.75,3.75,0,0,1,49.3,131.66Z"/><path class="cls-5" d="M165.48,131.94H50l-17.21-7,137.4-1.42v3.69C170.18,130.3,170,131.94,165.48,131.94Z"/><path class="cls-6" d="M33.66,117.87l136.51.31a3.88,3.88,0,0,0-4-3.08H50Z"/></g></g></svg>