<svg id="Layer_1" data-name="Layer 1" xmlns="http://www.w3.org/2000/svg" width="273" height="512" viewBox="0 0 273 512">
  <defs>
    <style>
      .cls-1 {
        fill: #cca9ff;
        stroke: #323232;
        stroke-width: 3px;
      }

      .cls-1, .cls-14, .cls-16, .cls-2 {
        stroke-miterlimit: 10;
      }

      .cls-2 {
        fill: #68770e;
        stroke: #3a3f0b;
      }

      .cls-14, .cls-2 {
        stroke-width: 0.75px;
      }

      .cls-3 {
        opacity: 0.54;
      }

      .cls-4 {
        fill: #838d59;
      }

      .cls-5, .cls-7 {
        opacity: 0.5;
      }

      .cls-6 {
        fill: #602718;
      }

      .cls-11, .cls-12, .cls-7 {
        fill: #fff;
      }

      .cls-8 {
        fill: #2c4708;
      }

      .cls-9 {
        fill: #dbd8af;
      }

      .cls-10 {
        fill: #bfaa95;
      }

      .cls-11 {
        opacity: 0.3;
      }

      .cls-12 {
        opacity: 0.2;
      }

      .cls-13 {
        fill: #131e02;
      }

      .cls-14 {
        fill: #9b5323;
        stroke: #6b3c1c;
      }

      .cls-15 {
        fill: #773e17;
      }

      .cls-16 {
        fill: #d1a433;
        stroke: #775e26;
        stroke-width: 0.5px;
      }
    </style>
  </defs>
  <g>
    <rect class="cls-1" x="3.32" y="133.77" width="266.35" height="244.47" rx="8.77"/>
    <g>
      <path class="cls-2" d="M231.22,238.22c0,.44,0,.95,0,1.52-.05,4-.26,10.82-.65,16.86-.05.78-.1,1.55-.15,2.29s-.11,1.5-.18,2.22a58.74,58.74,0,0,1-.76,6.22c-13.82-13.82-54.38-14.82-86.67-14.82-12.52,0-26.43.1-39.54.94-3.1.2-6.1.43-9,.72l-.34,0c-2.62.26-5.19.56-7.68.9-13.73,1.88-25,5.14-30.62,10.71-.23-1.15-.45-2.71-.64-4.54-.07-.69-.14-1.43-.21-2.2-.36-4.22-.62-9.3-.77-13.61,0-1.35-.08-2.62-.11-3.77,0-1.35,0-2.53,0-3.47,0-.5,0-1,0-1.48a85,85,0,0,1,4.29-25.3A89.28,89.28,0,0,1,72.5,184.52a91.37,91.37,0,0,1,14.92-15.21,89.53,89.53,0,0,1,32.31-16.69,85.12,85.12,0,0,1,47.59.58,86.68,86.68,0,0,1,12.69,5,91.08,91.08,0,0,1,26.31,19.14l.54.59c1.5,1.58,2.94,3.23,4.32,4.93a2.26,2.26,0,0,1,.2.26q2.26,2.76,4.28,5.72a88.19,88.19,0,0,1,15.49,46.07c0,.56,0,1.13,0,1.69S231.22,237.66,231.22,238.22Z"/>
      <path class="cls-3" d="M231.22,238.21c0,6-.6,23.47-1.75,29.12-13.82-13.82-54.38-14.82-86.67-14.82-10.51,0-22,.07-33.17.59a165,165,0,0,0,56.17-28.74,170.66,170.66,0,0,0,40.63-46.93A88.19,88.19,0,0,1,231.22,238.21Z"/>
      <path class="cls-4" d="M64.84,258.28l-9.88,3-9.5,2.89c.43-.85,6-11.69,7.82-18.61a15,15,0,0,0,.59-3.59v-.27a42,42,0,0,1,.45-4.95c.88-6.31,2.79-13.68,2.79-13.68l3,13.45,2,9.21,2.4,11Z"/>
      <path class="cls-5" d="M240.3,264.16l-10.07-3.05-9.31-2.83.35-1.6.6-2.76,3.26-14.81.72-3.31,2.79-12.74s1.55,6,2.51,11.8c.09.59.18,1.17.26,1.74.16,1.1.29,2.17.36,3.16a21.72,21.72,0,0,1,.11,2.2c0,2.88,2,8.28,4.09,13s4.07,8.66,4.31,9.13Z"/>
      <path class="cls-6" d="M86.52,247.32c-10,.65-21.34,2.44-30.63,6.36a.39.39,0,0,0,.2.75c5.14-.74,10.18-2.18,15.27-3.17s10.23-1.68,15.34-2.58C87.47,248.55,87.29,247.27,86.52,247.32Z"/>
      <path class="cls-7" d="M160.73,244.57c-5-1-10.43-.76-15.55-.83q-8.49-.11-17,.12a246.73,246.73,0,0,0-32.38,2.65c-.49.07-.37.88.12.86,10.74-.41,21.49-1.18,32.26-1.42q7.66-.16,15.35-.08c5.59.07,11.42.8,17,.22C161.32,246,161.65,244.76,160.73,244.57Z"/>
      <path class="cls-7" d="M231.8,253.12c-7.36-3.37-16.08-4.67-24-5.9-8.11-1.26-16.57-2.41-24.78-1.74a.58.58,0,0,0,0,1.15c8.36,1,16.74,1.18,25.07,2.52,7.86,1.25,15.49,3.77,23.32,5C231.93,254.2,232.42,253.4,231.8,253.12Z"/>
      <path class="cls-8" d="M231.77,239.76l-.56,0a53.76,53.76,0,0,1-6.08-.63,77.32,77.32,0,0,1-7.82-1.72c-4.18-1.13-8.29-2.54-12.35-4a4.11,4.11,0,0,1-2.5-2.29c-5.88-.34-11.77-.68-17.64-1.17-3.63-.29-7.31-.57-11-1-4.68.25-10.06.14-13.78-2.07a8.3,8.3,0,0,1-2.26-2,10.29,10.29,0,0,1-3.44-3.41,9.26,9.26,0,0,1-1.34-4.4,7.82,7.82,0,0,1,.41-5,10.68,10.68,0,0,1,2.18-3.14,24,24,0,0,1,2.51-3.22,31.26,31.26,0,0,1,7.81-6.28c10.23-5.62,22-5.61,33.25-4.41,4.77.51,9.45,1,14.07,1.35,2.43.17,4.86.27,7.27.29a86.85,86.85,0,0,1,10.62,38.14c.09.59.18,1.17.26,1.74C231.57,237.7,231.7,238.77,231.77,239.76Z"/>
      <path class="cls-9" d="M156.72,176.46a3.74,3.74,0,0,0-4.47,1.64,19.73,19.73,0,0,0-8.44,2.16c-4,2.22-7,5.72-10.4,8.64a53.2,53.2,0,0,0-10.36,1.7c-8.89,2.48-22.61,7.92-18.09,19.54,3,7.74,12.15,11.51,20,10.06a20.19,20.19,0,0,0,9.32-4.48,50.44,50.44,0,0,0,23.65-16.11C163.65,192.52,167.54,181,156.72,176.46Z"/>
      <path class="cls-10" d="M86,228c-3.38,4.3-9.18,5.71-14.27,6.8a100.24,100.24,0,0,1-11.71,1.68c-1.9.15-3.85.24-5.74.23h-.47a85,85,0,0,1,4.29-25.3c1.69.13,3.24.18,3.91.24a84.45,84.45,0,0,0,9.14.21c4.9-.14,10.7-1,14.59,2.81C89.5,218.32,89.08,224.16,86,228Z"/>
      <path class="cls-9" d="M110.25,188.65c-2.29,1.7-6,2-9.28,1.8a13.41,13.41,0,0,1-7.4.62,41.54,41.54,0,0,1-11.2-1.1c-3-.75-7.29-2.66-9.87-5.45a91.37,91.37,0,0,1,14.92-15.21A11,11,0,0,1,92,172.78a14.45,14.45,0,0,1,1.24,1.94,10.54,10.54,0,0,1,1.28,1.47c1.14-.05,2.28-.16,3.36-.19,4.79-.14,9.35.74,12.78,4.3a3.92,3.92,0,0,1,1.17,3A4.36,4.36,0,0,1,110.25,188.65Z"/>
      <path class="cls-8" d="M86.53,196.2l-.91-.09a19,19,0,0,0-11.42-2.22,4.35,4.35,0,0,0-4,3.05,4.16,4.16,0,0,0,1.91,4.69c4.93,2.31,10.06,4.32,15.53,2.74C92.38,203,91,196.67,86.53,196.2Z"/>
      <path class="cls-9" d="M206.32,177.29a1.83,1.83,0,0,1-.15.25c-1.65,2.52-5.49,2-7-.2-.85.45-3.65-.07-4.41-.08-2.14,0-4.28,0-6.41.13-4.11.15-8.29.64-12.4.38a17.29,17.29,0,0,1-4.69-1c-4.23-1.55-7.77-4.85-7.25-9.86.65-6.29,10.11-7.67,15-8.6l1-.18A91.08,91.08,0,0,1,206.32,177.29Z"/>
      <path class="cls-8" d="M167.32,153.2a67.18,67.18,0,0,1-25.57,14.13c-4.3,1.23-8.85,2.07-13-.07a22.31,22.31,0,0,1-8.16-8.07c-1.55-2.5-1.65-4.69-.85-6.57a85.12,85.12,0,0,1,47.59.58Z"/>
      <path class="cls-10" d="M215.66,190.45c-1.34-2-2.77-3.88-4.27-5.72h-.13a2.25,2.25,0,0,0-.08-.24c-1.38-1.71-2.82-3.35-4.32-4.94a7.32,7.32,0,0,0-.69-.33c-3.2-1.39-7.35-1.56-11.41-1.2a15.43,15.43,0,0,0-10.07-2.63,40.77,40.77,0,0,0-13.44,3.07,36.15,36.15,0,0,0-15,11.41c-2.54,3.35-6.3,8.91-3.31,13a5.21,5.21,0,0,0,2,1.7,6.85,6.85,0,0,0,3.2,2.84,16.12,16.12,0,0,0,6.54,1.17c7.87.14,15.4-2.52,23.14-3.45a39.66,39.66,0,0,0,5.62,1.61c5.19.88,10.78.43,15.17-2.73a12.81,12.81,0,0,0,4.66-5.94,12.19,12.19,0,0,0,.67-5.59A3.81,3.81,0,0,0,215.66,190.45Z"/>
      <path class="cls-8" d="M117.44,244c-.62,4-3.33,6.25-6.63,7.62a28.94,28.94,0,0,1-7.17,1.77l-.45.06c-3,.37-6,.53-9,.71-2.37.14-4.73.31-7.07.62l-1,.31-.24.08a27.89,27.89,0,0,1-6.27,1.26c-9.68,3.21-18.21,10.25-27.61,14.35-4.49-1.67-7-3.5-7-5.41a2.39,2.39,0,0,1,.35-1.22c.43-.85,6-11.69,7.82-18.61.23,0,.47-.07.7-.09.61-.08,1.22-.13,1.84-.17a27.72,27.72,0,0,1,6.27.43c1.68.3,3.34.71,5,1.13l1.49-.54L70.77,245c5.77-3.4,11.57-6.76,18.07-8.57,5-1.39,12.26-3,17.75-1.59C113.29,234.49,118.62,236.39,117.44,244Z"/>
      <path class="cls-9" d="M172.31,224.13a8.78,8.78,0,0,0-.86-1.33c-2.21-2.87-6.12-3.29-9.46-3.69a48.87,48.87,0,0,0-13.34.33,49.42,49.42,0,0,0-12.12,3.31,16.15,16.15,0,0,0-4.93,2.11c-3.83,1.68-9.53,4.64-9.22,9.3.36,5.5,8.28,6.41,12.45,5.88a5.5,5.5,0,0,0,.95-.22,53,53,0,0,0,7.26-1.57,53.77,53.77,0,0,1,11.13-1.42,33.62,33.62,0,0,0,5.57-.25l1.95-.13c4.14-.32,11.5-.35,14-4.47C177.9,228.2,175.43,225.61,172.31,224.13Z"/>
      <path class="cls-10" d="M236,255a14.24,14.24,0,0,1-5.41,1.62,11.33,11.33,0,0,1-7.06-1.35,9.87,9.87,0,0,1-1.63-1.33,9.15,9.15,0,0,1-.85-1c-3.94-2.35-7.88-6.52-7.1-10.9a6.5,6.5,0,0,1,3.39-4.63c2.39-1.35,5.62-1.7,8.54-1.59a25.45,25.45,0,0,1,4.26.5l1.09.25.21,0c.16,1.1.29,2.17.36,3.16a21.72,21.72,0,0,1,.11,2.2C231.88,244.84,233.9,250.24,236,255Z"/>
      <path class="cls-11" d="M184.7,160.58c-10.61,22.4-41.34,46.29-73.09,53.93a126.21,126.21,0,0,1-54.5.27,88,88,0,0,1,7.73-18.66A92,92,0,0,1,92.77,165.3,87.11,87.11,0,0,1,142,149.53h.57c.79,0,1.57,0,2.35,0A86.74,86.74,0,0,1,184.7,160.58Z"/>
      <path class="cls-12" d="M119.69,184.91c-16,5.14-33.5,1.34-42.72-5.72a92.06,92.06,0,0,1,15.8-13.89A87.11,87.11,0,0,1,142,149.53c.74,0,1.48,0,2.22,0C149.86,161.73,146.89,176.2,119.69,184.91Z"/>
      <path class="cls-7" d="M127.54,158A4.28,4.28,0,0,0,124,153.5c-4.27-1.08-9.65,1.28-13.35,3.21s-7.85,3.44-10.46,6.7c-2,2.48-3.79,7.63-.24,9.56,2.52,1.36,6.29.33,8.83-.37,5.08-1.4,10.73-3,14.85-6.6A12.16,12.16,0,0,0,127.54,158Z"/>
      <path class="cls-13" d="M240.65,265.38c0,3.71-9.35,7.1-24.73,9.67-3.13.53-6.51,1-10.12,1.47a525.54,525.54,0,0,1-62.92,3.42c-26.38,0-50.32-1.56-67.91-4.09-3.63-.52-7-1.08-10-1.69a85.26,85.26,0,0,1-12.87-3.37c-4.49-1.67-7-3.5-7-5.41a2.39,2.39,0,0,1,.35-1.22c1.06-1.84,4.29-3.54,9.29-5.09a97.4,97.4,0,0,1,9.74-2.39c.16,0,.32-.05.47-.09,3.05-.6,6.41-1.16,10-1.68,10.1-1.45,22.28-2.58,35.82-3.28,10-.52,20.83-.8,32.07-.8,24.58,0,47.05,1.35,64.23,3.58,3.54.46,6.86,1,9.92,1.49,1.48.25,2.89.52,4.24.78,3.47.69,6.53,1.43,9.14,2.21,5.35,1.59,8.79,3.36,9.87,5.22A2.54,2.54,0,0,1,240.65,265.38Z"/>
      <path class="cls-14" d="M115,346.55c-5.17,1-10.4,2-15.64,3.06a70.26,70.26,0,0,1-8.68-6.69l-.22-.2q-2.31-2.1-4.49-4.44a90.42,90.42,0,0,1-13.4-19C67.19,309.24,65.4,291,65,275.05c0-.3,0-.59,0-.89-.06-2.47-.09-4.87-.1-7.18,0-3.8,0-7.33.12-10.39,3.05-.6,6.41-1.16,10-1.68-.17,5.39-.24,11.86-.08,18.61,0,.78,0,1.55.06,2.33.46,15,2.13,30.77,6.4,38.73a77.61,77.61,0,0,0,16.8,21.7,56.91,56.91,0,0,0,10.5,7.35A54.65,54.65,0,0,0,115,346.55Z"/>
      <path class="cls-15" d="M116.11,351l-15.9,5.83c-6.33-.73-12.26-1.33-14.64-1.44-2.75-.14-7.49.38-7.49-2.88a7.37,7.37,0,0,1,.08-1.16c.72-5,6.09-7.56,12.31-8.62q-2.31-2.1-4.49-4.44l5.69-.93,6.5-1.07a56.91,56.91,0,0,0,10.5,7.35l.24.08c2.32.87,4.61,1.78,6.91,2.63Z"/>
      <path class="cls-14" d="M217,255.9c0,.73-.05,1.48-.08,2.23,0,.21,0,.42,0,.63-.16,3.67-.36,7.39-.62,11.09-.11,1.74-.25,3.47-.39,5.2-1,11.89-2.4,23.5-4.18,33.35a55.32,55.32,0,0,1-20.19,33.77c-1.5,1.22-3.06,2.38-4.68,3.46a77.94,77.94,0,0,1-16.16,8.28A99.79,99.79,0,0,1,141,360a72.48,72.48,0,0,1-7.74.61c-.19,0-11.49-.73-14-1.24-3.27-.63-11.42-1.69-19-2.57-6.33-.73-12.26-1.33-14.64-1.44-2.75-.14-7.49.38-7.49-2.88a7.37,7.37,0,0,1,.08-1.16c.72-5,6.09-7.56,12.31-8.62l.66-.11c6.51-1,13.77-.32,17.54,1l.24.08c2.32.87,4.61,1.78,6.91,2.63a54.63,54.63,0,0,0,12.68,3.36c5.19.61,10.53-.1,15.74.08a88.22,88.22,0,0,0,22.84-5.16A63.39,63.39,0,0,0,187,332.91a45.43,45.43,0,0,0,14.91-26.28c1.79-9.95,3.05-20.37,3.88-30.11.29-3.37.53-6.65.72-9.8.29-4.4.48-8.55.59-12.31C210.65,254.87,214,255.36,217,255.9Z"/>
      <path class="cls-16" d="M133.08,348.29c-1-1-10.79-2.4-11.52-2.25-.44.09-6.19,13.36-5.37,14.17.5.51,10.47,2.5,11.19,2.26C128.31,362.27,133.79,349,133.08,348.29Zm-3.34,2c-.82,1.5-3.4,7.62-4.14,9.39-.22,0-5-.67-5.39-.87-.15-.33,2-7,3.46-9.59A47.13,47.13,0,0,1,129.74,350.27Z"/>
      <path class="cls-15" d="M191.55,342.17c-1.5,1.22-3.06,2.38-4.68,3.46a77.94,77.94,0,0,1-16.16,8.28l-3.63-9.29A63.39,63.39,0,0,0,187,332.91l2.19,4.48Z"/>
      <path class="cls-15" d="M216.93,258.76c-.16,3.67-.36,7.39-.62,11.09-.11,1.74-.25,3.47-.39,5.2-1,11.89-2.4,23.5-4.18,33.35a55.32,55.32,0,0,1-20.19,33.77c-1.5,1.22-3.06,2.38-4.68,3.46l-2.18-4s1.86-1.67,4.51-4.24c5.8-5.6,13.29-16.75,15.91-22.64s6.89-30.35,8-45.94c.49-7.13.76-12.13.76-12.13Z"/>
      <path class="cls-15" d="M94.3,340.48l-3.16,2.13-.45.31s-6.44.86-.22-.2q-2.31-2.1-4.49-4.44a90.42,90.42,0,0,1-13.4-19C67.19,309.24,65.4,291,65,275.05c0-.3,0-.59,0-.89-.06-2.47-.09-4.87-.1-7.18l3.62.35s-.09,2.88-.06,7.19c0,8.76,1.8,29.56,4.28,37.73,2.85,9.4,12.89,20.66,19,25.1A7.34,7.34,0,0,1,94.3,340.48Z"/>
      <path class="cls-15" d="M217,255.9c0,.73-.05,1.48-.08,2.23,0,.21,0,.42,0,.63-.16,3.67-.36,7.39-.62,11.09l-3.24-1-6.55-2.09c.29-4.4.48-8.55.59-12.31C210.65,254.87,214,255.36,217,255.9Z"/>
      <path class="cls-15" d="M74.91,273.52l-6.51,1-3.44.53c0-.3,0-.59,0-.89-.06-2.47-.09-4.87-.1-7.18,0-3.8,0-7.33.12-10.39,3.05-.6,6.41-1.16,10-1.68C74.82,260.3,74.75,266.77,74.91,273.52Z"/>
      <path class="cls-16" d="M193.56,340.66a56.07,56.07,0,0,0-5.38-12.6c-.39-.64-2.61-.74-3.11-.4-1,.66-13,8.64-14.15,10.76a3.6,3.6,0,0,0-.66,1.66c0,2.09,3.1,10.39,4.61,12.32a3.72,3.72,0,0,0,3.79.94c.78,0,14.93-10.23,15-10.55A3.5,3.5,0,0,0,193.56,340.66Zm-13.87,6.07a51,51,0,0,0-2.46-6c.75-.54,5.54-3.61,7-4.87a43.42,43.42,0,0,1,2.95,6.69C184.74,344,182.23,345.36,179.69,346.73Z"/>
      <path class="cls-15" d="M89.93,348.14c-2.06,0-2.06,2.23,0,2.23C91,350.37,91,348.14,89.93,348.14Z"/>
      <circle class="cls-15" cx="99.67" cy="349.78" r="1.14"/>
      <path class="cls-15" d="M109.48,348.66a1.64,1.64,0,0,0,0,3.27A1.64,1.64,0,0,0,109.48,348.66Z"/>
      <path class="cls-15" d="M134.17,354.57c-1,0-1,2.67,0,2.67A1.35,1.35,0,1,0,134.17,354.57Z"/>
      <path class="cls-15" d="M145.49,353.15c-1,0-1,2.61,0,2.61A1.32,1.32,0,1,0,145.49,353.15Z"/>
      <path class="cls-15" d="M128.5,353.39c-1.67-.95-4-1.55-5.85-.67-1.09.53-.42,2,.56,2.07a17.59,17.59,0,0,1,2.05.1,5.45,5.45,0,0,1,1.89.8C128.6,356.62,130,354.23,128.5,353.39Z"/>
    </g>
  </g>
</svg>
