<svg id="Layer_1" data-name="Layer 1" xmlns="http://www.w3.org/2000/svg" width="38" height="36" viewBox="0 0 38 36">
  <defs>
    <style>
      .cls-1 {
        fill: #ffd800;
      }

      .cls-2 {
        fill: #fc0;
      }

      .cls-3 {
        fill: #fff;
      }
    </style>
  </defs>
  <g>
    <path class="cls-1" d="M30,35c-1.53,1.08-9.22-5.67-11.09-5.69s-9.7,6.57-11.2,5.46,2.54-10.52,2-12.3-9.25-7.2-8.65-9,10.79-.83,12.31-1.92,4-11,5.85-11,4.13,10,5.63,11.12,11.71.39,12.27,2.17-8.24,7-8.83,8.79S31.53,34,30,35Z"/>
    <path class="cls-2" d="M28.23,12.38c-.88,9.39-9.45,16.86-20.13,17.44-.63,2.37-1,4.49-.38,5,1.5,1.11,9.33-5.48,11.2-5.46S28.48,36.12,30,35,27.68,24.47,28.27,22.7s9.4-7,8.84-8.79C36.73,12.68,31.77,12.65,28.23,12.38Z"/>
    <path class="cls-3" d="M19,1.32a.2.2,0,0,0-.16.12c-.31.68-.62,1.38-.91,2.07C17,5.63,16.27,7.79,15.46,9.92a5.16,5.16,0,0,1-1.05,1.9,3.43,3.43,0,0,1-1.63.83,9.87,9.87,0,0,1-1.9.21c-1.85.1-3.69.19-5.54.23a9.78,9.78,0,0,0-2.45.26,4.64,4.64,0,0,0-1.17.5.19.19,0,0,0-.1.17.21.21,0,0,0,.1.17.2.2,0,0,0,.2,0A4.68,4.68,0,0,1,3,13.72a9.52,9.52,0,0,1,2.35-.24c1.85-.05,3.7-.14,5.55-.23a11.11,11.11,0,0,0,2-.22,3.83,3.83,0,0,0,1.81-.93,5.43,5.43,0,0,0,1.14-2c.82-2.14,1.58-4.29,2.46-6.4.3-.69.6-1.38.91-2.06a.18.18,0,0,0,0-.19A.21.21,0,0,0,19,1.32Z"/>
  </g>
</svg>
