<svg id="ee896e74-cb7b-47ae-9eba-258b8a5dae53" data-name="Layer 1" xmlns="http://www.w3.org/2000/svg" width="507" height="512" viewBox="0 0 507 512">
  <defs>
    <style>
      .b5625c20-b926-4150-816f-b1656ef7c27b {
        fill: red;
      }
    </style>
  </defs>
  <path class="b5625c20-b926-4150-816f-b1656ef7c27b" d="M322.73,42.31A93.79,93.79,0,0,1,404,89.2l69.26,120a93.74,93.74,0,0,1,0,93.78L404,422.91a93.78,93.78,0,0,1-81.22,46.9H184.21A93.78,93.78,0,0,1,103,422.91L33.73,303a93.79,93.79,0,0,1,0-93.78L103,89.2a93.79,93.79,0,0,1,81.22-46.89H322.73m0-20H184.21A114.1,114.1,0,0,0,85.67,79.2l-69.26,120a114.1,114.1,0,0,0,0,113.78l69.26,120a114.09,114.09,0,0,0,98.54,56.9H322.73a114.09,114.09,0,0,0,98.54-56.9l69.26-120a114.1,114.1,0,0,0,0-113.78l-69.26-120a114.1,114.1,0,0,0-98.54-56.89Z"/>
</svg>
