<svg xmlns="http://www.w3.org/2000/svg" xmlns:xlink="http://www.w3.org/1999/xlink" width="238" height="593" viewBox="0 0 238 593">
  <defs>
    <style>
      .cls-1, .cls-9 {
        fill: none;
      }

      .cls-2 {
        isolation: isolate;
      }

      .cls-11, .cls-14, .cls-3 {
        opacity: 0.3;
      }

      .cls-4, .cls-40 {
        fill: #fbd1b5;
      }

      .cls-4 {
        stroke: #cca183;
      }

      .cls-15, .cls-17, .cls-26, .cls-28, .cls-30, .cls-38, .cls-4, .cls-5, .cls-9 {
        stroke-miterlimit: 10;
      }

      .cls-5, .cls-8 {
        fill: #b9c0b0;
      }

      .cls-5 {
        stroke: #2c9b59;
      }

      .cls-6 {
        fill: #3093e6;
      }

      .cls-7 {
        fill: #097cc1;
      }

      .cls-9 {
        stroke: #878e6f;
      }

      .cls-10, .cls-26, .cls-31, .cls-38 {
        fill: #eeeded;
      }

      .cls-11, .cls-17 {
        fill: #717070;
      }

      .cls-11, .cls-13, .cls-14, .cls-21, .cls-24, .cls-31, .cls-34, .cls-37, .cls-46 {
        mix-blend-mode: multiply;
      }

      .cls-12 {
        fill: #342517;
      }

      .cls-13, .cls-14 {
        fill: #644f43;
      }

      .cls-13, .cls-21 {
        opacity: 0.5;
      }

      .cls-15 {
        fill: #a58484;
      }

      .cls-15, .cls-26, .cls-28, .cls-30, .cls-38 {
        stroke: #ba9b9b;
      }

      .cls-15, .cls-26, .cls-30 {
        stroke-width: 2px;
      }

      .cls-16 {
        fill: #c2c3c3;
      }

      .cls-17 {
        stroke: #5b4343;
      }

      .cls-18 {
        fill: #585857;
      }

      .cls-19, .cls-21 {
        fill: #7e4f25;
      }

      .cls-20 {
        fill: #442a19;
      }

      .cls-22 {
        fill: #ead3d3;
      }

      .cls-23 {
        fill: #878787;
      }

      .cls-25 {
        fill: #b3b2b2;
      }

      .cls-27 {
        fill: #dadada;
      }

      .cls-28, .cls-30 {
        fill: #f7f5f5;
      }

      .cls-29 {
        fill: #a3a3a3;
      }

      .cls-32, .cls-34 {
        fill: #afb0b0;
      }

      .cls-33 {
        fill: #9f9f9f;
      }

      .cls-35, .cls-37 {
        fill: #78c8c1;
      }

      .cls-36 {
        fill: #5ebeb6;
      }

      .cls-38 {
        stroke-width: 0.75px;
      }

      .cls-39 {
        clip-path: url(#clip-path);
      }

      .cls-41 {
        fill: #eac1a4;
      }

      .cls-42 {
        fill: #6b6f70;
      }

      .cls-43, .cls-46 {
        fill: #4b5157;
      }

      .cls-44 {
        fill: #808588;
      }

      .cls-45 {
        fill: #899497;
      }

      .cls-46 {
        opacity: 0.4;
      }

      .cls-47 {
        fill: #cca183;
      }

      .cls-48 {
        fill: #db9d8e;
      }

      .cls-49 {
        fill: #fff;
      }

      .cls-50 {
        fill: #3d2e17;
      }

      .cls-51 {
        fill: #2d2b21;
      }

      .cls-52 {
        fill: #f2f0e9;
      }

      .cls-53 {
        fill: #f4a198;
      }

      .cls-54 {
        fill: #60201e;
      }

      .cls-55 {
        fill: #fff7f4;
      }

      .cls-56 {
        fill: #f58778;
      }

      .cls-57 {
        fill: #f97a98;
      }

      .cls-58 {
        fill: #aa7959;
      }
    </style>
    <clipPath id="clip-path">
      <path class="cls-1" d="M31,327.47s11.59-1.67,15.63-1.28c0,0,3.92,7.43,9.33,5.39s6.15-5.49,1-12.34-11-17.16-21.44-15.52S31,327.47,31,327.47Z"/>
    </clipPath>
  </defs>
  <g class="cls-2">
    <g id="Layer_1" data-name="Layer 1">
      <g>
        <ellipse class="cls-3" cx="105.11" cy="573.07" rx="103.23" ry="18.66"/>
        <g>
          <g>
            <path class="cls-4" d="M119.73,150.37c-4.33,1.84-8.08,5.56-12.47,7.26-1.48.57-3.74-.49-5.38-.6a29.25,29.25,0,0,1-4.55-1c-2.13-.5-5.26-3.1-7.31-3.68,0,2.37-3.34,7.08-3.52,9.41s-1.49.94-1.76,3.21l5,3.69a37.21,37.21,0,0,0,5.41,3.17c2.08,1.08,3.72,2.63,5.75,3.75,3.56,2,7.47-1.11,10.55-2.74,1.93-1,3.79-2.15,5.74-3.15,1.22-.64,3.34-4.34,4.11-5.41C121,158.67,119.93,156,119.73,150.37Z"/>
            <path class="cls-5" d="M117.21,159.88c-1.62.88-3.24,1.75-5,2.48-2,.87-4.77,2.59-7.13,2.37a19.7,19.7,0,0,1-7.3-2.59,46.85,46.85,0,0,1-5.34-2.7H87.24s-17.89,9.25-32.33,14.39L74.25,299.44l51.44-1.36,11.52-130.76A89.53,89.53,0,0,1,117.21,159.88Z"/>
            <path class="cls-6" d="M118.71,256.21c-.5-5.44-11.79-73.41-12.66-75.9a6.25,6.25,0,0,0-2.28-.79,7.59,7.59,0,0,0-3.65.49,94.2,94.2,0,0,0-2.18,10.32c-.74,4-1.3,8.1-1.82,12.17-1,7.93-6.2,58.93-6.2,66.54,2.29,3.1,10.63,13.64,13.4,13.48,2.16-.12,12.32-12,16.63-16.16C119.74,263,119,259.54,118.71,256.21Z"/>
            <path class="cls-7" d="M92.2,171.59a33,33,0,0,0,3.54,6.14c1.77,2.34,3.47,3.92,4.22,3.92,2.38,0,5.89-.05,6.29-.16,1.66-.56,3-2.44,4.07-4.09.34-.49.65-1,1-1.35a12.09,12.09,0,0,0,1.11-1.85c.19-.36.4-.74.62-1.12a5.91,5.91,0,0,1-.54-2.82c0-.23,0-.46,0-.68a13.83,13.83,0,0,0-2.87-3c-1.17.12-2.3.21-3.35.25a23.33,23.33,0,0,1-6.83-.75A23.57,23.57,0,0,0,95,169.66c-.46.46-.92.9-1.37,1.32a2.37,2.37,0,0,0-.27.28l-.09.08a.39.39,0,0,1-.12.25C93,171.81,92.59,171.75,92.2,171.59Z"/>
            <g>
              <path class="cls-8" d="M81.31,167.7c.65.56,1.33,1.15,2,1.76A18.36,18.36,0,0,1,85,170.89a64,64,0,0,1,5.68,6.2l.63.75.1.11a16.09,16.09,0,0,1,1.92-4.35,19.74,19.74,0,0,1,2.35-3l.53-.6c3.2-3.62,5.89-4.8,7.48-5.18-.38-.14-.78-.28-1.15-.44l-2.2-.93-2.51-1.07A54.75,54.75,0,0,1,89.2,158L89,157.8,88,157a28.54,28.54,0,0,0-3.33,4.48c-.22.37-.45.75-.7,1.11l-.3.48A28.08,28.08,0,0,0,81.31,167.7Zm24.92-2.64c4.45,2.16,7.8,9.09,9.15,12.31a40.74,40.74,0,0,0,5.16-4.16c1.46-1.37,2.85-2.84,4-4.09.22-.24.47-.49.72-.74a9.52,9.52,0,0,0,2.35-3.09c-.79-.81-1.4-1.45-2-2.06-.89-1-1.74-2-2.57-3s-1.85-2.22-2.83-3.28a9.71,9.71,0,0,0,.1,1.22l0,.24-.22.11a35.85,35.85,0,0,0-3.16,1.75c-1,.6-2,1.22-3.11,1.74A67.42,67.42,0,0,1,106.23,165.06Z"/>
              <path class="cls-9" d="M81.31,167.7c.65.56,1.33,1.15,2,1.76A18.36,18.36,0,0,1,85,170.89a64,64,0,0,1,5.68,6.2l.63.75.1.11a16.09,16.09,0,0,1,1.92-4.35,19.74,19.74,0,0,1,2.35-3l.53-.6c3.2-3.62,5.89-4.8,7.48-5.18-.38-.14-.78-.28-1.15-.44l-2.2-.93-2.51-1.07A54.75,54.75,0,0,1,89.2,158L89,157.8,88,157a28.54,28.54,0,0,0-3.33,4.48c-.22.37-.45.75-.7,1.11l-.3.48A28.08,28.08,0,0,0,81.31,167.7Zm24.92-2.64c4.45,2.16,7.8,9.09,9.15,12.31a40.74,40.74,0,0,0,5.16-4.16c1.46-1.37,2.85-2.84,4-4.09.22-.24.47-.49.72-.74a9.52,9.52,0,0,0,2.35-3.09c-.79-.81-1.4-1.45-2-2.06-.89-1-1.74-2-2.57-3s-1.85-2.22-2.83-3.28a9.71,9.71,0,0,0,.1,1.22l0,.24-.22.11a35.85,35.85,0,0,0-3.16,1.75c-1,.6-2,1.22-3.11,1.74A67.42,67.42,0,0,1,106.23,165.06Z"/>
            </g>
          </g>
          <path class="cls-10" d="M108.51,297.83a10.69,10.69,0,0,0-5.16-.4c-2.35.17-4.65.25-7,.6-.06,0-.08.09,0,.1,4,.53,8.05-.25,12,0C108.58,298.17,108.7,297.92,108.51,297.83Z"/>
          <path class="cls-10" d="M110,298.52a1,1,0,0,0-.72-.42c-.13,0-.23.09-.19.2a1,1,0,0,0,.48.58C109.82,299.05,110.21,298.75,110,298.52Z"/>
          <path class="cls-11" d="M95.08,332c1,10.6,1.68,21.67,7.28,31.19.79-2.44-.17-5.25-.65-7.66-.56-2.83-.64-5.77-.94-8.63a175.86,175.86,0,0,1-1.41-19.58,133.85,133.85,0,0,1,2.38-23.55l-6.62.07C92.18,312.76,94.25,322.84,95.08,332Z"/>
          <g>
            <g>
              <path class="cls-12" d="M91.79,552.55c-.28-2.68-.38-7.64-2.18-9.86,0-.08-.65,2.19-.7,2.12a1.62,1.62,0,0,0-.39-.36l-.11-.14a.22.22,0,0,0-.25,0,2.8,2.8,0,0,0-1-.06c-1.93.21-3.77.45-5.72.51-4.08.12-8.14.55-12.21.65-1.85,0-5.07.66-6.71-.35v0c0-.14-.16-.15-.27-.1s-.44.11-.38.28a1.08,1.08,0,0,0,.21.34c-.62,3.71-4.55,7-7.58,9.51a61.39,61.39,0,0,1-12.4,7.75c-4.22,2-8.83,3.33-13.18,5.1A8.19,8.19,0,0,0,23.36,575c-.38,2.62-.49,5.83,2.69,7.26,4.22,1.9,9.11,1.81,13.74,1.6,5-.23,10-.42,14.92-.92a52.31,52.31,0,0,0,8.92-1.64,30.35,30.35,0,0,0,10-4.83c2.82-2.14,5-4.77,7.37-7.22s5.6-3,8.84-4.31c2.28-.94,2.82-2.14,2.76-4.19C92.53,558,92.06,555.24,91.79,552.55Z"/>
              <path class="cls-13" d="M58.87,551.05c4.32.75,8.29,2.81,12.76,2.89,4,0,7.44-1.52,11.08-2.61,2.22-.66,5.4-1.61,7.62-.42a5,5,0,0,1,1.4,1.07c-.24-2.77-.44-7.22-2.12-9.29,0-.08-.65,2.19-.7,2.12a1.62,1.62,0,0,0-.39-.36l-.11-.14a.22.22,0,0,0-.25,0,2.8,2.8,0,0,0-1-.06c-1.93.21-3.77.45-5.72.51-4.08.12-8.14.55-12.21.65-1.85,0-5.07.66-6.71-.35v0c0-.14-.16-.15-.27-.1s-.44.11-.38.28a1.08,1.08,0,0,0,.21.34A11.29,11.29,0,0,1,58.87,551.05Z"/>
              <path class="cls-14" d="M89.26,562.19a32.62,32.62,0,0,1-5.47,2.27c-2.75.91-4.2,2.56-6.06,4.37-3.08,3-6.43,6-10.69,7.81A59.55,59.55,0,0,1,54,580.43a70.85,70.85,0,0,1-15,.93c-4.33-.15-8.6-.39-12.62-1.9a6.16,6.16,0,0,1-3.17-2.32c0,2,.54,4,2.88,5.09,4.22,1.9,9.11,1.81,13.74,1.6,5-.23,10-.42,14.92-.92a52.31,52.31,0,0,0,8.92-1.64,30.35,30.35,0,0,0,10-4.83c2.82-2.14,5-4.77,7.37-7.22s5.6-3,8.84-4.31c2.28-.94,2.82-2.14,2.76-4.19,0-.29,0-.6,0-.9A16.74,16.74,0,0,1,89.26,562.19Z"/>
            </g>
            <g>
              <path class="cls-12" d="M175.4,548.21c-.78-1.25-1.57-2.14-1.61-3.64a14.46,14.46,0,0,1,.75-3.81c0-.06,0-.09-.06-.12a1.55,1.55,0,0,0,0-.22.55.55,0,0,0-.64-.46c-2.63.34-5.11,1.08-7.7,1.52s-5.37.91-8.05,1.38-5.64.84-8.46,1.25-5.33,1.17-8.15,1.06c-.35,0-.5.41-.12.49a3,3,0,0,0,.32.06c.39,2,.88,3.92,1.15,5.9a20.49,20.49,0,0,1-.61,7.3c-1.35,5.88-3.74,11.53-4.6,17.5-.6,4.11-.78,9.44,4.18,11.75,5.85,2.72,14.39,2.12,20.31-.07a28.45,28.45,0,0,0,4.91-2.35c7.56-4.64,8.57-12.82,8.5-20,0-4.44-.26-8.75.55-13.17A5.2,5.2,0,0,0,175.4,548.21Z"/>
              <path class="cls-13" d="M141.37,545.66a3,3,0,0,0,.32.06c.39,2,.88,3.92,1.15,5.9a15.46,15.46,0,0,1,.12,2,25.6,25.6,0,0,0,10,4c5.22.82,9.07-1.14,13.5-3.11,2.1-.93,4.37-1.76,6.36-2.84,1.14-.61,2.12-1.44,3.18-2.15a6.39,6.39,0,0,0-.63-1.3c-.78-1.25-1.57-2.14-1.61-3.64a14.46,14.46,0,0,1,.75-3.81c0-.06,0-.09-.06-.12a1.55,1.55,0,0,0,0-.22.55.55,0,0,0-.64-.46c-2.63.34-5.11,1.08-7.7,1.52s-5.37.91-8.05,1.38-5.64.84-8.46,1.25-5.33,1.17-8.15,1.06C141.14,545.16,141,545.58,141.37,545.66Z"/>
              <path class="cls-14" d="M175.4,548.21c-.29-.46-.58-.89-.84-1.3-.3,2.27-.68,4.55-.83,6.85-.3,4.91-.37,9.84-1,14.73-.92,7-2.57,15.17-11.17,18.41-6.44,2.42-16.32,3.78-22.48-2-1.46-1.37-1.67-3.27-1.73-5.64-.15,3.46.59,7.09,4.46,8.89,5.85,2.72,14.39,2.12,20.31-.07a28.45,28.45,0,0,0,4.91-2.35c7.56-4.64,8.57-12.82,8.5-20,0-4.44-.26-8.75.55-13.17A5.2,5.2,0,0,0,175.4,548.21Z"/>
            </g>
            <g>
              <path class="cls-15" d="M89.24,395.49a17,17,0,0,1,13-5.12c8,.49,15.7,1.31,15.7,1.31V331.23H84.48Z"/>
              <path class="cls-16" d="M89,396.38l-4.86-65.49h34.19v61.17l-.4,0c-.08,0-7.77-.83-15.69-1.31a16.73,16.73,0,0,0-12.66,5Zm-4.08-64.81,4.68,63.11A17.22,17.22,0,0,1,102.23,390c6.9.42,13.62,1.1,15.32,1.27V331.57Z"/>
            </g>
            <path class="cls-17" d="M49.32,304.2l94.09-.87s16.17,69.19,17,94.81,1.06,40.6,2.89,43,1.67,4.73.25,9.32,1.16,16.37,3.43,30.49,4.92,37.95,6.34,42.54-.2,8.17,2.85,10.38,2.44,4.17,1.12,5.95.4,6.9-.51,7.58-15.36,7.74-21.15,8.25-10.38-3.32-12.11-3.83-1.32-3.83-3.56-5.44-3.25-2.73-2-4.43,1.12-2.89-1.32-12.25-12.32-49.31-14.11-59.86-2.31-23.37-3.94-26.2-3-4.2-1.36-6.47,2.18-3.52,2.18-5.22-7-19.74-11.6-44.41c-2.81-15-7.42-20.62-7.42-20.62S93.18,417,93.22,424.44s-2.48,12,0,14.3,2.19,4.08,1.11,5.89,1.36,9.08,2.17,14.52-3.81,54-4.63,65.57.55,20.87-.68,21.89-17.29,6.29-20.13,6.13-11.87-3.18-12.68-4.08-3.66-6.7-2.85-7.49a10,10,0,0,0,2.31-2.61c.27-.79-4.07-38.22-5.29-46.4s1.11-34.25-.12-37.09-3.11-4.54-1.62-7.15,1.35-2.95-.14-11.45-7.05-34.94-7.87-38.23-8.5-39.85-6-94Z"/>
            <g>
              <path class="cls-18" d="M101.78,363a3.73,3.73,0,0,0,.44-.45c-.4-8.5-1.48-16.88-2.07-25.34-.65-9.39-.35-18.83-.61-28.23,0-.27-.2-.19-.2,0-.1,9.41-.12,18.9.37,28.29C100.17,345.92,101.17,354.43,101.78,363Z"/>
              <path class="cls-18" d="M101.51,363a3.52,3.52,0,0,0,.5-.36c-2.06-7.8-2.54-15.85-3.17-24.48a267.12,267.12,0,0,1-.64-28.86c0-.37-.27-.29-.31,0-1.4,10.08-.43,21.23.32,31.43C98.73,347.65,99,357.19,101.51,363Z"/>
            </g>
            <path class="cls-11" d="M113.81,414.8c2.94.2,44-4.42,47-4.83-.07-3.41-3.33-26.58-3.16-30,.33-6.44-36.11,3.89-36.09-2.56a431.43,431.43,0,0,0-5.78-73.87l-30.74.32Q85.76,313,86.26,322c.48,8.46,1.08,17,1.3,25.44a65.23,65.23,0,0,1-1.74,17.92c.45,7.66-46,4.69-45.83,12.4.11,6.4,6.95,29.21,7.25,35.66,2.6.31,45.53,1.22,48.13.75,1.92-17.19,5.68-47.3,5.68-47.3s4.16,5.66,6.7,20.62C109,394.81,112.43,408.92,113.81,414.8Z"/>
          </g>
          <g>
            <g>
              <rect class="cls-19" x="87.05" y="299.62" width="30.86" height="7.5"/>
              <path class="cls-20" d="M118.28,307.46H86.69v-8.19h31.59Zm-30.86-.68h30.13V300H87.42Z"/>
            </g>
            <path class="cls-21" d="M87.05,299.62v7.5h30.86v-7.5Zm23.59,3.12c-.11,1.29.58,2-.75,2.8-1.52.89-5,.7-6.68.61-2.78-.15-10.16,1-9.88-3.18.09-1.35.7-2.49,2.41-2.36l.39,0c2.28-.08,4.51-.23,6.8-.18a32.88,32.88,0,0,1,5.58.21C109.92,300.85,110.78,301.27,110.64,302.74Z"/>
            <g>
              <path class="cls-22" d="M107.4,297.33H97.14c-3.88,0-4.21,2.69-4.21,6s.33,6,4.21,6H107.4c3.88,0,4.08-2.68,4.08-6S111.28,297.33,107.4,297.33Zm-1.25,10.06H98.37c-2.94,0-3.19-1.82-3.19-4.06s.25-4.06,3.19-4.06h7.78c2.93,0,3.09,1.81,3.09,4.06S109.08,307.39,106.15,307.39Z"/>
              <path class="cls-23" d="M106.15,307.73H98.37c-3.55,0-3.55-2.65-3.55-4.4s0-4.41,3.55-4.41h7.78c3.46,0,3.46,2.44,3.46,4.41S109.61,307.73,106.15,307.73Zm-7.78-8.13c-2.4,0-2.82,1.2-2.82,3.73s.42,3.72,2.82,3.72h7.78c2.54,0,2.72-1.41,2.72-3.72s-.18-3.73-2.72-3.73Z"/>
            </g>
            <g class="cls-24">
              <path class="cls-25" d="M95.18,303.33s0-.08,0-.11c0,.13-.09.26-.13.4a7,7,0,0,0,0,3.17,2.72,2.72,0,0,0,1.94,1.29,20.93,20.93,0,0,0,3.72.35,20.69,20.69,0,0,0,5.67-.39,3.26,3.26,0,0,0,2.79-4c-.06,1.89-.48,3.33-3.08,3.33H98.37C95.43,307.39,95.18,305.57,95.18,303.33Z"/>
              <path class="cls-25" d="M108.27,299.29a3.06,3.06,0,0,0-1.86-.57,31.42,31.42,0,0,0-4.23-.12,32.77,32.77,0,0,0-4.21.26,4.5,4.5,0,0,0-1.81,1,3.39,3.39,0,0,1,2.21-.61h7.78c2.18,0,2.83,1,3,2.44A3,3,0,0,0,108.27,299.29Z"/>
            </g>
          </g>
          <path class="cls-26" d="M71.06,404.13h0c-20.81,0-44-3.31-44.19-3.34l-.31-.05v-.28c0-.23-.37-23-.37-36.08s2-35.87,2-36.1l0-.22,3.43-1.17-.24-1.59a5.08,5.08,0,0,1-2.3.53A6.81,6.81,0,0,1,26,325l-.09,0,0-.09c-4.94-9.84-8.09-49.16-7.38-67.71.72-18.77,13.44-64.09,18-75.3,3.55-8.72,10.64-10.19,18.83-11.91,2.11-.44,4.29-.9,6.48-1.49,10.4-2.85,23.67-10.05,23.81-10.12l.55-.29v.59c0,.62-2.37.49-2.53.72-.51,1-1.77,8.59-1,15.48.49,4.39,1,10.09,1.43,15.14l2.42,12c1.58,18.84,7.75,66.06,8.21,93.09.48,28.49,0,105.69,0,106.47v.26l-.27.07C88.84,403.39,81,404.13,71.06,404.13Z"/>
          <path class="cls-26" d="M31.69,365.07h0c-1.61,0-3.34-.08-5.17-.23l-.34,0v-.43c0-13.13,2-35.87,2-36.1l0-.22,2.66-.9c.62-.16,1.23-.3,1.84-.41a58.27,58.27,0,0,1,8-.71l1.41-.06a101.72,101.72,0,0,1,10.33,0h.34v.32c.16,4.06.3,8.45.26,12.9v1.31c0,5.07,0,10.81-2.25,15.64C48.12,362.06,41.68,365.07,31.69,365.07Z"/>
          <g>
            <path class="cls-27" d="M31.7,324.73l.27,1.8a27.63,27.63,0,0,1,3-.55c2.92-.29,5.86-.43,8.8-.52s5.76-.09,8.62.05l-.15-3.72h0a39.74,39.74,0,0,0-2.47-4.15,3.33,3.33,0,0,1-.66-1.63c0-.87.42-2-.12-2.81a26.29,26.29,0,0,0-4.42-4.4c-1.81-1.6-4-3.29-6.68-2.51-3.84,1.12-7.23,4.82-9.37,7.87-1.73,2.49-3.44,6.33-2.83,9.56.15.37.31.72.46,1C26.18,324.73,29.12,326.44,31.7,324.73Z"/>
            <path class="cls-27" d="M31.67,327l-.26-1.65a5,5,0,0,1-2.29.53h0A6.81,6.81,0,0,1,26,325l-.09,0,0-.09c-.16-.32-.31-.67-.47-1.05-.64-3.35,1.06-7.28,2.87-9.86s5.22-6.74,9.56-8a5.33,5.33,0,0,1,1.47-.21c2.22,0,4,1.44,5.57,2.8l.77.66a21.88,21.88,0,0,1,3.71,3.8,3.25,3.25,0,0,1,.26,2.32,5.76,5.76,0,0,0-.07.69,2.68,2.68,0,0,0,.5,1.28l.1.17c.3.5.61,1,.93,1.46a18.77,18.77,0,0,1,1.56,2.72l0,.17.16,4.05-.4,0q-4-.19-8.59-.05c-2.6.08-5.68.2-8.77.52a24.43,24.43,0,0,0-3,.54Zm.3-2.81.31,2a24.1,24.1,0,0,1,2.68-.47c3.12-.32,6.21-.44,8.82-.52,2.92-.1,5.67-.08,8.26,0l-.14-3.31a17.51,17.51,0,0,0-1.48-2.55c-.32-.5-.64-1-.94-1.5l-.1-.16a3.21,3.21,0,0,1-.6-1.64c0-.23,0-.49.08-.75a2.8,2.8,0,0,0-.14-1.86,21.24,21.24,0,0,0-3.61-3.67l-.76-.67c-1.43-1.27-3.13-2.62-5.07-2.62a4.51,4.51,0,0,0-1.25.19c-4.27,1.24-7.84,5.82-9.17,7.73-1.72,2.47-3.36,6.22-2.77,9.31.11.27.25.57.38.85a6.35,6.35,0,0,0,2.65.65h0a4.21,4.21,0,0,0,2.36-.69Z"/>
          </g>
          <path class="cls-28" d="M69.58,185c.31.13.62.24.94.34,1.69.56,7.61,5.55,8.27,7.25a.68.68,0,0,1,0,.64c-.5.78-2.17,1.8-3.94,2.88s-3.93,2.39-4,3a.06.06,0,0,0,0,.08c5.06,5.19,15.37,30.88,17.54,37,.82,2.29,1.82,5.14,2.83,8.13-1.55-21.75-3.34-43.06-4.12-52.39l-.24-3c-.43-5-1-10-1.48-14.38-1-8.57-1.44-13.09-.85-14.27,0,0,.12-.19.27-.41.34-.52,1-1.51,1.36-2.15a6.27,6.27,0,0,0-2,.76l-1.53.8c-2.16,1.12-5.78,3-5.91,4-.36,1.05-.73,2-1.1,3-.44,1.16-.9,2.37-1.28,3.57-.61,1.9-1.2,3.83-1.77,5.71-.29.94-.57,1.89-.87,2.83-.54,1.79-1,3.39-1.59,5C69.86,184.23,69.7,184.7,69.58,185Z"/>
          <path class="cls-25" d="M46.42,180.83c-.07-.14-.29-.05-.24.08,1,2.42,2.08,4.8,3,7.23s1.72,4.93,2.74,7.33c.06.12.28.07.26-.07C51.41,190.37,48.66,185.43,46.42,180.83Z"/>
          <path class="cls-29" d="M62,289c-.11-.35-.23-.72-.35-1.07-1.37-5-2.24-10.14-4.15-15-.05-.13-.25,0-.21.08a82.45,82.45,0,0,1,2.26,8.64A85.82,85.82,0,0,0,53.66,268c-.07-.11-.26,0-.22.11,3,7.2,5.67,14.4,8.15,21.76C64,297,66.45,304.17,70,310.94c0,.08.18,0,.15-.07C67,303.73,64.43,296.38,62,289Z"/>
          <path class="cls-29" d="M53.48,198.81c0-.13-.22-.1-.22,0,.07,5-.31,9.94-.62,14.93-.33,5.25-.25,10.52-.48,15.77-.42,9.39-1.73,18.72-2.34,28.09-.25-.24-.51-.49-.78-.72-4-4.72-8.75-8.8-15.09-10.53-.13,0-.23.15-.1.19a25.25,25.25,0,0,1,8.46,4.66A47,47,0,0,1,46,254.7a31.76,31.76,0,0,0-7.59-3.32c-4.07-1.16-8.39-.6-11.38,2.35-.06.07,0,.17.1.11,3.75-2.94,8-3.12,12.52-1.59,3.51,1.2,6.23,3.36,9.27,5.2l.07.07h.07l.73.44c-.06.93-.12,1.86-.15,2.78-.48,10.49-.49,21.05-.55,31.55,0,7.95,2.84,16.66-.41,24.32a.3.3,0,1,0,.55.23c1.72-3.3,1.74-7.16,1.6-10.74-.17-4.05-.82-8.07-.9-12.12-.11-5.29.13-10.59.24-15.87s.06-10.75.25-16.13c.38-10.65,1.92-21.22,2.34-31.87.2-5.26.14-10.52.38-15.78S54.32,203.94,53.48,198.81Z"/>
          <path class="cls-25" d="M47.93,333.91a66.43,66.43,0,0,1-3.14,9.33A38.41,38.41,0,0,1,39.08,352c-.17.21.1.41.3.24,5.24-4.52,7.64-12,8.78-18.31C48.18,333.79,48,333.78,47.93,333.91Z"/>
          <g>
            <path class="cls-30" d="M123.79,160.48s4.35,1.46,2.63,9.1S113.07,239,112.08,248s-1.33,142.41,1.61,153.52c0,0,29.15,1.13,54.62-6.58,0,0-5.38-58.53-10.78-83s-11.62-25.83-11.38-36.72,6.49-40,6.49-40,4.89,33.57,21.06,30.85,34.54-36.75,39.68-50.36c0,0,.25-26.78-25.47-24.51l-11,25s-6.13-23.26-8.45-31-5-7.94-11.39-10.43S123.79,160.48,123.79,160.48Z"/>
            <path class="cls-31" d="M122.32,399.21c-5.67-3.29-6.65-10.37-7.54-16q-1.57-10.08-2.89-20.2c.32,19.74.89,35.07,1.8,38.53,0,0,5.92.22,14.75-.22A19.39,19.39,0,0,1,122.32,399.21Z"/>
            <path class="cls-26" d="M132.72,327.56v.3c.06,1.57.19,3.27.42,5.36.17,1.53.3,3.1.43,4.61.14,1.7.28,3.44.48,5.16.69,6,1.55,13.54,7.9,17.14a22.31,22.31,0,0,0,10.83,3,16.67,16.67,0,0,0,7.16-1.55,22.68,22.68,0,0,0,4.21-2.6c-1.6-13.69-3.15-25.19-4.61-34.19a58.39,58.39,0,0,1-5.9.48c-1.38.06-2.69.12-3.92.24s-2.7.27-4.06.39c-3.47.32-7.06.64-10.49,1.24C134.35,327.24,133.53,327.39,132.72,327.56Z"/>
            <g class="cls-24">
              <path class="cls-32" d="M188.9,194.55a39.55,39.55,0,0,0,2.57,6.36,26.18,26.18,0,0,0,6,8.48c4.55,4,10,5.62,15.89,6.2,0-2-.8-26.43-25.3-24.38A25.94,25.94,0,0,0,188.9,194.55Z"/>
              <path class="cls-33" d="M213.76,216l-.42,0c-6.89-.69-12-2.69-16.11-6.29a27.07,27.07,0,0,1-6.1-8.59,39.73,39.73,0,0,1-2.58-6.41l-.07-.24a24.48,24.48,0,0,1-.77-3.14l-.05-.35.38,0c10.58-.89,18.42,3.14,22.58,11.6a32.51,32.51,0,0,1,3.13,13.11ZM188.5,191.52a25.18,25.18,0,0,0,.69,2.7l.07.23a37.8,37.8,0,0,0,2.54,6.31,26.49,26.49,0,0,0,5.93,8.39c3.9,3.42,8.76,5.35,15.28,6.06A32.2,32.2,0,0,0,210,202.76C205.92,194.58,198.71,190.78,188.5,191.52Z"/>
            </g>
            <path class="cls-34" d="M209.42,210.07c-2.17-4-4.83-8-8.64-10.84-3.47-2.54-7.57-3.55-11.76-4.33a40.08,40.08,0,0,0,2.45,6,26.18,26.18,0,0,0,6,8.48c4.2,3.7,9.18,5.35,14.53,6C211.23,213.61,210.37,211.82,209.42,210.07Z"/>
            <g>
              <path class="cls-35" d="M207.64,201.17a14.52,14.52,0,0,0-2.35-5.17A20.2,20.2,0,0,0,193,191.16c-.82,1.42-1.85,2.78-2.68,4.1l-.74,1.16a42.22,42.22,0,0,0,1.94,4.49,26.18,26.18,0,0,0,6,8.48,22.53,22.53,0,0,0,5.91,3.76c.68-1.24,1.34-2.49,2-3.75.82-1.64,1.73-3.24,2.68-4.81A19.51,19.51,0,0,0,207.64,201.17Z"/>
              <path class="cls-36" d="M203.57,213.6l-.33-.14a23.36,23.36,0,0,1-6-3.82,27.07,27.07,0,0,1-6.1-8.59,42.83,42.83,0,0,1-1.95-4.52l-.05-.15.82-1.29c.34-.54.7-1.08,1.08-1.63.55-.8,1.11-1.63,1.59-2.46l.12-.2.23,0a20.76,20.76,0,0,1,12.58,4.93l0,.07a14.83,14.83,0,0,1,2.4,5.28,18.87,18.87,0,0,1,.44,3.48v.1l-.05.08c-1,1.72-1.91,3.29-2.68,4.79-.68,1.34-1.38,2.65-2,3.75Zm-13.64-17.14a43.22,43.22,0,0,0,1.87,4.3,26.49,26.49,0,0,0,5.93,8.39,22.73,22.73,0,0,0,5.5,3.55c.56-1,1.2-2.22,1.82-3.44.76-1.5,1.62-3,2.65-4.75a18.43,18.43,0,0,0-.42-3.27,14.13,14.13,0,0,0-2.27-5,19.88,19.88,0,0,0-11.85-4.7c-.47.78-1,1.56-1.51,2.3-.36.55-.73,1.08-1.07,1.61Z"/>
            </g>
            <path class="cls-37" d="M208.07,204.59a19.51,19.51,0,0,0-.43-3.42,14.52,14.52,0,0,0-2.35-5.17A20.2,20.2,0,0,0,193,191.16c-.52.88-1.11,1.75-1.68,2.6a5.44,5.44,0,0,0,.75,3.51c1.32,2.09,3.51,3.58,5.57,5s4.56,3.54,7.45,3.5"/>
            <path class="cls-38" d="M111.82,253.17l.05-1.6c.07-1.75.13-2.95.21-3.56.93-8.58,10.67-70.71,12.46-78.68,1.62-7.19-.83-8.48-.85-8.5l-.57-.27.53-.32a2.4,2.4,0,0,1,1.13-.22,5.15,5.15,0,0,1,1.34.19c5,1.26,7.69,2.33,8.25,4.69,1,3,1.91,6.17,2.81,9.2.53,1.81,1.18,3.63,1.8,5.39a68.51,68.51,0,0,1,2.68,8.81l.06.32-.36.08a23.11,23.11,0,0,0-6.26,2.53,32.07,32.07,0,0,1-4.68,2.14.09.09,0,0,0-.07.06c.51.55,1,1,1.47,1.54a37.6,37.6,0,0,1,6.24,7.53l.16.27-.29.17c-2.76,1.61-4.27,5-5.48,7.74l-.2.43c-.66,1.49-1.3,3-1.95,4.46-1.35,3.12-2.76,6.35-4.3,9.5-4.8,9.85-9.2,18.57-13.43,26.66Z"/>
            <path class="cls-29" d="M159.32,184.15a103.41,103.41,0,0,0-6.85,10.47c-2.07,3.42-4.92,6.57-5.94,10.43,0,.12.15.16.2,0a21.35,21.35,0,0,1,1-2A189.93,189.93,0,0,1,150.65,225c.46,7.43.48,14.86.74,22.31,0,.1.16.07.16,0,.27-7.44.13-14.91-.32-22.35s-1.14-15-3.33-22.08h0c1.47-2.54,3.32-4.89,4.77-7.44,2.16-3.79,4.62-7.42,6.77-11.2C159.48,184.15,159.37,184.09,159.32,184.15Z"/>
            <path class="cls-25" d="M177.89,214.6s0,0,0,0a38.49,38.49,0,0,0-3.64,7.78c-2,2.79-4.17,5.17-5.56,8.31a21.23,21.23,0,0,0-1.74,9.58c0,.24.36.16.37,0a29.41,29.41,0,0,1,2.1-9.87c1.11-2.56,3-4.62,4.5-7-.22.7-.43,1.41-.61,2.12-.95,3.7-1.51,7.9-.48,11.63.05.21.4.1.38-.09a33.79,33.79,0,0,1,.64-11.47A57.89,57.89,0,0,1,177.89,214.6Z"/>
          </g>
          <g class="cls-39">
            <g>
              <path class="cls-40" d="M30.3,312.66c.25,1.31,2.74,19.8,3.16,26.83s3.16,12.18,7.79,12.82,2.53-27.09,4.43-28,4.76,7.34,9.23,5.77-5.44-12.62-6.75-15-4.43-3.44-4.57-5.81-3.44-3.68-6.33-2.8S30.05,311.34,30.3,312.66Z"/>
              <path class="cls-4" d="M41.41,352.66H41.2c-4.62-.64-7.65-5.55-8.11-13.14-.41-7-2.91-25.52-3.15-26.79-.3-1.54,4.22-5.64,7.2-6.54a6.86,6.86,0,0,1,2-.29c2.64,0,4.73,1.47,4.85,3.41.07,1.22,1,2.07,2.16,3.05A9.91,9.91,0,0,1,48.49,315c.28.51,1,1.51,1.89,2.67,2.7,3.6,6.77,9.06,5.92,11.59A1.9,1.9,0,0,1,55,330.44a4,4,0,0,1-1.25.22c-2.33,0-4.14-2.2-5.59-4-.84-1-1.7-2.05-2.22-2.05a.32.32,0,0,0-.13,0c-.54.45-.69,5.32-.82,9.62C44.69,345,44.24,352.66,41.41,352.66Z"/>
            </g>
            <path class="cls-41" d="M48.75,326.38c-1.27-2.6-3.42-5.61-6.92-4.5-.09,0-.07.17,0,.15a4.66,4.66,0,0,1,4.73,2.12,7.07,7.07,0,0,0-4.3-.62c-.08,0-.11.14,0,.14a7.77,7.77,0,0,1,5.13,1.79.21.21,0,0,0,.19,0c.27.35.55.71.86,1C48.57,326.64,48.83,326.54,48.75,326.38Z"/>
          </g>
          <g>
            <g>
              <g>
                <path class="cls-42" d="M75.75,277.3c-1.9-.11-3.33-.64-4.07-1.55-1.93-2.35-4.6-9.09-4.72-9.37l1.61-.55c0,.07,2.7,6.8,4.46,9,1.49,1.82,8.91,1.34,17.13-3.55l.92,1.32C85.19,276.08,79.52,277.53,75.75,277.3Z"/>
                <path class="cls-43" d="M88.39,270.14a6.75,6.75,0,0,0,1.9,4.71s1.52,1.45,7-3.08a5.89,5.89,0,0,0-1.57-3.92S89.63,268,88.39,270.14Z"/>
              </g>
              <g>
                <path class="cls-44" d="M74.31,277.12c1.86-.34,3.21-1,3.82-2,1.59-2.56,3.32-9.56,3.4-9.85l-1.66-.35c0,.06-1.76,7.06-3.22,9.41-1.22,2-8.64,2.38-17.46-1.51l-.74,1.42C64.78,277,70.59,277.78,74.31,277.12Z"/>
                <path class="cls-43" d="M60.78,271.49a6.59,6.59,0,0,1-1.24,4.89s-1.3,1.62-7.33-2.22a5.84,5.84,0,0,1,1-4.08S59.25,269.46,60.78,271.49Z"/>
              </g>
              <path class="cls-43" d="M73.81,164.55a44.34,44.34,0,0,0,4.75-4.13c-5.32,1.84-10,4.54-13.4,9.23-7,9.56-4.57,23.68-3,33,.25,1.46.49,2.82.67,4.05.65,4.49,1.16,7.28,1.5,9l-.48.2c-4.09,1.86-6.66,7.56-6.88,15.22-.28,9.94,9.32,33.21,9.73,34.2l3.18-1.13c-.1-.24-9.76-23.67-9.5-33,.18-6.28,1.54-10.46,4.37-11.76,1.74-.78,5.06-.32,7.68,1.44C80.7,226.45,82,254.08,79,264l3.29.85c2.93-9.73,2.07-40.13-8.4-47.18a12.91,12.91,0,0,0-6.19-2.41c-.32-1.59-.83-4.33-1.51-9-.18-1.25-.41-2.64-.67-4.13-1.61-9.38-3.8-22.22,2.43-30.76a18.06,18.06,0,0,1,2.62-2.88"/>
              <path class="cls-43" d="M66.09,206.27s1.41,8.58,1.57,9.36.39,1.08,1.56,1.47c0,0,.55.06.31.7a9.43,9.43,0,0,0-.57,2.77c0,.69.16,1-.39.92s-2.66-.86-4.18.3c-.51.39-.64.31-1-.42a24.11,24.11,0,0,1-1.29-3c-.09-.43.65-.52,1-.74s.75-.28.51-1.7-1.44-8.48-1.54-9.21.73-.89,1.66-1.15S66,205.58,66.09,206.27Z"/>
              <path class="cls-45" d="M65,216.86a.11.11,0,0,0,0-.12c0-.2.81-.26.86,0,0,.08,0,.14,0,.2S64.84,217,65,216.86Z"/>
            </g>
            <g>
              <g>
                <path class="cls-43" d="M139.31,254.73c-2,6-8.91,9.29-15.36,7.41s-10-8.26-8-14.23,8.91-9.29,15.36-7.41S141.35,248.75,139.31,254.73Z"/>
                <path class="cls-46" d="M137.92,245.19a12.47,12.47,0,0,1,.68,5.1c-.24,4-1.93,7.28-6,9-4.45,1.88-10.1.59-13.83-2.08a8.76,8.76,0,0,1-3.19-4.27,11.63,11.63,0,0,0,8.42,9.16c6.45,1.88,13.33-1.44,15.36-7.41A10.58,10.58,0,0,0,137.92,245.19Z"/>
                <path class="cls-45" d="M130.94,252a3.71,3.71,0,0,1-4.58,2.21A3.34,3.34,0,0,1,124,250a3.73,3.73,0,0,1,4.58-2.21A3.34,3.34,0,0,1,130.94,252Z"/>
              </g>
              <path class="cls-43" d="M138.51,164.75c-.5-.65-3.12-1.37-3.83-.91s-.37.57,1.26,2.57c6.6,8.1-3.76,60.36-8.13,79a1.34,1.34,0,0,0,0,.63.5.5,0,0,1,.26-.15,3.36,3.36,0,0,1,2.51.71,1.45,1.45,0,0,0,.28-.57c0-.17,4-17.18,6.93-35.28C139.29,201.59,143.87,171.9,138.51,164.75Z"/>
            </g>
          </g>
          <g>
            <g>
              <path class="cls-4" d="M207.75,198.37c9.07-2.11,13-10.77,13-10.77,14.73-3.81,15.75-6.31,15.71-8.54s-2.64-1.74-2.64-1.74l-12.57,3.17s12-10.25,14-16-1.71-5.3-6.49-.85-9.36,8.43-9.36,8.43-1.52,0-.41-2.14,9-16.22,9-16.22,1.78-2.61-.53-4.35-5.72,1.78-15.69,17.17c0,0-.68-1.9,2.15-12.34,0,0,2-8.07-1.79-10.43,0,0-2.95,0-8.1,20,0,0-2.95,9.56-5.86,11.45,0,0-.44.86-2.36-3s-5.42-6.85-9.57-4.48c0,0-2.22.73.89,3.85s3.76,5.86,4.61,10.88.85,5,3.5,9.91L192,197.27s7.71,8.43,13,8.49l2.23-6.6"/>
              <g>
                <path class="cls-40" d="M205.55,163.21s17.37,5.82,16.1,18.85"/>
                <path class="cls-47" d="M205.55,163.21a27.15,27.15,0,0,1,6.2,2.54,24.49,24.49,0,0,1,5.45,4,16.18,16.18,0,0,1,3.81,5.63,14.13,14.13,0,0,1,.79,3.31,13,13,0,0,1-.15,3.36,15,15,0,0,0-1.35-6.37,18.42,18.42,0,0,0-3.8-5.22,31.67,31.67,0,0,0-5.14-4.06c-.92-.61-1.87-1.17-2.85-1.69S206.56,163.68,205.55,163.21Z"/>
              </g>
            </g>
            <path class="cls-4" d="M197.3,174.78s6.62,3.54,7.57,10.16"/>
          </g>
          <g>
            <path class="cls-4" d="M165.53,112.59c-4.66,7.94-13.11,10.66-19.43,7s-3.46-8.1,1.2-16,4.75-7,11.6-9.57C173.89,88.27,170.18,104.64,165.53,112.59Z"/>
            <path class="cls-48" d="M161,97.71a3.48,3.48,0,0,1,3.06.55c1.09,1,1.1,2.63.86,4.06a23.61,23.61,0,0,1-7.4,13,5.75,5.75,0,0,1-2,1.39,2.25,2.25,0,0,1-2.3-.42,2.56,2.56,0,0,1-.31-2.62c.8-2.22,3-3.54,4.82-5a4.57,4.57,0,0,0,1.27-1.43,1.77,1.77,0,0,0-.08-1.82,2.29,2.29,0,0,0-1.29-.73,13,13,0,0,0-3-.28c-.31-1.55,1.06-2.87,2-3.86A9.13,9.13,0,0,1,161,97.71Z"/>
          </g>
          <g>
            <path class="cls-4" d="M45.05,105.69c3.1,8.39,10,12,15.71,9s3.78-7.68.68-16.07-3.28-7.44-8.81-10.74C40.54,80.64,42,97.31,45.05,105.69Z"/>
            <path class="cls-48" d="M50.42,91.39a2.58,2.58,0,0,0-2.65.22c-1,.83-1.21,2.5-1.16,3.94a25.41,25.41,0,0,0,4.9,13.71,5.08,5.08,0,0,0,1.56,1.6,1.7,1.7,0,0,0,2-.18,2.9,2.9,0,0,0,.54-2.57c-.45-2.28-2.16-3.83-3.55-5.5a4.18,4.18,0,0,1-.92-1.55,2,2,0,0,1,.25-1.8,1.89,1.89,0,0,1,1.17-.59,9.13,9.13,0,0,1,2.61,0c.42-1.51-.6-3-1.31-4.06A8,8,0,0,0,50.42,91.39Z"/>
          </g>
          <path class="cls-4" d="M160.09,78.73c2.83-30.55-12.24-51.85-47-54.24C79.4,22.16,58.6,38.28,55.77,68.83,54.46,83,56,107.62,56,108.39c2.31,44.39,46.75,50.71,48.74,50.35,7-1.27,38.13.18,48.62-43.64C153.53,114.35,158.78,92.85,160.09,78.73Z"/>
          <path class="cls-12" d="M92.16,75.29c-3.81-1.24-17.48-2-21.31,6.08,0,0,11.09-3.55,20.37-1.69C91.22,79.68,94.09,75.92,92.16,75.29Z"/>
          <path class="cls-12" d="M121.28,75.6c3.91-.88,17.59-.34,20.63,8.07,0,0-10.7-4.59-20.12-3.62C121.79,80.05,119.29,76,121.28,75.6Z"/>
          <path class="cls-48" d="M73.23,54.24s1.94,4.7,23.69,7.87a61.69,61.69,0,0,0,30.51-3.29l7.72-2.89s9.87-10.6,14.21,21.2l6.23,27.41.83-57L77.05,34.94,64,47,54.44,62.19s.33,24.73.94,35.46L61.19,74S70.1,73.27,73.23,54.24Z"/>
          <path class="cls-12" d="M148.4,55l0,3.89,7.15,45.69s4.68-10.06,6.37-15.7c0,0,3.3-14.54,1.58-25.1a40.56,40.56,0,0,0,.27,8.36s8.44-27.22-10.59-47.3c0,0,1.51,6.69,9,11.29,0,0-10.3-30.91-40.09-34.46C106.53-.22,83.75,1.24,75.54,16.4c0,0-12.77-3.36-23,20.15,0,0-2.75,6.88,12.41-11.73,0,0-10.1,2.32-15.62,25.16-5.21,21.56-.53,34.19,5.48,50.05,0,0,.18-17.9,5.86-30.85L61,72.07s5.3,0,11.08-22.16c0,0-2.27,3.49,13.4,7.9a99.3,99.3,0,0,0,54.64-.42Z"/>
          <g>
            <g>
              <ellipse class="cls-49" cx="127.15" cy="99.57" rx="10.56" ry="10.13" transform="translate(20.48 220.83) rotate(-86.73)"/>
              <path class="cls-50" d="M137.3,100.15a10.91,10.91,0,0,1-3.26,7.31,10.17,10.17,0,0,1-15-.55A11.2,11.2,0,0,1,120,91.36a10.35,10.35,0,0,1,7.82-2.69,10.24,10.24,0,0,1,7.13,3.86A10.92,10.92,0,0,1,137.3,100.15Zm-.07,0a10.83,10.83,0,0,0-2.47-7.51,9.77,9.77,0,0,0-14.37-.81,10.84,10.84,0,0,0-.84,14.66,9.79,9.79,0,0,0,14.37.84A10.8,10.8,0,0,0,137.23,100.15Z"/>
            </g>
            <ellipse class="cls-51" cx="127.18" cy="99.13" rx="6.57" ry="6.3" transform="translate(20.95 220.43) rotate(-86.73)"/>
            <ellipse class="cls-52" cx="129.65" cy="96.05" rx="1.91" ry="1.83" transform="translate(26.36 220.01) rotate(-86.73)"/>
          </g>
          <g>
            <g>
              <ellipse class="cls-49" cx="85.36" cy="97.05" rx="10.55" ry="10.13" transform="translate(-16.4 176.73) rotate(-86.73)"/>
              <path class="cls-50" d="M95.52,97.63a10.87,10.87,0,0,1-3.27,7.29,10.19,10.19,0,0,1-7.51,3,10.31,10.31,0,0,1-7.47-3.55,11.19,11.19,0,0,1,.89-15.54A10.31,10.31,0,0,1,86,86.16,10.19,10.19,0,0,1,93.1,90,10.89,10.89,0,0,1,95.52,97.63Zm-.08,0A10.76,10.76,0,0,0,93,90.12a9.78,9.78,0,0,0-14.36-.81A10.8,10.8,0,0,0,77.77,104a9.78,9.78,0,0,0,14.36.83A10.73,10.73,0,0,0,95.44,97.62Z"/>
            </g>
            <ellipse class="cls-51" cx="85.39" cy="96.6" rx="6.56" ry="6.3" transform="translate(-15.93 176.33) rotate(-86.73)"/>
            <ellipse class="cls-52" cx="88.18" cy="94.16" rx="1.9" ry="1.83" transform="translate(-10.86 176.82) rotate(-86.73)"/>
          </g>
          <g>
            <path class="cls-53" d="M86.63,126.15s8,17.24,18.82,17.95c12.27.81,18.25-17.34,18.25-17.34S105.65,132.56,86.63,126.15Z"/>
            <path class="cls-54" d="M88.59,127.39s8.19,12.83,19.06,12.16c9-.56,13.81-12.59,13.81-12.59S107.61,133.8,88.59,127.39Z"/>
            <path class="cls-55" d="M91.56,127.56s3.91,8.54,17.51,6.94c0,0,7.42-.42,9.72-5.95C118.79,128.55,103.78,133,91.56,127.56Z"/>
            <path class="cls-56" d="M83.87,125.19a1.65,1.65,0,0,0,.52.36c8.44,4,29,10,40.66-1.41,0,0-5.38,4.79-16.87,5.4S83.87,125.19,83.87,125.19Z"/>
            <path class="cls-57" d="M99.42,137.59a8,8,0,0,1,6.37-1s3-1.89,7.88.66A12.21,12.21,0,0,1,99.42,137.59Z"/>
          </g>
          <path class="cls-12" d="M105.45,117.72s11,10.48-3.43,10.12c-6-.15-17-1.44-17-1.44l1.08,3.25-2.14-3a3.24,3.24,0,0,1,2.64-5.12h0c13.41-4,15.76-5.24,18.83-3.8Z"/>
          <path class="cls-12" d="M105.78,117.54s-9.36,10.3,3.29,10.12c5.74-.08,16.27-1.44,16.27-1.44l-1,3.25,2.16-3.16a3.18,3.18,0,0,0-2.63-5h0c-6.81-1.81-11.51-3.44-18-3.8Z"/>
          <g>
            <path class="cls-40" d="M97.75,113.06a16.21,16.21,0,0,0,6.39,4.3c3.76,1.25,9.62-3.39,9.62-3.39"/>
            <path class="cls-58" d="M97.75,113.06a25,25,0,0,0,3.71,2.59,15.35,15.35,0,0,0,2,.95,5.21,5.21,0,0,0,2,.47,7.39,7.39,0,0,0,2.11-.31,16.19,16.19,0,0,0,2.09-.73,39.69,39.69,0,0,0,4.06-2.06,16.34,16.34,0,0,1-3.72,2.76,9.78,9.78,0,0,1-4.55,1.34,5.9,5.9,0,0,1-2.39-.6,12.15,12.15,0,0,1-2-1.16A13.24,13.24,0,0,1,97.75,113.06Z"/>
          </g>
          <path class="cls-38" d="M49.45,298,50.72,314C31.41,317.14,26,325,26,325s-2.73-5.3-4-19.5"/>
        </g>
      </g>
    </g>
  </g>
</svg>
