<svg id="Layer_1" data-name="Layer 1" xmlns="http://www.w3.org/2000/svg" width="612" height="556" viewBox="0 0 612 556">
  <defs>
    <style>
      .cls-1 {
        fill: #639440;
      }

      .cls-2 {
        fill: #53622b;
      }

      .cls-3 {
        fill: #f05638;
      }

      .cls-4 {
        fill: #d94e32;
      }

      .cls-5 {
        fill: #cf4a2e;
      }

      .cls-6 {
        fill: #fff;
      }

      .cls-7 {
        fill: #47140f;
      }

      .cls-8 {
        fill: #79b543;
      }

      .cls-22, .cls-9 {
        fill: #f9dad2;
      }

      .cls-9 {
        stroke: #755339;
      }

      .cls-12, .cls-39, .cls-43, .cls-47, .cls-48, .cls-50, .cls-9 {
        stroke-miterlimit: 10;
      }

      .cls-10 {
        fill: #c4b8bb;
      }

      .cls-11 {
        fill: #755339;
      }

      .cls-12, .cls-37 {
        fill: #8e8e34;
      }

      .cls-12 {
        stroke: #3f2717;
      }

      .cls-13 {
        fill: #b26b51;
      }

      .cls-14 {
        fill: #342517;
      }

      .cls-15 {
        fill: #381515;
      }

      .cls-16 {
        fill: #2b1c1c;
      }

      .cls-17 {
        fill: #a84545;
      }

      .cls-18 {
        fill: #f4a198;
      }

      .cls-19 {
        fill: #681c1c;
      }

      .cls-20 {
        fill: #f97a98;
      }

      .cls-21 {
        fill: #a1c5ce;
      }

      .cls-23 {
        fill: #773823;
      }

      .cls-24 {
        fill: #5c2a1b;
      }

      .cls-25 {
        fill: #99922c;
      }

      .cls-26 {
        fill: #b1a927;
      }

      .cls-27 {
        fill: #401313;
      }

      .cls-28 {
        fill: #945a3c;
      }

      .cls-29 {
        fill: #67a944;
      }

      .cls-30 {
        fill: #7bbc43;
      }

      .cls-31 {
        fill: #88c140;
      }

      .cls-32 {
        fill: #acd15f;
      }

      .cls-33 {
        fill: #653f18;
      }

      .cls-34 {
        fill: #2b8ecd;
      }

      .cls-35 {
        fill: #ffda00;
      }

      .cls-36 {
        fill: #ef67a5;
      }

      .cls-38 {
        fill: #3f2717;
      }

      .cls-39, .cls-41 {
        fill: #4b7bbd;
      }

      .cls-39, .cls-43 {
        stroke: #26558c;
      }

      .cls-40 {
        fill: #3566a0;
      }

      .cls-42 {
        fill: #608396;
      }

      .cls-43 {
        fill: #6596d1;
      }

      .cls-44 {
        fill: #232220;
      }

      .cls-45 {
        fill: #355154;
      }

      .cls-46 {
        fill: #4c4841;
      }

      .cls-47 {
        fill: #5f8748;
      }

      .cls-47, .cls-48 {
        stroke: #355154;
      }

      .cls-48 {
        fill: #83b26b;
      }

      .cls-49 {
        fill: #516f72;
      }

      .cls-50 {
        fill: #704c42;
        stroke: #50828e;
      }

      .cls-51 {
        fill: #63423b;
      }

      .cls-52 {
        fill: #5b3c34;
      }
    </style>
  </defs>
  <g>
    <g>
      <path class="cls-1" d="M533,474.2c5.43,1.69,11.26,6.56,7,7.25s-8.67,0-14.55-2.9-6.69-5.51-2.29-6.35C525.72,471.72,528.17,472.7,533,474.2Z"/>
      <path class="cls-2" d="M530.69,477.11a.9.9,0,0,0,1.07-.49c8.22-17.89,17-72.81,10.14-85.13a.9.9,0,0,0-1.57.87c6.48,11.71-2.32,66.35-10.2,83.51a.89.89,0,0,0,.44,1.19Z"/>
      <g>
        <path class="cls-3" d="M525.23,420.25c8,4.07,14.25-1,18.3-7.8,3.55-6.2,5.14-13.59,1.57-15.82-3.43-2.57-13,.82-18.85,6.26C519.64,408.66,517,417.12,525.23,420.25Z"/>
        <path class="cls-4" d="M546.13,375.62c-11-.36-13.09,4.61-12,9.42,1.32,5.31,6.38,10.38,10.47,10.95,4.23,0,10-4.24,12-9.31C558.46,382.08,557,376.83,546.13,375.62Z"/>
        <path class="cls-3" d="M512.59,393.86c-3,8.34,5,8.07,13.67,7.25,8.51-1.16,17.44-2.81,19-5.7s-4.65-8.53-12.45-9.93C525.36,383.84,515.38,386.28,512.59,393.86Z"/>
        <path class="cls-5" d="M562.73,422.64c8.51-1.91,6.71-10.8.72-17.44-5.31-6.22-14.47-10.8-18-8.76-3.86,1.81-3,9.32-.09,15.94C548.69,419.63,554.31,425.55,562.73,422.64Z"/>
        <path class="cls-3" d="M576.24,394.54c-3.84-8.1-13.21-10.22-20-8.54-7.21,1.51-12.5,7.21-10.71,9.92,2,3,11,5,19.21,6.37C573,403.27,580.27,403.54,576.24,394.54Z"/>
        <g>
          <path class="cls-6" d="M544.54,395.64l.28,0c.19-1.58.41-3.12.6-4.65l-.29,0C544.94,392.51,544.74,394.06,544.54,395.64Z"/>
          <path class="cls-6" d="M550.22,392.83l-.18-.16c-1.68.95-3.31,2-4.94,3a1,1,0,0,1,.18.17C546.92,394.79,548.57,393.79,550.22,392.83Z"/>
          <path class="cls-6" d="M545.53,396.14c2,.07,4.07.27,6.11.5a1.62,1.62,0,0,0,0-.21c-2-.24-4.08-.41-6.12-.51A1.62,1.62,0,0,0,545.53,396.14Z"/>
          <path class="cls-6" d="M545,396.55c1.52,1.2,3,2.44,4.5,3.74l.2-.14c-1.49-1.29-3-2.54-4.51-3.73Z"/>
          <path class="cls-6" d="M544.11,401.24l.27,0c.15-1.46.31-2.9.46-4.33l-.28,0C544.41,398.33,544.26,399.78,544.11,401.24Z"/>
          <path class="cls-6" d="M539.15,399.1c.05,0,.1.12.16.16,1.61-.77,3.22-1.53,4.83-2.21a1,1,0,0,0-.14-.17C542.38,397.56,540.76,398.31,539.15,399.1Z"/>
          <path class="cls-6" d="M543.65,395.92c-2-.11-4.07-.15-6.11-.15,0,.07,0,.13,0,.19q3.08,0,6.11.19C543.63,396.09,543.64,396,543.65,395.92Z"/>
          <path class="cls-6" d="M539.61,392.41q2.25,1.59,4.47,3.36l.19-.14c-1.46-1.16-2.95-2.29-4.47-3.35A1.07,1.07,0,0,0,539.61,392.41Z"/>
        </g>
        <path class="cls-6" d="M550,396.56c-.2,2.17-2.71,3.61-5.6,3.39s-5.16-2-5-4.18,2.65-3.77,5.6-3.55S550.15,394.45,550,396.56Z"/>
        <path class="cls-7" d="M547.63,396.3c-.11,1.19-1.52,2-3.15,1.91s-2.91-1.16-2.82-2.37,1.5-2.1,3.15-2S547.72,395.09,547.63,396.3Z"/>
        <path class="cls-7" d="M545.27,391.78c-.68,0-1.25-.44-1.24-.92s.58-.85,1.28-.81,1.24.46,1.22.93S546,391.81,545.27,391.78Z"/>
        <path class="cls-7" d="M549.51,393.13a.49.49,0,0,1,0-.86,1.17,1.17,0,0,1,1.24.1.51.51,0,0,1,0,.88A1.16,1.16,0,0,1,549.51,393.13Z"/>
        <path class="cls-7" d="M550.6,396.41c0-.37.44-.67,1-.6s1,.42,1,.82-.42.66-1,.61A1,1,0,0,1,550.6,396.41Z"/>
        <path class="cls-7" d="M548.75,399.5a1.5,1.5,0,0,1,1.75.13.79.79,0,0,1,0,1.33,1.53,1.53,0,0,1-1.75-.13A.79.79,0,0,1,548.75,399.5Z"/>
        <path class="cls-7" d="M544.23,400.42a.79.79,0,0,1,.88.67c0,.38-.35.67-.82.66s-.89-.3-.9-.65A.74.74,0,0,1,544.23,400.42Z"/>
        <path class="cls-7" d="M539.92,398.83a.53.53,0,0,1,.05.88,1,1,0,0,1-1.16.06.52.52,0,0,1-.06-.87A1,1,0,0,1,539.92,398.83Z"/>
        <path class="cls-7" d="M538.61,395.78c0,.42-.4.82-1,.87s-1.12-.25-1.16-.68.41-.82,1-.88S538.58,395.35,538.61,395.78Z"/>
        <path class="cls-7" d="M540.38,392.57a1.43,1.43,0,0,1-1.48.09.57.57,0,0,1-.11-1,1.34,1.34,0,0,1,1.45-.11A.59.59,0,0,1,540.38,392.57Z"/>
      </g>
    </g>
    <path class="cls-8" d="M295.49,488.19s8.62-11.44,21.42-13.91c-15.12.45-19,4.31-24.25,9.88,4.37-16.39,28.31-45,28.31-45s-28.15,9.89-33.86,44.24c-3.43-22.1-30.95-36.82-30.95-36.82s25.94,27.23,25.26,37c-11.87-13-31.73-6.16-31.73-6.16s26.78,1.63,28.24,11.55C288.54,490.76,295.49,488.19,295.49,488.19Z"/>
    <path class="cls-9" d="M216.19,366.5s-6.56,120.38-19.07,165.67c0,0,29.2,11.94,58.4,11.34s38.14-9,4.77-16.7l-35.76-7.15s22.65-90,25.63-134.09"/>
    <g>
      <path class="cls-9" d="M156,376.63S149.45,497,136.93,542.3c0,0,29.2,11.94,58.4,11.35,21.19-.44,27.12-2.26,22.65-11.5-1.67-3.45-8.73-3.09-17.88-5.21l-35.76-7.15s23.47-94.29,26.45-138.39"/>
      <path class="cls-9" d="M195.28,553.43,193.72,552a11.46,11.46,0,0,0-4.91-2.72l-2.34-.61"/>
      <path class="cls-9" d="M202.68,553.3l-1-2.12c-1.38-1.31-2.28-3.3-4.12-3.78l-3.8-1.45"/>
      <path class="cls-9" d="M209.72,552.08l-1-2.13c-1.38-1.31-2.28-3.3-4.12-3.78l-3.8-1.45"/>
      <path class="cls-9" d="M215.86,550.62l-1-2.13c-1.38-1.3-2.28-3.29-4.12-3.77l-3.79-1.45"/>
    </g>
    <g>
      <g>
        <path class="cls-10" d="M268,397.1s-6.14,10.91-22.34,17.11A63.29,63.29,0,0,1,229,418c-2.17.22-4.44.35-6.82.37-34,.33-62.18-11.13-76.58-18.65s-8.84-12.11-2-36.65,6.87-52,6.87-52l9.82,4.91,69.38-1.31s26.51,14.72,28.15,31.41S268,397.1,268,397.1Z"/>
        <path class="cls-11" d="M268,397.11a32.16,32.16,0,0,1-4.37,5.6,46.64,46.64,0,0,1-5.29,4.73A52,52,0,0,1,246,414.35a61.66,61.66,0,0,1-13.74,3.59c-1.17.17-2.35.32-3.53.42l-3.55.2c-1.18.05-2.36.16-3.55.16l-3.54,0a159.52,159.52,0,0,1-55.4-10.95c-4.41-1.71-8.76-3.59-13-5.65-1.07-.51-2.12-1-3.17-1.59s-2.1-1.09-3.12-1.7a17.56,17.56,0,0,1-5.46-4.58,8.26,8.26,0,0,1-1.39-3.32,12,12,0,0,1-.05-3.59,40.61,40.61,0,0,1,1.63-6.91c1.41-4.51,2.9-9,4.22-13.52s2.48-9.09,3.45-13.71,1.69-9.27,2.32-13.94a237.61,237.61,0,0,0,2-28.19v-.62l.55.28,9.84,4.86-.2-.05,34.68-.73,34.69-.65h.14l.12.07a96,96,0,0,1,10,6.68,74.59,74.59,0,0,1,9,8,41.1,41.1,0,0,1,7.06,9.74,22.26,22.26,0,0,1,2,5.73c.34,2,.45,4,.74,5.95,1.06,7.88,2.6,15.7,4.19,23.5S266.18,389.32,268,397.11Zm-.1,0c-2-7.69-3.81-15.46-5.51-23.24s-3.28-15.6-4.41-23.51c-.31-2-.45-4-.79-5.89a21.58,21.58,0,0,0-2-5.51,40,40,0,0,0-7-9.47,77.94,77.94,0,0,0-8.92-7.81,93.66,93.66,0,0,0-9.88-6.58l.26.06L195,315.8l-34.69.58h-.11l-.09-.05-9.8-4.95.56-.34a242.75,242.75,0,0,1-2.24,28.26c-.66,4.68-1.44,9.34-2.42,14S144,362.47,142.66,367s-2.89,9-4.23,13.52a40.56,40.56,0,0,0-1.57,6.86,11.79,11.79,0,0,0,.07,3.46,7.92,7.92,0,0,0,1.35,3.14,17,17,0,0,0,5.35,4.4c2,1.16,4.15,2.2,6.28,3.22q6.38,3,13,5.53c4.41,1.65,8.89,3.12,13.41,4.43s9.1,2.43,13.73,3.29c2.3.5,4.63.83,6.95,1.24s4.66.66,7,1c4.68.48,9.38.86,14.09.92l3.53.06c1.18,0,2.35-.1,3.52-.14l3.52-.18c1.17-.08,2.34-.22,3.5-.38a61.41,61.41,0,0,0,13.63-3.46,54.72,54.72,0,0,0,12.35-6.71,45.91,45.91,0,0,0,5.34-4.6A32.47,32.47,0,0,0,267.91,397.1Z"/>
      </g>
      <g>
        <path class="cls-10" d="M229,418a63.29,63.29,0,0,0,16.65-3.8"/>
        <path class="cls-11" d="M229,418a18.59,18.59,0,0,1,4.18-.9c.72,0,1.44,0,2.15-.11a10.6,10.6,0,0,0,2.06-.54c1.35-.51,2.7-.92,4-1.33a35.38,35.38,0,0,1,4.19-.91l0,.09a16.61,16.61,0,0,1-3.91,1.84,21,21,0,0,1-4.24.84,15.08,15.08,0,0,0-2.12.33c-.7.17-1.38.43-2.08.62a12.16,12.16,0,0,1-4.3.17Z"/>
      </g>
      <g>
        <path class="cls-10" d="M245.62,414.21A63.29,63.29,0,0,1,229,418c3.29-2.05,7-6.61,6.26-16.65C233.92,384,228,341.8,228,341.8l6.87-16c8.18-1.3,5.24,9.17,5.24,9.17l-1.65,1.3s3.28,10.81,6.23,39.93C247.17,400.41,249.18,406.73,245.62,414.21Z"/>
        <path class="cls-11" d="M245.65,414.25c-1.36.55-2.68,1-4.05,1.46s-2.74.82-4.13,1.16a65.45,65.45,0,0,1-8.47,1.45l-1.31.14,1.12-.71a12.91,12.91,0,0,0,5.35-7.68,26.38,26.38,0,0,0,.56-9.63c-.58-6.52-1.29-13-2-19.56s-1.42-13-2.25-19.55-1.71-13-2.64-19.51v-.05l0,0,6.73-16.09.08-.18.19,0a6.51,6.51,0,0,1,3.46.24,4.18,4.18,0,0,1,2.35,2.62,9.3,9.3,0,0,1,.42,3.42,16,16,0,0,1-.49,3.36l0,.14-.12.09-1.63,1.32.15-.5c.9,3.21,1.54,6.43,2.16,9.68s1.16,6.48,1.62,9.75q1.41,9.78,2.37,19.61c.6,6.54,1.32,13.08,2,19.62a98.51,98.51,0,0,1,.65,9.87A20.94,20.94,0,0,1,245.65,414.25Zm-.07-.07a19.91,19.91,0,0,0,1.44-4.67,24.12,24.12,0,0,0,.3-4.88c-.07-3.27-.44-6.54-.83-9.8-.8-6.52-1.63-13.06-2.35-19.6s-1.48-13.06-2.45-19.55c-.49-3.25-1-6.49-1.57-9.72s-1.21-6.47-2.06-9.59l-.09-.31.24-.19,1.65-1.3-.15.23a17.52,17.52,0,0,0,.5-3.15,8.68,8.68,0,0,0-.33-3.11,3.3,3.3,0,0,0-1.87-2.18,5.79,5.79,0,0,0-3-.25l.27-.21-7,16,0-.11,5.23,39c.43,3.25.81,6.51,1.17,9.78s.7,6.53.94,9.81a27.35,27.35,0,0,1-.67,9.9,13.39,13.39,0,0,1-5.77,8l-.2-.56a74.93,74.93,0,0,0,8.44-1.23c1.39-.29,2.78-.63,4.15-1S244.27,414.64,245.58,414.18Z"/>
      </g>
      <g>
        <path class="cls-10" d="M152.44,325.44s8.18,44.83,36.65,42.87"/>
        <path class="cls-11" d="M152.49,325.43c1.35,4.94,2.92,9.79,4.67,14.57a69.24,69.24,0,0,0,2.86,7.1,46.28,46.28,0,0,0,3.93,6.56,39.55,39.55,0,0,0,10.78,10.53,26.15,26.15,0,0,0,6.83,3.09,30.61,30.61,0,0,0,7.53,1v.1a24.43,24.43,0,0,1-7.72-.32,23.79,23.79,0,0,1-7.21-3,27.47,27.47,0,0,1-3.18-2.28c-1-.87-1.93-1.73-2.81-2.69A38.76,38.76,0,0,1,163.5,354c-1.36-2.19-2.59-4.44-3.77-6.71s-2.34-4.58-3.34-6.95a62.75,62.75,0,0,1-4-14.85Z"/>
      </g>
    </g>
    <g>
      <path class="cls-9" d="M335.7,253.12l4.91,7.19s40.91-6.54,61.85-23.56c0,0,14.84-14.8,16.81-11.52s10,11.85,19.84,16.76,12.23-8.69,12.23-8.69,8.72-4.8,6.76,3-32.4,15.46-32.4,15.46-3.71-3.24-15.81,5.27-48.66,39.23-86.62,37.27A98,98,0,0,1,304,263.26S322.94,244.93,335.7,253.12Z"/>
      <path class="cls-9" d="M340.61,260.31s-8.18-1-11.13,11.46"/>
    </g>
    <path class="cls-12" d="M282,232.5s2,25.85,18,39.6c0,0,23.24-10.8,38-21.93,0,0-18.65-36.65-29.12-63.16S271.89,205.66,282,232.5Z"/>
    <path class="cls-12" d="M305.27,183.74s-4.69-29.41-28-38.92-26-3.3-26-3.3-10.8-3.27-41.23,26.84-49.75,64.47-52.69,81.81-9.49,26.51-9.17,44.83-8.18,11.78,2.62,23.57,48.44,40.58,65.78,42.54l21.93-21.6s7.52,18.33,18.32,18.65c0,0,5.57-11.78,3.93-29.45S265,301.22,265,301.22s4.59-28,24.23-61.38"/>
    <path class="cls-9" d="M257.49,136s-11.46,16.69-8.18,22.91S267,182.76,267,182.76s2.94,4.25,1.63,14.39c0,0-2.94.33,4.26,8.19l2.29,9.81,8.51-9.81s2.94-2.29,6.54-13.75,5.24-25.85,5.24-25.85l-5.56-15.38Z"/>
    <g>
      <path class="cls-12" d="M252.91,135.63S239.82,152,238.29,159s3.93,32.94,10,41.67c0,0,7.2-20.08,17-17.89,0,0,3.06.43,4.15,7a20.06,20.06,0,0,0-4.8-11.57c-4.8-5.89-10.26-22.25-10.26-22.25A25.23,25.23,0,0,1,259,141.09C264,134.32,252.91,135.63,252.91,135.63Z"/>
      <path class="cls-12" d="M289.34,160.5s3.93,9.17-2,38.84c0,0,6.76-12.88,11.12-13.09s5.46,5.67,11.35,8.07-8.73-37.53-16.8-35.78Z"/>
    </g>
    <g>
      <path class="cls-9" d="M333.81,102c2.56-4.17,6-8.29,10.7-8.07s7.35,4.12,7.22,11.35-1,13.07-6.15,18-11.2,5.89-14.66,2.17"/>
      <path class="cls-13" d="M332.2,122.8a3.59,3.59,0,0,0,2.24-.46,14.29,14.29,0,0,0,2-1.15,7.2,7.2,0,0,0,2.75-3.7A6.66,6.66,0,0,0,339,113a6.58,6.58,0,0,0-1.51-2.16c.27-.54.56-1.07.85-1.58a43.92,43.92,0,0,1,2.59-4,9.81,9.81,0,0,1,3.23-3.3,2.87,2.87,0,0,1,2.19-.17,2.08,2.08,0,0,1,1.54,1.56,2.09,2.09,0,0,0-1.4-1.89,3.26,3.26,0,0,0-2.58,0,9.21,9.21,0,0,0-3.63,3.39,28,28,0,0,0-2.47,4.15c-.23.5-.46,1-.67,1.52l-.1.26a3.26,3.26,0,0,1,.29.36,7,7,0,0,1,1.1,2,6.49,6.49,0,0,1,0,4.11,7.09,7.09,0,0,1-2.37,3.46,16.81,16.81,0,0,1-1.81,1.28A3.79,3.79,0,0,1,332.2,122.8Zm11.5-5.74a48.54,48.54,0,0,1-3.92,3,24,24,0,0,0,4.31-2.53,9.64,9.64,0,0,0,3.15-3.91,8.29,8.29,0,0,0,.23-4.92,18.59,18.59,0,0,0-1.81-4.51,35.4,35.4,0,0,1,1.22,4.62,8.55,8.55,0,0,1-.38,4.55A9.81,9.81,0,0,1,343.7,117.06Z"/>
    </g>
    <path class="cls-14" d="M337.12,22s-5.89-10.69-16.58-14.83l-.22,5S310.5-2.47,290,1.68l7,6.76a28.74,28.74,0,0,1-13.31-5.89S276.25,6.91,285,13c0,0-9.6-11.34-21.82,3.49,0,0-13.53,2.4-17.45,26.62,0,0-7.2,7.85.43,11.78s29-18.76,29-18.76l33.16-5.24,18.33-2L343.23,32c2-.22-7-10-7-10"/>
    <path class="cls-9" d="M348.79,61.51s1.47,18-11.78,40.9c0,0-2.45,27.49-11.62,39.11S301,162.14,289.56,163.61,253.72,145,248.65,130.72,246,100,246,100l1.31-17.83s3.11-29.46,13.42-40.58S303.63,27.8,303.63,27.8L318,34.18l27.33,14.57Z"/>
    <g>
      <g>
        <circle class="cls-6" cx="318.79" cy="103.78" r="13.09"/>
        <path class="cls-15" d="M331.93,103.78a13.21,13.21,0,0,1-3.76,9.38,13.54,13.54,0,0,1-19.18.42A13.57,13.57,0,0,1,309,94a13.64,13.64,0,0,1,9.8-3.75,13.48,13.48,0,0,1,9.38,4.18A13.2,13.2,0,0,1,331.93,103.78Zm-.1,0A13,13,0,1,0,328,113,13.07,13.07,0,0,0,331.83,103.78Z"/>
      </g>
      <circle class="cls-16" cx="319.02" cy="109.98" r="5.77"/>
    </g>
    <g>
      <g>
        <ellipse class="cls-6" cx="286.17" cy="96.04" rx="13.21" ry="14.08"/>
        <path class="cls-15" d="M299.43,96a14.79,14.79,0,0,1-3.65,9.91,13.09,13.09,0,0,1-19.67.4,15.15,15.15,0,0,1,0-20.62,13.11,13.11,0,0,1,19.67.4A14.79,14.79,0,0,1,299.43,96Zm-.1,0a14.6,14.6,0,0,0-3.73-9.75,12.56,12.56,0,0,0-18.85,0,14.67,14.67,0,0,0,0,19.46,12.56,12.56,0,0,0,18.85,0A14.6,14.6,0,0,0,299.33,96Z"/>
      </g>
      <circle class="cls-16" cx="287.27" cy="103.23" r="5.77"/>
    </g>
    <ellipse class="cls-6" cx="290.95" cy="98.16" rx="1.72" ry="1.96"/>
    <ellipse class="cls-6" cx="323.1" cy="107" rx="1.72" ry="1.96"/>
    <path class="cls-16" d="M296.43,75.91S284.65,63.14,272.38,80c0,0,.16-8.84,13.91-13.26C286.29,66.74,297.74,64.94,296.43,75.91Z"/>
    <path class="cls-16" d="M313.94,81.8s13.25-10.47,21.76,5.56a12.17,12.17,0,0,0-8-11.94c-7.95-3-12.76-2.13-14.4,6"/>
    <path class="cls-17" d="M303.52,100.78a17.81,17.81,0,0,0,1.81,6.09,22.71,22.71,0,0,0,3.42,5.29c.7.79,1.41,1.56,2.16,2.3a15.21,15.21,0,0,1,2.21,2.59,8.2,8.2,0,0,1,1.27,3.35,6.42,6.42,0,0,1-.63,3.65,8.66,8.66,0,0,1-5.66,4.1,11.54,11.54,0,0,1-6.81-.42,19.46,19.46,0,0,1-5.76-3.31,11.67,11.67,0,0,1-2.17-2.53,6.85,6.85,0,0,1-1.07-3.11h.1a8.77,8.77,0,0,0,3.47,5.24,19.09,19.09,0,0,0,5.68,3,11.28,11.28,0,0,0,6.33.27,7.69,7.69,0,0,0,5-3.68,5.48,5.48,0,0,0,.57-3.08,7.31,7.31,0,0,0-1.09-3,14.23,14.23,0,0,0-2.06-2.46c-.37-.4-.75-.78-1.11-1.18l-1.05-1.25a23.83,23.83,0,0,1-3.29-5.57,16.86,16.86,0,0,1-1.42-6.29Z"/>
    <g>
      <path class="cls-18" d="M272.39,119.92s-3.8,15.77,4.84,24.9c6.21,6.56,16.17,7.12,23.53,2A20.14,20.14,0,0,0,308.6,135l1.68-6.72S279,138.18,272.39,119.92Z"/>
      <path class="cls-19" d="M272.87,117.3s-3.6,15.55,4.58,24.55,23.24,6.54,29-6.55l2.13-6.54S279.09,135.3,272.87,117.3Z"/>
      <path class="cls-6" d="M305.43,130.89s2.95,6.87-8,8.34-23.89-4.74-23.89-14.4,1.31-6,1.31-6S280.89,132.85,305.43,130.89Z"/>
      <path class="cls-18" d="M272.38,116s19.16,18.37,40.41,9.81c0,0-3.43,7.2-13.58,7S275.65,127.45,272.38,116Z"/>
      <path class="cls-20" d="M278.76,143.27s2.29-2.51,9.05-.33c0,0,5.89-2,9.49,2.4C297.3,145.34,287.49,151,278.76,143.27Z"/>
    </g>
    <path class="cls-14" d="M319.23,44s4.36,15-46.69,17.24S307.67,31.13,319.23,44Z"/>
    <path class="cls-14" d="M349.94,62.9s-10.06,11.5-30.89-10.72S355.6,49.45,349.94,62.9Z"/>
    <g>
      <g>
        <g>
          <path class="cls-21" d="M344.54,38.55s19,16.79,12.43,38.39c0,0-4.8,8.08-9.38-3.92s-4.8-24-33.6-29S331.23,32.87,344.54,38.55Z"/>
          <path class="cls-11" d="M344.56,38.5a47.44,47.44,0,0,1,7,8,43.12,43.12,0,0,1,5.07,9.41,34.3,34.3,0,0,1,2.26,10.51,32.44,32.44,0,0,1-1.23,10.73l0,.09-.05.08a7.6,7.6,0,0,1-1.22,1.53A5.42,5.42,0,0,1,354.72,80l-.5.2-.55.1a3.24,3.24,0,0,1-1.12,0,5.27,5.27,0,0,1-1-.34c-.32-.17-.59-.38-.88-.57a10.17,10.17,0,0,1-2.36-3,27.39,27.39,0,0,1-1.53-3.31c-1.69-4.46-2.89-9-5.12-13a24.93,24.93,0,0,0-4.12-5.39,27.11,27.11,0,0,0-5.52-4,52.36,52.36,0,0,0-13-4.79c-2.31-.47-4.55-1-6.91-1.4-1.17-.23-2.34-.5-3.5-.83a13.1,13.1,0,0,1-3.48-1.42,3,3,0,0,1-.85-.81,1.28,1.28,0,0,1-.17-.33,1.08,1.08,0,0,1-.09-.42,1.37,1.37,0,0,1,.17-.81,2.4,2.4,0,0,1,.85-.88,5.38,5.38,0,0,1,.87-.48,18.18,18.18,0,0,1,3.51-1.09,61,61,0,0,1,7.07-1.07,93.53,93.53,0,0,1,14.2-.33,69.72,69.72,0,0,1,7.06.7A28.42,28.42,0,0,1,344.56,38.5Zm-.05.09a27.94,27.94,0,0,0-6.83-1.66,66.51,66.51,0,0,0-7.05-.55,102.27,102.27,0,0,0-14.11.56,58.52,58.52,0,0,0-7,1.14,18.7,18.7,0,0,0-3.35,1.08,3,3,0,0,0-1.34,1c-.29.53.22,1,.68,1.33a12.79,12.79,0,0,0,3.26,1.28c1.13.32,2.28.57,3.44.8,2.31.42,4.63.91,6.94,1.37a53.24,53.24,0,0,1,13.28,4.83,28.11,28.11,0,0,1,5.74,4.14,26,26,0,0,1,4.27,5.64c2.28,4.17,3.47,8.78,5.12,13.19A26.33,26.33,0,0,0,349,76a9.45,9.45,0,0,0,2.13,2.76c.24.15.47.34.72.47a4.63,4.63,0,0,0,.82.27,2.43,2.43,0,0,0,.85,0l.42-.07.4-.16a6.13,6.13,0,0,0,2.53-2.34v0a31.68,31.68,0,0,0,1.34-10.46,34.3,34.3,0,0,0-2.1-10.35,43.89,43.89,0,0,0-4.83-9.42A47.49,47.49,0,0,0,344.51,38.59Z"/>
        </g>
        <g>
          <path class="cls-21" d="M319,39s22.25-3,34,24.66"/>
          <path class="cls-11" d="M319,38.93a24,24,0,0,1,5.68-.26,31,31,0,0,1,5.62,1.07A32.63,32.63,0,0,1,340.5,45a40,40,0,0,1,4.15,4l1,1.06a8,8,0,0,1,.91,1.11c.58.76,1.12,1.55,1.66,2.33a20.83,20.83,0,0,1,1.46,2.45L351,58.36c.74,1.74,1.45,3.49,2.09,5.26l-.09,0c-.82-1.68-1.61-3.38-2.46-5l-1.46-2.4a20.09,20.09,0,0,0-1.54-2.34l-1.69-2.24a9.16,9.16,0,0,0-.9-1.06l-1-1a41.1,41.1,0,0,0-4.1-3.81,33.52,33.52,0,0,0-9.83-5.25A28,28,0,0,0,319,39Z"/>
        </g>
      </g>
      <g>
        <g>
          <path class="cls-21" d="M247.89,86.11S288,34,348.25,42c0,0,12.21-.44.87-12.88,0,0,6.11-7.85-13.53-10.25s-45.6,5.45-65.88,14.4-36,25.74-28.37,35.56c0,0-4.14,5.89,0,9.16C241.34,78,238.51,86.32,247.89,86.11Z"/>
          <path class="cls-11" d="M247.87,86.06a111.27,111.27,0,0,1,9.58-10.58A142.06,142.06,0,0,1,268.16,66a124.17,124.17,0,0,1,11.66-8.34,115.32,115.32,0,0,1,12.56-6.93,104.1,104.1,0,0,1,27.28-8.8l1.77-.32,1.78-.23c1.2-.14,2.38-.31,3.58-.44,2.39-.14,4.78-.42,7.18-.39a100.13,100.13,0,0,1,14.38.75h-.13A7.36,7.36,0,0,0,352,40a2.91,2.91,0,0,0,1-3.19,11.23,11.23,0,0,0-1.79-3.73,35,35,0,0,0-2.74-3.39l-.46-.5.41-.58a4.4,4.4,0,0,0,.66-1.62,3.46,3.46,0,0,0-.17-1.69,5.42,5.42,0,0,0-2.6-2.6,26.72,26.72,0,0,0-7.94-2.51,67.92,67.92,0,0,0-17.1-.62c-11.46.93-22.73,3.8-33.67,7.44q-8.2,2.76-16.18,6.18a81.74,81.74,0,0,0-15.13,8.23,63.39,63.39,0,0,0-6.74,5.36,42.87,42.87,0,0,0-5.78,6.34,21.54,21.54,0,0,0-3.74,7.57,10.24,10.24,0,0,0-.16,4.16,9,9,0,0,0,1.69,3.79l.13.18-.13.19a12.78,12.78,0,0,0-1.16,2.16,8.5,8.5,0,0,0-.64,2.37A5.34,5.34,0,0,0,240,76a5,5,0,0,0,1.42,1.92l.11.09,0,.13a8.6,8.6,0,0,0-.41,3.07,5,5,0,0,0,1,2.88,5.26,5.26,0,0,0,2.6,1.63c.5.15,1,.2,1.55.31Zm0,.09-1.62-.05a14.15,14.15,0,0,1-1.58-.29,5.39,5.39,0,0,1-2.7-1.65,5.18,5.18,0,0,1-1.1-3,9.17,9.17,0,0,1,.38-3.17l0,.06a5.25,5.25,0,0,1-1.53-2,5.53,5.53,0,0,1-.29-2.52,8.67,8.67,0,0,1,.63-2.45,12.06,12.06,0,0,1,1.18-2.25v.07A9.34,9.34,0,0,1,239.49,65a10.93,10.93,0,0,1,.11-4.34,21.58,21.58,0,0,1,3.76-7.79,43,43,0,0,1,5.82-6.45A64.33,64.33,0,0,1,256,41a81.86,81.86,0,0,1,15.22-8.35q8-3.45,16.21-6.27c11-3.71,22.27-6.64,33.84-7.64a69.43,69.43,0,0,1,17.34.57,26.48,26.48,0,0,1,8.27,2.64,6.35,6.35,0,0,1,3,3.11,4.26,4.26,0,0,1,.2,2.18,5.2,5.2,0,0,1-.85,2V29.1A34,34,0,0,1,352,32.61a11.92,11.92,0,0,1,1.91,4.06,4.33,4.33,0,0,1-.06,2.26,3.64,3.64,0,0,1-1.34,1.82,8.19,8.19,0,0,1-4.26,1.38h0a99.67,99.67,0,0,0-14.24-.8c-2.38,0-4.76.23-7.13.36-1.19.12-2.37.28-3.55.42l-1.77.22-1.76.31a103.54,103.54,0,0,0-27.13,8.63,126.92,126.92,0,0,0-24.22,15.05A131,131,0,0,0,247.91,86.15Z"/>
        </g>
        <g>
          <path class="cls-21" d="M240.25,70.62S262.72,44.22,304,34.4s45.16-5.24,45.16-5.24"/>
          <path class="cls-11" d="M240.21,70.58A108.47,108.47,0,0,1,263,51a128.21,128.21,0,0,1,27-13.42l3.59-1.17c1.21-.38,2.39-.83,3.61-1.12,2.44-.63,4.88-1.32,7.32-1.9,4.89-1.1,9.79-2.21,14.74-3.07s9.91-1.64,14.91-2.14c1.25-.11,2.51-.21,3.77-.26s2.51-.08,3.77-.09,2.52.08,3.77.22a14.79,14.79,0,0,1,1.86.33,5.61,5.61,0,0,1,.91.27,2.71,2.71,0,0,1,.85.46l-.08.07a4.38,4.38,0,0,0-1.71-.65,16.18,16.18,0,0,0-1.85-.28c-1.24-.1-2.5-.12-3.75-.1s-2.5.08-3.74.19-2.5.22-3.74.36c-5,.59-9.91,1.4-14.82,2.38-9.81,2-19.65,4-29.08,7.44-2.36.82-4.66,1.81-7,2.7s-4.56,2.06-6.84,3.09-4.48,2.25-6.65,3.5-4.35,2.46-6.44,3.85a124.79,124.79,0,0,0-12.2,8.74,98.28,98.28,0,0,0-11,10.23Z"/>
        </g>
        <g>
          <path class="cls-21" d="M241.13,79.78s2-9,27.05-22"/>
          <path class="cls-11" d="M241.08,79.77a7.31,7.31,0,0,1,.75-2.13,18.1,18.1,0,0,1,1.11-2,21.81,21.81,0,0,1,1.35-1.81c.46-.6,1-1.15,1.47-1.71a20.13,20.13,0,0,1,1.59-1.61c.53-.52,1.1-1,1.67-1.49,1.12-1,2.31-1.9,3.49-2.82a81.88,81.88,0,0,1,7.57-4.75c1.33-.68,2.63-1.39,4-2s2.72-1.22,4.1-1.75l.05.09-3.89,2.12c-1.29.72-2.55,1.49-3.83,2.23s-2.49,1.58-3.74,2.37S254.3,66.17,253.1,67a61.26,61.26,0,0,0-6.79,5.67c-.52.52-1.05,1-1.53,1.59s-1,1.11-1.42,1.7a13.62,13.62,0,0,0-2.19,3.8Z"/>
        </g>
      </g>
    </g>
    <g>
      <path class="cls-9" d="M249.48,88.71c-2.82-4.17-6.65-8.29-11.82-8.07s-8.12,4.12-8,11.35,1.07,13.07,6.8,18,12.38,5.89,16.2,2.17"/>
      <path class="cls-13" d="M251.27,109.55a4.32,4.32,0,0,1-2.48-.46,16.66,16.66,0,0,1-2.22-1.15,7.24,7.24,0,0,1-3-3.7,6,6,0,0,1,.25-4.52,6.39,6.39,0,0,1,1.66-2.15c-.3-.54-.62-1.07-.94-1.58a42.7,42.7,0,0,0-2.86-4,10.34,10.34,0,0,0-3.57-3.3,3.48,3.48,0,0,0-2.42-.17,2.18,2.18,0,0,0-1.7,1.56,2.1,2.1,0,0,1,1.54-1.89,4,4,0,0,1,2.86,0,9.84,9.84,0,0,1,4,3.39,28.08,28.08,0,0,1,2.74,4.15c.26.5.5,1,.73,1.52a1.57,1.57,0,0,1,.12.26,3.59,3.59,0,0,0-.32.36,7,7,0,0,0-1.22,2,5.93,5.93,0,0,0,0,4.11,7.14,7.14,0,0,0,2.61,3.46,20.6,20.6,0,0,0,2,1.28A4.49,4.49,0,0,0,251.27,109.55Zm-12.72-5.74a52.56,52.56,0,0,0,4.34,3,26.42,26.42,0,0,1-4.76-2.53,9.82,9.82,0,0,1-3.48-3.91,7.51,7.51,0,0,1-.26-4.92,17.62,17.62,0,0,1,2-4.51A31.8,31.8,0,0,0,235,95.53a7.76,7.76,0,0,0,.42,4.55A10,10,0,0,0,238.55,103.81Z"/>
    </g>
    <g>
      <g>
        <line class="cls-22" x1="310.07" y1="146.76" x2="314.21" y2="151.56"/>
        <path class="cls-11" d="M310.09,146.73a7.3,7.3,0,0,1,2.56,2,7.54,7.54,0,0,1,1.59,2.81l-.06.05-2.1-2.37-2-2.43Z"/>
      </g>
      <g>
        <line class="cls-22" x1="285.41" y1="120.14" x2="282.14" y2="121.01"/>
        <path class="cls-11" d="M285.42,120.18a2.45,2.45,0,0,1-1.47,1,2.52,2.52,0,0,1-1.8-.18l0-.07,1.63-.48,1.64-.4Z"/>
      </g>
      <g>
        <line class="cls-22" x1="279.52" y1="117.96" x2="276.9" y2="119.27"/>
        <path class="cls-11" d="M279.54,118a2,2,0,0,1-2.62,1.31l0-.07,1.29-.68,1.33-.62Z"/>
      </g>
      <g>
        <line class="cls-22" x1="273.85" y1="114.47" x2="269.27" y2="114.03"/>
        <path class="cls-11" d="M273.85,114.51a4.5,4.5,0,0,1-4.58-.44V114l2.3.19,2.28.25Z"/>
      </g>
      <g>
        <line class="cls-22" x1="320.97" y1="142.18" x2="324.68" y2="146.1"/>
        <path class="cls-11" d="M321,142.15a5.43,5.43,0,0,1,2.32,1.53,5.56,5.56,0,0,1,1.39,2.4l0,0-1.89-1.94-1.82-2Z"/>
      </g>
      <g>
        <g>
          <line class="cls-22" x1="300.9" y1="154.61" x2="303.74" y2="160.07"/>
          <path class="cls-11" d="M300.94,154.59a7.05,7.05,0,0,1,2,2.44,7.16,7.16,0,0,1,.85,3l-.06,0-1.45-2.71-1.39-2.74Z"/>
        </g>
        <g>
          <line class="cls-22" x1="275.16" y1="151.34" x2="273.85" y2="154.61"/>
          <path class="cls-11" d="M275.19,151.35a2.66,2.66,0,0,1-.06,1.88,2.71,2.71,0,0,1-1.24,1.4l-.07,0,.62-1.65.68-1.62Z"/>
        </g>
        <g>
          <line class="cls-22" x1="277.56" y1="158.54" x2="277.34" y2="162.9"/>
          <path class="cls-11" d="M277.6,158.54a3.81,3.81,0,0,1,.52,2.21,3.73,3.73,0,0,1-.74,2.15h-.08l.08-2.18.14-2.18Z"/>
        </g>
        <g>
          <line class="cls-22" x1="285.41" y1="159.19" x2="284.98" y2="164.65"/>
          <path class="cls-11" d="M285.45,159.2a6.15,6.15,0,0,1-.44,5.45h-.07l.18-2.73.26-2.72Z"/>
        </g>
        <g>
          <g>
            <line class="cls-22" x1="266.43" y1="127.12" x2="262.72" y2="127.78"/>
            <path class="cls-11" d="M266.44,127.16a2.87,2.87,0,0,1-1.74,1,2.94,2.94,0,0,1-2-.3v-.07l1.85-.36,1.86-.29Z"/>
          </g>
          <g>
            <line class="cls-22" x1="258.58" y1="131.27" x2="255.31" y2="134.1"/>
            <path class="cls-11" d="M258.6,131.3a3.68,3.68,0,0,1-1.22,1.9,3.75,3.75,0,0,1-2,.93l-.05,0,1.61-1.45,1.66-1.39Z"/>
          </g>
          <g>
            <line class="cls-22" x1="266.21" y1="136.29" x2="262.07" y2="139.34"/>
            <path class="cls-11" d="M266.24,136.32a5.52,5.52,0,0,1-4.15,3.05l0-.06,2.05-1.56,2.09-1.49Z"/>
          </g>
          <g>
            <line class="cls-22" x1="270.14" y1="143.92" x2="267.52" y2="146.98"/>
            <path class="cls-11" d="M270.17,144a3.23,3.23,0,0,1-.83,1.94,3.3,3.3,0,0,1-1.79,1.11l-.06-.05,1.29-1.55,1.33-1.5Z"/>
          </g>
          <g>
            <line class="cls-22" x1="262.94" y1="148.72" x2="260.98" y2="151.12"/>
            <path class="cls-11" d="M263,148.74a2.2,2.2,0,0,1-2,2.4l-.06,0,.95-1.23,1-1.17Z"/>
          </g>
          <g>
            <line class="cls-22" x1="257.92" y1="143.49" x2="253.78" y2="145.01"/>
            <path class="cls-11" d="M257.94,143.52a3.83,3.83,0,0,1-1.86,1.36,3.88,3.88,0,0,1-2.29.17l0-.07,2.06-.8,2.08-.73Z"/>
          </g>
          <g>
            <line class="cls-22" x1="250.51" y1="120.36" x2="244.18" y2="121.89"/>
            <path class="cls-11" d="M250.52,120.4a8.64,8.64,0,0,1-6.33,1.52l0-.07,3.16-.8,3.17-.73Z"/>
          </g>
        </g>
      </g>
      <g>
        <line class="cls-22" x1="314.21" y1="124.94" x2="317.7" y2="126.47"/>
        <path class="cls-11" d="M314.23,124.91a3,3,0,0,1,2,.18,3,3,0,0,1,1.49,1.34l0,.07-1.76-.73L314.2,125Z"/>
      </g>
    </g>
    <g>
      <path class="cls-23" d="M585.08,520.45c34.2,6.95,37.35-35.2-7.5-23.64-29.5-24.47-47.33-28.19-63.54-11.71-28.78-38.6-49.72-20.54-60.19,0-12.56-8.68-31.4-6.64-34.2,13.07-28.61-29.23-71.89-9.82-71.19,18.89,29.32,23.26,79.57,7.62,79.57,7.62,16.05,17,50.26,15.64,64.22,2C524.35,540.32,563,541.47,585.08,520.45Z"/>
      <path class="cls-24" d="M577.58,496.81c-10-8.31-18.67-14.17-26.39-17.72a18.29,18.29,0,0,1,2.39,12.42c-6.25,18.28-33.38,26.32-55.25,17.88-20.12,13.66-45.82,14.43-67.53,4.66-26.63,9.46-56.93,8.93-82.16-.65a27.7,27.7,0,0,0-.18,3.66c29.32,23.26,79.57,7.62,79.57,7.62,16.05,17,50.26,15.64,64.22,2,32.1,13.6,70.76,14.75,92.83-6.27C619.28,527.4,622.43,485.25,577.58,496.81Z"/>
      <path class="cls-25" d="M520.16,502.71a1.9,1.9,0,0,1-.77-.16,1.82,1.82,0,0,1-.94-2.42c4.36-9.35,3.92-21.84,3.54-32.87-.11-3.19-.22-6.28-.21-9.2a1.85,1.85,0,0,1,1.87-1.82h0a1.84,1.84,0,0,1,1.87,1.82c0,2.88.1,5.94.22,9.08.39,11.42.84,24.36-3.87,34.5A1.88,1.88,0,0,1,520.16,502.71Z"/>
      <path class="cls-26" d="M523.85,467c14.46-16.42,7.19-32.74,0-32.74S516.57,458.61,523.85,467Z"/>
      <g>
        <path class="cls-25" d="M470.61,483l-.34,0a1.84,1.84,0,0,1-1.51-2.13c2.81-15.32,1.62-32.9-3.45-50.85a1.82,1.82,0,0,1,1.31-2.25,1.89,1.89,0,0,1,2.3,1.28c5.21,18.47,6.43,36.61,3.53,52.47A1.87,1.87,0,0,1,470.61,483Z"/>
        <g>
          <path class="cls-25" d="M468.18,429.54A30.33,30.33,0,0,0,469.64,440c-50.57-60.92-7.12-45.14-2.51-10.47Z"/>
          <path class="cls-26" d="M469.64,440a30.33,30.33,0,0,1-1.46-10.43c.07-15.25,7.08-35.18,11.53-34.55C485.37,395.83,493.65,413.88,469.64,440Z"/>
        </g>
      </g>
      <g>
        <path class="cls-25" d="M435.74,498.39h-.07a1.84,1.84,0,0,1-1.81-1.88c.4-12-9.35-34.57-15.16-46a1.81,1.81,0,0,1,.85-2.45,1.92,1.92,0,0,1,2.51.83c1.64,3.24,16.06,32.16,15.55,47.77A1.86,1.86,0,0,1,435.74,498.39Z"/>
        <g>
          <path class="cls-25" d="M420.38,449.67c-3.49-27.22,9.89-32.69,5,8.79C423.82,455.44,422.1,452.47,420.38,449.67Z"/>
          <path class="cls-26" d="M420.38,449.67c1.72,2.8,3.44,5.77,5,8.79-16.06-4.82-30.82-16.27-30.82-23.13S402.25,428.58,420.38,449.67Z"/>
        </g>
      </g>
      <g>
        <path class="cls-27" d="M548.29,487.41h-3.75c-4.83,0-4.83,7.3,0,7.3h3.75C553.12,494.71,553.12,487.41,548.29,487.41Z"/>
        <path class="cls-23" d="M560.93,501.09c-4.83,0-4.83,7.3,0,7.3S565.76,501.09,560.93,501.09Z"/>
        <path class="cls-27" d="M473.84,502h-.47a3.71,3.71,0,0,0-3.74,3.65,4.05,4.05,0,0,0,4.21,4.1A3.26,3.26,0,0,0,477.4,506,3.49,3.49,0,0,0,473.84,502Z"/>
        <path class="cls-27" d="M369.89,499.72c-4.83,0-4.83,7.3,0,7.3S374.72,499.72,369.89,499.72Z"/>
        <path class="cls-27" d="M536.11,494.25c-2.38-.09-2.39,3.44-.08,3.63,1.36.84,3.59-.08,2.83-1.83A2.67,2.67,0,0,0,536.11,494.25Z"/>
        <path class="cls-27" d="M467.75,509.3h-1.4a1.82,1.82,0,0,0,0,3.64h1.4A1.82,1.82,0,0,0,467.75,509.3Z"/>
        <path class="cls-27" d="M361,505.65h-.93a1.83,1.83,0,0,0,0,3.65H361A1.83,1.83,0,0,0,361,505.65Z"/>
        <path class="cls-27" d="M447.62,488.78a1.83,1.83,0,0,0,0,3.65A1.83,1.83,0,0,0,447.62,488.78Z"/>
        <path class="cls-27" d="M398.45,493.8h-2.34a1.83,1.83,0,0,0,0,3.65h2.34A1.83,1.83,0,0,0,398.45,493.8Z"/>
        <path class="cls-27" d="M487.42,467.8H486a1.83,1.83,0,0,0,0,3.65h1.41A1.83,1.83,0,0,0,487.42,467.8Z"/>
      </g>
    </g>
    <g>
      <path class="cls-23" d="M437,541.89c27.84,5.66,30.4-28.65-6.1-19.24-24-19.92-38.53-22.94-51.72-9.53-23.42-31.41-40.46-16.72-49,0-10.22-7.07-25.56-5.41-27.83,10.64-23.29-23.79-58.51-8-58,15.37,23.86,18.93,64.76,6.2,64.76,6.2,13.07,13.83,40.91,12.73,52.27,1.66C387.58,558.06,419,559,437,541.89Z"/>
      <path class="cls-24" d="M430.9,522.65c-8.16-6.76-15.2-11.54-21.48-14.42a14.83,14.83,0,0,1,1.95,10.11c-5.09,14.88-27.17,21.41-45,14.54-16.37,11.13-37.29,11.75-55,3.8a99.07,99.07,0,0,1-66.87-.53,22.62,22.62,0,0,0-.15,3c23.86,18.93,64.76,6.2,64.76,6.2,13.07,13.83,40.91,12.73,52.27,1.66,26.13,11.07,57.59,12,75.55-5.1C464.84,547.55,467.4,513.24,430.9,522.65Z"/>
      <path class="cls-25" d="M384.16,527.45a1.53,1.53,0,0,1-.62-.13,1.47,1.47,0,0,1-.76-2c3.54-7.61,3.19-17.78,2.88-26.75-.09-2.59-.18-5.11-.18-7.49a1.51,1.51,0,0,1,1.53-1.48h0a1.5,1.5,0,0,1,1.52,1.48c0,2.35.08,4.84.17,7.39.32,9.3.69,19.83-3.14,28.08A1.53,1.53,0,0,1,384.16,527.45Z"/>
      <path class="cls-26" d="M387.17,498.39c11.77-13.36,5.85-26.64,0-26.64S381.25,491.56,387.17,498.39Z"/>
      <g>
        <path class="cls-25" d="M343.84,511.41a1.23,1.23,0,0,1-.27,0,1.5,1.5,0,0,1-1.24-1.73c2.29-12.47,1.32-26.78-2.8-41.39a1.47,1.47,0,0,1,1.06-1.82,1.54,1.54,0,0,1,1.88,1c4.24,15,5.23,29.8,2.87,42.71A1.52,1.52,0,0,1,343.84,511.41Z"/>
        <g>
          <path class="cls-25" d="M341.86,467.9a24.61,24.61,0,0,0,1.19,8.49c-41.16-49.59-5.8-36.74-2.05-8.52Z"/>
          <path class="cls-26" d="M343.05,476.39a24.61,24.61,0,0,1-1.19-8.49c.06-12.42,5.76-28.63,9.39-28.12C355.85,440.46,362.59,455.15,343.05,476.39Z"/>
        </g>
      </g>
      <g>
        <path class="cls-25" d="M315.46,523.93h0a1.48,1.48,0,0,1-1.48-1.52c.32-9.74-7.61-28.14-12.34-37.47a1.48,1.48,0,0,1,.69-2,1.56,1.56,0,0,1,2,.67c1.34,2.64,13.08,26.17,12.66,38.88A1.51,1.51,0,0,1,315.46,523.93Z"/>
        <g>
          <path class="cls-25" d="M303,484.28c-2.84-22.15,8-26.6,4.08,7.16C305.76,489,304.36,486.56,303,484.28Z"/>
          <path class="cls-26" d="M303,484.28c1.4,2.28,2.8,4.7,4.08,7.16C294,487.52,282,478.2,282,472.61S288.2,467.12,303,484.28Z"/>
        </g>
      </g>
      <g>
        <path class="cls-27" d="M407.06,515H404c-3.93,0-3.93,5.94,0,5.94h3.05C411,520.94,411,515,407.06,515Z"/>
        <path class="cls-23" d="M417.35,526.13c-3.93,0-3.93,5.94,0,5.94S421.28,526.13,417.35,526.13Z"/>
        <path class="cls-27" d="M346.47,526.87h-.38a3,3,0,0,0-3,3,3.3,3.3,0,0,0,3.43,3.34,2.67,2.67,0,0,0,2.9-3A2.85,2.85,0,0,0,346.47,526.87Z"/>
        <path class="cls-27" d="M261.87,525c-3.94,0-3.94,6,0,6S265.8,525,261.87,525Z"/>
        <path class="cls-27" d="M397.15,520.56c-1.94-.07-1.95,2.81-.07,3,1.11.68,2.92-.06,2.3-1.49A2.16,2.16,0,0,0,397.15,520.56Z"/>
        <path class="cls-27" d="M341.51,532.82h-1.14a1.48,1.48,0,0,0,0,3h1.14A1.48,1.48,0,0,0,341.51,532.82Z"/>
        <path class="cls-27" d="M254.63,529.84h-.77a1.49,1.49,0,0,0,0,3h.77A1.49,1.49,0,0,0,254.63,529.84Z"/>
        <path class="cls-27" d="M325.13,516.11a1.49,1.49,0,0,0,0,3A1.49,1.49,0,0,0,325.13,516.11Z"/>
        <path class="cls-27" d="M285.11,520.19h-1.9a1.49,1.49,0,0,0,0,3h1.9A1.49,1.49,0,0,0,285.11,520.19Z"/>
        <path class="cls-27" d="M357.52,499h-1.15a1.49,1.49,0,0,0,0,3h1.15A1.49,1.49,0,0,0,357.52,499Z"/>
      </g>
    </g>
    <g>
      <path class="cls-28" d="M412.81,415.15q-1.43,3.8-2.87,7.37c-1.21,1.81-3.26-1.07-3.62-1.62a248.57,248.57,0,0,0,9.58-24.61,258.6,258.6,0,0,1,11.62-29.78c-8.26-12.59-4.33-25.39-3.67-26.73s.77-.59.44.27c-2.74,11.26,1.75,21.15,3.9,25,8.69-18.43,16.54-29.33,17.28-30.34,1.65-2.24,2.72-2.52,1,.23-10.82,17.49-20.75,33.8-29.62,61.82-1.71,5.4-3.24,10.51-5,15.36Z"/>
      <g>
        <path class="cls-29" d="M423.67,346.15c5,2,7.76-.21,11.26-4.74C429.85,338.51,422.21,342.27,423.67,346.15Z"/>
        <path class="cls-30" d="M423.67,346.15c5,2,7.76-.21,11.26-4.74A96.31,96.31,0,0,0,423.67,346.15Z"/>
      </g>
      <g>
        <path class="cls-29" d="M422.05,386.11c1-7.62,7.6-8.68,19-8.46C441.52,386.17,427.65,391.4,422.05,386.11Z"/>
        <path class="cls-30" d="M422.05,386.11c1-7.62,7.6-8.68,19-8.46A164.65,164.65,0,0,1,422.05,386.11Z"/>
      </g>
      <g>
        <path class="cls-29" d="M415.92,396.93c4.68-5.52,1.23-10.8-6.14-18.63C403.56,383.37,408.7,396.37,415.92,396.93Z"/>
        <path class="cls-30" d="M415.92,396.93c4.68-5.52,1.23-10.8-6.14-18.63A155.83,155.83,0,0,0,415.92,396.93Z"/>
      </g>
      <g>
        <path class="cls-29" d="M425.48,371.79c3.49-4.11.92-8.06-4.59-13.91C416.24,361.67,420.08,371.38,425.48,371.79Z"/>
        <path class="cls-30" d="M425.48,371.79c3.49-4.11.92-8.06-4.59-13.91A117.48,117.48,0,0,0,425.48,371.79Z"/>
      </g>
      <g>
        <path class="cls-29" d="M439.17,347.52c1.3-5.61,6.41-6,15.07-5.24C454,348.64,443,351.75,439.17,347.52Z"/>
        <path class="cls-31" d="M442,346.67c-1.37-4.05,3.54-5.18,12.2-4.39C454,348.64,444.34,349.77,442,346.67Z"/>
        <path class="cls-30" d="M439.17,347.52c1.3-5.61,6.41-6,15.07-5.24A133.45,133.45,0,0,1,439.17,347.52Z"/>
      </g>
      <g>
        <path class="cls-29" d="M443.78,335.18c-6.56-2.29-7.5-6.91-7.36-14.42C443.74,322.3,448.3,332.62,443.78,335.18Z"/>
        <path class="cls-31" d="M442.54,332.47c-4.52.38-6.26-4.2-6.12-11.71C443.74,322.3,445.91,331.07,442.54,332.47Z"/>
        <path class="cls-30" d="M443.78,335.18c-6.56-2.29-7.5-6.91-7.36-14.42A140.84,140.84,0,0,1,443.78,335.18Z"/>
        <path class="cls-32" d="M442.54,332.47l0,0c-1.75-3.72-4.65-9.29-6.15-11.69C436.28,328.27,438,332.85,442.54,332.47Z"/>
      </g>
    </g>
    <g>
      <path class="cls-28" d="M416.92,490.84c-.59,3.42-9.29-1.57-10.18-2.14,0-14.87,1.94-50.5.53-63.27-2.08-18.82-3.95-32.8-3.75-47.71-20.22-13-19.72-35.27-19.64-37.66s.75-1.36.83.11c3.33,18.19,14.38,30.51,20,34.73.65-32.49,6.93-54.33,7.35-56.28.95-4.35,2.31-5.44,1.63-.33-4.36,32.51-8.22,62.73-2.89,109.31,1,9,2.11,17.42,2.68,25.64C413.5,453.24,416.77,486.75,416.92,490.84Z"/>
      <g>
        <path class="cls-29" d="M387.77,349.45c8.61-.27,11.16-5.35,13.32-14.23C391.8,334.31,383.12,344.76,387.77,349.45Z"/>
        <path class="cls-30" d="M387.77,349.45c8.61-.27,11.16-5.35,13.32-14.23A156.94,156.94,0,0,0,387.77,349.45Z"/>
      </g>
      <g>
        <path class="cls-29" d="M411.43,408.71C407.9,397,416.84,391.12,433.6,384,439.81,396.12,423,412.77,411.43,408.71Z"/>
        <path class="cls-30" d="M411.43,408.71C407.9,397,416.84,391.12,433.6,384,429.27,389.9,416.15,404.45,411.43,408.71Z"/>
      </g>
      <g>
        <path class="cls-29" d="M409.53,428.45c3.23-11.08-5.24-16.53-21.07-23.13C382.71,416.75,398.65,432.33,409.53,428.45Z"/>
        <path class="cls-30" d="M409.53,428.45c3.23-11.08-5.24-16.53-21.07-23.13A253.14,253.14,0,0,0,409.53,428.45Z"/>
      </g>
      <g>
        <path class="cls-29" d="M407.09,385.63c2.41-8.28-3.91-12.35-15.74-17.29C387.06,376.89,399,388.53,407.09,385.63Z"/>
        <path class="cls-30" d="M407.09,385.63c2.41-8.28-3.91-12.35-15.74-17.29A187.23,187.23,0,0,0,407.09,385.63Z"/>
      </g>
      <g>
        <path class="cls-29" d="M411.24,341.35c-1.77-9,5.4-12.94,18.53-17.42C433.52,333.35,419.63,345,411.24,341.35Z"/>
        <path class="cls-31" d="M414.86,338.25c-4.63-5,1.78-9.84,14.91-14.32C433.52,333.35,420.23,341.28,414.86,338.25Z"/>
        <path class="cls-30" d="M411.24,341.35c-1.77-9,5.4-12.94,18.53-17.42A212.92,212.92,0,0,1,411.24,341.35Z"/>
      </g>
      <g>
        <path class="cls-29" d="M409.91,320.4c-11.05.92-15.41-5.19-20.1-16.21C401.48,301.66,414.83,313.72,409.91,320.4Z"/>
        <path class="cls-31" d="M406.35,317.24c-6.34,3.51-11.85-2-16.54-13.05C401.48,301.66,410.34,313,406.35,317.24Z"/>
        <path class="cls-30" d="M409.91,320.4c-11.05.92-15.41-5.19-20.1-16.21A220.29,220.29,0,0,1,409.91,320.4Z"/>
        <path class="cls-32" d="M406.35,317.24l0,0c-5-4.28-12.82-10.51-16.57-13C394.5,315.21,400,320.75,406.35,317.24Z"/>
      </g>
      <path class="cls-33" d="M440.2,495.05c-3.07-1.42-2.15-2.65-5.31-2.12s-3.27-1.91-5.37-2.15a10.79,10.79,0,0,1-6-2.5c-1.8-1.57-6.89-4.89-8.15-5,.19.45-6.17-.4-6.17-.4s-2.09.68-2.51,1.86-4.84,3.48-8.48,4a9.26,9.26,0,0,0-6.26,3.88c-1.07,1.27-3.52,1.51-6.08,1.85s-5.19,1.18-4,1.42,5.49.16,7.4,1.38,6.92.84,9.91,0,7.81-1.91,11.57-1.08,11.09,1.48,12.94.4a17.72,17.72,0,0,1,10.51-1.23C437.51,496.27,441.69,495.73,440.2,495.05Z"/>
    </g>
    <g>
      <path class="cls-28" d="M494.13,470.47c-.68,3.91-11.32-.42-12.33-1.07,0-17,2.14-41.7.53-56.3-2.38-21.52-1.64-42-1.41-59.09-23.12-14.83-26.1-39.05-26-41.79s.86-1.55.95.12c3.81,20.81,18.66,33.93,25.11,38.75.74-37.15,5.71-61.16,6.19-63.39,1.08-5,2.65-6.21,1.87-.38-5,37.19-9.4,71.75-3.31,125,1.17,10.26,2.42,19.92,3.06,29.31C488.78,441.65,494,465.8,494.13,470.47Z"/>
      <g>
        <path class="cls-29" d="M459.36,323c9.85-.31,12.76-6.11,15.23-16.28C464,305.64,454.05,317.59,459.36,323Z"/>
        <path class="cls-30" d="M459.36,323c9.85-.31,12.76-6.11,15.23-16.28A180.52,180.52,0,0,0,459.36,323Z"/>
      </g>
      <g>
        <path class="cls-29" d="M486.41,390.73c-4-13.43,6.2-20.11,25.36-28.24C518.87,376.34,499.67,395.37,486.41,390.73Z"/>
        <path class="cls-31" d="M491.42,385.67c-7.76-7.07,1.19-15.05,20.35-23.18C518.87,376.34,500,389.69,491.42,385.67Z"/>
        <path class="cls-30" d="M486.41,390.73c-4-13.43,6.2-20.11,25.36-28.24C506.82,369.22,491.82,385.86,486.41,390.73Z"/>
        <path class="cls-32" d="M491.42,385.67s.05,0,.07,0c6.76-7,16.49-18.05,20.28-23.21C492.61,370.62,483.66,378.6,491.42,385.67Z"/>
      </g>
      <g>
        <path class="cls-29" d="M484.25,413.31c3.69-12.67-6-18.9-24.1-26.46C453.58,399.93,471.8,417.75,484.25,413.31Z"/>
        <path class="cls-30" d="M484.25,413.31c3.69-12.67-6-18.9-24.1-26.46C464.86,393.16,479.12,408.74,484.25,413.31Z"/>
      </g>
      <g>
        <path class="cls-29" d="M481.45,364.33c2.77-9.46-4.47-14.12-18-19.76C458.54,354.34,472.16,367.65,481.45,364.33Z"/>
        <path class="cls-31" d="M477.9,360.79c5.42-5-.92-10.58-14.45-16.22C458.54,354.34,471.9,363.66,477.9,360.79Z"/>
        <path class="cls-30" d="M481.45,364.33c2.77-9.46-4.47-14.12-18-19.76A216,216,0,0,0,481.45,364.33Z"/>
        <path class="cls-32" d="M477.9,360.79l0,0c-4.79-4.92-11.69-12.62-14.4-16.24C477,350.21,483.32,355.79,477.9,360.79Z"/>
      </g>
      <g>
        <path class="cls-29" d="M486.2,313.7c-2-10.3,6.18-14.8,21.19-19.93C511.68,304.55,495.8,317.87,486.2,313.7Z"/>
        <path class="cls-30" d="M486.2,313.7c-2-10.3,6.18-14.8,21.19-19.93A239.42,239.42,0,0,1,486.2,313.7Z"/>
      </g>
      <g>
        <path class="cls-29" d="M484.68,289.74c-12.63,1.06-17.62-5.93-23-18.54C475,268.3,490.31,282.11,484.68,289.74Z"/>
        <path class="cls-31" d="M480.61,286.13c-7.25,4-13.55-2.32-18.92-14.93C475,268.3,485.18,281.3,480.61,286.13Z"/>
        <path class="cls-30" d="M484.68,289.74c-12.63,1.06-17.62-5.93-23-18.54A251.78,251.78,0,0,1,484.68,289.74Z"/>
        <path class="cls-32" d="M480.61,286.13l0,0c-5.68-4.89-14.66-12-18.95-14.89C467.06,283.81,473.36,290.14,480.61,286.13Z"/>
      </g>
      <path class="cls-33" d="M519.1,485.61c-3.52-2.75-2.46-5.14-6.08-4.1s-3.75-3.71-6.14-4.19a10.59,10.59,0,0,1-6.89-4.85c-2.05-3.05-7.88-9.5-9.31-9.69.21.87-7.06-.79-7.06-.79a6.26,6.26,0,0,0-2.87,3.61c-.48,2.29-5.53,6.77-9.7,7.82s-5.92,5.05-7.16,7.53-4,2.94-7,3.61-9.2,27.78-7.84,28.25,9.55-25.2,11.73-22.82,7.91,1.62,11.33,0,8.93-3.71,13.24-2.1,12.68,2.87,14.8.77,8.19-4.1,12-2.38S520.8,487,519.1,485.61Z"/>
    </g>
    <g>
      <path class="cls-2" d="M490.94,274.85a.9.9,0,0,1,1.27.07.89.89,0,0,1-.07,1.26"/>
      <g>
        <path class="cls-34" d="M492.67,266.81c13.31-28.11,38.92-12.29,2.41,2.28,33.61-13.49,42.4,12.13.64,3,41.76,9.15,29.74,31.91-1.34,2.53,38.79,36.12,5.69,39.52-2.82,1.11,12.38,51.81-20.55,32-3.22-.7-20.82,45.64-38.95,12.31-2.4-2.25-43.7,17.4-42.47-12.14-.67-3-41.8-9.17-29.76-31.92,1.35-2.55-28.23-25.28-5.69-39.52,2.81-1.13C481.78,236.44,510,234.09,492.67,266.81Z"/>
        <path class="cls-35" d="M502.51,277.26c3.12-5.91.06-13.66-6.85-17.31s-15.07-1.83-18.18,4.07-.05,13.68,6.85,17.32S499.38,283.16,502.51,277.26Z"/>
      </g>
    </g>
    <g>
      <path class="cls-2" d="M484.2,371.42a.62.62,0,0,1,.82.92"/>
      <g>
        <path class="cls-34" d="M485.39,365.87c9.18-19.4,26.85-8.48,1.66,1.57,23.19-9.3,29.26,8.38.44,2.06,28.82,6.32,20.53,22-.92,1.75,26.77,24.93,3.93,27.27-1.95.76,8.54,35.76-14.18,22.11-2.22-.48C468,403,455.52,380,480.74,370c-30.15,12-29.31-8.38-.46-2.05-28.85-6.33-20.53-22,.93-1.76-19.48-17.45-3.93-27.27,1.94-.78C477.87,344.91,497.33,343.29,485.39,365.87Z"/>
        <path class="cls-35" d="M492.18,373.08c2.15-4.08,0-9.42-4.73-11.94s-10.4-1.26-12.54,2.8,0,9.45,4.73,12S490,377.16,492.18,373.08Z"/>
      </g>
    </g>
    <g>
      <path class="cls-36" d="M410.61,294.41c-16.89-35.66-49.37-15.6-3.05,2.89-42.65-17.11-53.81,15.4-.81,3.79-53,11.61-37.75,40.48,1.69,3.21-49.22,45.83-7.22,50.14,3.59,1.41-15.71,65.73,26.06,40.65,4.08-.9,26.41,57.92,49.42,15.62,3.05-2.85C474.6,324,473,286.55,420,298.19c53-11.64,37.76-40.49-1.71-3.23,35.83-32.08,7.23-50.15-3.57-1.43C424.43,255.88,388.66,252.89,410.61,294.41Z"/>
      <path class="cls-35" d="M398.12,307.67c-3.95-7.5-.07-17.33,8.71-22s19.11-2.32,23.05,5.16.07,17.35-8.69,22S402.1,315.16,398.12,307.67Z"/>
    </g>
    <g>
      <path class="cls-37" d="M275.16,215.15s-12.11,19.31-13.42,40.58S248,284.86,246,303.51a203.71,203.71,0,0,1-7.52,36"/>
      <path class="cls-38" d="M275.2,215.18A103.88,103.88,0,0,0,268.42,230a93.51,93.51,0,0,0-4.53,15.56c-.25,1.33-.52,2.65-.67,4s-.4,2.66-.49,4l-.36,4.06-.19,2.06-.33,2.05a53.08,53.08,0,0,1-2,8,72.85,72.85,0,0,1-3.13,7.64c-2.37,4.95-5.1,9.65-7,14.66-.47,1.25-.94,2.51-1.3,3.8s-.67,2.58-1,3.88-.41,2.64-.63,4-.34,2.71-.55,4.06q-1.22,8.12-3.13,16.07c-1.32,5.29-2.81,10.54-4.55,15.71l-.09,0a206.26,206.26,0,0,0,7-31.84c.19-1.35.32-2.7.49-4s.34-2.71.61-4,.56-2.67,1-4,.83-2.6,1.3-3.88c1.93-5.1,4.66-9.84,7-14.76a74.93,74.93,0,0,0,3.13-7.52,52.11,52.11,0,0,0,2-7.89l.34-2,.2-2,.38-4.07c.1-1.36.31-2.7.52-4.05s.47-2.68.74-4a93.62,93.62,0,0,1,4.8-15.59,103.55,103.55,0,0,1,7.19-14.65Z"/>
    </g>
    <g>
      <g>
        <path class="cls-9" d="M322.28,315.29s10.8,1.64,24.22-4.25,19.31-3.93,15.05,6.87-40.9-2-40.9-2"/>
        <path class="cls-9" d="M329.48,318.57a114.51,114.51,0,0,0,25.2-3.28s9.82-2.94,11.13,4.58-24.22,6.55-24.22,6.55l-14.07.65c-2.29-4.9,2.29-9.81,2.29-9.81"/>
        <path class="cls-9" d="M319.34,314s15.71,5.57,20.62,10.15-31.75,1.64-31.75,1.64L305.92,314S307.56,306.13,319.34,314Z"/>
        <path class="cls-9" d="M290.87,306.46s9.16,2,15.71-2.29,9.49-12.77,18.32-9.17-7.85,16.69-7.85,16.69.65,5.57,10.8,8.18c0,0,5.89,3.28,18.65,2.62s16.36.33,16.36.33,3.6,5.24-10.47,7.2S322,335.26,303,328.38c0,0-62.84-6.21-84.76-25.52l-13.75-30.11,31.75-12.11,7.2,22.58S269.92,304.82,290.87,306.46Z"/>
      </g>
      <path class="cls-12" d="M233,198s5.23,49.6,11.45,64.66c0,0-3.27,6.87-24.22,13.74S198.91,278,198.91,278s-16-53.67-5.56-77.56"/>
    </g>
    <g>
      <path class="cls-39" d="M28.19,445.87v88.79s11.33,14.56,50,13.75c41.45-.88,50-12.22,50-12.22L127.24,443Z"/>
      <path class="cls-40" d="M127,448.49c0,4.45-22.46,12.87-49.09,12.87s-49.08-8.63-49.08-13.09,22.24-5,48.87-5S127,444,127,448.49Z"/>
      <g>
        <ellipse class="cls-39" cx="77.64" cy="443.93" rx="51.61" ry="14.21"/>
        <rect class="cls-41" x="26.88" y="427.76" width="102.37" height="16.17"/>
        <g>
          <path class="cls-42" d="M128.77,427.76c0,4.34-22.27,7.85-49.74,7.85s-52.09-3.08-52.09-7.41,24.61-8.29,52.09-8.29S128.77,423.42,128.77,427.76Z"/>
          <path class="cls-43" d="M129.42,429.4c0,4.33-22.27,7.85-49.74,7.85s-52.09-3.08-52.09-7.42,24.62-8.29,52.09-8.29S129.42,425.06,129.42,429.4Z"/>
          <ellipse class="cls-44" cx="78.81" cy="430.32" rx="46.25" ry="5.4"/>
        </g>
      </g>
    </g>
    <g>
      <g>
        <g>
          <polygon class="cls-45" points="88.34 361.35 94.58 344.12 91.24 362.13 88.34 361.35"/>
          <polygon class="cls-45" points="99.71 364.44 105.95 347.21 102.6 365.23 99.71 364.44"/>
          <polygon class="cls-45" points="111.08 367.53 117.32 350.31 113.97 368.32 111.08 367.53"/>
          <polygon class="cls-45" points="122.44 370.63 128.69 353.4 125.34 371.41 122.44 370.63"/>
        </g>
        <ellipse class="cls-46" cx="105.98" cy="367.67" rx="2.65" ry="23.07" transform="translate(-276.62 373.41) rotate(-74.78)"/>
      </g>
      <rect class="cls-47" x="90.56" y="367.24" width="13.42" height="67.41" transform="translate(108.67 -11.47) rotate(15.22)"/>
    </g>
    <g>
      <path class="cls-48" d="M96,435.4H77.72L45.18,367.14,40,356.2s-1.38-5.36,1.61-8.6c1.55-1.69,4.29-2.79,9-2.27a31.27,31.27,0,0,1,3.57.62l7.67,16.5Z"/>
      <path class="cls-49" d="M61.83,362.45c-5.51,2.89-12.19,4.14-16.65,4.69L40,356.2s-1.38-5.36,1.61-8.6l9-2.27a31.27,31.27,0,0,1,3.57.62Z"/>
      <g>
        <path class="cls-50" d="M79.4,343.3a111.76,111.76,0,0,1-29.68,17.83,145.33,145.33,0,0,1-36,9.69,9.86,9.86,0,0,1-11.17-8.88c-1.28-14.26-1.5-41,11.09-61.21a9.64,9.64,0,0,1,4.57-3.81,9.83,9.83,0,0,1,4.58-.68c12.68,1.08,42.86,6.62,58.74,34.57A10,10,0,0,1,79.4,343.3Z"/>
        <path class="cls-51" d="M49.72,361.13a140.52,140.52,0,0,1-35.31,9.69,9.72,9.72,0,0,1-11-8.88C2.2,347.68,2,321,14.33,300.73a9.5,9.5,0,0,1,4.49-3.81Z"/>
        <path class="cls-52" d="M2.23,359.15s23.89,2.61,78.21-29.78c0,0,8.84,8.18-3.92,17.34S31.36,372.24,9.1,370.93C9.1,370.93.59,368.31,2.23,359.15Z"/>
      </g>
    </g>
    <polyline class="cls-28" points="486.62 429.19 518.79 377.18 553.64 345.01 523.08 368.6 522.54 327.32 519.33 368.6 513.29 379.13 486.35 423.96"/>
    <g>
      <path class="cls-29" d="M521.56,360c3.69-12.66-6-18.9-24.1-26.45C490.88,346.66,509.11,364.48,521.56,360Z"/>
      <path class="cls-30" d="M521.56,360c3.69-12.66-6-18.9-24.1-26.45C502.17,339.9,516.43,355.48,521.56,360Z"/>
    </g>
    <g>
      <path class="cls-29" d="M524.69,342.23c-10-7.6-5.94-18.37,3.91-35.34C541.05,313,536.86,338.07,524.69,342.23Z"/>
      <path class="cls-30" d="M524.69,342.23c-10-7.6-5.94-18.37,3.91-35.34C528.47,314.69,526.12,335.54,524.69,342.23Z"/>
    </g>
    <g>
      <path class="cls-29" d="M495.11,409.42c3.63-12,15.14-12,34.48-8.69C528.18,414.54,503.27,419.37,495.11,409.42Z"/>
      <path class="cls-30" d="M495.11,409.42c3.63-12,15.14-12,34.48-8.69C522.24,403.33,501.88,408.42,495.11,409.42Z"/>
    </g>
    <g>
      <path class="cls-29" d="M547.12,349.91c3.63-12,15.13-12,34.47-8.69C580.18,355,555.27,359.86,547.12,349.91Z"/>
      <path class="cls-30" d="M547.12,349.91c3.63-12,15.13-12,34.47-8.69C574.24,343.82,553.88,348.91,547.12,349.91Z"/>
    </g>
    <polyline class="cls-28" points="404.73 406.47 370.82 374.5 335.43 361.1 369.75 370.75 365.46 342.87 372.76 372.29 405.53 403.05"/>
    <g>
      <path class="cls-29" d="M373.87,374.88c-6.48-10.75-18-7.85-36.48.21C342.08,388.16,368.1,386.6,373.87,374.88Z"/>
      <path class="cls-30" d="M373.87,374.88c-6.48-10.75-18-7.85-36.48.21C345.34,375.78,366.88,375.61,373.87,374.88Z"/>
    </g>
    <g>
      <path class="cls-29" d="M369,352.24c7-10.4-.44-19.6-15.54-33C343.61,329,356,351.93,369,352.24Z"/>
      <path class="cls-30" d="M369,352.24c7-10.4-.44-19.6-15.54-33C356.22,326.74,365.43,346.2,369,352.24Z"/>
    </g>
    <g>
      <path class="cls-36" d="M337.84,353.53c-8.34-17.62-24.39-7.71-1.5,1.43-21.07-8.46-26.59,7.61-.4,1.87-26.19,5.74-18.65,20,.83,1.59-24.32,22.65-3.56,24.78,1.78.69-7.77,32.48,12.88,20.09,2-.44,13.05,28.62,24.42,7.72,1.51-1.41,27.4,10.91,26.63-7.61.42-1.86,26.21-5.75,18.66-20-.85-1.6,17.7-15.85,3.57-24.78-1.76-.7C344.68,334.49,327,333,337.84,353.53Z"/>
      <path class="cls-35" d="M331.68,360.08c-2-3.7,0-8.56,4.3-10.85s9.44-1.14,11.39,2.55,0,8.58-4.3,10.86S333.64,363.78,331.68,360.08Z"/>
    </g>
    <g>
      <path class="cls-9" d="M400.72,239.62s1.08-11.15,10.56-16.36,7.65-4.48,12.39-9.68c0,0,7.27-5.86,10.08-1.44S430,224.3,424.9,226.35c0,0,1.41,6.15,9.83,1.26s18.07-13.72,27.55-11.51c0,0,3,1.42,1.58,3.78,0,0,8.42,3.16,1.93,11.51,0,0,2.63,5.68-7.55,10.41,0,0,.75,8.54-19.6,12s-28.93,0-28.93,0"/>
      <path class="cls-9" d="M458.24,241.8s1.23-3.1-3.22-5.1-13.16,5.15-19.59,5.89"/>
      <path class="cls-9" d="M466.26,232.6s-.71-4-5.5-4.1S444,237.33,434.9,239.44"/>
      <path class="cls-9" d="M465.67,220.83s-2.69-2.42-7.37.63S440.58,232,435.43,232.65"/>
    </g>
    <path class="cls-9" d="M424.66,226.13s4,10.66-7.36,13.71"/>
    <path class="cls-9" d="M432.58,228.72s8.29,5.89,2.18,17.23"/>
    <g>
      <g>
        <path class="cls-3" d="M389.26,445.93c-8.8,1.18-13-5.6-14.53-13.24-1.29-6.94-.36-14.35,3.69-15.27,4-1.28,11.84,5,15.54,12C398.24,436.93,398,445.68,389.26,445.93Z"/>
        <path class="cls-4" d="M384.3,397.5c10.33,3.23,10.71,8.56,8.07,12.67-3,4.52-9.32,7.6-13.32,6.8-4-1.34-7.95-7.19-8.18-12.58C370.69,399.5,373.76,395.08,384.3,397.5Z"/>
        <path class="cls-3" d="M409.64,425.42c.06,8.76-7.33,5.89-15.11,2.32-7.56-3.86-15.35-8.3-15.9-11.52-.52-3.06,7.11-6.44,14.84-5.21C401,411.92,409.5,417.45,409.64,425.42Z"/>
        <path class="cls-5" d="M353.5,436c-7.31-4.55-2.73-12.26,5-16.5,7-4.07,17-5.36,19.64-2.32,3,2.95-.25,9.67-5.1,14.9C367.58,437.71,360.41,441.4,353.5,436Z"/>
        <path class="cls-3" d="M350.05,405.35c6.22-6.32,15.65-5.24,21.44-1.47,6.22,3.76,9.3,10.8,6.76,12.75-2.83,2.12-11.86,1.1-20-.32C350.28,414.56,343.37,412.42,350.05,405.35Z"/>
        <g>
          <path class="cls-6" d="M379.26,416.68l-.27-.06c.33-1.53.64-3,.95-4.53l.28.08C379.91,413.64,379.59,415.15,379.26,416.68Z"/>
          <path class="cls-6" d="M374.88,412.22l.22-.09c1.25,1.43,2.45,2.9,3.63,4.42l-.23.1C377.32,415.12,376.1,413.65,374.88,412.22Z"/>
          <path class="cls-6" d="M378.18,416.83c-1.93-.59-3.89-1.08-5.87-1.52,0-.08.05-.14.06-.2,2,.44,3.94.95,5.87,1.52A1.52,1.52,0,0,1,378.18,416.83Z"/>
          <path class="cls-6" d="M378.5,417.37c-1.81.62-3.61,1.3-5.42,2l-.13-.19c1.81-.72,3.59-1.4,5.41-2Z"/>
          <path class="cls-6" d="M377.84,422.05l-.26-.07c.33-1.41.66-2.81,1-4.19l.27.07C378.51,419.24,378.18,420.64,377.84,422.05Z"/>
          <path class="cls-6" d="M383.16,421.66a1.28,1.28,0,0,1-.2.11c-1.25-1.25-2.5-2.48-3.79-3.64a.72.72,0,0,1,.19-.11C380.65,419.18,381.92,420.41,383.16,421.66Z"/>
          <path class="cls-6" d="M380,417.24c1.92.55,3.85,1.18,5.75,1.85a1.21,1.21,0,0,1-.05.18q-2.86-1-5.76-1.82A1.91,1.91,0,0,0,380,417.24Z"/>
          <path class="cls-6" d="M384.91,415.28c-1.74.5-3.5,1.05-5.26,1.68a1.43,1.43,0,0,0-.14-.2c1.74-.61,3.5-1.17,5.26-1.67A.94.94,0,0,1,384.91,415.28Z"/>
        </g>
        <path class="cls-6" d="M373.91,415.78c-.52,2.09,1.36,4.26,4.13,5s5.46-.2,6-2.27-1.25-4.38-4.07-5.14S374.42,413.75,373.91,415.78Z"/>
        <path class="cls-7" d="M376.16,416.29c-.28,1.15.76,2.39,2.32,2.81s3.09-.13,3.4-1.29-.71-2.45-2.29-2.87S376.47,415.14,376.16,416.29Z"/>
        <path class="cls-7" d="M379.83,412.85c.65.19,1.32,0,1.46-.45s-.27-1-.93-1.18-1.3,0-1.44.47S379.18,412.65,379.83,412.85Z"/>
        <path class="cls-7" d="M375.44,412.73a.5.5,0,0,0,.29-.81,1.17,1.17,0,0,0-1.19-.3.51.51,0,0,0-.29.82A1.16,1.16,0,0,0,375.44,412.73Z"/>
        <path class="cls-7" d="M373.36,415.43c.12-.34-.19-.76-.71-.88a1,1,0,0,0-1.18.45c-.12.37.19.75.7.89A1,1,0,0,0,373.36,415.43Z"/>
        <path class="cls-7" d="M374.08,418.91a1.5,1.5,0,0,0-1.68-.44.79.79,0,0,0-.46,1.23,1.52,1.52,0,0,0,1.68.45A.79.79,0,0,0,374.08,418.91Z"/>
        <path class="cls-7" d="M378,421.24a.8.8,0,0,0-1,.34c-.15.35.1.74.54.89a.83.83,0,0,0,1.06-.32A.74.74,0,0,0,378,421.24Z"/>
        <path class="cls-7" d="M382.53,421.17a.52.52,0,0,0-.33.8,1,1,0,0,0,1.06.43.51.51,0,0,0,.34-.79A1,1,0,0,0,382.53,421.17Z"/>
        <path class="cls-7" d="M384.74,418.75c-.18.37.11.89.66,1.14s1.13.13,1.3-.26-.11-.9-.65-1.15A1,1,0,0,0,384.74,418.75Z"/>
        <path class="cls-7" d="M384.14,415.18a1.41,1.41,0,0,0,1.35.56.56.56,0,0,0,.43-.91,1.31,1.31,0,0,0-1.32-.57A.59.59,0,0,0,384.14,415.18Z"/>
      </g>
      <g>
        <path class="cls-3" d="M469.59,454.34c-8.8,1.18-13-5.59-14.53-13.23-1.29-6.94-.36-14.35,3.69-15.27,4-1.28,11.84,5,15.54,12C478.57,445.35,478.29,454.1,469.59,454.34Z"/>
        <path class="cls-4" d="M464.63,405.91c10.33,3.24,10.71,8.57,8.07,12.68-3,4.52-9.33,7.6-13.32,6.8-4-1.34-7.95-7.2-8.18-12.59C451,407.92,454.09,403.5,464.63,405.91Z"/>
        <path class="cls-3" d="M490,433.84c.06,8.76-7.33,5.89-15.11,2.32-7.56-3.86-15.35-8.31-15.9-11.52s7.11-6.44,14.84-5.21C481.32,420.34,489.83,425.86,490,433.84Z"/>
        <path class="cls-5" d="M433.83,444.37c-7.31-4.56-2.73-12.26,5-16.5,7-4.07,17-5.36,19.64-2.32,3,2.95-.25,9.67-5.1,14.89C447.91,446.13,440.74,449.82,433.83,444.37Z"/>
        <path class="cls-3" d="M430.38,413.77c6.22-6.32,15.65-5.24,21.44-1.47,6.22,3.76,9.3,10.8,6.76,12.75-2.83,2.12-11.86,1.09-20-.32C430.61,423,423.7,420.84,430.38,413.77Z"/>
        <g>
          <path class="cls-6" d="M459.59,425.1l-.27-.06c.33-1.53.64-3,.95-4.53l.28.07C460.24,422.06,459.92,423.57,459.59,425.1Z"/>
          <path class="cls-6" d="M455.21,420.63l.22-.08c1.25,1.43,2.44,2.9,3.63,4.42a1.23,1.23,0,0,0-.23.09C457.64,423.54,456.43,422.07,455.21,420.63Z"/>
          <path class="cls-6" d="M458.51,425.25c-1.93-.59-3.89-1.08-5.87-1.52,0-.08.05-.14.06-.2,2,.44,3.94,1,5.87,1.51A1.29,1.29,0,0,1,458.51,425.25Z"/>
          <path class="cls-6" d="M458.83,425.79c-1.81.62-3.61,1.3-5.42,2a1.82,1.82,0,0,0-.14-.19c1.82-.72,3.6-1.4,5.42-2Z"/>
          <path class="cls-6" d="M458.17,430.47l-.26-.07c.33-1.41.65-2.81,1-4.19l.27.07C458.84,427.66,458.51,429.05,458.17,430.47Z"/>
          <path class="cls-6" d="M463.49,430.08c-.07,0-.13.09-.2.1-1.25-1.24-2.5-2.47-3.79-3.63a1.22,1.22,0,0,1,.19-.12C461,427.6,462.25,428.83,463.49,430.08Z"/>
          <path class="cls-6" d="M460.33,425.66c1.92.55,3.85,1.18,5.75,1.85,0,.06,0,.12-.05.18q-2.86-1-5.76-1.82Q460.3,425.78,460.33,425.66Z"/>
          <path class="cls-6" d="M465.24,423.7c-1.74.5-3.5,1.05-5.26,1.68a1.43,1.43,0,0,0-.14-.2c1.74-.61,3.5-1.17,5.26-1.67A.94.94,0,0,1,465.24,423.7Z"/>
        </g>
        <path class="cls-6" d="M454.24,424.2c-.52,2.09,1.36,4.25,4.13,5s5.46-.2,6-2.26-1.24-4.38-4.06-5.14S454.75,422.17,454.24,424.2Z"/>
        <path class="cls-7" d="M456.49,424.71c-.28,1.15.76,2.39,2.32,2.81s3.09-.13,3.39-1.29-.7-2.45-2.28-2.87S456.8,423.56,456.49,424.71Z"/>
        <path class="cls-7" d="M460.16,421.26c.65.2,1.32,0,1.46-.45s-.27-1-.93-1.17-1.3,0-1.44.47S459.51,421.07,460.16,421.26Z"/>
        <path class="cls-7" d="M455.77,421.15a.5.5,0,0,0,.29-.81,1.18,1.18,0,0,0-1.19-.3.51.51,0,0,0-.29.82A1.18,1.18,0,0,0,455.77,421.15Z"/>
        <path class="cls-7" d="M453.69,423.85c.12-.34-.19-.77-.71-.88a1,1,0,0,0-1.18.45c-.12.36.19.75.7.89A1,1,0,0,0,453.69,423.85Z"/>
        <path class="cls-7" d="M454.41,427.33a1.5,1.5,0,0,0-1.68-.45.8.8,0,0,0-.46,1.24,1.54,1.54,0,0,0,1.68.45A.79.79,0,0,0,454.41,427.33Z"/>
        <path class="cls-7" d="M458.33,429.66a.8.8,0,0,0-1,.34c-.15.35.1.74.54.89a.85.85,0,0,0,1.06-.32A.74.74,0,0,0,458.33,429.66Z"/>
        <path class="cls-7" d="M462.86,429.59a.51.51,0,0,0-.33.79,1,1,0,0,0,1.06.44.52.52,0,0,0,.34-.79A1,1,0,0,0,462.86,429.59Z"/>
        <path class="cls-7" d="M465.07,427.17c-.18.37.11.89.66,1.14s1.13.13,1.3-.26-.11-.9-.65-1.15A1,1,0,0,0,465.07,427.17Z"/>
        <path class="cls-7" d="M461.51,429a1.43,1.43,0,0,0,1.35.57.57.57,0,0,0,.43-.92,1.32,1.32,0,0,0-1.32-.57A.59.59,0,0,0,461.51,429Z"/>
      </g>
      <g>
        <path class="cls-3" d="M463.53,378.65c-8.8,1.18-13-5.59-14.53-13.23-1.29-6.94-.36-14.35,3.69-15.27,4-1.28,11.84,5,15.54,12C472.51,369.66,472.22,378.41,463.53,378.65Z"/>
        <path class="cls-4" d="M458.57,330.22c10.32,3.24,10.71,8.57,8.07,12.68-3,4.52-9.33,7.6-13.32,6.8-4-1.34-7.95-7.2-8.19-12.59C445,332.23,448,327.81,458.57,330.22Z"/>
        <path class="cls-3" d="M483.91,358.15c.06,8.76-7.34,5.89-15.11,2.32-7.57-3.86-15.35-8.31-15.9-11.52s7.11-6.44,14.84-5.21C475.26,344.65,483.77,350.17,483.91,358.15Z"/>
        <path class="cls-5" d="M427.77,368.68c-7.31-4.56-2.73-12.26,5-16.5,7-4.07,17-5.36,19.64-2.32,3,2.95-.25,9.67-5.1,14.89C441.85,370.44,434.68,374.13,427.77,368.68Z"/>
        <path class="cls-3" d="M424.31,338.08c6.23-6.32,15.66-5.24,21.45-1.47,6.22,3.76,9.3,10.8,6.76,12.75-2.83,2.12-11.86,1.09-20-.32C424.55,347.28,417.64,345.15,424.31,338.08Z"/>
        <g>
          <path class="cls-6" d="M453.53,349.41l-.27-.06c.33-1.53.64-3,.95-4.53l.28.07C454.18,346.37,453.86,347.88,453.53,349.41Z"/>
          <path class="cls-6" d="M449.15,344.94l.22-.08c1.25,1.43,2.44,2.9,3.63,4.42a1.23,1.23,0,0,0-.23.09C451.58,347.85,450.37,346.38,449.15,344.94Z"/>
          <path class="cls-6" d="M452.45,349.56c-1.93-.59-3.89-1.08-5.87-1.52,0-.08.05-.14.06-.2,2,.44,3.94,1,5.87,1.51A1.29,1.29,0,0,1,452.45,349.56Z"/>
          <path class="cls-6" d="M452.77,350.1c-1.81.62-3.61,1.3-5.42,2a1.82,1.82,0,0,0-.14-.19c1.82-.72,3.6-1.4,5.42-2A.85.85,0,0,0,452.77,350.1Z"/>
          <path class="cls-6" d="M452.11,354.78l-.26-.07c.33-1.41.65-2.81,1-4.2l.27.08C452.78,352,452.45,353.36,452.11,354.78Z"/>
          <path class="cls-6" d="M457.43,354.39a1.86,1.86,0,0,1-.2.1c-1.25-1.24-2.5-2.47-3.79-3.63a1.22,1.22,0,0,1,.19-.12C454.92,351.91,456.19,353.14,457.43,354.39Z"/>
          <path class="cls-6" d="M454.27,350c1.92.55,3.84,1.18,5.75,1.85,0,.06,0,.12,0,.18q-2.87-1-5.76-1.82Q454.24,350.09,454.27,350Z"/>
          <path class="cls-6" d="M459.18,348c-1.74.5-3.5,1.05-5.26,1.68a1.43,1.43,0,0,0-.14-.2c1.74-.61,3.5-1.17,5.26-1.67A.94.94,0,0,1,459.18,348Z"/>
        </g>
        <path class="cls-6" d="M448.18,348.51c-.52,2.09,1.36,4.25,4.13,5s5.46-.2,6-2.26-1.24-4.38-4.06-5.14S448.69,346.48,448.18,348.51Z"/>
        <path class="cls-7" d="M450.43,349c-.28,1.15.76,2.39,2.32,2.81s3.09-.13,3.39-1.29-.7-2.45-2.28-2.87S450.74,347.87,450.43,349Z"/>
        <path class="cls-7" d="M454.1,345.57c.65.2,1.32,0,1.46-.45s-.27-1-.93-1.17-1.31,0-1.44.47S453.45,345.38,454.1,345.57Z"/>
        <path class="cls-7" d="M449.71,345.46a.5.5,0,0,0,.29-.81,1.18,1.18,0,0,0-1.19-.3.5.5,0,0,0-.29.81A1.16,1.16,0,0,0,449.71,345.46Z"/>
        <path class="cls-7" d="M447.63,348.16c.12-.34-.19-.77-.71-.88a1,1,0,0,0-1.18.45c-.12.36.19.75.7.89A1,1,0,0,0,447.63,348.16Z"/>
        <path class="cls-7" d="M448.35,351.64a1.5,1.5,0,0,0-1.68-.45.8.8,0,0,0-.46,1.24,1.52,1.52,0,0,0,1.68.44A.78.78,0,0,0,448.35,351.64Z"/>
        <path class="cls-7" d="M452.27,354a.8.8,0,0,0-1,.34.72.72,0,0,0,.55.89.84.84,0,0,0,1.06-.33A.73.73,0,0,0,452.27,354Z"/>
        <path class="cls-7" d="M456.8,353.9a.51.51,0,0,0-.33.79,1,1,0,0,0,1.06.44.51.51,0,0,0,.33-.79A1,1,0,0,0,456.8,353.9Z"/>
        <path class="cls-7" d="M459,351.48c-.18.37.11.89.66,1.14s1.13.13,1.3-.26-.11-.9-.65-1.15A1,1,0,0,0,459,351.48Z"/>
        <path class="cls-7" d="M458.41,347.91a1.41,1.41,0,0,0,1.35.56.56.56,0,0,0,.43-.91,1.33,1.33,0,0,0-1.32-.58A.6.6,0,0,0,458.41,347.91Z"/>
      </g>
    </g>
  </g>
</svg>
