<svg xmlns="http://www.w3.org/2000/svg" width="264" height="335" viewBox="0 0 264 335">
  <defs>
    <style>
      .cls-1 {
        isolation: isolate;
      }

      .cls-2 {
        opacity: 0.2;
      }

      .cls-3, .cls-44 {
        fill: #fff;
      }

      .cls-3 {
        stroke: #b3bfc9;
      }

      .cls-10, .cls-16, .cls-19, .cls-20, .cls-21, .cls-22, .cls-23, .cls-25, .cls-28, .cls-3, .cls-33, .cls-39, .cls-52, .cls-53, .cls-54, .cls-7, .cls-8, .cls-9 {
        stroke-miterlimit: 10;
      }

      .cls-4 {
        fill: #58646d;
      }

      .cls-15, .cls-26, .cls-32, .cls-4 {
        mix-blend-mode: multiply;
      }

      .cls-26, .cls-32, .cls-4 {
        opacity: 0.3;
      }

      .cls-5 {
        fill: #58595b;
      }

      .cls-6 {
        fill: #808285;
      }

      .cls-23, .cls-7 {
        fill: #d6e7ed;
      }

      .cls-19, .cls-20, .cls-22, .cls-23, .cls-39, .cls-53, .cls-54, .cls-7 {
        stroke: #755339;
      }

      .cls-8 {
        fill: #5a684e;
      }

      .cls-10, .cls-8 {
        stroke: #46563b;
      }

      .cls-9 {
        fill: #cbd8c3;
        stroke: #8f9e85;
      }

      .cls-10 {
        fill: #67775c;
      }

      .cls-11 {
        fill: #efd952;
      }

      .cls-12 {
        fill: #4c3724;
      }

      .cls-13 {
        fill: #684d36;
      }

      .cls-14, .cls-15, .cls-33 {
        fill: #939598;
      }

      .cls-15 {
        opacity: 0.4;
      }

      .cls-16, .cls-28 {
        fill: #3fa4a9;
      }

      .cls-16 {
        stroke: #496375;
      }

      .cls-17 {
        fill: #3f7248;
      }

      .cls-18 {
        fill: #2c5935;
      }

      .cls-19 {
        fill: #61ad77;
      }

      .cls-20, .cls-21 {
        fill: #2c94af;
      }

      .cls-21 {
        stroke: #382519;
      }

      .cls-22, .cls-46 {
        fill: #f9dad2;
      }

      .cls-22, .cls-23, .cls-39 {
        stroke-width: 0.75px;
      }

      .cls-24, .cls-25, .cls-26 {
        fill: #414042;
      }

      .cls-25 {
        stroke: #0c4c4a;
      }

      .cls-27 {
        fill: #005451;
      }

      .cls-28, .cls-33 {
        stroke: #268787;
      }

      .cls-29 {
        fill: #007676;
      }

      .cls-30 {
        fill: #008789;
      }

      .cls-31, .cls-32 {
        fill: #6d6e71;
      }

      .cls-34 {
        fill: #aa114f;
      }

      .cls-35 {
        fill: #f7e7ee;
      }

      .cls-36 {
        fill: #f4bed6;
      }

      .cls-37 {
        fill: #82bad8;
      }

      .cls-38 {
        fill: #99cef2;
      }

      .cls-39 {
        fill: #f99269;
      }

      .cls-40 {
        fill: #c6613e;
      }

      .cls-41 {
        fill: #25351b;
      }

      .cls-42 {
        fill: #e29164;
      }

      .cls-43 {
        fill: #562b16;
      }

      .cls-45 {
        fill: #4c3c0f;
      }

      .cls-47 {
        fill: #755339;
      }

      .cls-48 {
        fill: #c45f37;
      }

      .cls-49 {
        fill: #b26b51;
      }

      .cls-50 {
        fill: #182311;
      }

      .cls-51 {
        fill: #80ea3b;
      }

      .cls-52 {
        fill: #aff2f2;
        stroke: #4c3c0f;
        stroke-width: 0.25px;
      }

      .cls-53 {
        fill: #84acaf;
      }

      .cls-53, .cls-54 {
        stroke-width: 0.5px;
      }

      .cls-54 {
        fill: #d7f3f7;
      }

      .cls-55 {
        fill: #eff8ff;
      }

      .cls-56 {
        fill: #ccc8cc;
      }

      .cls-57 {
        fill: #c5d8d7;
      }

      .cls-58 {
        fill: #fdffff;
      }

      .cls-59 {
        fill: #f2f4ff;
      }

      .cls-60 {
        fill: #bbc2ca;
      }

      .cls-61 {
        fill: #cad1d9;
      }
    </style>
  </defs>
  <g class="cls-1">
    <g id="Layer_1" data-name="Layer 1">
      <g>
        <g>
          <ellipse class="cls-2" cx="160.86" cy="322.79" rx="102.03" ry="6.82"/>
          <ellipse class="cls-2" cx="33.48" cy="327.18" rx="32.37" ry="6.82"/>
        </g>
        <g>
          <g>
            <g>
              <g>
                <g>
                  <path class="cls-3" d="M196.37,233.14h-5.11V13.07L78.92,37,118.34,76l-2.79,5.24L73.28,40.79a4.89,4.89,0,0,1,2.37-8.31L196.37,6.75Z"/>
                  <polygon class="cls-4" points="191.26 233.14 191.26 13.07 78.92 36.97 116.29 74.35 115.78 77.79 74.85 35.69 193.82 9.91 193.21 233.14 191.26 233.14"/>
                </g>
                <g>
                  <path class="cls-5" d="M202.26,9.45A8.45,8.45,0,1,1,193.82,1,8.45,8.45,0,0,1,202.26,9.45Z"/>
                  <path class="cls-6" d="M199.05,9.45a5.24,5.24,0,1,1-5.23-5.24A5.23,5.23,0,0,1,199.05,9.45Z"/>
                </g>
                <g>
                  <path class="cls-5" d="M86.73,37a9.22,9.22,0,1,1-9.22-9.22A9.21,9.21,0,0,1,86.73,37Z"/>
                  <path class="cls-6" d="M83.22,37a5.71,5.71,0,1,1-5.71-5.71A5.71,5.71,0,0,1,83.22,37Z"/>
                </g>
                <g>
                  <path class="cls-7" d="M163.32,118.83s-1.5,6.48-20.54,9.31a185.57,185.57,0,0,1-18.86-28.82l-13.2,8.86s14.52,23.94,23,31.29,18.86,3.4,18.86,3.4l6.41-2.45L162.57,125Z"/>
                  <path class="cls-7" d="M142.78,128.14s-1.33,1.72-1.14,5.87"/>
                </g>
              </g>
              <g>
                <path class="cls-8" d="M112.18,70.58,109.81,84.9l13.46,2.25L125.14,73S118.79,67.09,112.18,70.58Z"/>
                <g>
                  <path class="cls-9" d="M139.4,116.22c-1.4,9.42-8.41-5.52-21.12-7.41s-33.17,7.36-31.77-2.06,17.63-25.88,30.34-24S140.8,106.81,139.4,116.22Z"/>
                  <path class="cls-10" d="M111.24,120.3c-14.58-3-25.65-9-24.73-13.55.65-3.22,7.2-4.78,16.17-4.35a78,78,0,0,1,11.88,1.53,80.46,80.46,0,0,1,10.34,2.8c9.11,3.16,15.08,7.38,14.39,10.75C138.37,122,125.81,123.26,111.24,120.3Z"/>
                </g>
                <path class="cls-11" d="M121.59,110.71a9.38,9.38,0,0,1-13.23,1.09,9.09,9.09,0,0,1-2.84-8.59,64.84,64.84,0,0,1,9.74,1.25,67.68,67.68,0,0,1,8.47,2.3A9.69,9.69,0,0,1,121.59,110.71Z"/>
              </g>
              <ellipse class="cls-12" cx="118.46" cy="76.74" rx="2.91" ry="3.37"/>
              <ellipse class="cls-13" cx="117.65" cy="76.62" rx="2.91" ry="3.37"/>
            </g>
            <g>
              <g>
                <g>
                  <rect class="cls-14" x="184.42" y="171.52" width="4.79" height="9.39"/>
                  <rect class="cls-15" x="184.42" y="171.52" width="1.49" height="9.39"/>
                </g>
                <g>
                  <rect class="cls-14" x="209.79" y="171.52" width="4.79" height="9.39"/>
                  <rect class="cls-15" x="209.79" y="171.52" width="1.49" height="9.39"/>
                </g>
              </g>
              <path class="cls-16" d="M219.54,170.84a3.22,3.22,0,0,1-3.15,3.26H182.6a3.21,3.21,0,0,1-3.14-3.25V154.21A3.2,3.2,0,0,1,182.6,151h33.79a3.21,3.21,0,0,1,3.15,3.25Z"/>
              <path class="cls-16" d="M225,232.33a3.62,3.62,0,0,1-3.55,3.67H177.55a3.62,3.62,0,0,1-3.55-3.67v-48a3.62,3.62,0,0,1,3.55-3.67h43.89a3.62,3.62,0,0,1,3.55,3.67Z"/>
            </g>
            <path class="cls-17" d="M204,200.64s.19,33-3.77,54.31l-43.74-5.48s7.89-38.82,4.86-54.27C158.57,181,200.79,190.46,204,200.64Z"/>
            <path class="cls-18" d="M167.72,207.11c5.54,4.16,9.7,4.72,15,4.72C182.69,211.83,173.54,216,167.72,207.11Z"/>
            <path class="cls-19" d="M163.84,188.37s4,4.64,23.57.85l.19-15.73-24.51,3.09Z"/>
            <path class="cls-20" d="M163.84,120.89a7.13,7.13,0,0,1,0-1c.22-2.14,1.44-7.14,8.07-7.88,8.48-.94,13.57,6.41,13.57,6.41L188,167.08l.57,15.08s-15.84,5.09-25.26-1.32l-4.53-52.6Z"/>
            <path class="cls-21" d="M158.55,142.39s-.39,9,9.35,7.36,6.76,2.19,17.69-.4,6-12.92,6-12.92"/>
            <path class="cls-7" d="M154.79,134.59s5.37,20.3,4.62,29.85,3.18,39.59-.47,47-7.4,4.44-9.78,9-1.66-3.63-1.66-3.63-3.89,6.79,5.66,9.68,9.05-.75,9.05-.75,4.77-29.42,3.89-48.9-3.52-51-3.52-51"/>
            <g>
              <path class="cls-22" d="M155.07,162.37s-2.16-1.42-9.52-2.55-9.71.1-13.67,2.92a15.41,15.41,0,0,0-5.18,5.76s1.13,2.07,4.43.47a2.23,2.23,0,0,0,1.6,2.54,1.63,1.63,0,0,0,2-.47s-1.32,3,2.45,3.3c0,0,1.32,6,6.23,2,0,0,1.32-2.26-1.7-1.6,0,0,.85-.57,3.39.37s10.37-1.41,10.37-1.41Z"/>
              <path class="cls-22" d="M131.13,169.63s.19-2.83,4-4.53"/>
              <path class="cls-22" d="M137.45,175.19s-1.42-1.89,2.35-5"/>
            </g>
            <path class="cls-7" d="M182.7,111.75s.31,0,.87.15a32.69,32.69,0,0,1,25,22,66.87,66.87,0,0,1,3,12.48c1.14,10,8.36,34.69,10.81,46s.36,28.76,3.94,33.29-27,11.12-36,4.9c0,0-11.65-35.67-10.33-64.52S182.7,111.75,182.7,111.75Z"/>
            <path class="cls-23" d="M165.54,115s-7.45,6.88-7.07,15.65l2.45-.28-1.79,2.82s1.41,21.59,6.13,30.83c0,0-.38-29.13.66-40.25,0,0,.18-6.7,2.26-8.67S165.54,115,165.54,115Z"/>
            <path class="cls-7" d="M181.82,111.58s0,2.15.12,18.17.47,34.31.47,34.31,6.7-5.65,6.88-25.07l-.37-16-1.79-2.16,3.11-1s-2.74-8.95-9.24-10.46S181.82,111.58,181.82,111.58Z"/>
            <path class="cls-7" d="M193,193.5c3.63.51,13.58,1.5,19.44-1.81a.84.84,0,0,1,1.26.59l1.88,11.31a.82.82,0,0,1-.06.49l-5.41,11.62a.84.84,0,0,1-1.19.37l-11.39-6.79a.92.92,0,0,1-.36-.44l-5.08-14.23A.84.84,0,0,1,193,193.5Z"/>
            <polygon class="cls-18" points="177.44 184.09 177.83 191.58 181.52 191.35 180.79 183.6 177.44 184.09"/>
            <polygon class="cls-18" points="166.36 182.41 165.79 189.21 167.3 189.51 167.61 182.62 166.36 182.41"/>
            <g>
              <g>
                <polygon class="cls-14" points="145.23 210.88 153.13 212.24 152.1 245.82 142.82 247.21 145.23 210.88"/>
                <polygon class="cls-6" points="153.1 212.23 155.34 212.62 155.05 245.36 152.07 245.81 153.1 212.23"/>
              </g>
              <g>
                <path class="cls-24" d="M168.47,213.48c-.18.69-.69,1.25-1.13,1.25H131.11c-.44,0-.65-.56-.47-1.25l1-3.64c.18-.69.68-1.25,1.12-1.25H169c.44,0,.65.56.47,1.25Z"/>
                <path class="cls-5" d="M170.52,213.48c-.18.69-.68,1.25-1.12,1.25H133.17c-.44,0-.66-.56-.48-1.25l.95-3.64c.18-.69.69-1.25,1.13-1.25H171c.44,0,.65.56.48,1.25Z"/>
              </g>
            </g>
            <g>
              <g>
                <polygon class="cls-25" points="78.46 261.51 78.46 322.79 177.01 322.79 201.79 266.31 137.49 249.08 78.46 261.51"/>
                <path class="cls-26" d="M78.46,299.15s10.36,4.18,14,1.12,20.34-18.67,20.34-18.67,68.25-.56,73-2,10.51-8.81,8.32-14.71l6.79,3.44L194.2,283.6l-5.65,39.19H78.46Z"/>
              </g>
              <g>
                <polygon class="cls-14" points="100.43 241.41 81.78 243.22 77.53 233.04 96.17 231.23 100.43 241.41"/>
                <polygon class="cls-15" points="83.71 241.82 82.34 241.93 78.08 231.75 79.46 231.64 83.71 241.82"/>
              </g>
              <g>
                <path class="cls-27" d="M74.7,260.57s1.07,3.43,3.56,3.24,57.83-10.37,58.79-10,60.32,14.6,60.32,14.6l32.85-.38,2.69-1.54-95.29-16.71Z"/>
                <g>
                  <path class="cls-28" d="M74.61,241s-4.41,0-5.37,2.5,3.65,14.21,3.65,14.21a5,5,0,0,0,5.57,3.85c4.61-.58,56.28-9.61,58.4-9.41s59.74,13.44,62.43,14,33.62.38,33.62.38l3.84-6.34s.39-2.5-3.27-4.42-45.91-20.36-45.91-20.36-2.88-1.34-8.26-1.15-50.91.38-50.91.38Z"/>
                  <path class="cls-29" d="M236.75,260.16a2.19,2.19,0,0,0,0-.63l-34.18-2.25s-4.6,6.92-5.44,8.35l2.18.49c2.69.57,33.62.38,33.62.38Z"/>
                  <path class="cls-30" d="M129.3,240.37c-2.87-1-54.32.55-54.69.58h0s-7.72-2.34-8.68.16,7,16.55,7,16.55a5,5,0,0,0,5.57,3.85c4.61-.58,56.28-9.61,58.4-9.41s59.74,13.44,62.43,14c.19,0,.53.07,1,.11,5.76-1.24,3.45-7.8,2.29-9S132.18,241.33,129.3,240.37Z"/>
                </g>
              </g>
              <g>
                <g>
                  <polygon class="cls-14" points="55.92 172.03 51.56 172.33 47.59 162.04 51.95 161.74 55.92 172.03"/>
                  <polygon class="cls-15" points="52.94 172.26 51.56 172.33 47.59 162.04 48.96 161.97 52.94 172.26"/>
                </g>
                <g>
                  <polygon class="cls-14" points="75.97 171.81 71.61 172.12 67.63 161.83 71.99 161.52 75.97 171.81"/>
                  <polygon class="cls-15" points="72.98 172.05 71.61 172.12 67.63 161.83 69 161.76 72.98 172.05"/>
                </g>
              </g>
              <g>
                <path class="cls-30" d="M80.7,166.13c.74,1.36,8.64,10.69,7,10.69l-48.16-1.56c-1.65,0-5.84-7.22-6.59-8.58l-10-19c-.75-1.37-.36-1.88,1.47-2.82l6.83-3.71,21.43,2.53A5.42,5.42,0,0,1,57,146.19Z"/>
                <path class="cls-16" d="M77.62,164.07c.74,1.36.73,5.73-.91,5.73l-29.41,1c-1.65,0-4.18-5.43-4.93-6.8L31.2,143.46c-.75-1.36,0-2.48,1.64-2.48L62.1,141a5.41,5.41,0,0,1,4.34,2.48Z"/>
              </g>
              <g>
                <path class="cls-30" d="M120.91,233.22c.72,1-3.21,3.16-4.48,3.24l-47.73,6c-1.26.08-6.19-3.6-6.75-4.73L32.29,177.54c-.56-1.14,9.17-7.28,10.44-7.29L74,175a5,5,0,0,1,3.62,1.89Z"/>
                <path class="cls-16" d="M126.57,229.21c.72,1,.27,2-1,2l-51.16,3.24a3.78,3.78,0,0,1-3.32-1.94L41.44,172.32a1.33,1.33,0,0,1,1.29-2.07l40.39-.5a4.93,4.93,0,0,1,3.61,1.89Z"/>
              </g>
              <g>
                <polygon class="cls-31" points="253.08 322.79 78.46 322.79 113.45 283.6 194.2 283.6 253.08 322.79"/>
                <path class="cls-32" d="M157.63,322.79s32.6-3.86,38.72-20.85c5.13-14.22-14.76-18.34-14.76-18.34H194.2l58.88,39.19Z"/>
              </g>
              <rect class="cls-33" x="66.54" y="315.7" width="188.75" height="7.43"/>
            </g>
            <g>
              <g>
                <path class="cls-34" d="M200.21,223l-8,22.68a9.37,9.37,0,0,1-2-.15,11.45,11.45,0,0,1-6.63-4.24s1.91-10.77,4.15-10.1,2.59,1.46,5.84-5.39c2-4.25,4.08-4.3,5.36-3.73A3.78,3.78,0,0,1,200.21,223Z"/>
                <path class="cls-35" d="M200.21,223l-8,22.68a9.37,9.37,0,0,1-2-.15c0-1.11.58-4.11,3.19-12.21,2.53-7.81,4.44-10.41,5.53-11.25A3.78,3.78,0,0,1,200.21,223Z"/>
                <ellipse class="cls-36" cx="195.94" cy="234.29" rx="12.13" ry="1.35" transform="translate(-90.77 339.57) rotate(-70.26)"/>
              </g>
              <path class="cls-37" d="M124.64,233.73s13.65,3.54,24.26-1.85L184.26,243s-.33-5.89,4.89-12.12l-28-13.31s-18.69-1.34-32-3.2S124.64,233.73,124.64,233.73Z"/>
            </g>
            <g>
              <g>
                <path class="cls-34" d="M197.68,224.64l-8,22.68a8.87,8.87,0,0,1-2-.14,11.5,11.5,0,0,1-6.63-4.24s1.91-10.78,4.16-10.11,2.58,1.46,5.83-5.38c2-4.25,4.09-4.31,5.36-3.74A3.94,3.94,0,0,1,197.68,224.64Z"/>
                <path class="cls-35" d="M197.68,224.64l-8,22.68a8.87,8.87,0,0,1-2-.14c.05-1.11.58-4.11,3.2-12.21,2.53-7.82,4.43-10.42,5.52-11.26A3.94,3.94,0,0,1,197.68,224.64Z"/>
                <ellipse class="cls-36" cx="193.41" cy="235.97" rx="12.13" ry="1.35" transform="translate(-94.03 338.3) rotate(-70.26)"/>
              </g>
              <path class="cls-38" d="M122.12,235.42s13.64,3.53,24.25-1.86l35.37,11.12s-.34-5.9,4.88-12.13l-28-13.3s-18.69-1.35-32-3.2S122.12,235.42,122.12,235.42Z"/>
            </g>
            <path class="cls-22" d="M121.87,192.72l6.82,8.26s8.59,6.56,14.14,7.74,2.78,3.37,2.78,3.37l-1.18.34-5.89.42s-16.08-3.12-21-12.21S118.75,191,121.87,192.72Z"/>
            <path class="cls-39" d="M106.46,178.32s3.36.26,7.57,4.89,8.26,7.07,10.11,9.51c0,0-1.77,3.12-6.65,3.29s-13-3.71-13-3.71l-1.1-9.51,3.29-2.78-.65-1.74"/>
            <path class="cls-39" d="M136.6,210.66a35.08,35.08,0,0,0-11.37,21.56l-.67,5.38s-14,.76-23-16.16a190.49,190.49,0,0,1-13-30.06s1.16-8.58,4.12-12.32A4.12,4.12,0,0,1,95,177.4a29.42,29.42,0,0,1,10.19.25s1.2-.54,3.79,2.09c.32.32.65.68,1,1.11,3.29,3.87,13.56,22.06,19,25.35S136.6,210.66,136.6,210.66Z"/>
            <path class="cls-40" d="M117.91,192.64s.76,2.61-7.75,6-12.46,4-12.46,4l2,2.61a40.62,40.62,0,0,0,12-3.62c5.22-2.78,7-3.46,8.17-6Z"/>
            <path class="cls-40" d="M109.23,180.85s-1.26,3.45-8.33,2.86c-5.54-.46-7.62-3.4-8.26-4.65A4.12,4.12,0,0,1,95,177.4a29.42,29.42,0,0,1,10.19.25s1.2-.54,3.79,2.09Z"/>
            <g>
              <path class="cls-22" d="M144.24,211.67a9.55,9.55,0,0,0,4.82,3.59s3.82,1.41,3.71-.33-2.81-1.13-3.26-3.65a15.63,15.63,0,0,0,5.56,1.23,7.06,7.06,0,0,1,4,3.93s.95,2,2.07.06a1.68,1.68,0,0,0,1.69-1.74s1.35.84.9-1.52-3-4.6-3-4.6a70,70,0,0,0-8.59.28,62.18,62.18,0,0,1-10.33-.06"/>
              <path class="cls-22" d="M161.13,216.5s.51-1.74-2.19-5.05"/>
              <path class="cls-22" d="M162.82,214.76a21.34,21.34,0,0,0-2.42-6.18"/>
            </g>
            <g>
              <path class="cls-22" d="M94.39,171.42s2.35,4.27-.9,7c0,0,7.18,6.18,14.14,1.68,0,0,1-.22-1.57-1.79,0,0-1.34-1.91,1.57-6.4S94.39,171.42,94.39,171.42Z"/>
              <g>
                <path class="cls-22" d="M108.1,142.37s.71,3.07,1.56,6,5.47,5.85,6.65,9.68a11.8,11.8,0,0,1-4.93,13.6c-5.68,3.62-20.21,4.42-27-7.87s-7.79-16.51-7.79-16.51l1.9-6s2.61-8,15.91-7.62S108.1,142.37,108.1,142.37Z"/>
                <path class="cls-41" d="M80.27,146.33s4.38,1.6,5,7.83,2.53,8.35,2.53,8.35l-1.35.4-2.19.68a6.74,6.74,0,0,0-5.39-4.13c-4-.33-9.6-6.57-5.14-17.77,0,0-5-6.14,4.13-12.54s36.37,4.12,36.37,4.12,4.3.76.76,5.73-7.33,3.54-7.33,3.54-7.83,1.34-9.17-2.36c0,0-4.47,1.85-8.26-.84C90.2,139.34,89.28,145,80.27,146.33Z"/>
                <g>
                  <path class="cls-42" d="M100.52,163.08l.74,1c.48.63,2.6,3,7.39,3.13,5.51.13,3.11-3.58,2.61-4.59l-.17-1.52s-2.75-1.58-7.47-.4-2.51,3.39-2.51,3.39"/>
                  <path class="cls-43" d="M100.77,162.41l.11.15c.48.63,2.6,3,7.39,3.13,5.51.13,3.11-3.58,2.61-4.59l-.17-1.51s-.63-.3-5.35.88-4.63,2.11-4.63,2.11"/>
                  <g>
                    <g>
                      <ellipse class="cls-44" cx="97.02" cy="153.27" rx="3.71" ry="3.92" transform="translate(-52.95 51.23) rotate(-23.43)"/>
                      <path class="cls-45" d="M100.46,151.78a4.42,4.42,0,0,1,.21,3,3.86,3.86,0,0,1-2,2.43,4,4,0,0,1-3.28.18A4.44,4.44,0,0,1,93,151.63a4,4,0,0,1,2.38-2.27,3.88,3.88,0,0,1,3.1.24A4.43,4.43,0,0,1,100.46,151.78Zm-.07,0a4,4,0,0,0-2-2.05,3.49,3.49,0,0,0-4.79,2.09,4,4,0,0,0,2.13,4.92,3.51,3.51,0,0,0,4.8-2.06A4,4,0,0,0,100.39,151.81Z"/>
                    </g>
                    <ellipse class="cls-41" cx="98.56" cy="151.85" rx="1.56" ry="1.93" transform="translate(-52.26 51.72) rotate(-23.43)"/>
                    <ellipse class="cls-44" cx="97.5" cy="150.57" rx="0.39" ry="0.48" transform="matrix(0.92, -0.4, 0.4, 0.92, -51.84, 51.19)"/>
                  </g>
                  <g>
                    <g>
                      <ellipse class="cls-44" cx="108.36" cy="150.84" rx="2.84" ry="3.92" transform="translate(-51.05 55.54) rotate(-23.43)"/>
                      <path class="cls-45" d="M111,149.69a5.55,5.55,0,0,1,.48,2.64,2.91,2.91,0,0,1-1.42,2.43,3.09,3.09,0,0,1-3-.25,5.13,5.13,0,0,1-2.27-5.24,3.11,3.11,0,0,1,1.87-2.35,2.9,2.9,0,0,1,2.74.62A5.45,5.45,0,0,1,111,149.69Zm-.06,0a4.88,4.88,0,0,0-1.64-2,2.34,2.34,0,0,0-3.87,1.69,4.94,4.94,0,0,0,.39,2.57,4.88,4.88,0,0,0,1.61,2,2.33,2.33,0,0,0,3.88-1.67A4.89,4.89,0,0,0,110.94,149.72Z"/>
                    </g>
                    <ellipse class="cls-41" cx="109.48" cy="149.6" rx="1.2" ry="1.93" transform="translate(-50.46 55.88) rotate(-23.43)"/>
                    <ellipse class="cls-44" cx="108.51" cy="148.27" rx="0.3" ry="0.48" transform="translate(-50.02 55.38) rotate(-23.43)"/>
                  </g>
                  <g>
                    <path class="cls-46" d="M104.86,154.37s2.65-1.27,4,.63-1.22,3-2.78,2.15"/>
                    <path class="cls-47" d="M104.84,154.33a3.52,3.52,0,0,1,2.4-.87,2.73,2.73,0,0,1,1.39.41,3.16,3.16,0,0,1,1,1.07,2,2,0,0,1,.17,1.67,1.89,1.89,0,0,1-1.19,1.09,2.44,2.44,0,0,1-2.53-.52l0-.07a2.58,2.58,0,0,0,2.25.06,1.42,1.42,0,0,0,.77-.79,1.34,1.34,0,0,0-.16-1.08,2.43,2.43,0,0,0-1.84-1.25,4.41,4.41,0,0,0-2.29.35Z"/>
                  </g>
                  <path class="cls-44" d="M100.86,162l.75,1s5.6-2.82,9.1-2.95l0,.38s.92-.25.29-2c0,0-1.14-1.13-5.68,1.1C105.28,159.55,101.7,160.3,100.86,162Z"/>
                  <path class="cls-42" d="M100.52,163.08s-.67-1.39,1.09-2.27,6.78-3.2,9.65-2.95l0,1.06s-.3-.76-2.11-.38-6.23,1.6-7.74,3.2A2.35,2.35,0,0,0,100.52,163.08Z"/>
                  <path class="cls-48" d="M105,165s.51-2.11,3.54-1.52a2.28,2.28,0,0,1,2.81,0S109.53,167,105,165Z"/>
                  <path class="cls-44" d="M105.14,165.16l5.93-1.62.61-.77a1.91,1.91,0,0,1-1.46,2.81,8.13,8.13,0,0,1-4.38-.2"/>
                  <path class="cls-41" d="M95.13,142.66a59.07,59.07,0,0,1-3.79,5c-1.73,1.94,3.79-.12,4.63-2.82s-1-2.1-1-2.1"/>
                  <path class="cls-41" d="M103.17,142.44s2.92,1.36,4.93,2.08-1.49,1.33-3.72-.26-1.12-1.86-1.12-1.86"/>
                </g>
                <g>
                  <path class="cls-22" d="M83.36,159.32c-1.5-1.08-3.37-2-5.24-1.32s-2.52,2.4-1.64,4.85,1.87,4.33,4.53,5.3,5.2.5,6.18-1.23"/>
                  <path class="cls-49" d="M86.38,166.21a1.68,1.68,0,0,1-1,.15,7.32,7.32,0,0,1-.94-.12,2.68,2.68,0,0,1-1.54-.9,2,2,0,0,1-.42-1.57,2.34,2.34,0,0,1,.37-.94l-.53-.42a15.72,15.72,0,0,0-1.5-1,3.78,3.78,0,0,0-1.68-.69,1.46,1.46,0,0,0-.91.23.81.81,0,0,0-.44.74.76.76,0,0,1,.35-.83,1.56,1.56,0,0,1,1-.35,3.84,3.84,0,0,1,1.86.66,11.42,11.42,0,0,1,1.47,1.09c.15.14.3.28.44.43a.46.46,0,0,1,.07.07c0,.06,0,.11-.07.17a2.38,2.38,0,0,0-.22.85,2,2,0,0,0,.46,1.4,2.5,2.5,0,0,0,1.35.86,6.26,6.26,0,0,0,.88.2A1.8,1.8,0,0,0,86.38,166.21Zm-5.31-.4c.61.2,1.27.33,1.93.48a10.66,10.66,0,0,1-2-.28,3.71,3.71,0,0,1-1.72-.91,2.58,2.58,0,0,1-.65-1.65,6,6,0,0,1,.22-1.78,12.44,12.44,0,0,0,0,1.73,2.68,2.68,0,0,0,.67,1.51A3.87,3.87,0,0,0,81.07,165.81Z"/>
                </g>
              </g>
            </g>
            <g>
              <g>
                <polygon class="cls-14" points="106.06 216.53 116 218.11 114.71 256.98 103.03 258.6 106.06 216.53"/>
                <polygon class="cls-6" points="115.96 218.1 118.77 218.55 118.42 256.45 114.67 256.98 115.96 218.1"/>
              </g>
              <g>
                <path class="cls-24" d="M135.29,219.55c-.22.79-.86,1.44-1.42,1.44H88.31c-.56,0-.83-.65-.6-1.44l1.2-4.22c.22-.8.86-1.45,1.41-1.45h45.57c.56,0,.82.65.6,1.45Z"/>
                <path class="cls-5" d="M137.88,219.55c-.23.79-.87,1.44-1.42,1.44H90.89c-.55,0-.82-.65-.6-1.44l1.2-4.22c.23-.8.86-1.45,1.42-1.45h45.56c.56,0,.83.65.6,1.45Z"/>
              </g>
            </g>
            <g>
              <path class="cls-22" d="M89.28,203.53s3.31,9.38,8.92,12.29c0,0,14.09,1.63,24.7-.44l6.68.05-3.92-5.05s-8-1.24-11.85-1.8-9.88-1.85-9.88-1.85l-3.76-6.23S97.53,202.8,89.28,203.53Z"/>
              <g>
                <path class="cls-22" d="M122.57,214.87s2.21,2.77,10.17,2.59a.47.47,0,0,1,.3.08,10.75,10.75,0,0,1,4.68,6.31s1.16,2.5,1.42-.94a.59.59,0,0,1,.59-.57c.33,0,.71-.33.87-2a.54.54,0,0,1,.49-.5c.42,0,1-.47,1-2.62a.49.49,0,0,0,0-.12h0c-.11-.56-.56-3.07,1-.46a3.46,3.46,0,0,0,3.88,1.64s1.1,0-1.69-3.58a.47.47,0,0,1-.11-.25c-.08-.48-.67-2.26-5.5-3.13-5.61-1-8.42,0-14.48-1"/>
                <path class="cls-22" d="M139.14,222.91s.62-3-2.09-6.92"/>
                <path class="cls-22" d="M140.52,221s.8-2.19-1.56-6.28"/>
                <path class="cls-22" d="M142,217.48a4.39,4.39,0,0,0-.8-3.58"/>
              </g>
              <path class="cls-22" d="M103.93,206.73s-2.36.17-3.54,3.42"/>
            </g>
            <path class="cls-39" d="M96.27,188.26l5.39,10.7s.84,1.34-6,3.87-9.52,0-9.52,0-2.61-7.92-1.43-15.5c0,0,1.69-7.07,7.5-8.25"/>
            <g>
              <path class="cls-50" d="M160.05,67.55s-.3-2.79,5.3-3.38,13.53,2.74,17.25,29.41,10.16,17,10.16,17-.52,12.58-13.43,3.12-12.07-39.2-17-42.47-1.78-3.79-1.78-3.79"/>
              <ellipse class="cls-51" cx="162.34" cy="73.13" rx="6.03" ry="6.63" transform="translate(-12.95 41.91) rotate(-14.15)"/>
              <g>
                <path class="cls-22" d="M168.09,121.28s.35,3.7,6.23,2.32,6.93-5.13,5.85-9a25.24,25.24,0,0,1-4.36-9.71C174.91,99.63,164.13,116,168.09,121.28Z"/>
                <g>
                  <path class="cls-22" d="M135.21,98.46s4.21,9.73,8.68,15.51,10.79,12.73,20,9.54,8.54-5.46,8.54-5.46,4.56-5.43,4.16-12S172,87.44,172,87.44s-5.81-15-15.25-13.85-22.13,13.65-22.13,13.65Z"/>
                  <g>
                    <g>
                      <g>
                        <g>
                          <ellipse class="cls-44" cx="158.09" cy="99.21" rx="4.59" ry="4.84" transform="translate(-19.46 41.66) rotate(-14.15)"/>
                          <path class="cls-45" d="M162.57,98.08a5.07,5.07,0,0,1-.36,3.66,4.77,4.77,0,0,1-2.85,2.51,4.87,4.87,0,0,1-4-.48,5.34,5.34,0,0,1-1.84-7.31,4.86,4.86,0,0,1,3.25-2.29,4.81,4.81,0,0,1,3.7.85A5.06,5.06,0,0,1,162.57,98.08Zm-.07,0a5,5,0,0,0-2.08-2.93,4.37,4.37,0,0,0-6.29,1.6,5,5,0,0,0,1.63,6.46,4.36,4.36,0,0,0,6.3-1.58A4.92,4.92,0,0,0,162.5,98.1Z"/>
                        </g>
                        <ellipse class="cls-41" cx="155.4" cy="101" rx="1.43" ry="2.01" transform="translate(-29.68 91.23) rotate(-30)"/>
                        <ellipse class="cls-44" cx="156.12" cy="100.65" rx="0.59" ry="0.62" transform="translate(-19.87 41.23) rotate(-14.15)"/>
                      </g>
                      <g>
                        <g>
                          <ellipse class="cls-44" cx="146.04" cy="105.29" rx="4.24" ry="4.84" transform="translate(-21.31 38.9) rotate(-14.15)"/>
                          <path class="cls-45" d="M150.19,104.24a5.39,5.39,0,0,1-.22,3.56,4.33,4.33,0,0,1-2.66,2.53,4.4,4.4,0,0,1-3.8-.61,5.61,5.61,0,0,1-1.8-7.13,4.48,4.48,0,0,1,3.06-2.34,4.32,4.32,0,0,1,3.54,1A5.28,5.28,0,0,1,150.19,104.24Zm-.07,0a5.24,5.24,0,0,0-1.91-2.89,4,4,0,0,0-3.34-.72,4,4,0,0,0-2.58,2.22,5.15,5.15,0,0,0-.29,3.44,5.21,5.21,0,0,0,1.89,2.89,3.83,3.83,0,0,0,5.92-1.48A5.28,5.28,0,0,0,150.12,104.26Z"/>
                        </g>
                        <ellipse class="cls-41" cx="143.58" cy="107.47" rx="1.16" ry="2.01" transform="matrix(0.87, -0.5, 0.5, 0.87, -34.5, 86.19)"/>
                        <ellipse class="cls-44" cx="144.08" cy="107.1" rx="0.55" ry="0.62" transform="translate(-21.81 38.48) rotate(-14.15)"/>
                      </g>
                    </g>
                    <path class="cls-52" d="M143.47,114.75a32.72,32.72,0,0,1,10-9.44s5.8-3.89,15-3.17a18.26,18.26,0,0,1,5.86,13.53,19.76,19.76,0,0,1-16.64,10.87S148.37,125.18,143.47,114.75Z"/>
                    <g>
                      <path class="cls-45" d="M148,114.65a31.85,31.85,0,0,1,3.88-3.16c1.37-.95,2.77-1.86,4.23-2.68a49.27,49.27,0,0,1,4.51-2.18,41.12,41.12,0,0,1,4.69-1.72c-1.56.59-3.11,1.19-4.63,1.87s-3,1.44-4.45,2.25-2.88,1.67-4.26,2.6A48.26,48.26,0,0,0,148,114.65Z"/>
                      <path class="cls-45" d="M153.53,115.85c1.61-1.12,3.25-2.14,4.9-3.18s3.32-2,5-3c-1.6,1.11-3.25,2.14-4.9,3.18S155.24,114.91,153.53,115.85Z"/>
                      <path class="cls-45" d="M156.13,119.47c.76-.34,1.5-.69,2.25-1s1.48-.72,2.2-1.12,1.44-.79,2.13-1.24a15.61,15.61,0,0,0,2-1.47,14.74,14.74,0,0,1-4,2.93A28.28,28.28,0,0,1,156.13,119.47Z"/>
                    </g>
                    <g>
                      <path class="cls-22" d="M173.25,91.39c.42-1.84,1.14-3.73,2.69-4s2.79,1,3.46,3.84,1,5.18-.23,7.52-3.06,3.21-4.56,2"/>
                      <path class="cls-49" d="M174.78,99.66a1,1,0,0,0,.68-.36,4,4,0,0,0,.54-.62,2.86,2.86,0,0,0,.53-1.67,3.11,3.11,0,0,0-.51-1.74,2.7,2.7,0,0,0-.71-.72c0-.23.08-.46.13-.69a17.64,17.64,0,0,1,.45-1.77,3.65,3.65,0,0,1,.72-1.55.84.84,0,0,1,.7-.25.77.77,0,0,1,.65.49.84.84,0,0,0-.64-.63,1,1,0,0,0-.84.21,3.47,3.47,0,0,0-.85,1.62,12.27,12.27,0,0,0-.39,1.82c0,.22-.05.44-.07.65a.41.41,0,0,1,0,.11l.13.12a3,3,0,0,1,.56.71,3.11,3.11,0,0,1,.42,1.6,2.94,2.94,0,0,1-.43,1.55,6,6,0,0,1-.47.65A1.13,1.13,0,0,1,174.78,99.66ZM178,96.48A17.34,17.34,0,0,1,177,98a8,8,0,0,0,1.16-1.35,3.76,3.76,0,0,0,.63-1.78,3.92,3.92,0,0,0-.41-1.94,7.89,7.89,0,0,0-1-1.61,15,15,0,0,1,.85,1.7,4,4,0,0,1,.33,1.81A4.2,4.2,0,0,1,178,96.48Z"/>
                    </g>
                  </g>
                </g>
              </g>
              <polygon class="cls-52" points="168.43 102.14 173.23 92.73 168.96 103.44 168.43 102.14"/>
              <path class="cls-41" d="M152.54,92s3.05-5.28,8.74-2.75c0,0-5.79-4-9.8,2.34Z"/>
              <path class="cls-41" d="M144,96s-6.15,1.51-5.74,8A7.61,7.61,0,0,1,144,94.81Z"/>
              <path class="cls-41" d="M142.33,84s19.65-5,30.9,8.71c0,0,3.8-3.35-2.42-15S147.92,62.27,136,74.45c0,0-17.09,11.9,4.33,34C140.28,108.42,129.88,95.36,142.33,84Z"/>
              <path class="cls-46" d="M142.63,84.66s-6-3.4-5.27-11.66c0,0-2.15,5.94,4.4,12Z"/>
            </g>
            <g>
              <g>
                <path class="cls-53" d="M117.07,161.91c0,.6-2,1.09-4.51,1.09s-4.51-.49-4.51-1.09-.53-1.27,4.68-1.32S117.07,161.31,117.07,161.91Z"/>
                <ellipse class="cls-54" cx="112.56" cy="161.12" rx="4.51" ry="1.09"/>
              </g>
              <path class="cls-53" d="M116.6,162l14.62.9,1-.76-15.07-.83S116.47,161.08,116.6,162Z"/>
            </g>
            <path class="cls-7" d="M196,131.19l-10,29.37s-8.68,5.17-31.4.37l-.74,13.67s33.8,7.58,47.29.19l8.31-30.12"/>
            <path class="cls-7" d="M186,160.56s3.88-.83,8.87,5.54"/>
          </g>
          <g>
            <g>
              <path class="cls-55" d="M17.74,205.42l-2.7-1V175.49A5.37,5.37,0,0,1,16,172c1.34-1.87,3.84-2.82,7.42-2.82s6.11.94,7.51,2.8A5.54,5.54,0,0,1,32,175.46v7.81h-2.7v-8a2,2,0,0,0-.47-1.18c-.5-.62-1.88-1.66-5.43-1.66s-4.84,1-5.31,1.63a1.76,1.76,0,0,0-.4,1.14l0,.16,0,1.11Zm0-30.28Z"/>
              <path class="cls-56" d="M16.85,205h-2.7V176.07a5.44,5.44,0,0,1,1-3.47c1.34-1.87,3.84-2.82,7.42-2.82s6.11.95,7.51,2.81A5.47,5.47,0,0,1,31.15,176v7.81h-2.7v-8a2,2,0,0,0-.47-1.18c-.5-.62-1.88-1.66-5.43-1.66s-4.84,1-5.31,1.63a1.76,1.76,0,0,0-.4,1.14l0,.16,0,.08Zm0-29.27Z"/>
            </g>
            <g>
              <g>
                <rect class="cls-57" x="39.99" y="204.37" width="8.39" height="0.76"/>
                <path class="cls-58" d="M37.77,192.87h12.8a0,0,0,0,1,0,0v5.23a6.4,6.4,0,0,1-6.4,6.4h0a6.4,6.4,0,0,1-6.4-6.4v-5.23a0,0,0,0,1,0,0Z"/>
              </g>
              <polygon class="cls-59" points="51.08 231.75 51.65 323.81 39.07 328.96 11.34 328.96 11.34 222.32 4.77 215.74 71.95 215.74 72.27 218.19 51.08 231.75"/>
              <polygon class="cls-60" points="59.69 215.74 38.85 229.37 38.85 328.96 11.34 328.96 11.34 222.32 4.77 215.74 59.69 215.74"/>
              <rect class="cls-55" x="1.11" y="204.97" width="73.45" height="13.21" rx="2.29"/>
              <path class="cls-61" d="M37.45,210.37v7.82H3.4a2.3,2.3,0,0,1-2.29-2.29v-5.53a3.24,3.24,0,0,1,3.24-3.24H34.21A3.24,3.24,0,0,1,37.45,210.37Z"/>
              <path class="cls-61" d="M37.58,215.77h37s1.27,1.53-2.29,2.42H35.67Z"/>
            </g>
          </g>
        </g>
      </g>
    </g>
  </g>
</svg>
