<svg id="Layer_1" data-name="Layer 1" xmlns="http://www.w3.org/2000/svg" width="222" height="615" viewBox="0 0 222 615">
  <defs>
    <style>
      .cls-1 {
        opacity: 0.3;
      }

      .cls-2, .cls-28 {
        fill: #f4c9ab;
      }

      .cls-2 {
        stroke: #965e38;
        stroke-width: 0.75px;
      }

      .cls-10, .cls-13, .cls-14, .cls-15, .cls-18, .cls-2, .cls-21, .cls-22, .cls-3, .cls-31, .cls-35, .cls-39, .cls-40, .cls-5, .cls-6, .cls-7, .cls-9 {
        stroke-miterlimit: 10;
      }

      .cls-3, .cls-9 {
        fill: #9e7732;
      }

      .cls-18, .cls-3, .cls-9 {
        stroke: #66491b;
      }

      .cls-4 {
        fill: #2e3544;
      }

      .cls-5 {
        fill: #495063;
        stroke: #262c3a;
      }

      .cls-13, .cls-14, .cls-18, .cls-21, .cls-6 {
        fill: none;
      }

      .cls-6, .cls-7 {
        stroke: #31374d;
      }

      .cls-7 {
        fill: #84837f;
      }

      .cls-8 {
        fill: #5e6575;
      }

      .cls-9 {
        stroke-width: 2px;
      }

      .cls-10 {
        fill: #6c0f07;
        stroke: #381c0d;
      }

      .cls-11 {
        fill: #c6d1d5;
      }

      .cls-12 {
        fill: #84622c;
      }

      .cls-13 {
        stroke: #38352c;
      }

      .cls-14, .cls-15, .cls-21 {
        stroke: #6d6c5c;
      }

      .cls-15 {
        fill: #f1d02b;
      }

      .cls-16 {
        fill: #5b5951;
      }

      .cls-17, .cls-39 {
        fill: #423850;
      }

      .cls-19 {
        fill: #dba47f;
      }

      .cls-20 {
        fill: #23220c;
      }

      .cls-21, .cls-35 {
        stroke-width: 0.5px;
      }

      .cls-22 {
        fill: #a17a36;
      }

      .cls-22, .cls-31 {
        stroke: #562516;
      }

      .cls-23 {
        fill: #ea9653;
      }

      .cls-24 {
        fill: #542d19;
      }

      .cls-25 {
        fill: #f7eee8;
      }

      .cls-26 {
        fill: #e07a5f;
      }

      .cls-27 {
        fill: #ad7b59;
      }

      .cls-29 {
        fill: #965e38;
      }

      .cls-30 {
        fill: #70501c;
      }

      .cls-31 {
        fill: #826029;
      }

      .cls-32 {
        fill: #13132d;
      }

      .cls-33 {
        fill: #d89f79;
      }

      .cls-34 {
        fill: #f4f42a;
      }

      .cls-35, .cls-37 {
        fill: #f9f4f4;
      }

      .cls-35 {
        stroke: #000;
      }

      .cls-36 {
        fill: #300909;
      }

      .cls-38 {
        fill: #211e18;
      }

      .cls-39 {
        stroke: #755f2f;
      }

      .cls-40 {
        fill: #dbccc3;
        stroke: #512e17;
      }
    </style>
  </defs>
  <g>
    <ellipse class="cls-1" cx="116.21" cy="595.08" rx="104.99" ry="18.68"/>
    <g>
      <g>
        <path class="cls-2" d="M160.84,314.05c3.74,7.1,6,28.21,7,27.67s5.82-4,4.08-13.22c0,0,7.06,7.17-.24,19.62-10.36,17.67,8.77.67,10.71-5.23s3.73-12.77.84-20.09c-2.35-5.94-8.12-13.71-8.12-13.71l-6.49-3.1-5,8.18"/>
        <g>
          <path class="cls-3" d="M146.56,155.17s-6.11,8.72-10.29,39.41S134,262.94,134,262.94s-.83,11.36,23.35,54.56l3.4-1.61,16.08-7.64s.4-5.95-5.41-17.25c-10.12-19.71-14.07-41.8-14.07-41.8l5.76-40.7S168.23,164.23,146.56,155.17Z"/>
          <path class="cls-3" d="M155.2,249.82s-8.17-5.25-12.27.82"/>
        </g>
        <g>
          <path class="cls-4" d="M31.49,587a16.33,16.33,0,0,0,0,6.55s8.41,5.75,31.84,4.52,22.51-6.48,22.51-6.48,4.1-.77,5-1.87L91,584Z"/>
          <path class="cls-5" d="M90.79,584.91s0,1.42-5.44,3.34c0,0-.92,2.34-10.09,3.06s-36.47.82-43.29-2.66c0,0-3.23-2.44,5.56-8.37a35.18,35.18,0,0,1,8.39-4,50.4,50.4,0,0,1,11.94-7.9L59,564.73l27.55-.89s5.36,2.13,3.51,7Z"/>
          <path class="cls-6" d="M42,577.86a43.22,43.22,0,0,1,20.33-2.64c10.79,1.42,16,15.32,16,15.32"/>
          <path class="cls-6" d="M57.28,568.79s2.57-1.72,12.42.62,19,6.26,20.27-2.33"/>
          <path class="cls-7" d="M86.54,563.84l-.22,8.51s-2.8,1.51-12.38-2.31c0,0-10.28-3.09-15.49-2l1.12-3.65,27.09-.9"/>
          <ellipse class="cls-8" cx="58.88" cy="579.55" rx="0.95" ry="7.17" transform="translate(-521.95 623.97) rotate(-88.57)"/>
        </g>
        <g>
          <path class="cls-4" d="M184.58,589.28a17.18,17.18,0,0,1-.33,6.53s-8.26,5.34-30.44,3-21-7.56-21-7.56-3.86-1-4.66-2.12l.15-5.72Z"/>
          <path class="cls-5" d="M128.4,584.33s0,1.42,5,3.59c0,0,.76,2.38,9.43,3.55s34.57,2.59,41.21-.55c0,0,3.18-2.29-4.87-8.64a33.36,33.36,0,0,0-7.77-4.39,48,48,0,0,0-11-8.47l-3.92-2.36-23.07-3.57s-5.19,1.87-3.68,6.84Z"/>
          <path class="cls-6" d="M175.08,579.66A39.34,39.34,0,0,0,155.91,576c-10.31.9-15.9,14.52-15.9,14.52"/>
          <path class="cls-6" d="M161,569.85s-2.37-1.85-11.82,0-18.88,6.68-19.65-2"/>
          <path class="cls-7" d="M133.46,563.49l-.21,8.51s2.58,1.64,11.86-1.71c0,0,7.16-2.29,12-.9l-.32-5.48-23.48-.74"/>
          <ellipse class="cls-8" cx="169.43" cy="580.23" rx="0.95" ry="6.77" transform="matrix(0.28, -0.96, 0.96, 0.28, -435.03, 582.19)"/>
        </g>
        <path class="cls-9" d="M161,564.86c-.54,3.14-6.09,4.26-6.09,4.26-6.19,3.26-14.52,2.7-20.81,1.07-5.32-1.36-9.18-3.51-9-4.76.3-2.72,5.15-3.24,5.15-3.24l-.47-.3a6.81,6.81,0,0,1-3.25-6.31,248.45,248.45,0,0,0,.26-39.5c-1-16.62-6.39-57.75-10.18-72.13s-13.59-73.7-15.39-84.46-3.54-6.19-3.54-6.19-.09,1.06-.26,2.94v0c-1,12.13-5,58.24-7.58,80.69-3,26-4.39,92.79-2.61,104.81s4.87,26,4.87,26-7.87,1.7-21.66.51-14.88-3.52-14.88-3.52c1-.75-.82-2.69-.36-3.54a8.52,8.52,0,0,0,.6-6.6c-1.8-13-1-8.6-.8-16.38s-4.86-33.1-4.11-44.85-3.46-44.9-3.88-55.84-11.4-61.19-10.75-96.49c.56-30.25,16.29-51.94,20.78-57.52.75-.93,1.18-1.42,1.18-1.42l83.06,3.76C153,303.4,160.06,333,160.06,333c6.85,39.27,2.49,81,1.95,103.94-.36,14.95-.66,24.24-1.53,55-.45,16-3.87,35.13-4.42,48a29.25,29.25,0,0,0,.35,6.57,28.81,28.81,0,0,1,.25,9.58C155.64,562.67,161.41,562.26,161,564.86Z"/>
        <g>
          <path class="cls-10" d="M143.77,286.56a28.37,28.37,0,0,1-5.39,1.86c-5.86,1.59-17.07,3.66-36.21,4.05-18.25.36-30.33-2.69-37.27-5.34a34.29,34.29,0,0,1-7.42-3.66s1.12-10.06,2-16.5,4-5.42,4-5.42l2.07.06,68.36,1.85c.59,0,1.15,0,1.68,0,7.3-.05,8.46,2,8.46,2C146.82,275.13,143.77,286.56,143.77,286.56Z"/>
          <g>
            <path class="cls-9" d="M75.89,265.64s-2.32,3.1-3.25,12.53-.33,13.23-.33,13.23,7.86,3.35,12.57,1.58c0,0-.79-16.57,1.66-24.87L75.2,265.47"/>
            <path class="cls-9" d="M132.69,264.79s2.16,3.2,2.62,12.67S135,290.7,135,290.7s-8,2.95-12.64.94c0,0,1.62-16.51-.41-24.92l11.45-2.07"/>
            <path class="cls-9" d="M64.9,287.13a34.29,34.29,0,0,1-7.42-3.66s1.12-10.06,2-16.5,4-5.42,4-5.42l2.07.06,1.47,3S64.7,271.11,64.9,287.13Z"/>
            <path class="cls-9" d="M143,286.86c4.47-8.4,2.61-19.45,1.25-21.27s-5-2.15-7.12-2.23-1.81.93-1.81.93,2.79-.57,3.14,5.91c.29,5.29,0,14.91-.1,18.22Z"/>
          </g>
        </g>
        <polygon class="cls-11" points="56.89 203.06 56.85 204.74 56.08 204.27 56.89 203.06"/>
        <path class="cls-3" d="M147.72,175.92l2,18.5c.6,22.08-3.23,29.56-3.23,29.56s-2.73,13.12-3.43,18-.37,15.09,0,18.89-4.85,5.23-4.85,5.23c-7.15,5-30.5,3.66-47.42,3.24s-27.42-4.05-28.53-5.55a9,9,0,0,0-2-2.09c-1-1.26-1.16-3.22-1-5a49.07,49.07,0,0,0-.45-12.05A234.57,234.57,0,0,0,48.2,205.26l1.07-1.13c7.52-29.34-4.6-46.78-4.6-46.78,6.43-3.83,18.41-8.47,18.41-8.47l.84-15.22,11.13-7.81,35,4.13s3.45.08,6.75,6.05l2,5.31,19.31,5.11"/>
        <path class="cls-12" d="M58.87,207.72c3.37,4.51,8.48,8.19,9.93,13.49a12.85,12.85,0,0,0,1,3c1.58,2.81,5.79,3.21,9.23,2.91a54.86,54.86,0,0,0,8.47-1.42,18.37,18.37,0,0,0,7.06-3c4-3.2,4.87-8.59,5.08-13.49.45-10.82-.74-21.65-1.8-32.44-.56-5.61-1.05-11.42,1-16.7.43-1.07,1.5-3.38,2.73-3.17s1.42,2.62,1.56,3.71c1.71,12.71,4.21,29.51,4.44,42.31.08,5,0,6,0,11,0,3.27-1.75,6.7-2.45,9.91-.58,2.7-1.66,5.28-2.36,8-3,11.57,1.3,23.69.73,35.59a3,3,0,0,1-.45,1.73c-.69.9-2.14,1-3.32.7a11.21,11.21,0,0,0-3.54-.64,130.61,130.61,0,0,0-1.33-29.62c-.29-1.85-.85-4-2.71-4.77a7.42,7.42,0,0,0-3.75-.13,62.55,62.55,0,0,1-18-.26,5.71,5.71,0,0,1-2.38-.77,5.26,5.26,0,0,1-1.58-2.3A81.52,81.52,0,0,0,54.8,212.78c-1.64-1.95-3.4-3.9-4.21-6.25-1.31-3.75-.3-9.15,1-12.79,2.17.58,3.36,2.76,4,4.47C56.66,200.88,57.11,205.37,58.87,207.72Z"/>
        <path class="cls-12" d="M52.06,215.79a138.37,138.37,0,0,1,7.39,32.89c.24,2.64.48,9.81-.06,10.39.63,3.86,7.12,8.16,17.31,8.46-2.37-1.13-7.75-6.16-7.79-8.59-.06-3.85,2.12-8.3,4.09-11.69,1.35-2.31,1-2.88,1.15-5.5a19.31,19.31,0,0,0-3.85-12.62L58.05,211.52,54,209.06l-1.93,6.73"/>
        <path class="cls-13" d="M63.14,146.31l7.49,25.41s9.51-21.05,21-16.19"/>
        <path class="cls-13" d="M118.78,141.34l5.84,19.74c-3.91-9.4-18.79-8.66-18.79-8.66,5.46-10.9,2-18.87,2-18.87"/>
        <path class="cls-13" d="M70.7,134.36S74,154,101.57,156.88l7-9.13"/>
        <path class="cls-13" d="M102.27,156.9s3,23.25,5,41.27-.4,23.16-3,30.82,1,16.73,1.67,23.21-.08,16.87-.08,16.87"/>
        <path class="cls-3" d="M119.31,214.55l15.33,8.57s9.28-5,11.51-11.22c0,0,1-13.68.78-24.1L116.62,191Z"/>
        <path class="cls-14" d="M127.74,195.37s2.48,18.19,1.63,24.63"/>
        <path class="cls-14" d="M140.74,193.48s3,18.84.06,25.07"/>
        <path class="cls-3" d="M116.46,190.36l30.83-3.18s2,4.56-.56,8.5c-1.95,3-8.26,9.36-11.17,11.55,0,0-10.33-2.79-17.23-8.95C116.79,196.9,117.78,192.21,116.46,190.36Z"/>
        <polygon class="cls-3" points="64.19 194.57 67.09 223.49 86.05 232.16 100.84 221.18 99.21 189.45 64.19 194.57"/>
        <polyline class="cls-3" points="99.02 196.86 91.52 203.22 83.67 209.87 64.76 199.47"/>
        <line class="cls-15" x1="93.63" y1="226.04" x2="91.52" y2="203.21"/>
        <line class="cls-15" x1="76.86" y1="205.76" x2="78.72" y2="228.19"/>
        <path class="cls-3" d="M146.93,157.87,141,144.66l-21.79-3.73,3.81,13.49S118.74,152,146.93,157.87Z"/>
        <ellipse class="cls-16" cx="127.24" cy="147.46" rx="2.34" ry="3.8" transform="translate(-31.72 260.01) rotate(-84.51)"/>
        <ellipse class="cls-16" cx="137.49" cy="149.11" rx="1.93" ry="3.14" transform="translate(-24.09 271.71) rotate(-84.51)"/>
        <path class="cls-17" d="M141.37,157.06s6.8,11.23,8.57,33.13-1.92,30.43-7.17,29.25l-3.06,3.5s4.86,10.21,10,3.19,7.08-23.47,4-42.67c-3.16-19.47-7-25-7-25Z"/>
        <path class="cls-18" d="M66,218.1s-7.26-6.64-10.2-20.43"/>
        <path class="cls-2" d="M110.59,141.76c-3,11.59-9.35,14.9-9.35,14.9-22.39-2.87-27.61-15-27.61-15,.63-3.8,1-7.05,1.18-9.6a62.42,62.42,0,0,0,.25-6.24s35.53-11.71,34.16,1.49a47.32,47.32,0,0,0-.2,10.06C109.45,141.25,110.59,141.76,110.59,141.76Z"/>
        <path class="cls-19" d="M108.53,137.82c-16.4,6.32-27.67-.7-33.21-5.16a27.44,27.44,0,0,0-.26-6.82s35.53-11.71,34.16,1.49C108.73,132.05,108.28,135.67,108.53,137.82Z"/>
        <g>
          <g>
            <path class="cls-20" d="M38.2,91.14s-10,3.54-10.46,13.19S37.47,120.55,46,119.71,61.4,112.32,62.48,106,39.13,91.17,39.13,91.17"/>
            <g>
              <path class="cls-21" d="M29.64,111.42S30.23,97,40.8,93.2"/>
              <path class="cls-21" d="M30.86,113.34s10.44-7.72,14.81-16.76"/>
              <path class="cls-21" d="M33.89,116.47s14.26.77,21.58-15.86"/>
              <path class="cls-21" d="M40.05,118.93s15.51,1.44,21.86-13"/>
              <path class="cls-21" d="M28.29,100.77s6.6,17.09,24.1,17.1"/>
              <path class="cls-21" d="M27.69,104.17S31.51,119.4,49,119.42"/>
              <path class="cls-21" d="M31.87,95.61s10.71,14,25.33,18.81"/>
              <path class="cls-21" d="M34.93,93.11s13,10.26,25.33,18.81"/>
              <path class="cls-21" d="M29.5,98.39s10.71,14,25.33,18.81"/>
            </g>
          </g>
          <path class="cls-2" d="M120.92,126.93s-8.21,8-18.35,8.38a49.21,49.21,0,0,1-44.25-24.23,85.29,85.29,0,0,1-8.48-22c-.22-1-.41-2-.57-3L44.6,75S64.83,57.65,96,53.7c0,0,18.57-3.22,30.46-2.22a20.52,20.52,0,0,1,7.33,1.69,40.33,40.33,0,0,0-.73,4.22,70.09,70.09,0,0,0-.59,8.26c-.08,4.33-1.79,11.62-.82,17.58C134.37,99.84,134.21,113.55,120.92,126.93Z"/>
          <path class="cls-19" d="M132.5,65.65l-.39.4a16.15,16.15,0,0,0-13.06-9.46c-33.36.74-63.3,16.54-63.3,16.54-3.39,4.8-3,18.21-3,18.21l0,.64-2.85-2.85c-.22-1-.41-2-.57-3L44.6,75S64.83,57.65,96,53.7c0,0,18.57-3.22,30.46-2.22l6.6,5.91A70.09,70.09,0,0,0,132.5,65.65Z"/>
          <path class="cls-22" d="M142.17,43.6c.74,4.91,1.28,7.6-5.47,11.69C133.84,57,126.14,49.87,122,50.83c-9.31,2.12-21.26,2.54-32.44,5.65S67.92,65.39,58.15,67.05C46.53,69,43.43,82.13,38.61,82c-19.07-.48-9.32-19.61,1.22-35C60.09,17.39,77,1.08,96.1,1.55S139.71,27.3,142.17,43.6Z"/>
          <path d="M94.19,72.6a20.76,20.76,0,0,0-4.85-4.37,14.24,14.24,0,0,0-9.41-2.46,32.85,32.85,0,0,0-3.44.35,20.05,20.05,0,0,0-3.35.85,7.17,7.17,0,0,0-2.94,1.8,7.28,7.28,0,0,1,2.73-2.27,20.19,20.19,0,0,1,3.32-1.38,34.75,34.75,0,0,1,3.48-.88A13.86,13.86,0,0,1,83.44,64a17.37,17.37,0,0,1,7.13,2.14,23.87,23.87,0,0,1,3.13,2,22.21,22.21,0,0,1,2.81,2.56Z"/>
          <path d="M111.58,68.4A16.59,16.59,0,0,1,114,66.76a18.64,18.64,0,0,1,2.56-1.2,14.35,14.35,0,0,1,5.53-1,11.53,11.53,0,0,1,5.3,1.4,14.07,14.07,0,0,1,2.26,1.46c.7.55,1.3,1.21,2,1.8-.73-.5-1.41-1.06-2.16-1.49a13.06,13.06,0,0,0-2.35-1.08,10.39,10.39,0,0,0-5-.59,12.44,12.44,0,0,0-4.64,1.52,15.77,15.77,0,0,0-2,1.35,13,13,0,0,0-1.75,1.59Z"/>
          <g>
            <path class="cls-23" d="M87.35,108.74s7.94,13.51,16.48,14.2S118.22,108,118.22,108,109.12,112.93,87.35,108.74Z"/>
            <path class="cls-24" d="M88.33,109.31s7,9.83,15.52,10.52,14.66-12.29,14.66-12.29S110.93,115.86,88.33,109.31Z"/>
            <path class="cls-25" d="M90.24,109.67s3.06,4.89,8.32,5.57,10.53,1.29,14.89-2.15l3.38-4.09A31.47,31.47,0,0,1,90.24,109.67Z"/>
            <path class="cls-23" d="M87.35,108.74s10.86,2.63,17.42,2.24,11.67-.73,14-4c0,0-3.79,6-15.15,5.53S87.35,108.74,87.35,108.74Z"/>
            <path class="cls-26" d="M97,117.3a6.49,6.49,0,0,1,5.87-.18s4-1.39,7.45.74C110.3,117.86,104.58,122.77,97,117.3Z"/>
            <path class="cls-27" d="M87.75,107.25s-2.56.25-1.26,3A3.34,3.34,0,0,1,87.75,107.25Z"/>
            <path class="cls-27" d="M118.94,108.68s1.83-1.55-1.11-3C117.83,105.66,119.4,107.11,118.94,108.68Z"/>
          </g>
          <g>
            <path class="cls-28" d="M109.76,80.42s-1.92,5.45,1.88,12.13c.28.5.57,1,.81,1.53l.72,1.51a3.6,3.6,0,0,1-1.77,4.81l-.1,0c-3.36,1.61-7.61,1-9-2.51"/>
            <path class="cls-29" d="M109.79,80.43a14.86,14.86,0,0,0,.29,7.91A17.34,17.34,0,0,0,111.63,92c.3.59.68,1.16,1,1.77l.89,1.83a3.88,3.88,0,0,1-.62,4.15,4.48,4.48,0,0,1-1.8,1.21,8.24,8.24,0,0,1-2,.57,7.78,7.78,0,0,1-2.1,0,5.7,5.7,0,0,1-2-.57,5.27,5.27,0,0,1-1.67-1.25,5.43,5.43,0,0,1-1-1.8l.07,0a5.77,5.77,0,0,0,1.13,1.61,5.08,5.08,0,0,0,1.63,1,6.84,6.84,0,0,0,3.8.27,8.76,8.76,0,0,0,1.84-.58,4,4,0,0,0,1.53-1,3.21,3.21,0,0,0,.62-3.39c-.26-.6-.55-1.23-.83-1.83s-.62-1.16-.92-1.78a17.93,17.93,0,0,1-1.48-3.8,15,15,0,0,1,0-8Z"/>
          </g>
          <path class="cls-20" d="M54.52,69.37s-5.25,12-1.63,24.13l-11-16Z"/>
          <path class="cls-30" d="M38.18,78.37a20.32,20.32,0,0,1,1.27-5.22c.3-.85.66-1.68,1-2.52s.79-1.63,1.22-2.43.87-1.6,1.33-2.38a16.28,16.28,0,0,1,1.78-2c1.24-1.29,2.45-2.6,3.77-3.8a97.6,97.6,0,0,1,8.12-6.84L61,50.09,65.4,47.2l-.32.24c.79-.67,1.46-1.15,2.2-1.69s1.46-1,2.21-1.47c1.48-.94,3-1.81,4.56-2.62a67.64,67.64,0,0,1,9.66-4.07A70.8,70.8,0,0,1,104.26,34a74,74,0,0,1,10.42.49,48.23,48.23,0,0,1,5.25.86,49.3,49.3,0,0,1,5.23,1.55,13.66,13.66,0,0,1,2.43,1.38A23.28,23.28,0,0,1,129.81,40a16.11,16.11,0,0,1,3.52,4.41,13.19,13.19,0,0,1,.9,10.42A12.56,12.56,0,0,0,131,46a13.43,13.43,0,0,0-3.56-2.72,22.38,22.38,0,0,0-2.06-.93L124.31,42a7.53,7.53,0,0,1-1.07-.38,31.69,31.69,0,0,0-9.13-2.18,68.78,68.78,0,0,0-9.73-.46,65.87,65.87,0,0,0-19.09,3.32,63.82,63.82,0,0,0-8.94,3.77q-2.14,1.11-4.19,2.4c-.67.43-1.34.87-2,1.33s-1.32,1-1.81,1.38l-.14.12-.18.12L63.8,54.22l-4.11,2.94A92,92,0,0,0,52,63.63c-1.25,1.13-2.37,2.35-3.52,3.54A13.9,13.9,0,0,1,46.84,69c-.64.54-1.26,1.1-1.9,1.65A39.61,39.61,0,0,0,38.18,78.37Z"/>
          <ellipse class="cls-31" cx="96.43" cy="24.83" rx="8" ry="6.97" transform="translate(69.21 120.61) rotate(-88.57)"/>
          <path class="cls-32" d="M42.86,79.8S54,66.52,98.37,56.81c0,0,20.92-3.16,35.37-.8,0,0-.42-6-2.93-7.17-4.42-2.06-66.42,3.65-91.66,27.61C39.15,76.45,37.77,80.73,42.86,79.8Z"/>
          <path class="cls-20" d="M119.6,55s12.21,2.2,12.8,13.25l4.3-13A59.4,59.4,0,0,0,119.6,55Z"/>
          <g>
            <g>
              <path class="cls-28" d="M50.51,87.35s-2.72-6.58-7.61-8.81S31.22,85,38,94.29s16.82,13.77,17.1,7.15"/>
              <path class="cls-29" d="M50.47,87.36a22.15,22.15,0,0,0-3.83-5.82A12.61,12.61,0,0,0,44,79.31a7.83,7.83,0,0,0-.75-.41,5.35,5.35,0,0,0-.78-.35,3.9,3.9,0,0,0-1.66-.14A5.16,5.16,0,0,0,37.85,80,7.88,7.88,0,0,0,36,82.81a10.48,10.48,0,0,0-.08,6.73,17,17,0,0,0,3.44,5.92,33.52,33.52,0,0,0,4.88,4.94A19.58,19.58,0,0,0,50.12,104a4.93,4.93,0,0,0,3.29.2,2.24,2.24,0,0,0,1.21-1.08,4.45,4.45,0,0,0,.45-1.66h.07a4.61,4.61,0,0,1-.33,1.75,2.57,2.57,0,0,1-1.26,1.3,5.3,5.3,0,0,1-3.58,0,19.74,19.74,0,0,1-6.19-3.5,34.46,34.46,0,0,1-5-5,17.91,17.91,0,0,1-3.44-6.22,11,11,0,0,1,.21-7.07,8.45,8.45,0,0,1,2-3A5.62,5.62,0,0,1,40.74,78a4.27,4.27,0,0,1,1.81.19,4.71,4.71,0,0,1,.82.38,7.37,7.37,0,0,1,.77.45,12.63,12.63,0,0,1,2.67,2.33,22.33,22.33,0,0,1,3.73,6Z"/>
            </g>
            <path class="cls-33" d="M39,87.28a12.54,12.54,0,0,1,2.06-3.48l0-.06.08,0a4.2,4.2,0,0,1,3,.42A7,7,0,0,1,46.46,86a8.73,8.73,0,0,1,2,5.54v.76l-.7-.31a3,3,0,0,0-1.71-.26,1.34,1.34,0,0,0-1.11.91c-.13.43.14.83.69,1a4.4,4.4,0,0,0,1.85.17,9.42,9.42,0,0,1,1.07,0,2,2,0,0,1,1.16.4,2.16,2.16,0,0,1,.63,2.18,2.33,2.33,0,0,1-1.45,1.6A2.65,2.65,0,0,1,46.83,98a2.75,2.75,0,0,0,2-.19,2,2,0,0,0,1.07-1.46,1.59,1.59,0,0,0-.54-1.56c-.4-.3-1.1-.18-1.77-.11a4.75,4.75,0,0,1-2.23-.12,2.24,2.24,0,0,1-1-.74A1.65,1.65,0,0,1,44,92.44a2.3,2.3,0,0,1,1.85-1.64,3.79,3.79,0,0,1,2.31.32l-.7.45a8.28,8.28,0,0,0-1.7-5,7,7,0,0,0-2-1.82,3.66,3.66,0,0,0-2.53-.54l.13-.07A14.42,14.42,0,0,0,39,87.28Z"/>
            <ellipse class="cls-34" cx="51.83" cy="101.1" rx="2.57" ry="2.82" transform="translate(-50.52 150.4) rotate(-88.57)"/>
          </g>
          <path class="cls-35" d="M94.27,85c-.14,5.6-5,8.09-11.08,7.94s-11-2.89-10.85-8.48,5.16-10,11.22-9.85S94.41,79.42,94.27,85Z"/>
          <g>
            <ellipse class="cls-36" cx="82.35" cy="83.64" rx="5.55" ry="6.01" transform="translate(-3.32 163.88) rotate(-88.57)"/>
            <ellipse class="cls-37" cx="85.83" cy="80.65" rx="1.4" ry="1.52" transform="translate(3.06 164.44) rotate(-88.57)"/>
          </g>
          <path class="cls-35" d="M129.41,84.35c-.13,5.35-4.28,7.54-9.46,7.41s-9.43-2.53-9.3-7.88a9.39,9.39,0,1,1,18.76.47Z"/>
          <g>
            <ellipse class="cls-36" cx="119.28" cy="83.94" rx="5.33" ry="5.35" transform="translate(32.39 201.1) rotate(-88.57)"/>
            <ellipse class="cls-37" cx="122.38" cy="81.06" rx="1.34" ry="1.35" transform="translate(38.3 201.39) rotate(-88.57)"/>
          </g>
          <path class="cls-20" d="M135.14,55.57s6.88,11.28-3.76,22.37l1.32-14.87"/>
        </g>
        <path class="cls-17" d="M87.84,181a138.18,138.18,0,0,0-21,3.76c-.43,1.27.29,4.35.65,5.57,8.37-1.6,18.55-2.94,27-4.08,1.42,0,1.37-2.87.7-4,0-2.54-2-1.88-3.69-1.56-.61.09-1.44.09-2,.16Z"/>
        <path class="cls-12" d="M134.06,570.19c-5.32-1.36-9.18-3.51-9-4.76.3-2.72,5.15-3.24,5.15-3.24l-.47-.3a6.81,6.81,0,0,1-3.25-6.31,248.45,248.45,0,0,0,.26-39.5c-1-16.62-6.39-57.75-10.18-72.13s-13.59-73.7-15.39-84.46-3.54-6.19-3.54-6.19-.09,1.06-.26,2.94A100.19,100.19,0,0,1,97.8,345c1.24-12.4,9.24,3.34,15.51,51.38s13.15,58.78,16.27,95.55A531.16,531.16,0,0,1,131,558.77l5.11,7S126.1,564.55,134.06,570.19Z"/>
        <path class="cls-12" d="M62.12,566.6s-.21-1.06-5.6-1.2c0,0-.9-3.72-.93-3.73,1.83-3.33,1.46-4.79,1.46-4.79-2.13-8.13-1.92-9.28-1.73-17s-5.26-34.7-4.51-46.45-3.06-46.1-3.48-57-11.8-60-11.15-95.29c.56-30.25,16.29-51.94,20.78-57.52l5.91,3.25s-10.93,26.91-6.35,93.09c4.53,65.4,4.4,83.18,3.46,103.89s2.93,50.93,2.93,50.93Z"/>
        <g>
          <path class="cls-38" d="M128.74,288.72a18,18,0,0,0,.63,5.55,25.09,25.09,0,0,0,.85,2.67c.32.88.74,1.71,1.11,2.57a35.46,35.46,0,0,0,6.54,9,67.65,67.65,0,0,0,8.55,7.19l4.65,3.14c1.61,1,3.22,1.93,4.8,3l0,.09c-1.72-.78-3.42-1.61-5.11-2.45s-3.25-1.94-4.87-2.92c-1.51-1.15-3.09-2.21-4.5-3.48l-2.1-1.93c-.72-.62-1.3-1.37-2-2.05a36.36,36.36,0,0,1-6.41-9.36c-.34-.88-.75-1.74-1-2.65a25.66,25.66,0,0,1-.76-2.73,17.85,17.85,0,0,1-.44-5.64Z"/>
          <path class="cls-38" d="M68.66,287.21a38.17,38.17,0,0,1-.7,14,32.9,32.9,0,0,1-6.07,12.7A31,31,0,0,1,57,319a14.84,14.84,0,0,1-1.41,1.1c-.48.34-.95.71-1.45,1-1,.61-2,1.27-3.08,1.78a43.88,43.88,0,0,1-13.44,4.24l0-.1a58.37,58.37,0,0,0,13-5,39.68,39.68,0,0,0,5.78-3.79,30.57,30.57,0,0,0,5-4.83,32.51,32.51,0,0,0,6.21-12.33,38.35,38.35,0,0,0,1.09-13.87Z"/>
          <path class="cls-38" d="M93.13,294.55,93,313.36l-.1,9.4c0,3.14-.09,6.27-.26,9.4l-.09-.29c1,1.31,2,2.61,2.89,3.95s1.9,2.66,2.81,4l-.07.06q-1.65-1.83-3.22-3.7c-1.07-1.24-2.09-2.51-3.13-3.77l-.09-.12v-.17c0-3.14.08-6.27.21-9.4l.37-9.4L93,294.55Z"/>
          <path class="cls-38" d="M107.63,294.91q.09,7.09.11,14.19c0,2.36.08,4.73,0,7.09s-.24,4.73-.57,7.08h-.1c-.25-2.37-.28-4.73-.33-7.1s.13-4.72.22-7.08q.25-7.09.59-14.18Z"/>
        </g>
        <g>
          <g>
            <path class="cls-2" d="M41.29,312.3l2.21,1.6a38.52,38.52,0,0,1,12.56,15.6c1.46,3.28,3.24,7.48,5.33,12.76,0,0,.53,8.11-11.83-4.29-.38-.38-.14-.54,0,0,1.06,3.83,5,12.89,9.39,20.67,0,0,.89,9-6,5.61,0,0-1.53,7.1-8,.1,0,0-1.57,5.58-7.44-.73,0,0-.28,4.13-6.62-3.76s-8.26-35.53-8.26-35.53"/>
            <g>
              <path class="cls-28" d="M53,364.25s-4.62-4.48-9.08-18.66"/>
              <path class="cls-29" d="M52.69,364.52a24.86,24.86,0,0,1-3-4.39,48.7,48.7,0,0,1-2.31-4.7c-.7-1.6-1.32-3.23-1.91-4.87l-.84-2.47-.77-2.5.86,2.47.92,2.43c.66,1.62,1.33,3.22,2.08,4.78a51.59,51.59,0,0,0,2.46,4.58,24.22,24.22,0,0,0,3,4.13Z"/>
            </g>
            <g>
              <path class="cls-28" d="M45.91,365.1s-4.37-4.07-7.12-17.85"/>
              <path class="cls-29" d="M45.65,365.38A18,18,0,0,1,43,361.19a36.84,36.84,0,0,1-1.83-4.52c-.53-1.53-1-3.1-1.36-4.67l-.54-2.37-.47-2.38.56,2.36L40,352c.46,1.55,1,3.09,1.53,4.59a37.86,37.86,0,0,0,2,4.4,18,18,0,0,0,2.67,3.89Z"/>
            </g>
            <g>
              <path class="cls-28" d="M38.24,363.88s-4-2.45-6.15-16.15"/>
              <path class="cls-29" d="M38,364.2a7.11,7.11,0,0,1-1.53-1.76,15.64,15.64,0,0,1-1.08-2,28.34,28.34,0,0,1-1.56-4.14c-.42-1.41-.76-2.84-1-4.27s-.52-2.89-.73-4.34c.28,1.44.56,2.88.91,4.29s.75,2.83,1.23,4.21a28.76,28.76,0,0,0,1.7,4,13.56,13.56,0,0,0,1.12,1.83,6.93,6.93,0,0,0,1.38,1.5Z"/>
            </g>
          </g>
          <g>
            <g>
              <path class="cls-3" d="M38.89,158.06s-8.92,7.06-20.08,36.1S2.18,260.59,2.18,260.59s-1.78,16.5,17.6,64.73l23.89-12.81s.91-2.79-3.55-15.29c-7.78-21.78-7.86-44.39-7.86-44.39l15.05-38.47S62.33,172.24,38.89,158.06Z"/>
              <path class="cls-3" d="M32.26,252.83s-9.87-5.67-14.51.27"/>
            </g>
            <path class="cls-39" d="M20.63,188.87l6.65,4.69-7.47,19.58-8.17,4.24S11.86,201.51,20.63,188.87Z"/>
          </g>
        </g>
        <path class="cls-3" d="M66.53,159.32a34.75,34.75,0,0,0-11,3.17A29.74,29.74,0,0,0,47.29,168l-1.48,1.38s-4.19-7.14-7.37-11.32c0,0,6.13-7.1,24.67-10.53h0Z"/>
        <ellipse class="cls-16" cx="59.89" cy="152.23" rx="3.58" ry="2.23" transform="translate(-33.96 18.24) rotate(-13.53)"/>
        <ellipse class="cls-16" cx="49.35" cy="156.6" rx="3.66" ry="2.28" transform="translate(-35.27 15.89) rotate(-13.53)"/>
      </g>
      <path class="cls-40" d="M90.82,269.38v23.36l2.78.42a68.51,68.51,0,0,0,24.31-.74l1.44-.3-.1-22.65S103.94,269.22,90.82,269.38Z"/>
    </g>
  </g>
</svg>
