<svg xmlns="http://www.w3.org/2000/svg" xmlns:xlink="http://www.w3.org/1999/xlink" width="273" height="512" viewBox="0 0 273 512">
  <defs>
    <style>
      .cls-1 {
        mask: url(#mask);
        filter: url(#luminosity-noclip-2);
      }

      .cls-12, .cls-2, .cls-8 {
        mix-blend-mode: multiply;
      }

      .cls-2 {
        fill: url(#linear-gradient);
      }

      .cls-3 {
        isolation: isolate;
      }

      .cls-4 {
        fill: #cca9ff;
        stroke: #323232;
        stroke-width: 3px;
      }

      .cls-10, .cls-4, .cls-7 {
        stroke-miterlimit: 10;
      }

      .cls-5 {
        mask: url(#mask-2);
      }

      .cls-6 {
        fill: url(#linear-gradient-2);
      }

      .cls-10, .cls-7 {
        stroke: #111;
      }

      .cls-7 {
        fill: url(#linear-gradient-3);
      }

      .cls-8 {
        fill: #424242;
        opacity: 0.5;
      }

      .cls-9 {
        fill: #e2413e;
      }

      .cls-10 {
        stroke-width: 0.75px;
        fill: url(#linear-gradient-4);
      }

      .cls-11, .cls-13 {
        fill: #fff;
      }

      .cls-11 {
        opacity: 0.2;
      }

      .cls-12 {
        fill: #202020;
        opacity: 0.4;
      }

      .cls-13 {
        opacity: 0.7;
      }

      .cls-14 {
        filter: url(#luminosity-noclip);
      }
    </style>
    <filter id="luminosity-noclip" x="129.16" y="-8448" width="113.98" height="32766" filterUnits="userSpaceOnUse" color-interpolation-filters="sRGB">
      <feFlood flood-color="#fff" result="bg"/>
      <feBlend in="SourceGraphic" in2="bg"/>
    </filter>
    <mask id="mask" x="129.16" y="-8448" width="113.98" height="32766" maskUnits="userSpaceOnUse">
      <g class="cls-14"/>
    </mask>
    <linearGradient id="linear-gradient" x1="119.75" y1="-26.33" x2="119.75" y2="66.15" gradientTransform="translate(108.45 115.07) rotate(45)" gradientUnits="userSpaceOnUse">
      <stop offset="0" stop-color="#4d4d4d"/>
      <stop offset="1" stop-color="#fff"/>
    </linearGradient>
    <filter id="luminosity-noclip-2" x="129.16" y="149.73" width="113.98" height="113.98" filterUnits="userSpaceOnUse" color-interpolation-filters="sRGB">
      <feFlood flood-color="#fff" result="bg"/>
      <feBlend in="SourceGraphic" in2="bg"/>
    </filter>
    <mask id="mask-2" x="129.16" y="149.73" width="113.98" height="113.98" maskUnits="userSpaceOnUse">
      <g class="cls-1">
        <path class="cls-2" d="M211.48,181.38A180.31,180.31,0,0,0,168,149.73L129.16,226.5l18.6,18.6,18.61,18.61,76.77-38.87A180.47,180.47,0,0,0,211.48,181.38Z"/>
      </g>
    </mask>
    <linearGradient id="linear-gradient-2" x1="119.75" y1="-26.33" x2="119.75" y2="66.15" gradientTransform="translate(108.45 115.07) rotate(45)" gradientUnits="userSpaceOnUse">
      <stop offset="0" stop-color="#fff9de"/>
      <stop offset="1" stop-color="#ffeb99"/>
    </linearGradient>
    <linearGradient id="linear-gradient-3" x1="91.2" y1="144.3" x2="143.9" y2="144.3" gradientTransform="translate(109.36 117.26) rotate(45)" gradientUnits="userSpaceOnUse">
      <stop offset="0" stop-color="#4f4f4f"/>
      <stop offset="1" stop-color="#424242"/>
    </linearGradient>
    <linearGradient id="linear-gradient-4" x1="90.03" y1="69.48" x2="145.07" y2="69.48" gradientTransform="translate(212.83 131.96) rotate(90)" xlink:href="#linear-gradient-3"/>
  </defs>
  <g class="cls-3">
    <g id="Layer_1" data-name="Layer 1">
      <g>
        <rect class="cls-4" x="3.32" y="133.77" width="266.35" height="244.47" rx="8.77"/>
        <g>
          <g class="cls-5">
            <path class="cls-6" d="M211.48,181.38A180.31,180.31,0,0,0,168,149.73L129.16,226.5l18.6,18.6,18.61,18.61,76.77-38.87A180.47,180.47,0,0,0,211.48,181.38Z"/>
          </g>
          <path class="cls-7" d="M163.74,262.11l-16.49-16.49-16.5-16.5a3,3,0,0,0-4.27,0l-27,27c-4.63,4.63-7.16,21.49-7.16,21.49l-67,67a4.42,4.42,0,0,0,0,6.26l8.34,8.34L42,367.55a4.44,4.44,0,0,0,6.27,0l67-67s16.86-2.53,21.5-7.17l27-27A3,3,0,0,0,163.74,262.11Z"/>
          <path class="cls-8" d="M33.65,359.22,42,367.55a4.44,4.44,0,0,0,6.27,0l67-67s16.86-2.53,21.5-7.17l27-27a3,3,0,0,0,0-4.28l-16.49-16.49-16.5-16.5a3,3,0,0,0-4.27,0l-6.21,6.21,21.58,30.82L125.1,282.7l-15.63,8.76S50,341.84,30.6,356.17Z"/>
          <ellipse class="cls-9" cx="87.45" cy="305.42" rx="8.82" ry="5.05" transform="translate(-190.35 151.29) rotate(-45)"/>
          <rect class="cls-10" x="137.11" y="221.99" width="12.48" height="55.04" rx="1.31" transform="translate(-134.45 174.45) rotate(-45)"/>
          <polygon class="cls-8" points="106.95 303.93 45.48 365.4 37.29 357.21 50.26 352.43 106.95 303.93"/>
          <path class="cls-11" d="M122.3,244.27l-17.64,17.64C102.86,263.7,101,279,101,279l26.48-26.48Z"/>
          <polygon class="cls-11" points="94.33 282.73 28.71 348.63 97.43 287.2 94.33 282.73"/>
          <rect class="cls-8" x="122.53" y="231.95" width="9.3" height="2.78" transform="translate(-127.75 158.27) rotate(-45)"/>
          <rect class="cls-8" x="126.57" y="235.99" width="9.3" height="2.78" transform="translate(-129.42 162.32) rotate(-45)"/>
          <rect class="cls-8" x="130.62" y="240.04" width="9.3" height="2.78" transform="translate(-131.1 166.36) rotate(-45)"/>
          <rect class="cls-8" x="134.66" y="244.08" width="9.3" height="2.78" transform="translate(-132.77 170.4) rotate(-45)"/>
          <rect class="cls-8" x="138.7" y="248.12" width="9.3" height="2.78" transform="translate(-134.45 174.45) rotate(-45)"/>
          <rect class="cls-8" x="142.75" y="252.17" width="9.3" height="2.78" transform="translate(-136.12 178.49) rotate(-45)"/>
          <rect class="cls-8" x="146.79" y="256.21" width="9.3" height="2.78" transform="translate(-137.8 182.53) rotate(-45)"/>
          <rect class="cls-8" x="150.83" y="260.25" width="9.3" height="2.78" transform="translate(-139.47 186.58) rotate(-45)"/>
          <rect class="cls-8" x="154.88" y="264.3" width="9.3" height="2.78" transform="translate(-141.15 190.62) rotate(-45)"/>
          <path class="cls-12" d="M89.89,306.92l-4-3.95a1,1,0,0,1,0-1.39h0a1,1,0,0,1,1.4,0l4,3.95a1,1,0,0,1,0,1.39h0A1,1,0,0,1,89.89,306.92Z"/>
          <path class="cls-12" d="M87.56,309.25l-4-3.95a1,1,0,0,1,0-1.39h0a1,1,0,0,1,1.4,0L89,307.86a1,1,0,0,1,0,1.39h0A1,1,0,0,1,87.56,309.25Z"/>
          <path class="cls-12" d="M93.27,303.35,81.4,307.09c-.51,1.57-.41,3,.42,3.8,1.61,1.61,5.35.47,8.36-2.54A11.61,11.61,0,0,0,93.27,303.35Z"/>
          <path class="cls-13" d="M161,231.89c-8.64-8.65-12.33-20.61-11.3-32.95l-14.46,28.57,15.07,15.07,15.08,15.08,28.57-14.47C181.59,244.23,169.62,240.54,161,231.89Z"/>
        </g>
      </g>
    </g>
  </g>
</svg>
