<svg id="Layer_1" data-name="Layer 1" xmlns="http://www.w3.org/2000/svg" xmlns:xlink="http://www.w3.org/1999/xlink" width="475" height="512" viewBox="0 0 475 512">
  <defs>
    <style>
      .cls-1, .cls-16 {
        fill: none;
      }

      .cls-2 {
        fill: #32223f;
      }

      .cls-3 {
        fill: #9edbd5;
        stroke: #6f31f7;
        stroke-width: 9px;
      }

      .cls-10, .cls-11, .cls-12, .cls-13, .cls-16, .cls-18, .cls-27, .cls-3, .cls-30, .cls-31, .cls-5, .cls-6, .cls-7 {
        stroke-miterlimit: 10;
      }

      .cls-4 {
        clip-path: url(#clip-path);
      }

      .cls-5 {
        fill: #351a1a;
      }

      .cls-5, .cls-6 {
        stroke: #301a1a;
      }

      .cls-6 {
        fill: #140808;
      }

      .cls-14, .cls-7 {
        fill: #829383;
      }

      .cls-13, .cls-7 {
        stroke: #233323;
      }

      .cls-11, .cls-16, .cls-7 {
        stroke-width: 2px;
      }

      .cls-8 {
        fill: #556356;
      }

      .cls-9 {
        fill: #5a7362;
      }

      .cls-10, .cls-24 {
        fill: #f2bd91;
      }

      .cls-10 {
        stroke: #9b4343;
      }

      .cls-11, .cls-13 {
        fill: #63573b;
      }

      .cls-11, .cls-12, .cls-16, .cls-30, .cls-31 {
        stroke: #281c1c;
      }

      .cls-12 {
        fill: #869ba9;
      }

      .cls-15 {
        fill: #233323;
      }

      .cls-17, .cls-18 {
        fill: #32383f;
      }

      .cls-18 {
        stroke: #14191e;
      }

      .cls-19 {
        fill: #030303;
      }

      .cls-20 {
        fill: #fff;
      }

      .cls-21 {
        fill: #330e0e;
      }

      .cls-22 {
        fill: #fcf5f5;
      }

      .cls-23 {
        fill: #1e0909;
      }

      .cls-25 {
        fill: #752a2a;
      }

      .cls-26 {
        fill: #2c3137;
      }

      .cls-27 {
        fill: #7f7373;
        stroke: #511717;
      }

      .cls-28 {
        fill: #281c1c;
      }

      .cls-29 {
        fill: #9b4343;
      }

      .cls-30 {
        fill: #897a7a;
      }

      .cls-31 {
        fill: #5b5151;
      }
    </style>
    <clipPath id="clip-path">
      <path class="cls-1" d="M304.31,38H170.69A93.8,93.8,0,0,0,89.47,84.9L22.67,200.61a93.74,93.74,0,0,0,0,93.78L89.47,410.1A93.8,93.8,0,0,0,170.69,457H304.31a93.8,93.8,0,0,0,81.22-46.9l66.8-115.71a93.74,93.74,0,0,0,0-93.78L385.53,84.9A93.8,93.8,0,0,0,304.31,38Z"/>
    </clipPath>
  </defs>
  <g>
    <g>
      <path class="cls-2" d="M306.76,50.75H168.24A93.78,93.78,0,0,0,87,97.65l-69.26,120a93.79,93.79,0,0,0,0,93.78L87,431.35a93.78,93.78,0,0,0,81.22,46.9H306.76A93.78,93.78,0,0,0,388,431.35l69.26-120a93.79,93.79,0,0,0,0-93.78L388,97.65A93.78,93.78,0,0,0,306.76,50.75Z"/>
      <path class="cls-3" d="M306.76,33.75H168.24A93.78,93.78,0,0,0,87,80.65l-69.26,120a93.79,93.79,0,0,0,0,93.78L87,414.35a93.78,93.78,0,0,0,81.22,46.9H306.76A93.78,93.78,0,0,0,388,414.35l69.26-120a93.79,93.79,0,0,0,0-93.78L388,80.65A93.78,93.78,0,0,0,306.76,33.75Z"/>
    </g>
    <g class="cls-4">
      <g>
        <g>
          <g>
            <path class="cls-5" d="M152.67,86.65l27,184.72L171.86,323l8.24,71.16,33,4.34L197.89,289.16l-32.25-199,7.52-8.83L154.64,84A2.33,2.33,0,0,0,152.67,86.65Z"/>
            <ellipse class="cls-6" cx="159.11" cy="84.65" rx="6.64" ry="2.27" transform="translate(-11.47 26.49) rotate(-9.19)"/>
          </g>
          <path class="cls-7" d="M309.42,544.17,306.49,547l-2.86,2.71c-6.21,3.39-15.78,3.75-24,3.23A119.63,119.63,0,0,1,264,550.82c-10.41-8.39-11.28-11.28-10.71-24,.07-1.4.05-3.6,0-6.41-.22-7-.85-17.7-1.61-29.19-.89-13.27-1.95-27.56-2.78-38.33v0c-.78-10.16-1.35-17.17-1.35-17.17l-4.63,5.5s-1.89,12.1-4.29,26.9c-3.06,18.8-7,42-8.86,50.26-.16.72-.31,1.33-.45,1.82-2.89,10.41-.58,5.21-1.73,12.44-.06.36-.13.72-.22,1.1-1.67,7.22-9,17.43-31,18h0c-23.14.58-34.71-17.65-29.79-20.25s4.33-9.55,4.33-9.55l.48-5.22,6-66.62,2.79-47.35s11.86-42.81,65.38-38.76,56.12,43.4,56.12,43.4l1.16,36.45-.86,3.75,5.19,32.58,1.17,7.35c-3.18,24.59,3.47,33.84,7.23,43.39S309.42,544.17,309.42,544.17Z"/>
          <path class="cls-8" d="M238.59,468.08c-3.06,18.8-7,42-8.86,50.26a19.38,19.38,0,0,0-2.44-.37c-6.6-1-11-9.13-8.19-15.18,1.47-3.16,4.5-5.69,4.89-9.16.33-3.07-1.52-5.9-2.42-8.87a14.79,14.79,0,0,1,0-8.44c.48-1.6,10.76-6.9,12.55-7.48A10.65,10.65,0,0,1,238.59,468.08Z"/>
          <path class="cls-8" d="M273.4,464.67c-.81,1.07-1.95,1.88-2.68,3-1.54,2.39-.86,5.49-.36,8.28s.61,6.13-1.58,7.94c-2.71,2.23-9.46,3.86-12.87,5.62a28.89,28.89,0,0,1-3.45,1.68c-.89-13.27-2-27.56-2.78-38.33v-.31a3.83,3.83,0,0,1,.2-1.94,3.08,3.08,0,0,1,1.75-1.16c2.36-.87,5.32-1.64,7.17.09.81.75,1.2,1.85,1.94,2.68,2.41,2.72,7,1.43,10.28,2.95A6.58,6.58,0,0,1,273.4,464.67Z"/>
          <path class="cls-8" d="M308.6,544.17,305.67,547c-2.41,1.23-5.41,1.87-7.54.28-2.78-5.91,7.68-11.84,5.26-17.92-1.29-3.26-5.65-4.27-7.35-7.35s-.17-6.73,1.6-9.67,3.9-6,3.49-9.45c-.81-6.69-10.83-10-10.28-16.72.29-3.48,3.63-6.07,7.06-6.68a20,20,0,0,1,8.36.68l1.17,7.35c-3.18,24.59,3.47,33.84,7.23,43.39S308.6,544.17,308.6,544.17Z"/>
          <path class="cls-9" d="M176.53,398.78s4.05,26.62,61.33,34.14c0,0,10.42-1.74,15.62-19.1a46.64,46.64,0,0,0,16.2,20.25l23.72-5.2,4.44,14.62,3.09-3.05.68-33.11S268,345,239.6,376.22s.55-3.28.55-3.28Z"/>
          <g>
            <path class="cls-10" d="M313.32,393.16a12.75,12.75,0,0,1-.14,7.95c-1.45,4.78-2.32,6.37.58,14.32s-1.31,10.13,1.59,12.59c0,0,5.93.72,7.52-3.47a25.42,25.42,0,0,1-1,9.69s-3.76,3.76-1,5.64,4.92-2,8.54-7.67,5.06-9.83,4.77-17.93-2.75-26.76-6.07-34.86S313.32,393.16,313.32,393.16Z"/>
            <path class="cls-10" d="M323,425.41a117.82,117.82,0,0,1-.72-13"/>
          </g>
          <g>
            <path class="cls-10" d="M166.12,396.44s3-.14,10.78,9.29a23.41,23.41,0,0,1,4.93,11.08,18.71,18.71,0,0,0,4.16,8.94s5.4,8.87-4.44,5.79l-8.49-5.69s-1.44,15.72,1.74,21.69c0,0-.87,5.79-7.14,1.45,0,0-1.06,3.28-5.78.39,0,0-2.51,2.89-6.37-2.41,0,0-6.26-.29-8.39-8.49s-2.79-27.29,1.26-38.28S166.12,396.44,166.12,396.44Z"/>
            <path class="cls-10" d="M161.88,449.38s-5-5.69-6.94-19.19"/>
            <path class="cls-10" d="M155.51,447s-2.12-2.22-4.24-11.29"/>
            <path class="cls-10" d="M169.11,449.67s-2.31.29-4.15-7.14a80.66,80.66,0,0,1-2.12-14.08"/>
            <line class="cls-10" x1="172.97" y1="426.91" x2="173.35" y2="421.12"/>
          </g>
          <path class="cls-7" d="M332.85,390a35.5,35.5,0,0,1-20,5.79s-1.81-6-4.62-14.46C304,368.43,297.42,350,291.48,338.77c-9.83-18.51-11-127,5.21-129,0,0,9.83-2.32,14.75,19.67s11.28,66.25,13.6,84.47c.23,1.79.49,4,.77,6.43h0c1.16,10.25,2.72,25.51,4.07,39.14.52,5.19,1,10.14,1.42,14.49C332.22,383.38,332.85,390,332.85,390Z"/>
          <path class="cls-7" d="M185,287l-10,43.1-3.11,48.14-.48,7.43-.84,13c-9.55,6.08-22.86,3.77-22.86,3.77s-.75-3.65-1.79-10.08l-.06-.39q-.27-1.69-.57-3.66c-.31-2.08-.64-4.36-1-6.83h0c-1-7.65-2.09-17.08-2.9-27.74-.59-7.86-1-16.38-1.23-25.36a306.39,306.39,0,0,1,1.6-39.94c.87-7.94,2.06-15.29,3.51-22.13,1.05-4.93,2.23-9.59,3.53-14,.32-1.1.65-2.19,1-3.25,1.57-5,3.29-9.7,5.13-14.11a67.74,67.74,0,0,1,6.5-12.65c4.92-7.05,7.38-4.13,7.38-4.13C193.7,236.94,185,287,185,287Z"/>
          <g>
            <path class="cls-8" d="M171.88,378.23l-.48,7.43-.84,13c-9.55,6.08-22.86,3.77-22.86,3.77s-.75-3.65-1.79-10.08l-.06-.39q-.27-1.69-.57-3.66c-.31-2.08-.64-4.36-1-6.83h0a11.57,11.57,0,0,1,1.06-1,16,16,0,0,1,6.21-3,13,13,0,0,1,5.92-.51c2,.39,3.81,1.55,5.74,2.31s4.26,1.05,5.93-.17c.55-.4,1-1,1.71-1.07A1.29,1.29,0,0,1,171.88,378.23Z"/>
            <path class="cls-8" d="M332.85,390a35.5,35.5,0,0,1-20,5.79s-1.81-6-4.62-14.46c5.3-.36,10.59-2,13.77-6.07A8,8,0,0,1,324.1,373a5.48,5.48,0,0,1,4.25-.09A22.74,22.74,0,0,1,331.3,374C332.22,383.38,332.85,390,332.85,390Z"/>
            <path class="cls-8" d="M154.56,326.14c-1.94,3-5.21,5-6.52,8.33-1.87,4.7.81,10.47-1.61,14.9a11.35,11.35,0,0,1-5,4.35c-.59-7.86-1-16.38-1.23-25.36a306.39,306.39,0,0,1,1.6-39.94,8.62,8.62,0,0,1,.82,1c2.13,2.87,4.34,5.91,4.8,9.46.23,1.73,0,3.52.46,5.2,1,3.74,4.66,6,6.75,9.26A12,12,0,0,1,154.56,326.14Z"/>
            <path class="cls-8" d="M168.19,242.28c.19,3.18-2.74,5.84-5.84,6.59s-6.33.11-9.49-.3a4.53,4.53,0,0,0-2.71.24,1.52,1.52,0,0,0-.34.22c1.57-5,3.29-9.7,5.13-14.11a67.74,67.74,0,0,1,6.5-12.65A17,17,0,0,0,162,226c1.36,4.47,3.59,8.86,5.35,13.2A10,10,0,0,1,168.19,242.28Z"/>
            <path class="cls-8" d="M319.1,359.81c.93-3.67,1.85-7.35,2.78-11-1.47,1.59-4.41.31-5.11-1.75s.12-4.29,1-6.26,1.93-4.06,1.65-6.21c-.46-3.53-4.22-5.8-5.2-9.23a6.3,6.3,0,0,1,9.65-6.91,8.76,8.76,0,0,1,1.92,1.88h0c1.16,10.25,2.72,25.51,4.07,39.14Z"/>
          </g>
          <path class="cls-7" d="M190.81,363.07s-15.62,22-19.1,36.45c0,0,32.4,28.93,65.09,28.93,0,0,15.34-13.31,16.2-55.25l1.45-.29s-.87,34.71,15.33,52.07c0,0,23.44-3.76,34.43-12.15,0,0,2.6-24.3-14.18-50.05C290,362.78,194,343.69,190.81,363.07Z"/>
          <g>
            <path class="cls-11" d="M187.05,333.27s-2,1.45.29,5.5c0,0-.19,5.91-.19,12.73,0,5.35.09,11.26.47,15.33,0,0,26.58,9.33,67.7,9l1.45,0s30.08-2.6,36.16-7.81l2.89-3.76a84.66,84.66,0,0,1,.58-20.83c1.73-11.57-.58-13.6-6.37-10.41S187.05,333.27,187.05,333.27Z"/>
            <path class="cls-7" d="M214.24,341.66s-4.92,16.49-1.74,31.83l-9.83-2s-4.34-17.07,3.47-31.53Z"/>
            <path class="cls-7" d="M282.51,338.86s3.45,17.34,1.22,33.47l6.9-2.13s3.05-17.95-2.43-33.16Z"/>
            <g>
              <path class="cls-12" d="M238.23,348.13s.76,17.73,1.92,24.81a55.37,55.37,0,0,0,32.18-1.34l-2.36-26Z"/>
              <g>
                <ellipse class="cls-12" cx="255.76" cy="356.87" rx="4.63" ry="4.44" transform="translate(-24.27 18.71) rotate(-4)"/>
                <path class="cls-12" d="M245.06,353.17s-.44,10.28,10.61,10.67l.65,6.52-3.2-4.22S240.5,365.28,245.06,353.17Z"/>
                <path class="cls-12" d="M265.16,351.84s1.86,10.11-9,12l.26,6.56L259,365.8S271.36,363.2,265.16,351.84Z"/>
              </g>
            </g>
          </g>
          <path class="cls-7" d="M294.17,205.49l-24.3-8.68s-26.62-15-53.23-2.31-37.9,15.62-46.57,23.43c0,0,24.29,21.41,19.09,68.85,0,0-4.63,28.93.58,41.08l3.18,9.26a43.82,43.82,0,0,0,9.19,3.73c7.83,2.43,21,5.17,40.71,5.33,4.77,0,9.92-.07,15.48-.38,6.44-.36,11.89-.91,16.51-1.59,29.17-4.33,24.86-14,24.86-14s3.92-15,6.43-32.23c1.41-9.65,2.37-20,1.95-28.81,0,0,1.35-5.38-5-29.1"/>
          <path class="cls-8" d="M238.79,341.56a15.92,15.92,0,0,1-1,4.25c-19.72-.16-32.87-2.9-40.7-5.33a4.28,4.28,0,0,1,1-1A10.47,10.47,0,0,1,203,325c5.4-2.31,12,0,15.84,4.48a14.37,14.37,0,0,0,2.84,3c4,2.61,9.92-1.23,14,1.24C238.3,335.18,239.06,338.59,238.79,341.56Z"/>
          <path class="cls-8" d="M282,235.67a83.92,83.92,0,0,0-17.31-3.82,10,10,0,0,0,5.11,12.06c-3.25.51-6.64-.09-9.82.76-6.77,1.81-10.27,11-6.43,16.84,1.27,1.95,3.21,3.63,3.52,5.93.48,3.56-3.14,6.28-6.51,7.5s-7.29,2-9.36,4.94c-2.83,4-.24,10.06,4.06,12.47s9.55,2.19,14.44,1.64c4.18-.47,8.7-1.31,11.45-4.48,2.56-3,2.91-7.22,2.69-11.13-.2-3.4-.72-6.89.18-10.18s3.79-6.37,7.19-6.12c2,.14,3.78,1.36,5.76,1.29,3.84-.14,5.79-4.84,5.64-8.68A19.73,19.73,0,0,0,287,241.82Z"/>
          <path class="cls-8" d="M294.66,329.8s4.31,9.7-24.85,14a6.16,6.16,0,0,1,0-2c.74-4.35,5.68-6.84,10.09-6.78.52-2.12-2.44-3.23-3.7-5a4.82,4.82,0,0,1,.21-5.26,10.85,10.85,0,0,1,4.31-3.46c2-1,4.23-2,4.95-4.1a6.34,6.34,0,0,0,.2-2.71c-.46-4.93-2.7-10.48.3-14.43,2.16-2.86,6.24-3.46,9.82-3.15,1.7.15,3.41.45,5.11.65C298.59,314.81,294.66,329.8,294.66,329.8Z"/>
          <path class="cls-7" d="M164.19,219.78s-3.08,9.83,12,14.85l20.25-17,2.31-8.67-12-3.67S174.22,213.41,164.19,219.78Z"/>
          <rect class="cls-13" x="195.63" y="252.18" width="31.24" height="8.29" transform="translate(-18.4 16.34) rotate(-4.25)"/>
          <path class="cls-7" d="M282.42,202.23l-6.95,2.31,6.95,9.84,21.6,5s3.08-6.36-1.55-11.19Z"/>
          <g>
            <path class="cls-7" d="M267,262.78s-1.55,6.37-.58,18.9-1.16,14.28,6.94,17.55,21,0,22.57-7.13c0,0,1.35-38.77-3.28-33s-1,.19-1,.19Z"/>
            <path class="cls-7" d="M265.83,262.4a102.94,102.94,0,0,1,27.77-4.63s4,10.41-11,12.15S265.83,262.4,265.83,262.4Z"/>
            <circle class="cls-7" cx="281.64" cy="264.71" r="3.09"/>
            <g>
              <line class="cls-14" x1="282.03" y1="272.04" x2="282.99" y2="297.88"/>
              <path class="cls-15" d="M282.13,272a32.23,32.23,0,0,1,1.57,6.41c.2,1.07.27,2.15.4,3.22s.14,2.15.21,3.23,0,2.15,0,3.23,0,2.16-.17,3.24a32.3,32.3,0,0,1-1.08,6.51h-.2L282.31,285l-.38-12.92Z"/>
            </g>
          </g>
          <g>
            <path class="cls-7" d="M231.69,267.8a73.31,73.31,0,0,1,2.44,19.63c.05,11.9,2.6,13.31-6.24,17.27s-23.71,2.29-26.1-4.26c0,0-5-36.35.71-31.41s1.1.08,1.1.08Z"/>
            <path class="cls-7" d="M232.08,267.22a307,307,0,0,0-34.72.39s.3,10.5,17.43,10.5S232.08,267.22,232.08,267.22Z"/>
            <ellipse class="cls-7" cx="215.41" cy="273.1" rx="3.5" ry="2.92" transform="translate(-25.19 21.91) rotate(-5.5)"/>
            <g>
              <line class="cls-14" x1="215.64" y1="280.04" x2="216.89" y2="304.48"/>
              <path class="cls-15" d="M215.74,280a29.12,29.12,0,0,1,1.63,6c.21,1,.3,2,.44,3s.17,2,.25,3.05.07,2,.06,3.06,0,2-.12,3.07a29.83,29.83,0,0,1-1,6.18h-.2l-.73-12.22-.52-12.22Z"/>
            </g>
          </g>
          <path class="cls-7" d="M171.33,211.87s3.08-4.63,10.8-5.4c0,0,21.21,29.7,16.58,72.32-3.83,35.3-9.93,51.11-25.55,75L175,330.09s12.94-29.13,12.15-64.22C186.56,240.22,179.24,218.43,171.33,211.87Z"/>
          <path class="cls-16" d="M245.48,248.51s9.75,34.48,8.23,96.82"/>
          <g>
            <path class="cls-17" d="M214.91,206.08s-1.73,9.65,14.66,24.11,17.75,27.58,17.75,27.58-4.25-8.68,15.42-28.16L266.22,202l-6.37-7.9S215.11,191.23,214.91,206.08Z"/>
            <path class="cls-18" d="M263.13,207.24c0,10.23-10.53,18.52-23.53,18.52s-23.53-8.29-23.53-18.52,9.38-24.88,22.37-24.88S263.13,197,263.13,207.24Z"/>
            <path class="cls-10" d="M262.17,197.79c0,10.23-10.54,18.51-23.53,18.51s-23.53-8.28-23.53-18.51,9.37-24.88,22.37-24.88S262.17,187.56,262.17,197.79Z"/>
            <g>
              <path class="cls-7" d="M213.18,181.2s-9.84,10.23-10,37l10.41-4.43-6,10.8s23.14,8.87,36.64,24.68c0,0-2.12-10.8-18.13-27.57s-6.56-39.35-6.56-39.35Z"/>
              <path class="cls-7" d="M257.15,187.38S261,194.7,261,212.06c0,0-15.62,31.05-13.89,40.5,0,0,14.08-22.37,32-30.66l-10.61-8.1,10.22-1.16s-6.36-21.6-19.28-32.21C259.47,180.43,256,178.5,257.15,187.38Z"/>
            </g>
          </g>
          <g>
            <path class="cls-10" d="M198.76,111.1s4.63,50.63,10.13,63.21,21.41,21.12,38.18,18.95,26.33-22.57,28.07-34,6.65-50.34-12.59-56.7S199.49,100.54,198.76,111.1Z"/>
            <path class="cls-19" d="M196.3,157s1.59,12.44,10.85,17.94l2.46.87L205,152.18S195.58,151.6,196.3,157Z"/>
            <path class="cls-10" d="M276.44,137.14s1.3-9.26,6.65-6.51,5.21,19.52-5.78,22.42C277.31,153.05,275.28,141.62,276.44,137.14Z"/>
            <path class="cls-10" d="M189.94,135s-6.65,4.05.14,18.37c0,0,5.36,8.24,10.13,5.78s3.47-12.87,3.47-12.87l-2.46-15.62Z"/>
            <g>
              <path class="cls-7" d="M283.61,108.77a38.19,38.19,0,0,1-.78,6.47c-1.56,7.44-3.79-2.4-14.64-4-12.08-1.77-20.87-1.15-36.45-1.15-19.43,0-45.71,17.21-47.3,15.18a16.17,16.17,0,0,1-3-7.51c-.73-4.55-.24-9.69.3-14.33a53.47,53.47,0,0,1,7.19-21.54A47,47,0,0,1,206.15,65.1a54.94,54.94,0,0,1,25-6.8c19-.78,32.92,3.46,41.68,14A37.27,37.27,0,0,1,277.25,79c3.18,6.06,5.23,13.54,6.13,22.58A51,51,0,0,1,283.61,108.77Z"/>
              <path class="cls-8" d="M270.7,72.94a4.71,4.71,0,0,1-.65.45c-3.4,2.11-7.77,1.28-11.36-.43s-6.85-4.23-10.58-5.55c-1.55-.55-3.35-.85-4.74.07-1.67,1.1-2.07,3.48-2.11,5.57,0,2.92.26,5.86-.13,8.75s-1.61,5.85-4,7.35c-2.21,1.41-5,1.3-7.53,1a21.79,21.79,0,0,1-7.58-2.17c-4.2-2.25-7.1-6.55-9.14-11-1.63-3.59-2.81-7.4-4.27-11.08a48.83,48.83,0,0,1,23.27-6.71C249.57,58.32,262.54,62.51,270.7,72.94Z"/>
              <path class="cls-8" d="M202.94,96.24a11.86,11.86,0,0,1-6.39,6.51,27.19,27.19,0,0,1-9.05,2,5.11,5.11,0,0,0-2.44.62,1.75,1.75,0,0,0-.69,2.22c.32.51.95.71,1.46,1,1.87,1.18,2,4.11.79,6a8.67,8.67,0,0,1-4.51,3.15c-.73-4.55-.25-9.69.29-14.33a54.13,54.13,0,0,1,7.09-21.54,32.44,32.44,0,0,0,3.68,1.35,25.21,25.21,0,0,1,5.91,2.11A9.51,9.51,0,0,1,202.94,96.24Z"/>
              <path class="cls-8" d="M281.94,108.77a23.13,23.13,0,0,1-2.5,0c-4.4-.25-9.07-.83-12.51-3.76-4.64-3.94-5.64-11.62-2.86-17.2a16,16,0,0,1,4.83-5.68c1.8-1.33,4.54-2.93,7.07-3.11,3,6.06,4.91,13.54,5.75,22.58A54.14,54.14,0,0,1,281.94,108.77Z"/>
            </g>
            <g>
              <g>
                <g>
                  <ellipse class="cls-20" cx="229.57" cy="137.06" rx="9.11" ry="9.31"/>
                  <path class="cls-21" d="M229.57,146.47a9.15,9.15,0,0,1-3.58-.67,9.81,9.81,0,0,1-3.14-2,10.13,10.13,0,0,1-3.34-6.78,10.52,10.52,0,0,1,2.46-7.64,10.21,10.21,0,0,1,3.4-2.55,10.83,10.83,0,0,1,4.2-.92,10.62,10.62,0,0,1,4.2.93,10.21,10.21,0,0,1,3.4,2.55,10.59,10.59,0,0,1,2.46,7.63,10.2,10.2,0,0,1-3.34,6.78A9.83,9.83,0,0,1,229.57,146.47Zm0-.2a8.91,8.91,0,0,0,6.39-2.75,9.31,9.31,0,0,0,0-12.89,8.86,8.86,0,0,0-12.7,0,9.3,9.3,0,0,0,0,12.89A8.87,8.87,0,0,0,229.57,146.27Z"/>
                </g>
                <ellipse cx="227.99" cy="135.54" rx="5.52" ry="5.34"/>
                <ellipse class="cls-22" cx="231.23" cy="132.97" rx="1.33" ry="1.29"/>
              </g>
              <g>
                <g>
                  <ellipse class="cls-20" cx="263.71" cy="136.34" rx="8.24" ry="9.31"/>
                  <path class="cls-21" d="M263.71,145.75a8.59,8.59,0,0,1-6.26-2.82,10.85,10.85,0,0,1-2.94-6.59,11,11,0,0,1,2-7.38,9.49,9.49,0,0,1,3.1-2.69,9.07,9.07,0,0,1,4.1-1,9.23,9.23,0,0,1,4.1,1A9.57,9.57,0,0,1,270.9,129a11.07,11.07,0,0,1,2,7.38,10.82,10.82,0,0,1-2.94,6.59A8.55,8.55,0,0,1,263.71,145.75Zm0-.2a7.74,7.74,0,0,0,5.9-2.92,10,10,0,0,0,0-12.56,7.47,7.47,0,0,0-11.72,0,10,10,0,0,0,0,12.56A7.73,7.73,0,0,0,263.71,145.55Z"/>
                </g>
                <ellipse cx="262.26" cy="135.11" rx="4.99" ry="5.34"/>
                <ellipse class="cls-22" cx="265.27" cy="133.16" rx="1.2" ry="1.29"/>
              </g>
              <path d="M235.94,123.54s3.76-3.33-.73-6.22-14.9,1.45-16.05,6.65A36.33,36.33,0,0,1,235.94,123.54Z"/>
              <path d="M257.11,123.18s-3.39-3.33.66-6.22,13.43,1.44,14.47,6.65A29.66,29.66,0,0,0,257.11,123.18Z"/>
              <path d="M241.58,153.91a85.68,85.68,0,0,0-11,4.49s-4.33,1.16-5.35-3.18c0,0-3.18,6.36,4.05,9.11s21.41-3.47,21.41-3.47,3.33,3.61,10.85,2.6,8.82-7.38,5.5-9.11c0,0-2.17,4.63-13.31-.29,0,0-3.91-2.46-12.88-.15"/>
              <path class="cls-23" d="M233.71,164.71a8.62,8.62,0,0,0,3.21.9,33.24,33.24,0,0,0,3.32.22c1.11,0,2.22,0,3.35,0s2.25-.05,3.38-.11,2.28-.07,3.41-.14,2.25-.12,3.37-.17A26.9,26.9,0,0,0,257,165a7.58,7.58,0,0,0,1.54-.42,2.18,2.18,0,0,0,.67-.37,1.12,1.12,0,0,0,.46-.59l.19,0a1.89,1.89,0,0,1-.9,1.55,6.79,6.79,0,0,1-1.56.86,18.48,18.48,0,0,1-3.4.95,53,53,0,0,1-7,.76,42.39,42.39,0,0,1-7-.31,19.45,19.45,0,0,1-3.44-.78,6.71,6.71,0,0,1-3-1.79Z"/>
              <path class="cls-23" d="M240.76,170.72c1.41.28,2.6.5,3.74.66.58,0,1.12.15,1.67.16.28,0,.54,0,.81.06h.81a11,11,0,0,0,1.62-.06l.84,0a6,6,0,0,1,.86-.1l.44,0,.45-.08.93-.11a16.92,16.92,0,0,1,2-.21l.11.16c-.56.33-1.1.69-1.67,1a14.71,14.71,0,0,1-1.78.77,11.66,11.66,0,0,1-3.83.72,11.3,11.3,0,0,1-7.17-2.73Z"/>
              <g>
                <path class="cls-24" d="M255.57,124.26s-.09.17-.23.47a27.41,27.41,0,0,0-.71,21.38c1.62,4.2,2.89,10.17-2.36,11.28C244,159.12,241,152.61,241,152.61"/>
                <path class="cls-25" d="M255.66,124.31a34,34,0,0,0-1.42,11.79,30.18,30.18,0,0,0,.88,5.71c.25.92.5,1.85.83,2.75s.74,1.9,1.06,2.94a18.27,18.27,0,0,1,.68,3.29,9.82,9.82,0,0,1-.19,3.67,5.83,5.83,0,0,1-2.36,3.39,7.14,7.14,0,0,1-3.59,1.09,12.52,12.52,0,0,1-3.4-.14,10.45,10.45,0,0,1-3.18-1.2,9.34,9.34,0,0,1-4.06-4.95l.18-.08a9.48,9.48,0,0,0,4.32,4.08,10.18,10.18,0,0,0,5.92.73,6.11,6.11,0,0,0,2.79-.95,4.09,4.09,0,0,0,1.56-2.42,12,12,0,0,0-.58-5.93c-.29-1-.66-1.91-1-2.89s-.59-2-.82-3a28,28,0,0,1-.62-6.12,27.17,27.17,0,0,1,2.82-11.88Z"/>
              </g>
            </g>
            <path class="cls-19" d="M212.36,118.19s-6.65,5.06-5.06,24.15l-2.9.73s-4.34-12-12.87-8.1c0,0-3.62,2.17-4.19,4.91,0,0-4.05-6.07-2-12.44,0,0,8.53-4.77,26.9-9.69"/>
            <path class="cls-23" d="M269.78,115.44s7.81,1.45,13,5.64l-.43,9.4s-3.33-1-5.64,5.06Z"/>
            <path class="cls-26" d="M196.74,121.66l6.94-1.74s2.6,40.94,7.09,53.67,23.72,17.79,32.25,17.64,23.58-5.2,29.22-25.17.73-50.19.73-50.19l4.77,2.46s2.6,32.26-2.75,49.62-18.51,23.43-18.51,23.43,1.44,3.61-2.75,4.48-16.06,3.47-21.12-1.59a40.37,40.37,0,0,1-16.35-8s-7.66-2.9-10.84-19.68S196.74,121.66,196.74,121.66Z"/>
            <path class="cls-27" d="M183.29,129.76s18.22-14.32,67.26-15.48c0,0,20.39-.14,32.25,6.8,0,0,2.75,1,3.33-4.34s-16.49-14.75-51.5-13.31S169,123.11,183.29,129.76Z"/>
            <path class="cls-28" d="M189.32,142.46a4.5,4.5,0,0,1,2-2.44,3.22,3.22,0,0,1,1.77-.27,4.35,4.35,0,0,1,1.62.69c.22.16.45.33.66.51l.57.58c.37.39.67.76,1,1.16a15.63,15.63,0,0,1,1.75,2.61,4.21,4.21,0,0,1,.48,1.81,2.25,2.25,0,0,1-.34,1.17,2.32,2.32,0,0,1-.83.75,7.21,7.21,0,0,1-1.51.57,4.29,4.29,0,0,0-1.06.57,1.45,1.45,0,0,0-.43,2,7.18,7.18,0,0,0,1.8,2.19l0,.08a6.66,6.66,0,0,1-2.2-2,2.07,2.07,0,0,1,.34-2.78,4,4,0,0,1,1.26-.82,8.27,8.27,0,0,0,1.36-.57,1.24,1.24,0,0,0,.68-1.13,3.31,3.31,0,0,0-.4-1.37,15.79,15.79,0,0,0-1.6-2.47,11.41,11.41,0,0,0-2-2.19,5.81,5.81,0,0,0-.61-.4,5.6,5.6,0,0,0-.68-.26,2.65,2.65,0,0,0-1.42.1,4.6,4.6,0,0,0-2.07,2Z"/>
            <g>
              <path class="cls-24" d="M284,135.54s-3.47.44-4,7.09"/>
              <path class="cls-29" d="M284,135.59a6.9,6.9,0,0,0-1.34,1.54,11.22,11.22,0,0,0-.89,1.68c-.3.57-.52,1.2-.81,1.83a14,14,0,0,1-1,2h-.1a19.35,19.35,0,0,1,.3-2.16,10.74,10.74,0,0,1,.67-2.08,6,6,0,0,1,1.23-1.81,3.89,3.89,0,0,1,1.89-1.09Z"/>
            </g>
          </g>
          <path class="cls-30" d="M171.4,385.66l-.84,13c-9.55,6.07-22.86,3.76-22.86,3.76s-1.07-5.19-2.42-14.13A49,49,0,0,0,171.4,385.66Z"/>
          <g>
            <path class="cls-7" d="M190.23,449.67s2.7,32.4-3.47,45.13c0,0-4.25,5-10.42,3.27,0,0-9.25-1.73-12.15-10.41,0,0,5.6-5.79,5.79-25.84,0,0-2.32-12.15,7.71-12.73s-.38,1-.38,1l7.71,2.89Z"/>
            <path class="cls-28" d="M182.76,460.66c.26,1.55.34,3.12.46,4.7s.08,3.14.06,4.72a71.28,71.28,0,0,1-.89,9.43,45.72,45.72,0,0,1-2.65,9.14,28,28,0,0,1-2.28,4.21,16.48,16.48,0,0,1-3.2,3.51l-.07-.07a22.59,22.59,0,0,0,4.82-7.93,49.59,49.59,0,0,0,2.4-9,85.15,85.15,0,0,0,1.09-9.3c.2-3.12.27-6.25.16-9.37Z"/>
            <path class="cls-7" d="M177.31,442.34s4.63,8.48,13.69,6.94c0,0-1.35,13.89-11,17.36s-14.08-6.75-10.8-14.08S177.31,442.34,177.31,442.34Z"/>
            <ellipse class="cls-31" cx="175.86" cy="458.44" rx="2.41" ry="3.76"/>
          </g>
          <g>
            <path class="cls-7" d="M298,444.27s-.39,12.15,2.12,31.24,10.61,28.16,11,9.45S305,446.77,305,446.77Z"/>
            <path class="cls-7" d="M297.84,443.49s4.25,0,4.83-3.08c0,0,13.11,11.38,10.41,16s-.38,1-.38,1-10,6.17-13.12-2.51S297.84,443.49,297.84,443.49Z"/>
            <ellipse class="cls-31" cx="306.91" cy="450.15" rx="2.41" ry="3.76" transform="translate(-168.41 183.89) rotate(-26.46)"/>
          </g>
        </g>
        <path class="cls-15" d="M237.76,450.44a16.63,16.63,0,0,1,1.28-6.55,22.81,22.81,0,0,1,1.46-3c.26-.5.61-.94.91-1.42a16.25,16.25,0,0,1,1-1.36,30.14,30.14,0,0,1,2.3-2.49c.43-.37.88-.72,1.31-1.08.22-.17.43-.36.66-.52l.73-.45a15.56,15.56,0,0,1,6.23-2.45l.09.18a28.57,28.57,0,0,0-5.33,3.48,15,15,0,0,0-1.2,1.05c-.38.37-.77.73-1.15,1.11-.71.79-1.44,1.56-2.08,2.41a34.1,34.1,0,0,0-3.52,5.3,31.79,31.79,0,0,0-2.48,5.87Z"/>
        <path class="cls-8" d="M149.53,256a10.32,10.32,0,0,1-4.24,10.34c1.05-4.93,2.23-9.59,3.53-14C148.94,253.49,149.3,254.81,149.53,256Z"/>
        <path class="cls-8" d="M180.09,380l-6.36,16.26s2.5,5.56,9.67,4.7.57-8.23,10.2-1.35,3.61-16.16-9.26-11.65C184.34,387.93,186.72,370.74,180.09,380Z"/>
        <path class="cls-8" d="M298.08,381s-23.43,1.3-15.62,14.75c0,0,1.74,4.78,9.55,5.64,0,0-11.72,6.51-3,12.15s13.45-3.9,13.45-3.9S307,399.2,298.08,381Z"/>
        <path class="cls-13" d="M148.42,255s.51.68,1.27,1.88c4.31,6.79,16.69,30.29-9.37,42.09C140.32,299,143.21,272.91,148.42,255Z"/>
        <path class="cls-13" d="M153.39,237.93s2.31,8.1,17.36,10.42c0,0-2.43,13.64-20.6.46C150.15,248.81,145.87,243.72,153.39,237.93Z"/>
        <path class="cls-13" d="M314.23,244.3s-9.25,2.31-10.41,7.52,11.57,2.89,11.57,2.89Z"/>
        <path class="cls-13" d="M317.13,264s-10.42,16.2,5.2,33.56Z"/>
      </g>
    </g>
  </g>
</svg>
