<svg xmlns="http://www.w3.org/2000/svg" xmlns:xlink="http://www.w3.org/1999/xlink" width="475" height="512" viewBox="0 0 475 512">
  <defs>
    <style>
      .cls-1 {
        fill: none;
      }

      .cls-2 {
        isolation: isolate;
      }

      .cls-3 {
        fill: #32223f;
      }

      .cls-4 {
        fill: #9edbd5;
        stroke: #6f31f7;
        stroke-width: 9px;
      }

      .cls-12, .cls-14, .cls-23, .cls-25, .cls-27, .cls-35, .cls-4, .cls-6, .cls-7 {
        stroke-miterlimit: 10;
      }

      .cls-5 {
        clip-path: url(#clip-path);
      }

      .cls-37, .cls-6 {
        fill: #fbd1b5;
      }

      .cls-6 {
        stroke: #cca183;
      }

      .cls-7 {
        fill: #b9c0b0;
        stroke: #2c9b59;
      }

      .cls-8 {
        fill: #3093e6;
      }

      .cls-9 {
        fill: #097cc1;
      }

      .cls-10, .cls-23, .cls-28, .cls-35 {
        fill: #eeeded;
      }

      .cls-11, .cls-14 {
        fill: #717070;
      }

      .cls-11, .cls-18, .cls-21, .cls-28, .cls-31, .cls-34, .cls-43 {
        mix-blend-mode: multiply;
      }

      .cls-11 {
        opacity: 0.3;
      }

      .cls-12 {
        fill: #a58484;
      }

      .cls-12, .cls-23, .cls-25, .cls-27, .cls-35 {
        stroke: #ba9b9b;
      }

      .cls-12, .cls-23, .cls-27 {
        stroke-width: 2px;
      }

      .cls-13 {
        fill: #c2c3c3;
      }

      .cls-14 {
        stroke: #5b4343;
      }

      .cls-15 {
        fill: #585857;
      }

      .cls-16, .cls-18 {
        fill: #7e4f25;
      }

      .cls-17 {
        fill: #442a19;
      }

      .cls-18 {
        opacity: 0.5;
      }

      .cls-19 {
        fill: #ead3d3;
      }

      .cls-20 {
        fill: #878787;
      }

      .cls-22 {
        fill: #b3b2b2;
      }

      .cls-24 {
        fill: #dadada;
      }

      .cls-25, .cls-27 {
        fill: #f7f5f5;
      }

      .cls-26 {
        fill: #a3a3a3;
      }

      .cls-29, .cls-31 {
        fill: #afb0b0;
      }

      .cls-30 {
        fill: #9f9f9f;
      }

      .cls-32, .cls-34 {
        fill: #78c8c1;
      }

      .cls-33 {
        fill: #5ebeb6;
      }

      .cls-35 {
        stroke-width: 0.75px;
      }

      .cls-36 {
        clip-path: url(#clip-path-2);
      }

      .cls-38 {
        fill: #eac1a4;
      }

      .cls-39 {
        fill: #6b6f70;
      }

      .cls-40, .cls-43 {
        fill: #4b5157;
      }

      .cls-41 {
        fill: #808588;
      }

      .cls-42 {
        fill: #899497;
      }

      .cls-43 {
        opacity: 0.4;
      }

      .cls-44 {
        fill: #cca183;
      }

      .cls-45 {
        fill: #db9d8e;
      }

      .cls-46 {
        fill: #342517;
      }

      .cls-47 {
        fill: #fff;
      }

      .cls-48 {
        fill: #3d2e17;
      }

      .cls-49 {
        fill: #2d2b21;
      }

      .cls-50 {
        fill: #f2f0e9;
      }

      .cls-51 {
        fill: #f4a198;
      }

      .cls-52 {
        fill: #60201e;
      }

      .cls-53 {
        fill: #fff7f4;
      }

      .cls-54 {
        fill: #f58778;
      }

      .cls-55 {
        fill: #f97a98;
      }

      .cls-56 {
        fill: #aa7959;
      }
    </style>
    <clipPath id="clip-path">
      <rect class="cls-1" x="23.5" y="56.75" width="438.99" height="400.11" rx="8.77"/>
    </clipPath>
    <clipPath id="clip-path-2">
      <path class="cls-1" d="M159.36,399.85S171,398.18,175,398.56c0,0,3.92,7.44,9.33,5.4s6.16-5.5,1-12.34-11-17.16-21.45-15.52S159.36,399.85,159.36,399.85Z"/>
    </clipPath>
  </defs>
  <g class="cls-2">
    <g id="Layer_1" data-name="Layer 1">
      <g>
        <g>
          <path class="cls-3" d="M306.76,50.75H168.24A93.78,93.78,0,0,0,87,97.65l-69.26,120a93.79,93.79,0,0,0,0,93.78L87,431.35a93.78,93.78,0,0,0,81.22,46.9H306.76A93.78,93.78,0,0,0,388,431.35l69.26-120a93.79,93.79,0,0,0,0-93.78L388,97.65A93.78,93.78,0,0,0,306.76,50.75Z"/>
          <path class="cls-4" d="M306.76,33.75H168.24A93.78,93.78,0,0,0,87,80.65l-69.26,120a93.79,93.79,0,0,0,0,93.78L87,414.35a93.78,93.78,0,0,0,81.22,46.9H306.76A93.78,93.78,0,0,0,388,414.35l69.26-120a93.79,93.79,0,0,0,0-93.78L388,80.65A93.78,93.78,0,0,0,306.76,33.75Z"/>
        </g>
        <g class="cls-5">
          <g>
            <g>
              <path class="cls-6" d="M248.07,222.75c-4.33,1.84-8.07,5.56-12.47,7.25-1.48.58-3.73-.48-5.38-.59a29.53,29.53,0,0,1-4.55-1c-2.12-.49-5.26-3.1-7.31-3.67,0,2.37-3.33,7.08-3.52,9.41s-1.48.94-1.76,3.21c0,0,4.94,3.69,5,3.68a36.74,36.74,0,0,0,5.4,3.17c2.08,1.09,3.73,2.64,5.75,3.76,3.57,2,7.47-1.11,10.56-2.74,1.92-1,3.79-2.15,5.73-3.15,1.23-.64,3.34-4.34,4.12-5.41C249.38,231.05,248.28,228.38,248.07,222.75Z"/>
              <path class="cls-7" d="M245.55,232.26a54.61,54.61,0,0,1-5,2.48c-2,.87-4.77,2.59-7.13,2.37a19.9,19.9,0,0,1-7.29-2.59,47.84,47.84,0,0,1-5.35-2.7h-5.24s-17.88,9.25-32.33,14.39L202.6,371.82,254,370.46,265.55,239.7A90.12,90.12,0,0,1,245.55,232.26Z"/>
              <path class="cls-8" d="M247.05,328.59c-.5-5.44-11.79-73.41-12.65-75.9a6.3,6.3,0,0,0-2.29-.79,7.55,7.55,0,0,0-3.64.49,94.24,94.24,0,0,0-2.19,10.32c-.73,4-1.3,8.1-1.82,12.17-1,7.93-6.2,58.93-6.2,66.54,2.29,3.1,10.63,13.64,13.4,13.48,2.16-.12,12.33-12,16.63-16.16C248.09,335.35,247.36,331.92,247.05,328.59Z"/>
              <path class="cls-9" d="M220.55,244a32.74,32.74,0,0,0,3.54,6.14c1.77,2.34,3.46,3.92,4.21,3.92,2.38,0,5.9-.05,6.3-.16,1.66-.56,2.94-2.44,4.07-4.1.33-.49.65-1,1-1.34a12.66,12.66,0,0,0,1.12-1.85c.19-.36.39-.75.62-1.12a5.93,5.93,0,0,1-.55-2.82c0-.23,0-.46,0-.68a14.31,14.31,0,0,0-2.87-3c-1.18.12-2.3.21-3.36.25a23.41,23.41,0,0,1-6.83-.75,23.91,23.91,0,0,0-4.35,3.62c-.46.45-.91.9-1.37,1.32l-.27.28-.09.08a.39.39,0,0,1-.12.25C221.32,244.18,220.93,244.13,220.55,244Z"/>
              <path class="cls-7" d="M209.65,240.08c.65.56,1.33,1.15,2,1.76a18.25,18.25,0,0,1,1.68,1.42,68,68,0,0,1,5.68,6.21c.2.24.42.49.62.75l.1.11a16.73,16.73,0,0,1,1.92-4.35,19.88,19.88,0,0,1,2.35-3l.54-.6c3.19-3.62,5.88-4.8,7.48-5.19-.39-.13-.78-.27-1.16-.43l-2.2-.93-2.5-1.07a54.88,54.88,0,0,1-8.63-4.39l-.23-.21-.93-.85A28.39,28.39,0,0,0,213,233.8c-.22.38-.45.76-.69,1.12l-.3.48A27.81,27.81,0,0,0,209.65,240.08Zm24.93-2.65c4.45,2.17,7.79,9.1,9.14,12.31a39.88,39.88,0,0,0,5.16-4.16c1.46-1.37,2.86-2.83,4-4.08.23-.25.47-.49.72-.74a9.48,9.48,0,0,0,2.36-3.1c-.8-.8-1.4-1.44-2-2-.89-1-1.75-2-2.58-3s-1.84-2.22-2.83-3.28c0,.41,0,.82.1,1.22l0,.24-.23.11a35.67,35.67,0,0,0-3.15,1.75c-1,.6-2,1.22-3.12,1.74A66.21,66.21,0,0,1,234.58,237.43Z"/>
            </g>
            <path class="cls-10" d="M236.85,370.21a10.65,10.65,0,0,0-5.15-.4c-2.35.17-4.66.25-7,.59,0,0-.07.1,0,.11,4,.53,8.05-.26,12,0C236.93,370.55,237.05,370.3,236.85,370.21Z"/>
            <path class="cls-10" d="M238.36,370.9a1,1,0,0,0-.73-.42.16.16,0,0,0-.19.2,1,1,0,0,0,.49.58C238.16,371.42,238.55,371.13,238.36,370.9Z"/>
            <path class="cls-11" d="M223.43,404.33c1,10.6,1.68,21.67,7.27,31.19.8-2.44-.17-5.25-.64-7.66-.56-2.83-.65-5.77-.95-8.63a178.29,178.29,0,0,1-1.41-19.58,133.76,133.76,0,0,1,2.39-23.55l-6.63.07C220.52,385.14,222.59,395.22,223.43,404.33Z"/>
            <g>
              <g>
                <path class="cls-12" d="M217.59,467.87a17,17,0,0,1,13-5.12c8,.49,15.7,1.3,15.7,1.3V403.61H212.83Z"/>
                <path class="cls-13" d="M217.29,468.76l-4.85-65.49h34.19v61.17l-.41,0c-.08,0-7.77-.83-15.69-1.31a16.71,16.71,0,0,0-12.66,5ZM213.22,404l4.68,63.11a17.2,17.2,0,0,1,12.68-4.65c6.89.42,13.62,1.09,15.31,1.27V404Z"/>
              </g>
              <path class="cls-14" d="M177.66,376.58l94.1-.87s16.16,69.19,17,94.81,1.07,40.6,2.9,43,1.66,4.73.24,9.32,1.17,16.37,3.44,30.49,4.91,37.94,6.34,42.54-.2,8.17,2.84,10.38,2.45,4.17,1.12,5.95.41,6.89-.51,7.58S289.8,627.5,284,628s-10.37-3.32-12.1-3.83-1.32-3.83-3.56-5.44-3.25-2.73-2-4.43,1.11-2.89-1.32-12.25-12.33-49.31-14.12-59.86S248.57,518.83,247,516s-3-4.19-1.36-6.47,2.18-3.51,2.18-5.21-7-19.74-11.61-44.41c-2.8-15-7.42-20.62-7.42-20.62s-7.21,50.06-7.18,57.54-2.47,12,0,14.3,2.2,4.08,1.11,5.89,1.36,9.08,2.18,14.52-3.82,54-4.63,65.57.54,20.87-.68,21.89-17.29,6.29-20.14,6.12-11.86-3.17-12.67-4.08-3.67-6.69-2.85-7.49a10,10,0,0,0,2.3-2.6c.27-.8-4.06-38.22-5.29-46.4s1.11-34.26-.12-37.09-3.11-4.54-1.62-7.15,1.36-2.95-.14-11.46-7-34.93-7.86-38.22-8.51-39.85-6-94Z"/>
              <g>
                <path class="cls-15" d="M230.13,435.39a6.25,6.25,0,0,0,.44-.45c-.4-8.5-1.48-16.89-2.08-25.35-.65-9.38-.34-18.82-.61-28.23,0-.26-.19-.18-.2.05-.09,9.41-.12,18.9.38,28.29C228.51,418.3,229.52,426.8,230.13,435.39Z"/>
                <path class="cls-15" d="M229.86,435.39a3.43,3.43,0,0,0,.49-.36c-2-7.81-2.54-15.85-3.17-24.48a264.58,264.58,0,0,1-.63-28.86c0-.38-.28-.29-.32,0-1.4,10.08-.43,21.23.33,31.43C227.07,420,227.36,429.57,229.86,435.39Z"/>
              </g>
              <path class="cls-11" d="M242.15,487.17c2.95.2,44-4.41,47-4.82-.06-3.41-3.33-26.58-3.15-30,.32-6.43-36.12,3.89-36.09-2.55A432.44,432.44,0,0,0,244.17,376l-30.74.31q.66,9.08,1.17,18.14c.48,8.47,1.08,17,1.3,25.45a64.88,64.88,0,0,1-1.74,17.92c.45,7.66-46,4.69-45.83,12.39.12,6.41,7,29.22,7.26,35.66,2.59.32,45.52,1.23,48.13.76,1.92-17.2,5.67-47.3,5.67-47.3s4.17,5.65,6.7,20.62C237.33,467.19,240.77,481.3,242.15,487.17Z"/>
            </g>
            <g>
              <g>
                <rect class="cls-16" x="215.4" y="372" width="30.86" height="7.5"/>
                <path class="cls-17" d="M246.63,379.84H215v-8.19h31.6Zm-30.86-.69h30.12v-6.82H215.77Z"/>
              </g>
              <path class="cls-18" d="M215.4,372v7.5h30.86V372ZM239,375.12c-.12,1.29.57,2-.75,2.79-1.52.9-5,.7-6.68.62-2.78-.15-10.16,1-9.89-3.18.09-1.35.71-2.49,2.41-2.36l.39,0c2.28-.08,4.52-.23,6.8-.18a32.88,32.88,0,0,1,5.58.21C238.27,373.23,239.13,373.64,239,375.12Z"/>
              <g>
                <path class="cls-19" d="M235.74,369.71H225.48c-3.87,0-4.2,2.68-4.2,6s.33,6,4.2,6h10.26c3.88,0,4.09-2.68,4.09-6S239.62,369.71,235.74,369.71Zm-1.25,10.06h-7.78c-2.93,0-3.18-1.82-3.18-4.06s.25-4.07,3.18-4.07h7.78c2.94,0,3.09,1.82,3.09,4.07S237.43,379.77,234.49,379.77Z"/>
                <path class="cls-20" d="M234.49,380.11h-7.78c-3.55,0-3.55-2.66-3.55-4.4s0-4.41,3.55-4.41h7.78c3.46,0,3.46,2.44,3.46,4.41S238,380.11,234.49,380.11ZM226.71,372c-2.39,0-2.81,1.2-2.81,3.73s.42,3.72,2.81,3.72h7.78c2.54,0,2.73-1.41,2.73-3.72S237,372,234.49,372Z"/>
              </g>
              <g class="cls-21">
                <path class="cls-22" d="M223.53,375.71v-.11c-.05.13-.09.26-.13.39a7.06,7.06,0,0,0,0,3.18,2.76,2.76,0,0,0,1.94,1.29,29.08,29.08,0,0,0,9.4,0,3.26,3.26,0,0,0,2.78-4c-.06,1.89-.47,3.33-3.08,3.33h-7.78C223.78,379.77,223.53,378,223.53,375.71Z"/>
                <path class="cls-22" d="M236.62,371.66a3.17,3.17,0,0,0-1.86-.56,33.37,33.37,0,0,0-4.24-.13,34.48,34.48,0,0,0-4.2.27,4.5,4.5,0,0,0-1.81,1,3.36,3.36,0,0,1,2.2-.62h7.78c2.19,0,2.83,1,3,2.45A3.08,3.08,0,0,0,236.62,371.66Z"/>
              </g>
            </g>
            <path class="cls-23" d="M199.4,476.51h0c-20.81,0-44-3.31-44.19-3.34l-.31-.05v-.28c0-.23-.38-23-.38-36.08s2-35.87,2-36.1l0-.22,3.43-1.17-.24-1.59a5.07,5.07,0,0,1-2.29.53,6.93,6.93,0,0,1-3.14-.81l-.09,0,0-.09c-4.94-9.85-8.09-49.16-7.39-67.71.72-18.77,13.45-64.1,18-75.3,3.56-8.72,10.64-10.19,18.84-11.91,2.11-.44,4.29-.9,6.47-1.5,10.4-2.84,23.68-10,23.81-10.11l.55-.3v.6c0,.62-2.37.49-2.53.72-.5,1-1.77,8.59-1,15.48.49,4.38,1,10.09,1.43,15.14l2.42,12c1.58,18.84,7.75,66.06,8.21,93.09.49,28.49,0,105.69,0,106.47v.25l-.26.08C217.18,475.77,209.32,476.51,199.4,476.51Z"/>
            <path class="cls-23" d="M160,437.45h0c-1.6,0-3.34-.08-5.16-.24l-.35,0v-.43c0-13.14,2-35.87,2-36.1l0-.22,2.66-.9c.62-.16,1.24-.3,1.85-.41a58.27,58.27,0,0,1,8-.71l1.4-.06a101.92,101.92,0,0,1,10.34,0h.33l0,.32c.15,4.06.29,8.45.26,12.9v1.31c0,5.07,0,10.81-2.25,15.63C176.46,434.44,170,437.45,160,437.45Z"/>
            <g>
              <path class="cls-24" d="M160,397.11l.28,1.8a24.74,24.74,0,0,1,3-.55c2.91-.3,5.86-.43,8.79-.53s5.76-.08,8.63.06c-.05-1.24-.11-2.48-.16-3.73h0a44.7,44.7,0,0,0-2.47-4.14,3.36,3.36,0,0,1-.66-1.63c0-.87.41-2-.13-2.81a25.93,25.93,0,0,0-4.42-4.4c-1.8-1.6-4-3.29-6.68-2.51-3.84,1.12-7.23,4.82-9.36,7.87-1.74,2.48-3.44,6.33-2.83,9.56q.23.56.45,1S157.47,398.82,160,397.11Z"/>
              <path class="cls-24" d="M160,399.33l-.25-1.65a5.07,5.07,0,0,1-2.29.53h0a6.93,6.93,0,0,1-3.14-.81l-.09,0,0-.09q-.24-.48-.48-1.05c-.64-3.35,1.06-7.28,2.87-9.86s5.22-6.75,9.56-8a5,5,0,0,1,1.47-.22c2.22,0,4,1.45,5.58,2.81l.76.66a21.53,21.53,0,0,1,3.71,3.8,3.2,3.2,0,0,1,.26,2.32c0,.24-.06.47-.07.68a2.59,2.59,0,0,0,.51,1.29l.1.17c.29.5.61,1,.93,1.46A18.25,18.25,0,0,1,181,394l0,.16.16,4.06-.41,0q-4-.19-8.58-.05c-2.61.08-5.68.2-8.77.52a24.09,24.09,0,0,0-3,.54Zm.31-2.82.3,2a24.51,24.51,0,0,1,2.68-.47c3.12-.32,6.22-.44,8.82-.53,2.92-.09,5.67-.07,8.26,0l-.13-3.31a19.17,19.17,0,0,0-1.48-2.56c-.33-.49-.65-1-1-1.49l-.1-.16a3.3,3.3,0,0,1-.6-1.64c0-.24,0-.49.08-.75a2.79,2.79,0,0,0-.14-1.86,21.6,21.6,0,0,0-3.6-3.68l-.77-.66c-1.43-1.27-3.12-2.62-5.07-2.62a4.57,4.57,0,0,0-1.25.19c-4.27,1.24-7.83,5.82-9.16,7.73-1.73,2.47-3.37,6.22-2.78,9.31l.38.85a6.41,6.41,0,0,0,2.66.65h0a4.23,4.23,0,0,0,2.35-.69Z"/>
            </g>
            <path class="cls-25" d="M197.93,257.38c.3.12.62.24.93.34,1.69.55,7.61,5.55,8.28,7.25a.68.68,0,0,1,0,.64c-.5.78-2.17,1.8-3.94,2.88s-3.92,2.39-4,3a.08.08,0,0,0,0,.08c5.07,5.19,15.37,30.88,17.54,37,.83,2.29,1.83,5.14,2.83,8.12-1.55-21.74-3.34-43.05-4.12-52.38l-.24-3c-.43-5-1-10-1.47-14.38-1-8.57-1.45-13.09-.86-14.27l.27-.42c.34-.51,1-1.5,1.36-2.15a6.79,6.79,0,0,0-2,.76c-.43.24-1,.51-1.53.81-2.16,1.11-5.78,3-5.91,4-.35,1.06-.73,2.05-1.09,3-.44,1.16-.9,2.37-1.29,3.57-.61,1.9-1.2,3.83-1.76,5.71l-.87,2.83c-.55,1.78-1,3.39-1.6,5C198.2,256.61,198.05,257.08,197.93,257.38Z"/>
            <path class="cls-22" d="M174.76,253.21c-.06-.14-.29-.05-.23.08,1,2.42,2.07,4.8,3,7.23s1.72,4.92,2.74,7.32c.05.13.27.07.25-.06C179.75,262.75,177,257.81,174.76,253.21Z"/>
            <path class="cls-26" d="M190.31,361.39l-.36-1.07c-1.37-5-2.24-10.14-4.14-15a.12.12,0,0,0-.22.08,79.45,79.45,0,0,1,2.26,8.64A85.82,85.82,0,0,0,182,340.33c-.06-.11-.26,0-.21.1,3,7.21,5.67,14.41,8.15,21.76,2.42,7.19,4.85,14.36,8.42,21.13,0,.08.19,0,.15-.08C195.32,376.11,192.78,368.76,190.31,361.39Z"/>
            <path class="cls-26" d="M181.83,271.19c0-.14-.23-.1-.23,0,.08,5-.3,9.94-.61,14.93-.34,5.24-.26,10.52-.49,15.77-.41,9.39-1.73,18.71-2.33,28.09q-.37-.37-.78-.72c-4-4.72-8.76-8.8-15.1-10.53-.12,0-.23.14-.1.19a25.3,25.3,0,0,1,8.47,4.66,47,47,0,0,1,3.7,3.48,32.11,32.11,0,0,0-7.59-3.32c-4.08-1.16-8.39-.6-11.38,2.35-.07.06,0,.17.1.11,3.74-3,8-3.12,12.51-1.59,3.51,1.2,6.23,3.36,9.27,5.2l.08.07h.06l.74.44c-.06.92-.12,1.85-.16,2.78-.47,10.49-.49,21.05-.54,31.54,0,8,2.83,16.67-.42,24.33-.15.36.38.57.56.23,1.71-3.3,1.73-7.16,1.59-10.74-.16-4.05-.82-8.07-.9-12.13-.1-5.28.14-10.58.25-15.86s.06-10.76.25-16.13c.37-10.65,1.92-21.23,2.33-31.87.2-5.26.15-10.52.39-15.78S182.66,276.31,181.83,271.19Z"/>
            <path class="cls-22" d="M176.28,406.29a69.12,69.12,0,0,1-3.14,9.33,38.79,38.79,0,0,1-5.72,8.77c-.17.21.11.41.3.23,5.25-4.51,7.64-12,8.78-18.3C176.53,406.17,176.32,406.16,176.28,406.29Z"/>
            <g>
              <path class="cls-27" d="M252.13,232.86s4.36,1.46,2.64,9.09-13.36,69.4-14.35,78.44-1.33,142.4,1.62,153.52c0,0,29.14,1.13,54.62-6.58,0,0-5.39-58.53-10.78-83s-11.63-25.83-11.38-36.72,6.48-40,6.48-40,4.9,33.58,21.07,30.86,34.53-36.75,39.68-50.36c0,0,.24-26.78-25.47-24.51l-11,25s-6.12-23.26-8.45-31-5-7.94-11.39-10.44S252.13,232.86,252.13,232.86Z"/>
              <path class="cls-28" d="M250.67,471.59c-5.68-3.29-6.66-10.37-7.54-16-1.06-6.72-2-13.46-2.9-20.2.32,19.74.89,35.07,1.81,38.53,0,0,5.92.22,14.74-.23A19.31,19.31,0,0,1,250.67,471.59Z"/>
              <path class="cls-23" d="M261.06,399.93c0,.11,0,.21,0,.31.05,1.57.19,3.27.41,5.36.17,1.53.3,3.1.43,4.61.15,1.7.29,3.44.49,5.15.68,6,1.54,13.55,7.9,17.15a22.27,22.27,0,0,0,10.82,3,16.72,16.72,0,0,0,7.17-1.55,22.94,22.94,0,0,0,4.2-2.6c-1.59-13.69-3.15-25.19-4.6-34.19-1.94.29-4,.38-5.91.48-1.38.06-2.68.12-3.92.24s-2.7.27-4.06.39c-3.47.31-7.05.64-10.49,1.23Z"/>
              <g class="cls-21">
                <path class="cls-29" d="M317.25,266.92a39.25,39.25,0,0,0,2.56,6.37,26.29,26.29,0,0,0,6,8.48c4.56,4,10,5.62,15.9,6.2,0-2-.8-26.43-25.31-24.38A27.4,27.4,0,0,0,317.25,266.92Z"/>
                <path class="cls-30" d="M342.1,288.35l-.41,0c-6.9-.69-12-2.69-16.12-6.29a27,27,0,0,1-6.09-8.59,39.29,39.29,0,0,1-2.59-6.41l-.06-.24a24.4,24.4,0,0,1-.78-3.14l-.05-.36.39,0c10.57-.89,18.41,3.15,22.57,11.61A32.78,32.78,0,0,1,342.1,288ZM316.84,263.9a27.8,27.8,0,0,0,.69,2.7l.07.23a38.26,38.26,0,0,0,2.55,6.31,26.18,26.18,0,0,0,5.93,8.39c3.89,3.42,8.76,5.35,15.27,6.06a32.13,32.13,0,0,0-3.05-12.45C334.27,267,327.05,263.16,316.84,263.9Z"/>
              </g>
              <path class="cls-31" d="M337.77,282.45c-2.17-4-4.84-8-8.65-10.84-3.47-2.54-7.56-3.55-11.76-4.33a41.16,41.16,0,0,0,2.45,6,26.29,26.29,0,0,0,6,8.48c4.2,3.7,9.19,5.35,14.53,6Q339.19,285.08,337.77,282.45Z"/>
              <g>
                <path class="cls-32" d="M336,273.55a14.46,14.46,0,0,0-2.34-5.18,20.32,20.32,0,0,0-12.35-4.83c-.82,1.41-1.84,2.78-2.68,4.1l-.74,1.16a47.87,47.87,0,0,0,1.94,4.49,26.29,26.29,0,0,0,6,8.48,22.94,22.94,0,0,0,5.92,3.76c.67-1.24,1.34-2.49,2-3.75.83-1.64,1.74-3.24,2.68-4.81A17.68,17.68,0,0,0,336,273.55Z"/>
                <path class="cls-33" d="M331.91,286l-.33-.15a23.06,23.06,0,0,1-6-3.81,27,27,0,0,1-6.09-8.59,46.23,46.23,0,0,1-2-4.52l0-.15.81-1.3c.34-.53.71-1.07,1.09-1.62.54-.8,1.1-1.63,1.59-2.46l.11-.2.24,0a20.73,20.73,0,0,1,12.57,4.93l.06.07a14.84,14.84,0,0,1,2.39,5.27,19,19,0,0,1,.44,3.49v.09l-.05.08c-1,1.73-1.92,3.29-2.68,4.8-.69,1.34-1.39,2.65-2,3.75Zm-13.64-17.14a43.42,43.42,0,0,0,1.88,4.3,26.18,26.18,0,0,0,5.93,8.39,22.51,22.51,0,0,0,5.5,3.54c.56-1,1.2-2.21,1.81-3.43.76-1.5,1.63-3.05,2.65-4.75a17.54,17.54,0,0,0-.42-3.27,14,14,0,0,0-2.26-5,20,20,0,0,0-11.86-4.69c-.47.78-1,1.55-1.5,2.3-.37.54-.74,1.08-1.07,1.61Z"/>
              </g>
              <path class="cls-34" d="M336.41,277a17.68,17.68,0,0,0-.43-3.42,14.46,14.46,0,0,0-2.34-5.18,20.32,20.32,0,0,0-12.35-4.83c-.51.88-1.1,1.75-1.68,2.6a5.38,5.38,0,0,0,.76,3.51c1.31,2.09,3.5,3.58,5.57,5s4.56,3.54,7.44,3.5"/>
              <path class="cls-35" d="M240.16,325.55l.06-1.6c.06-1.75.13-2.95.2-3.56.94-8.58,10.68-70.71,12.47-78.68,1.62-7.2-.84-8.48-.86-8.5l-.57-.27.54-.32a2.4,2.4,0,0,1,1.13-.22,5.49,5.49,0,0,1,1.33.18c5,1.26,7.69,2.34,8.25,4.7,1,3,1.92,6.17,2.81,9.2.54,1.81,1.18,3.63,1.81,5.39a68.48,68.48,0,0,1,2.67,8.81l.07.32-.36.07a23.39,23.39,0,0,0-6.27,2.54,31.59,31.59,0,0,1-4.68,2.14s-.06,0-.06.06c.5.55,1,1.05,1.47,1.54a37.78,37.78,0,0,1,6.23,7.52l.16.28-.29.17c-2.76,1.61-4.27,5-5.48,7.74l-.19.43q-1,2.24-2,4.45c-1.36,3.13-2.77,6.36-4.3,9.51-4.81,9.85-9.2,18.57-13.43,26.66Z"/>
              <path class="cls-26" d="M287.66,256.53A105.15,105.15,0,0,0,280.81,267c-2.07,3.42-4.91,6.57-5.93,10.43,0,.11.15.16.2.05a21.25,21.25,0,0,1,1-2A187.9,187.9,0,0,1,279,297.39c.45,7.44.47,14.87.74,22.31,0,.11.16.08.16,0,.26-7.44.12-14.91-.32-22.35s-1.15-15-3.34-22.08h0c1.46-2.54,3.31-4.89,4.77-7.44,2.15-3.8,4.61-7.43,6.77-11.2C287.82,256.53,287.71,256.47,287.66,256.53Z"/>
              <path class="cls-22" d="M306.24,287s0-.05-.06,0a38.24,38.24,0,0,0-3.64,7.78c-2,2.79-4.16,5.17-5.55,8.31a20.94,20.94,0,0,0-1.74,9.57c0,.25.35.17.37,0a28.92,28.92,0,0,1,2.1-9.86c1.11-2.56,3-4.62,4.49-7-.21.7-.42,1.41-.6,2.12-.95,3.69-1.52,7.9-.49,11.63.06.21.41.1.38-.09a33.6,33.6,0,0,1,.65-11.48A56.71,56.71,0,0,1,306.24,287Z"/>
            </g>
            <g class="cls-36">
              <g>
                <path class="cls-37" d="M158.64,385c.26,1.31,2.74,19.8,3.16,26.83s3.16,12.18,7.8,12.82,2.52-27.09,4.42-28,4.76,7.33,9.23,5.77-5.43-12.62-6.75-15-4.42-3.44-4.56-5.81-3.44-3.68-6.34-2.81S158.39,383.72,158.64,385Z"/>
                <path class="cls-6" d="M169.76,425h-.22c-4.62-.64-7.65-5.55-8.1-13.14-.42-7-2.92-25.52-3.16-26.79-.29-1.55,4.22-5.64,7.21-6.54a6.79,6.79,0,0,1,2-.29c2.65,0,4.74,1.47,4.85,3.41.07,1.22,1,2.06,2.17,3a10.2,10.2,0,0,1,2.36,2.62c.29.52,1,1.52,1.9,2.68,2.69,3.6,6.77,9.06,5.92,11.58a2,2,0,0,1-1.27,1.22,4,4,0,0,1-1.26.22c-2.33,0-4.13-2.2-5.59-4-.83-1-1.69-2.06-2.21-2.06a.35.35,0,0,0-.14,0c-.54.45-.69,5.32-.82,9.62C173,417.42,172.59,425,169.76,425Z"/>
              </g>
              <path class="cls-38" d="M177.1,398.76c-1.27-2.6-3.42-5.61-6.92-4.5-.09,0-.07.17,0,.15a4.63,4.63,0,0,1,4.72,2.12,7.07,7.07,0,0,0-4.3-.62c-.08,0-.1.14,0,.14a7.77,7.77,0,0,1,5.14,1.78.17.17,0,0,0,.18,0c.27.35.56.7.87,1C176.92,399,177.17,398.92,177.1,398.76Z"/>
            </g>
            <g>
              <g>
                <g>
                  <path class="cls-39" d="M204.09,349.68c-1.9-.11-3.33-.64-4.07-1.55-1.92-2.36-4.6-9.09-4.71-9.38l1.6-.54c0,.07,2.7,6.8,4.47,9,1.49,1.82,8.9,1.34,17.13-3.56l.91,1.33C213.53,348.46,207.87,349.91,204.09,349.68Z"/>
                  <path class="cls-40" d="M216.74,342.52a6.67,6.67,0,0,0,1.9,4.7s1.51,1.46,7-3.07a5.9,5.9,0,0,0-1.56-3.92S218,340.33,216.74,342.52Z"/>
                </g>
                <g>
                  <path class="cls-41" d="M202.66,349.5c1.86-.34,3.21-1,3.82-2,1.58-2.56,3.31-9.56,3.4-9.85l-1.67-.36c0,.07-1.75,7.06-3.21,9.42-1.23,2-8.64,2.38-17.47-1.51l-.73,1.42C193.12,349.39,198.94,350.16,202.66,349.5Z"/>
                  <path class="cls-40" d="M189.13,343.87a6.63,6.63,0,0,1-1.25,4.89s-1.3,1.62-7.33-2.23a5.79,5.79,0,0,1,1-4.07S187.6,341.84,189.13,343.87Z"/>
                </g>
                <path class="cls-40" d="M202.16,236.93a42.33,42.33,0,0,0,4.74-4.14c-5.31,1.85-10,4.55-13.4,9.24-7,9.56-4.57,23.67-3,33,.25,1.47.48,2.83.67,4.06.64,4.49,1.15,7.28,1.5,9l-.49.2c-4.09,1.86-6.65,7.56-6.87,15.22-.28,9.94,9.31,33.21,9.72,34.2l3.18-1.13c-.1-.24-9.76-23.67-9.49-33,.18-6.29,1.53-10.46,4.37-11.76,1.73-.79,5.06-.33,7.67,1.43,8.25,5.56,9.58,33.19,6.59,43.11l3.28.85c2.93-9.73,2.07-40.13-8.4-47.19a13,13,0,0,0-6.18-2.41c-.33-1.58-.84-4.32-1.51-8.95-.19-1.25-.42-2.64-.68-4.13-1.6-9.38-3.8-22.22,2.43-30.76a17.66,17.66,0,0,1,2.63-2.88"/>
                <path class="cls-40" d="M194.43,278.65s1.42,8.58,1.57,9.36.4,1.08,1.57,1.47c0,0,.55.06.3.7a9.42,9.42,0,0,0-.56,2.77c0,.69.15,1-.4.92s-2.66-.86-4.17.3c-.52.39-.64.31-1-.43a23.82,23.82,0,0,1-1.28-3c-.09-.43.65-.52,1-.74s.75-.28.52-1.7-1.45-8.48-1.55-9.22.74-.88,1.66-1.14S194.34,278,194.43,278.65Z"/>
                <path class="cls-42" d="M193.31,289.24a.11.11,0,0,0,0-.12c0-.2.81-.26.85,0a.2.2,0,0,1,0,.2C194,289.48,193.18,289.38,193.31,289.24Z"/>
              </g>
              <g>
                <g>
                  <path class="cls-40" d="M267.66,327.11c-2,6-8.91,9.29-15.36,7.41s-10-8.26-8-14.23,8.92-9.3,15.37-7.41S269.69,321.13,267.66,327.11Z"/>
                  <path class="cls-43" d="M266.26,317.57a12.14,12.14,0,0,1,.68,5.1c-.24,4-1.92,7.28-6,9-4.46,1.89-10.11.6-13.83-2.07a8.64,8.64,0,0,1-3.19-4.27,11.62,11.62,0,0,0,8.42,9.16c6.45,1.88,13.32-1.44,15.36-7.41A10.58,10.58,0,0,0,266.26,317.57Z"/>
                  <path class="cls-42" d="M259.29,324.41a3.73,3.73,0,0,1-4.58,2.21,3.34,3.34,0,0,1-2.38-4.24,3.71,3.71,0,0,1,4.57-2.21A3.34,3.34,0,0,1,259.29,324.41Z"/>
                </g>
                <path class="cls-40" d="M266.85,237.13c-.5-.65-3.12-1.37-3.83-.91s-.36.57,1.26,2.57c6.6,8.1-3.76,60.36-8.12,79a1.22,1.22,0,0,0,0,.63.41.41,0,0,1,.26-.15,3.33,3.33,0,0,1,2.5.71,1.54,1.54,0,0,0,.29-.57c0-.17,4-17.18,6.93-35.28C267.63,274,272.21,244.28,266.85,237.13Z"/>
              </g>
            </g>
            <g>
              <g>
                <path class="cls-6" d="M336.1,270.75c9.07-2.11,13-10.77,13-10.77,14.73-3.81,15.74-6.31,15.7-8.54s-2.64-1.75-2.64-1.75l-12.56,3.18s11.95-10.25,14-16-1.72-5.3-6.5-.85-9.35,8.43-9.35,8.43-1.52,0-.42-2.14,9-16.22,9-16.22,1.78-2.61-.54-4.36-5.72,1.78-15.68,17.18c0,0-.69-1.9,2.15-12.34,0,0,2-8.07-1.79-10.43,0,0-2.95,0-8.1,20,0,0-3,9.55-5.86,11.45,0,0-.44.86-2.37-3s-5.42-6.86-9.57-4.48c0,0-2.22.73.9,3.85s3.75,5.86,4.6,10.88.85,5,3.5,9.91l-3.18,4.87s7.7,8.43,13,8.49l2.23-6.6"/>
                <g>
                  <path class="cls-37" d="M333.89,235.58s17.37,5.83,16.1,18.86"/>
                  <path class="cls-44" d="M333.89,235.58a27.53,27.53,0,0,1,6.21,2.55,24.43,24.43,0,0,1,5.44,4,16,16,0,0,1,3.81,5.63,14.54,14.54,0,0,1,.8,3.31,13.47,13.47,0,0,1-.16,3.36,15,15,0,0,0-1.35-6.37,18.23,18.23,0,0,0-3.8-5.22,31.67,31.67,0,0,0-5.14-4.06c-.91-.61-1.87-1.17-2.84-1.69S334.9,236.06,333.89,235.58Z"/>
                </g>
              </g>
              <path class="cls-6" d="M325.64,247.15s6.63,3.55,7.57,10.16"/>
            </g>
            <g>
              <path class="cls-6" d="M293.87,185c-4.66,7.95-13.11,10.67-19.42,7s-3.46-8.1,1.19-16.05,4.75-7,11.6-9.56C302.24,160.64,298.53,177,293.87,185Z"/>
              <path class="cls-45" d="M289.38,170.09a3.48,3.48,0,0,1,3.06.55c1.09,1,1.11,2.63.87,4.06a23.73,23.73,0,0,1-7.4,13,5.91,5.91,0,0,1-2,1.38,2.24,2.24,0,0,1-2.31-.41,2.56,2.56,0,0,1-.3-2.62c.8-2.22,3-3.54,4.81-5a4.45,4.45,0,0,0,1.27-1.43,1.77,1.77,0,0,0-.07-1.82,2.36,2.36,0,0,0-1.29-.73,12.52,12.52,0,0,0-3.05-.28c-.3-1.55,1.07-2.87,2-3.86A9.22,9.22,0,0,1,289.38,170.09Z"/>
            </g>
            <g>
              <path class="cls-6" d="M173.4,178.07c3.1,8.39,10,12,15.7,9s3.79-7.69.69-16.08-3.29-7.43-8.81-10.73C168.88,153,170.29,169.68,173.4,178.07Z"/>
              <path class="cls-45" d="M178.77,163.76a2.6,2.6,0,0,0-2.65.23c-1,.83-1.21,2.5-1.16,3.94a25.4,25.4,0,0,0,4.89,13.71,5.07,5.07,0,0,0,1.57,1.59,1.69,1.69,0,0,0,2-.17,2.9,2.9,0,0,0,.53-2.57c-.44-2.28-2.16-3.83-3.55-5.5a4.56,4.56,0,0,1-.92-1.55,2,2,0,0,1,.26-1.8,1.86,1.86,0,0,1,1.16-.59,9.5,9.5,0,0,1,2.61,0c.42-1.5-.6-3-1.31-4.05A8.06,8.06,0,0,0,178.77,163.76Z"/>
            </g>
            <path class="cls-6" d="M288.44,151.1c2.83-30.54-12.25-51.84-47-54.23-33.72-2.33-54.52,13.79-57.35,44.34-1.31,14.12.18,38.78.22,39.55,2.31,44.39,46.76,50.72,48.75,50.36,7-1.28,38.12.18,48.62-43.64C281.88,186.73,287.13,165.23,288.44,151.1Z"/>
            <path class="cls-46" d="M220.5,147.67c-3.81-1.24-17.47-2-21.31,6.07,0,0,11.1-3.54,20.38-1.68C219.57,152.06,222.44,148.3,220.5,147.67Z"/>
            <path class="cls-46" d="M249.62,148c3.91-.87,17.59-.33,20.64,8.08,0,0-10.71-4.59-20.12-3.62C250.14,152.43,247.64,148.42,249.62,148Z"/>
            <path class="cls-45" d="M201.58,126.62s1.94,4.7,23.68,7.86a61.61,61.61,0,0,0,30.52-3.28l7.71-2.89s9.88-10.6,14.21,21.2l6.24,27.41.83-57-79.38-12.6-13.08,12-9.53,15.24s.34,24.73.94,35.46l5.81-23.65S198.44,145.65,201.58,126.62Z"/>
            <path class="cls-46" d="M276.74,127.34l0,3.88,7.16,45.7s4.67-10.06,6.36-15.7c0,0,3.31-14.54,1.58-25.1a41.47,41.47,0,0,0,.27,8.36s8.44-27.22-10.59-47.3c0,0,1.52,6.69,9,11.29,0,0-10.31-30.91-40.09-34.46-15.58-1.85-38.37-.39-46.57,14.77,0,0-12.78-3.37-23,20.15,0,0-2.75,6.88,12.41-11.73,0,0-10.1,2.32-15.62,25.15-5.21,21.57-.52,34.2,5.49,50.06,0,0,.18-17.9,5.86-30.85l.24,2.89s5.3,0,11.08-22.17c0,0-2.26,3.5,13.4,7.91a99.3,99.3,0,0,0,54.64-.42Z"/>
            <g>
              <g>
                <ellipse class="cls-47" cx="255.49" cy="171.95" rx="10.56" ry="10.13" transform="translate(69.23 417.21) rotate(-86.73)"/>
                <path class="cls-48" d="M265.65,172.53a11,11,0,0,1-3.26,7.31,10.19,10.19,0,0,1-15-.55,11.23,11.23,0,0,1,.89-15.55,10.36,10.36,0,0,1,7.83-2.69,10.24,10.24,0,0,1,7.12,3.86A10.88,10.88,0,0,1,265.65,172.53Zm-.08,0A10.72,10.72,0,0,0,263.1,165a9.76,9.76,0,0,0-14.36-.81,10.81,10.81,0,0,0-.84,14.66,9.77,9.77,0,0,0,14.36.84A10.77,10.77,0,0,0,265.57,172.53Z"/>
              </g>
              <ellipse class="cls-49" cx="255.52" cy="171.5" rx="6.57" ry="6.3" transform="translate(69.7 416.81) rotate(-86.73)"/>
              <ellipse class="cls-50" cx="258" cy="168.43" rx="1.91" ry="1.83" transform="translate(75.11 416.39) rotate(-86.73)"/>
            </g>
            <g>
              <g>
                <ellipse class="cls-47" cx="213.71" cy="169.42" rx="10.55" ry="10.13" transform="translate(32.36 373.11) rotate(-86.73)"/>
                <path class="cls-48" d="M223.86,170a10.93,10.93,0,0,1-3.26,7.3,10.19,10.19,0,0,1-15-.55,11.18,11.18,0,0,1,.89-15.53,10.2,10.2,0,0,1,14.94,1.16A10.88,10.88,0,0,1,223.86,170Zm-.08,0a10.7,10.7,0,0,0-2.47-7.5,9.78,9.78,0,0,0-14.36-.81,10.8,10.8,0,0,0-.84,14.65,9.78,9.78,0,0,0,14.36.83A10.73,10.73,0,0,0,223.78,170Z"/>
              </g>
              <ellipse class="cls-49" cx="213.73" cy="168.98" rx="6.56" ry="6.3" transform="translate(32.83 372.71) rotate(-86.73)"/>
              <ellipse class="cls-50" cx="216.53" cy="166.54" rx="1.9" ry="1.83" transform="translate(37.89 373.2) rotate(-86.73)"/>
            </g>
            <g>
              <path class="cls-51" d="M215,198.52s8,17.25,18.83,18c12.26.81,18.25-17.34,18.25-17.34S234,204.94,215,198.52Z"/>
              <path class="cls-52" d="M216.94,199.76s8.19,12.84,19.05,12.17c9-.56,13.81-12.59,13.81-12.59S236,206.18,216.94,199.76Z"/>
              <path class="cls-53" d="M219.91,199.94s3.9,8.54,17.5,6.94c0,0,7.42-.42,9.72-5.95C247.13,200.93,232.12,205.42,219.91,199.94Z"/>
              <path class="cls-54" d="M212.21,197.57a1.7,1.7,0,0,0,.53.35c8.44,4,29,10,40.65-1.4,0,0-5.37,4.78-16.86,5.4S212.21,197.57,212.21,197.57Z"/>
              <path class="cls-55" d="M227.76,210a8,8,0,0,1,6.38-1s3-1.88,7.87.67A12.22,12.22,0,0,1,227.76,210Z"/>
            </g>
            <path class="cls-46" d="M233.8,190.1s11,10.48-3.43,10.12c-6-.15-17-1.45-17-1.45l1.08,3.26-2.14-3A3.24,3.24,0,0,1,215,193.9h0c13.41-4,15.76-5.24,18.83-3.8Z"/>
            <path class="cls-46" d="M234.12,189.92s-9.36,10.3,3.29,10.12c5.74-.08,16.28-1.45,16.28-1.45l-1,3.26,2.15-3.16a3.19,3.19,0,0,0-2.63-5h0c-6.81-1.8-11.51-3.43-18-3.79Z"/>
            <g>
              <path class="cls-37" d="M226.09,185.44a16.31,16.31,0,0,0,6.39,4.3c3.76,1.25,9.63-3.39,9.63-3.39"/>
              <path class="cls-56" d="M226.09,185.44a24.56,24.56,0,0,0,3.72,2.59,15.22,15.22,0,0,0,2,.95,5.21,5.21,0,0,0,2,.47,7.45,7.45,0,0,0,2.12-.31,14.87,14.87,0,0,0,2.09-.74,38.62,38.62,0,0,0,4.06-2.05,16.56,16.56,0,0,1-3.72,2.76,9.85,9.85,0,0,1-4.56,1.34,5.85,5.85,0,0,1-2.38-.6,11.77,11.77,0,0,1-2-1.16A13.28,13.28,0,0,1,226.09,185.44Z"/>
            </g>
            <path class="cls-35" d="M177.8,370.33l1.26,16.09c-19.3,3.1-24.73,11-24.73,11s-2.72-5.3-4-19.5"/>
          </g>
        </g>
      </g>
    </g>
  </g>
</svg>
